G04 #@! TF.FileFunction,Copper,L1,Top,Signal*
%FSLAX46Y46*%
G04 Gerber Fmt 4.6, Leading zero omitted, Abs format (unit mm)*
G04 Created by KiCad (PCBNEW 4.0.6+dfsg1-1) date Wed Nov 15 17:46:22 2017*
%MOMM*%
%LPD*%
G01*
G04 APERTURE LIST*
%ADD10C,0.100000*%
%ADD11R,2.200000X2.200000*%
%ADD12O,2.200000X2.200000*%
%ADD13R,1.600000X1.600000*%
%ADD14C,1.600000*%
%ADD15R,1.800000X1.800000*%
%ADD16C,1.800000*%
%ADD17R,1.850000X1.850000*%
%ADD18C,1.850000*%
%ADD19O,2.540000X2.032000*%
%ADD20O,1.600000X1.600000*%
%ADD21C,1.524000*%
%ADD22C,0.600000*%
%ADD23C,0.250000*%
%ADD24C,0.254000*%
G04 APERTURE END LIST*
D10*
D11*
X148800000Y-110300000D03*
D12*
X148800000Y-102680000D03*
D13*
X89500000Y-106700000D03*
D14*
X87000000Y-106700000D03*
D13*
X176300000Y-102600000D03*
D14*
X178800000Y-102600000D03*
D13*
X163600000Y-102500000D03*
D14*
X166100000Y-102500000D03*
D13*
X170200000Y-102600000D03*
D14*
X172700000Y-102600000D03*
D13*
X180200000Y-115800000D03*
D14*
X180200000Y-113300000D03*
D13*
X158200000Y-89700000D03*
D14*
X158200000Y-87200000D03*
D13*
X132300000Y-96900000D03*
D14*
X129800000Y-96900000D03*
D13*
X139700000Y-116700000D03*
D14*
X137200000Y-116700000D03*
D13*
X132600000Y-140900000D03*
D14*
X132600000Y-138400000D03*
D13*
X124200000Y-103700000D03*
D14*
X126200000Y-103700000D03*
D13*
X124100000Y-110200000D03*
D14*
X126100000Y-110200000D03*
D13*
X184100000Y-88800000D03*
D14*
X186600000Y-88800000D03*
D13*
X135600000Y-96700000D03*
D14*
X138100000Y-96700000D03*
D13*
X130900000Y-116600000D03*
D14*
X133400000Y-116600000D03*
D13*
X161000000Y-80800000D03*
D14*
X158500000Y-80800000D03*
D13*
X183600000Y-102400000D03*
D14*
X186100000Y-102400000D03*
D13*
X124800000Y-116600000D03*
D14*
X126800000Y-116600000D03*
D13*
X124300000Y-96700000D03*
D14*
X126300000Y-96700000D03*
D15*
X193500000Y-101000000D03*
D16*
X196040000Y-101000000D03*
D17*
X61300000Y-84500000D03*
D18*
X61300000Y-82000000D03*
D17*
X71900000Y-121100000D03*
D18*
X69400000Y-121100000D03*
D17*
X174300000Y-96800000D03*
D18*
X171800000Y-96800000D03*
X169300000Y-96800000D03*
D17*
X195000000Y-92000000D03*
D18*
X195000000Y-94500000D03*
D17*
X185000000Y-47400000D03*
D18*
X187500000Y-47400000D03*
D17*
X186300000Y-140000000D03*
D18*
X183800000Y-140000000D03*
D17*
X61500000Y-98600000D03*
D18*
X61500000Y-96100000D03*
D17*
X83600000Y-121100000D03*
D18*
X81100000Y-121100000D03*
X78600000Y-121100000D03*
D17*
X193100000Y-61400000D03*
D18*
X193100000Y-58900000D03*
D17*
X195300000Y-128200000D03*
D18*
X195300000Y-130700000D03*
D17*
X194900000Y-77600000D03*
D18*
X194900000Y-80100000D03*
X194900000Y-82600000D03*
X194900000Y-85100000D03*
D17*
X194900000Y-108400000D03*
D18*
X194900000Y-110900000D03*
X194900000Y-113400000D03*
X194900000Y-115900000D03*
D17*
X81300000Y-74700000D03*
D18*
X83800000Y-74700000D03*
D19*
X155600000Y-99300000D03*
X155600000Y-101840000D03*
X155600000Y-96760000D03*
D14*
X187600000Y-62400000D03*
D20*
X187600000Y-54780000D03*
D14*
X183960000Y-54760000D03*
D20*
X183960000Y-62380000D03*
D14*
X184800000Y-133600000D03*
D20*
X177180000Y-133600000D03*
D14*
X96600000Y-121700000D03*
D20*
X88980000Y-121700000D03*
D14*
X96400000Y-112900000D03*
D20*
X88780000Y-112900000D03*
D14*
X88900000Y-117200000D03*
D20*
X96520000Y-117200000D03*
D14*
X122800000Y-86300000D03*
D20*
X130420000Y-86300000D03*
D14*
X179760000Y-96100000D03*
D20*
X187380000Y-96100000D03*
D14*
X160000000Y-68000000D03*
D20*
X160000000Y-75620000D03*
D14*
X187300000Y-65800000D03*
D20*
X187300000Y-73420000D03*
D14*
X187200000Y-84500000D03*
D20*
X187200000Y-76880000D03*
D21*
X165270000Y-108690000D03*
X167810000Y-108690000D03*
X170350000Y-108690000D03*
X172890000Y-108690000D03*
X162730000Y-108690000D03*
X160190000Y-108690000D03*
X157650000Y-108690000D03*
X155110000Y-108690000D03*
X172890000Y-116310000D03*
X170350000Y-116310000D03*
X167810000Y-116310000D03*
X165270000Y-116310000D03*
X162730000Y-116310000D03*
X160190000Y-116310000D03*
X157650000Y-116310000D03*
X155110000Y-116310000D03*
D13*
X179700000Y-88400000D03*
D20*
X164460000Y-55380000D03*
X179700000Y-85860000D03*
X164460000Y-57920000D03*
X179700000Y-83320000D03*
X164460000Y-60460000D03*
X179700000Y-80780000D03*
X164460000Y-63000000D03*
X179700000Y-78240000D03*
X164460000Y-65540000D03*
X179700000Y-75700000D03*
X164460000Y-68080000D03*
X179700000Y-73160000D03*
X164460000Y-70620000D03*
X179700000Y-70620000D03*
X164460000Y-73160000D03*
X179700000Y-68080000D03*
X164460000Y-75700000D03*
X179700000Y-65540000D03*
X164460000Y-78240000D03*
X179700000Y-63000000D03*
X164460000Y-80780000D03*
X179700000Y-60460000D03*
X164460000Y-83320000D03*
X179700000Y-57920000D03*
X164460000Y-85860000D03*
X179700000Y-55380000D03*
X164460000Y-88400000D03*
X179700000Y-52840000D03*
X164460000Y-52840000D03*
D21*
X137700000Y-103090000D03*
X140240000Y-103090000D03*
X142780000Y-103090000D03*
X135160000Y-103090000D03*
X132620000Y-103090000D03*
X137700000Y-110710000D03*
X140240000Y-110710000D03*
X142780000Y-110710000D03*
X135160000Y-110710000D03*
X132620000Y-110710000D03*
D13*
X104300000Y-111500000D03*
D20*
X111920000Y-103880000D03*
X106840000Y-111500000D03*
X109380000Y-103880000D03*
X109380000Y-111500000D03*
X106840000Y-103880000D03*
X111920000Y-111500000D03*
X104300000Y-103880000D03*
D21*
X88910000Y-81910000D03*
X88910000Y-79370000D03*
X88910000Y-76830000D03*
X88910000Y-74290000D03*
D17*
X66700000Y-74900000D03*
D18*
X69200000Y-74900000D03*
X71700000Y-74900000D03*
X74200000Y-74900000D03*
D21*
X154601500Y-48290000D03*
X154601500Y-50830000D03*
X154601500Y-53370000D03*
X154601500Y-55910000D03*
X154601500Y-58450000D03*
X154601500Y-60990000D03*
X154601500Y-63530000D03*
X154601500Y-66070000D03*
X154601500Y-81310000D03*
X154601500Y-78770000D03*
X154601500Y-76230000D03*
X154601500Y-73690000D03*
X154601500Y-71150000D03*
X154601500Y-68610000D03*
X135398500Y-68610000D03*
X135398500Y-71150000D03*
X135398500Y-73690000D03*
X135398500Y-76230000D03*
X135398500Y-78770000D03*
X135398500Y-81310000D03*
X135398500Y-66070000D03*
X135398500Y-63530000D03*
X135398500Y-60990000D03*
X135398500Y-58450000D03*
X135398500Y-55910000D03*
X135398500Y-53370000D03*
X135398500Y-50830000D03*
X135398500Y-48290000D03*
X100438000Y-117114000D03*
X102978000Y-117114000D03*
X108058000Y-117114000D03*
X110598000Y-117114000D03*
X126600000Y-140990000D03*
X126600000Y-138450000D03*
X126600000Y-135910000D03*
X126600000Y-133370000D03*
X126600000Y-130830000D03*
X126600000Y-128290000D03*
X126600000Y-125750000D03*
X126600000Y-123210000D03*
X172934000Y-133370000D03*
X172934000Y-135910000D03*
X172934000Y-138450000D03*
X172934000Y-130830000D03*
X172934000Y-128290000D03*
X172934000Y-125750000D03*
X70190000Y-90670000D03*
X77810000Y-90670000D03*
X80350000Y-90670000D03*
X67650000Y-90670000D03*
X80350000Y-113530000D03*
X67650000Y-113530000D03*
X67650000Y-96004000D03*
X80350000Y-96004000D03*
X117740000Y-96910000D03*
X117740000Y-89290000D03*
X87260000Y-96910000D03*
X87260000Y-89290000D03*
D22*
X116176000Y-95780100D03*
X177378400Y-79510000D03*
D23*
X146964700Y-110710000D02*
X147374700Y-110300000D01*
X142780000Y-110710000D02*
X146964700Y-110710000D01*
X148800000Y-110300000D02*
X147374700Y-110300000D01*
X135398500Y-76230000D02*
X154601500Y-76230000D01*
X156470000Y-78770000D02*
X158500000Y-80800000D01*
X154601500Y-78770000D02*
X156470000Y-78770000D01*
X111920000Y-111500000D02*
X109380000Y-111500000D01*
X109380000Y-111500000D02*
X106840000Y-111500000D01*
X106840000Y-111500000D02*
X104300000Y-111500000D01*
X146964700Y-103090000D02*
X147374700Y-102680000D01*
X142780000Y-103090000D02*
X146964700Y-103090000D01*
X148800000Y-102680000D02*
X147374700Y-102680000D01*
X85450300Y-121700000D02*
X84850300Y-121100000D01*
X88980000Y-121700000D02*
X85450300Y-121700000D01*
X83600000Y-121100000D02*
X84850300Y-121100000D01*
X181505300Y-80100000D02*
X180825300Y-80780000D01*
X194900000Y-80100000D02*
X181505300Y-80100000D01*
X179700000Y-80780000D02*
X180825300Y-80780000D01*
X154180000Y-102680000D02*
X148800000Y-102680000D01*
X160190000Y-108690000D02*
X154180000Y-102680000D01*
X132650000Y-138450000D02*
X132600000Y-138400000D01*
X172934000Y-138450000D02*
X132650000Y-138450000D01*
X87000000Y-100030000D02*
X87000000Y-106700000D01*
X85570000Y-98600000D02*
X87000000Y-100030000D01*
X87260000Y-96910000D02*
X85570000Y-98600000D01*
X85570000Y-98600000D02*
X61500000Y-98600000D01*
X173825400Y-101474600D02*
X172700000Y-102600000D01*
X171800000Y-99449200D02*
X171800000Y-96800000D01*
X173825400Y-101474600D02*
X171800000Y-99449200D01*
X164741300Y-86985300D02*
X164460000Y-86985300D01*
X171800000Y-94044000D02*
X164741300Y-86985300D01*
X171800000Y-96800000D02*
X171800000Y-94044000D01*
X164460000Y-85860000D02*
X164460000Y-86985300D01*
X177674600Y-101474600D02*
X173825400Y-101474600D01*
X178800000Y-102600000D02*
X177674600Y-101474600D01*
X193500000Y-101000000D02*
X193500000Y-102225300D01*
X196150400Y-104875700D02*
X193500000Y-102225300D01*
X196150400Y-111467700D02*
X196150400Y-104875700D01*
X194923100Y-112695000D02*
X196150400Y-111467700D01*
X194923100Y-112695100D02*
X194923100Y-112695000D01*
X194923100Y-113376900D02*
X194923100Y-112695100D01*
X194900000Y-113400000D02*
X194923100Y-113376900D01*
X186100000Y-103872000D02*
X186100000Y-102400000D01*
X194923100Y-112695000D02*
X186100000Y-103872000D01*
X132550000Y-138450000D02*
X132600000Y-138400000D01*
X126600000Y-138450000D02*
X132550000Y-138450000D01*
X170350000Y-108690000D02*
X170350000Y-116310000D01*
X173430700Y-119390700D02*
X170350000Y-116310000D01*
X174109300Y-119390700D02*
X173430700Y-119390700D01*
X177180000Y-122461400D02*
X174109300Y-119390700D01*
X177180000Y-133600000D02*
X177180000Y-122461400D01*
X174109300Y-119390700D02*
X180200000Y-113300000D01*
X89500000Y-106700000D02*
X89500000Y-107825300D01*
X81100000Y-116225300D02*
X89500000Y-107825300D01*
X81100000Y-121100000D02*
X81100000Y-116225300D01*
X96400000Y-114627000D02*
X96400000Y-112900000D01*
X100471900Y-118698900D02*
X96400000Y-114627000D01*
X155261100Y-118698900D02*
X100471900Y-118698900D01*
X157650000Y-116310000D02*
X155261100Y-118698900D01*
X94574700Y-112900000D02*
X89500000Y-107825300D01*
X96400000Y-112900000D02*
X94574700Y-112900000D01*
X174300000Y-94073800D02*
X174300000Y-96800000D01*
X164908500Y-84682300D02*
X174300000Y-94073800D01*
X159071100Y-84682300D02*
X164908500Y-84682300D01*
X148756700Y-94996700D02*
X159071100Y-84682300D01*
X148756700Y-94996700D02*
X155600000Y-101840000D01*
X123314900Y-94996700D02*
X148756700Y-94996700D01*
X122531500Y-95780100D02*
X123314900Y-94996700D01*
X116176000Y-95780100D02*
X122531500Y-95780100D01*
X168045800Y-103628900D02*
X169074700Y-102600000D01*
X165572900Y-103628900D02*
X168045800Y-103628900D01*
X164725300Y-102781300D02*
X165572900Y-103628900D01*
X164725300Y-102500000D02*
X164725300Y-102781300D01*
X163600000Y-102500000D02*
X164725300Y-102500000D01*
X170200000Y-102600000D02*
X169637400Y-102600000D01*
X169637400Y-102600000D02*
X169074700Y-102600000D01*
X163314700Y-80800000D02*
X163334700Y-80780000D01*
X161000000Y-80800000D02*
X163314700Y-80800000D01*
X164460000Y-80780000D02*
X163334700Y-80780000D01*
X170200000Y-102600000D02*
X171325300Y-102600000D01*
X171325300Y-102881300D02*
X171325300Y-102600000D01*
X172201800Y-103757800D02*
X171325300Y-102881300D01*
X183600000Y-103757800D02*
X172201800Y-103757800D01*
X183600000Y-104600000D02*
X183600000Y-103757800D01*
X194900000Y-115900000D02*
X183600000Y-104600000D01*
X183600000Y-103757800D02*
X183600000Y-102400000D01*
X169300000Y-102262600D02*
X169300000Y-96800000D01*
X169637400Y-102600000D02*
X169300000Y-102262600D01*
X158200000Y-89700000D02*
X159325300Y-89700000D01*
X166425300Y-96800000D02*
X159325300Y-89700000D01*
X169300000Y-96800000D02*
X166425300Y-96800000D01*
X154601500Y-81310000D02*
X135398500Y-81310000D01*
X105425300Y-103598700D02*
X105425300Y-103880000D01*
X113876800Y-95147200D02*
X105425300Y-103598700D01*
X119152300Y-95147200D02*
X113876800Y-95147200D01*
X132989500Y-81310000D02*
X119152300Y-95147200D01*
X135398500Y-81310000D02*
X132989500Y-81310000D01*
X104300000Y-103880000D02*
X105425300Y-103880000D01*
X161460000Y-112500000D02*
X165270000Y-116310000D01*
X161460000Y-105160000D02*
X161460000Y-112500000D01*
X155600000Y-99300000D02*
X161460000Y-105160000D01*
X134550600Y-98025300D02*
X133425300Y-96900000D01*
X136770900Y-98025300D02*
X134550600Y-98025300D01*
X141510000Y-102764400D02*
X136770900Y-98025300D01*
X141510000Y-103421300D02*
X141510000Y-102764400D01*
X142487100Y-104398400D02*
X141510000Y-103421300D01*
X148502600Y-104398400D02*
X142487100Y-104398400D01*
X156359300Y-112255100D02*
X148502600Y-104398400D01*
X160264000Y-112255100D02*
X156359300Y-112255100D01*
X164000000Y-115991100D02*
X160264000Y-112255100D01*
X164000000Y-116587300D02*
X164000000Y-115991100D01*
X164823400Y-117410700D02*
X164000000Y-116587300D01*
X166709300Y-117410700D02*
X164823400Y-117410700D01*
X167810000Y-116310000D02*
X166709300Y-117410700D01*
X132300000Y-96900000D02*
X133425300Y-96900000D01*
X142306000Y-115219300D02*
X140825300Y-116700000D01*
X161639300Y-115219300D02*
X142306000Y-115219300D01*
X162730000Y-116310000D02*
X161639300Y-115219300D01*
X139700000Y-116700000D02*
X140825300Y-116700000D01*
X131384700Y-140990000D02*
X131474700Y-140900000D01*
X126600000Y-140990000D02*
X131384700Y-140990000D01*
X132600000Y-140900000D02*
X131474700Y-140900000D01*
X110598000Y-117114000D02*
X108058000Y-117114000D01*
X123074700Y-104637300D02*
X123074700Y-103700000D01*
X110598000Y-117114000D02*
X123074700Y-104637300D01*
X124200000Y-103700000D02*
X123074700Y-103700000D01*
X124100000Y-110200000D02*
X122974700Y-110200000D01*
X104099900Y-118235900D02*
X102978000Y-117114000D01*
X114938800Y-118235900D02*
X104099900Y-118235900D01*
X122974700Y-110200000D02*
X114938800Y-118235900D01*
X102978000Y-117114000D02*
X100438000Y-117114000D01*
X134350000Y-116600000D02*
X133400000Y-116600000D01*
X140240000Y-110710000D02*
X134350000Y-116600000D01*
X127000000Y-110200000D02*
X133400000Y-116600000D01*
X126100000Y-110200000D02*
X127000000Y-110200000D01*
X187200000Y-76880000D02*
X186074700Y-76880000D01*
X183444700Y-79510000D02*
X186074700Y-76880000D01*
X177378400Y-79510000D02*
X183444700Y-79510000D01*
X191140000Y-96100000D02*
X187380000Y-96100000D01*
X196040000Y-101000000D02*
X191140000Y-96100000D01*
X129140000Y-133370000D02*
X126600000Y-135910000D01*
X172934000Y-133370000D02*
X129140000Y-133370000D01*
X164460000Y-70620000D02*
X164460000Y-71745300D01*
X194900000Y-108400000D02*
X194900000Y-107149700D01*
X173078000Y-85327700D02*
X194900000Y-107149700D01*
X173078000Y-80085000D02*
X173078000Y-85327700D01*
X164738300Y-71745300D02*
X173078000Y-80085000D01*
X164460000Y-71745300D02*
X164738300Y-71745300D01*
X129140000Y-130830000D02*
X172934000Y-130830000D01*
X126600000Y-133370000D02*
X129140000Y-130830000D01*
X164460000Y-73160000D02*
X164460000Y-74285300D01*
X192274600Y-108274600D02*
X194900000Y-110900000D01*
X192274600Y-106969700D02*
X192274600Y-108274600D01*
X172404700Y-87099800D02*
X192274600Y-106969700D01*
X172404700Y-82037200D02*
X172404700Y-87099800D01*
X164652800Y-74285300D02*
X172404700Y-82037200D01*
X164460000Y-74285300D02*
X164652800Y-74285300D01*
X185914700Y-73160000D02*
X186174700Y-73420000D01*
X179700000Y-73160000D02*
X185914700Y-73160000D01*
X187300000Y-73420000D02*
X186174700Y-73420000D01*
X169684700Y-64270000D02*
X178574700Y-73160000D01*
X157881500Y-64270000D02*
X169684700Y-64270000D01*
X154601500Y-60990000D02*
X157881500Y-64270000D01*
X179700000Y-73160000D02*
X178574700Y-73160000D01*
X80350000Y-90670000D02*
X77810000Y-90670000D01*
X71640000Y-84500000D02*
X61300000Y-84500000D01*
X77810000Y-90670000D02*
X71640000Y-84500000D01*
X164460000Y-75700000D02*
X163334700Y-75700000D01*
X70190000Y-90670000D02*
X67650000Y-90670000D01*
X161534700Y-77500000D02*
X163334700Y-75700000D01*
X133940700Y-77500000D02*
X161534700Y-77500000D01*
X122150700Y-89290000D02*
X133940700Y-77500000D01*
X117740000Y-89290000D02*
X122150700Y-89290000D01*
X71343300Y-91823300D02*
X70190000Y-90670000D01*
X115206700Y-91823300D02*
X71343300Y-91823300D01*
X117740000Y-89290000D02*
X115206700Y-91823300D01*
X196629800Y-89119900D02*
X195000000Y-90749700D01*
X196629800Y-71429800D02*
X196629800Y-89119900D01*
X187600000Y-62400000D02*
X196629800Y-71429800D01*
X195000000Y-92000000D02*
X195000000Y-90749700D01*
X60049600Y-94649600D02*
X61500000Y-96100000D01*
X60049600Y-81446300D02*
X60049600Y-94649600D01*
X63563100Y-77932800D02*
X60049600Y-81446300D01*
X89531400Y-77932800D02*
X63563100Y-77932800D01*
X107570800Y-59893400D02*
X89531400Y-77932800D01*
X162768100Y-59893400D02*
X107570800Y-59893400D01*
X163334700Y-60460000D02*
X162768100Y-59893400D01*
X163897400Y-60460000D02*
X163334700Y-60460000D01*
X163897400Y-60460000D02*
X164460000Y-60460000D01*
X164460000Y-60460000D02*
X165585300Y-60460000D01*
X197080200Y-92419800D02*
X195000000Y-94500000D01*
X197080200Y-60459600D02*
X197080200Y-92419800D01*
X185760300Y-49139700D02*
X197080200Y-60459600D01*
X176905600Y-49139700D02*
X185760300Y-49139700D01*
X165585300Y-60460000D02*
X176905600Y-49139700D01*
X185760300Y-49139700D02*
X187500000Y-47400000D01*
X192670100Y-135100000D02*
X186300000Y-135100000D01*
X197301900Y-130468200D02*
X192670100Y-135100000D01*
X197301900Y-100261700D02*
X197301900Y-130468200D01*
X193741300Y-96701100D02*
X197301900Y-100261700D01*
X193741300Y-89124700D02*
X193741300Y-96701100D01*
X196179400Y-86686600D02*
X193741300Y-89124700D01*
X196179400Y-76294000D02*
X196179400Y-86686600D01*
X183960000Y-64074600D02*
X196179400Y-76294000D01*
X183960000Y-62380000D02*
X183960000Y-64074600D01*
X184800000Y-133600000D02*
X186300000Y-135100000D01*
X186300000Y-135100000D02*
X186300000Y-140000000D01*
X96520000Y-117200000D02*
X96520000Y-118325300D01*
X96600000Y-118405300D02*
X96600000Y-121700000D01*
X96520000Y-118325300D02*
X96600000Y-118405300D01*
X80372100Y-122872100D02*
X78600000Y-121100000D01*
X95427900Y-122872100D02*
X80372100Y-122872100D01*
X96600000Y-121700000D02*
X95427900Y-122872100D01*
X195300000Y-126132400D02*
X195300000Y-128200000D01*
X176758900Y-107591300D02*
X195300000Y-126132400D01*
X166368700Y-107591300D02*
X176758900Y-107591300D01*
X165270000Y-108690000D02*
X166368700Y-107591300D01*
X185925400Y-121325400D02*
X195300000Y-130700000D01*
X185925400Y-117400400D02*
X185925400Y-121325400D01*
X177215000Y-108690000D02*
X185925400Y-117400400D01*
X172890000Y-108690000D02*
X177215000Y-108690000D01*
X179700000Y-52840000D02*
X179700000Y-53965300D01*
X194900000Y-77600000D02*
X194900000Y-76349700D01*
X179981300Y-53965300D02*
X179700000Y-53965300D01*
X182803700Y-56787700D02*
X179981300Y-53965300D01*
X182803700Y-64253400D02*
X182803700Y-56787700D01*
X194900000Y-76349700D02*
X182803700Y-64253400D01*
X154599500Y-86300000D02*
X130420000Y-86300000D01*
X159874600Y-81024900D02*
X154599500Y-86300000D01*
X159874600Y-79853300D02*
X159874600Y-81024900D01*
X161487900Y-78240000D02*
X159874600Y-79853300D01*
X164460000Y-78240000D02*
X161487900Y-78240000D01*
X160000000Y-73418400D02*
X160000000Y-75620000D01*
X163964200Y-69454200D02*
X160000000Y-73418400D01*
X172328900Y-69454200D02*
X163964200Y-69454200D01*
X178574700Y-75700000D02*
X172328900Y-69454200D01*
X179700000Y-75700000D02*
X178574700Y-75700000D01*
X68198100Y-73401900D02*
X66700000Y-74900000D01*
X88021900Y-73401900D02*
X68198100Y-73401900D01*
X88910000Y-74290000D02*
X88021900Y-73401900D01*
X71130000Y-76830000D02*
X69200000Y-74900000D01*
X88910000Y-76830000D02*
X71130000Y-76830000D01*
X118410000Y-81910000D02*
X88910000Y-81910000D01*
X122800000Y-86300000D02*
X118410000Y-81910000D01*
D24*
G36*
X170543748Y-108675858D02*
X170529605Y-108690000D01*
X171330213Y-109490608D01*
X171572397Y-109421143D01*
X171622509Y-109280682D01*
X171704990Y-109480303D01*
X172097630Y-109873629D01*
X172610900Y-110086757D01*
X173166661Y-110087242D01*
X173680303Y-109875010D01*
X174073629Y-109482370D01*
X174087070Y-109450000D01*
X176900198Y-109450000D01*
X179481590Y-112031392D01*
X179445995Y-112046136D01*
X179371861Y-112292255D01*
X180200000Y-113120395D01*
X180214142Y-113106252D01*
X180393748Y-113285858D01*
X180379605Y-113300000D01*
X181207745Y-114128139D01*
X181453864Y-114054005D01*
X181467174Y-114016976D01*
X185165400Y-117715202D01*
X185165400Y-121325400D01*
X185223252Y-121616239D01*
X185387999Y-121862801D01*
X193791108Y-130265910D01*
X193740272Y-130388336D01*
X193739730Y-131008942D01*
X193976725Y-131582514D01*
X194415177Y-132021732D01*
X194597754Y-132097544D01*
X192355298Y-134340000D01*
X186614802Y-134340000D01*
X186213256Y-133938454D01*
X186234750Y-133886691D01*
X186235248Y-133315813D01*
X186017243Y-132788200D01*
X185613923Y-132384176D01*
X185086691Y-132165250D01*
X184515813Y-132164752D01*
X183988200Y-132382757D01*
X183584176Y-132786077D01*
X183365250Y-133313309D01*
X183364752Y-133884187D01*
X183582757Y-134411800D01*
X183986077Y-134815824D01*
X184513309Y-135034750D01*
X185084187Y-135035248D01*
X185138149Y-135012951D01*
X185540000Y-135414802D01*
X185540000Y-138427560D01*
X185375000Y-138427560D01*
X185139683Y-138471838D01*
X184923559Y-138610910D01*
X184799229Y-138792874D01*
X184684823Y-138678268D01*
X184111664Y-138440272D01*
X183491058Y-138439730D01*
X182917486Y-138676725D01*
X182478268Y-139115177D01*
X182240272Y-139688336D01*
X182239730Y-140308942D01*
X182476725Y-140882514D01*
X182915177Y-141321732D01*
X183488336Y-141559728D01*
X184108942Y-141560270D01*
X184682514Y-141323275D01*
X184800749Y-141205246D01*
X184910910Y-141376441D01*
X185123110Y-141521431D01*
X185375000Y-141572440D01*
X187225000Y-141572440D01*
X187460317Y-141528162D01*
X187676441Y-141389090D01*
X187821431Y-141176890D01*
X187872440Y-140925000D01*
X187872440Y-139100000D01*
X190990000Y-139100000D01*
X191165838Y-139983999D01*
X191666583Y-140733417D01*
X192416001Y-141234162D01*
X193300000Y-141410000D01*
X194183999Y-141234162D01*
X194933417Y-140733417D01*
X195434162Y-139983999D01*
X195610000Y-139100000D01*
X195434162Y-138216001D01*
X194933417Y-137466583D01*
X194183999Y-136965838D01*
X193300000Y-136790000D01*
X192416001Y-136965838D01*
X191666583Y-137466583D01*
X191165838Y-138216001D01*
X190990000Y-139100000D01*
X187872440Y-139100000D01*
X187872440Y-139075000D01*
X187828162Y-138839683D01*
X187689090Y-138623559D01*
X187476890Y-138478569D01*
X187225000Y-138427560D01*
X187060000Y-138427560D01*
X187060000Y-135860000D01*
X192670100Y-135860000D01*
X192960939Y-135802148D01*
X193207501Y-135637401D01*
X197590000Y-131254902D01*
X197590000Y-143390000D01*
X96510000Y-143390000D01*
X96510000Y-141266661D01*
X125202758Y-141266661D01*
X125414990Y-141780303D01*
X125807630Y-142173629D01*
X126320900Y-142386757D01*
X126876661Y-142387242D01*
X127390303Y-142175010D01*
X127783629Y-141782370D01*
X127797070Y-141750000D01*
X131161968Y-141750000D01*
X131196838Y-141935317D01*
X131335910Y-142151441D01*
X131548110Y-142296431D01*
X131800000Y-142347440D01*
X133400000Y-142347440D01*
X133635317Y-142303162D01*
X133851441Y-142164090D01*
X133996431Y-141951890D01*
X134047440Y-141700000D01*
X134047440Y-140100000D01*
X134003162Y-139864683D01*
X133864090Y-139648559D01*
X133651890Y-139503569D01*
X133413799Y-139455354D01*
X133421371Y-139430213D01*
X172133392Y-139430213D01*
X172202857Y-139672397D01*
X172726302Y-139859144D01*
X173281368Y-139831362D01*
X173665143Y-139672397D01*
X173734608Y-139430213D01*
X172934000Y-138629605D01*
X172133392Y-139430213D01*
X133421371Y-139430213D01*
X133428139Y-139407745D01*
X132600000Y-138579605D01*
X131771861Y-139407745D01*
X131786145Y-139455167D01*
X131564683Y-139496838D01*
X131348559Y-139635910D01*
X131203569Y-139848110D01*
X131152560Y-140100000D01*
X131152560Y-140218766D01*
X131135747Y-140230000D01*
X127797531Y-140230000D01*
X127785010Y-140199697D01*
X127392370Y-139806371D01*
X127200273Y-139726605D01*
X127331143Y-139672397D01*
X127400608Y-139430213D01*
X126600000Y-138629605D01*
X125799392Y-139430213D01*
X125868857Y-139672397D01*
X126009318Y-139722509D01*
X125809697Y-139804990D01*
X125416371Y-140197630D01*
X125203243Y-140710900D01*
X125202758Y-141266661D01*
X96510000Y-141266661D01*
X96510000Y-138242302D01*
X125190856Y-138242302D01*
X125218638Y-138797368D01*
X125377603Y-139181143D01*
X125619787Y-139250608D01*
X126420395Y-138450000D01*
X126779605Y-138450000D01*
X127580213Y-139250608D01*
X127822397Y-139181143D01*
X128009144Y-138657698D01*
X127985396Y-138183223D01*
X131153035Y-138183223D01*
X131180222Y-138753454D01*
X131346136Y-139154005D01*
X131592255Y-139228139D01*
X132420395Y-138400000D01*
X132779605Y-138400000D01*
X133607745Y-139228139D01*
X133853864Y-139154005D01*
X134046965Y-138616777D01*
X134029112Y-138242302D01*
X171524856Y-138242302D01*
X171552638Y-138797368D01*
X171711603Y-139181143D01*
X171953787Y-139250608D01*
X172754395Y-138450000D01*
X173113605Y-138450000D01*
X173914213Y-139250608D01*
X174156397Y-139181143D01*
X174343144Y-138657698D01*
X174315362Y-138102632D01*
X174156397Y-137718857D01*
X173914213Y-137649392D01*
X173113605Y-138450000D01*
X172754395Y-138450000D01*
X171953787Y-137649392D01*
X171711603Y-137718857D01*
X171524856Y-138242302D01*
X134029112Y-138242302D01*
X134019778Y-138046546D01*
X133853864Y-137645995D01*
X133607745Y-137571861D01*
X132779605Y-138400000D01*
X132420395Y-138400000D01*
X131592255Y-137571861D01*
X131346136Y-137645995D01*
X131153035Y-138183223D01*
X127985396Y-138183223D01*
X127981362Y-138102632D01*
X127822397Y-137718857D01*
X127580213Y-137649392D01*
X126779605Y-138450000D01*
X126420395Y-138450000D01*
X125619787Y-137649392D01*
X125377603Y-137718857D01*
X125190856Y-138242302D01*
X96510000Y-138242302D01*
X96510000Y-124100000D01*
X96455954Y-123828295D01*
X96302046Y-123597954D01*
X96135484Y-123486661D01*
X125202758Y-123486661D01*
X125414990Y-124000303D01*
X125807630Y-124393629D01*
X126015512Y-124479949D01*
X125809697Y-124564990D01*
X125416371Y-124957630D01*
X125203243Y-125470900D01*
X125202758Y-126026661D01*
X125414990Y-126540303D01*
X125807630Y-126933629D01*
X126015512Y-127019949D01*
X125809697Y-127104990D01*
X125416371Y-127497630D01*
X125203243Y-128010900D01*
X125202758Y-128566661D01*
X125414990Y-129080303D01*
X125807630Y-129473629D01*
X126015512Y-129559949D01*
X125809697Y-129644990D01*
X125416371Y-130037630D01*
X125203243Y-130550900D01*
X125202758Y-131106661D01*
X125414990Y-131620303D01*
X125807630Y-132013629D01*
X126015512Y-132099949D01*
X125809697Y-132184990D01*
X125416371Y-132577630D01*
X125203243Y-133090900D01*
X125202758Y-133646661D01*
X125414990Y-134160303D01*
X125807630Y-134553629D01*
X126015512Y-134639949D01*
X125809697Y-134724990D01*
X125416371Y-135117630D01*
X125203243Y-135630900D01*
X125202758Y-136186661D01*
X125414990Y-136700303D01*
X125807630Y-137093629D01*
X125999727Y-137173395D01*
X125868857Y-137227603D01*
X125799392Y-137469787D01*
X126600000Y-138270395D01*
X127400608Y-137469787D01*
X127378370Y-137392255D01*
X131771861Y-137392255D01*
X132600000Y-138220395D01*
X133428139Y-137392255D01*
X133354005Y-137146136D01*
X132816777Y-136953035D01*
X132246546Y-136980222D01*
X131845995Y-137146136D01*
X131771861Y-137392255D01*
X127378370Y-137392255D01*
X127331143Y-137227603D01*
X127190682Y-137177491D01*
X127390303Y-137095010D01*
X127783629Y-136702370D01*
X127996757Y-136189100D01*
X127997242Y-135633339D01*
X127983857Y-135600945D01*
X129454802Y-134130000D01*
X171736469Y-134130000D01*
X171748990Y-134160303D01*
X172141630Y-134553629D01*
X172349512Y-134639949D01*
X172143697Y-134724990D01*
X171750371Y-135117630D01*
X171537243Y-135630900D01*
X171536758Y-136186661D01*
X171748990Y-136700303D01*
X172141630Y-137093629D01*
X172333727Y-137173395D01*
X172202857Y-137227603D01*
X172133392Y-137469787D01*
X172934000Y-138270395D01*
X173734608Y-137469787D01*
X173665143Y-137227603D01*
X173524682Y-137177491D01*
X173724303Y-137095010D01*
X174117629Y-136702370D01*
X174330757Y-136189100D01*
X174331242Y-135633339D01*
X174119010Y-135119697D01*
X173726370Y-134726371D01*
X173518488Y-134640051D01*
X173724303Y-134555010D01*
X174117629Y-134162370D01*
X174206211Y-133949039D01*
X175788096Y-133949039D01*
X175948959Y-134337423D01*
X176324866Y-134752389D01*
X176830959Y-134991914D01*
X177053000Y-134870629D01*
X177053000Y-133727000D01*
X177307000Y-133727000D01*
X177307000Y-134870629D01*
X177529041Y-134991914D01*
X178035134Y-134752389D01*
X178411041Y-134337423D01*
X178571904Y-133949039D01*
X178449915Y-133727000D01*
X177307000Y-133727000D01*
X177053000Y-133727000D01*
X175910085Y-133727000D01*
X175788096Y-133949039D01*
X174206211Y-133949039D01*
X174330757Y-133649100D01*
X174331104Y-133250961D01*
X175788096Y-133250961D01*
X175910085Y-133473000D01*
X177053000Y-133473000D01*
X177053000Y-132329371D01*
X177307000Y-132329371D01*
X177307000Y-133473000D01*
X178449915Y-133473000D01*
X178571904Y-133250961D01*
X178411041Y-132862577D01*
X178035134Y-132447611D01*
X177529041Y-132208086D01*
X177307000Y-132329371D01*
X177053000Y-132329371D01*
X176830959Y-132208086D01*
X176324866Y-132447611D01*
X175948959Y-132862577D01*
X175788096Y-133250961D01*
X174331104Y-133250961D01*
X174331242Y-133093339D01*
X174119010Y-132579697D01*
X173726370Y-132186371D01*
X173518488Y-132100051D01*
X173724303Y-132015010D01*
X174117629Y-131622370D01*
X174330757Y-131109100D01*
X174331242Y-130553339D01*
X174119010Y-130039697D01*
X173726370Y-129646371D01*
X173518488Y-129560051D01*
X173724303Y-129475010D01*
X174117629Y-129082370D01*
X174330757Y-128569100D01*
X174331242Y-128013339D01*
X174119010Y-127499697D01*
X173726370Y-127106371D01*
X173518488Y-127020051D01*
X173724303Y-126935010D01*
X174117629Y-126542370D01*
X174330757Y-126029100D01*
X174331242Y-125473339D01*
X174119010Y-124959697D01*
X173726370Y-124566371D01*
X173213100Y-124353243D01*
X172657339Y-124352758D01*
X172143697Y-124564990D01*
X171750371Y-124957630D01*
X171537243Y-125470900D01*
X171536758Y-126026661D01*
X171748990Y-126540303D01*
X172141630Y-126933629D01*
X172349512Y-127019949D01*
X172143697Y-127104990D01*
X171750371Y-127497630D01*
X171537243Y-128010900D01*
X171536758Y-128566661D01*
X171748990Y-129080303D01*
X172141630Y-129473629D01*
X172349512Y-129559949D01*
X172143697Y-129644990D01*
X171750371Y-130037630D01*
X171736930Y-130070000D01*
X129140000Y-130070000D01*
X128897414Y-130118254D01*
X128849160Y-130127852D01*
X128602599Y-130292599D01*
X127996941Y-130898257D01*
X127997242Y-130553339D01*
X127785010Y-130039697D01*
X127392370Y-129646371D01*
X127184488Y-129560051D01*
X127390303Y-129475010D01*
X127783629Y-129082370D01*
X127996757Y-128569100D01*
X127997242Y-128013339D01*
X127785010Y-127499697D01*
X127392370Y-127106371D01*
X127184488Y-127020051D01*
X127390303Y-126935010D01*
X127783629Y-126542370D01*
X127996757Y-126029100D01*
X127997242Y-125473339D01*
X127785010Y-124959697D01*
X127392370Y-124566371D01*
X127184488Y-124480051D01*
X127390303Y-124395010D01*
X127783629Y-124002370D01*
X127996757Y-123489100D01*
X127997242Y-122933339D01*
X127785010Y-122419697D01*
X127392370Y-122026371D01*
X126879100Y-121813243D01*
X126323339Y-121812758D01*
X125809697Y-122024990D01*
X125416371Y-122417630D01*
X125203243Y-122930900D01*
X125202758Y-123486661D01*
X96135484Y-123486661D01*
X96071705Y-123444046D01*
X95949870Y-123419811D01*
X95965301Y-123409501D01*
X96261546Y-123113256D01*
X96313309Y-123134750D01*
X96884187Y-123135248D01*
X97411800Y-122917243D01*
X97815824Y-122513923D01*
X98034750Y-121986691D01*
X98035248Y-121415813D01*
X97817243Y-120888200D01*
X97413923Y-120484176D01*
X97360000Y-120461785D01*
X97360000Y-118405300D01*
X97350328Y-118356675D01*
X97562811Y-118214698D01*
X97873880Y-117749151D01*
X97969025Y-117270827D01*
X99934499Y-119236301D01*
X100181060Y-119401048D01*
X100471900Y-119458900D01*
X155261100Y-119458900D01*
X155551939Y-119401048D01*
X155798501Y-119236301D01*
X157340619Y-117694183D01*
X157370900Y-117706757D01*
X157926661Y-117707242D01*
X158440303Y-117495010D01*
X158833629Y-117102370D01*
X158919949Y-116894488D01*
X159004990Y-117100303D01*
X159397630Y-117493629D01*
X159910900Y-117706757D01*
X160466661Y-117707242D01*
X160980303Y-117495010D01*
X161373629Y-117102370D01*
X161459949Y-116894488D01*
X161544990Y-117100303D01*
X161937630Y-117493629D01*
X162450900Y-117706757D01*
X163006661Y-117707242D01*
X163520303Y-117495010D01*
X163676742Y-117338844D01*
X164285999Y-117948101D01*
X164532560Y-118112848D01*
X164580814Y-118122446D01*
X164823400Y-118170700D01*
X166709300Y-118170700D01*
X167000139Y-118112848D01*
X167246701Y-117948101D01*
X167500619Y-117694183D01*
X167530900Y-117706757D01*
X168086661Y-117707242D01*
X168600303Y-117495010D01*
X168805457Y-117290213D01*
X169549392Y-117290213D01*
X169618857Y-117532397D01*
X170142302Y-117719144D01*
X170697368Y-117691362D01*
X171081143Y-117532397D01*
X171150608Y-117290213D01*
X170350000Y-116489605D01*
X169549392Y-117290213D01*
X168805457Y-117290213D01*
X168993629Y-117102370D01*
X169073395Y-116910273D01*
X169127603Y-117041143D01*
X169369787Y-117110608D01*
X170170395Y-116310000D01*
X170529605Y-116310000D01*
X171330213Y-117110608D01*
X171572397Y-117041143D01*
X171622509Y-116900682D01*
X171704990Y-117100303D01*
X172097630Y-117493629D01*
X172610900Y-117706757D01*
X173166661Y-117707242D01*
X173680303Y-117495010D01*
X174073629Y-117102370D01*
X174286757Y-116589100D01*
X174287242Y-116033339D01*
X174075010Y-115519697D01*
X173682370Y-115126371D01*
X173378035Y-115000000D01*
X178752560Y-115000000D01*
X178752560Y-116600000D01*
X178796838Y-116835317D01*
X178935910Y-117051441D01*
X179148110Y-117196431D01*
X179400000Y-117247440D01*
X181000000Y-117247440D01*
X181235317Y-117203162D01*
X181451441Y-117064090D01*
X181596431Y-116851890D01*
X181647440Y-116600000D01*
X181647440Y-115000000D01*
X181603162Y-114764683D01*
X181464090Y-114548559D01*
X181251890Y-114403569D01*
X181013799Y-114355354D01*
X181028139Y-114307745D01*
X180200000Y-113479605D01*
X179371861Y-114307745D01*
X179386145Y-114355167D01*
X179164683Y-114396838D01*
X178948559Y-114535910D01*
X178803569Y-114748110D01*
X178752560Y-115000000D01*
X173378035Y-115000000D01*
X173169100Y-114913243D01*
X172613339Y-114912758D01*
X172099697Y-115124990D01*
X171706371Y-115517630D01*
X171626605Y-115709727D01*
X171572397Y-115578857D01*
X171330213Y-115509392D01*
X170529605Y-116310000D01*
X170170395Y-116310000D01*
X169369787Y-115509392D01*
X169127603Y-115578857D01*
X169077491Y-115719318D01*
X168995010Y-115519697D01*
X168805432Y-115329787D01*
X169549392Y-115329787D01*
X170350000Y-116130395D01*
X171150608Y-115329787D01*
X171081143Y-115087603D01*
X170557698Y-114900856D01*
X170002632Y-114928638D01*
X169618857Y-115087603D01*
X169549392Y-115329787D01*
X168805432Y-115329787D01*
X168602370Y-115126371D01*
X168089100Y-114913243D01*
X167533339Y-114912758D01*
X167019697Y-115124990D01*
X166626371Y-115517630D01*
X166540051Y-115725512D01*
X166455010Y-115519697D01*
X166062370Y-115126371D01*
X165549100Y-114913243D01*
X164993339Y-114912758D01*
X164960945Y-114926143D01*
X163118025Y-113083223D01*
X178753035Y-113083223D01*
X178780222Y-113653454D01*
X178946136Y-114054005D01*
X179192255Y-114128139D01*
X180020395Y-113300000D01*
X179192255Y-112471861D01*
X178946136Y-112545995D01*
X178753035Y-113083223D01*
X163118025Y-113083223D01*
X162220000Y-112185198D01*
X162220000Y-109990879D01*
X162450900Y-110086757D01*
X163006661Y-110087242D01*
X163520303Y-109875010D01*
X163913629Y-109482370D01*
X163999949Y-109274488D01*
X164084990Y-109480303D01*
X164477630Y-109873629D01*
X164990900Y-110086757D01*
X165546661Y-110087242D01*
X166060303Y-109875010D01*
X166453629Y-109482370D01*
X166539949Y-109274488D01*
X166624990Y-109480303D01*
X167017630Y-109873629D01*
X167530900Y-110086757D01*
X168086661Y-110087242D01*
X168600303Y-109875010D01*
X168805457Y-109670213D01*
X169549392Y-109670213D01*
X169618857Y-109912397D01*
X170142302Y-110099144D01*
X170697368Y-110071362D01*
X171081143Y-109912397D01*
X171150608Y-109670213D01*
X170350000Y-108869605D01*
X169549392Y-109670213D01*
X168805457Y-109670213D01*
X168993629Y-109482370D01*
X169073395Y-109290273D01*
X169127603Y-109421143D01*
X169369787Y-109490608D01*
X170170395Y-108690000D01*
X170156253Y-108675858D01*
X170335858Y-108496253D01*
X170350000Y-108510395D01*
X170364143Y-108496253D01*
X170543748Y-108675858D01*
X170543748Y-108675858D01*
G37*
X170543748Y-108675858D02*
X170529605Y-108690000D01*
X171330213Y-109490608D01*
X171572397Y-109421143D01*
X171622509Y-109280682D01*
X171704990Y-109480303D01*
X172097630Y-109873629D01*
X172610900Y-110086757D01*
X173166661Y-110087242D01*
X173680303Y-109875010D01*
X174073629Y-109482370D01*
X174087070Y-109450000D01*
X176900198Y-109450000D01*
X179481590Y-112031392D01*
X179445995Y-112046136D01*
X179371861Y-112292255D01*
X180200000Y-113120395D01*
X180214142Y-113106252D01*
X180393748Y-113285858D01*
X180379605Y-113300000D01*
X181207745Y-114128139D01*
X181453864Y-114054005D01*
X181467174Y-114016976D01*
X185165400Y-117715202D01*
X185165400Y-121325400D01*
X185223252Y-121616239D01*
X185387999Y-121862801D01*
X193791108Y-130265910D01*
X193740272Y-130388336D01*
X193739730Y-131008942D01*
X193976725Y-131582514D01*
X194415177Y-132021732D01*
X194597754Y-132097544D01*
X192355298Y-134340000D01*
X186614802Y-134340000D01*
X186213256Y-133938454D01*
X186234750Y-133886691D01*
X186235248Y-133315813D01*
X186017243Y-132788200D01*
X185613923Y-132384176D01*
X185086691Y-132165250D01*
X184515813Y-132164752D01*
X183988200Y-132382757D01*
X183584176Y-132786077D01*
X183365250Y-133313309D01*
X183364752Y-133884187D01*
X183582757Y-134411800D01*
X183986077Y-134815824D01*
X184513309Y-135034750D01*
X185084187Y-135035248D01*
X185138149Y-135012951D01*
X185540000Y-135414802D01*
X185540000Y-138427560D01*
X185375000Y-138427560D01*
X185139683Y-138471838D01*
X184923559Y-138610910D01*
X184799229Y-138792874D01*
X184684823Y-138678268D01*
X184111664Y-138440272D01*
X183491058Y-138439730D01*
X182917486Y-138676725D01*
X182478268Y-139115177D01*
X182240272Y-139688336D01*
X182239730Y-140308942D01*
X182476725Y-140882514D01*
X182915177Y-141321732D01*
X183488336Y-141559728D01*
X184108942Y-141560270D01*
X184682514Y-141323275D01*
X184800749Y-141205246D01*
X184910910Y-141376441D01*
X185123110Y-141521431D01*
X185375000Y-141572440D01*
X187225000Y-141572440D01*
X187460317Y-141528162D01*
X187676441Y-141389090D01*
X187821431Y-141176890D01*
X187872440Y-140925000D01*
X187872440Y-139100000D01*
X190990000Y-139100000D01*
X191165838Y-139983999D01*
X191666583Y-140733417D01*
X192416001Y-141234162D01*
X193300000Y-141410000D01*
X194183999Y-141234162D01*
X194933417Y-140733417D01*
X195434162Y-139983999D01*
X195610000Y-139100000D01*
X195434162Y-138216001D01*
X194933417Y-137466583D01*
X194183999Y-136965838D01*
X193300000Y-136790000D01*
X192416001Y-136965838D01*
X191666583Y-137466583D01*
X191165838Y-138216001D01*
X190990000Y-139100000D01*
X187872440Y-139100000D01*
X187872440Y-139075000D01*
X187828162Y-138839683D01*
X187689090Y-138623559D01*
X187476890Y-138478569D01*
X187225000Y-138427560D01*
X187060000Y-138427560D01*
X187060000Y-135860000D01*
X192670100Y-135860000D01*
X192960939Y-135802148D01*
X193207501Y-135637401D01*
X197590000Y-131254902D01*
X197590000Y-143390000D01*
X96510000Y-143390000D01*
X96510000Y-141266661D01*
X125202758Y-141266661D01*
X125414990Y-141780303D01*
X125807630Y-142173629D01*
X126320900Y-142386757D01*
X126876661Y-142387242D01*
X127390303Y-142175010D01*
X127783629Y-141782370D01*
X127797070Y-141750000D01*
X131161968Y-141750000D01*
X131196838Y-141935317D01*
X131335910Y-142151441D01*
X131548110Y-142296431D01*
X131800000Y-142347440D01*
X133400000Y-142347440D01*
X133635317Y-142303162D01*
X133851441Y-142164090D01*
X133996431Y-141951890D01*
X134047440Y-141700000D01*
X134047440Y-140100000D01*
X134003162Y-139864683D01*
X133864090Y-139648559D01*
X133651890Y-139503569D01*
X133413799Y-139455354D01*
X133421371Y-139430213D01*
X172133392Y-139430213D01*
X172202857Y-139672397D01*
X172726302Y-139859144D01*
X173281368Y-139831362D01*
X173665143Y-139672397D01*
X173734608Y-139430213D01*
X172934000Y-138629605D01*
X172133392Y-139430213D01*
X133421371Y-139430213D01*
X133428139Y-139407745D01*
X132600000Y-138579605D01*
X131771861Y-139407745D01*
X131786145Y-139455167D01*
X131564683Y-139496838D01*
X131348559Y-139635910D01*
X131203569Y-139848110D01*
X131152560Y-140100000D01*
X131152560Y-140218766D01*
X131135747Y-140230000D01*
X127797531Y-140230000D01*
X127785010Y-140199697D01*
X127392370Y-139806371D01*
X127200273Y-139726605D01*
X127331143Y-139672397D01*
X127400608Y-139430213D01*
X126600000Y-138629605D01*
X125799392Y-139430213D01*
X125868857Y-139672397D01*
X126009318Y-139722509D01*
X125809697Y-139804990D01*
X125416371Y-140197630D01*
X125203243Y-140710900D01*
X125202758Y-141266661D01*
X96510000Y-141266661D01*
X96510000Y-138242302D01*
X125190856Y-138242302D01*
X125218638Y-138797368D01*
X125377603Y-139181143D01*
X125619787Y-139250608D01*
X126420395Y-138450000D01*
X126779605Y-138450000D01*
X127580213Y-139250608D01*
X127822397Y-139181143D01*
X128009144Y-138657698D01*
X127985396Y-138183223D01*
X131153035Y-138183223D01*
X131180222Y-138753454D01*
X131346136Y-139154005D01*
X131592255Y-139228139D01*
X132420395Y-138400000D01*
X132779605Y-138400000D01*
X133607745Y-139228139D01*
X133853864Y-139154005D01*
X134046965Y-138616777D01*
X134029112Y-138242302D01*
X171524856Y-138242302D01*
X171552638Y-138797368D01*
X171711603Y-139181143D01*
X171953787Y-139250608D01*
X172754395Y-138450000D01*
X173113605Y-138450000D01*
X173914213Y-139250608D01*
X174156397Y-139181143D01*
X174343144Y-138657698D01*
X174315362Y-138102632D01*
X174156397Y-137718857D01*
X173914213Y-137649392D01*
X173113605Y-138450000D01*
X172754395Y-138450000D01*
X171953787Y-137649392D01*
X171711603Y-137718857D01*
X171524856Y-138242302D01*
X134029112Y-138242302D01*
X134019778Y-138046546D01*
X133853864Y-137645995D01*
X133607745Y-137571861D01*
X132779605Y-138400000D01*
X132420395Y-138400000D01*
X131592255Y-137571861D01*
X131346136Y-137645995D01*
X131153035Y-138183223D01*
X127985396Y-138183223D01*
X127981362Y-138102632D01*
X127822397Y-137718857D01*
X127580213Y-137649392D01*
X126779605Y-138450000D01*
X126420395Y-138450000D01*
X125619787Y-137649392D01*
X125377603Y-137718857D01*
X125190856Y-138242302D01*
X96510000Y-138242302D01*
X96510000Y-124100000D01*
X96455954Y-123828295D01*
X96302046Y-123597954D01*
X96135484Y-123486661D01*
X125202758Y-123486661D01*
X125414990Y-124000303D01*
X125807630Y-124393629D01*
X126015512Y-124479949D01*
X125809697Y-124564990D01*
X125416371Y-124957630D01*
X125203243Y-125470900D01*
X125202758Y-126026661D01*
X125414990Y-126540303D01*
X125807630Y-126933629D01*
X126015512Y-127019949D01*
X125809697Y-127104990D01*
X125416371Y-127497630D01*
X125203243Y-128010900D01*
X125202758Y-128566661D01*
X125414990Y-129080303D01*
X125807630Y-129473629D01*
X126015512Y-129559949D01*
X125809697Y-129644990D01*
X125416371Y-130037630D01*
X125203243Y-130550900D01*
X125202758Y-131106661D01*
X125414990Y-131620303D01*
X125807630Y-132013629D01*
X126015512Y-132099949D01*
X125809697Y-132184990D01*
X125416371Y-132577630D01*
X125203243Y-133090900D01*
X125202758Y-133646661D01*
X125414990Y-134160303D01*
X125807630Y-134553629D01*
X126015512Y-134639949D01*
X125809697Y-134724990D01*
X125416371Y-135117630D01*
X125203243Y-135630900D01*
X125202758Y-136186661D01*
X125414990Y-136700303D01*
X125807630Y-137093629D01*
X125999727Y-137173395D01*
X125868857Y-137227603D01*
X125799392Y-137469787D01*
X126600000Y-138270395D01*
X127400608Y-137469787D01*
X127378370Y-137392255D01*
X131771861Y-137392255D01*
X132600000Y-138220395D01*
X133428139Y-137392255D01*
X133354005Y-137146136D01*
X132816777Y-136953035D01*
X132246546Y-136980222D01*
X131845995Y-137146136D01*
X131771861Y-137392255D01*
X127378370Y-137392255D01*
X127331143Y-137227603D01*
X127190682Y-137177491D01*
X127390303Y-137095010D01*
X127783629Y-136702370D01*
X127996757Y-136189100D01*
X127997242Y-135633339D01*
X127983857Y-135600945D01*
X129454802Y-134130000D01*
X171736469Y-134130000D01*
X171748990Y-134160303D01*
X172141630Y-134553629D01*
X172349512Y-134639949D01*
X172143697Y-134724990D01*
X171750371Y-135117630D01*
X171537243Y-135630900D01*
X171536758Y-136186661D01*
X171748990Y-136700303D01*
X172141630Y-137093629D01*
X172333727Y-137173395D01*
X172202857Y-137227603D01*
X172133392Y-137469787D01*
X172934000Y-138270395D01*
X173734608Y-137469787D01*
X173665143Y-137227603D01*
X173524682Y-137177491D01*
X173724303Y-137095010D01*
X174117629Y-136702370D01*
X174330757Y-136189100D01*
X174331242Y-135633339D01*
X174119010Y-135119697D01*
X173726370Y-134726371D01*
X173518488Y-134640051D01*
X173724303Y-134555010D01*
X174117629Y-134162370D01*
X174206211Y-133949039D01*
X175788096Y-133949039D01*
X175948959Y-134337423D01*
X176324866Y-134752389D01*
X176830959Y-134991914D01*
X177053000Y-134870629D01*
X177053000Y-133727000D01*
X177307000Y-133727000D01*
X177307000Y-134870629D01*
X177529041Y-134991914D01*
X178035134Y-134752389D01*
X178411041Y-134337423D01*
X178571904Y-133949039D01*
X178449915Y-133727000D01*
X177307000Y-133727000D01*
X177053000Y-133727000D01*
X175910085Y-133727000D01*
X175788096Y-133949039D01*
X174206211Y-133949039D01*
X174330757Y-133649100D01*
X174331104Y-133250961D01*
X175788096Y-133250961D01*
X175910085Y-133473000D01*
X177053000Y-133473000D01*
X177053000Y-132329371D01*
X177307000Y-132329371D01*
X177307000Y-133473000D01*
X178449915Y-133473000D01*
X178571904Y-133250961D01*
X178411041Y-132862577D01*
X178035134Y-132447611D01*
X177529041Y-132208086D01*
X177307000Y-132329371D01*
X177053000Y-132329371D01*
X176830959Y-132208086D01*
X176324866Y-132447611D01*
X175948959Y-132862577D01*
X175788096Y-133250961D01*
X174331104Y-133250961D01*
X174331242Y-133093339D01*
X174119010Y-132579697D01*
X173726370Y-132186371D01*
X173518488Y-132100051D01*
X173724303Y-132015010D01*
X174117629Y-131622370D01*
X174330757Y-131109100D01*
X174331242Y-130553339D01*
X174119010Y-130039697D01*
X173726370Y-129646371D01*
X173518488Y-129560051D01*
X173724303Y-129475010D01*
X174117629Y-129082370D01*
X174330757Y-128569100D01*
X174331242Y-128013339D01*
X174119010Y-127499697D01*
X173726370Y-127106371D01*
X173518488Y-127020051D01*
X173724303Y-126935010D01*
X174117629Y-126542370D01*
X174330757Y-126029100D01*
X174331242Y-125473339D01*
X174119010Y-124959697D01*
X173726370Y-124566371D01*
X173213100Y-124353243D01*
X172657339Y-124352758D01*
X172143697Y-124564990D01*
X171750371Y-124957630D01*
X171537243Y-125470900D01*
X171536758Y-126026661D01*
X171748990Y-126540303D01*
X172141630Y-126933629D01*
X172349512Y-127019949D01*
X172143697Y-127104990D01*
X171750371Y-127497630D01*
X171537243Y-128010900D01*
X171536758Y-128566661D01*
X171748990Y-129080303D01*
X172141630Y-129473629D01*
X172349512Y-129559949D01*
X172143697Y-129644990D01*
X171750371Y-130037630D01*
X171736930Y-130070000D01*
X129140000Y-130070000D01*
X128897414Y-130118254D01*
X128849160Y-130127852D01*
X128602599Y-130292599D01*
X127996941Y-130898257D01*
X127997242Y-130553339D01*
X127785010Y-130039697D01*
X127392370Y-129646371D01*
X127184488Y-129560051D01*
X127390303Y-129475010D01*
X127783629Y-129082370D01*
X127996757Y-128569100D01*
X127997242Y-128013339D01*
X127785010Y-127499697D01*
X127392370Y-127106371D01*
X127184488Y-127020051D01*
X127390303Y-126935010D01*
X127783629Y-126542370D01*
X127996757Y-126029100D01*
X127997242Y-125473339D01*
X127785010Y-124959697D01*
X127392370Y-124566371D01*
X127184488Y-124480051D01*
X127390303Y-124395010D01*
X127783629Y-124002370D01*
X127996757Y-123489100D01*
X127997242Y-122933339D01*
X127785010Y-122419697D01*
X127392370Y-122026371D01*
X126879100Y-121813243D01*
X126323339Y-121812758D01*
X125809697Y-122024990D01*
X125416371Y-122417630D01*
X125203243Y-122930900D01*
X125202758Y-123486661D01*
X96135484Y-123486661D01*
X96071705Y-123444046D01*
X95949870Y-123419811D01*
X95965301Y-123409501D01*
X96261546Y-123113256D01*
X96313309Y-123134750D01*
X96884187Y-123135248D01*
X97411800Y-122917243D01*
X97815824Y-122513923D01*
X98034750Y-121986691D01*
X98035248Y-121415813D01*
X97817243Y-120888200D01*
X97413923Y-120484176D01*
X97360000Y-120461785D01*
X97360000Y-118405300D01*
X97350328Y-118356675D01*
X97562811Y-118214698D01*
X97873880Y-117749151D01*
X97969025Y-117270827D01*
X99934499Y-119236301D01*
X100181060Y-119401048D01*
X100471900Y-119458900D01*
X155261100Y-119458900D01*
X155551939Y-119401048D01*
X155798501Y-119236301D01*
X157340619Y-117694183D01*
X157370900Y-117706757D01*
X157926661Y-117707242D01*
X158440303Y-117495010D01*
X158833629Y-117102370D01*
X158919949Y-116894488D01*
X159004990Y-117100303D01*
X159397630Y-117493629D01*
X159910900Y-117706757D01*
X160466661Y-117707242D01*
X160980303Y-117495010D01*
X161373629Y-117102370D01*
X161459949Y-116894488D01*
X161544990Y-117100303D01*
X161937630Y-117493629D01*
X162450900Y-117706757D01*
X163006661Y-117707242D01*
X163520303Y-117495010D01*
X163676742Y-117338844D01*
X164285999Y-117948101D01*
X164532560Y-118112848D01*
X164580814Y-118122446D01*
X164823400Y-118170700D01*
X166709300Y-118170700D01*
X167000139Y-118112848D01*
X167246701Y-117948101D01*
X167500619Y-117694183D01*
X167530900Y-117706757D01*
X168086661Y-117707242D01*
X168600303Y-117495010D01*
X168805457Y-117290213D01*
X169549392Y-117290213D01*
X169618857Y-117532397D01*
X170142302Y-117719144D01*
X170697368Y-117691362D01*
X171081143Y-117532397D01*
X171150608Y-117290213D01*
X170350000Y-116489605D01*
X169549392Y-117290213D01*
X168805457Y-117290213D01*
X168993629Y-117102370D01*
X169073395Y-116910273D01*
X169127603Y-117041143D01*
X169369787Y-117110608D01*
X170170395Y-116310000D01*
X170529605Y-116310000D01*
X171330213Y-117110608D01*
X171572397Y-117041143D01*
X171622509Y-116900682D01*
X171704990Y-117100303D01*
X172097630Y-117493629D01*
X172610900Y-117706757D01*
X173166661Y-117707242D01*
X173680303Y-117495010D01*
X174073629Y-117102370D01*
X174286757Y-116589100D01*
X174287242Y-116033339D01*
X174075010Y-115519697D01*
X173682370Y-115126371D01*
X173378035Y-115000000D01*
X178752560Y-115000000D01*
X178752560Y-116600000D01*
X178796838Y-116835317D01*
X178935910Y-117051441D01*
X179148110Y-117196431D01*
X179400000Y-117247440D01*
X181000000Y-117247440D01*
X181235317Y-117203162D01*
X181451441Y-117064090D01*
X181596431Y-116851890D01*
X181647440Y-116600000D01*
X181647440Y-115000000D01*
X181603162Y-114764683D01*
X181464090Y-114548559D01*
X181251890Y-114403569D01*
X181013799Y-114355354D01*
X181028139Y-114307745D01*
X180200000Y-113479605D01*
X179371861Y-114307745D01*
X179386145Y-114355167D01*
X179164683Y-114396838D01*
X178948559Y-114535910D01*
X178803569Y-114748110D01*
X178752560Y-115000000D01*
X173378035Y-115000000D01*
X173169100Y-114913243D01*
X172613339Y-114912758D01*
X172099697Y-115124990D01*
X171706371Y-115517630D01*
X171626605Y-115709727D01*
X171572397Y-115578857D01*
X171330213Y-115509392D01*
X170529605Y-116310000D01*
X170170395Y-116310000D01*
X169369787Y-115509392D01*
X169127603Y-115578857D01*
X169077491Y-115719318D01*
X168995010Y-115519697D01*
X168805432Y-115329787D01*
X169549392Y-115329787D01*
X170350000Y-116130395D01*
X171150608Y-115329787D01*
X171081143Y-115087603D01*
X170557698Y-114900856D01*
X170002632Y-114928638D01*
X169618857Y-115087603D01*
X169549392Y-115329787D01*
X168805432Y-115329787D01*
X168602370Y-115126371D01*
X168089100Y-114913243D01*
X167533339Y-114912758D01*
X167019697Y-115124990D01*
X166626371Y-115517630D01*
X166540051Y-115725512D01*
X166455010Y-115519697D01*
X166062370Y-115126371D01*
X165549100Y-114913243D01*
X164993339Y-114912758D01*
X164960945Y-114926143D01*
X163118025Y-113083223D01*
X178753035Y-113083223D01*
X178780222Y-113653454D01*
X178946136Y-114054005D01*
X179192255Y-114128139D01*
X180020395Y-113300000D01*
X179192255Y-112471861D01*
X178946136Y-112545995D01*
X178753035Y-113083223D01*
X163118025Y-113083223D01*
X162220000Y-112185198D01*
X162220000Y-109990879D01*
X162450900Y-110086757D01*
X163006661Y-110087242D01*
X163520303Y-109875010D01*
X163913629Y-109482370D01*
X163999949Y-109274488D01*
X164084990Y-109480303D01*
X164477630Y-109873629D01*
X164990900Y-110086757D01*
X165546661Y-110087242D01*
X166060303Y-109875010D01*
X166453629Y-109482370D01*
X166539949Y-109274488D01*
X166624990Y-109480303D01*
X167017630Y-109873629D01*
X167530900Y-110086757D01*
X168086661Y-110087242D01*
X168600303Y-109875010D01*
X168805457Y-109670213D01*
X169549392Y-109670213D01*
X169618857Y-109912397D01*
X170142302Y-110099144D01*
X170697368Y-110071362D01*
X171081143Y-109912397D01*
X171150608Y-109670213D01*
X170350000Y-108869605D01*
X169549392Y-109670213D01*
X168805457Y-109670213D01*
X168993629Y-109482370D01*
X169073395Y-109290273D01*
X169127603Y-109421143D01*
X169369787Y-109490608D01*
X170170395Y-108690000D01*
X170156253Y-108675858D01*
X170335858Y-108496253D01*
X170350000Y-108510395D01*
X170364143Y-108496253D01*
X170543748Y-108675858D01*
G36*
X182043700Y-57102502D02*
X182043700Y-64253400D01*
X182101552Y-64544239D01*
X182266299Y-64790801D01*
X193622647Y-76147149D01*
X193523559Y-76210910D01*
X193378569Y-76423110D01*
X193327560Y-76675000D01*
X193327560Y-78525000D01*
X193371838Y-78760317D01*
X193510910Y-78976441D01*
X193723110Y-79121431D01*
X193746575Y-79126183D01*
X193801742Y-79181350D01*
X193542668Y-79270821D01*
X193328675Y-79853368D01*
X193353903Y-80473461D01*
X193542668Y-80929179D01*
X193801744Y-81018651D01*
X194720395Y-80100000D01*
X194706253Y-80085858D01*
X194885858Y-79906253D01*
X194900000Y-79920395D01*
X194914143Y-79906253D01*
X195093748Y-80085858D01*
X195079605Y-80100000D01*
X195093748Y-80114143D01*
X194914143Y-80293748D01*
X194900000Y-80279605D01*
X193981349Y-81198256D01*
X194010765Y-81283434D01*
X193578268Y-81715177D01*
X193340272Y-82288336D01*
X193339730Y-82908942D01*
X193576725Y-83482514D01*
X193943826Y-83850256D01*
X193578268Y-84215177D01*
X193340272Y-84788336D01*
X193339730Y-85408942D01*
X193576725Y-85982514D01*
X194015177Y-86421732D01*
X194588336Y-86659728D01*
X195130996Y-86660202D01*
X193203899Y-88587299D01*
X193039152Y-88833861D01*
X192981300Y-89124700D01*
X192981300Y-96701100D01*
X193022369Y-96907567D01*
X191677401Y-95562599D01*
X191430839Y-95397852D01*
X191140000Y-95340000D01*
X188592995Y-95340000D01*
X188422811Y-95085302D01*
X187957264Y-94774233D01*
X187408113Y-94665000D01*
X187351887Y-94665000D01*
X186802736Y-94774233D01*
X186337189Y-95085302D01*
X186026120Y-95550849D01*
X185916887Y-96100000D01*
X186026120Y-96649151D01*
X186337189Y-97114698D01*
X186802736Y-97425767D01*
X187351887Y-97535000D01*
X187408113Y-97535000D01*
X187957264Y-97425767D01*
X188422811Y-97114698D01*
X188592995Y-96860000D01*
X190825198Y-96860000D01*
X193430198Y-99465000D01*
X193372998Y-99465000D01*
X193372998Y-99623748D01*
X193214250Y-99465000D01*
X192473691Y-99465000D01*
X192240302Y-99561673D01*
X192061673Y-99740301D01*
X191965000Y-99973690D01*
X191965000Y-100714250D01*
X192123750Y-100873000D01*
X193373000Y-100873000D01*
X193373000Y-100853000D01*
X193627000Y-100853000D01*
X193627000Y-100873000D01*
X193647000Y-100873000D01*
X193647000Y-101127000D01*
X193627000Y-101127000D01*
X193627000Y-102376250D01*
X193785750Y-102535000D01*
X194526309Y-102535000D01*
X194759698Y-102438327D01*
X194938327Y-102259699D01*
X194994119Y-102125006D01*
X195169357Y-102300551D01*
X195733330Y-102534733D01*
X196343991Y-102535265D01*
X196541900Y-102453491D01*
X196541900Y-126722988D01*
X196476890Y-126678569D01*
X196225000Y-126627560D01*
X196060000Y-126627560D01*
X196060000Y-126132400D01*
X196002148Y-125841561D01*
X195837401Y-125594999D01*
X177296301Y-107053899D01*
X177049739Y-106889152D01*
X176758900Y-106831300D01*
X166368700Y-106831300D01*
X166164904Y-106871838D01*
X166077860Y-106889152D01*
X165831299Y-107053899D01*
X165579381Y-107305817D01*
X165549100Y-107293243D01*
X164993339Y-107292758D01*
X164479697Y-107504990D01*
X164086371Y-107897630D01*
X164000051Y-108105512D01*
X163915010Y-107899697D01*
X163522370Y-107506371D01*
X163009100Y-107293243D01*
X162453339Y-107292758D01*
X162220000Y-107389171D01*
X162220000Y-105160000D01*
X162162148Y-104869161D01*
X162162148Y-104869160D01*
X161997401Y-104622599D01*
X157372573Y-99997771D01*
X157416646Y-99931810D01*
X157542321Y-99300000D01*
X157416646Y-98668190D01*
X157058754Y-98132567D01*
X156905252Y-98030000D01*
X157058754Y-97927433D01*
X157416646Y-97391810D01*
X157542321Y-96760000D01*
X157416646Y-96128190D01*
X157058754Y-95592567D01*
X156523131Y-95234675D01*
X155891321Y-95109000D01*
X155308679Y-95109000D01*
X154676869Y-95234675D01*
X154141246Y-95592567D01*
X153783354Y-96128190D01*
X153657679Y-96760000D01*
X153783354Y-97391810D01*
X154141246Y-97927433D01*
X154294748Y-98030000D01*
X154141246Y-98132567D01*
X153783354Y-98668190D01*
X153736839Y-98902037D01*
X149831502Y-94996700D01*
X155928202Y-88900000D01*
X156752560Y-88900000D01*
X156752560Y-90500000D01*
X156796838Y-90735317D01*
X156935910Y-90951441D01*
X157148110Y-91096431D01*
X157400000Y-91147440D01*
X159000000Y-91147440D01*
X159235317Y-91103162D01*
X159451441Y-90964090D01*
X159477074Y-90926576D01*
X165887899Y-97337401D01*
X166134460Y-97502148D01*
X166425300Y-97560000D01*
X167926103Y-97560000D01*
X167976725Y-97682514D01*
X168415177Y-98121732D01*
X168540000Y-98173563D01*
X168540000Y-102060794D01*
X168537299Y-102062599D01*
X167730998Y-102868900D01*
X167492286Y-102868900D01*
X167546965Y-102716777D01*
X167519778Y-102146546D01*
X167353864Y-101745995D01*
X167107745Y-101671861D01*
X166279605Y-102500000D01*
X166293748Y-102514143D01*
X166114143Y-102693748D01*
X166100000Y-102679605D01*
X166085858Y-102693748D01*
X165906252Y-102514142D01*
X165920395Y-102500000D01*
X165092255Y-101671861D01*
X165044833Y-101686145D01*
X165008351Y-101492255D01*
X165271861Y-101492255D01*
X166100000Y-102320395D01*
X166928139Y-101492255D01*
X166854005Y-101246136D01*
X166316777Y-101053035D01*
X165746546Y-101080222D01*
X165345995Y-101246136D01*
X165271861Y-101492255D01*
X165008351Y-101492255D01*
X165003162Y-101464683D01*
X164864090Y-101248559D01*
X164651890Y-101103569D01*
X164400000Y-101052560D01*
X162800000Y-101052560D01*
X162564683Y-101096838D01*
X162348559Y-101235910D01*
X162203569Y-101448110D01*
X162152560Y-101700000D01*
X162152560Y-103300000D01*
X162196838Y-103535317D01*
X162335910Y-103751441D01*
X162548110Y-103896431D01*
X162800000Y-103947440D01*
X164400000Y-103947440D01*
X164635317Y-103903162D01*
X164718703Y-103849505D01*
X165035499Y-104166301D01*
X165282060Y-104331048D01*
X165330314Y-104340646D01*
X165572900Y-104388900D01*
X168045800Y-104388900D01*
X168336639Y-104331048D01*
X168583201Y-104166301D01*
X168921091Y-103828411D01*
X168935910Y-103851441D01*
X169148110Y-103996431D01*
X169400000Y-104047440D01*
X171000000Y-104047440D01*
X171235317Y-104003162D01*
X171318703Y-103949505D01*
X171664399Y-104295201D01*
X171910960Y-104459948D01*
X172201800Y-104517800D01*
X182840000Y-104517800D01*
X182840000Y-104600000D01*
X182897852Y-104890839D01*
X183062599Y-105137401D01*
X193391108Y-115465910D01*
X193340272Y-115588336D01*
X193339730Y-116208942D01*
X193576725Y-116782514D01*
X194015177Y-117221732D01*
X194588336Y-117459728D01*
X195208942Y-117460270D01*
X195782514Y-117223275D01*
X196221732Y-116784823D01*
X196459728Y-116211664D01*
X196460270Y-115591058D01*
X196223275Y-115017486D01*
X195789426Y-114582879D01*
X195818651Y-114498256D01*
X194900000Y-113579605D01*
X194885858Y-113593748D01*
X194706253Y-113414143D01*
X194720395Y-113400000D01*
X195079605Y-113400000D01*
X195998256Y-114318651D01*
X196257332Y-114229179D01*
X196471325Y-113646632D01*
X196446097Y-113026539D01*
X196257332Y-112570821D01*
X195998256Y-112481349D01*
X195079605Y-113400000D01*
X194720395Y-113400000D01*
X193801744Y-112481349D01*
X193542668Y-112570821D01*
X193328675Y-113153368D01*
X193332937Y-113258135D01*
X184360000Y-104285198D01*
X184360000Y-103847440D01*
X184400000Y-103847440D01*
X184635317Y-103803162D01*
X184851441Y-103664090D01*
X184996431Y-103451890D01*
X185005370Y-103407745D01*
X185271861Y-103407745D01*
X185345995Y-103653864D01*
X185883223Y-103846965D01*
X186453454Y-103819778D01*
X186854005Y-103653864D01*
X186928139Y-103407745D01*
X186100000Y-102579605D01*
X185271861Y-103407745D01*
X185005370Y-103407745D01*
X185044646Y-103213799D01*
X185092255Y-103228139D01*
X185920395Y-102400000D01*
X185092255Y-101571861D01*
X185044833Y-101586145D01*
X185003162Y-101364683D01*
X184864090Y-101148559D01*
X184651890Y-101003569D01*
X184400000Y-100952560D01*
X182800000Y-100952560D01*
X182564683Y-100996838D01*
X182348559Y-101135910D01*
X182203569Y-101348110D01*
X182152560Y-101600000D01*
X182152560Y-102997800D01*
X180181898Y-102997800D01*
X180246965Y-102816777D01*
X180219778Y-102246546D01*
X180053864Y-101845995D01*
X179807745Y-101771861D01*
X178979605Y-102600000D01*
X178993748Y-102614143D01*
X178814143Y-102793748D01*
X178800000Y-102779605D01*
X178785858Y-102793748D01*
X178606253Y-102614143D01*
X178620395Y-102600000D01*
X177792255Y-101771861D01*
X177744833Y-101786145D01*
X177708351Y-101592255D01*
X177971861Y-101592255D01*
X178800000Y-102420395D01*
X179628139Y-101592255D01*
X179554005Y-101346136D01*
X179016777Y-101153035D01*
X178446546Y-101180222D01*
X178045995Y-101346136D01*
X177971861Y-101592255D01*
X177708351Y-101592255D01*
X177703162Y-101564683D01*
X177564090Y-101348559D01*
X177351890Y-101203569D01*
X177100000Y-101152560D01*
X175500000Y-101152560D01*
X175264683Y-101196838D01*
X175048559Y-101335910D01*
X174903569Y-101548110D01*
X174852560Y-101800000D01*
X174852560Y-102997800D01*
X174081898Y-102997800D01*
X174146965Y-102816777D01*
X174119778Y-102246546D01*
X173953864Y-101845995D01*
X173707745Y-101771861D01*
X172879605Y-102600000D01*
X172893748Y-102614143D01*
X172714143Y-102793748D01*
X172700000Y-102779605D01*
X172685858Y-102793748D01*
X172506252Y-102614142D01*
X172520395Y-102600000D01*
X171692255Y-101771861D01*
X171644833Y-101786145D01*
X171608351Y-101592255D01*
X171871861Y-101592255D01*
X172700000Y-102420395D01*
X173528139Y-101592255D01*
X173454005Y-101346136D01*
X172916777Y-101153035D01*
X172346546Y-101180222D01*
X171945995Y-101346136D01*
X171871861Y-101592255D01*
X171608351Y-101592255D01*
X171603162Y-101564683D01*
X171464090Y-101348559D01*
X171251890Y-101203569D01*
X171000000Y-101152560D01*
X170060000Y-101152560D01*
X170060000Y-98173897D01*
X170182514Y-98123275D01*
X170617121Y-97689426D01*
X170701744Y-97718651D01*
X171620395Y-96800000D01*
X170701744Y-95881349D01*
X170616566Y-95910765D01*
X170184823Y-95478268D01*
X169611664Y-95240272D01*
X168991058Y-95239730D01*
X168417486Y-95476725D01*
X167978268Y-95915177D01*
X167926437Y-96040000D01*
X166740102Y-96040000D01*
X159862701Y-89162599D01*
X159647440Y-89018767D01*
X159647440Y-88900000D01*
X159603162Y-88664683D01*
X159464090Y-88448559D01*
X159251890Y-88303569D01*
X159013799Y-88255354D01*
X159028139Y-88207745D01*
X158200000Y-87379605D01*
X157371861Y-88207745D01*
X157386145Y-88255167D01*
X157164683Y-88296838D01*
X156948559Y-88435910D01*
X156803569Y-88648110D01*
X156752560Y-88900000D01*
X155928202Y-88900000D01*
X156925066Y-87903136D01*
X156946136Y-87954005D01*
X157192255Y-88028139D01*
X158020395Y-87200000D01*
X158379605Y-87200000D01*
X159207745Y-88028139D01*
X159453864Y-87954005D01*
X159646965Y-87416777D01*
X159619778Y-86846546D01*
X159453864Y-86445995D01*
X159207745Y-86371861D01*
X158379605Y-87200000D01*
X158020395Y-87200000D01*
X158006252Y-87185858D01*
X158185858Y-87006252D01*
X158200000Y-87020395D01*
X159028139Y-86192255D01*
X158954005Y-85946136D01*
X158901087Y-85927115D01*
X159385902Y-85442300D01*
X163096534Y-85442300D01*
X163068096Y-85510961D01*
X163190085Y-85733000D01*
X164333000Y-85733000D01*
X164333000Y-85713000D01*
X164587000Y-85713000D01*
X164587000Y-85733000D01*
X164607000Y-85733000D01*
X164607000Y-85987000D01*
X164587000Y-85987000D01*
X164587000Y-86007000D01*
X164333000Y-86007000D01*
X164333000Y-85987000D01*
X163190085Y-85987000D01*
X163068096Y-86209039D01*
X163228959Y-86597423D01*
X163604866Y-87012389D01*
X163821703Y-87115014D01*
X163417189Y-87385302D01*
X163106120Y-87850849D01*
X162996887Y-88400000D01*
X163106120Y-88949151D01*
X163417189Y-89414698D01*
X163882736Y-89725767D01*
X164431887Y-89835000D01*
X164488113Y-89835000D01*
X165037264Y-89725767D01*
X165502811Y-89414698D01*
X165813880Y-88949151D01*
X165923113Y-88400000D01*
X165813880Y-87850849D01*
X165502811Y-87385302D01*
X165098297Y-87115014D01*
X165315134Y-87012389D01*
X165691041Y-86597423D01*
X165707964Y-86556566D01*
X173540000Y-94388602D01*
X173540000Y-95227560D01*
X173375000Y-95227560D01*
X173139683Y-95271838D01*
X172923559Y-95410910D01*
X172778569Y-95623110D01*
X172773817Y-95646575D01*
X172718650Y-95701742D01*
X172629179Y-95442668D01*
X172046632Y-95228675D01*
X171426539Y-95253903D01*
X170970821Y-95442668D01*
X170881349Y-95701744D01*
X171800000Y-96620395D01*
X171814143Y-96606253D01*
X171993748Y-96785858D01*
X171979605Y-96800000D01*
X171993748Y-96814143D01*
X171814143Y-96993748D01*
X171800000Y-96979605D01*
X170881349Y-97898256D01*
X170970821Y-98157332D01*
X171553368Y-98371325D01*
X172173461Y-98346097D01*
X172629179Y-98157332D01*
X172718650Y-97898258D01*
X172769782Y-97949390D01*
X172771838Y-97960317D01*
X172910910Y-98176441D01*
X173123110Y-98321431D01*
X173375000Y-98372440D01*
X175225000Y-98372440D01*
X175460317Y-98328162D01*
X175676441Y-98189090D01*
X175821431Y-97976890D01*
X175872440Y-97725000D01*
X175872440Y-95875000D01*
X175828162Y-95639683D01*
X175689090Y-95423559D01*
X175476890Y-95278569D01*
X175225000Y-95227560D01*
X175060000Y-95227560D01*
X175060000Y-94073800D01*
X175002148Y-93782961D01*
X174837401Y-93536399D01*
X165556039Y-84255037D01*
X165813880Y-83869151D01*
X165923113Y-83320000D01*
X165813880Y-82770849D01*
X165502811Y-82305302D01*
X165120725Y-82050000D01*
X165502811Y-81794698D01*
X165813880Y-81329151D01*
X165923113Y-80780000D01*
X165813880Y-80230849D01*
X165502811Y-79765302D01*
X165120725Y-79510000D01*
X165502811Y-79254698D01*
X165813880Y-78789151D01*
X165923113Y-78240000D01*
X165813880Y-77690849D01*
X165502811Y-77225302D01*
X165120725Y-76970000D01*
X165502811Y-76714698D01*
X165704920Y-76412222D01*
X171644700Y-82352002D01*
X171644700Y-87099800D01*
X171702552Y-87390639D01*
X171867299Y-87637201D01*
X179064713Y-94834615D01*
X178948200Y-94882757D01*
X178544176Y-95286077D01*
X178325250Y-95813309D01*
X178324752Y-96384187D01*
X178542757Y-96911800D01*
X178946077Y-97315824D01*
X179473309Y-97534750D01*
X180044187Y-97535248D01*
X180571800Y-97317243D01*
X180975824Y-96913923D01*
X181025174Y-96795076D01*
X185367377Y-101137279D01*
X185345995Y-101146136D01*
X185271861Y-101392255D01*
X186100000Y-102220395D01*
X186114142Y-102206252D01*
X186293748Y-102385858D01*
X186279605Y-102400000D01*
X187107745Y-103228139D01*
X187353864Y-103154005D01*
X187361859Y-103131761D01*
X191514600Y-107284502D01*
X191514600Y-108274600D01*
X191572452Y-108565439D01*
X191737199Y-108812001D01*
X193391108Y-110465910D01*
X193340272Y-110588336D01*
X193339730Y-111208942D01*
X193576725Y-111782514D01*
X194010574Y-112217121D01*
X193981349Y-112301744D01*
X194900000Y-113220395D01*
X195818651Y-112301744D01*
X195789235Y-112216566D01*
X196221732Y-111784823D01*
X196459728Y-111211664D01*
X196460270Y-110591058D01*
X196223275Y-110017486D01*
X196105246Y-109899251D01*
X196276441Y-109789090D01*
X196421431Y-109576890D01*
X196472440Y-109325000D01*
X196472440Y-107475000D01*
X196428162Y-107239683D01*
X196289090Y-107023559D01*
X196076890Y-106878569D01*
X195825000Y-106827560D01*
X195581234Y-106827560D01*
X195437401Y-106612299D01*
X190110852Y-101285750D01*
X191965000Y-101285750D01*
X191965000Y-102026310D01*
X192061673Y-102259699D01*
X192240302Y-102438327D01*
X192473691Y-102535000D01*
X193214250Y-102535000D01*
X193373000Y-102376250D01*
X193373000Y-101127000D01*
X192123750Y-101127000D01*
X191965000Y-101285750D01*
X190110852Y-101285750D01*
X178564199Y-89739097D01*
X178648110Y-89796431D01*
X178900000Y-89847440D01*
X180500000Y-89847440D01*
X180735317Y-89803162D01*
X180951441Y-89664090D01*
X181096431Y-89451890D01*
X181147440Y-89200000D01*
X181147440Y-88000000D01*
X182652560Y-88000000D01*
X182652560Y-89600000D01*
X182696838Y-89835317D01*
X182835910Y-90051441D01*
X183048110Y-90196431D01*
X183300000Y-90247440D01*
X184900000Y-90247440D01*
X185135317Y-90203162D01*
X185351441Y-90064090D01*
X185496431Y-89851890D01*
X185517680Y-89746959D01*
X185786077Y-90015824D01*
X186313309Y-90234750D01*
X186884187Y-90235248D01*
X187411800Y-90017243D01*
X187815824Y-89613923D01*
X188034750Y-89086691D01*
X188035248Y-88515813D01*
X187817243Y-87988200D01*
X187413923Y-87584176D01*
X186886691Y-87365250D01*
X186315813Y-87364752D01*
X185788200Y-87582757D01*
X185519417Y-87851072D01*
X185503162Y-87764683D01*
X185364090Y-87548559D01*
X185151890Y-87403569D01*
X184900000Y-87352560D01*
X183300000Y-87352560D01*
X183064683Y-87396838D01*
X182848559Y-87535910D01*
X182703569Y-87748110D01*
X182652560Y-88000000D01*
X181147440Y-88000000D01*
X181147440Y-87600000D01*
X181103162Y-87364683D01*
X180964090Y-87148559D01*
X180751890Y-87003569D01*
X180596911Y-86972185D01*
X180742811Y-86874698D01*
X181053880Y-86409151D01*
X181163113Y-85860000D01*
X181053880Y-85310849D01*
X180742811Y-84845302D01*
X180651347Y-84784187D01*
X185764752Y-84784187D01*
X185982757Y-85311800D01*
X186386077Y-85715824D01*
X186913309Y-85934750D01*
X187484187Y-85935248D01*
X188011800Y-85717243D01*
X188415824Y-85313923D01*
X188634750Y-84786691D01*
X188635248Y-84215813D01*
X188417243Y-83688200D01*
X188013923Y-83284176D01*
X187486691Y-83065250D01*
X186915813Y-83064752D01*
X186388200Y-83282757D01*
X185984176Y-83686077D01*
X185765250Y-84213309D01*
X185764752Y-84784187D01*
X180651347Y-84784187D01*
X180360725Y-84590000D01*
X180742811Y-84334698D01*
X181053880Y-83869151D01*
X181163113Y-83320000D01*
X181053880Y-82770849D01*
X180742811Y-82305302D01*
X180338297Y-82035014D01*
X180555134Y-81932389D01*
X180931041Y-81517423D01*
X181091904Y-81129039D01*
X180969915Y-80907000D01*
X179827000Y-80907000D01*
X179827000Y-80927000D01*
X179573000Y-80927000D01*
X179573000Y-80907000D01*
X178430085Y-80907000D01*
X178308096Y-81129039D01*
X178468959Y-81517423D01*
X178844866Y-81932389D01*
X179061703Y-82035014D01*
X178657189Y-82305302D01*
X178346120Y-82770849D01*
X178236887Y-83320000D01*
X178346120Y-83869151D01*
X178657189Y-84334698D01*
X179039275Y-84590000D01*
X178657189Y-84845302D01*
X178346120Y-85310849D01*
X178236887Y-85860000D01*
X178346120Y-86409151D01*
X178657189Y-86874698D01*
X178801465Y-86971101D01*
X178664683Y-86996838D01*
X178448559Y-87135910D01*
X178303569Y-87348110D01*
X178252560Y-87600000D01*
X178252560Y-89200000D01*
X178296838Y-89435317D01*
X178362571Y-89537469D01*
X173838000Y-85012898D01*
X173838000Y-80085000D01*
X173780148Y-79794161D01*
X173615401Y-79547599D01*
X165582795Y-71514993D01*
X165813880Y-71169151D01*
X165923113Y-70620000D01*
X165842394Y-70214200D01*
X172014098Y-70214200D01*
X178037299Y-76237401D01*
X178283861Y-76402148D01*
X178473563Y-76439882D01*
X178657189Y-76714698D01*
X179039275Y-76970000D01*
X178657189Y-77225302D01*
X178346120Y-77690849D01*
X178236887Y-78240000D01*
X178338332Y-78750000D01*
X177940863Y-78750000D01*
X177908727Y-78717808D01*
X177565199Y-78575162D01*
X177193233Y-78574838D01*
X176849457Y-78716883D01*
X176586208Y-78979673D01*
X176443562Y-79323201D01*
X176443238Y-79695167D01*
X176585283Y-80038943D01*
X176848073Y-80302192D01*
X177191601Y-80444838D01*
X177563567Y-80445162D01*
X177907343Y-80303117D01*
X177940518Y-80270000D01*
X178374764Y-80270000D01*
X178308096Y-80430961D01*
X178430085Y-80653000D01*
X179573000Y-80653000D01*
X179573000Y-80633000D01*
X179827000Y-80633000D01*
X179827000Y-80653000D01*
X180969915Y-80653000D01*
X181091904Y-80430961D01*
X181025236Y-80270000D01*
X183444700Y-80270000D01*
X183735539Y-80212148D01*
X183982101Y-80047401D01*
X186153815Y-77875687D01*
X186185302Y-77922811D01*
X186650849Y-78233880D01*
X187200000Y-78343113D01*
X187749151Y-78233880D01*
X188214698Y-77922811D01*
X188525767Y-77457264D01*
X188635000Y-76908113D01*
X188635000Y-76851887D01*
X188525767Y-76302736D01*
X188214698Y-75837189D01*
X187749151Y-75526120D01*
X187200000Y-75416887D01*
X186650849Y-75526120D01*
X186185302Y-75837189D01*
X185984321Y-76137978D01*
X185783861Y-76177852D01*
X185537299Y-76342599D01*
X183129898Y-78750000D01*
X181061668Y-78750000D01*
X181163113Y-78240000D01*
X181053880Y-77690849D01*
X180742811Y-77225302D01*
X180360725Y-76970000D01*
X180742811Y-76714698D01*
X181053880Y-76249151D01*
X181163113Y-75700000D01*
X181053880Y-75150849D01*
X180742811Y-74685302D01*
X180360725Y-74430000D01*
X180742811Y-74174698D01*
X180912995Y-73920000D01*
X185599898Y-73920000D01*
X185637299Y-73957401D01*
X185883861Y-74122148D01*
X186084321Y-74162022D01*
X186285302Y-74462811D01*
X186750849Y-74773880D01*
X187300000Y-74883113D01*
X187849151Y-74773880D01*
X188314698Y-74462811D01*
X188625767Y-73997264D01*
X188735000Y-73448113D01*
X188735000Y-73391887D01*
X188625767Y-72842736D01*
X188314698Y-72377189D01*
X187849151Y-72066120D01*
X187300000Y-71956887D01*
X186750849Y-72066120D01*
X186285302Y-72377189D01*
X186223421Y-72469800D01*
X186205539Y-72457852D01*
X185914700Y-72400000D01*
X180912995Y-72400000D01*
X180742811Y-72145302D01*
X180360725Y-71890000D01*
X180742811Y-71634698D01*
X181053880Y-71169151D01*
X181163113Y-70620000D01*
X181053880Y-70070849D01*
X180742811Y-69605302D01*
X180360725Y-69350000D01*
X180742811Y-69094698D01*
X181053880Y-68629151D01*
X181163113Y-68080000D01*
X181053880Y-67530849D01*
X180742811Y-67065302D01*
X180360725Y-66810000D01*
X180742811Y-66554698D01*
X181053880Y-66089151D01*
X181163113Y-65540000D01*
X181053880Y-64990849D01*
X180742811Y-64525302D01*
X180360725Y-64270000D01*
X180742811Y-64014698D01*
X181053880Y-63549151D01*
X181163113Y-63000000D01*
X181053880Y-62450849D01*
X180742811Y-61985302D01*
X180360725Y-61730000D01*
X180742811Y-61474698D01*
X181053880Y-61009151D01*
X181163113Y-60460000D01*
X181053880Y-59910849D01*
X180742811Y-59445302D01*
X180360725Y-59190000D01*
X180742811Y-58934698D01*
X181053880Y-58469151D01*
X181163113Y-57920000D01*
X181053880Y-57370849D01*
X180742811Y-56905302D01*
X180360725Y-56650000D01*
X180742811Y-56394698D01*
X180980368Y-56039170D01*
X182043700Y-57102502D01*
X182043700Y-57102502D01*
G37*
X182043700Y-57102502D02*
X182043700Y-64253400D01*
X182101552Y-64544239D01*
X182266299Y-64790801D01*
X193622647Y-76147149D01*
X193523559Y-76210910D01*
X193378569Y-76423110D01*
X193327560Y-76675000D01*
X193327560Y-78525000D01*
X193371838Y-78760317D01*
X193510910Y-78976441D01*
X193723110Y-79121431D01*
X193746575Y-79126183D01*
X193801742Y-79181350D01*
X193542668Y-79270821D01*
X193328675Y-79853368D01*
X193353903Y-80473461D01*
X193542668Y-80929179D01*
X193801744Y-81018651D01*
X194720395Y-80100000D01*
X194706253Y-80085858D01*
X194885858Y-79906253D01*
X194900000Y-79920395D01*
X194914143Y-79906253D01*
X195093748Y-80085858D01*
X195079605Y-80100000D01*
X195093748Y-80114143D01*
X194914143Y-80293748D01*
X194900000Y-80279605D01*
X193981349Y-81198256D01*
X194010765Y-81283434D01*
X193578268Y-81715177D01*
X193340272Y-82288336D01*
X193339730Y-82908942D01*
X193576725Y-83482514D01*
X193943826Y-83850256D01*
X193578268Y-84215177D01*
X193340272Y-84788336D01*
X193339730Y-85408942D01*
X193576725Y-85982514D01*
X194015177Y-86421732D01*
X194588336Y-86659728D01*
X195130996Y-86660202D01*
X193203899Y-88587299D01*
X193039152Y-88833861D01*
X192981300Y-89124700D01*
X192981300Y-96701100D01*
X193022369Y-96907567D01*
X191677401Y-95562599D01*
X191430839Y-95397852D01*
X191140000Y-95340000D01*
X188592995Y-95340000D01*
X188422811Y-95085302D01*
X187957264Y-94774233D01*
X187408113Y-94665000D01*
X187351887Y-94665000D01*
X186802736Y-94774233D01*
X186337189Y-95085302D01*
X186026120Y-95550849D01*
X185916887Y-96100000D01*
X186026120Y-96649151D01*
X186337189Y-97114698D01*
X186802736Y-97425767D01*
X187351887Y-97535000D01*
X187408113Y-97535000D01*
X187957264Y-97425767D01*
X188422811Y-97114698D01*
X188592995Y-96860000D01*
X190825198Y-96860000D01*
X193430198Y-99465000D01*
X193372998Y-99465000D01*
X193372998Y-99623748D01*
X193214250Y-99465000D01*
X192473691Y-99465000D01*
X192240302Y-99561673D01*
X192061673Y-99740301D01*
X191965000Y-99973690D01*
X191965000Y-100714250D01*
X192123750Y-100873000D01*
X193373000Y-100873000D01*
X193373000Y-100853000D01*
X193627000Y-100853000D01*
X193627000Y-100873000D01*
X193647000Y-100873000D01*
X193647000Y-101127000D01*
X193627000Y-101127000D01*
X193627000Y-102376250D01*
X193785750Y-102535000D01*
X194526309Y-102535000D01*
X194759698Y-102438327D01*
X194938327Y-102259699D01*
X194994119Y-102125006D01*
X195169357Y-102300551D01*
X195733330Y-102534733D01*
X196343991Y-102535265D01*
X196541900Y-102453491D01*
X196541900Y-126722988D01*
X196476890Y-126678569D01*
X196225000Y-126627560D01*
X196060000Y-126627560D01*
X196060000Y-126132400D01*
X196002148Y-125841561D01*
X195837401Y-125594999D01*
X177296301Y-107053899D01*
X177049739Y-106889152D01*
X176758900Y-106831300D01*
X166368700Y-106831300D01*
X166164904Y-106871838D01*
X166077860Y-106889152D01*
X165831299Y-107053899D01*
X165579381Y-107305817D01*
X165549100Y-107293243D01*
X164993339Y-107292758D01*
X164479697Y-107504990D01*
X164086371Y-107897630D01*
X164000051Y-108105512D01*
X163915010Y-107899697D01*
X163522370Y-107506371D01*
X163009100Y-107293243D01*
X162453339Y-107292758D01*
X162220000Y-107389171D01*
X162220000Y-105160000D01*
X162162148Y-104869161D01*
X162162148Y-104869160D01*
X161997401Y-104622599D01*
X157372573Y-99997771D01*
X157416646Y-99931810D01*
X157542321Y-99300000D01*
X157416646Y-98668190D01*
X157058754Y-98132567D01*
X156905252Y-98030000D01*
X157058754Y-97927433D01*
X157416646Y-97391810D01*
X157542321Y-96760000D01*
X157416646Y-96128190D01*
X157058754Y-95592567D01*
X156523131Y-95234675D01*
X155891321Y-95109000D01*
X155308679Y-95109000D01*
X154676869Y-95234675D01*
X154141246Y-95592567D01*
X153783354Y-96128190D01*
X153657679Y-96760000D01*
X153783354Y-97391810D01*
X154141246Y-97927433D01*
X154294748Y-98030000D01*
X154141246Y-98132567D01*
X153783354Y-98668190D01*
X153736839Y-98902037D01*
X149831502Y-94996700D01*
X155928202Y-88900000D01*
X156752560Y-88900000D01*
X156752560Y-90500000D01*
X156796838Y-90735317D01*
X156935910Y-90951441D01*
X157148110Y-91096431D01*
X157400000Y-91147440D01*
X159000000Y-91147440D01*
X159235317Y-91103162D01*
X159451441Y-90964090D01*
X159477074Y-90926576D01*
X165887899Y-97337401D01*
X166134460Y-97502148D01*
X166425300Y-97560000D01*
X167926103Y-97560000D01*
X167976725Y-97682514D01*
X168415177Y-98121732D01*
X168540000Y-98173563D01*
X168540000Y-102060794D01*
X168537299Y-102062599D01*
X167730998Y-102868900D01*
X167492286Y-102868900D01*
X167546965Y-102716777D01*
X167519778Y-102146546D01*
X167353864Y-101745995D01*
X167107745Y-101671861D01*
X166279605Y-102500000D01*
X166293748Y-102514143D01*
X166114143Y-102693748D01*
X166100000Y-102679605D01*
X166085858Y-102693748D01*
X165906252Y-102514142D01*
X165920395Y-102500000D01*
X165092255Y-101671861D01*
X165044833Y-101686145D01*
X165008351Y-101492255D01*
X165271861Y-101492255D01*
X166100000Y-102320395D01*
X166928139Y-101492255D01*
X166854005Y-101246136D01*
X166316777Y-101053035D01*
X165746546Y-101080222D01*
X165345995Y-101246136D01*
X165271861Y-101492255D01*
X165008351Y-101492255D01*
X165003162Y-101464683D01*
X164864090Y-101248559D01*
X164651890Y-101103569D01*
X164400000Y-101052560D01*
X162800000Y-101052560D01*
X162564683Y-101096838D01*
X162348559Y-101235910D01*
X162203569Y-101448110D01*
X162152560Y-101700000D01*
X162152560Y-103300000D01*
X162196838Y-103535317D01*
X162335910Y-103751441D01*
X162548110Y-103896431D01*
X162800000Y-103947440D01*
X164400000Y-103947440D01*
X164635317Y-103903162D01*
X164718703Y-103849505D01*
X165035499Y-104166301D01*
X165282060Y-104331048D01*
X165330314Y-104340646D01*
X165572900Y-104388900D01*
X168045800Y-104388900D01*
X168336639Y-104331048D01*
X168583201Y-104166301D01*
X168921091Y-103828411D01*
X168935910Y-103851441D01*
X169148110Y-103996431D01*
X169400000Y-104047440D01*
X171000000Y-104047440D01*
X171235317Y-104003162D01*
X171318703Y-103949505D01*
X171664399Y-104295201D01*
X171910960Y-104459948D01*
X172201800Y-104517800D01*
X182840000Y-104517800D01*
X182840000Y-104600000D01*
X182897852Y-104890839D01*
X183062599Y-105137401D01*
X193391108Y-115465910D01*
X193340272Y-115588336D01*
X193339730Y-116208942D01*
X193576725Y-116782514D01*
X194015177Y-117221732D01*
X194588336Y-117459728D01*
X195208942Y-117460270D01*
X195782514Y-117223275D01*
X196221732Y-116784823D01*
X196459728Y-116211664D01*
X196460270Y-115591058D01*
X196223275Y-115017486D01*
X195789426Y-114582879D01*
X195818651Y-114498256D01*
X194900000Y-113579605D01*
X194885858Y-113593748D01*
X194706253Y-113414143D01*
X194720395Y-113400000D01*
X195079605Y-113400000D01*
X195998256Y-114318651D01*
X196257332Y-114229179D01*
X196471325Y-113646632D01*
X196446097Y-113026539D01*
X196257332Y-112570821D01*
X195998256Y-112481349D01*
X195079605Y-113400000D01*
X194720395Y-113400000D01*
X193801744Y-112481349D01*
X193542668Y-112570821D01*
X193328675Y-113153368D01*
X193332937Y-113258135D01*
X184360000Y-104285198D01*
X184360000Y-103847440D01*
X184400000Y-103847440D01*
X184635317Y-103803162D01*
X184851441Y-103664090D01*
X184996431Y-103451890D01*
X185005370Y-103407745D01*
X185271861Y-103407745D01*
X185345995Y-103653864D01*
X185883223Y-103846965D01*
X186453454Y-103819778D01*
X186854005Y-103653864D01*
X186928139Y-103407745D01*
X186100000Y-102579605D01*
X185271861Y-103407745D01*
X185005370Y-103407745D01*
X185044646Y-103213799D01*
X185092255Y-103228139D01*
X185920395Y-102400000D01*
X185092255Y-101571861D01*
X185044833Y-101586145D01*
X185003162Y-101364683D01*
X184864090Y-101148559D01*
X184651890Y-101003569D01*
X184400000Y-100952560D01*
X182800000Y-100952560D01*
X182564683Y-100996838D01*
X182348559Y-101135910D01*
X182203569Y-101348110D01*
X182152560Y-101600000D01*
X182152560Y-102997800D01*
X180181898Y-102997800D01*
X180246965Y-102816777D01*
X180219778Y-102246546D01*
X180053864Y-101845995D01*
X179807745Y-101771861D01*
X178979605Y-102600000D01*
X178993748Y-102614143D01*
X178814143Y-102793748D01*
X178800000Y-102779605D01*
X178785858Y-102793748D01*
X178606253Y-102614143D01*
X178620395Y-102600000D01*
X177792255Y-101771861D01*
X177744833Y-101786145D01*
X177708351Y-101592255D01*
X177971861Y-101592255D01*
X178800000Y-102420395D01*
X179628139Y-101592255D01*
X179554005Y-101346136D01*
X179016777Y-101153035D01*
X178446546Y-101180222D01*
X178045995Y-101346136D01*
X177971861Y-101592255D01*
X177708351Y-101592255D01*
X177703162Y-101564683D01*
X177564090Y-101348559D01*
X177351890Y-101203569D01*
X177100000Y-101152560D01*
X175500000Y-101152560D01*
X175264683Y-101196838D01*
X175048559Y-101335910D01*
X174903569Y-101548110D01*
X174852560Y-101800000D01*
X174852560Y-102997800D01*
X174081898Y-102997800D01*
X174146965Y-102816777D01*
X174119778Y-102246546D01*
X173953864Y-101845995D01*
X173707745Y-101771861D01*
X172879605Y-102600000D01*
X172893748Y-102614143D01*
X172714143Y-102793748D01*
X172700000Y-102779605D01*
X172685858Y-102793748D01*
X172506252Y-102614142D01*
X172520395Y-102600000D01*
X171692255Y-101771861D01*
X171644833Y-101786145D01*
X171608351Y-101592255D01*
X171871861Y-101592255D01*
X172700000Y-102420395D01*
X173528139Y-101592255D01*
X173454005Y-101346136D01*
X172916777Y-101153035D01*
X172346546Y-101180222D01*
X171945995Y-101346136D01*
X171871861Y-101592255D01*
X171608351Y-101592255D01*
X171603162Y-101564683D01*
X171464090Y-101348559D01*
X171251890Y-101203569D01*
X171000000Y-101152560D01*
X170060000Y-101152560D01*
X170060000Y-98173897D01*
X170182514Y-98123275D01*
X170617121Y-97689426D01*
X170701744Y-97718651D01*
X171620395Y-96800000D01*
X170701744Y-95881349D01*
X170616566Y-95910765D01*
X170184823Y-95478268D01*
X169611664Y-95240272D01*
X168991058Y-95239730D01*
X168417486Y-95476725D01*
X167978268Y-95915177D01*
X167926437Y-96040000D01*
X166740102Y-96040000D01*
X159862701Y-89162599D01*
X159647440Y-89018767D01*
X159647440Y-88900000D01*
X159603162Y-88664683D01*
X159464090Y-88448559D01*
X159251890Y-88303569D01*
X159013799Y-88255354D01*
X159028139Y-88207745D01*
X158200000Y-87379605D01*
X157371861Y-88207745D01*
X157386145Y-88255167D01*
X157164683Y-88296838D01*
X156948559Y-88435910D01*
X156803569Y-88648110D01*
X156752560Y-88900000D01*
X155928202Y-88900000D01*
X156925066Y-87903136D01*
X156946136Y-87954005D01*
X157192255Y-88028139D01*
X158020395Y-87200000D01*
X158379605Y-87200000D01*
X159207745Y-88028139D01*
X159453864Y-87954005D01*
X159646965Y-87416777D01*
X159619778Y-86846546D01*
X159453864Y-86445995D01*
X159207745Y-86371861D01*
X158379605Y-87200000D01*
X158020395Y-87200000D01*
X158006252Y-87185858D01*
X158185858Y-87006252D01*
X158200000Y-87020395D01*
X159028139Y-86192255D01*
X158954005Y-85946136D01*
X158901087Y-85927115D01*
X159385902Y-85442300D01*
X163096534Y-85442300D01*
X163068096Y-85510961D01*
X163190085Y-85733000D01*
X164333000Y-85733000D01*
X164333000Y-85713000D01*
X164587000Y-85713000D01*
X164587000Y-85733000D01*
X164607000Y-85733000D01*
X164607000Y-85987000D01*
X164587000Y-85987000D01*
X164587000Y-86007000D01*
X164333000Y-86007000D01*
X164333000Y-85987000D01*
X163190085Y-85987000D01*
X163068096Y-86209039D01*
X163228959Y-86597423D01*
X163604866Y-87012389D01*
X163821703Y-87115014D01*
X163417189Y-87385302D01*
X163106120Y-87850849D01*
X162996887Y-88400000D01*
X163106120Y-88949151D01*
X163417189Y-89414698D01*
X163882736Y-89725767D01*
X164431887Y-89835000D01*
X164488113Y-89835000D01*
X165037264Y-89725767D01*
X165502811Y-89414698D01*
X165813880Y-88949151D01*
X165923113Y-88400000D01*
X165813880Y-87850849D01*
X165502811Y-87385302D01*
X165098297Y-87115014D01*
X165315134Y-87012389D01*
X165691041Y-86597423D01*
X165707964Y-86556566D01*
X173540000Y-94388602D01*
X173540000Y-95227560D01*
X173375000Y-95227560D01*
X173139683Y-95271838D01*
X172923559Y-95410910D01*
X172778569Y-95623110D01*
X172773817Y-95646575D01*
X172718650Y-95701742D01*
X172629179Y-95442668D01*
X172046632Y-95228675D01*
X171426539Y-95253903D01*
X170970821Y-95442668D01*
X170881349Y-95701744D01*
X171800000Y-96620395D01*
X171814143Y-96606253D01*
X171993748Y-96785858D01*
X171979605Y-96800000D01*
X171993748Y-96814143D01*
X171814143Y-96993748D01*
X171800000Y-96979605D01*
X170881349Y-97898256D01*
X170970821Y-98157332D01*
X171553368Y-98371325D01*
X172173461Y-98346097D01*
X172629179Y-98157332D01*
X172718650Y-97898258D01*
X172769782Y-97949390D01*
X172771838Y-97960317D01*
X172910910Y-98176441D01*
X173123110Y-98321431D01*
X173375000Y-98372440D01*
X175225000Y-98372440D01*
X175460317Y-98328162D01*
X175676441Y-98189090D01*
X175821431Y-97976890D01*
X175872440Y-97725000D01*
X175872440Y-95875000D01*
X175828162Y-95639683D01*
X175689090Y-95423559D01*
X175476890Y-95278569D01*
X175225000Y-95227560D01*
X175060000Y-95227560D01*
X175060000Y-94073800D01*
X175002148Y-93782961D01*
X174837401Y-93536399D01*
X165556039Y-84255037D01*
X165813880Y-83869151D01*
X165923113Y-83320000D01*
X165813880Y-82770849D01*
X165502811Y-82305302D01*
X165120725Y-82050000D01*
X165502811Y-81794698D01*
X165813880Y-81329151D01*
X165923113Y-80780000D01*
X165813880Y-80230849D01*
X165502811Y-79765302D01*
X165120725Y-79510000D01*
X165502811Y-79254698D01*
X165813880Y-78789151D01*
X165923113Y-78240000D01*
X165813880Y-77690849D01*
X165502811Y-77225302D01*
X165120725Y-76970000D01*
X165502811Y-76714698D01*
X165704920Y-76412222D01*
X171644700Y-82352002D01*
X171644700Y-87099800D01*
X171702552Y-87390639D01*
X171867299Y-87637201D01*
X179064713Y-94834615D01*
X178948200Y-94882757D01*
X178544176Y-95286077D01*
X178325250Y-95813309D01*
X178324752Y-96384187D01*
X178542757Y-96911800D01*
X178946077Y-97315824D01*
X179473309Y-97534750D01*
X180044187Y-97535248D01*
X180571800Y-97317243D01*
X180975824Y-96913923D01*
X181025174Y-96795076D01*
X185367377Y-101137279D01*
X185345995Y-101146136D01*
X185271861Y-101392255D01*
X186100000Y-102220395D01*
X186114142Y-102206252D01*
X186293748Y-102385858D01*
X186279605Y-102400000D01*
X187107745Y-103228139D01*
X187353864Y-103154005D01*
X187361859Y-103131761D01*
X191514600Y-107284502D01*
X191514600Y-108274600D01*
X191572452Y-108565439D01*
X191737199Y-108812001D01*
X193391108Y-110465910D01*
X193340272Y-110588336D01*
X193339730Y-111208942D01*
X193576725Y-111782514D01*
X194010574Y-112217121D01*
X193981349Y-112301744D01*
X194900000Y-113220395D01*
X195818651Y-112301744D01*
X195789235Y-112216566D01*
X196221732Y-111784823D01*
X196459728Y-111211664D01*
X196460270Y-110591058D01*
X196223275Y-110017486D01*
X196105246Y-109899251D01*
X196276441Y-109789090D01*
X196421431Y-109576890D01*
X196472440Y-109325000D01*
X196472440Y-107475000D01*
X196428162Y-107239683D01*
X196289090Y-107023559D01*
X196076890Y-106878569D01*
X195825000Y-106827560D01*
X195581234Y-106827560D01*
X195437401Y-106612299D01*
X190110852Y-101285750D01*
X191965000Y-101285750D01*
X191965000Y-102026310D01*
X192061673Y-102259699D01*
X192240302Y-102438327D01*
X192473691Y-102535000D01*
X193214250Y-102535000D01*
X193373000Y-102376250D01*
X193373000Y-101127000D01*
X192123750Y-101127000D01*
X191965000Y-101285750D01*
X190110852Y-101285750D01*
X178564199Y-89739097D01*
X178648110Y-89796431D01*
X178900000Y-89847440D01*
X180500000Y-89847440D01*
X180735317Y-89803162D01*
X180951441Y-89664090D01*
X181096431Y-89451890D01*
X181147440Y-89200000D01*
X181147440Y-88000000D01*
X182652560Y-88000000D01*
X182652560Y-89600000D01*
X182696838Y-89835317D01*
X182835910Y-90051441D01*
X183048110Y-90196431D01*
X183300000Y-90247440D01*
X184900000Y-90247440D01*
X185135317Y-90203162D01*
X185351441Y-90064090D01*
X185496431Y-89851890D01*
X185517680Y-89746959D01*
X185786077Y-90015824D01*
X186313309Y-90234750D01*
X186884187Y-90235248D01*
X187411800Y-90017243D01*
X187815824Y-89613923D01*
X188034750Y-89086691D01*
X188035248Y-88515813D01*
X187817243Y-87988200D01*
X187413923Y-87584176D01*
X186886691Y-87365250D01*
X186315813Y-87364752D01*
X185788200Y-87582757D01*
X185519417Y-87851072D01*
X185503162Y-87764683D01*
X185364090Y-87548559D01*
X185151890Y-87403569D01*
X184900000Y-87352560D01*
X183300000Y-87352560D01*
X183064683Y-87396838D01*
X182848559Y-87535910D01*
X182703569Y-87748110D01*
X182652560Y-88000000D01*
X181147440Y-88000000D01*
X181147440Y-87600000D01*
X181103162Y-87364683D01*
X180964090Y-87148559D01*
X180751890Y-87003569D01*
X180596911Y-86972185D01*
X180742811Y-86874698D01*
X181053880Y-86409151D01*
X181163113Y-85860000D01*
X181053880Y-85310849D01*
X180742811Y-84845302D01*
X180651347Y-84784187D01*
X185764752Y-84784187D01*
X185982757Y-85311800D01*
X186386077Y-85715824D01*
X186913309Y-85934750D01*
X187484187Y-85935248D01*
X188011800Y-85717243D01*
X188415824Y-85313923D01*
X188634750Y-84786691D01*
X188635248Y-84215813D01*
X188417243Y-83688200D01*
X188013923Y-83284176D01*
X187486691Y-83065250D01*
X186915813Y-83064752D01*
X186388200Y-83282757D01*
X185984176Y-83686077D01*
X185765250Y-84213309D01*
X185764752Y-84784187D01*
X180651347Y-84784187D01*
X180360725Y-84590000D01*
X180742811Y-84334698D01*
X181053880Y-83869151D01*
X181163113Y-83320000D01*
X181053880Y-82770849D01*
X180742811Y-82305302D01*
X180338297Y-82035014D01*
X180555134Y-81932389D01*
X180931041Y-81517423D01*
X181091904Y-81129039D01*
X180969915Y-80907000D01*
X179827000Y-80907000D01*
X179827000Y-80927000D01*
X179573000Y-80927000D01*
X179573000Y-80907000D01*
X178430085Y-80907000D01*
X178308096Y-81129039D01*
X178468959Y-81517423D01*
X178844866Y-81932389D01*
X179061703Y-82035014D01*
X178657189Y-82305302D01*
X178346120Y-82770849D01*
X178236887Y-83320000D01*
X178346120Y-83869151D01*
X178657189Y-84334698D01*
X179039275Y-84590000D01*
X178657189Y-84845302D01*
X178346120Y-85310849D01*
X178236887Y-85860000D01*
X178346120Y-86409151D01*
X178657189Y-86874698D01*
X178801465Y-86971101D01*
X178664683Y-86996838D01*
X178448559Y-87135910D01*
X178303569Y-87348110D01*
X178252560Y-87600000D01*
X178252560Y-89200000D01*
X178296838Y-89435317D01*
X178362571Y-89537469D01*
X173838000Y-85012898D01*
X173838000Y-80085000D01*
X173780148Y-79794161D01*
X173615401Y-79547599D01*
X165582795Y-71514993D01*
X165813880Y-71169151D01*
X165923113Y-70620000D01*
X165842394Y-70214200D01*
X172014098Y-70214200D01*
X178037299Y-76237401D01*
X178283861Y-76402148D01*
X178473563Y-76439882D01*
X178657189Y-76714698D01*
X179039275Y-76970000D01*
X178657189Y-77225302D01*
X178346120Y-77690849D01*
X178236887Y-78240000D01*
X178338332Y-78750000D01*
X177940863Y-78750000D01*
X177908727Y-78717808D01*
X177565199Y-78575162D01*
X177193233Y-78574838D01*
X176849457Y-78716883D01*
X176586208Y-78979673D01*
X176443562Y-79323201D01*
X176443238Y-79695167D01*
X176585283Y-80038943D01*
X176848073Y-80302192D01*
X177191601Y-80444838D01*
X177563567Y-80445162D01*
X177907343Y-80303117D01*
X177940518Y-80270000D01*
X178374764Y-80270000D01*
X178308096Y-80430961D01*
X178430085Y-80653000D01*
X179573000Y-80653000D01*
X179573000Y-80633000D01*
X179827000Y-80633000D01*
X179827000Y-80653000D01*
X180969915Y-80653000D01*
X181091904Y-80430961D01*
X181025236Y-80270000D01*
X183444700Y-80270000D01*
X183735539Y-80212148D01*
X183982101Y-80047401D01*
X186153815Y-77875687D01*
X186185302Y-77922811D01*
X186650849Y-78233880D01*
X187200000Y-78343113D01*
X187749151Y-78233880D01*
X188214698Y-77922811D01*
X188525767Y-77457264D01*
X188635000Y-76908113D01*
X188635000Y-76851887D01*
X188525767Y-76302736D01*
X188214698Y-75837189D01*
X187749151Y-75526120D01*
X187200000Y-75416887D01*
X186650849Y-75526120D01*
X186185302Y-75837189D01*
X185984321Y-76137978D01*
X185783861Y-76177852D01*
X185537299Y-76342599D01*
X183129898Y-78750000D01*
X181061668Y-78750000D01*
X181163113Y-78240000D01*
X181053880Y-77690849D01*
X180742811Y-77225302D01*
X180360725Y-76970000D01*
X180742811Y-76714698D01*
X181053880Y-76249151D01*
X181163113Y-75700000D01*
X181053880Y-75150849D01*
X180742811Y-74685302D01*
X180360725Y-74430000D01*
X180742811Y-74174698D01*
X180912995Y-73920000D01*
X185599898Y-73920000D01*
X185637299Y-73957401D01*
X185883861Y-74122148D01*
X186084321Y-74162022D01*
X186285302Y-74462811D01*
X186750849Y-74773880D01*
X187300000Y-74883113D01*
X187849151Y-74773880D01*
X188314698Y-74462811D01*
X188625767Y-73997264D01*
X188735000Y-73448113D01*
X188735000Y-73391887D01*
X188625767Y-72842736D01*
X188314698Y-72377189D01*
X187849151Y-72066120D01*
X187300000Y-71956887D01*
X186750849Y-72066120D01*
X186285302Y-72377189D01*
X186223421Y-72469800D01*
X186205539Y-72457852D01*
X185914700Y-72400000D01*
X180912995Y-72400000D01*
X180742811Y-72145302D01*
X180360725Y-71890000D01*
X180742811Y-71634698D01*
X181053880Y-71169151D01*
X181163113Y-70620000D01*
X181053880Y-70070849D01*
X180742811Y-69605302D01*
X180360725Y-69350000D01*
X180742811Y-69094698D01*
X181053880Y-68629151D01*
X181163113Y-68080000D01*
X181053880Y-67530849D01*
X180742811Y-67065302D01*
X180360725Y-66810000D01*
X180742811Y-66554698D01*
X181053880Y-66089151D01*
X181163113Y-65540000D01*
X181053880Y-64990849D01*
X180742811Y-64525302D01*
X180360725Y-64270000D01*
X180742811Y-64014698D01*
X181053880Y-63549151D01*
X181163113Y-63000000D01*
X181053880Y-62450849D01*
X180742811Y-61985302D01*
X180360725Y-61730000D01*
X180742811Y-61474698D01*
X181053880Y-61009151D01*
X181163113Y-60460000D01*
X181053880Y-59910849D01*
X180742811Y-59445302D01*
X180360725Y-59190000D01*
X180742811Y-58934698D01*
X181053880Y-58469151D01*
X181163113Y-57920000D01*
X181053880Y-57370849D01*
X180742811Y-56905302D01*
X180360725Y-56650000D01*
X180742811Y-56394698D01*
X180980368Y-56039170D01*
X182043700Y-57102502D01*
G36*
X67660699Y-72864499D02*
X67197638Y-73327560D01*
X65775000Y-73327560D01*
X65539683Y-73371838D01*
X65323559Y-73510910D01*
X65178569Y-73723110D01*
X65127560Y-73975000D01*
X65127560Y-75825000D01*
X65171838Y-76060317D01*
X65310910Y-76276441D01*
X65523110Y-76421431D01*
X65775000Y-76472440D01*
X67625000Y-76472440D01*
X67860317Y-76428162D01*
X68076441Y-76289090D01*
X68200771Y-76107126D01*
X68315177Y-76221732D01*
X68888336Y-76459728D01*
X69508942Y-76460270D01*
X69633855Y-76408657D01*
X70397998Y-77172800D01*
X63563100Y-77172800D01*
X63272260Y-77230652D01*
X63025699Y-77395399D01*
X59512199Y-80908899D01*
X59347452Y-81155461D01*
X59289600Y-81446300D01*
X59289600Y-94649600D01*
X59347452Y-94940439D01*
X59512199Y-95187001D01*
X59991108Y-95665910D01*
X59940272Y-95788336D01*
X59939730Y-96408942D01*
X60176725Y-96982514D01*
X60296882Y-97102881D01*
X60215301Y-97136673D01*
X60036673Y-97315302D01*
X59940000Y-97548691D01*
X59940000Y-98314250D01*
X60098750Y-98473000D01*
X61373000Y-98473000D01*
X61373000Y-98453000D01*
X61627000Y-98453000D01*
X61627000Y-98473000D01*
X62901250Y-98473000D01*
X63060000Y-98314250D01*
X63060000Y-97890213D01*
X86459392Y-97890213D01*
X86528857Y-98132397D01*
X87052302Y-98319144D01*
X87607368Y-98291362D01*
X87991143Y-98132397D01*
X88060608Y-97890213D01*
X87260000Y-97089605D01*
X86459392Y-97890213D01*
X63060000Y-97890213D01*
X63060000Y-97548691D01*
X62963327Y-97315302D01*
X62784699Y-97136673D01*
X62703365Y-97102983D01*
X62821732Y-96984823D01*
X63059728Y-96411664D01*
X63059842Y-96280661D01*
X66252758Y-96280661D01*
X66464990Y-96794303D01*
X66857630Y-97187629D01*
X67370900Y-97400757D01*
X67926661Y-97401242D01*
X68440303Y-97189010D01*
X68833629Y-96796370D01*
X69046757Y-96283100D01*
X69046759Y-96280661D01*
X78952758Y-96280661D01*
X79164990Y-96794303D01*
X79557630Y-97187629D01*
X80070900Y-97400757D01*
X80626661Y-97401242D01*
X81140303Y-97189010D01*
X81533629Y-96796370D01*
X81572689Y-96702302D01*
X85850856Y-96702302D01*
X85878638Y-97257368D01*
X86037603Y-97641143D01*
X86279787Y-97710608D01*
X87080395Y-96910000D01*
X87439605Y-96910000D01*
X88240213Y-97710608D01*
X88482397Y-97641143D01*
X88669144Y-97117698D01*
X88641362Y-96562632D01*
X88482397Y-96178857D01*
X88240213Y-96109392D01*
X87439605Y-96910000D01*
X87080395Y-96910000D01*
X86279787Y-96109392D01*
X86037603Y-96178857D01*
X85850856Y-96702302D01*
X81572689Y-96702302D01*
X81746757Y-96283100D01*
X81747065Y-95929787D01*
X86459392Y-95929787D01*
X87260000Y-96730395D01*
X88060608Y-95929787D01*
X87991143Y-95687603D01*
X87467698Y-95500856D01*
X86912632Y-95528638D01*
X86528857Y-95687603D01*
X86459392Y-95929787D01*
X81747065Y-95929787D01*
X81747242Y-95727339D01*
X81535010Y-95213697D01*
X81142370Y-94820371D01*
X80629100Y-94607243D01*
X80073339Y-94606758D01*
X79559697Y-94818990D01*
X79166371Y-95211630D01*
X78953243Y-95724900D01*
X78952758Y-96280661D01*
X69046759Y-96280661D01*
X69047242Y-95727339D01*
X68835010Y-95213697D01*
X68442370Y-94820371D01*
X67929100Y-94607243D01*
X67373339Y-94606758D01*
X66859697Y-94818990D01*
X66466371Y-95211630D01*
X66253243Y-95724900D01*
X66252758Y-96280661D01*
X63059842Y-96280661D01*
X63060270Y-95791058D01*
X62823275Y-95217486D01*
X62384823Y-94778268D01*
X61811664Y-94540272D01*
X61191058Y-94539730D01*
X61066145Y-94591343D01*
X60809600Y-94334798D01*
X60809600Y-86072440D01*
X62225000Y-86072440D01*
X62460317Y-86028162D01*
X62676441Y-85889090D01*
X62821431Y-85676890D01*
X62872440Y-85425000D01*
X62872440Y-85260000D01*
X71325198Y-85260000D01*
X76425817Y-90360619D01*
X76413243Y-90390900D01*
X76412758Y-90946661D01*
X76460952Y-91063300D01*
X71658103Y-91063300D01*
X71574183Y-90979381D01*
X71586757Y-90949100D01*
X71587242Y-90393339D01*
X71375010Y-89879697D01*
X70982370Y-89486371D01*
X70469100Y-89273243D01*
X69913339Y-89272758D01*
X69399697Y-89484990D01*
X69006371Y-89877630D01*
X68992930Y-89910000D01*
X68847531Y-89910000D01*
X68835010Y-89879697D01*
X68442370Y-89486371D01*
X67929100Y-89273243D01*
X67373339Y-89272758D01*
X66859697Y-89484990D01*
X66466371Y-89877630D01*
X66253243Y-90390900D01*
X66252758Y-90946661D01*
X66464990Y-91460303D01*
X66857630Y-91853629D01*
X67370900Y-92066757D01*
X67926661Y-92067242D01*
X68440303Y-91855010D01*
X68833629Y-91462370D01*
X68847070Y-91430000D01*
X68992469Y-91430000D01*
X69004990Y-91460303D01*
X69397630Y-91853629D01*
X69910900Y-92066757D01*
X70466661Y-92067242D01*
X70499055Y-92053857D01*
X70805899Y-92360702D01*
X71052461Y-92525448D01*
X71343300Y-92583300D01*
X115206700Y-92583300D01*
X115497539Y-92525448D01*
X115744101Y-92360701D01*
X117430619Y-90674183D01*
X117460900Y-90686757D01*
X118016661Y-90687242D01*
X118530303Y-90475010D01*
X118923629Y-90082370D01*
X118937070Y-90050000D01*
X122150700Y-90050000D01*
X122441539Y-89992148D01*
X122688101Y-89827401D01*
X134009410Y-78506092D01*
X133989356Y-78562302D01*
X134017138Y-79117368D01*
X134176103Y-79501143D01*
X134418287Y-79570608D01*
X135218895Y-78770000D01*
X135204753Y-78755858D01*
X135384358Y-78576253D01*
X135398500Y-78590395D01*
X135412643Y-78576253D01*
X135592248Y-78755858D01*
X135578105Y-78770000D01*
X136378713Y-79570608D01*
X136620897Y-79501143D01*
X136807644Y-78977698D01*
X136779862Y-78422632D01*
X136712498Y-78260000D01*
X153300207Y-78260000D01*
X153192356Y-78562302D01*
X153220138Y-79117368D01*
X153379103Y-79501143D01*
X153621287Y-79570608D01*
X154421895Y-78770000D01*
X154407753Y-78755858D01*
X154587358Y-78576253D01*
X154601500Y-78590395D01*
X154615643Y-78576253D01*
X154795248Y-78755858D01*
X154781105Y-78770000D01*
X155581713Y-79570608D01*
X155823897Y-79501143D01*
X156010644Y-78977698D01*
X155982862Y-78422632D01*
X155915498Y-78260000D01*
X160393098Y-78260000D01*
X159337199Y-79315899D01*
X159197041Y-79525661D01*
X158716777Y-79353035D01*
X158146546Y-79380222D01*
X157745995Y-79546136D01*
X157671861Y-79792255D01*
X158500000Y-80620395D01*
X158514142Y-80606252D01*
X158693748Y-80785858D01*
X158679605Y-80800000D01*
X158693748Y-80814142D01*
X158514142Y-80993748D01*
X158500000Y-80979605D01*
X157671861Y-81807745D01*
X157745995Y-82053864D01*
X157764266Y-82060432D01*
X154284698Y-85540000D01*
X131632995Y-85540000D01*
X131462811Y-85285302D01*
X130997264Y-84974233D01*
X130499150Y-84875152D01*
X133304302Y-82070000D01*
X134200969Y-82070000D01*
X134213490Y-82100303D01*
X134606130Y-82493629D01*
X135119400Y-82706757D01*
X135675161Y-82707242D01*
X136188803Y-82495010D01*
X136582129Y-82102370D01*
X136595570Y-82070000D01*
X153403969Y-82070000D01*
X153416490Y-82100303D01*
X153809130Y-82493629D01*
X154322400Y-82706757D01*
X154878161Y-82707242D01*
X155391803Y-82495010D01*
X155785129Y-82102370D01*
X155998257Y-81589100D01*
X155998742Y-81033339D01*
X155812759Y-80583223D01*
X157053035Y-80583223D01*
X157080222Y-81153454D01*
X157246136Y-81554005D01*
X157492255Y-81628139D01*
X158320395Y-80800000D01*
X157492255Y-79971861D01*
X157246136Y-80045995D01*
X157053035Y-80583223D01*
X155812759Y-80583223D01*
X155786510Y-80519697D01*
X155393870Y-80126371D01*
X155201773Y-80046605D01*
X155332643Y-79992397D01*
X155402108Y-79750213D01*
X154601500Y-78949605D01*
X153800892Y-79750213D01*
X153870357Y-79992397D01*
X154010818Y-80042509D01*
X153811197Y-80124990D01*
X153417871Y-80517630D01*
X153404430Y-80550000D01*
X136596031Y-80550000D01*
X136583510Y-80519697D01*
X136190870Y-80126371D01*
X135998773Y-80046605D01*
X136129643Y-79992397D01*
X136199108Y-79750213D01*
X135398500Y-78949605D01*
X134597892Y-79750213D01*
X134667357Y-79992397D01*
X134807818Y-80042509D01*
X134608197Y-80124990D01*
X134214871Y-80517630D01*
X134201430Y-80550000D01*
X132989500Y-80550000D01*
X132698661Y-80607852D01*
X132452099Y-80772599D01*
X118837498Y-94387200D01*
X113876800Y-94387200D01*
X113585961Y-94445052D01*
X113339399Y-94609799D01*
X105193195Y-102756003D01*
X104849151Y-102526120D01*
X104300000Y-102416887D01*
X103750849Y-102526120D01*
X103285302Y-102837189D01*
X102974233Y-103302736D01*
X102865000Y-103851887D01*
X102865000Y-103908113D01*
X102974233Y-104457264D01*
X103285302Y-104922811D01*
X103750849Y-105233880D01*
X104300000Y-105343113D01*
X104849151Y-105233880D01*
X105314698Y-104922811D01*
X105515679Y-104622022D01*
X105623890Y-104600498D01*
X105687611Y-104735134D01*
X106102577Y-105111041D01*
X106490961Y-105271904D01*
X106713000Y-105149915D01*
X106713000Y-104007000D01*
X106693000Y-104007000D01*
X106693000Y-103753000D01*
X106713000Y-103753000D01*
X106713000Y-103733000D01*
X106967000Y-103733000D01*
X106967000Y-103753000D01*
X106987000Y-103753000D01*
X106987000Y-104007000D01*
X106967000Y-104007000D01*
X106967000Y-105149915D01*
X107189039Y-105271904D01*
X107577423Y-105111041D01*
X107992389Y-104735134D01*
X108095014Y-104518297D01*
X108365302Y-104922811D01*
X108830849Y-105233880D01*
X109380000Y-105343113D01*
X109929151Y-105233880D01*
X110394698Y-104922811D01*
X110650000Y-104540725D01*
X110905302Y-104922811D01*
X111370849Y-105233880D01*
X111920000Y-105343113D01*
X112469151Y-105233880D01*
X112934698Y-104922811D01*
X113245767Y-104457264D01*
X113355000Y-103908113D01*
X113355000Y-103851887D01*
X113245767Y-103302736D01*
X112934698Y-102837189D01*
X112469151Y-102526120D01*
X111920000Y-102416887D01*
X111370849Y-102526120D01*
X110905302Y-102837189D01*
X110650000Y-103219275D01*
X110394698Y-102837189D01*
X109929151Y-102526120D01*
X109380000Y-102416887D01*
X108830849Y-102526120D01*
X108365302Y-102837189D01*
X108095014Y-103241703D01*
X107992389Y-103024866D01*
X107577423Y-102648959D01*
X107487209Y-102611593D01*
X114191602Y-95907200D01*
X115240889Y-95907200D01*
X115240838Y-95965267D01*
X115382883Y-96309043D01*
X115645673Y-96572292D01*
X115989201Y-96714938D01*
X116343169Y-96715246D01*
X116342758Y-97186661D01*
X116554990Y-97700303D01*
X116947630Y-98093629D01*
X117460900Y-98306757D01*
X118016661Y-98307242D01*
X118530303Y-98095010D01*
X118923629Y-97702370D01*
X119136757Y-97189100D01*
X119137242Y-96633339D01*
X119098717Y-96540100D01*
X122531500Y-96540100D01*
X122822339Y-96482248D01*
X122852560Y-96462055D01*
X122852560Y-97500000D01*
X122896838Y-97735317D01*
X123035910Y-97951441D01*
X123248110Y-98096431D01*
X123500000Y-98147440D01*
X125100000Y-98147440D01*
X125335317Y-98103162D01*
X125551441Y-97964090D01*
X125562685Y-97947634D01*
X126013309Y-98134750D01*
X126584187Y-98135248D01*
X127111800Y-97917243D01*
X127515824Y-97513923D01*
X127734750Y-96986691D01*
X127735248Y-96415813D01*
X127517243Y-95888200D01*
X127385972Y-95756700D01*
X128914128Y-95756700D01*
X128584176Y-96086077D01*
X128365250Y-96613309D01*
X128364752Y-97184187D01*
X128582757Y-97711800D01*
X128986077Y-98115824D01*
X129513309Y-98334750D01*
X130084187Y-98335248D01*
X130611800Y-98117243D01*
X130880583Y-97848928D01*
X130896838Y-97935317D01*
X131035910Y-98151441D01*
X131248110Y-98296431D01*
X131500000Y-98347440D01*
X133100000Y-98347440D01*
X133335317Y-98303162D01*
X133551441Y-98164090D01*
X133577074Y-98126576D01*
X134013199Y-98562701D01*
X134259761Y-98727448D01*
X134550600Y-98785300D01*
X136456098Y-98785300D01*
X139538921Y-101868124D01*
X139449697Y-101904990D01*
X139056371Y-102297630D01*
X138970051Y-102505512D01*
X138885010Y-102299697D01*
X138492370Y-101906371D01*
X137979100Y-101693243D01*
X137423339Y-101692758D01*
X136909697Y-101904990D01*
X136516371Y-102297630D01*
X136430051Y-102505512D01*
X136345010Y-102299697D01*
X135952370Y-101906371D01*
X135439100Y-101693243D01*
X134883339Y-101692758D01*
X134369697Y-101904990D01*
X133976371Y-102297630D01*
X133890051Y-102505512D01*
X133805010Y-102299697D01*
X133412370Y-101906371D01*
X132899100Y-101693243D01*
X132343339Y-101692758D01*
X131829697Y-101904990D01*
X131436371Y-102297630D01*
X131223243Y-102810900D01*
X131222758Y-103366661D01*
X131434990Y-103880303D01*
X131827630Y-104273629D01*
X132340900Y-104486757D01*
X132896661Y-104487242D01*
X133410303Y-104275010D01*
X133803629Y-103882370D01*
X133889949Y-103674488D01*
X133974990Y-103880303D01*
X134367630Y-104273629D01*
X134880900Y-104486757D01*
X135436661Y-104487242D01*
X135950303Y-104275010D01*
X136343629Y-103882370D01*
X136429949Y-103674488D01*
X136514990Y-103880303D01*
X136907630Y-104273629D01*
X137420900Y-104486757D01*
X137976661Y-104487242D01*
X138490303Y-104275010D01*
X138883629Y-103882370D01*
X138969949Y-103674488D01*
X139054990Y-103880303D01*
X139447630Y-104273629D01*
X139960900Y-104486757D01*
X140516661Y-104487242D01*
X141030303Y-104275010D01*
X141159718Y-104145820D01*
X141949699Y-104935801D01*
X142196261Y-105100548D01*
X142487100Y-105158400D01*
X148187798Y-105158400D01*
X155821899Y-112792501D01*
X156068461Y-112957248D01*
X156359300Y-113015100D01*
X159949198Y-113015100D01*
X161393398Y-114459300D01*
X142306000Y-114459300D01*
X142015161Y-114517152D01*
X141768599Y-114681899D01*
X140978909Y-115471589D01*
X140964090Y-115448559D01*
X140751890Y-115303569D01*
X140500000Y-115252560D01*
X138900000Y-115252560D01*
X138664683Y-115296838D01*
X138448559Y-115435910D01*
X138303569Y-115648110D01*
X138282320Y-115753041D01*
X138013923Y-115484176D01*
X137486691Y-115265250D01*
X136915813Y-115264752D01*
X136650372Y-115374430D01*
X139930619Y-112094183D01*
X139960900Y-112106757D01*
X140516661Y-112107242D01*
X141030303Y-111895010D01*
X141423629Y-111502370D01*
X141509949Y-111294488D01*
X141594990Y-111500303D01*
X141987630Y-111893629D01*
X142500900Y-112106757D01*
X143056661Y-112107242D01*
X143570303Y-111895010D01*
X143963629Y-111502370D01*
X143977070Y-111470000D01*
X146964700Y-111470000D01*
X147062086Y-111450628D01*
X147096838Y-111635317D01*
X147235910Y-111851441D01*
X147448110Y-111996431D01*
X147700000Y-112047440D01*
X149900000Y-112047440D01*
X150135317Y-112003162D01*
X150351441Y-111864090D01*
X150496431Y-111651890D01*
X150547440Y-111400000D01*
X150547440Y-109200000D01*
X150503162Y-108964683D01*
X150364090Y-108748559D01*
X150151890Y-108603569D01*
X149900000Y-108552560D01*
X147700000Y-108552560D01*
X147464683Y-108596838D01*
X147248559Y-108735910D01*
X147103569Y-108948110D01*
X147052560Y-109200000D01*
X147052560Y-109618767D01*
X146837299Y-109762599D01*
X146649898Y-109950000D01*
X143977531Y-109950000D01*
X143965010Y-109919697D01*
X143572370Y-109526371D01*
X143059100Y-109313243D01*
X142503339Y-109312758D01*
X141989697Y-109524990D01*
X141596371Y-109917630D01*
X141510051Y-110125512D01*
X141425010Y-109919697D01*
X141032370Y-109526371D01*
X140519100Y-109313243D01*
X139963339Y-109312758D01*
X139449697Y-109524990D01*
X139056371Y-109917630D01*
X138970051Y-110125512D01*
X138885010Y-109919697D01*
X138492370Y-109526371D01*
X137979100Y-109313243D01*
X137423339Y-109312758D01*
X136909697Y-109524990D01*
X136516371Y-109917630D01*
X136430051Y-110125512D01*
X136345010Y-109919697D01*
X135952370Y-109526371D01*
X135439100Y-109313243D01*
X134883339Y-109312758D01*
X134369697Y-109524990D01*
X133976371Y-109917630D01*
X133890051Y-110125512D01*
X133805010Y-109919697D01*
X133412370Y-109526371D01*
X132899100Y-109313243D01*
X132343339Y-109312758D01*
X131829697Y-109524990D01*
X131436371Y-109917630D01*
X131223243Y-110430900D01*
X131222758Y-110986661D01*
X131434990Y-111500303D01*
X131827630Y-111893629D01*
X132340900Y-112106757D01*
X132896661Y-112107242D01*
X133410303Y-111895010D01*
X133803629Y-111502370D01*
X133889949Y-111294488D01*
X133974990Y-111500303D01*
X134367630Y-111893629D01*
X134880900Y-112106757D01*
X135436661Y-112107242D01*
X135950303Y-111895010D01*
X136343629Y-111502370D01*
X136429949Y-111294488D01*
X136514990Y-111500303D01*
X136907630Y-111893629D01*
X137420900Y-112106757D01*
X137768138Y-112107060D01*
X134352352Y-115522846D01*
X134213923Y-115384176D01*
X133686691Y-115165250D01*
X133115813Y-115164752D01*
X133061851Y-115187049D01*
X127537401Y-109662599D01*
X127389899Y-109564042D01*
X127317243Y-109388200D01*
X126913923Y-108984176D01*
X126386691Y-108765250D01*
X125815813Y-108764752D01*
X125365534Y-108950803D01*
X125364090Y-108948559D01*
X125151890Y-108803569D01*
X124900000Y-108752560D01*
X123300000Y-108752560D01*
X123064683Y-108796838D01*
X122848559Y-108935910D01*
X122703569Y-109148110D01*
X122652560Y-109400000D01*
X122652560Y-109518767D01*
X122437299Y-109662599D01*
X114623998Y-117475900D01*
X111960375Y-117475900D01*
X111994757Y-117393100D01*
X111995242Y-116837339D01*
X111981857Y-116804945D01*
X123612101Y-105174701D01*
X123630316Y-105147440D01*
X125000000Y-105147440D01*
X125235317Y-105103162D01*
X125451441Y-104964090D01*
X125462685Y-104947634D01*
X125913309Y-105134750D01*
X126484187Y-105135248D01*
X127011800Y-104917243D01*
X127415824Y-104513923D01*
X127634750Y-103986691D01*
X127635248Y-103415813D01*
X127417243Y-102888200D01*
X127013923Y-102484176D01*
X126486691Y-102265250D01*
X125915813Y-102264752D01*
X125465534Y-102450803D01*
X125464090Y-102448559D01*
X125251890Y-102303569D01*
X125000000Y-102252560D01*
X123400000Y-102252560D01*
X123164683Y-102296838D01*
X122948559Y-102435910D01*
X122803569Y-102648110D01*
X122752560Y-102900000D01*
X122752560Y-103018767D01*
X122537299Y-103162599D01*
X122372552Y-103409161D01*
X122314700Y-103700000D01*
X122314700Y-104322498D01*
X110907381Y-115729817D01*
X110877100Y-115717243D01*
X110321339Y-115716758D01*
X109807697Y-115928990D01*
X109414371Y-116321630D01*
X109400930Y-116354000D01*
X109255531Y-116354000D01*
X109243010Y-116323697D01*
X108850370Y-115930371D01*
X108337100Y-115717243D01*
X107781339Y-115716758D01*
X107267697Y-115928990D01*
X106874371Y-116321630D01*
X106661243Y-116834900D01*
X106660758Y-117390661D01*
X106695978Y-117475900D01*
X104414702Y-117475900D01*
X104362183Y-117423381D01*
X104374757Y-117393100D01*
X104375242Y-116837339D01*
X104163010Y-116323697D01*
X103770370Y-115930371D01*
X103257100Y-115717243D01*
X102701339Y-115716758D01*
X102187697Y-115928990D01*
X101794371Y-116321630D01*
X101780930Y-116354000D01*
X101635531Y-116354000D01*
X101623010Y-116323697D01*
X101230370Y-115930371D01*
X100717100Y-115717243D01*
X100161339Y-115716758D01*
X99647697Y-115928990D01*
X99254371Y-116321630D01*
X99229450Y-116381648D01*
X97160000Y-114312198D01*
X97160000Y-114138646D01*
X97211800Y-114117243D01*
X97615824Y-113713923D01*
X97834750Y-113186691D01*
X97835248Y-112615813D01*
X97617243Y-112088200D01*
X97315321Y-111785750D01*
X102865000Y-111785750D01*
X102865000Y-112426309D01*
X102961673Y-112659698D01*
X103140301Y-112838327D01*
X103373690Y-112935000D01*
X104014250Y-112935000D01*
X104173000Y-112776250D01*
X104173000Y-111627000D01*
X104427000Y-111627000D01*
X104427000Y-112776250D01*
X104585750Y-112935000D01*
X105226310Y-112935000D01*
X105459699Y-112838327D01*
X105638327Y-112659698D01*
X105735000Y-112426309D01*
X105735000Y-112398062D01*
X106102577Y-112731041D01*
X106490961Y-112891904D01*
X106713000Y-112769915D01*
X106713000Y-111627000D01*
X106967000Y-111627000D01*
X106967000Y-112769915D01*
X107189039Y-112891904D01*
X107577423Y-112731041D01*
X107992389Y-112355134D01*
X108110000Y-112106633D01*
X108227611Y-112355134D01*
X108642577Y-112731041D01*
X109030961Y-112891904D01*
X109253000Y-112769915D01*
X109253000Y-111627000D01*
X109507000Y-111627000D01*
X109507000Y-112769915D01*
X109729039Y-112891904D01*
X110117423Y-112731041D01*
X110532389Y-112355134D01*
X110650000Y-112106633D01*
X110767611Y-112355134D01*
X111182577Y-112731041D01*
X111570961Y-112891904D01*
X111793000Y-112769915D01*
X111793000Y-111627000D01*
X112047000Y-111627000D01*
X112047000Y-112769915D01*
X112269039Y-112891904D01*
X112657423Y-112731041D01*
X113072389Y-112355134D01*
X113311914Y-111849041D01*
X113190629Y-111627000D01*
X112047000Y-111627000D01*
X111793000Y-111627000D01*
X109507000Y-111627000D01*
X109253000Y-111627000D01*
X106967000Y-111627000D01*
X106713000Y-111627000D01*
X104427000Y-111627000D01*
X104173000Y-111627000D01*
X103023750Y-111627000D01*
X102865000Y-111785750D01*
X97315321Y-111785750D01*
X97213923Y-111684176D01*
X96686691Y-111465250D01*
X96115813Y-111464752D01*
X95588200Y-111682757D01*
X95184176Y-112086077D01*
X95161785Y-112140000D01*
X94889502Y-112140000D01*
X93323193Y-110573691D01*
X102865000Y-110573691D01*
X102865000Y-111214250D01*
X103023750Y-111373000D01*
X104173000Y-111373000D01*
X104173000Y-110223750D01*
X104427000Y-110223750D01*
X104427000Y-111373000D01*
X106713000Y-111373000D01*
X106713000Y-110230085D01*
X106967000Y-110230085D01*
X106967000Y-111373000D01*
X109253000Y-111373000D01*
X109253000Y-110230085D01*
X109507000Y-110230085D01*
X109507000Y-111373000D01*
X111793000Y-111373000D01*
X111793000Y-110230085D01*
X112047000Y-110230085D01*
X112047000Y-111373000D01*
X113190629Y-111373000D01*
X113311914Y-111150959D01*
X113072389Y-110644866D01*
X112657423Y-110268959D01*
X112269039Y-110108096D01*
X112047000Y-110230085D01*
X111793000Y-110230085D01*
X111570961Y-110108096D01*
X111182577Y-110268959D01*
X110767611Y-110644866D01*
X110650000Y-110893367D01*
X110532389Y-110644866D01*
X110117423Y-110268959D01*
X109729039Y-110108096D01*
X109507000Y-110230085D01*
X109253000Y-110230085D01*
X109030961Y-110108096D01*
X108642577Y-110268959D01*
X108227611Y-110644866D01*
X108110000Y-110893367D01*
X107992389Y-110644866D01*
X107577423Y-110268959D01*
X107189039Y-110108096D01*
X106967000Y-110230085D01*
X106713000Y-110230085D01*
X106490961Y-110108096D01*
X106102577Y-110268959D01*
X105735000Y-110601938D01*
X105735000Y-110573691D01*
X105638327Y-110340302D01*
X105459699Y-110161673D01*
X105226310Y-110065000D01*
X104585750Y-110065000D01*
X104427000Y-110223750D01*
X104173000Y-110223750D01*
X104014250Y-110065000D01*
X103373690Y-110065000D01*
X103140301Y-110161673D01*
X102961673Y-110340302D01*
X102865000Y-110573691D01*
X93323193Y-110573691D01*
X90728411Y-107978909D01*
X90751441Y-107964090D01*
X90896431Y-107751890D01*
X90947440Y-107500000D01*
X90947440Y-105900000D01*
X90903162Y-105664683D01*
X90764090Y-105448559D01*
X90551890Y-105303569D01*
X90300000Y-105252560D01*
X88700000Y-105252560D01*
X88464683Y-105296838D01*
X88248559Y-105435910D01*
X88103569Y-105648110D01*
X88055354Y-105886201D01*
X88007745Y-105871861D01*
X87179605Y-106700000D01*
X88007745Y-107528139D01*
X88055167Y-107513855D01*
X88096838Y-107735317D01*
X88235910Y-107951441D01*
X88273424Y-107977074D01*
X80562599Y-115687899D01*
X80397852Y-115934461D01*
X80340000Y-116225300D01*
X80340000Y-119726103D01*
X80217486Y-119776725D01*
X79849744Y-120143826D01*
X79484823Y-119778268D01*
X78911664Y-119540272D01*
X78291058Y-119539730D01*
X77717486Y-119776725D01*
X77278268Y-120215177D01*
X77040272Y-120788336D01*
X77039730Y-121408942D01*
X77276725Y-121982514D01*
X77715177Y-122421732D01*
X78288336Y-122659728D01*
X78908942Y-122660270D01*
X79033855Y-122608657D01*
X79815198Y-123390000D01*
X59010000Y-123390000D01*
X59010000Y-120900000D01*
X59408861Y-120900000D01*
X59583264Y-121776781D01*
X60079920Y-122520080D01*
X60823219Y-123016736D01*
X61700000Y-123191139D01*
X62576781Y-123016736D01*
X63320080Y-122520080D01*
X63816736Y-121776781D01*
X63889903Y-121408942D01*
X67839730Y-121408942D01*
X68076725Y-121982514D01*
X68515177Y-122421732D01*
X69088336Y-122659728D01*
X69708942Y-122660270D01*
X70282514Y-122423275D01*
X70400749Y-122305246D01*
X70510910Y-122476441D01*
X70723110Y-122621431D01*
X70975000Y-122672440D01*
X72825000Y-122672440D01*
X73060317Y-122628162D01*
X73276441Y-122489090D01*
X73421431Y-122276890D01*
X73472440Y-122025000D01*
X73472440Y-120175000D01*
X73428162Y-119939683D01*
X73289090Y-119723559D01*
X73076890Y-119578569D01*
X72825000Y-119527560D01*
X70975000Y-119527560D01*
X70739683Y-119571838D01*
X70523559Y-119710910D01*
X70399229Y-119892874D01*
X70284823Y-119778268D01*
X69711664Y-119540272D01*
X69091058Y-119539730D01*
X68517486Y-119776725D01*
X68078268Y-120215177D01*
X67840272Y-120788336D01*
X67839730Y-121408942D01*
X63889903Y-121408942D01*
X63991139Y-120900000D01*
X63816736Y-120023219D01*
X63320080Y-119279920D01*
X62576781Y-118783264D01*
X61700000Y-118608861D01*
X60823219Y-118783264D01*
X60079920Y-119279920D01*
X59583264Y-120023219D01*
X59408861Y-120900000D01*
X59010000Y-120900000D01*
X59010000Y-113806661D01*
X66252758Y-113806661D01*
X66464990Y-114320303D01*
X66857630Y-114713629D01*
X67370900Y-114926757D01*
X67926661Y-114927242D01*
X68440303Y-114715010D01*
X68833629Y-114322370D01*
X69046757Y-113809100D01*
X69046759Y-113806661D01*
X78952758Y-113806661D01*
X79164990Y-114320303D01*
X79557630Y-114713629D01*
X80070900Y-114926757D01*
X80626661Y-114927242D01*
X81140303Y-114715010D01*
X81533629Y-114322370D01*
X81746757Y-113809100D01*
X81747242Y-113253339D01*
X81535010Y-112739697D01*
X81142370Y-112346371D01*
X80629100Y-112133243D01*
X80073339Y-112132758D01*
X79559697Y-112344990D01*
X79166371Y-112737630D01*
X78953243Y-113250900D01*
X78952758Y-113806661D01*
X69046759Y-113806661D01*
X69047242Y-113253339D01*
X68835010Y-112739697D01*
X68442370Y-112346371D01*
X67929100Y-112133243D01*
X67373339Y-112132758D01*
X66859697Y-112344990D01*
X66466371Y-112737630D01*
X66253243Y-113250900D01*
X66252758Y-113806661D01*
X59010000Y-113806661D01*
X59010000Y-107707745D01*
X86171861Y-107707745D01*
X86245995Y-107953864D01*
X86783223Y-108146965D01*
X87353454Y-108119778D01*
X87754005Y-107953864D01*
X87828139Y-107707745D01*
X87000000Y-106879605D01*
X86171861Y-107707745D01*
X59010000Y-107707745D01*
X59010000Y-106483223D01*
X85553035Y-106483223D01*
X85580222Y-107053454D01*
X85746136Y-107454005D01*
X85992255Y-107528139D01*
X86820395Y-106700000D01*
X85992255Y-105871861D01*
X85746136Y-105945995D01*
X85553035Y-106483223D01*
X59010000Y-106483223D01*
X59010000Y-105692255D01*
X86171861Y-105692255D01*
X87000000Y-106520395D01*
X87828139Y-105692255D01*
X87754005Y-105446136D01*
X87216777Y-105253035D01*
X86646546Y-105280222D01*
X86245995Y-105446136D01*
X86171861Y-105692255D01*
X59010000Y-105692255D01*
X59010000Y-98885750D01*
X59940000Y-98885750D01*
X59940000Y-99651309D01*
X60036673Y-99884698D01*
X60215301Y-100063327D01*
X60448690Y-100160000D01*
X61214250Y-100160000D01*
X61373000Y-100001250D01*
X61373000Y-98727000D01*
X61627000Y-98727000D01*
X61627000Y-100001250D01*
X61785750Y-100160000D01*
X62551310Y-100160000D01*
X62784699Y-100063327D01*
X62963327Y-99884698D01*
X63060000Y-99651309D01*
X63060000Y-98885750D01*
X62901250Y-98727000D01*
X61627000Y-98727000D01*
X61373000Y-98727000D01*
X60098750Y-98727000D01*
X59940000Y-98885750D01*
X59010000Y-98885750D01*
X59010000Y-75612492D01*
X59100900Y-76069476D01*
X59593418Y-76806582D01*
X60330524Y-77299100D01*
X61200000Y-77472050D01*
X62069476Y-77299100D01*
X62806582Y-76806582D01*
X63299100Y-76069476D01*
X63472050Y-75200000D01*
X63299100Y-74330524D01*
X62806582Y-73593418D01*
X62069476Y-73100900D01*
X61200000Y-72927950D01*
X60330524Y-73100900D01*
X59593418Y-73593418D01*
X59100900Y-74330524D01*
X59010000Y-74787508D01*
X59010000Y-72810000D01*
X67742262Y-72810000D01*
X67660699Y-72864499D01*
X67660699Y-72864499D01*
G37*
X67660699Y-72864499D02*
X67197638Y-73327560D01*
X65775000Y-73327560D01*
X65539683Y-73371838D01*
X65323559Y-73510910D01*
X65178569Y-73723110D01*
X65127560Y-73975000D01*
X65127560Y-75825000D01*
X65171838Y-76060317D01*
X65310910Y-76276441D01*
X65523110Y-76421431D01*
X65775000Y-76472440D01*
X67625000Y-76472440D01*
X67860317Y-76428162D01*
X68076441Y-76289090D01*
X68200771Y-76107126D01*
X68315177Y-76221732D01*
X68888336Y-76459728D01*
X69508942Y-76460270D01*
X69633855Y-76408657D01*
X70397998Y-77172800D01*
X63563100Y-77172800D01*
X63272260Y-77230652D01*
X63025699Y-77395399D01*
X59512199Y-80908899D01*
X59347452Y-81155461D01*
X59289600Y-81446300D01*
X59289600Y-94649600D01*
X59347452Y-94940439D01*
X59512199Y-95187001D01*
X59991108Y-95665910D01*
X59940272Y-95788336D01*
X59939730Y-96408942D01*
X60176725Y-96982514D01*
X60296882Y-97102881D01*
X60215301Y-97136673D01*
X60036673Y-97315302D01*
X59940000Y-97548691D01*
X59940000Y-98314250D01*
X60098750Y-98473000D01*
X61373000Y-98473000D01*
X61373000Y-98453000D01*
X61627000Y-98453000D01*
X61627000Y-98473000D01*
X62901250Y-98473000D01*
X63060000Y-98314250D01*
X63060000Y-97890213D01*
X86459392Y-97890213D01*
X86528857Y-98132397D01*
X87052302Y-98319144D01*
X87607368Y-98291362D01*
X87991143Y-98132397D01*
X88060608Y-97890213D01*
X87260000Y-97089605D01*
X86459392Y-97890213D01*
X63060000Y-97890213D01*
X63060000Y-97548691D01*
X62963327Y-97315302D01*
X62784699Y-97136673D01*
X62703365Y-97102983D01*
X62821732Y-96984823D01*
X63059728Y-96411664D01*
X63059842Y-96280661D01*
X66252758Y-96280661D01*
X66464990Y-96794303D01*
X66857630Y-97187629D01*
X67370900Y-97400757D01*
X67926661Y-97401242D01*
X68440303Y-97189010D01*
X68833629Y-96796370D01*
X69046757Y-96283100D01*
X69046759Y-96280661D01*
X78952758Y-96280661D01*
X79164990Y-96794303D01*
X79557630Y-97187629D01*
X80070900Y-97400757D01*
X80626661Y-97401242D01*
X81140303Y-97189010D01*
X81533629Y-96796370D01*
X81572689Y-96702302D01*
X85850856Y-96702302D01*
X85878638Y-97257368D01*
X86037603Y-97641143D01*
X86279787Y-97710608D01*
X87080395Y-96910000D01*
X87439605Y-96910000D01*
X88240213Y-97710608D01*
X88482397Y-97641143D01*
X88669144Y-97117698D01*
X88641362Y-96562632D01*
X88482397Y-96178857D01*
X88240213Y-96109392D01*
X87439605Y-96910000D01*
X87080395Y-96910000D01*
X86279787Y-96109392D01*
X86037603Y-96178857D01*
X85850856Y-96702302D01*
X81572689Y-96702302D01*
X81746757Y-96283100D01*
X81747065Y-95929787D01*
X86459392Y-95929787D01*
X87260000Y-96730395D01*
X88060608Y-95929787D01*
X87991143Y-95687603D01*
X87467698Y-95500856D01*
X86912632Y-95528638D01*
X86528857Y-95687603D01*
X86459392Y-95929787D01*
X81747065Y-95929787D01*
X81747242Y-95727339D01*
X81535010Y-95213697D01*
X81142370Y-94820371D01*
X80629100Y-94607243D01*
X80073339Y-94606758D01*
X79559697Y-94818990D01*
X79166371Y-95211630D01*
X78953243Y-95724900D01*
X78952758Y-96280661D01*
X69046759Y-96280661D01*
X69047242Y-95727339D01*
X68835010Y-95213697D01*
X68442370Y-94820371D01*
X67929100Y-94607243D01*
X67373339Y-94606758D01*
X66859697Y-94818990D01*
X66466371Y-95211630D01*
X66253243Y-95724900D01*
X66252758Y-96280661D01*
X63059842Y-96280661D01*
X63060270Y-95791058D01*
X62823275Y-95217486D01*
X62384823Y-94778268D01*
X61811664Y-94540272D01*
X61191058Y-94539730D01*
X61066145Y-94591343D01*
X60809600Y-94334798D01*
X60809600Y-86072440D01*
X62225000Y-86072440D01*
X62460317Y-86028162D01*
X62676441Y-85889090D01*
X62821431Y-85676890D01*
X62872440Y-85425000D01*
X62872440Y-85260000D01*
X71325198Y-85260000D01*
X76425817Y-90360619D01*
X76413243Y-90390900D01*
X76412758Y-90946661D01*
X76460952Y-91063300D01*
X71658103Y-91063300D01*
X71574183Y-90979381D01*
X71586757Y-90949100D01*
X71587242Y-90393339D01*
X71375010Y-89879697D01*
X70982370Y-89486371D01*
X70469100Y-89273243D01*
X69913339Y-89272758D01*
X69399697Y-89484990D01*
X69006371Y-89877630D01*
X68992930Y-89910000D01*
X68847531Y-89910000D01*
X68835010Y-89879697D01*
X68442370Y-89486371D01*
X67929100Y-89273243D01*
X67373339Y-89272758D01*
X66859697Y-89484990D01*
X66466371Y-89877630D01*
X66253243Y-90390900D01*
X66252758Y-90946661D01*
X66464990Y-91460303D01*
X66857630Y-91853629D01*
X67370900Y-92066757D01*
X67926661Y-92067242D01*
X68440303Y-91855010D01*
X68833629Y-91462370D01*
X68847070Y-91430000D01*
X68992469Y-91430000D01*
X69004990Y-91460303D01*
X69397630Y-91853629D01*
X69910900Y-92066757D01*
X70466661Y-92067242D01*
X70499055Y-92053857D01*
X70805899Y-92360702D01*
X71052461Y-92525448D01*
X71343300Y-92583300D01*
X115206700Y-92583300D01*
X115497539Y-92525448D01*
X115744101Y-92360701D01*
X117430619Y-90674183D01*
X117460900Y-90686757D01*
X118016661Y-90687242D01*
X118530303Y-90475010D01*
X118923629Y-90082370D01*
X118937070Y-90050000D01*
X122150700Y-90050000D01*
X122441539Y-89992148D01*
X122688101Y-89827401D01*
X134009410Y-78506092D01*
X133989356Y-78562302D01*
X134017138Y-79117368D01*
X134176103Y-79501143D01*
X134418287Y-79570608D01*
X135218895Y-78770000D01*
X135204753Y-78755858D01*
X135384358Y-78576253D01*
X135398500Y-78590395D01*
X135412643Y-78576253D01*
X135592248Y-78755858D01*
X135578105Y-78770000D01*
X136378713Y-79570608D01*
X136620897Y-79501143D01*
X136807644Y-78977698D01*
X136779862Y-78422632D01*
X136712498Y-78260000D01*
X153300207Y-78260000D01*
X153192356Y-78562302D01*
X153220138Y-79117368D01*
X153379103Y-79501143D01*
X153621287Y-79570608D01*
X154421895Y-78770000D01*
X154407753Y-78755858D01*
X154587358Y-78576253D01*
X154601500Y-78590395D01*
X154615643Y-78576253D01*
X154795248Y-78755858D01*
X154781105Y-78770000D01*
X155581713Y-79570608D01*
X155823897Y-79501143D01*
X156010644Y-78977698D01*
X155982862Y-78422632D01*
X155915498Y-78260000D01*
X160393098Y-78260000D01*
X159337199Y-79315899D01*
X159197041Y-79525661D01*
X158716777Y-79353035D01*
X158146546Y-79380222D01*
X157745995Y-79546136D01*
X157671861Y-79792255D01*
X158500000Y-80620395D01*
X158514142Y-80606252D01*
X158693748Y-80785858D01*
X158679605Y-80800000D01*
X158693748Y-80814142D01*
X158514142Y-80993748D01*
X158500000Y-80979605D01*
X157671861Y-81807745D01*
X157745995Y-82053864D01*
X157764266Y-82060432D01*
X154284698Y-85540000D01*
X131632995Y-85540000D01*
X131462811Y-85285302D01*
X130997264Y-84974233D01*
X130499150Y-84875152D01*
X133304302Y-82070000D01*
X134200969Y-82070000D01*
X134213490Y-82100303D01*
X134606130Y-82493629D01*
X135119400Y-82706757D01*
X135675161Y-82707242D01*
X136188803Y-82495010D01*
X136582129Y-82102370D01*
X136595570Y-82070000D01*
X153403969Y-82070000D01*
X153416490Y-82100303D01*
X153809130Y-82493629D01*
X154322400Y-82706757D01*
X154878161Y-82707242D01*
X155391803Y-82495010D01*
X155785129Y-82102370D01*
X155998257Y-81589100D01*
X155998742Y-81033339D01*
X155812759Y-80583223D01*
X157053035Y-80583223D01*
X157080222Y-81153454D01*
X157246136Y-81554005D01*
X157492255Y-81628139D01*
X158320395Y-80800000D01*
X157492255Y-79971861D01*
X157246136Y-80045995D01*
X157053035Y-80583223D01*
X155812759Y-80583223D01*
X155786510Y-80519697D01*
X155393870Y-80126371D01*
X155201773Y-80046605D01*
X155332643Y-79992397D01*
X155402108Y-79750213D01*
X154601500Y-78949605D01*
X153800892Y-79750213D01*
X153870357Y-79992397D01*
X154010818Y-80042509D01*
X153811197Y-80124990D01*
X153417871Y-80517630D01*
X153404430Y-80550000D01*
X136596031Y-80550000D01*
X136583510Y-80519697D01*
X136190870Y-80126371D01*
X135998773Y-80046605D01*
X136129643Y-79992397D01*
X136199108Y-79750213D01*
X135398500Y-78949605D01*
X134597892Y-79750213D01*
X134667357Y-79992397D01*
X134807818Y-80042509D01*
X134608197Y-80124990D01*
X134214871Y-80517630D01*
X134201430Y-80550000D01*
X132989500Y-80550000D01*
X132698661Y-80607852D01*
X132452099Y-80772599D01*
X118837498Y-94387200D01*
X113876800Y-94387200D01*
X113585961Y-94445052D01*
X113339399Y-94609799D01*
X105193195Y-102756003D01*
X104849151Y-102526120D01*
X104300000Y-102416887D01*
X103750849Y-102526120D01*
X103285302Y-102837189D01*
X102974233Y-103302736D01*
X102865000Y-103851887D01*
X102865000Y-103908113D01*
X102974233Y-104457264D01*
X103285302Y-104922811D01*
X103750849Y-105233880D01*
X104300000Y-105343113D01*
X104849151Y-105233880D01*
X105314698Y-104922811D01*
X105515679Y-104622022D01*
X105623890Y-104600498D01*
X105687611Y-104735134D01*
X106102577Y-105111041D01*
X106490961Y-105271904D01*
X106713000Y-105149915D01*
X106713000Y-104007000D01*
X106693000Y-104007000D01*
X106693000Y-103753000D01*
X106713000Y-103753000D01*
X106713000Y-103733000D01*
X106967000Y-103733000D01*
X106967000Y-103753000D01*
X106987000Y-103753000D01*
X106987000Y-104007000D01*
X106967000Y-104007000D01*
X106967000Y-105149915D01*
X107189039Y-105271904D01*
X107577423Y-105111041D01*
X107992389Y-104735134D01*
X108095014Y-104518297D01*
X108365302Y-104922811D01*
X108830849Y-105233880D01*
X109380000Y-105343113D01*
X109929151Y-105233880D01*
X110394698Y-104922811D01*
X110650000Y-104540725D01*
X110905302Y-104922811D01*
X111370849Y-105233880D01*
X111920000Y-105343113D01*
X112469151Y-105233880D01*
X112934698Y-104922811D01*
X113245767Y-104457264D01*
X113355000Y-103908113D01*
X113355000Y-103851887D01*
X113245767Y-103302736D01*
X112934698Y-102837189D01*
X112469151Y-102526120D01*
X111920000Y-102416887D01*
X111370849Y-102526120D01*
X110905302Y-102837189D01*
X110650000Y-103219275D01*
X110394698Y-102837189D01*
X109929151Y-102526120D01*
X109380000Y-102416887D01*
X108830849Y-102526120D01*
X108365302Y-102837189D01*
X108095014Y-103241703D01*
X107992389Y-103024866D01*
X107577423Y-102648959D01*
X107487209Y-102611593D01*
X114191602Y-95907200D01*
X115240889Y-95907200D01*
X115240838Y-95965267D01*
X115382883Y-96309043D01*
X115645673Y-96572292D01*
X115989201Y-96714938D01*
X116343169Y-96715246D01*
X116342758Y-97186661D01*
X116554990Y-97700303D01*
X116947630Y-98093629D01*
X117460900Y-98306757D01*
X118016661Y-98307242D01*
X118530303Y-98095010D01*
X118923629Y-97702370D01*
X119136757Y-97189100D01*
X119137242Y-96633339D01*
X119098717Y-96540100D01*
X122531500Y-96540100D01*
X122822339Y-96482248D01*
X122852560Y-96462055D01*
X122852560Y-97500000D01*
X122896838Y-97735317D01*
X123035910Y-97951441D01*
X123248110Y-98096431D01*
X123500000Y-98147440D01*
X125100000Y-98147440D01*
X125335317Y-98103162D01*
X125551441Y-97964090D01*
X125562685Y-97947634D01*
X126013309Y-98134750D01*
X126584187Y-98135248D01*
X127111800Y-97917243D01*
X127515824Y-97513923D01*
X127734750Y-96986691D01*
X127735248Y-96415813D01*
X127517243Y-95888200D01*
X127385972Y-95756700D01*
X128914128Y-95756700D01*
X128584176Y-96086077D01*
X128365250Y-96613309D01*
X128364752Y-97184187D01*
X128582757Y-97711800D01*
X128986077Y-98115824D01*
X129513309Y-98334750D01*
X130084187Y-98335248D01*
X130611800Y-98117243D01*
X130880583Y-97848928D01*
X130896838Y-97935317D01*
X131035910Y-98151441D01*
X131248110Y-98296431D01*
X131500000Y-98347440D01*
X133100000Y-98347440D01*
X133335317Y-98303162D01*
X133551441Y-98164090D01*
X133577074Y-98126576D01*
X134013199Y-98562701D01*
X134259761Y-98727448D01*
X134550600Y-98785300D01*
X136456098Y-98785300D01*
X139538921Y-101868124D01*
X139449697Y-101904990D01*
X139056371Y-102297630D01*
X138970051Y-102505512D01*
X138885010Y-102299697D01*
X138492370Y-101906371D01*
X137979100Y-101693243D01*
X137423339Y-101692758D01*
X136909697Y-101904990D01*
X136516371Y-102297630D01*
X136430051Y-102505512D01*
X136345010Y-102299697D01*
X135952370Y-101906371D01*
X135439100Y-101693243D01*
X134883339Y-101692758D01*
X134369697Y-101904990D01*
X133976371Y-102297630D01*
X133890051Y-102505512D01*
X133805010Y-102299697D01*
X133412370Y-101906371D01*
X132899100Y-101693243D01*
X132343339Y-101692758D01*
X131829697Y-101904990D01*
X131436371Y-102297630D01*
X131223243Y-102810900D01*
X131222758Y-103366661D01*
X131434990Y-103880303D01*
X131827630Y-104273629D01*
X132340900Y-104486757D01*
X132896661Y-104487242D01*
X133410303Y-104275010D01*
X133803629Y-103882370D01*
X133889949Y-103674488D01*
X133974990Y-103880303D01*
X134367630Y-104273629D01*
X134880900Y-104486757D01*
X135436661Y-104487242D01*
X135950303Y-104275010D01*
X136343629Y-103882370D01*
X136429949Y-103674488D01*
X136514990Y-103880303D01*
X136907630Y-104273629D01*
X137420900Y-104486757D01*
X137976661Y-104487242D01*
X138490303Y-104275010D01*
X138883629Y-103882370D01*
X138969949Y-103674488D01*
X139054990Y-103880303D01*
X139447630Y-104273629D01*
X139960900Y-104486757D01*
X140516661Y-104487242D01*
X141030303Y-104275010D01*
X141159718Y-104145820D01*
X141949699Y-104935801D01*
X142196261Y-105100548D01*
X142487100Y-105158400D01*
X148187798Y-105158400D01*
X155821899Y-112792501D01*
X156068461Y-112957248D01*
X156359300Y-113015100D01*
X159949198Y-113015100D01*
X161393398Y-114459300D01*
X142306000Y-114459300D01*
X142015161Y-114517152D01*
X141768599Y-114681899D01*
X140978909Y-115471589D01*
X140964090Y-115448559D01*
X140751890Y-115303569D01*
X140500000Y-115252560D01*
X138900000Y-115252560D01*
X138664683Y-115296838D01*
X138448559Y-115435910D01*
X138303569Y-115648110D01*
X138282320Y-115753041D01*
X138013923Y-115484176D01*
X137486691Y-115265250D01*
X136915813Y-115264752D01*
X136650372Y-115374430D01*
X139930619Y-112094183D01*
X139960900Y-112106757D01*
X140516661Y-112107242D01*
X141030303Y-111895010D01*
X141423629Y-111502370D01*
X141509949Y-111294488D01*
X141594990Y-111500303D01*
X141987630Y-111893629D01*
X142500900Y-112106757D01*
X143056661Y-112107242D01*
X143570303Y-111895010D01*
X143963629Y-111502370D01*
X143977070Y-111470000D01*
X146964700Y-111470000D01*
X147062086Y-111450628D01*
X147096838Y-111635317D01*
X147235910Y-111851441D01*
X147448110Y-111996431D01*
X147700000Y-112047440D01*
X149900000Y-112047440D01*
X150135317Y-112003162D01*
X150351441Y-111864090D01*
X150496431Y-111651890D01*
X150547440Y-111400000D01*
X150547440Y-109200000D01*
X150503162Y-108964683D01*
X150364090Y-108748559D01*
X150151890Y-108603569D01*
X149900000Y-108552560D01*
X147700000Y-108552560D01*
X147464683Y-108596838D01*
X147248559Y-108735910D01*
X147103569Y-108948110D01*
X147052560Y-109200000D01*
X147052560Y-109618767D01*
X146837299Y-109762599D01*
X146649898Y-109950000D01*
X143977531Y-109950000D01*
X143965010Y-109919697D01*
X143572370Y-109526371D01*
X143059100Y-109313243D01*
X142503339Y-109312758D01*
X141989697Y-109524990D01*
X141596371Y-109917630D01*
X141510051Y-110125512D01*
X141425010Y-109919697D01*
X141032370Y-109526371D01*
X140519100Y-109313243D01*
X139963339Y-109312758D01*
X139449697Y-109524990D01*
X139056371Y-109917630D01*
X138970051Y-110125512D01*
X138885010Y-109919697D01*
X138492370Y-109526371D01*
X137979100Y-109313243D01*
X137423339Y-109312758D01*
X136909697Y-109524990D01*
X136516371Y-109917630D01*
X136430051Y-110125512D01*
X136345010Y-109919697D01*
X135952370Y-109526371D01*
X135439100Y-109313243D01*
X134883339Y-109312758D01*
X134369697Y-109524990D01*
X133976371Y-109917630D01*
X133890051Y-110125512D01*
X133805010Y-109919697D01*
X133412370Y-109526371D01*
X132899100Y-109313243D01*
X132343339Y-109312758D01*
X131829697Y-109524990D01*
X131436371Y-109917630D01*
X131223243Y-110430900D01*
X131222758Y-110986661D01*
X131434990Y-111500303D01*
X131827630Y-111893629D01*
X132340900Y-112106757D01*
X132896661Y-112107242D01*
X133410303Y-111895010D01*
X133803629Y-111502370D01*
X133889949Y-111294488D01*
X133974990Y-111500303D01*
X134367630Y-111893629D01*
X134880900Y-112106757D01*
X135436661Y-112107242D01*
X135950303Y-111895010D01*
X136343629Y-111502370D01*
X136429949Y-111294488D01*
X136514990Y-111500303D01*
X136907630Y-111893629D01*
X137420900Y-112106757D01*
X137768138Y-112107060D01*
X134352352Y-115522846D01*
X134213923Y-115384176D01*
X133686691Y-115165250D01*
X133115813Y-115164752D01*
X133061851Y-115187049D01*
X127537401Y-109662599D01*
X127389899Y-109564042D01*
X127317243Y-109388200D01*
X126913923Y-108984176D01*
X126386691Y-108765250D01*
X125815813Y-108764752D01*
X125365534Y-108950803D01*
X125364090Y-108948559D01*
X125151890Y-108803569D01*
X124900000Y-108752560D01*
X123300000Y-108752560D01*
X123064683Y-108796838D01*
X122848559Y-108935910D01*
X122703569Y-109148110D01*
X122652560Y-109400000D01*
X122652560Y-109518767D01*
X122437299Y-109662599D01*
X114623998Y-117475900D01*
X111960375Y-117475900D01*
X111994757Y-117393100D01*
X111995242Y-116837339D01*
X111981857Y-116804945D01*
X123612101Y-105174701D01*
X123630316Y-105147440D01*
X125000000Y-105147440D01*
X125235317Y-105103162D01*
X125451441Y-104964090D01*
X125462685Y-104947634D01*
X125913309Y-105134750D01*
X126484187Y-105135248D01*
X127011800Y-104917243D01*
X127415824Y-104513923D01*
X127634750Y-103986691D01*
X127635248Y-103415813D01*
X127417243Y-102888200D01*
X127013923Y-102484176D01*
X126486691Y-102265250D01*
X125915813Y-102264752D01*
X125465534Y-102450803D01*
X125464090Y-102448559D01*
X125251890Y-102303569D01*
X125000000Y-102252560D01*
X123400000Y-102252560D01*
X123164683Y-102296838D01*
X122948559Y-102435910D01*
X122803569Y-102648110D01*
X122752560Y-102900000D01*
X122752560Y-103018767D01*
X122537299Y-103162599D01*
X122372552Y-103409161D01*
X122314700Y-103700000D01*
X122314700Y-104322498D01*
X110907381Y-115729817D01*
X110877100Y-115717243D01*
X110321339Y-115716758D01*
X109807697Y-115928990D01*
X109414371Y-116321630D01*
X109400930Y-116354000D01*
X109255531Y-116354000D01*
X109243010Y-116323697D01*
X108850370Y-115930371D01*
X108337100Y-115717243D01*
X107781339Y-115716758D01*
X107267697Y-115928990D01*
X106874371Y-116321630D01*
X106661243Y-116834900D01*
X106660758Y-117390661D01*
X106695978Y-117475900D01*
X104414702Y-117475900D01*
X104362183Y-117423381D01*
X104374757Y-117393100D01*
X104375242Y-116837339D01*
X104163010Y-116323697D01*
X103770370Y-115930371D01*
X103257100Y-115717243D01*
X102701339Y-115716758D01*
X102187697Y-115928990D01*
X101794371Y-116321630D01*
X101780930Y-116354000D01*
X101635531Y-116354000D01*
X101623010Y-116323697D01*
X101230370Y-115930371D01*
X100717100Y-115717243D01*
X100161339Y-115716758D01*
X99647697Y-115928990D01*
X99254371Y-116321630D01*
X99229450Y-116381648D01*
X97160000Y-114312198D01*
X97160000Y-114138646D01*
X97211800Y-114117243D01*
X97615824Y-113713923D01*
X97834750Y-113186691D01*
X97835248Y-112615813D01*
X97617243Y-112088200D01*
X97315321Y-111785750D01*
X102865000Y-111785750D01*
X102865000Y-112426309D01*
X102961673Y-112659698D01*
X103140301Y-112838327D01*
X103373690Y-112935000D01*
X104014250Y-112935000D01*
X104173000Y-112776250D01*
X104173000Y-111627000D01*
X104427000Y-111627000D01*
X104427000Y-112776250D01*
X104585750Y-112935000D01*
X105226310Y-112935000D01*
X105459699Y-112838327D01*
X105638327Y-112659698D01*
X105735000Y-112426309D01*
X105735000Y-112398062D01*
X106102577Y-112731041D01*
X106490961Y-112891904D01*
X106713000Y-112769915D01*
X106713000Y-111627000D01*
X106967000Y-111627000D01*
X106967000Y-112769915D01*
X107189039Y-112891904D01*
X107577423Y-112731041D01*
X107992389Y-112355134D01*
X108110000Y-112106633D01*
X108227611Y-112355134D01*
X108642577Y-112731041D01*
X109030961Y-112891904D01*
X109253000Y-112769915D01*
X109253000Y-111627000D01*
X109507000Y-111627000D01*
X109507000Y-112769915D01*
X109729039Y-112891904D01*
X110117423Y-112731041D01*
X110532389Y-112355134D01*
X110650000Y-112106633D01*
X110767611Y-112355134D01*
X111182577Y-112731041D01*
X111570961Y-112891904D01*
X111793000Y-112769915D01*
X111793000Y-111627000D01*
X112047000Y-111627000D01*
X112047000Y-112769915D01*
X112269039Y-112891904D01*
X112657423Y-112731041D01*
X113072389Y-112355134D01*
X113311914Y-111849041D01*
X113190629Y-111627000D01*
X112047000Y-111627000D01*
X111793000Y-111627000D01*
X109507000Y-111627000D01*
X109253000Y-111627000D01*
X106967000Y-111627000D01*
X106713000Y-111627000D01*
X104427000Y-111627000D01*
X104173000Y-111627000D01*
X103023750Y-111627000D01*
X102865000Y-111785750D01*
X97315321Y-111785750D01*
X97213923Y-111684176D01*
X96686691Y-111465250D01*
X96115813Y-111464752D01*
X95588200Y-111682757D01*
X95184176Y-112086077D01*
X95161785Y-112140000D01*
X94889502Y-112140000D01*
X93323193Y-110573691D01*
X102865000Y-110573691D01*
X102865000Y-111214250D01*
X103023750Y-111373000D01*
X104173000Y-111373000D01*
X104173000Y-110223750D01*
X104427000Y-110223750D01*
X104427000Y-111373000D01*
X106713000Y-111373000D01*
X106713000Y-110230085D01*
X106967000Y-110230085D01*
X106967000Y-111373000D01*
X109253000Y-111373000D01*
X109253000Y-110230085D01*
X109507000Y-110230085D01*
X109507000Y-111373000D01*
X111793000Y-111373000D01*
X111793000Y-110230085D01*
X112047000Y-110230085D01*
X112047000Y-111373000D01*
X113190629Y-111373000D01*
X113311914Y-111150959D01*
X113072389Y-110644866D01*
X112657423Y-110268959D01*
X112269039Y-110108096D01*
X112047000Y-110230085D01*
X111793000Y-110230085D01*
X111570961Y-110108096D01*
X111182577Y-110268959D01*
X110767611Y-110644866D01*
X110650000Y-110893367D01*
X110532389Y-110644866D01*
X110117423Y-110268959D01*
X109729039Y-110108096D01*
X109507000Y-110230085D01*
X109253000Y-110230085D01*
X109030961Y-110108096D01*
X108642577Y-110268959D01*
X108227611Y-110644866D01*
X108110000Y-110893367D01*
X107992389Y-110644866D01*
X107577423Y-110268959D01*
X107189039Y-110108096D01*
X106967000Y-110230085D01*
X106713000Y-110230085D01*
X106490961Y-110108096D01*
X106102577Y-110268959D01*
X105735000Y-110601938D01*
X105735000Y-110573691D01*
X105638327Y-110340302D01*
X105459699Y-110161673D01*
X105226310Y-110065000D01*
X104585750Y-110065000D01*
X104427000Y-110223750D01*
X104173000Y-110223750D01*
X104014250Y-110065000D01*
X103373690Y-110065000D01*
X103140301Y-110161673D01*
X102961673Y-110340302D01*
X102865000Y-110573691D01*
X93323193Y-110573691D01*
X90728411Y-107978909D01*
X90751441Y-107964090D01*
X90896431Y-107751890D01*
X90947440Y-107500000D01*
X90947440Y-105900000D01*
X90903162Y-105664683D01*
X90764090Y-105448559D01*
X90551890Y-105303569D01*
X90300000Y-105252560D01*
X88700000Y-105252560D01*
X88464683Y-105296838D01*
X88248559Y-105435910D01*
X88103569Y-105648110D01*
X88055354Y-105886201D01*
X88007745Y-105871861D01*
X87179605Y-106700000D01*
X88007745Y-107528139D01*
X88055167Y-107513855D01*
X88096838Y-107735317D01*
X88235910Y-107951441D01*
X88273424Y-107977074D01*
X80562599Y-115687899D01*
X80397852Y-115934461D01*
X80340000Y-116225300D01*
X80340000Y-119726103D01*
X80217486Y-119776725D01*
X79849744Y-120143826D01*
X79484823Y-119778268D01*
X78911664Y-119540272D01*
X78291058Y-119539730D01*
X77717486Y-119776725D01*
X77278268Y-120215177D01*
X77040272Y-120788336D01*
X77039730Y-121408942D01*
X77276725Y-121982514D01*
X77715177Y-122421732D01*
X78288336Y-122659728D01*
X78908942Y-122660270D01*
X79033855Y-122608657D01*
X79815198Y-123390000D01*
X59010000Y-123390000D01*
X59010000Y-120900000D01*
X59408861Y-120900000D01*
X59583264Y-121776781D01*
X60079920Y-122520080D01*
X60823219Y-123016736D01*
X61700000Y-123191139D01*
X62576781Y-123016736D01*
X63320080Y-122520080D01*
X63816736Y-121776781D01*
X63889903Y-121408942D01*
X67839730Y-121408942D01*
X68076725Y-121982514D01*
X68515177Y-122421732D01*
X69088336Y-122659728D01*
X69708942Y-122660270D01*
X70282514Y-122423275D01*
X70400749Y-122305246D01*
X70510910Y-122476441D01*
X70723110Y-122621431D01*
X70975000Y-122672440D01*
X72825000Y-122672440D01*
X73060317Y-122628162D01*
X73276441Y-122489090D01*
X73421431Y-122276890D01*
X73472440Y-122025000D01*
X73472440Y-120175000D01*
X73428162Y-119939683D01*
X73289090Y-119723559D01*
X73076890Y-119578569D01*
X72825000Y-119527560D01*
X70975000Y-119527560D01*
X70739683Y-119571838D01*
X70523559Y-119710910D01*
X70399229Y-119892874D01*
X70284823Y-119778268D01*
X69711664Y-119540272D01*
X69091058Y-119539730D01*
X68517486Y-119776725D01*
X68078268Y-120215177D01*
X67840272Y-120788336D01*
X67839730Y-121408942D01*
X63889903Y-121408942D01*
X63991139Y-120900000D01*
X63816736Y-120023219D01*
X63320080Y-119279920D01*
X62576781Y-118783264D01*
X61700000Y-118608861D01*
X60823219Y-118783264D01*
X60079920Y-119279920D01*
X59583264Y-120023219D01*
X59408861Y-120900000D01*
X59010000Y-120900000D01*
X59010000Y-113806661D01*
X66252758Y-113806661D01*
X66464990Y-114320303D01*
X66857630Y-114713629D01*
X67370900Y-114926757D01*
X67926661Y-114927242D01*
X68440303Y-114715010D01*
X68833629Y-114322370D01*
X69046757Y-113809100D01*
X69046759Y-113806661D01*
X78952758Y-113806661D01*
X79164990Y-114320303D01*
X79557630Y-114713629D01*
X80070900Y-114926757D01*
X80626661Y-114927242D01*
X81140303Y-114715010D01*
X81533629Y-114322370D01*
X81746757Y-113809100D01*
X81747242Y-113253339D01*
X81535010Y-112739697D01*
X81142370Y-112346371D01*
X80629100Y-112133243D01*
X80073339Y-112132758D01*
X79559697Y-112344990D01*
X79166371Y-112737630D01*
X78953243Y-113250900D01*
X78952758Y-113806661D01*
X69046759Y-113806661D01*
X69047242Y-113253339D01*
X68835010Y-112739697D01*
X68442370Y-112346371D01*
X67929100Y-112133243D01*
X67373339Y-112132758D01*
X66859697Y-112344990D01*
X66466371Y-112737630D01*
X66253243Y-113250900D01*
X66252758Y-113806661D01*
X59010000Y-113806661D01*
X59010000Y-107707745D01*
X86171861Y-107707745D01*
X86245995Y-107953864D01*
X86783223Y-108146965D01*
X87353454Y-108119778D01*
X87754005Y-107953864D01*
X87828139Y-107707745D01*
X87000000Y-106879605D01*
X86171861Y-107707745D01*
X59010000Y-107707745D01*
X59010000Y-106483223D01*
X85553035Y-106483223D01*
X85580222Y-107053454D01*
X85746136Y-107454005D01*
X85992255Y-107528139D01*
X86820395Y-106700000D01*
X85992255Y-105871861D01*
X85746136Y-105945995D01*
X85553035Y-106483223D01*
X59010000Y-106483223D01*
X59010000Y-105692255D01*
X86171861Y-105692255D01*
X87000000Y-106520395D01*
X87828139Y-105692255D01*
X87754005Y-105446136D01*
X87216777Y-105253035D01*
X86646546Y-105280222D01*
X86245995Y-105446136D01*
X86171861Y-105692255D01*
X59010000Y-105692255D01*
X59010000Y-98885750D01*
X59940000Y-98885750D01*
X59940000Y-99651309D01*
X60036673Y-99884698D01*
X60215301Y-100063327D01*
X60448690Y-100160000D01*
X61214250Y-100160000D01*
X61373000Y-100001250D01*
X61373000Y-98727000D01*
X61627000Y-98727000D01*
X61627000Y-100001250D01*
X61785750Y-100160000D01*
X62551310Y-100160000D01*
X62784699Y-100063327D01*
X62963327Y-99884698D01*
X63060000Y-99651309D01*
X63060000Y-98885750D01*
X62901250Y-98727000D01*
X61627000Y-98727000D01*
X61373000Y-98727000D01*
X60098750Y-98727000D01*
X59940000Y-98885750D01*
X59010000Y-98885750D01*
X59010000Y-75612492D01*
X59100900Y-76069476D01*
X59593418Y-76806582D01*
X60330524Y-77299100D01*
X61200000Y-77472050D01*
X62069476Y-77299100D01*
X62806582Y-76806582D01*
X63299100Y-76069476D01*
X63472050Y-75200000D01*
X63299100Y-74330524D01*
X62806582Y-73593418D01*
X62069476Y-73100900D01*
X61200000Y-72927950D01*
X60330524Y-73100900D01*
X59593418Y-73593418D01*
X59100900Y-74330524D01*
X59010000Y-74787508D01*
X59010000Y-72810000D01*
X67742262Y-72810000D01*
X67660699Y-72864499D01*
G36*
X94037299Y-113437401D02*
X94283861Y-113602148D01*
X94574700Y-113660000D01*
X95161354Y-113660000D01*
X95182757Y-113711800D01*
X95586077Y-114115824D01*
X95640000Y-114138215D01*
X95640000Y-114627000D01*
X95697852Y-114917839D01*
X95862599Y-115164401D01*
X96467958Y-115769760D01*
X95942736Y-115874233D01*
X95477189Y-116185302D01*
X95166120Y-116650849D01*
X95056887Y-117200000D01*
X95166120Y-117749151D01*
X95477189Y-118214698D01*
X95777978Y-118415679D01*
X95817852Y-118616139D01*
X95840000Y-118649286D01*
X95840000Y-120461354D01*
X95788200Y-120482757D01*
X95384176Y-120886077D01*
X95165250Y-121413309D01*
X95164752Y-121984187D01*
X95187049Y-122038149D01*
X95113098Y-122112100D01*
X90345785Y-122112100D01*
X90371904Y-122049039D01*
X90249915Y-121827000D01*
X89107000Y-121827000D01*
X89107000Y-121847000D01*
X88853000Y-121847000D01*
X88853000Y-121827000D01*
X87710085Y-121827000D01*
X87588096Y-122049039D01*
X87614215Y-122112100D01*
X85160000Y-122112100D01*
X85160000Y-121385750D01*
X85125211Y-121350961D01*
X87588096Y-121350961D01*
X87710085Y-121573000D01*
X88853000Y-121573000D01*
X88853000Y-120429371D01*
X89107000Y-120429371D01*
X89107000Y-121573000D01*
X90249915Y-121573000D01*
X90371904Y-121350961D01*
X90211041Y-120962577D01*
X89835134Y-120547611D01*
X89329041Y-120308086D01*
X89107000Y-120429371D01*
X88853000Y-120429371D01*
X88630959Y-120308086D01*
X88124866Y-120547611D01*
X87748959Y-120962577D01*
X87588096Y-121350961D01*
X85125211Y-121350961D01*
X85001250Y-121227000D01*
X83727000Y-121227000D01*
X83727000Y-121247000D01*
X83473000Y-121247000D01*
X83473000Y-121227000D01*
X83453000Y-121227000D01*
X83453000Y-120973000D01*
X83473000Y-120973000D01*
X83473000Y-119698750D01*
X83727000Y-119698750D01*
X83727000Y-120973000D01*
X85001250Y-120973000D01*
X85160000Y-120814250D01*
X85160000Y-120048690D01*
X85063327Y-119815301D01*
X84884698Y-119636673D01*
X84651309Y-119540000D01*
X83885750Y-119540000D01*
X83727000Y-119698750D01*
X83473000Y-119698750D01*
X83314250Y-119540000D01*
X82548691Y-119540000D01*
X82315302Y-119636673D01*
X82136673Y-119815301D01*
X82102983Y-119896635D01*
X81984823Y-119778268D01*
X81860000Y-119726437D01*
X81860000Y-117484187D01*
X87464752Y-117484187D01*
X87682757Y-118011800D01*
X88086077Y-118415824D01*
X88613309Y-118634750D01*
X89184187Y-118635248D01*
X89711800Y-118417243D01*
X90115824Y-118013923D01*
X90334750Y-117486691D01*
X90335248Y-116915813D01*
X90117243Y-116388200D01*
X89713923Y-115984176D01*
X89186691Y-115765250D01*
X88615813Y-115764752D01*
X88088200Y-115982757D01*
X87684176Y-116386077D01*
X87465250Y-116913309D01*
X87464752Y-117484187D01*
X81860000Y-117484187D01*
X81860000Y-116540102D01*
X85500102Y-112900000D01*
X87316887Y-112900000D01*
X87426120Y-113449151D01*
X87737189Y-113914698D01*
X88202736Y-114225767D01*
X88751887Y-114335000D01*
X88808113Y-114335000D01*
X89357264Y-114225767D01*
X89822811Y-113914698D01*
X90133880Y-113449151D01*
X90243113Y-112900000D01*
X90133880Y-112350849D01*
X89822811Y-111885302D01*
X89357264Y-111574233D01*
X88808113Y-111465000D01*
X88751887Y-111465000D01*
X88202736Y-111574233D01*
X87737189Y-111885302D01*
X87426120Y-112350849D01*
X87316887Y-112900000D01*
X85500102Y-112900000D01*
X89500000Y-108900102D01*
X94037299Y-113437401D01*
X94037299Y-113437401D01*
G37*
X94037299Y-113437401D02*
X94283861Y-113602148D01*
X94574700Y-113660000D01*
X95161354Y-113660000D01*
X95182757Y-113711800D01*
X95586077Y-114115824D01*
X95640000Y-114138215D01*
X95640000Y-114627000D01*
X95697852Y-114917839D01*
X95862599Y-115164401D01*
X96467958Y-115769760D01*
X95942736Y-115874233D01*
X95477189Y-116185302D01*
X95166120Y-116650849D01*
X95056887Y-117200000D01*
X95166120Y-117749151D01*
X95477189Y-118214698D01*
X95777978Y-118415679D01*
X95817852Y-118616139D01*
X95840000Y-118649286D01*
X95840000Y-120461354D01*
X95788200Y-120482757D01*
X95384176Y-120886077D01*
X95165250Y-121413309D01*
X95164752Y-121984187D01*
X95187049Y-122038149D01*
X95113098Y-122112100D01*
X90345785Y-122112100D01*
X90371904Y-122049039D01*
X90249915Y-121827000D01*
X89107000Y-121827000D01*
X89107000Y-121847000D01*
X88853000Y-121847000D01*
X88853000Y-121827000D01*
X87710085Y-121827000D01*
X87588096Y-122049039D01*
X87614215Y-122112100D01*
X85160000Y-122112100D01*
X85160000Y-121385750D01*
X85125211Y-121350961D01*
X87588096Y-121350961D01*
X87710085Y-121573000D01*
X88853000Y-121573000D01*
X88853000Y-120429371D01*
X89107000Y-120429371D01*
X89107000Y-121573000D01*
X90249915Y-121573000D01*
X90371904Y-121350961D01*
X90211041Y-120962577D01*
X89835134Y-120547611D01*
X89329041Y-120308086D01*
X89107000Y-120429371D01*
X88853000Y-120429371D01*
X88630959Y-120308086D01*
X88124866Y-120547611D01*
X87748959Y-120962577D01*
X87588096Y-121350961D01*
X85125211Y-121350961D01*
X85001250Y-121227000D01*
X83727000Y-121227000D01*
X83727000Y-121247000D01*
X83473000Y-121247000D01*
X83473000Y-121227000D01*
X83453000Y-121227000D01*
X83453000Y-120973000D01*
X83473000Y-120973000D01*
X83473000Y-119698750D01*
X83727000Y-119698750D01*
X83727000Y-120973000D01*
X85001250Y-120973000D01*
X85160000Y-120814250D01*
X85160000Y-120048690D01*
X85063327Y-119815301D01*
X84884698Y-119636673D01*
X84651309Y-119540000D01*
X83885750Y-119540000D01*
X83727000Y-119698750D01*
X83473000Y-119698750D01*
X83314250Y-119540000D01*
X82548691Y-119540000D01*
X82315302Y-119636673D01*
X82136673Y-119815301D01*
X82102983Y-119896635D01*
X81984823Y-119778268D01*
X81860000Y-119726437D01*
X81860000Y-117484187D01*
X87464752Y-117484187D01*
X87682757Y-118011800D01*
X88086077Y-118415824D01*
X88613309Y-118634750D01*
X89184187Y-118635248D01*
X89711800Y-118417243D01*
X90115824Y-118013923D01*
X90334750Y-117486691D01*
X90335248Y-116915813D01*
X90117243Y-116388200D01*
X89713923Y-115984176D01*
X89186691Y-115765250D01*
X88615813Y-115764752D01*
X88088200Y-115982757D01*
X87684176Y-116386077D01*
X87465250Y-116913309D01*
X87464752Y-117484187D01*
X81860000Y-117484187D01*
X81860000Y-116540102D01*
X85500102Y-112900000D01*
X87316887Y-112900000D01*
X87426120Y-113449151D01*
X87737189Y-113914698D01*
X88202736Y-114225767D01*
X88751887Y-114335000D01*
X88808113Y-114335000D01*
X89357264Y-114225767D01*
X89822811Y-113914698D01*
X90133880Y-113449151D01*
X90243113Y-112900000D01*
X90133880Y-112350849D01*
X89822811Y-111885302D01*
X89357264Y-111574233D01*
X88808113Y-111465000D01*
X88751887Y-111465000D01*
X88202736Y-111574233D01*
X87737189Y-111885302D01*
X87426120Y-112350849D01*
X87316887Y-112900000D01*
X85500102Y-112900000D01*
X89500000Y-108900102D01*
X94037299Y-113437401D01*
G36*
X153827427Y-101142229D02*
X153783354Y-101208190D01*
X153657679Y-101840000D01*
X153783354Y-102471810D01*
X154141246Y-103007433D01*
X154676869Y-103365325D01*
X155308679Y-103491000D01*
X155891321Y-103491000D01*
X156523131Y-103365325D01*
X157058754Y-103007433D01*
X157416646Y-102471810D01*
X157463161Y-102237963D01*
X160700000Y-105474802D01*
X160700000Y-107388707D01*
X160397698Y-107280856D01*
X159842632Y-107308638D01*
X159458857Y-107467603D01*
X159389392Y-107709787D01*
X160190000Y-108510395D01*
X160204143Y-108496253D01*
X160383748Y-108675858D01*
X160369605Y-108690000D01*
X160383748Y-108704143D01*
X160204143Y-108883748D01*
X160190000Y-108869605D01*
X159389392Y-109670213D01*
X159458857Y-109912397D01*
X159982302Y-110099144D01*
X160537368Y-110071362D01*
X160700000Y-110003998D01*
X160700000Y-111649945D01*
X160554839Y-111552952D01*
X160264000Y-111495100D01*
X156674102Y-111495100D01*
X155266139Y-110087137D01*
X155386661Y-110087242D01*
X155900303Y-109875010D01*
X156293629Y-109482370D01*
X156379949Y-109274488D01*
X156464990Y-109480303D01*
X156857630Y-109873629D01*
X157370900Y-110086757D01*
X157926661Y-110087242D01*
X158440303Y-109875010D01*
X158833629Y-109482370D01*
X158913395Y-109290273D01*
X158967603Y-109421143D01*
X159209787Y-109490608D01*
X160010395Y-108690000D01*
X159209787Y-107889392D01*
X158967603Y-107958857D01*
X158917491Y-108099318D01*
X158835010Y-107899697D01*
X158442370Y-107506371D01*
X157929100Y-107293243D01*
X157373339Y-107292758D01*
X156859697Y-107504990D01*
X156466371Y-107897630D01*
X156380051Y-108105512D01*
X156295010Y-107899697D01*
X155902370Y-107506371D01*
X155389100Y-107293243D01*
X154833339Y-107292758D01*
X154319697Y-107504990D01*
X153926371Y-107897630D01*
X153713243Y-108410900D01*
X153713135Y-108534133D01*
X149445065Y-104266063D01*
X149714332Y-104154534D01*
X150209012Y-103692392D01*
X150489183Y-103076123D01*
X150371604Y-102807000D01*
X148927000Y-102807000D01*
X148927000Y-102827000D01*
X148673000Y-102827000D01*
X148673000Y-102807000D01*
X147228396Y-102807000D01*
X147110817Y-103076123D01*
X147366442Y-103638400D01*
X144067593Y-103638400D01*
X144189144Y-103297698D01*
X144161362Y-102742632D01*
X144002397Y-102358857D01*
X143760213Y-102289392D01*
X142959605Y-103090000D01*
X142973748Y-103104143D01*
X142794143Y-103283748D01*
X142780000Y-103269605D01*
X142765858Y-103283748D01*
X142586253Y-103104143D01*
X142600395Y-103090000D01*
X142586253Y-103075858D01*
X142765858Y-102896253D01*
X142780000Y-102910395D01*
X143406518Y-102283877D01*
X147110817Y-102283877D01*
X147228396Y-102553000D01*
X148673000Y-102553000D01*
X148673000Y-101108875D01*
X148927000Y-101108875D01*
X148927000Y-102553000D01*
X150371604Y-102553000D01*
X150489183Y-102283877D01*
X150209012Y-101667608D01*
X149714332Y-101205466D01*
X149196122Y-100990825D01*
X148927000Y-101108875D01*
X148673000Y-101108875D01*
X148403878Y-100990825D01*
X147885668Y-101205466D01*
X147390988Y-101667608D01*
X147110817Y-102283877D01*
X143406518Y-102283877D01*
X143580608Y-102109787D01*
X143511143Y-101867603D01*
X142987698Y-101680856D01*
X142432632Y-101708638D01*
X142048857Y-101867603D01*
X141979393Y-102109785D01*
X141864382Y-101994774D01*
X141839779Y-102019377D01*
X137955276Y-98134874D01*
X138384187Y-98135248D01*
X138911800Y-97917243D01*
X139315824Y-97513923D01*
X139534750Y-96986691D01*
X139535248Y-96415813D01*
X139317243Y-95888200D01*
X139185972Y-95756700D01*
X148441898Y-95756700D01*
X153827427Y-101142229D01*
X153827427Y-101142229D01*
G37*
X153827427Y-101142229D02*
X153783354Y-101208190D01*
X153657679Y-101840000D01*
X153783354Y-102471810D01*
X154141246Y-103007433D01*
X154676869Y-103365325D01*
X155308679Y-103491000D01*
X155891321Y-103491000D01*
X156523131Y-103365325D01*
X157058754Y-103007433D01*
X157416646Y-102471810D01*
X157463161Y-102237963D01*
X160700000Y-105474802D01*
X160700000Y-107388707D01*
X160397698Y-107280856D01*
X159842632Y-107308638D01*
X159458857Y-107467603D01*
X159389392Y-107709787D01*
X160190000Y-108510395D01*
X160204143Y-108496253D01*
X160383748Y-108675858D01*
X160369605Y-108690000D01*
X160383748Y-108704143D01*
X160204143Y-108883748D01*
X160190000Y-108869605D01*
X159389392Y-109670213D01*
X159458857Y-109912397D01*
X159982302Y-110099144D01*
X160537368Y-110071362D01*
X160700000Y-110003998D01*
X160700000Y-111649945D01*
X160554839Y-111552952D01*
X160264000Y-111495100D01*
X156674102Y-111495100D01*
X155266139Y-110087137D01*
X155386661Y-110087242D01*
X155900303Y-109875010D01*
X156293629Y-109482370D01*
X156379949Y-109274488D01*
X156464990Y-109480303D01*
X156857630Y-109873629D01*
X157370900Y-110086757D01*
X157926661Y-110087242D01*
X158440303Y-109875010D01*
X158833629Y-109482370D01*
X158913395Y-109290273D01*
X158967603Y-109421143D01*
X159209787Y-109490608D01*
X160010395Y-108690000D01*
X159209787Y-107889392D01*
X158967603Y-107958857D01*
X158917491Y-108099318D01*
X158835010Y-107899697D01*
X158442370Y-107506371D01*
X157929100Y-107293243D01*
X157373339Y-107292758D01*
X156859697Y-107504990D01*
X156466371Y-107897630D01*
X156380051Y-108105512D01*
X156295010Y-107899697D01*
X155902370Y-107506371D01*
X155389100Y-107293243D01*
X154833339Y-107292758D01*
X154319697Y-107504990D01*
X153926371Y-107897630D01*
X153713243Y-108410900D01*
X153713135Y-108534133D01*
X149445065Y-104266063D01*
X149714332Y-104154534D01*
X150209012Y-103692392D01*
X150489183Y-103076123D01*
X150371604Y-102807000D01*
X148927000Y-102807000D01*
X148927000Y-102827000D01*
X148673000Y-102827000D01*
X148673000Y-102807000D01*
X147228396Y-102807000D01*
X147110817Y-103076123D01*
X147366442Y-103638400D01*
X144067593Y-103638400D01*
X144189144Y-103297698D01*
X144161362Y-102742632D01*
X144002397Y-102358857D01*
X143760213Y-102289392D01*
X142959605Y-103090000D01*
X142973748Y-103104143D01*
X142794143Y-103283748D01*
X142780000Y-103269605D01*
X142765858Y-103283748D01*
X142586253Y-103104143D01*
X142600395Y-103090000D01*
X142586253Y-103075858D01*
X142765858Y-102896253D01*
X142780000Y-102910395D01*
X143406518Y-102283877D01*
X147110817Y-102283877D01*
X147228396Y-102553000D01*
X148673000Y-102553000D01*
X148673000Y-101108875D01*
X148927000Y-101108875D01*
X148927000Y-102553000D01*
X150371604Y-102553000D01*
X150489183Y-102283877D01*
X150209012Y-101667608D01*
X149714332Y-101205466D01*
X149196122Y-100990825D01*
X148927000Y-101108875D01*
X148673000Y-101108875D01*
X148403878Y-100990825D01*
X147885668Y-101205466D01*
X147390988Y-101667608D01*
X147110817Y-102283877D01*
X143406518Y-102283877D01*
X143580608Y-102109787D01*
X143511143Y-101867603D01*
X142987698Y-101680856D01*
X142432632Y-101708638D01*
X142048857Y-101867603D01*
X141979393Y-102109785D01*
X141864382Y-101994774D01*
X141839779Y-102019377D01*
X137955276Y-98134874D01*
X138384187Y-98135248D01*
X138911800Y-97917243D01*
X139315824Y-97513923D01*
X139534750Y-96986691D01*
X139535248Y-96415813D01*
X139317243Y-95888200D01*
X139185972Y-95756700D01*
X148441898Y-95756700D01*
X153827427Y-101142229D01*
G36*
X134001743Y-60710900D02*
X134001258Y-61266661D01*
X134213490Y-61780303D01*
X134606130Y-62173629D01*
X134814012Y-62259949D01*
X134608197Y-62344990D01*
X134214871Y-62737630D01*
X134001743Y-63250900D01*
X134001258Y-63806661D01*
X134213490Y-64320303D01*
X134606130Y-64713629D01*
X134814012Y-64799949D01*
X134608197Y-64884990D01*
X134214871Y-65277630D01*
X134001743Y-65790900D01*
X134001258Y-66346661D01*
X134213490Y-66860303D01*
X134606130Y-67253629D01*
X134814012Y-67339949D01*
X134608197Y-67424990D01*
X134214871Y-67817630D01*
X134001743Y-68330900D01*
X134001258Y-68886661D01*
X134213490Y-69400303D01*
X134606130Y-69793629D01*
X134814012Y-69879949D01*
X134608197Y-69964990D01*
X134214871Y-70357630D01*
X134001743Y-70870900D01*
X134001258Y-71426661D01*
X134213490Y-71940303D01*
X134606130Y-72333629D01*
X134814012Y-72419949D01*
X134608197Y-72504990D01*
X134214871Y-72897630D01*
X134001743Y-73410900D01*
X134001258Y-73966661D01*
X134213490Y-74480303D01*
X134606130Y-74873629D01*
X134798227Y-74953395D01*
X134667357Y-75007603D01*
X134597892Y-75249787D01*
X135398500Y-76050395D01*
X136199108Y-75249787D01*
X136129643Y-75007603D01*
X135989182Y-74957491D01*
X136188803Y-74875010D01*
X136582129Y-74482370D01*
X136795257Y-73969100D01*
X136795742Y-73413339D01*
X136583510Y-72899697D01*
X136190870Y-72506371D01*
X135982988Y-72420051D01*
X136188803Y-72335010D01*
X136582129Y-71942370D01*
X136795257Y-71429100D01*
X136795742Y-70873339D01*
X136583510Y-70359697D01*
X136190870Y-69966371D01*
X135982988Y-69880051D01*
X136188803Y-69795010D01*
X136582129Y-69402370D01*
X136795257Y-68889100D01*
X136795742Y-68333339D01*
X136583510Y-67819697D01*
X136190870Y-67426371D01*
X135982988Y-67340051D01*
X136188803Y-67255010D01*
X136582129Y-66862370D01*
X136795257Y-66349100D01*
X136795742Y-65793339D01*
X136583510Y-65279697D01*
X136190870Y-64886371D01*
X135982988Y-64800051D01*
X136188803Y-64715010D01*
X136582129Y-64322370D01*
X136795257Y-63809100D01*
X136795742Y-63253339D01*
X136583510Y-62739697D01*
X136190870Y-62346371D01*
X135982988Y-62260051D01*
X136188803Y-62175010D01*
X136582129Y-61782370D01*
X136795257Y-61269100D01*
X136795742Y-60713339D01*
X136770976Y-60653400D01*
X153228619Y-60653400D01*
X153204743Y-60710900D01*
X153204258Y-61266661D01*
X153416490Y-61780303D01*
X153809130Y-62173629D01*
X154017012Y-62259949D01*
X153811197Y-62344990D01*
X153417871Y-62737630D01*
X153204743Y-63250900D01*
X153204258Y-63806661D01*
X153416490Y-64320303D01*
X153809130Y-64713629D01*
X154017012Y-64799949D01*
X153811197Y-64884990D01*
X153417871Y-65277630D01*
X153204743Y-65790900D01*
X153204258Y-66346661D01*
X153416490Y-66860303D01*
X153809130Y-67253629D01*
X154017012Y-67339949D01*
X153811197Y-67424990D01*
X153417871Y-67817630D01*
X153204743Y-68330900D01*
X153204258Y-68886661D01*
X153416490Y-69400303D01*
X153809130Y-69793629D01*
X154017012Y-69879949D01*
X153811197Y-69964990D01*
X153417871Y-70357630D01*
X153204743Y-70870900D01*
X153204258Y-71426661D01*
X153416490Y-71940303D01*
X153809130Y-72333629D01*
X154017012Y-72419949D01*
X153811197Y-72504990D01*
X153417871Y-72897630D01*
X153204743Y-73410900D01*
X153204258Y-73966661D01*
X153416490Y-74480303D01*
X153809130Y-74873629D01*
X154001227Y-74953395D01*
X153870357Y-75007603D01*
X153800892Y-75249787D01*
X154601500Y-76050395D01*
X155402108Y-75249787D01*
X155332643Y-75007603D01*
X155192182Y-74957491D01*
X155391803Y-74875010D01*
X155785129Y-74482370D01*
X155998257Y-73969100D01*
X155998742Y-73413339D01*
X155786510Y-72899697D01*
X155393870Y-72506371D01*
X155185988Y-72420051D01*
X155391803Y-72335010D01*
X155785129Y-71942370D01*
X155998257Y-71429100D01*
X155998742Y-70873339D01*
X155786510Y-70359697D01*
X155393870Y-69966371D01*
X155185988Y-69880051D01*
X155391803Y-69795010D01*
X155785129Y-69402370D01*
X155998257Y-68889100D01*
X155998742Y-68333339D01*
X155978433Y-68284187D01*
X158564752Y-68284187D01*
X158782757Y-68811800D01*
X159186077Y-69215824D01*
X159713309Y-69434750D01*
X160284187Y-69435248D01*
X160811800Y-69217243D01*
X161215824Y-68813923D01*
X161434750Y-68286691D01*
X161435248Y-67715813D01*
X161217243Y-67188200D01*
X160813923Y-66784176D01*
X160286691Y-66565250D01*
X159715813Y-66564752D01*
X159188200Y-66782757D01*
X158784176Y-67186077D01*
X158565250Y-67713309D01*
X158564752Y-68284187D01*
X155978433Y-68284187D01*
X155786510Y-67819697D01*
X155393870Y-67426371D01*
X155185988Y-67340051D01*
X155391803Y-67255010D01*
X155785129Y-66862370D01*
X155998257Y-66349100D01*
X155998742Y-65793339D01*
X155786510Y-65279697D01*
X155393870Y-64886371D01*
X155185988Y-64800051D01*
X155391803Y-64715010D01*
X155785129Y-64322370D01*
X155998257Y-63809100D01*
X155998560Y-63461862D01*
X157344099Y-64807401D01*
X157590661Y-64972148D01*
X157881500Y-65030000D01*
X163098332Y-65030000D01*
X162996887Y-65540000D01*
X163106120Y-66089151D01*
X163417189Y-66554698D01*
X163799275Y-66810000D01*
X163417189Y-67065302D01*
X163106120Y-67530849D01*
X162996887Y-68080000D01*
X163106120Y-68629151D01*
X163349782Y-68993816D01*
X159462599Y-72880999D01*
X159297852Y-73127561D01*
X159240000Y-73418400D01*
X159240000Y-74407005D01*
X158985302Y-74577189D01*
X158674233Y-75042736D01*
X158565000Y-75591887D01*
X158565000Y-75648113D01*
X158674233Y-76197264D01*
X158985302Y-76662811D01*
X159100823Y-76740000D01*
X155902793Y-76740000D01*
X156010644Y-76437698D01*
X155982862Y-75882632D01*
X155823897Y-75498857D01*
X155581713Y-75429392D01*
X154781105Y-76230000D01*
X154795248Y-76244143D01*
X154615643Y-76423748D01*
X154601500Y-76409605D01*
X154587358Y-76423748D01*
X154407753Y-76244143D01*
X154421895Y-76230000D01*
X153621287Y-75429392D01*
X153379103Y-75498857D01*
X153192356Y-76022302D01*
X153220138Y-76577368D01*
X153287502Y-76740000D01*
X136699793Y-76740000D01*
X136807644Y-76437698D01*
X136779862Y-75882632D01*
X136620897Y-75498857D01*
X136378713Y-75429392D01*
X135578105Y-76230000D01*
X135592248Y-76244143D01*
X135412643Y-76423748D01*
X135398500Y-76409605D01*
X135384358Y-76423748D01*
X135204753Y-76244143D01*
X135218895Y-76230000D01*
X134418287Y-75429392D01*
X134176103Y-75498857D01*
X133989356Y-76022302D01*
X134017138Y-76577368D01*
X134084502Y-76740000D01*
X133940700Y-76740000D01*
X133649861Y-76797852D01*
X133403299Y-76962599D01*
X124235148Y-86130750D01*
X124235248Y-86015813D01*
X124017243Y-85488200D01*
X123613923Y-85084176D01*
X123086691Y-84865250D01*
X122515813Y-84864752D01*
X122461851Y-84887049D01*
X118947401Y-81372599D01*
X118700839Y-81207852D01*
X118410000Y-81150000D01*
X90107531Y-81150000D01*
X90095010Y-81119697D01*
X89702370Y-80726371D01*
X89494488Y-80640051D01*
X89700303Y-80555010D01*
X90093629Y-80162370D01*
X90306757Y-79649100D01*
X90307242Y-79093339D01*
X90095010Y-78579697D01*
X90018954Y-78503508D01*
X90068801Y-78470201D01*
X107885602Y-60653400D01*
X134025619Y-60653400D01*
X134001743Y-60710900D01*
X134001743Y-60710900D01*
G37*
X134001743Y-60710900D02*
X134001258Y-61266661D01*
X134213490Y-61780303D01*
X134606130Y-62173629D01*
X134814012Y-62259949D01*
X134608197Y-62344990D01*
X134214871Y-62737630D01*
X134001743Y-63250900D01*
X134001258Y-63806661D01*
X134213490Y-64320303D01*
X134606130Y-64713629D01*
X134814012Y-64799949D01*
X134608197Y-64884990D01*
X134214871Y-65277630D01*
X134001743Y-65790900D01*
X134001258Y-66346661D01*
X134213490Y-66860303D01*
X134606130Y-67253629D01*
X134814012Y-67339949D01*
X134608197Y-67424990D01*
X134214871Y-67817630D01*
X134001743Y-68330900D01*
X134001258Y-68886661D01*
X134213490Y-69400303D01*
X134606130Y-69793629D01*
X134814012Y-69879949D01*
X134608197Y-69964990D01*
X134214871Y-70357630D01*
X134001743Y-70870900D01*
X134001258Y-71426661D01*
X134213490Y-71940303D01*
X134606130Y-72333629D01*
X134814012Y-72419949D01*
X134608197Y-72504990D01*
X134214871Y-72897630D01*
X134001743Y-73410900D01*
X134001258Y-73966661D01*
X134213490Y-74480303D01*
X134606130Y-74873629D01*
X134798227Y-74953395D01*
X134667357Y-75007603D01*
X134597892Y-75249787D01*
X135398500Y-76050395D01*
X136199108Y-75249787D01*
X136129643Y-75007603D01*
X135989182Y-74957491D01*
X136188803Y-74875010D01*
X136582129Y-74482370D01*
X136795257Y-73969100D01*
X136795742Y-73413339D01*
X136583510Y-72899697D01*
X136190870Y-72506371D01*
X135982988Y-72420051D01*
X136188803Y-72335010D01*
X136582129Y-71942370D01*
X136795257Y-71429100D01*
X136795742Y-70873339D01*
X136583510Y-70359697D01*
X136190870Y-69966371D01*
X135982988Y-69880051D01*
X136188803Y-69795010D01*
X136582129Y-69402370D01*
X136795257Y-68889100D01*
X136795742Y-68333339D01*
X136583510Y-67819697D01*
X136190870Y-67426371D01*
X135982988Y-67340051D01*
X136188803Y-67255010D01*
X136582129Y-66862370D01*
X136795257Y-66349100D01*
X136795742Y-65793339D01*
X136583510Y-65279697D01*
X136190870Y-64886371D01*
X135982988Y-64800051D01*
X136188803Y-64715010D01*
X136582129Y-64322370D01*
X136795257Y-63809100D01*
X136795742Y-63253339D01*
X136583510Y-62739697D01*
X136190870Y-62346371D01*
X135982988Y-62260051D01*
X136188803Y-62175010D01*
X136582129Y-61782370D01*
X136795257Y-61269100D01*
X136795742Y-60713339D01*
X136770976Y-60653400D01*
X153228619Y-60653400D01*
X153204743Y-60710900D01*
X153204258Y-61266661D01*
X153416490Y-61780303D01*
X153809130Y-62173629D01*
X154017012Y-62259949D01*
X153811197Y-62344990D01*
X153417871Y-62737630D01*
X153204743Y-63250900D01*
X153204258Y-63806661D01*
X153416490Y-64320303D01*
X153809130Y-64713629D01*
X154017012Y-64799949D01*
X153811197Y-64884990D01*
X153417871Y-65277630D01*
X153204743Y-65790900D01*
X153204258Y-66346661D01*
X153416490Y-66860303D01*
X153809130Y-67253629D01*
X154017012Y-67339949D01*
X153811197Y-67424990D01*
X153417871Y-67817630D01*
X153204743Y-68330900D01*
X153204258Y-68886661D01*
X153416490Y-69400303D01*
X153809130Y-69793629D01*
X154017012Y-69879949D01*
X153811197Y-69964990D01*
X153417871Y-70357630D01*
X153204743Y-70870900D01*
X153204258Y-71426661D01*
X153416490Y-71940303D01*
X153809130Y-72333629D01*
X154017012Y-72419949D01*
X153811197Y-72504990D01*
X153417871Y-72897630D01*
X153204743Y-73410900D01*
X153204258Y-73966661D01*
X153416490Y-74480303D01*
X153809130Y-74873629D01*
X154001227Y-74953395D01*
X153870357Y-75007603D01*
X153800892Y-75249787D01*
X154601500Y-76050395D01*
X155402108Y-75249787D01*
X155332643Y-75007603D01*
X155192182Y-74957491D01*
X155391803Y-74875010D01*
X155785129Y-74482370D01*
X155998257Y-73969100D01*
X155998742Y-73413339D01*
X155786510Y-72899697D01*
X155393870Y-72506371D01*
X155185988Y-72420051D01*
X155391803Y-72335010D01*
X155785129Y-71942370D01*
X155998257Y-71429100D01*
X155998742Y-70873339D01*
X155786510Y-70359697D01*
X155393870Y-69966371D01*
X155185988Y-69880051D01*
X155391803Y-69795010D01*
X155785129Y-69402370D01*
X155998257Y-68889100D01*
X155998742Y-68333339D01*
X155978433Y-68284187D01*
X158564752Y-68284187D01*
X158782757Y-68811800D01*
X159186077Y-69215824D01*
X159713309Y-69434750D01*
X160284187Y-69435248D01*
X160811800Y-69217243D01*
X161215824Y-68813923D01*
X161434750Y-68286691D01*
X161435248Y-67715813D01*
X161217243Y-67188200D01*
X160813923Y-66784176D01*
X160286691Y-66565250D01*
X159715813Y-66564752D01*
X159188200Y-66782757D01*
X158784176Y-67186077D01*
X158565250Y-67713309D01*
X158564752Y-68284187D01*
X155978433Y-68284187D01*
X155786510Y-67819697D01*
X155393870Y-67426371D01*
X155185988Y-67340051D01*
X155391803Y-67255010D01*
X155785129Y-66862370D01*
X155998257Y-66349100D01*
X155998742Y-65793339D01*
X155786510Y-65279697D01*
X155393870Y-64886371D01*
X155185988Y-64800051D01*
X155391803Y-64715010D01*
X155785129Y-64322370D01*
X155998257Y-63809100D01*
X155998560Y-63461862D01*
X157344099Y-64807401D01*
X157590661Y-64972148D01*
X157881500Y-65030000D01*
X163098332Y-65030000D01*
X162996887Y-65540000D01*
X163106120Y-66089151D01*
X163417189Y-66554698D01*
X163799275Y-66810000D01*
X163417189Y-67065302D01*
X163106120Y-67530849D01*
X162996887Y-68080000D01*
X163106120Y-68629151D01*
X163349782Y-68993816D01*
X159462599Y-72880999D01*
X159297852Y-73127561D01*
X159240000Y-73418400D01*
X159240000Y-74407005D01*
X158985302Y-74577189D01*
X158674233Y-75042736D01*
X158565000Y-75591887D01*
X158565000Y-75648113D01*
X158674233Y-76197264D01*
X158985302Y-76662811D01*
X159100823Y-76740000D01*
X155902793Y-76740000D01*
X156010644Y-76437698D01*
X155982862Y-75882632D01*
X155823897Y-75498857D01*
X155581713Y-75429392D01*
X154781105Y-76230000D01*
X154795248Y-76244143D01*
X154615643Y-76423748D01*
X154601500Y-76409605D01*
X154587358Y-76423748D01*
X154407753Y-76244143D01*
X154421895Y-76230000D01*
X153621287Y-75429392D01*
X153379103Y-75498857D01*
X153192356Y-76022302D01*
X153220138Y-76577368D01*
X153287502Y-76740000D01*
X136699793Y-76740000D01*
X136807644Y-76437698D01*
X136779862Y-75882632D01*
X136620897Y-75498857D01*
X136378713Y-75429392D01*
X135578105Y-76230000D01*
X135592248Y-76244143D01*
X135412643Y-76423748D01*
X135398500Y-76409605D01*
X135384358Y-76423748D01*
X135204753Y-76244143D01*
X135218895Y-76230000D01*
X134418287Y-75429392D01*
X134176103Y-75498857D01*
X133989356Y-76022302D01*
X134017138Y-76577368D01*
X134084502Y-76740000D01*
X133940700Y-76740000D01*
X133649861Y-76797852D01*
X133403299Y-76962599D01*
X124235148Y-86130750D01*
X124235248Y-86015813D01*
X124017243Y-85488200D01*
X123613923Y-85084176D01*
X123086691Y-84865250D01*
X122515813Y-84864752D01*
X122461851Y-84887049D01*
X118947401Y-81372599D01*
X118700839Y-81207852D01*
X118410000Y-81150000D01*
X90107531Y-81150000D01*
X90095010Y-81119697D01*
X89702370Y-80726371D01*
X89494488Y-80640051D01*
X89700303Y-80555010D01*
X90093629Y-80162370D01*
X90306757Y-79649100D01*
X90307242Y-79093339D01*
X90095010Y-78579697D01*
X90018954Y-78503508D01*
X90068801Y-78470201D01*
X107885602Y-60653400D01*
X134025619Y-60653400D01*
X134001743Y-60710900D01*
M02*
