G04 #@! TF.FileFunction,Legend,Top*
%FSLAX46Y46*%
G04 Gerber Fmt 4.6, Leading zero omitted, Abs format (unit mm)*
G04 Created by KiCad (PCBNEW 4.0.5) date 06/25/17 19:58:10*
%MOMM*%
%LPD*%
G01*
G04 APERTURE LIST*
%ADD10C,0.150000*%
%ADD11C,0.100000*%
%ADD12C,0.120000*%
G04 APERTURE END LIST*
D10*
D11*
X60000000Y-140000000D02*
X60000000Y-40000000D01*
X220000000Y-140000000D02*
X60000000Y-140000000D01*
X220000000Y-40000000D02*
X220000000Y-140000000D01*
X60000000Y-40000000D02*
X220000000Y-40000000D01*
D12*
X137000000Y-117950000D02*
X137000000Y-122050000D01*
X137040000Y-117950000D02*
X137040000Y-122050000D01*
X137080000Y-117951000D02*
X137080000Y-122049000D01*
X137120000Y-117953000D02*
X137120000Y-122047000D01*
X137160000Y-117956000D02*
X137160000Y-122044000D01*
X137200000Y-117959000D02*
X137200000Y-122041000D01*
X137240000Y-117963000D02*
X137240000Y-119220000D01*
X137240000Y-120780000D02*
X137240000Y-122037000D01*
X137280000Y-117968000D02*
X137280000Y-119220000D01*
X137280000Y-120780000D02*
X137280000Y-122032000D01*
X137320000Y-117974000D02*
X137320000Y-119220000D01*
X137320000Y-120780000D02*
X137320000Y-122026000D01*
X137360000Y-117981000D02*
X137360000Y-119220000D01*
X137360000Y-120780000D02*
X137360000Y-122019000D01*
X137400000Y-117988000D02*
X137400000Y-119220000D01*
X137400000Y-120780000D02*
X137400000Y-122012000D01*
X137440000Y-117996000D02*
X137440000Y-119220000D01*
X137440000Y-120780000D02*
X137440000Y-122004000D01*
X137480000Y-118005000D02*
X137480000Y-119220000D01*
X137480000Y-120780000D02*
X137480000Y-121995000D01*
X137520000Y-118015000D02*
X137520000Y-119220000D01*
X137520000Y-120780000D02*
X137520000Y-121985000D01*
X137560000Y-118026000D02*
X137560000Y-119220000D01*
X137560000Y-120780000D02*
X137560000Y-121974000D01*
X137600000Y-118037000D02*
X137600000Y-119220000D01*
X137600000Y-120780000D02*
X137600000Y-121963000D01*
X137640000Y-118050000D02*
X137640000Y-119220000D01*
X137640000Y-120780000D02*
X137640000Y-121950000D01*
X137680000Y-118063000D02*
X137680000Y-119220000D01*
X137680000Y-120780000D02*
X137680000Y-121937000D01*
X137721000Y-118077000D02*
X137721000Y-119220000D01*
X137721000Y-120780000D02*
X137721000Y-121923000D01*
X137761000Y-118093000D02*
X137761000Y-119220000D01*
X137761000Y-120780000D02*
X137761000Y-121907000D01*
X137801000Y-118109000D02*
X137801000Y-119220000D01*
X137801000Y-120780000D02*
X137801000Y-121891000D01*
X137841000Y-118126000D02*
X137841000Y-119220000D01*
X137841000Y-120780000D02*
X137841000Y-121874000D01*
X137881000Y-118144000D02*
X137881000Y-119220000D01*
X137881000Y-120780000D02*
X137881000Y-121856000D01*
X137921000Y-118163000D02*
X137921000Y-119220000D01*
X137921000Y-120780000D02*
X137921000Y-121837000D01*
X137961000Y-118183000D02*
X137961000Y-119220000D01*
X137961000Y-120780000D02*
X137961000Y-121817000D01*
X138001000Y-118204000D02*
X138001000Y-119220000D01*
X138001000Y-120780000D02*
X138001000Y-121796000D01*
X138041000Y-118227000D02*
X138041000Y-119220000D01*
X138041000Y-120780000D02*
X138041000Y-121773000D01*
X138081000Y-118250000D02*
X138081000Y-119220000D01*
X138081000Y-120780000D02*
X138081000Y-121750000D01*
X138121000Y-118275000D02*
X138121000Y-119220000D01*
X138121000Y-120780000D02*
X138121000Y-121725000D01*
X138161000Y-118301000D02*
X138161000Y-119220000D01*
X138161000Y-120780000D02*
X138161000Y-121699000D01*
X138201000Y-118328000D02*
X138201000Y-119220000D01*
X138201000Y-120780000D02*
X138201000Y-121672000D01*
X138241000Y-118357000D02*
X138241000Y-119220000D01*
X138241000Y-120780000D02*
X138241000Y-121643000D01*
X138281000Y-118387000D02*
X138281000Y-119220000D01*
X138281000Y-120780000D02*
X138281000Y-121613000D01*
X138321000Y-118419000D02*
X138321000Y-119220000D01*
X138321000Y-120780000D02*
X138321000Y-121581000D01*
X138361000Y-118453000D02*
X138361000Y-119220000D01*
X138361000Y-120780000D02*
X138361000Y-121547000D01*
X138401000Y-118488000D02*
X138401000Y-119220000D01*
X138401000Y-120780000D02*
X138401000Y-121512000D01*
X138441000Y-118525000D02*
X138441000Y-119220000D01*
X138441000Y-120780000D02*
X138441000Y-121475000D01*
X138481000Y-118564000D02*
X138481000Y-119220000D01*
X138481000Y-120780000D02*
X138481000Y-121436000D01*
X138521000Y-118605000D02*
X138521000Y-119220000D01*
X138521000Y-120780000D02*
X138521000Y-121395000D01*
X138561000Y-118649000D02*
X138561000Y-119220000D01*
X138561000Y-120780000D02*
X138561000Y-121351000D01*
X138601000Y-118695000D02*
X138601000Y-119220000D01*
X138601000Y-120780000D02*
X138601000Y-121305000D01*
X138641000Y-118744000D02*
X138641000Y-119220000D01*
X138641000Y-120780000D02*
X138641000Y-121256000D01*
X138681000Y-118796000D02*
X138681000Y-119220000D01*
X138681000Y-120780000D02*
X138681000Y-121204000D01*
X138721000Y-118852000D02*
X138721000Y-119220000D01*
X138721000Y-120780000D02*
X138721000Y-121148000D01*
X138761000Y-118912000D02*
X138761000Y-119220000D01*
X138761000Y-120780000D02*
X138761000Y-121088000D01*
X138801000Y-118977000D02*
X138801000Y-121023000D01*
X138841000Y-119048000D02*
X138841000Y-120952000D01*
X138881000Y-119126000D02*
X138881000Y-120874000D01*
X138921000Y-119214000D02*
X138921000Y-120786000D01*
X138961000Y-119314000D02*
X138961000Y-120686000D01*
X139001000Y-119433000D02*
X139001000Y-120567000D01*
X139041000Y-119585000D02*
X139041000Y-120415000D01*
X139081000Y-119835000D02*
X139081000Y-120165000D01*
X134300000Y-120000000D02*
X135200000Y-120000000D01*
X134750000Y-119550000D02*
X134750000Y-120450000D01*
X138939361Y-119220911D02*
G75*
G03X135061005Y-119220000I-1939361J-779089D01*
G01*
X138939361Y-120779089D02*
G75*
G02X135061005Y-120780000I-1939361J779089D01*
G01*
X138939361Y-120779089D02*
G75*
G03X138938995Y-119220000I-1939361J779089D01*
G01*
X84250000Y-125300000D02*
X84250000Y-126500000D01*
X84900000Y-125900000D02*
X83600000Y-125900000D01*
X85230943Y-131680162D02*
G75*
G03X85230000Y-125819522I-980943J2930162D01*
G01*
X83269057Y-131680162D02*
G75*
G02X83270000Y-125819522I980943J2930162D01*
G01*
X83269057Y-131680162D02*
G75*
G03X85230000Y-131680478I980943J2930162D01*
G01*
X190800000Y-121000000D02*
X192000000Y-121000000D01*
X191400000Y-120350000D02*
X191400000Y-121650000D01*
X197180162Y-120019057D02*
G75*
G03X191319522Y-120020000I-2930162J-980943D01*
G01*
X197180162Y-121980943D02*
G75*
G02X191319522Y-121980000I-2930162J980943D01*
G01*
X197180162Y-121980943D02*
G75*
G03X197180478Y-120020000I-2930162J980943D01*
G01*
X123500000Y-127150000D02*
X122500000Y-127150000D01*
X122500000Y-128850000D02*
X123500000Y-128850000D01*
X152000000Y-126200000D02*
X152000000Y-125000000D01*
X151350000Y-125600000D02*
X152650000Y-125600000D01*
X156090000Y-122750000D02*
G75*
G03X156090000Y-122750000I-4090000J0D01*
G01*
X190500000Y-112150000D02*
X189500000Y-112150000D01*
X189500000Y-113850000D02*
X190500000Y-113850000D01*
X110000000Y-82800000D02*
X110000000Y-84000000D01*
X110650000Y-83400000D02*
X109350000Y-83400000D01*
X114090000Y-86250000D02*
G75*
G03X114090000Y-86250000I-4090000J0D01*
G01*
X154500000Y-104150000D02*
X153500000Y-104150000D01*
X153500000Y-105850000D02*
X154500000Y-105850000D01*
X116000000Y-133950000D02*
X116000000Y-138050000D01*
X116040000Y-133950000D02*
X116040000Y-138050000D01*
X116080000Y-133951000D02*
X116080000Y-138049000D01*
X116120000Y-133953000D02*
X116120000Y-138047000D01*
X116160000Y-133956000D02*
X116160000Y-138044000D01*
X116200000Y-133959000D02*
X116200000Y-138041000D01*
X116240000Y-133963000D02*
X116240000Y-135220000D01*
X116240000Y-136780000D02*
X116240000Y-138037000D01*
X116280000Y-133968000D02*
X116280000Y-135220000D01*
X116280000Y-136780000D02*
X116280000Y-138032000D01*
X116320000Y-133974000D02*
X116320000Y-135220000D01*
X116320000Y-136780000D02*
X116320000Y-138026000D01*
X116360000Y-133981000D02*
X116360000Y-135220000D01*
X116360000Y-136780000D02*
X116360000Y-138019000D01*
X116400000Y-133988000D02*
X116400000Y-135220000D01*
X116400000Y-136780000D02*
X116400000Y-138012000D01*
X116440000Y-133996000D02*
X116440000Y-135220000D01*
X116440000Y-136780000D02*
X116440000Y-138004000D01*
X116480000Y-134005000D02*
X116480000Y-135220000D01*
X116480000Y-136780000D02*
X116480000Y-137995000D01*
X116520000Y-134015000D02*
X116520000Y-135220000D01*
X116520000Y-136780000D02*
X116520000Y-137985000D01*
X116560000Y-134026000D02*
X116560000Y-135220000D01*
X116560000Y-136780000D02*
X116560000Y-137974000D01*
X116600000Y-134037000D02*
X116600000Y-135220000D01*
X116600000Y-136780000D02*
X116600000Y-137963000D01*
X116640000Y-134050000D02*
X116640000Y-135220000D01*
X116640000Y-136780000D02*
X116640000Y-137950000D01*
X116680000Y-134063000D02*
X116680000Y-135220000D01*
X116680000Y-136780000D02*
X116680000Y-137937000D01*
X116721000Y-134077000D02*
X116721000Y-135220000D01*
X116721000Y-136780000D02*
X116721000Y-137923000D01*
X116761000Y-134093000D02*
X116761000Y-135220000D01*
X116761000Y-136780000D02*
X116761000Y-137907000D01*
X116801000Y-134109000D02*
X116801000Y-135220000D01*
X116801000Y-136780000D02*
X116801000Y-137891000D01*
X116841000Y-134126000D02*
X116841000Y-135220000D01*
X116841000Y-136780000D02*
X116841000Y-137874000D01*
X116881000Y-134144000D02*
X116881000Y-135220000D01*
X116881000Y-136780000D02*
X116881000Y-137856000D01*
X116921000Y-134163000D02*
X116921000Y-135220000D01*
X116921000Y-136780000D02*
X116921000Y-137837000D01*
X116961000Y-134183000D02*
X116961000Y-135220000D01*
X116961000Y-136780000D02*
X116961000Y-137817000D01*
X117001000Y-134204000D02*
X117001000Y-135220000D01*
X117001000Y-136780000D02*
X117001000Y-137796000D01*
X117041000Y-134227000D02*
X117041000Y-135220000D01*
X117041000Y-136780000D02*
X117041000Y-137773000D01*
X117081000Y-134250000D02*
X117081000Y-135220000D01*
X117081000Y-136780000D02*
X117081000Y-137750000D01*
X117121000Y-134275000D02*
X117121000Y-135220000D01*
X117121000Y-136780000D02*
X117121000Y-137725000D01*
X117161000Y-134301000D02*
X117161000Y-135220000D01*
X117161000Y-136780000D02*
X117161000Y-137699000D01*
X117201000Y-134328000D02*
X117201000Y-135220000D01*
X117201000Y-136780000D02*
X117201000Y-137672000D01*
X117241000Y-134357000D02*
X117241000Y-135220000D01*
X117241000Y-136780000D02*
X117241000Y-137643000D01*
X117281000Y-134387000D02*
X117281000Y-135220000D01*
X117281000Y-136780000D02*
X117281000Y-137613000D01*
X117321000Y-134419000D02*
X117321000Y-135220000D01*
X117321000Y-136780000D02*
X117321000Y-137581000D01*
X117361000Y-134453000D02*
X117361000Y-135220000D01*
X117361000Y-136780000D02*
X117361000Y-137547000D01*
X117401000Y-134488000D02*
X117401000Y-135220000D01*
X117401000Y-136780000D02*
X117401000Y-137512000D01*
X117441000Y-134525000D02*
X117441000Y-135220000D01*
X117441000Y-136780000D02*
X117441000Y-137475000D01*
X117481000Y-134564000D02*
X117481000Y-135220000D01*
X117481000Y-136780000D02*
X117481000Y-137436000D01*
X117521000Y-134605000D02*
X117521000Y-135220000D01*
X117521000Y-136780000D02*
X117521000Y-137395000D01*
X117561000Y-134649000D02*
X117561000Y-135220000D01*
X117561000Y-136780000D02*
X117561000Y-137351000D01*
X117601000Y-134695000D02*
X117601000Y-135220000D01*
X117601000Y-136780000D02*
X117601000Y-137305000D01*
X117641000Y-134744000D02*
X117641000Y-135220000D01*
X117641000Y-136780000D02*
X117641000Y-137256000D01*
X117681000Y-134796000D02*
X117681000Y-135220000D01*
X117681000Y-136780000D02*
X117681000Y-137204000D01*
X117721000Y-134852000D02*
X117721000Y-135220000D01*
X117721000Y-136780000D02*
X117721000Y-137148000D01*
X117761000Y-134912000D02*
X117761000Y-135220000D01*
X117761000Y-136780000D02*
X117761000Y-137088000D01*
X117801000Y-134977000D02*
X117801000Y-137023000D01*
X117841000Y-135048000D02*
X117841000Y-136952000D01*
X117881000Y-135126000D02*
X117881000Y-136874000D01*
X117921000Y-135214000D02*
X117921000Y-136786000D01*
X117961000Y-135314000D02*
X117961000Y-136686000D01*
X118001000Y-135433000D02*
X118001000Y-136567000D01*
X118041000Y-135585000D02*
X118041000Y-136415000D01*
X118081000Y-135835000D02*
X118081000Y-136165000D01*
X113300000Y-136000000D02*
X114200000Y-136000000D01*
X113750000Y-135550000D02*
X113750000Y-136450000D01*
X117939361Y-135220911D02*
G75*
G03X114061005Y-135220000I-1939361J-779089D01*
G01*
X117939361Y-136779089D02*
G75*
G02X114061005Y-136780000I-1939361J779089D01*
G01*
X117939361Y-136779089D02*
G75*
G03X117938995Y-135220000I-1939361J779089D01*
G01*
X152500000Y-109150000D02*
X151500000Y-109150000D01*
X151500000Y-110850000D02*
X152500000Y-110850000D01*
X124000000Y-131950000D02*
X124000000Y-136050000D01*
X124040000Y-131950000D02*
X124040000Y-136050000D01*
X124080000Y-131951000D02*
X124080000Y-136049000D01*
X124120000Y-131953000D02*
X124120000Y-136047000D01*
X124160000Y-131956000D02*
X124160000Y-136044000D01*
X124200000Y-131959000D02*
X124200000Y-136041000D01*
X124240000Y-131963000D02*
X124240000Y-133220000D01*
X124240000Y-134780000D02*
X124240000Y-136037000D01*
X124280000Y-131968000D02*
X124280000Y-133220000D01*
X124280000Y-134780000D02*
X124280000Y-136032000D01*
X124320000Y-131974000D02*
X124320000Y-133220000D01*
X124320000Y-134780000D02*
X124320000Y-136026000D01*
X124360000Y-131981000D02*
X124360000Y-133220000D01*
X124360000Y-134780000D02*
X124360000Y-136019000D01*
X124400000Y-131988000D02*
X124400000Y-133220000D01*
X124400000Y-134780000D02*
X124400000Y-136012000D01*
X124440000Y-131996000D02*
X124440000Y-133220000D01*
X124440000Y-134780000D02*
X124440000Y-136004000D01*
X124480000Y-132005000D02*
X124480000Y-133220000D01*
X124480000Y-134780000D02*
X124480000Y-135995000D01*
X124520000Y-132015000D02*
X124520000Y-133220000D01*
X124520000Y-134780000D02*
X124520000Y-135985000D01*
X124560000Y-132026000D02*
X124560000Y-133220000D01*
X124560000Y-134780000D02*
X124560000Y-135974000D01*
X124600000Y-132037000D02*
X124600000Y-133220000D01*
X124600000Y-134780000D02*
X124600000Y-135963000D01*
X124640000Y-132050000D02*
X124640000Y-133220000D01*
X124640000Y-134780000D02*
X124640000Y-135950000D01*
X124680000Y-132063000D02*
X124680000Y-133220000D01*
X124680000Y-134780000D02*
X124680000Y-135937000D01*
X124721000Y-132077000D02*
X124721000Y-133220000D01*
X124721000Y-134780000D02*
X124721000Y-135923000D01*
X124761000Y-132093000D02*
X124761000Y-133220000D01*
X124761000Y-134780000D02*
X124761000Y-135907000D01*
X124801000Y-132109000D02*
X124801000Y-133220000D01*
X124801000Y-134780000D02*
X124801000Y-135891000D01*
X124841000Y-132126000D02*
X124841000Y-133220000D01*
X124841000Y-134780000D02*
X124841000Y-135874000D01*
X124881000Y-132144000D02*
X124881000Y-133220000D01*
X124881000Y-134780000D02*
X124881000Y-135856000D01*
X124921000Y-132163000D02*
X124921000Y-133220000D01*
X124921000Y-134780000D02*
X124921000Y-135837000D01*
X124961000Y-132183000D02*
X124961000Y-133220000D01*
X124961000Y-134780000D02*
X124961000Y-135817000D01*
X125001000Y-132204000D02*
X125001000Y-133220000D01*
X125001000Y-134780000D02*
X125001000Y-135796000D01*
X125041000Y-132227000D02*
X125041000Y-133220000D01*
X125041000Y-134780000D02*
X125041000Y-135773000D01*
X125081000Y-132250000D02*
X125081000Y-133220000D01*
X125081000Y-134780000D02*
X125081000Y-135750000D01*
X125121000Y-132275000D02*
X125121000Y-133220000D01*
X125121000Y-134780000D02*
X125121000Y-135725000D01*
X125161000Y-132301000D02*
X125161000Y-133220000D01*
X125161000Y-134780000D02*
X125161000Y-135699000D01*
X125201000Y-132328000D02*
X125201000Y-133220000D01*
X125201000Y-134780000D02*
X125201000Y-135672000D01*
X125241000Y-132357000D02*
X125241000Y-133220000D01*
X125241000Y-134780000D02*
X125241000Y-135643000D01*
X125281000Y-132387000D02*
X125281000Y-133220000D01*
X125281000Y-134780000D02*
X125281000Y-135613000D01*
X125321000Y-132419000D02*
X125321000Y-133220000D01*
X125321000Y-134780000D02*
X125321000Y-135581000D01*
X125361000Y-132453000D02*
X125361000Y-133220000D01*
X125361000Y-134780000D02*
X125361000Y-135547000D01*
X125401000Y-132488000D02*
X125401000Y-133220000D01*
X125401000Y-134780000D02*
X125401000Y-135512000D01*
X125441000Y-132525000D02*
X125441000Y-133220000D01*
X125441000Y-134780000D02*
X125441000Y-135475000D01*
X125481000Y-132564000D02*
X125481000Y-133220000D01*
X125481000Y-134780000D02*
X125481000Y-135436000D01*
X125521000Y-132605000D02*
X125521000Y-133220000D01*
X125521000Y-134780000D02*
X125521000Y-135395000D01*
X125561000Y-132649000D02*
X125561000Y-133220000D01*
X125561000Y-134780000D02*
X125561000Y-135351000D01*
X125601000Y-132695000D02*
X125601000Y-133220000D01*
X125601000Y-134780000D02*
X125601000Y-135305000D01*
X125641000Y-132744000D02*
X125641000Y-133220000D01*
X125641000Y-134780000D02*
X125641000Y-135256000D01*
X125681000Y-132796000D02*
X125681000Y-133220000D01*
X125681000Y-134780000D02*
X125681000Y-135204000D01*
X125721000Y-132852000D02*
X125721000Y-133220000D01*
X125721000Y-134780000D02*
X125721000Y-135148000D01*
X125761000Y-132912000D02*
X125761000Y-133220000D01*
X125761000Y-134780000D02*
X125761000Y-135088000D01*
X125801000Y-132977000D02*
X125801000Y-135023000D01*
X125841000Y-133048000D02*
X125841000Y-134952000D01*
X125881000Y-133126000D02*
X125881000Y-134874000D01*
X125921000Y-133214000D02*
X125921000Y-134786000D01*
X125961000Y-133314000D02*
X125961000Y-134686000D01*
X126001000Y-133433000D02*
X126001000Y-134567000D01*
X126041000Y-133585000D02*
X126041000Y-134415000D01*
X126081000Y-133835000D02*
X126081000Y-134165000D01*
X121300000Y-134000000D02*
X122200000Y-134000000D01*
X121750000Y-133550000D02*
X121750000Y-134450000D01*
X125939361Y-133220911D02*
G75*
G03X122061005Y-133220000I-1939361J-779089D01*
G01*
X125939361Y-134779089D02*
G75*
G02X122061005Y-134780000I-1939361J779089D01*
G01*
X125939361Y-134779089D02*
G75*
G03X125938995Y-133220000I-1939361J779089D01*
G01*
X196200000Y-58000000D02*
X195000000Y-58000000D01*
X195600000Y-58650000D02*
X195600000Y-57350000D01*
X189819838Y-58980943D02*
G75*
G03X195680478Y-58980000I2930162J980943D01*
G01*
X189819838Y-57019057D02*
G75*
G02X195680478Y-57020000I2930162J-980943D01*
G01*
X189819838Y-57019057D02*
G75*
G03X189819522Y-58980000I2930162J-980943D01*
G01*
X134800000Y-110000000D02*
X136000000Y-110000000D01*
X135400000Y-109350000D02*
X135400000Y-110650000D01*
X141180162Y-109019057D02*
G75*
G03X135319522Y-109020000I-2930162J-980943D01*
G01*
X141180162Y-110980943D02*
G75*
G02X135319522Y-110980000I-2930162J980943D01*
G01*
X141180162Y-110980943D02*
G75*
G03X141180478Y-109020000I-2930162J980943D01*
G01*
X149000000Y-55800000D02*
X149000000Y-57000000D01*
X149650000Y-56400000D02*
X148350000Y-56400000D01*
X149980943Y-62180162D02*
G75*
G03X149980000Y-56319522I-980943J2930162D01*
G01*
X148019057Y-62180162D02*
G75*
G02X148020000Y-56319522I980943J2930162D01*
G01*
X148019057Y-62180162D02*
G75*
G03X149980000Y-62180478I980943J2930162D01*
G01*
X203950000Y-115000000D02*
X208050000Y-115000000D01*
X203950000Y-114960000D02*
X208050000Y-114960000D01*
X203951000Y-114920000D02*
X208049000Y-114920000D01*
X203953000Y-114880000D02*
X208047000Y-114880000D01*
X203956000Y-114840000D02*
X208044000Y-114840000D01*
X203959000Y-114800000D02*
X208041000Y-114800000D01*
X203963000Y-114760000D02*
X205220000Y-114760000D01*
X206780000Y-114760000D02*
X208037000Y-114760000D01*
X203968000Y-114720000D02*
X205220000Y-114720000D01*
X206780000Y-114720000D02*
X208032000Y-114720000D01*
X203974000Y-114680000D02*
X205220000Y-114680000D01*
X206780000Y-114680000D02*
X208026000Y-114680000D01*
X203981000Y-114640000D02*
X205220000Y-114640000D01*
X206780000Y-114640000D02*
X208019000Y-114640000D01*
X203988000Y-114600000D02*
X205220000Y-114600000D01*
X206780000Y-114600000D02*
X208012000Y-114600000D01*
X203996000Y-114560000D02*
X205220000Y-114560000D01*
X206780000Y-114560000D02*
X208004000Y-114560000D01*
X204005000Y-114520000D02*
X205220000Y-114520000D01*
X206780000Y-114520000D02*
X207995000Y-114520000D01*
X204015000Y-114480000D02*
X205220000Y-114480000D01*
X206780000Y-114480000D02*
X207985000Y-114480000D01*
X204026000Y-114440000D02*
X205220000Y-114440000D01*
X206780000Y-114440000D02*
X207974000Y-114440000D01*
X204037000Y-114400000D02*
X205220000Y-114400000D01*
X206780000Y-114400000D02*
X207963000Y-114400000D01*
X204050000Y-114360000D02*
X205220000Y-114360000D01*
X206780000Y-114360000D02*
X207950000Y-114360000D01*
X204063000Y-114320000D02*
X205220000Y-114320000D01*
X206780000Y-114320000D02*
X207937000Y-114320000D01*
X204077000Y-114279000D02*
X205220000Y-114279000D01*
X206780000Y-114279000D02*
X207923000Y-114279000D01*
X204093000Y-114239000D02*
X205220000Y-114239000D01*
X206780000Y-114239000D02*
X207907000Y-114239000D01*
X204109000Y-114199000D02*
X205220000Y-114199000D01*
X206780000Y-114199000D02*
X207891000Y-114199000D01*
X204126000Y-114159000D02*
X205220000Y-114159000D01*
X206780000Y-114159000D02*
X207874000Y-114159000D01*
X204144000Y-114119000D02*
X205220000Y-114119000D01*
X206780000Y-114119000D02*
X207856000Y-114119000D01*
X204163000Y-114079000D02*
X205220000Y-114079000D01*
X206780000Y-114079000D02*
X207837000Y-114079000D01*
X204183000Y-114039000D02*
X205220000Y-114039000D01*
X206780000Y-114039000D02*
X207817000Y-114039000D01*
X204204000Y-113999000D02*
X205220000Y-113999000D01*
X206780000Y-113999000D02*
X207796000Y-113999000D01*
X204227000Y-113959000D02*
X205220000Y-113959000D01*
X206780000Y-113959000D02*
X207773000Y-113959000D01*
X204250000Y-113919000D02*
X205220000Y-113919000D01*
X206780000Y-113919000D02*
X207750000Y-113919000D01*
X204275000Y-113879000D02*
X205220000Y-113879000D01*
X206780000Y-113879000D02*
X207725000Y-113879000D01*
X204301000Y-113839000D02*
X205220000Y-113839000D01*
X206780000Y-113839000D02*
X207699000Y-113839000D01*
X204328000Y-113799000D02*
X205220000Y-113799000D01*
X206780000Y-113799000D02*
X207672000Y-113799000D01*
X204357000Y-113759000D02*
X205220000Y-113759000D01*
X206780000Y-113759000D02*
X207643000Y-113759000D01*
X204387000Y-113719000D02*
X205220000Y-113719000D01*
X206780000Y-113719000D02*
X207613000Y-113719000D01*
X204419000Y-113679000D02*
X205220000Y-113679000D01*
X206780000Y-113679000D02*
X207581000Y-113679000D01*
X204453000Y-113639000D02*
X205220000Y-113639000D01*
X206780000Y-113639000D02*
X207547000Y-113639000D01*
X204488000Y-113599000D02*
X205220000Y-113599000D01*
X206780000Y-113599000D02*
X207512000Y-113599000D01*
X204525000Y-113559000D02*
X205220000Y-113559000D01*
X206780000Y-113559000D02*
X207475000Y-113559000D01*
X204564000Y-113519000D02*
X205220000Y-113519000D01*
X206780000Y-113519000D02*
X207436000Y-113519000D01*
X204605000Y-113479000D02*
X205220000Y-113479000D01*
X206780000Y-113479000D02*
X207395000Y-113479000D01*
X204649000Y-113439000D02*
X205220000Y-113439000D01*
X206780000Y-113439000D02*
X207351000Y-113439000D01*
X204695000Y-113399000D02*
X205220000Y-113399000D01*
X206780000Y-113399000D02*
X207305000Y-113399000D01*
X204744000Y-113359000D02*
X205220000Y-113359000D01*
X206780000Y-113359000D02*
X207256000Y-113359000D01*
X204796000Y-113319000D02*
X205220000Y-113319000D01*
X206780000Y-113319000D02*
X207204000Y-113319000D01*
X204852000Y-113279000D02*
X205220000Y-113279000D01*
X206780000Y-113279000D02*
X207148000Y-113279000D01*
X204912000Y-113239000D02*
X205220000Y-113239000D01*
X206780000Y-113239000D02*
X207088000Y-113239000D01*
X204977000Y-113199000D02*
X207023000Y-113199000D01*
X205048000Y-113159000D02*
X206952000Y-113159000D01*
X205126000Y-113119000D02*
X206874000Y-113119000D01*
X205214000Y-113079000D02*
X206786000Y-113079000D01*
X205314000Y-113039000D02*
X206686000Y-113039000D01*
X205433000Y-112999000D02*
X206567000Y-112999000D01*
X205585000Y-112959000D02*
X206415000Y-112959000D01*
X205835000Y-112919000D02*
X206165000Y-112919000D01*
X206000000Y-117700000D02*
X206000000Y-116800000D01*
X205550000Y-117250000D02*
X206450000Y-117250000D01*
X205220911Y-113060639D02*
G75*
G03X205220000Y-116938995I779089J-1939361D01*
G01*
X206779089Y-113060639D02*
G75*
G02X206780000Y-116938995I-779089J-1939361D01*
G01*
X206779089Y-113060639D02*
G75*
G03X205220000Y-113061005I-779089J-1939361D01*
G01*
X178950000Y-101000000D02*
X183050000Y-101000000D01*
X178950000Y-100960000D02*
X183050000Y-100960000D01*
X178951000Y-100920000D02*
X183049000Y-100920000D01*
X178953000Y-100880000D02*
X183047000Y-100880000D01*
X178956000Y-100840000D02*
X183044000Y-100840000D01*
X178959000Y-100800000D02*
X183041000Y-100800000D01*
X178963000Y-100760000D02*
X180220000Y-100760000D01*
X181780000Y-100760000D02*
X183037000Y-100760000D01*
X178968000Y-100720000D02*
X180220000Y-100720000D01*
X181780000Y-100720000D02*
X183032000Y-100720000D01*
X178974000Y-100680000D02*
X180220000Y-100680000D01*
X181780000Y-100680000D02*
X183026000Y-100680000D01*
X178981000Y-100640000D02*
X180220000Y-100640000D01*
X181780000Y-100640000D02*
X183019000Y-100640000D01*
X178988000Y-100600000D02*
X180220000Y-100600000D01*
X181780000Y-100600000D02*
X183012000Y-100600000D01*
X178996000Y-100560000D02*
X180220000Y-100560000D01*
X181780000Y-100560000D02*
X183004000Y-100560000D01*
X179005000Y-100520000D02*
X180220000Y-100520000D01*
X181780000Y-100520000D02*
X182995000Y-100520000D01*
X179015000Y-100480000D02*
X180220000Y-100480000D01*
X181780000Y-100480000D02*
X182985000Y-100480000D01*
X179026000Y-100440000D02*
X180220000Y-100440000D01*
X181780000Y-100440000D02*
X182974000Y-100440000D01*
X179037000Y-100400000D02*
X180220000Y-100400000D01*
X181780000Y-100400000D02*
X182963000Y-100400000D01*
X179050000Y-100360000D02*
X180220000Y-100360000D01*
X181780000Y-100360000D02*
X182950000Y-100360000D01*
X179063000Y-100320000D02*
X180220000Y-100320000D01*
X181780000Y-100320000D02*
X182937000Y-100320000D01*
X179077000Y-100279000D02*
X180220000Y-100279000D01*
X181780000Y-100279000D02*
X182923000Y-100279000D01*
X179093000Y-100239000D02*
X180220000Y-100239000D01*
X181780000Y-100239000D02*
X182907000Y-100239000D01*
X179109000Y-100199000D02*
X180220000Y-100199000D01*
X181780000Y-100199000D02*
X182891000Y-100199000D01*
X179126000Y-100159000D02*
X180220000Y-100159000D01*
X181780000Y-100159000D02*
X182874000Y-100159000D01*
X179144000Y-100119000D02*
X180220000Y-100119000D01*
X181780000Y-100119000D02*
X182856000Y-100119000D01*
X179163000Y-100079000D02*
X180220000Y-100079000D01*
X181780000Y-100079000D02*
X182837000Y-100079000D01*
X179183000Y-100039000D02*
X180220000Y-100039000D01*
X181780000Y-100039000D02*
X182817000Y-100039000D01*
X179204000Y-99999000D02*
X180220000Y-99999000D01*
X181780000Y-99999000D02*
X182796000Y-99999000D01*
X179227000Y-99959000D02*
X180220000Y-99959000D01*
X181780000Y-99959000D02*
X182773000Y-99959000D01*
X179250000Y-99919000D02*
X180220000Y-99919000D01*
X181780000Y-99919000D02*
X182750000Y-99919000D01*
X179275000Y-99879000D02*
X180220000Y-99879000D01*
X181780000Y-99879000D02*
X182725000Y-99879000D01*
X179301000Y-99839000D02*
X180220000Y-99839000D01*
X181780000Y-99839000D02*
X182699000Y-99839000D01*
X179328000Y-99799000D02*
X180220000Y-99799000D01*
X181780000Y-99799000D02*
X182672000Y-99799000D01*
X179357000Y-99759000D02*
X180220000Y-99759000D01*
X181780000Y-99759000D02*
X182643000Y-99759000D01*
X179387000Y-99719000D02*
X180220000Y-99719000D01*
X181780000Y-99719000D02*
X182613000Y-99719000D01*
X179419000Y-99679000D02*
X180220000Y-99679000D01*
X181780000Y-99679000D02*
X182581000Y-99679000D01*
X179453000Y-99639000D02*
X180220000Y-99639000D01*
X181780000Y-99639000D02*
X182547000Y-99639000D01*
X179488000Y-99599000D02*
X180220000Y-99599000D01*
X181780000Y-99599000D02*
X182512000Y-99599000D01*
X179525000Y-99559000D02*
X180220000Y-99559000D01*
X181780000Y-99559000D02*
X182475000Y-99559000D01*
X179564000Y-99519000D02*
X180220000Y-99519000D01*
X181780000Y-99519000D02*
X182436000Y-99519000D01*
X179605000Y-99479000D02*
X180220000Y-99479000D01*
X181780000Y-99479000D02*
X182395000Y-99479000D01*
X179649000Y-99439000D02*
X180220000Y-99439000D01*
X181780000Y-99439000D02*
X182351000Y-99439000D01*
X179695000Y-99399000D02*
X180220000Y-99399000D01*
X181780000Y-99399000D02*
X182305000Y-99399000D01*
X179744000Y-99359000D02*
X180220000Y-99359000D01*
X181780000Y-99359000D02*
X182256000Y-99359000D01*
X179796000Y-99319000D02*
X180220000Y-99319000D01*
X181780000Y-99319000D02*
X182204000Y-99319000D01*
X179852000Y-99279000D02*
X180220000Y-99279000D01*
X181780000Y-99279000D02*
X182148000Y-99279000D01*
X179912000Y-99239000D02*
X180220000Y-99239000D01*
X181780000Y-99239000D02*
X182088000Y-99239000D01*
X179977000Y-99199000D02*
X182023000Y-99199000D01*
X180048000Y-99159000D02*
X181952000Y-99159000D01*
X180126000Y-99119000D02*
X181874000Y-99119000D01*
X180214000Y-99079000D02*
X181786000Y-99079000D01*
X180314000Y-99039000D02*
X181686000Y-99039000D01*
X180433000Y-98999000D02*
X181567000Y-98999000D01*
X180585000Y-98959000D02*
X181415000Y-98959000D01*
X180835000Y-98919000D02*
X181165000Y-98919000D01*
X181000000Y-103700000D02*
X181000000Y-102800000D01*
X180550000Y-103250000D02*
X181450000Y-103250000D01*
X180220911Y-99060639D02*
G75*
G03X180220000Y-102938995I779089J-1939361D01*
G01*
X181779089Y-99060639D02*
G75*
G02X181780000Y-102938995I-779089J-1939361D01*
G01*
X181779089Y-99060639D02*
G75*
G03X180220000Y-99061005I-779089J-1939361D01*
G01*
X205950000Y-123000000D02*
X210050000Y-123000000D01*
X205950000Y-122960000D02*
X210050000Y-122960000D01*
X205951000Y-122920000D02*
X210049000Y-122920000D01*
X205953000Y-122880000D02*
X210047000Y-122880000D01*
X205956000Y-122840000D02*
X210044000Y-122840000D01*
X205959000Y-122800000D02*
X210041000Y-122800000D01*
X205963000Y-122760000D02*
X207220000Y-122760000D01*
X208780000Y-122760000D02*
X210037000Y-122760000D01*
X205968000Y-122720000D02*
X207220000Y-122720000D01*
X208780000Y-122720000D02*
X210032000Y-122720000D01*
X205974000Y-122680000D02*
X207220000Y-122680000D01*
X208780000Y-122680000D02*
X210026000Y-122680000D01*
X205981000Y-122640000D02*
X207220000Y-122640000D01*
X208780000Y-122640000D02*
X210019000Y-122640000D01*
X205988000Y-122600000D02*
X207220000Y-122600000D01*
X208780000Y-122600000D02*
X210012000Y-122600000D01*
X205996000Y-122560000D02*
X207220000Y-122560000D01*
X208780000Y-122560000D02*
X210004000Y-122560000D01*
X206005000Y-122520000D02*
X207220000Y-122520000D01*
X208780000Y-122520000D02*
X209995000Y-122520000D01*
X206015000Y-122480000D02*
X207220000Y-122480000D01*
X208780000Y-122480000D02*
X209985000Y-122480000D01*
X206026000Y-122440000D02*
X207220000Y-122440000D01*
X208780000Y-122440000D02*
X209974000Y-122440000D01*
X206037000Y-122400000D02*
X207220000Y-122400000D01*
X208780000Y-122400000D02*
X209963000Y-122400000D01*
X206050000Y-122360000D02*
X207220000Y-122360000D01*
X208780000Y-122360000D02*
X209950000Y-122360000D01*
X206063000Y-122320000D02*
X207220000Y-122320000D01*
X208780000Y-122320000D02*
X209937000Y-122320000D01*
X206077000Y-122279000D02*
X207220000Y-122279000D01*
X208780000Y-122279000D02*
X209923000Y-122279000D01*
X206093000Y-122239000D02*
X207220000Y-122239000D01*
X208780000Y-122239000D02*
X209907000Y-122239000D01*
X206109000Y-122199000D02*
X207220000Y-122199000D01*
X208780000Y-122199000D02*
X209891000Y-122199000D01*
X206126000Y-122159000D02*
X207220000Y-122159000D01*
X208780000Y-122159000D02*
X209874000Y-122159000D01*
X206144000Y-122119000D02*
X207220000Y-122119000D01*
X208780000Y-122119000D02*
X209856000Y-122119000D01*
X206163000Y-122079000D02*
X207220000Y-122079000D01*
X208780000Y-122079000D02*
X209837000Y-122079000D01*
X206183000Y-122039000D02*
X207220000Y-122039000D01*
X208780000Y-122039000D02*
X209817000Y-122039000D01*
X206204000Y-121999000D02*
X207220000Y-121999000D01*
X208780000Y-121999000D02*
X209796000Y-121999000D01*
X206227000Y-121959000D02*
X207220000Y-121959000D01*
X208780000Y-121959000D02*
X209773000Y-121959000D01*
X206250000Y-121919000D02*
X207220000Y-121919000D01*
X208780000Y-121919000D02*
X209750000Y-121919000D01*
X206275000Y-121879000D02*
X207220000Y-121879000D01*
X208780000Y-121879000D02*
X209725000Y-121879000D01*
X206301000Y-121839000D02*
X207220000Y-121839000D01*
X208780000Y-121839000D02*
X209699000Y-121839000D01*
X206328000Y-121799000D02*
X207220000Y-121799000D01*
X208780000Y-121799000D02*
X209672000Y-121799000D01*
X206357000Y-121759000D02*
X207220000Y-121759000D01*
X208780000Y-121759000D02*
X209643000Y-121759000D01*
X206387000Y-121719000D02*
X207220000Y-121719000D01*
X208780000Y-121719000D02*
X209613000Y-121719000D01*
X206419000Y-121679000D02*
X207220000Y-121679000D01*
X208780000Y-121679000D02*
X209581000Y-121679000D01*
X206453000Y-121639000D02*
X207220000Y-121639000D01*
X208780000Y-121639000D02*
X209547000Y-121639000D01*
X206488000Y-121599000D02*
X207220000Y-121599000D01*
X208780000Y-121599000D02*
X209512000Y-121599000D01*
X206525000Y-121559000D02*
X207220000Y-121559000D01*
X208780000Y-121559000D02*
X209475000Y-121559000D01*
X206564000Y-121519000D02*
X207220000Y-121519000D01*
X208780000Y-121519000D02*
X209436000Y-121519000D01*
X206605000Y-121479000D02*
X207220000Y-121479000D01*
X208780000Y-121479000D02*
X209395000Y-121479000D01*
X206649000Y-121439000D02*
X207220000Y-121439000D01*
X208780000Y-121439000D02*
X209351000Y-121439000D01*
X206695000Y-121399000D02*
X207220000Y-121399000D01*
X208780000Y-121399000D02*
X209305000Y-121399000D01*
X206744000Y-121359000D02*
X207220000Y-121359000D01*
X208780000Y-121359000D02*
X209256000Y-121359000D01*
X206796000Y-121319000D02*
X207220000Y-121319000D01*
X208780000Y-121319000D02*
X209204000Y-121319000D01*
X206852000Y-121279000D02*
X207220000Y-121279000D01*
X208780000Y-121279000D02*
X209148000Y-121279000D01*
X206912000Y-121239000D02*
X207220000Y-121239000D01*
X208780000Y-121239000D02*
X209088000Y-121239000D01*
X206977000Y-121199000D02*
X209023000Y-121199000D01*
X207048000Y-121159000D02*
X208952000Y-121159000D01*
X207126000Y-121119000D02*
X208874000Y-121119000D01*
X207214000Y-121079000D02*
X208786000Y-121079000D01*
X207314000Y-121039000D02*
X208686000Y-121039000D01*
X207433000Y-120999000D02*
X208567000Y-120999000D01*
X207585000Y-120959000D02*
X208415000Y-120959000D01*
X207835000Y-120919000D02*
X208165000Y-120919000D01*
X208000000Y-125700000D02*
X208000000Y-124800000D01*
X207550000Y-125250000D02*
X208450000Y-125250000D01*
X207220911Y-121060639D02*
G75*
G03X207220000Y-124938995I779089J-1939361D01*
G01*
X208779089Y-121060639D02*
G75*
G02X208780000Y-124938995I-779089J-1939361D01*
G01*
X208779089Y-121060639D02*
G75*
G03X207220000Y-121061005I-779089J-1939361D01*
G01*
X207000000Y-90050000D02*
X207000000Y-85950000D01*
X206960000Y-90050000D02*
X206960000Y-85950000D01*
X206920000Y-90049000D02*
X206920000Y-85951000D01*
X206880000Y-90047000D02*
X206880000Y-85953000D01*
X206840000Y-90044000D02*
X206840000Y-85956000D01*
X206800000Y-90041000D02*
X206800000Y-85959000D01*
X206760000Y-90037000D02*
X206760000Y-88780000D01*
X206760000Y-87220000D02*
X206760000Y-85963000D01*
X206720000Y-90032000D02*
X206720000Y-88780000D01*
X206720000Y-87220000D02*
X206720000Y-85968000D01*
X206680000Y-90026000D02*
X206680000Y-88780000D01*
X206680000Y-87220000D02*
X206680000Y-85974000D01*
X206640000Y-90019000D02*
X206640000Y-88780000D01*
X206640000Y-87220000D02*
X206640000Y-85981000D01*
X206600000Y-90012000D02*
X206600000Y-88780000D01*
X206600000Y-87220000D02*
X206600000Y-85988000D01*
X206560000Y-90004000D02*
X206560000Y-88780000D01*
X206560000Y-87220000D02*
X206560000Y-85996000D01*
X206520000Y-89995000D02*
X206520000Y-88780000D01*
X206520000Y-87220000D02*
X206520000Y-86005000D01*
X206480000Y-89985000D02*
X206480000Y-88780000D01*
X206480000Y-87220000D02*
X206480000Y-86015000D01*
X206440000Y-89974000D02*
X206440000Y-88780000D01*
X206440000Y-87220000D02*
X206440000Y-86026000D01*
X206400000Y-89963000D02*
X206400000Y-88780000D01*
X206400000Y-87220000D02*
X206400000Y-86037000D01*
X206360000Y-89950000D02*
X206360000Y-88780000D01*
X206360000Y-87220000D02*
X206360000Y-86050000D01*
X206320000Y-89937000D02*
X206320000Y-88780000D01*
X206320000Y-87220000D02*
X206320000Y-86063000D01*
X206279000Y-89923000D02*
X206279000Y-88780000D01*
X206279000Y-87220000D02*
X206279000Y-86077000D01*
X206239000Y-89907000D02*
X206239000Y-88780000D01*
X206239000Y-87220000D02*
X206239000Y-86093000D01*
X206199000Y-89891000D02*
X206199000Y-88780000D01*
X206199000Y-87220000D02*
X206199000Y-86109000D01*
X206159000Y-89874000D02*
X206159000Y-88780000D01*
X206159000Y-87220000D02*
X206159000Y-86126000D01*
X206119000Y-89856000D02*
X206119000Y-88780000D01*
X206119000Y-87220000D02*
X206119000Y-86144000D01*
X206079000Y-89837000D02*
X206079000Y-88780000D01*
X206079000Y-87220000D02*
X206079000Y-86163000D01*
X206039000Y-89817000D02*
X206039000Y-88780000D01*
X206039000Y-87220000D02*
X206039000Y-86183000D01*
X205999000Y-89796000D02*
X205999000Y-88780000D01*
X205999000Y-87220000D02*
X205999000Y-86204000D01*
X205959000Y-89773000D02*
X205959000Y-88780000D01*
X205959000Y-87220000D02*
X205959000Y-86227000D01*
X205919000Y-89750000D02*
X205919000Y-88780000D01*
X205919000Y-87220000D02*
X205919000Y-86250000D01*
X205879000Y-89725000D02*
X205879000Y-88780000D01*
X205879000Y-87220000D02*
X205879000Y-86275000D01*
X205839000Y-89699000D02*
X205839000Y-88780000D01*
X205839000Y-87220000D02*
X205839000Y-86301000D01*
X205799000Y-89672000D02*
X205799000Y-88780000D01*
X205799000Y-87220000D02*
X205799000Y-86328000D01*
X205759000Y-89643000D02*
X205759000Y-88780000D01*
X205759000Y-87220000D02*
X205759000Y-86357000D01*
X205719000Y-89613000D02*
X205719000Y-88780000D01*
X205719000Y-87220000D02*
X205719000Y-86387000D01*
X205679000Y-89581000D02*
X205679000Y-88780000D01*
X205679000Y-87220000D02*
X205679000Y-86419000D01*
X205639000Y-89547000D02*
X205639000Y-88780000D01*
X205639000Y-87220000D02*
X205639000Y-86453000D01*
X205599000Y-89512000D02*
X205599000Y-88780000D01*
X205599000Y-87220000D02*
X205599000Y-86488000D01*
X205559000Y-89475000D02*
X205559000Y-88780000D01*
X205559000Y-87220000D02*
X205559000Y-86525000D01*
X205519000Y-89436000D02*
X205519000Y-88780000D01*
X205519000Y-87220000D02*
X205519000Y-86564000D01*
X205479000Y-89395000D02*
X205479000Y-88780000D01*
X205479000Y-87220000D02*
X205479000Y-86605000D01*
X205439000Y-89351000D02*
X205439000Y-88780000D01*
X205439000Y-87220000D02*
X205439000Y-86649000D01*
X205399000Y-89305000D02*
X205399000Y-88780000D01*
X205399000Y-87220000D02*
X205399000Y-86695000D01*
X205359000Y-89256000D02*
X205359000Y-88780000D01*
X205359000Y-87220000D02*
X205359000Y-86744000D01*
X205319000Y-89204000D02*
X205319000Y-88780000D01*
X205319000Y-87220000D02*
X205319000Y-86796000D01*
X205279000Y-89148000D02*
X205279000Y-88780000D01*
X205279000Y-87220000D02*
X205279000Y-86852000D01*
X205239000Y-89088000D02*
X205239000Y-88780000D01*
X205239000Y-87220000D02*
X205239000Y-86912000D01*
X205199000Y-89023000D02*
X205199000Y-86977000D01*
X205159000Y-88952000D02*
X205159000Y-87048000D01*
X205119000Y-88874000D02*
X205119000Y-87126000D01*
X205079000Y-88786000D02*
X205079000Y-87214000D01*
X205039000Y-88686000D02*
X205039000Y-87314000D01*
X204999000Y-88567000D02*
X204999000Y-87433000D01*
X204959000Y-88415000D02*
X204959000Y-87585000D01*
X204919000Y-88165000D02*
X204919000Y-87835000D01*
X209700000Y-88000000D02*
X208800000Y-88000000D01*
X209250000Y-88450000D02*
X209250000Y-87550000D01*
X205060639Y-88779089D02*
G75*
G03X208938995Y-88780000I1939361J779089D01*
G01*
X205060639Y-87220911D02*
G75*
G02X208938995Y-87220000I1939361J-779089D01*
G01*
X205060639Y-87220911D02*
G75*
G03X205061005Y-88780000I1939361J-779089D01*
G01*
X205919276Y-103486758D02*
G75*
G03X205601251Y-107790000I1080724J-2243242D01*
G01*
X208080724Y-103486758D02*
G75*
G02X208398749Y-107790000I-1080724J-2243242D01*
G01*
X205919039Y-104047287D02*
G75*
G03X205920000Y-107413330I1080961J-1682713D01*
G01*
X208080961Y-104047287D02*
G75*
G02X208080000Y-107413330I-1080961J-1682713D01*
G01*
X205601000Y-107790000D02*
X205920000Y-107790000D01*
X208080000Y-107790000D02*
X208399000Y-107790000D01*
X67750000Y-47350000D02*
X63650000Y-47350000D01*
X63650000Y-47350000D02*
X63650000Y-55150000D01*
X63650000Y-55150000D02*
X67750000Y-55150000D01*
X67750000Y-55150000D02*
X67750000Y-47350000D01*
X66000000Y-47350000D02*
X66000000Y-47850000D01*
X66000000Y-47850000D02*
X67250000Y-47850000D01*
X67250000Y-47850000D02*
X67250000Y-54650000D01*
X67250000Y-54650000D02*
X66000000Y-54650000D01*
X66000000Y-54650000D02*
X66000000Y-55150000D01*
X65150000Y-47350000D02*
X65150000Y-48350000D01*
X65150000Y-48350000D02*
X63650000Y-48350000D01*
X65150000Y-55150000D02*
X65150000Y-54150000D01*
X65150000Y-54150000D02*
X63650000Y-54150000D01*
X65850000Y-47050000D02*
X63350000Y-47050000D01*
X63350000Y-47050000D02*
X63350000Y-49550000D01*
X168250000Y-128650000D02*
X172350000Y-128650000D01*
X172350000Y-128650000D02*
X172350000Y-118350000D01*
X172350000Y-118350000D02*
X168250000Y-118350000D01*
X168250000Y-118350000D02*
X168250000Y-128650000D01*
X170000000Y-128650000D02*
X170000000Y-128150000D01*
X170000000Y-128150000D02*
X168750000Y-128150000D01*
X168750000Y-128150000D02*
X168750000Y-118850000D01*
X168750000Y-118850000D02*
X170000000Y-118850000D01*
X170000000Y-118850000D02*
X170000000Y-118350000D01*
X170850000Y-128650000D02*
X170850000Y-127650000D01*
X170850000Y-127650000D02*
X172350000Y-127650000D01*
X170850000Y-118350000D02*
X170850000Y-119350000D01*
X170850000Y-119350000D02*
X172350000Y-119350000D01*
X170150000Y-128950000D02*
X172650000Y-128950000D01*
X172650000Y-128950000D02*
X172650000Y-126450000D01*
X70350000Y-122250000D02*
X70350000Y-126350000D01*
X70350000Y-126350000D02*
X78150000Y-126350000D01*
X78150000Y-126350000D02*
X78150000Y-122250000D01*
X78150000Y-122250000D02*
X70350000Y-122250000D01*
X70350000Y-124000000D02*
X70850000Y-124000000D01*
X70850000Y-124000000D02*
X70850000Y-122750000D01*
X70850000Y-122750000D02*
X77650000Y-122750000D01*
X77650000Y-122750000D02*
X77650000Y-124000000D01*
X77650000Y-124000000D02*
X78150000Y-124000000D01*
X70350000Y-124850000D02*
X71350000Y-124850000D01*
X71350000Y-124850000D02*
X71350000Y-126350000D01*
X78150000Y-124850000D02*
X77150000Y-124850000D01*
X77150000Y-124850000D02*
X77150000Y-126350000D01*
X70050000Y-124150000D02*
X70050000Y-126650000D01*
X70050000Y-126650000D02*
X72550000Y-126650000D01*
X70350000Y-113250000D02*
X70350000Y-117350000D01*
X70350000Y-117350000D02*
X78150000Y-117350000D01*
X78150000Y-117350000D02*
X78150000Y-113250000D01*
X78150000Y-113250000D02*
X70350000Y-113250000D01*
X70350000Y-115000000D02*
X70850000Y-115000000D01*
X70850000Y-115000000D02*
X70850000Y-113750000D01*
X70850000Y-113750000D02*
X77650000Y-113750000D01*
X77650000Y-113750000D02*
X77650000Y-115000000D01*
X77650000Y-115000000D02*
X78150000Y-115000000D01*
X70350000Y-115850000D02*
X71350000Y-115850000D01*
X71350000Y-115850000D02*
X71350000Y-117350000D01*
X78150000Y-115850000D02*
X77150000Y-115850000D01*
X77150000Y-115850000D02*
X77150000Y-117350000D01*
X70050000Y-115150000D02*
X70050000Y-117650000D01*
X70050000Y-117650000D02*
X72550000Y-117650000D01*
X70350000Y-105250000D02*
X70350000Y-109350000D01*
X70350000Y-109350000D02*
X78150000Y-109350000D01*
X78150000Y-109350000D02*
X78150000Y-105250000D01*
X78150000Y-105250000D02*
X70350000Y-105250000D01*
X70350000Y-107000000D02*
X70850000Y-107000000D01*
X70850000Y-107000000D02*
X70850000Y-105750000D01*
X70850000Y-105750000D02*
X77650000Y-105750000D01*
X77650000Y-105750000D02*
X77650000Y-107000000D01*
X77650000Y-107000000D02*
X78150000Y-107000000D01*
X70350000Y-107850000D02*
X71350000Y-107850000D01*
X71350000Y-107850000D02*
X71350000Y-109350000D01*
X78150000Y-107850000D02*
X77150000Y-107850000D01*
X77150000Y-107850000D02*
X77150000Y-109350000D01*
X70050000Y-107150000D02*
X70050000Y-109650000D01*
X70050000Y-109650000D02*
X72550000Y-109650000D01*
X70350000Y-97250000D02*
X70350000Y-101350000D01*
X70350000Y-101350000D02*
X78150000Y-101350000D01*
X78150000Y-101350000D02*
X78150000Y-97250000D01*
X78150000Y-97250000D02*
X70350000Y-97250000D01*
X70350000Y-99000000D02*
X70850000Y-99000000D01*
X70850000Y-99000000D02*
X70850000Y-97750000D01*
X70850000Y-97750000D02*
X77650000Y-97750000D01*
X77650000Y-97750000D02*
X77650000Y-99000000D01*
X77650000Y-99000000D02*
X78150000Y-99000000D01*
X70350000Y-99850000D02*
X71350000Y-99850000D01*
X71350000Y-99850000D02*
X71350000Y-101350000D01*
X78150000Y-99850000D02*
X77150000Y-99850000D01*
X77150000Y-99850000D02*
X77150000Y-101350000D01*
X70050000Y-99150000D02*
X70050000Y-101650000D01*
X70050000Y-101650000D02*
X72550000Y-101650000D01*
X109650000Y-135750000D02*
X109650000Y-131650000D01*
X109650000Y-131650000D02*
X99350000Y-131650000D01*
X99350000Y-131650000D02*
X99350000Y-135750000D01*
X99350000Y-135750000D02*
X109650000Y-135750000D01*
X109650000Y-134000000D02*
X109150000Y-134000000D01*
X109150000Y-134000000D02*
X109150000Y-135250000D01*
X109150000Y-135250000D02*
X99850000Y-135250000D01*
X99850000Y-135250000D02*
X99850000Y-134000000D01*
X99850000Y-134000000D02*
X99350000Y-134000000D01*
X109650000Y-133150000D02*
X108650000Y-133150000D01*
X108650000Y-133150000D02*
X108650000Y-131650000D01*
X99350000Y-133150000D02*
X100350000Y-133150000D01*
X100350000Y-133150000D02*
X100350000Y-131650000D01*
X109950000Y-133850000D02*
X109950000Y-131350000D01*
X109950000Y-131350000D02*
X107450000Y-131350000D01*
X113750000Y-49350000D02*
X109650000Y-49350000D01*
X109650000Y-49350000D02*
X109650000Y-57150000D01*
X109650000Y-57150000D02*
X113750000Y-57150000D01*
X113750000Y-57150000D02*
X113750000Y-49350000D01*
X112000000Y-49350000D02*
X112000000Y-49850000D01*
X112000000Y-49850000D02*
X113250000Y-49850000D01*
X113250000Y-49850000D02*
X113250000Y-56650000D01*
X113250000Y-56650000D02*
X112000000Y-56650000D01*
X112000000Y-56650000D02*
X112000000Y-57150000D01*
X111150000Y-49350000D02*
X111150000Y-50350000D01*
X111150000Y-50350000D02*
X109650000Y-50350000D01*
X111150000Y-57150000D02*
X111150000Y-56150000D01*
X111150000Y-56150000D02*
X109650000Y-56150000D01*
X111850000Y-49050000D02*
X109350000Y-49050000D01*
X109350000Y-49050000D02*
X109350000Y-51550000D01*
X127750000Y-98350000D02*
X123650000Y-98350000D01*
X123650000Y-98350000D02*
X123650000Y-106150000D01*
X123650000Y-106150000D02*
X127750000Y-106150000D01*
X127750000Y-106150000D02*
X127750000Y-98350000D01*
X126000000Y-98350000D02*
X126000000Y-98850000D01*
X126000000Y-98850000D02*
X127250000Y-98850000D01*
X127250000Y-98850000D02*
X127250000Y-105650000D01*
X127250000Y-105650000D02*
X126000000Y-105650000D01*
X126000000Y-105650000D02*
X126000000Y-106150000D01*
X125150000Y-98350000D02*
X125150000Y-99350000D01*
X125150000Y-99350000D02*
X123650000Y-99350000D01*
X125150000Y-106150000D02*
X125150000Y-105150000D01*
X125150000Y-105150000D02*
X123650000Y-105150000D01*
X125850000Y-98050000D02*
X123350000Y-98050000D01*
X123350000Y-98050000D02*
X123350000Y-100550000D01*
X127750000Y-109350000D02*
X123650000Y-109350000D01*
X123650000Y-109350000D02*
X123650000Y-117150000D01*
X123650000Y-117150000D02*
X127750000Y-117150000D01*
X127750000Y-117150000D02*
X127750000Y-109350000D01*
X126000000Y-109350000D02*
X126000000Y-109850000D01*
X126000000Y-109850000D02*
X127250000Y-109850000D01*
X127250000Y-109850000D02*
X127250000Y-116650000D01*
X127250000Y-116650000D02*
X126000000Y-116650000D01*
X126000000Y-116650000D02*
X126000000Y-117150000D01*
X125150000Y-109350000D02*
X125150000Y-110350000D01*
X125150000Y-110350000D02*
X123650000Y-110350000D01*
X125150000Y-117150000D02*
X125150000Y-116150000D01*
X125150000Y-116150000D02*
X123650000Y-116150000D01*
X125850000Y-109050000D02*
X123350000Y-109050000D01*
X123350000Y-109050000D02*
X123350000Y-111550000D01*
X165350000Y-46250000D02*
X165350000Y-50350000D01*
X165350000Y-50350000D02*
X178150000Y-50350000D01*
X178150000Y-50350000D02*
X178150000Y-46250000D01*
X178150000Y-46250000D02*
X165350000Y-46250000D01*
X165350000Y-48000000D02*
X165850000Y-48000000D01*
X165850000Y-48000000D02*
X165850000Y-46750000D01*
X165850000Y-46750000D02*
X177650000Y-46750000D01*
X177650000Y-46750000D02*
X177650000Y-48000000D01*
X177650000Y-48000000D02*
X178150000Y-48000000D01*
X165350000Y-48850000D02*
X166350000Y-48850000D01*
X166350000Y-48850000D02*
X166350000Y-50350000D01*
X178150000Y-48850000D02*
X177150000Y-48850000D01*
X177150000Y-48850000D02*
X177150000Y-50350000D01*
X165050000Y-48150000D02*
X165050000Y-50650000D01*
X165050000Y-50650000D02*
X167550000Y-50650000D01*
X183350000Y-46250000D02*
X183350000Y-50350000D01*
X183350000Y-50350000D02*
X196150000Y-50350000D01*
X196150000Y-50350000D02*
X196150000Y-46250000D01*
X196150000Y-46250000D02*
X183350000Y-46250000D01*
X183350000Y-48000000D02*
X183850000Y-48000000D01*
X183850000Y-48000000D02*
X183850000Y-46750000D01*
X183850000Y-46750000D02*
X195650000Y-46750000D01*
X195650000Y-46750000D02*
X195650000Y-48000000D01*
X195650000Y-48000000D02*
X196150000Y-48000000D01*
X183350000Y-48850000D02*
X184350000Y-48850000D01*
X184350000Y-48850000D02*
X184350000Y-50350000D01*
X196150000Y-48850000D02*
X195150000Y-48850000D01*
X195150000Y-48850000D02*
X195150000Y-50350000D01*
X183050000Y-48150000D02*
X183050000Y-50650000D01*
X183050000Y-50650000D02*
X185550000Y-50650000D01*
X201350000Y-46250000D02*
X201350000Y-50350000D01*
X201350000Y-50350000D02*
X214150000Y-50350000D01*
X214150000Y-50350000D02*
X214150000Y-46250000D01*
X214150000Y-46250000D02*
X201350000Y-46250000D01*
X201350000Y-48000000D02*
X201850000Y-48000000D01*
X201850000Y-48000000D02*
X201850000Y-46750000D01*
X201850000Y-46750000D02*
X213650000Y-46750000D01*
X213650000Y-46750000D02*
X213650000Y-48000000D01*
X213650000Y-48000000D02*
X214150000Y-48000000D01*
X201350000Y-48850000D02*
X202350000Y-48850000D01*
X202350000Y-48850000D02*
X202350000Y-50350000D01*
X214150000Y-48850000D02*
X213150000Y-48850000D01*
X213150000Y-48850000D02*
X213150000Y-50350000D01*
X201050000Y-48150000D02*
X201050000Y-50650000D01*
X201050000Y-50650000D02*
X203550000Y-50650000D01*
X190350000Y-130250000D02*
X190350000Y-134350000D01*
X190350000Y-134350000D02*
X213150000Y-134350000D01*
X213150000Y-134350000D02*
X213150000Y-130250000D01*
X213150000Y-130250000D02*
X190350000Y-130250000D01*
X190350000Y-132000000D02*
X190850000Y-132000000D01*
X190850000Y-132000000D02*
X190850000Y-130750000D01*
X190850000Y-130750000D02*
X212650000Y-130750000D01*
X212650000Y-130750000D02*
X212650000Y-132000000D01*
X212650000Y-132000000D02*
X213150000Y-132000000D01*
X190350000Y-132850000D02*
X191350000Y-132850000D01*
X191350000Y-132850000D02*
X191350000Y-134350000D01*
X213150000Y-132850000D02*
X212150000Y-132850000D01*
X212150000Y-132850000D02*
X212150000Y-134350000D01*
X190050000Y-132150000D02*
X190050000Y-134650000D01*
X190050000Y-134650000D02*
X192550000Y-134650000D01*
X212250000Y-103650000D02*
X216350000Y-103650000D01*
X216350000Y-103650000D02*
X216350000Y-95850000D01*
X216350000Y-95850000D02*
X212250000Y-95850000D01*
X212250000Y-95850000D02*
X212250000Y-103650000D01*
X214000000Y-103650000D02*
X214000000Y-103150000D01*
X214000000Y-103150000D02*
X212750000Y-103150000D01*
X212750000Y-103150000D02*
X212750000Y-96350000D01*
X212750000Y-96350000D02*
X214000000Y-96350000D01*
X214000000Y-96350000D02*
X214000000Y-95850000D01*
X214850000Y-103650000D02*
X214850000Y-102650000D01*
X214850000Y-102650000D02*
X216350000Y-102650000D01*
X214850000Y-95850000D02*
X214850000Y-96850000D01*
X214850000Y-96850000D02*
X216350000Y-96850000D01*
X214150000Y-103950000D02*
X216650000Y-103950000D01*
X216650000Y-103950000D02*
X216650000Y-101450000D01*
D10*
X88349000Y-95174000D02*
X91778000Y-95174000D01*
X88349000Y-104826000D02*
X91778000Y-104826000D01*
X87206000Y-94666000D02*
X87206000Y-105334000D01*
X88222000Y-98222000D02*
X86952000Y-98222000D01*
X88222000Y-101778000D02*
X86952000Y-101778000D01*
X88349000Y-105334000D02*
X88349000Y-94666000D01*
X91778000Y-94666000D02*
X91778000Y-105334000D01*
X86952000Y-105334000D02*
X91778000Y-105334000D01*
X86952000Y-94666000D02*
X91778000Y-94666000D01*
X86952000Y-94666000D02*
X86952000Y-105334000D01*
D12*
X111600000Y-77880000D02*
X110400000Y-77880000D01*
X110400000Y-76120000D02*
X111600000Y-76120000D01*
X67880000Y-119400000D02*
X67880000Y-120600000D01*
X66120000Y-120600000D02*
X66120000Y-119400000D01*
X67880000Y-110400000D02*
X67880000Y-111600000D01*
X66120000Y-111600000D02*
X66120000Y-110400000D01*
X67880000Y-103400000D02*
X67880000Y-104600000D01*
X66120000Y-104600000D02*
X66120000Y-103400000D01*
X92120000Y-130100000D02*
X92120000Y-128900000D01*
X93880000Y-128900000D02*
X93880000Y-130100000D01*
X95400000Y-114620000D02*
X96600000Y-114620000D01*
X96600000Y-116380000D02*
X95400000Y-116380000D01*
X92120000Y-123350000D02*
X92120000Y-122150000D01*
X93880000Y-122150000D02*
X93880000Y-123350000D01*
X113600000Y-65880000D02*
X112400000Y-65880000D01*
X112400000Y-64120000D02*
X113600000Y-64120000D01*
X172600000Y-102880000D02*
X171400000Y-102880000D01*
X171400000Y-101120000D02*
X172600000Y-101120000D01*
X142400000Y-84120000D02*
X143600000Y-84120000D01*
X143600000Y-85880000D02*
X142400000Y-85880000D01*
X183400000Y-120120000D02*
X184600000Y-120120000D01*
X184600000Y-121880000D02*
X183400000Y-121880000D01*
X176880000Y-109400000D02*
X176880000Y-110600000D01*
X175120000Y-110600000D02*
X175120000Y-109400000D01*
D10*
X62950000Y-67110000D02*
X62950000Y-84890000D01*
X101050000Y-67110000D02*
X101050000Y-84890000D01*
X62950000Y-67110000D02*
X101050000Y-67110000D01*
X101050000Y-84890000D02*
X62950000Y-84890000D01*
X103970000Y-61890000D02*
X103970000Y-44110000D01*
X76030000Y-61890000D02*
X76030000Y-44110000D01*
X103970000Y-61890000D02*
X76030000Y-61890000D01*
X76030000Y-44110000D02*
X103970000Y-44110000D01*
X101150000Y-118180000D02*
X113850000Y-118180000D01*
X113850000Y-118180000D02*
X113850000Y-95320000D01*
X113850000Y-95320000D02*
X101150000Y-95320000D01*
X101150000Y-95320000D02*
X101150000Y-118180000D01*
X139160000Y-92320000D02*
X118840000Y-92320000D01*
X118840000Y-92320000D02*
X118840000Y-51680000D01*
X118840000Y-51680000D02*
X137890000Y-51680000D01*
X137890000Y-51680000D02*
X139160000Y-51680000D01*
X139160000Y-51680000D02*
X139160000Y-91050000D01*
X139160000Y-91050000D02*
X139160000Y-92320000D01*
X157300000Y-55140000D02*
X182700000Y-55140000D01*
X182700000Y-55140000D02*
X182700000Y-93240000D01*
X182700000Y-93240000D02*
X157300000Y-93240000D01*
X157300000Y-93240000D02*
X157300000Y-55140000D01*
X187650000Y-87380000D02*
X200350000Y-87380000D01*
X200350000Y-87380000D02*
X200350000Y-102620000D01*
X200350000Y-102620000D02*
X187650000Y-102620000D01*
X187650000Y-102620000D02*
X187650000Y-87380000D01*
D12*
X207810000Y-62610000D02*
X206040000Y-62610000D01*
X206040000Y-62610000D02*
X206040000Y-73010000D01*
X206040000Y-73010000D02*
X211580000Y-73010000D01*
X211580000Y-73010000D02*
X211580000Y-62610000D01*
X211580000Y-62610000D02*
X209810000Y-62610000D01*
X209810000Y-62610000D02*
G75*
G02X207810000Y-62610000I-1000000J0D01*
G01*
D10*
X136833334Y-117297143D02*
X136785715Y-117344762D01*
X136642858Y-117392381D01*
X136547620Y-117392381D01*
X136404762Y-117344762D01*
X136309524Y-117249524D01*
X136261905Y-117154286D01*
X136214286Y-116963810D01*
X136214286Y-116820952D01*
X136261905Y-116630476D01*
X136309524Y-116535238D01*
X136404762Y-116440000D01*
X136547620Y-116392381D01*
X136642858Y-116392381D01*
X136785715Y-116440000D01*
X136833334Y-116487619D01*
X137785715Y-117392381D02*
X137214286Y-117392381D01*
X137500000Y-117392381D02*
X137500000Y-116392381D01*
X137404762Y-116535238D01*
X137309524Y-116630476D01*
X137214286Y-116678095D01*
X88667143Y-128916666D02*
X88714762Y-128964285D01*
X88762381Y-129107142D01*
X88762381Y-129202380D01*
X88714762Y-129345238D01*
X88619524Y-129440476D01*
X88524286Y-129488095D01*
X88333810Y-129535714D01*
X88190952Y-129535714D01*
X88000476Y-129488095D01*
X87905238Y-129440476D01*
X87810000Y-129345238D01*
X87762381Y-129202380D01*
X87762381Y-129107142D01*
X87810000Y-128964285D01*
X87857619Y-128916666D01*
X87857619Y-128535714D02*
X87810000Y-128488095D01*
X87762381Y-128392857D01*
X87762381Y-128154761D01*
X87810000Y-128059523D01*
X87857619Y-128011904D01*
X87952857Y-127964285D01*
X88048095Y-127964285D01*
X88190952Y-128011904D01*
X88762381Y-128583333D01*
X88762381Y-127964285D01*
X194083334Y-117297143D02*
X194035715Y-117344762D01*
X193892858Y-117392381D01*
X193797620Y-117392381D01*
X193654762Y-117344762D01*
X193559524Y-117249524D01*
X193511905Y-117154286D01*
X193464286Y-116963810D01*
X193464286Y-116820952D01*
X193511905Y-116630476D01*
X193559524Y-116535238D01*
X193654762Y-116440000D01*
X193797620Y-116392381D01*
X193892858Y-116392381D01*
X194035715Y-116440000D01*
X194083334Y-116487619D01*
X194416667Y-116392381D02*
X195035715Y-116392381D01*
X194702381Y-116773333D01*
X194845239Y-116773333D01*
X194940477Y-116820952D01*
X194988096Y-116868571D01*
X195035715Y-116963810D01*
X195035715Y-117201905D01*
X194988096Y-117297143D01*
X194940477Y-117344762D01*
X194845239Y-117392381D01*
X194559524Y-117392381D01*
X194464286Y-117344762D01*
X194416667Y-117297143D01*
X122833334Y-126607143D02*
X122785715Y-126654762D01*
X122642858Y-126702381D01*
X122547620Y-126702381D01*
X122404762Y-126654762D01*
X122309524Y-126559524D01*
X122261905Y-126464286D01*
X122214286Y-126273810D01*
X122214286Y-126130952D01*
X122261905Y-125940476D01*
X122309524Y-125845238D01*
X122404762Y-125750000D01*
X122547620Y-125702381D01*
X122642858Y-125702381D01*
X122785715Y-125750000D01*
X122833334Y-125797619D01*
X123690477Y-126035714D02*
X123690477Y-126702381D01*
X123452381Y-125654762D02*
X123214286Y-126369048D01*
X123833334Y-126369048D01*
X147297143Y-122916666D02*
X147344762Y-122964285D01*
X147392381Y-123107142D01*
X147392381Y-123202380D01*
X147344762Y-123345238D01*
X147249524Y-123440476D01*
X147154286Y-123488095D01*
X146963810Y-123535714D01*
X146820952Y-123535714D01*
X146630476Y-123488095D01*
X146535238Y-123440476D01*
X146440000Y-123345238D01*
X146392381Y-123202380D01*
X146392381Y-123107142D01*
X146440000Y-122964285D01*
X146487619Y-122916666D01*
X146392381Y-122011904D02*
X146392381Y-122488095D01*
X146868571Y-122535714D01*
X146820952Y-122488095D01*
X146773333Y-122392857D01*
X146773333Y-122154761D01*
X146820952Y-122059523D01*
X146868571Y-122011904D01*
X146963810Y-121964285D01*
X147201905Y-121964285D01*
X147297143Y-122011904D01*
X147344762Y-122059523D01*
X147392381Y-122154761D01*
X147392381Y-122392857D01*
X147344762Y-122488095D01*
X147297143Y-122535714D01*
X189833334Y-111607143D02*
X189785715Y-111654762D01*
X189642858Y-111702381D01*
X189547620Y-111702381D01*
X189404762Y-111654762D01*
X189309524Y-111559524D01*
X189261905Y-111464286D01*
X189214286Y-111273810D01*
X189214286Y-111130952D01*
X189261905Y-110940476D01*
X189309524Y-110845238D01*
X189404762Y-110750000D01*
X189547620Y-110702381D01*
X189642858Y-110702381D01*
X189785715Y-110750000D01*
X189833334Y-110797619D01*
X190690477Y-110702381D02*
X190500000Y-110702381D01*
X190404762Y-110750000D01*
X190357143Y-110797619D01*
X190261905Y-110940476D01*
X190214286Y-111130952D01*
X190214286Y-111511905D01*
X190261905Y-111607143D01*
X190309524Y-111654762D01*
X190404762Y-111702381D01*
X190595239Y-111702381D01*
X190690477Y-111654762D01*
X190738096Y-111607143D01*
X190785715Y-111511905D01*
X190785715Y-111273810D01*
X190738096Y-111178571D01*
X190690477Y-111130952D01*
X190595239Y-111083333D01*
X190404762Y-111083333D01*
X190309524Y-111130952D01*
X190261905Y-111178571D01*
X190214286Y-111273810D01*
X115417143Y-86416666D02*
X115464762Y-86464285D01*
X115512381Y-86607142D01*
X115512381Y-86702380D01*
X115464762Y-86845238D01*
X115369524Y-86940476D01*
X115274286Y-86988095D01*
X115083810Y-87035714D01*
X114940952Y-87035714D01*
X114750476Y-86988095D01*
X114655238Y-86940476D01*
X114560000Y-86845238D01*
X114512381Y-86702380D01*
X114512381Y-86607142D01*
X114560000Y-86464285D01*
X114607619Y-86416666D01*
X114512381Y-86083333D02*
X114512381Y-85416666D01*
X115512381Y-85845238D01*
X153833334Y-103607143D02*
X153785715Y-103654762D01*
X153642858Y-103702381D01*
X153547620Y-103702381D01*
X153404762Y-103654762D01*
X153309524Y-103559524D01*
X153261905Y-103464286D01*
X153214286Y-103273810D01*
X153214286Y-103130952D01*
X153261905Y-102940476D01*
X153309524Y-102845238D01*
X153404762Y-102750000D01*
X153547620Y-102702381D01*
X153642858Y-102702381D01*
X153785715Y-102750000D01*
X153833334Y-102797619D01*
X154404762Y-103130952D02*
X154309524Y-103083333D01*
X154261905Y-103035714D01*
X154214286Y-102940476D01*
X154214286Y-102892857D01*
X154261905Y-102797619D01*
X154309524Y-102750000D01*
X154404762Y-102702381D01*
X154595239Y-102702381D01*
X154690477Y-102750000D01*
X154738096Y-102797619D01*
X154785715Y-102892857D01*
X154785715Y-102940476D01*
X154738096Y-103035714D01*
X154690477Y-103083333D01*
X154595239Y-103130952D01*
X154404762Y-103130952D01*
X154309524Y-103178571D01*
X154261905Y-103226190D01*
X154214286Y-103321429D01*
X154214286Y-103511905D01*
X154261905Y-103607143D01*
X154309524Y-103654762D01*
X154404762Y-103702381D01*
X154595239Y-103702381D01*
X154690477Y-103654762D01*
X154738096Y-103607143D01*
X154785715Y-103511905D01*
X154785715Y-103321429D01*
X154738096Y-103226190D01*
X154690477Y-103178571D01*
X154595239Y-103130952D01*
X115833334Y-133297143D02*
X115785715Y-133344762D01*
X115642858Y-133392381D01*
X115547620Y-133392381D01*
X115404762Y-133344762D01*
X115309524Y-133249524D01*
X115261905Y-133154286D01*
X115214286Y-132963810D01*
X115214286Y-132820952D01*
X115261905Y-132630476D01*
X115309524Y-132535238D01*
X115404762Y-132440000D01*
X115547620Y-132392381D01*
X115642858Y-132392381D01*
X115785715Y-132440000D01*
X115833334Y-132487619D01*
X116309524Y-133392381D02*
X116500000Y-133392381D01*
X116595239Y-133344762D01*
X116642858Y-133297143D01*
X116738096Y-133154286D01*
X116785715Y-132963810D01*
X116785715Y-132582857D01*
X116738096Y-132487619D01*
X116690477Y-132440000D01*
X116595239Y-132392381D01*
X116404762Y-132392381D01*
X116309524Y-132440000D01*
X116261905Y-132487619D01*
X116214286Y-132582857D01*
X116214286Y-132820952D01*
X116261905Y-132916190D01*
X116309524Y-132963810D01*
X116404762Y-133011429D01*
X116595239Y-133011429D01*
X116690477Y-132963810D01*
X116738096Y-132916190D01*
X116785715Y-132820952D01*
X151357143Y-108607143D02*
X151309524Y-108654762D01*
X151166667Y-108702381D01*
X151071429Y-108702381D01*
X150928571Y-108654762D01*
X150833333Y-108559524D01*
X150785714Y-108464286D01*
X150738095Y-108273810D01*
X150738095Y-108130952D01*
X150785714Y-107940476D01*
X150833333Y-107845238D01*
X150928571Y-107750000D01*
X151071429Y-107702381D01*
X151166667Y-107702381D01*
X151309524Y-107750000D01*
X151357143Y-107797619D01*
X152309524Y-108702381D02*
X151738095Y-108702381D01*
X152023809Y-108702381D02*
X152023809Y-107702381D01*
X151928571Y-107845238D01*
X151833333Y-107940476D01*
X151738095Y-107988095D01*
X152928571Y-107702381D02*
X153023810Y-107702381D01*
X153119048Y-107750000D01*
X153166667Y-107797619D01*
X153214286Y-107892857D01*
X153261905Y-108083333D01*
X153261905Y-108321429D01*
X153214286Y-108511905D01*
X153166667Y-108607143D01*
X153119048Y-108654762D01*
X153023810Y-108702381D01*
X152928571Y-108702381D01*
X152833333Y-108654762D01*
X152785714Y-108607143D01*
X152738095Y-108511905D01*
X152690476Y-108321429D01*
X152690476Y-108083333D01*
X152738095Y-107892857D01*
X152785714Y-107797619D01*
X152833333Y-107750000D01*
X152928571Y-107702381D01*
X123357143Y-131297143D02*
X123309524Y-131344762D01*
X123166667Y-131392381D01*
X123071429Y-131392381D01*
X122928571Y-131344762D01*
X122833333Y-131249524D01*
X122785714Y-131154286D01*
X122738095Y-130963810D01*
X122738095Y-130820952D01*
X122785714Y-130630476D01*
X122833333Y-130535238D01*
X122928571Y-130440000D01*
X123071429Y-130392381D01*
X123166667Y-130392381D01*
X123309524Y-130440000D01*
X123357143Y-130487619D01*
X124309524Y-131392381D02*
X123738095Y-131392381D01*
X124023809Y-131392381D02*
X124023809Y-130392381D01*
X123928571Y-130535238D01*
X123833333Y-130630476D01*
X123738095Y-130678095D01*
X125261905Y-131392381D02*
X124690476Y-131392381D01*
X124976190Y-131392381D02*
X124976190Y-130392381D01*
X124880952Y-130535238D01*
X124785714Y-130630476D01*
X124690476Y-130678095D01*
X192107143Y-62417143D02*
X192059524Y-62464762D01*
X191916667Y-62512381D01*
X191821429Y-62512381D01*
X191678571Y-62464762D01*
X191583333Y-62369524D01*
X191535714Y-62274286D01*
X191488095Y-62083810D01*
X191488095Y-61940952D01*
X191535714Y-61750476D01*
X191583333Y-61655238D01*
X191678571Y-61560000D01*
X191821429Y-61512381D01*
X191916667Y-61512381D01*
X192059524Y-61560000D01*
X192107143Y-61607619D01*
X193059524Y-62512381D02*
X192488095Y-62512381D01*
X192773809Y-62512381D02*
X192773809Y-61512381D01*
X192678571Y-61655238D01*
X192583333Y-61750476D01*
X192488095Y-61798095D01*
X193440476Y-61607619D02*
X193488095Y-61560000D01*
X193583333Y-61512381D01*
X193821429Y-61512381D01*
X193916667Y-61560000D01*
X193964286Y-61607619D01*
X194011905Y-61702857D01*
X194011905Y-61798095D01*
X193964286Y-61940952D01*
X193392857Y-62512381D01*
X194011905Y-62512381D01*
X137607143Y-106297143D02*
X137559524Y-106344762D01*
X137416667Y-106392381D01*
X137321429Y-106392381D01*
X137178571Y-106344762D01*
X137083333Y-106249524D01*
X137035714Y-106154286D01*
X136988095Y-105963810D01*
X136988095Y-105820952D01*
X137035714Y-105630476D01*
X137083333Y-105535238D01*
X137178571Y-105440000D01*
X137321429Y-105392381D01*
X137416667Y-105392381D01*
X137559524Y-105440000D01*
X137607143Y-105487619D01*
X138559524Y-106392381D02*
X137988095Y-106392381D01*
X138273809Y-106392381D02*
X138273809Y-105392381D01*
X138178571Y-105535238D01*
X138083333Y-105630476D01*
X137988095Y-105678095D01*
X138892857Y-105392381D02*
X139511905Y-105392381D01*
X139178571Y-105773333D01*
X139321429Y-105773333D01*
X139416667Y-105820952D01*
X139464286Y-105868571D01*
X139511905Y-105963810D01*
X139511905Y-106201905D01*
X139464286Y-106297143D01*
X139416667Y-106344762D01*
X139321429Y-106392381D01*
X139035714Y-106392381D01*
X138940476Y-106344762D01*
X138892857Y-106297143D01*
X153417143Y-59892857D02*
X153464762Y-59940476D01*
X153512381Y-60083333D01*
X153512381Y-60178571D01*
X153464762Y-60321429D01*
X153369524Y-60416667D01*
X153274286Y-60464286D01*
X153083810Y-60511905D01*
X152940952Y-60511905D01*
X152750476Y-60464286D01*
X152655238Y-60416667D01*
X152560000Y-60321429D01*
X152512381Y-60178571D01*
X152512381Y-60083333D01*
X152560000Y-59940476D01*
X152607619Y-59892857D01*
X153512381Y-58940476D02*
X153512381Y-59511905D01*
X153512381Y-59226191D02*
X152512381Y-59226191D01*
X152655238Y-59321429D01*
X152750476Y-59416667D01*
X152798095Y-59511905D01*
X152845714Y-58083333D02*
X153512381Y-58083333D01*
X152464762Y-58321429D02*
X153179048Y-58559524D01*
X153179048Y-57940476D01*
X203297143Y-115642857D02*
X203344762Y-115690476D01*
X203392381Y-115833333D01*
X203392381Y-115928571D01*
X203344762Y-116071429D01*
X203249524Y-116166667D01*
X203154286Y-116214286D01*
X202963810Y-116261905D01*
X202820952Y-116261905D01*
X202630476Y-116214286D01*
X202535238Y-116166667D01*
X202440000Y-116071429D01*
X202392381Y-115928571D01*
X202392381Y-115833333D01*
X202440000Y-115690476D01*
X202487619Y-115642857D01*
X203392381Y-114690476D02*
X203392381Y-115261905D01*
X203392381Y-114976191D02*
X202392381Y-114976191D01*
X202535238Y-115071429D01*
X202630476Y-115166667D01*
X202678095Y-115261905D01*
X202392381Y-113785714D02*
X202392381Y-114261905D01*
X202868571Y-114309524D01*
X202820952Y-114261905D01*
X202773333Y-114166667D01*
X202773333Y-113928571D01*
X202820952Y-113833333D01*
X202868571Y-113785714D01*
X202963810Y-113738095D01*
X203201905Y-113738095D01*
X203297143Y-113785714D01*
X203344762Y-113833333D01*
X203392381Y-113928571D01*
X203392381Y-114166667D01*
X203344762Y-114261905D01*
X203297143Y-114309524D01*
X178297143Y-101642857D02*
X178344762Y-101690476D01*
X178392381Y-101833333D01*
X178392381Y-101928571D01*
X178344762Y-102071429D01*
X178249524Y-102166667D01*
X178154286Y-102214286D01*
X177963810Y-102261905D01*
X177820952Y-102261905D01*
X177630476Y-102214286D01*
X177535238Y-102166667D01*
X177440000Y-102071429D01*
X177392381Y-101928571D01*
X177392381Y-101833333D01*
X177440000Y-101690476D01*
X177487619Y-101642857D01*
X178392381Y-100690476D02*
X178392381Y-101261905D01*
X178392381Y-100976191D02*
X177392381Y-100976191D01*
X177535238Y-101071429D01*
X177630476Y-101166667D01*
X177678095Y-101261905D01*
X177392381Y-99833333D02*
X177392381Y-100023810D01*
X177440000Y-100119048D01*
X177487619Y-100166667D01*
X177630476Y-100261905D01*
X177820952Y-100309524D01*
X178201905Y-100309524D01*
X178297143Y-100261905D01*
X178344762Y-100214286D01*
X178392381Y-100119048D01*
X178392381Y-99928571D01*
X178344762Y-99833333D01*
X178297143Y-99785714D01*
X178201905Y-99738095D01*
X177963810Y-99738095D01*
X177868571Y-99785714D01*
X177820952Y-99833333D01*
X177773333Y-99928571D01*
X177773333Y-100119048D01*
X177820952Y-100214286D01*
X177868571Y-100261905D01*
X177963810Y-100309524D01*
X205297143Y-123642857D02*
X205344762Y-123690476D01*
X205392381Y-123833333D01*
X205392381Y-123928571D01*
X205344762Y-124071429D01*
X205249524Y-124166667D01*
X205154286Y-124214286D01*
X204963810Y-124261905D01*
X204820952Y-124261905D01*
X204630476Y-124214286D01*
X204535238Y-124166667D01*
X204440000Y-124071429D01*
X204392381Y-123928571D01*
X204392381Y-123833333D01*
X204440000Y-123690476D01*
X204487619Y-123642857D01*
X205392381Y-122690476D02*
X205392381Y-123261905D01*
X205392381Y-122976191D02*
X204392381Y-122976191D01*
X204535238Y-123071429D01*
X204630476Y-123166667D01*
X204678095Y-123261905D01*
X204392381Y-122357143D02*
X204392381Y-121690476D01*
X205392381Y-122119048D01*
X206357143Y-91417143D02*
X206309524Y-91464762D01*
X206166667Y-91512381D01*
X206071429Y-91512381D01*
X205928571Y-91464762D01*
X205833333Y-91369524D01*
X205785714Y-91274286D01*
X205738095Y-91083810D01*
X205738095Y-90940952D01*
X205785714Y-90750476D01*
X205833333Y-90655238D01*
X205928571Y-90560000D01*
X206071429Y-90512381D01*
X206166667Y-90512381D01*
X206309524Y-90560000D01*
X206357143Y-90607619D01*
X207309524Y-91512381D02*
X206738095Y-91512381D01*
X207023809Y-91512381D02*
X207023809Y-90512381D01*
X206928571Y-90655238D01*
X206833333Y-90750476D01*
X206738095Y-90798095D01*
X207880952Y-90940952D02*
X207785714Y-90893333D01*
X207738095Y-90845714D01*
X207690476Y-90750476D01*
X207690476Y-90702857D01*
X207738095Y-90607619D01*
X207785714Y-90560000D01*
X207880952Y-90512381D01*
X208071429Y-90512381D01*
X208166667Y-90560000D01*
X208214286Y-90607619D01*
X208261905Y-90702857D01*
X208261905Y-90750476D01*
X208214286Y-90845714D01*
X208166667Y-90893333D01*
X208071429Y-90940952D01*
X207880952Y-90940952D01*
X207785714Y-90988571D01*
X207738095Y-91036190D01*
X207690476Y-91131429D01*
X207690476Y-91321905D01*
X207738095Y-91417143D01*
X207785714Y-91464762D01*
X207880952Y-91512381D01*
X208071429Y-91512381D01*
X208166667Y-91464762D01*
X208214286Y-91417143D01*
X208261905Y-91321905D01*
X208261905Y-91131429D01*
X208214286Y-91036190D01*
X208166667Y-90988571D01*
X208071429Y-90940952D01*
X203992381Y-106468095D02*
X202992381Y-106468095D01*
X202992381Y-106230000D01*
X203040000Y-106087142D01*
X203135238Y-105991904D01*
X203230476Y-105944285D01*
X203420952Y-105896666D01*
X203563810Y-105896666D01*
X203754286Y-105944285D01*
X203849524Y-105991904D01*
X203944762Y-106087142D01*
X203992381Y-106230000D01*
X203992381Y-106468095D01*
X203992381Y-104944285D02*
X203992381Y-105515714D01*
X203992381Y-105230000D02*
X202992381Y-105230000D01*
X203135238Y-105325238D01*
X203230476Y-105420476D01*
X203278095Y-105515714D01*
X69452381Y-51988095D02*
X68452381Y-51988095D01*
X68452381Y-51607142D01*
X68500000Y-51511904D01*
X68547619Y-51464285D01*
X68642857Y-51416666D01*
X68785714Y-51416666D01*
X68880952Y-51464285D01*
X68928571Y-51511904D01*
X68976190Y-51607142D01*
X68976190Y-51988095D01*
X69452381Y-50464285D02*
X69452381Y-51035714D01*
X69452381Y-50750000D02*
X68452381Y-50750000D01*
X68595238Y-50845238D01*
X68690476Y-50940476D01*
X68738095Y-51035714D01*
X167452381Y-124238095D02*
X166452381Y-124238095D01*
X166452381Y-123857142D01*
X166500000Y-123761904D01*
X166547619Y-123714285D01*
X166642857Y-123666666D01*
X166785714Y-123666666D01*
X166880952Y-123714285D01*
X166928571Y-123761904D01*
X166976190Y-123857142D01*
X166976190Y-124238095D01*
X166547619Y-123285714D02*
X166500000Y-123238095D01*
X166452381Y-123142857D01*
X166452381Y-122904761D01*
X166500000Y-122809523D01*
X166547619Y-122761904D01*
X166642857Y-122714285D01*
X166738095Y-122714285D01*
X166880952Y-122761904D01*
X167452381Y-123333333D01*
X167452381Y-122714285D01*
X73511905Y-121452381D02*
X73511905Y-120452381D01*
X73892858Y-120452381D01*
X73988096Y-120500000D01*
X74035715Y-120547619D01*
X74083334Y-120642857D01*
X74083334Y-120785714D01*
X74035715Y-120880952D01*
X73988096Y-120928571D01*
X73892858Y-120976190D01*
X73511905Y-120976190D01*
X74416667Y-120452381D02*
X75035715Y-120452381D01*
X74702381Y-120833333D01*
X74845239Y-120833333D01*
X74940477Y-120880952D01*
X74988096Y-120928571D01*
X75035715Y-121023810D01*
X75035715Y-121261905D01*
X74988096Y-121357143D01*
X74940477Y-121404762D01*
X74845239Y-121452381D01*
X74559524Y-121452381D01*
X74464286Y-121404762D01*
X74416667Y-121357143D01*
X73511905Y-112452381D02*
X73511905Y-111452381D01*
X73892858Y-111452381D01*
X73988096Y-111500000D01*
X74035715Y-111547619D01*
X74083334Y-111642857D01*
X74083334Y-111785714D01*
X74035715Y-111880952D01*
X73988096Y-111928571D01*
X73892858Y-111976190D01*
X73511905Y-111976190D01*
X74940477Y-111785714D02*
X74940477Y-112452381D01*
X74702381Y-111404762D02*
X74464286Y-112119048D01*
X75083334Y-112119048D01*
X73511905Y-104452381D02*
X73511905Y-103452381D01*
X73892858Y-103452381D01*
X73988096Y-103500000D01*
X74035715Y-103547619D01*
X74083334Y-103642857D01*
X74083334Y-103785714D01*
X74035715Y-103880952D01*
X73988096Y-103928571D01*
X73892858Y-103976190D01*
X73511905Y-103976190D01*
X74988096Y-103452381D02*
X74511905Y-103452381D01*
X74464286Y-103928571D01*
X74511905Y-103880952D01*
X74607143Y-103833333D01*
X74845239Y-103833333D01*
X74940477Y-103880952D01*
X74988096Y-103928571D01*
X75035715Y-104023810D01*
X75035715Y-104261905D01*
X74988096Y-104357143D01*
X74940477Y-104404762D01*
X74845239Y-104452381D01*
X74607143Y-104452381D01*
X74511905Y-104404762D01*
X74464286Y-104357143D01*
X73511905Y-96452381D02*
X73511905Y-95452381D01*
X73892858Y-95452381D01*
X73988096Y-95500000D01*
X74035715Y-95547619D01*
X74083334Y-95642857D01*
X74083334Y-95785714D01*
X74035715Y-95880952D01*
X73988096Y-95928571D01*
X73892858Y-95976190D01*
X73511905Y-95976190D01*
X74940477Y-95452381D02*
X74750000Y-95452381D01*
X74654762Y-95500000D01*
X74607143Y-95547619D01*
X74511905Y-95690476D01*
X74464286Y-95880952D01*
X74464286Y-96261905D01*
X74511905Y-96357143D01*
X74559524Y-96404762D01*
X74654762Y-96452381D01*
X74845239Y-96452381D01*
X74940477Y-96404762D01*
X74988096Y-96357143D01*
X75035715Y-96261905D01*
X75035715Y-96023810D01*
X74988096Y-95928571D01*
X74940477Y-95880952D01*
X74845239Y-95833333D01*
X74654762Y-95833333D01*
X74559524Y-95880952D01*
X74511905Y-95928571D01*
X74464286Y-96023810D01*
X103761905Y-137452381D02*
X103761905Y-136452381D01*
X104142858Y-136452381D01*
X104238096Y-136500000D01*
X104285715Y-136547619D01*
X104333334Y-136642857D01*
X104333334Y-136785714D01*
X104285715Y-136880952D01*
X104238096Y-136928571D01*
X104142858Y-136976190D01*
X103761905Y-136976190D01*
X104666667Y-136452381D02*
X105333334Y-136452381D01*
X104904762Y-137452381D01*
X115452381Y-53988095D02*
X114452381Y-53988095D01*
X114452381Y-53607142D01*
X114500000Y-53511904D01*
X114547619Y-53464285D01*
X114642857Y-53416666D01*
X114785714Y-53416666D01*
X114880952Y-53464285D01*
X114928571Y-53511904D01*
X114976190Y-53607142D01*
X114976190Y-53988095D01*
X114880952Y-52845238D02*
X114833333Y-52940476D01*
X114785714Y-52988095D01*
X114690476Y-53035714D01*
X114642857Y-53035714D01*
X114547619Y-52988095D01*
X114500000Y-52940476D01*
X114452381Y-52845238D01*
X114452381Y-52654761D01*
X114500000Y-52559523D01*
X114547619Y-52511904D01*
X114642857Y-52464285D01*
X114690476Y-52464285D01*
X114785714Y-52511904D01*
X114833333Y-52559523D01*
X114880952Y-52654761D01*
X114880952Y-52845238D01*
X114928571Y-52940476D01*
X114976190Y-52988095D01*
X115071429Y-53035714D01*
X115261905Y-53035714D01*
X115357143Y-52988095D01*
X115404762Y-52940476D01*
X115452381Y-52845238D01*
X115452381Y-52654761D01*
X115404762Y-52559523D01*
X115357143Y-52511904D01*
X115261905Y-52464285D01*
X115071429Y-52464285D01*
X114976190Y-52511904D01*
X114928571Y-52559523D01*
X114880952Y-52654761D01*
X129452381Y-102988095D02*
X128452381Y-102988095D01*
X128452381Y-102607142D01*
X128500000Y-102511904D01*
X128547619Y-102464285D01*
X128642857Y-102416666D01*
X128785714Y-102416666D01*
X128880952Y-102464285D01*
X128928571Y-102511904D01*
X128976190Y-102607142D01*
X128976190Y-102988095D01*
X129452381Y-101940476D02*
X129452381Y-101750000D01*
X129404762Y-101654761D01*
X129357143Y-101607142D01*
X129214286Y-101511904D01*
X129023810Y-101464285D01*
X128642857Y-101464285D01*
X128547619Y-101511904D01*
X128500000Y-101559523D01*
X128452381Y-101654761D01*
X128452381Y-101845238D01*
X128500000Y-101940476D01*
X128547619Y-101988095D01*
X128642857Y-102035714D01*
X128880952Y-102035714D01*
X128976190Y-101988095D01*
X129023810Y-101940476D01*
X129071429Y-101845238D01*
X129071429Y-101654761D01*
X129023810Y-101559523D01*
X128976190Y-101511904D01*
X128880952Y-101464285D01*
X129452381Y-114464286D02*
X128452381Y-114464286D01*
X128452381Y-114083333D01*
X128500000Y-113988095D01*
X128547619Y-113940476D01*
X128642857Y-113892857D01*
X128785714Y-113892857D01*
X128880952Y-113940476D01*
X128928571Y-113988095D01*
X128976190Y-114083333D01*
X128976190Y-114464286D01*
X129452381Y-112940476D02*
X129452381Y-113511905D01*
X129452381Y-113226191D02*
X128452381Y-113226191D01*
X128595238Y-113321429D01*
X128690476Y-113416667D01*
X128738095Y-113511905D01*
X128452381Y-112321429D02*
X128452381Y-112226190D01*
X128500000Y-112130952D01*
X128547619Y-112083333D01*
X128642857Y-112035714D01*
X128833333Y-111988095D01*
X129071429Y-111988095D01*
X129261905Y-112035714D01*
X129357143Y-112083333D01*
X129404762Y-112130952D01*
X129452381Y-112226190D01*
X129452381Y-112321429D01*
X129404762Y-112416667D01*
X129357143Y-112464286D01*
X129261905Y-112511905D01*
X129071429Y-112559524D01*
X128833333Y-112559524D01*
X128642857Y-112511905D01*
X128547619Y-112464286D01*
X128500000Y-112416667D01*
X128452381Y-112321429D01*
X170535714Y-45452381D02*
X170535714Y-44452381D01*
X170916667Y-44452381D01*
X171011905Y-44500000D01*
X171059524Y-44547619D01*
X171107143Y-44642857D01*
X171107143Y-44785714D01*
X171059524Y-44880952D01*
X171011905Y-44928571D01*
X170916667Y-44976190D01*
X170535714Y-44976190D01*
X172059524Y-45452381D02*
X171488095Y-45452381D01*
X171773809Y-45452381D02*
X171773809Y-44452381D01*
X171678571Y-44595238D01*
X171583333Y-44690476D01*
X171488095Y-44738095D01*
X173011905Y-45452381D02*
X172440476Y-45452381D01*
X172726190Y-45452381D02*
X172726190Y-44452381D01*
X172630952Y-44595238D01*
X172535714Y-44690476D01*
X172440476Y-44738095D01*
X188535714Y-45452381D02*
X188535714Y-44452381D01*
X188916667Y-44452381D01*
X189011905Y-44500000D01*
X189059524Y-44547619D01*
X189107143Y-44642857D01*
X189107143Y-44785714D01*
X189059524Y-44880952D01*
X189011905Y-44928571D01*
X188916667Y-44976190D01*
X188535714Y-44976190D01*
X190059524Y-45452381D02*
X189488095Y-45452381D01*
X189773809Y-45452381D02*
X189773809Y-44452381D01*
X189678571Y-44595238D01*
X189583333Y-44690476D01*
X189488095Y-44738095D01*
X190440476Y-44547619D02*
X190488095Y-44500000D01*
X190583333Y-44452381D01*
X190821429Y-44452381D01*
X190916667Y-44500000D01*
X190964286Y-44547619D01*
X191011905Y-44642857D01*
X191011905Y-44738095D01*
X190964286Y-44880952D01*
X190392857Y-45452381D01*
X191011905Y-45452381D01*
X206535714Y-45452381D02*
X206535714Y-44452381D01*
X206916667Y-44452381D01*
X207011905Y-44500000D01*
X207059524Y-44547619D01*
X207107143Y-44642857D01*
X207107143Y-44785714D01*
X207059524Y-44880952D01*
X207011905Y-44928571D01*
X206916667Y-44976190D01*
X206535714Y-44976190D01*
X208059524Y-45452381D02*
X207488095Y-45452381D01*
X207773809Y-45452381D02*
X207773809Y-44452381D01*
X207678571Y-44595238D01*
X207583333Y-44690476D01*
X207488095Y-44738095D01*
X208392857Y-44452381D02*
X209011905Y-44452381D01*
X208678571Y-44833333D01*
X208821429Y-44833333D01*
X208916667Y-44880952D01*
X208964286Y-44928571D01*
X209011905Y-45023810D01*
X209011905Y-45261905D01*
X208964286Y-45357143D01*
X208916667Y-45404762D01*
X208821429Y-45452381D01*
X208535714Y-45452381D01*
X208440476Y-45404762D01*
X208392857Y-45357143D01*
X200535714Y-129452381D02*
X200535714Y-128452381D01*
X200916667Y-128452381D01*
X201011905Y-128500000D01*
X201059524Y-128547619D01*
X201107143Y-128642857D01*
X201107143Y-128785714D01*
X201059524Y-128880952D01*
X201011905Y-128928571D01*
X200916667Y-128976190D01*
X200535714Y-128976190D01*
X202059524Y-129452381D02*
X201488095Y-129452381D01*
X201773809Y-129452381D02*
X201773809Y-128452381D01*
X201678571Y-128595238D01*
X201583333Y-128690476D01*
X201488095Y-128738095D01*
X202916667Y-128785714D02*
X202916667Y-129452381D01*
X202678571Y-128404762D02*
X202440476Y-129119048D01*
X203059524Y-129119048D01*
X211452381Y-100964286D02*
X210452381Y-100964286D01*
X210452381Y-100583333D01*
X210500000Y-100488095D01*
X210547619Y-100440476D01*
X210642857Y-100392857D01*
X210785714Y-100392857D01*
X210880952Y-100440476D01*
X210928571Y-100488095D01*
X210976190Y-100583333D01*
X210976190Y-100964286D01*
X211452381Y-99440476D02*
X211452381Y-100011905D01*
X211452381Y-99726191D02*
X210452381Y-99726191D01*
X210595238Y-99821429D01*
X210690476Y-99916667D01*
X210738095Y-100011905D01*
X210452381Y-98535714D02*
X210452381Y-99011905D01*
X210928571Y-99059524D01*
X210880952Y-99011905D01*
X210833333Y-98916667D01*
X210833333Y-98678571D01*
X210880952Y-98583333D01*
X210928571Y-98535714D01*
X211023810Y-98488095D01*
X211261905Y-98488095D01*
X211357143Y-98535714D01*
X211404762Y-98583333D01*
X211452381Y-98678571D01*
X211452381Y-98916667D01*
X211404762Y-99011905D01*
X211357143Y-99059524D01*
X86229619Y-100095238D02*
X86182000Y-100190476D01*
X86086762Y-100285714D01*
X85943905Y-100428571D01*
X85896286Y-100523810D01*
X85896286Y-100619048D01*
X86134381Y-100571429D02*
X86086762Y-100666667D01*
X85991524Y-100761905D01*
X85801048Y-100809524D01*
X85467714Y-100809524D01*
X85277238Y-100761905D01*
X85182000Y-100666667D01*
X85134381Y-100571429D01*
X85134381Y-100380952D01*
X85182000Y-100285714D01*
X85277238Y-100190476D01*
X85467714Y-100142857D01*
X85801048Y-100142857D01*
X85991524Y-100190476D01*
X86086762Y-100285714D01*
X86134381Y-100380952D01*
X86134381Y-100571429D01*
X86134381Y-99190476D02*
X86134381Y-99761905D01*
X86134381Y-99476191D02*
X85134381Y-99476191D01*
X85277238Y-99571429D01*
X85372476Y-99666667D01*
X85420095Y-99761905D01*
X110833334Y-75752381D02*
X110500000Y-75276190D01*
X110261905Y-75752381D02*
X110261905Y-74752381D01*
X110642858Y-74752381D01*
X110738096Y-74800000D01*
X110785715Y-74847619D01*
X110833334Y-74942857D01*
X110833334Y-75085714D01*
X110785715Y-75180952D01*
X110738096Y-75228571D01*
X110642858Y-75276190D01*
X110261905Y-75276190D01*
X111785715Y-75752381D02*
X111214286Y-75752381D01*
X111500000Y-75752381D02*
X111500000Y-74752381D01*
X111404762Y-74895238D01*
X111309524Y-74990476D01*
X111214286Y-75038095D01*
X65752381Y-120166666D02*
X65276190Y-120500000D01*
X65752381Y-120738095D02*
X64752381Y-120738095D01*
X64752381Y-120357142D01*
X64800000Y-120261904D01*
X64847619Y-120214285D01*
X64942857Y-120166666D01*
X65085714Y-120166666D01*
X65180952Y-120214285D01*
X65228571Y-120261904D01*
X65276190Y-120357142D01*
X65276190Y-120738095D01*
X64847619Y-119785714D02*
X64800000Y-119738095D01*
X64752381Y-119642857D01*
X64752381Y-119404761D01*
X64800000Y-119309523D01*
X64847619Y-119261904D01*
X64942857Y-119214285D01*
X65038095Y-119214285D01*
X65180952Y-119261904D01*
X65752381Y-119833333D01*
X65752381Y-119214285D01*
X65752381Y-111166666D02*
X65276190Y-111500000D01*
X65752381Y-111738095D02*
X64752381Y-111738095D01*
X64752381Y-111357142D01*
X64800000Y-111261904D01*
X64847619Y-111214285D01*
X64942857Y-111166666D01*
X65085714Y-111166666D01*
X65180952Y-111214285D01*
X65228571Y-111261904D01*
X65276190Y-111357142D01*
X65276190Y-111738095D01*
X64752381Y-110833333D02*
X64752381Y-110214285D01*
X65133333Y-110547619D01*
X65133333Y-110404761D01*
X65180952Y-110309523D01*
X65228571Y-110261904D01*
X65323810Y-110214285D01*
X65561905Y-110214285D01*
X65657143Y-110261904D01*
X65704762Y-110309523D01*
X65752381Y-110404761D01*
X65752381Y-110690476D01*
X65704762Y-110785714D01*
X65657143Y-110833333D01*
X65752381Y-104166666D02*
X65276190Y-104500000D01*
X65752381Y-104738095D02*
X64752381Y-104738095D01*
X64752381Y-104357142D01*
X64800000Y-104261904D01*
X64847619Y-104214285D01*
X64942857Y-104166666D01*
X65085714Y-104166666D01*
X65180952Y-104214285D01*
X65228571Y-104261904D01*
X65276190Y-104357142D01*
X65276190Y-104738095D01*
X65085714Y-103309523D02*
X65752381Y-103309523D01*
X64704762Y-103547619D02*
X65419048Y-103785714D01*
X65419048Y-103166666D01*
X95152381Y-129666666D02*
X94676190Y-130000000D01*
X95152381Y-130238095D02*
X94152381Y-130238095D01*
X94152381Y-129857142D01*
X94200000Y-129761904D01*
X94247619Y-129714285D01*
X94342857Y-129666666D01*
X94485714Y-129666666D01*
X94580952Y-129714285D01*
X94628571Y-129761904D01*
X94676190Y-129857142D01*
X94676190Y-130238095D01*
X94152381Y-128761904D02*
X94152381Y-129238095D01*
X94628571Y-129285714D01*
X94580952Y-129238095D01*
X94533333Y-129142857D01*
X94533333Y-128904761D01*
X94580952Y-128809523D01*
X94628571Y-128761904D01*
X94723810Y-128714285D01*
X94961905Y-128714285D01*
X95057143Y-128761904D01*
X95104762Y-128809523D01*
X95152381Y-128904761D01*
X95152381Y-129142857D01*
X95104762Y-129238095D01*
X95057143Y-129285714D01*
X95833334Y-117652381D02*
X95500000Y-117176190D01*
X95261905Y-117652381D02*
X95261905Y-116652381D01*
X95642858Y-116652381D01*
X95738096Y-116700000D01*
X95785715Y-116747619D01*
X95833334Y-116842857D01*
X95833334Y-116985714D01*
X95785715Y-117080952D01*
X95738096Y-117128571D01*
X95642858Y-117176190D01*
X95261905Y-117176190D01*
X96690477Y-116652381D02*
X96500000Y-116652381D01*
X96404762Y-116700000D01*
X96357143Y-116747619D01*
X96261905Y-116890476D01*
X96214286Y-117080952D01*
X96214286Y-117461905D01*
X96261905Y-117557143D01*
X96309524Y-117604762D01*
X96404762Y-117652381D01*
X96595239Y-117652381D01*
X96690477Y-117604762D01*
X96738096Y-117557143D01*
X96785715Y-117461905D01*
X96785715Y-117223810D01*
X96738096Y-117128571D01*
X96690477Y-117080952D01*
X96595239Y-117033333D01*
X96404762Y-117033333D01*
X96309524Y-117080952D01*
X96261905Y-117128571D01*
X96214286Y-117223810D01*
X95152381Y-122916666D02*
X94676190Y-123250000D01*
X95152381Y-123488095D02*
X94152381Y-123488095D01*
X94152381Y-123107142D01*
X94200000Y-123011904D01*
X94247619Y-122964285D01*
X94342857Y-122916666D01*
X94485714Y-122916666D01*
X94580952Y-122964285D01*
X94628571Y-123011904D01*
X94676190Y-123107142D01*
X94676190Y-123488095D01*
X94152381Y-122583333D02*
X94152381Y-121916666D01*
X95152381Y-122345238D01*
X112833334Y-63752381D02*
X112500000Y-63276190D01*
X112261905Y-63752381D02*
X112261905Y-62752381D01*
X112642858Y-62752381D01*
X112738096Y-62800000D01*
X112785715Y-62847619D01*
X112833334Y-62942857D01*
X112833334Y-63085714D01*
X112785715Y-63180952D01*
X112738096Y-63228571D01*
X112642858Y-63276190D01*
X112261905Y-63276190D01*
X113404762Y-63180952D02*
X113309524Y-63133333D01*
X113261905Y-63085714D01*
X113214286Y-62990476D01*
X113214286Y-62942857D01*
X113261905Y-62847619D01*
X113309524Y-62800000D01*
X113404762Y-62752381D01*
X113595239Y-62752381D01*
X113690477Y-62800000D01*
X113738096Y-62847619D01*
X113785715Y-62942857D01*
X113785715Y-62990476D01*
X113738096Y-63085714D01*
X113690477Y-63133333D01*
X113595239Y-63180952D01*
X113404762Y-63180952D01*
X113309524Y-63228571D01*
X113261905Y-63276190D01*
X113214286Y-63371429D01*
X113214286Y-63561905D01*
X113261905Y-63657143D01*
X113309524Y-63704762D01*
X113404762Y-63752381D01*
X113595239Y-63752381D01*
X113690477Y-63704762D01*
X113738096Y-63657143D01*
X113785715Y-63561905D01*
X113785715Y-63371429D01*
X113738096Y-63276190D01*
X113690477Y-63228571D01*
X113595239Y-63180952D01*
X171833334Y-100752381D02*
X171500000Y-100276190D01*
X171261905Y-100752381D02*
X171261905Y-99752381D01*
X171642858Y-99752381D01*
X171738096Y-99800000D01*
X171785715Y-99847619D01*
X171833334Y-99942857D01*
X171833334Y-100085714D01*
X171785715Y-100180952D01*
X171738096Y-100228571D01*
X171642858Y-100276190D01*
X171261905Y-100276190D01*
X172309524Y-100752381D02*
X172500000Y-100752381D01*
X172595239Y-100704762D01*
X172642858Y-100657143D01*
X172738096Y-100514286D01*
X172785715Y-100323810D01*
X172785715Y-99942857D01*
X172738096Y-99847619D01*
X172690477Y-99800000D01*
X172595239Y-99752381D01*
X172404762Y-99752381D01*
X172309524Y-99800000D01*
X172261905Y-99847619D01*
X172214286Y-99942857D01*
X172214286Y-100180952D01*
X172261905Y-100276190D01*
X172309524Y-100323810D01*
X172404762Y-100371429D01*
X172595239Y-100371429D01*
X172690477Y-100323810D01*
X172738096Y-100276190D01*
X172785715Y-100180952D01*
X142357143Y-87152381D02*
X142023809Y-86676190D01*
X141785714Y-87152381D02*
X141785714Y-86152381D01*
X142166667Y-86152381D01*
X142261905Y-86200000D01*
X142309524Y-86247619D01*
X142357143Y-86342857D01*
X142357143Y-86485714D01*
X142309524Y-86580952D01*
X142261905Y-86628571D01*
X142166667Y-86676190D01*
X141785714Y-86676190D01*
X143309524Y-87152381D02*
X142738095Y-87152381D01*
X143023809Y-87152381D02*
X143023809Y-86152381D01*
X142928571Y-86295238D01*
X142833333Y-86390476D01*
X142738095Y-86438095D01*
X143928571Y-86152381D02*
X144023810Y-86152381D01*
X144119048Y-86200000D01*
X144166667Y-86247619D01*
X144214286Y-86342857D01*
X144261905Y-86533333D01*
X144261905Y-86771429D01*
X144214286Y-86961905D01*
X144166667Y-87057143D01*
X144119048Y-87104762D01*
X144023810Y-87152381D01*
X143928571Y-87152381D01*
X143833333Y-87104762D01*
X143785714Y-87057143D01*
X143738095Y-86961905D01*
X143690476Y-86771429D01*
X143690476Y-86533333D01*
X143738095Y-86342857D01*
X143785714Y-86247619D01*
X143833333Y-86200000D01*
X143928571Y-86152381D01*
X183357143Y-123152381D02*
X183023809Y-122676190D01*
X182785714Y-123152381D02*
X182785714Y-122152381D01*
X183166667Y-122152381D01*
X183261905Y-122200000D01*
X183309524Y-122247619D01*
X183357143Y-122342857D01*
X183357143Y-122485714D01*
X183309524Y-122580952D01*
X183261905Y-122628571D01*
X183166667Y-122676190D01*
X182785714Y-122676190D01*
X184309524Y-123152381D02*
X183738095Y-123152381D01*
X184023809Y-123152381D02*
X184023809Y-122152381D01*
X183928571Y-122295238D01*
X183833333Y-122390476D01*
X183738095Y-122438095D01*
X185261905Y-123152381D02*
X184690476Y-123152381D01*
X184976190Y-123152381D02*
X184976190Y-122152381D01*
X184880952Y-122295238D01*
X184785714Y-122390476D01*
X184690476Y-122438095D01*
X174752381Y-110642857D02*
X174276190Y-110976191D01*
X174752381Y-111214286D02*
X173752381Y-111214286D01*
X173752381Y-110833333D01*
X173800000Y-110738095D01*
X173847619Y-110690476D01*
X173942857Y-110642857D01*
X174085714Y-110642857D01*
X174180952Y-110690476D01*
X174228571Y-110738095D01*
X174276190Y-110833333D01*
X174276190Y-111214286D01*
X174752381Y-109690476D02*
X174752381Y-110261905D01*
X174752381Y-109976191D02*
X173752381Y-109976191D01*
X173895238Y-110071429D01*
X173990476Y-110166667D01*
X174038095Y-110261905D01*
X173847619Y-109309524D02*
X173800000Y-109261905D01*
X173752381Y-109166667D01*
X173752381Y-108928571D01*
X173800000Y-108833333D01*
X173847619Y-108785714D01*
X173942857Y-108738095D01*
X174038095Y-108738095D01*
X174180952Y-108785714D01*
X174752381Y-109357143D01*
X174752381Y-108738095D01*
X81238095Y-79262381D02*
X81238095Y-80071905D01*
X81285714Y-80167143D01*
X81333333Y-80214762D01*
X81428571Y-80262381D01*
X81619048Y-80262381D01*
X81714286Y-80214762D01*
X81761905Y-80167143D01*
X81809524Y-80071905D01*
X81809524Y-79262381D01*
X82809524Y-80262381D02*
X82238095Y-80262381D01*
X82523809Y-80262381D02*
X82523809Y-79262381D01*
X82428571Y-79405238D01*
X82333333Y-79500476D01*
X82238095Y-79548095D01*
X89238095Y-47372381D02*
X89238095Y-48181905D01*
X89285714Y-48277143D01*
X89333333Y-48324762D01*
X89428571Y-48372381D01*
X89619048Y-48372381D01*
X89714286Y-48324762D01*
X89761905Y-48277143D01*
X89809524Y-48181905D01*
X89809524Y-47372381D01*
X90238095Y-47467619D02*
X90285714Y-47420000D01*
X90380952Y-47372381D01*
X90619048Y-47372381D01*
X90714286Y-47420000D01*
X90761905Y-47467619D01*
X90809524Y-47562857D01*
X90809524Y-47658095D01*
X90761905Y-47800952D01*
X90190476Y-48372381D01*
X90809524Y-48372381D01*
X106738095Y-115092381D02*
X106738095Y-115901905D01*
X106785714Y-115997143D01*
X106833333Y-116044762D01*
X106928571Y-116092381D01*
X107119048Y-116092381D01*
X107214286Y-116044762D01*
X107261905Y-115997143D01*
X107309524Y-115901905D01*
X107309524Y-115092381D01*
X107690476Y-115092381D02*
X108309524Y-115092381D01*
X107976190Y-115473333D01*
X108119048Y-115473333D01*
X108214286Y-115520952D01*
X108261905Y-115568571D01*
X108309524Y-115663810D01*
X108309524Y-115901905D01*
X108261905Y-115997143D01*
X108214286Y-116044762D01*
X108119048Y-116092381D01*
X107833333Y-116092381D01*
X107738095Y-116044762D01*
X107690476Y-115997143D01*
X128238095Y-53672381D02*
X128238095Y-54481905D01*
X128285714Y-54577143D01*
X128333333Y-54624762D01*
X128428571Y-54672381D01*
X128619048Y-54672381D01*
X128714286Y-54624762D01*
X128761905Y-54577143D01*
X128809524Y-54481905D01*
X128809524Y-53672381D01*
X129714286Y-54005714D02*
X129714286Y-54672381D01*
X129476190Y-53624762D02*
X129238095Y-54339048D01*
X129857143Y-54339048D01*
X169238095Y-86342381D02*
X169238095Y-87151905D01*
X169285714Y-87247143D01*
X169333333Y-87294762D01*
X169428571Y-87342381D01*
X169619048Y-87342381D01*
X169714286Y-87294762D01*
X169761905Y-87247143D01*
X169809524Y-87151905D01*
X169809524Y-86342381D01*
X170761905Y-86342381D02*
X170285714Y-86342381D01*
X170238095Y-86818571D01*
X170285714Y-86770952D01*
X170380952Y-86723333D01*
X170619048Y-86723333D01*
X170714286Y-86770952D01*
X170761905Y-86818571D01*
X170809524Y-86913810D01*
X170809524Y-87151905D01*
X170761905Y-87247143D01*
X170714286Y-87294762D01*
X170619048Y-87342381D01*
X170380952Y-87342381D01*
X170285714Y-87294762D01*
X170238095Y-87247143D01*
X193238095Y-98262381D02*
X193238095Y-99071905D01*
X193285714Y-99167143D01*
X193333333Y-99214762D01*
X193428571Y-99262381D01*
X193619048Y-99262381D01*
X193714286Y-99214762D01*
X193761905Y-99167143D01*
X193809524Y-99071905D01*
X193809524Y-98262381D01*
X194714286Y-98262381D02*
X194523809Y-98262381D01*
X194428571Y-98310000D01*
X194380952Y-98357619D01*
X194285714Y-98500476D01*
X194238095Y-98690952D01*
X194238095Y-99071905D01*
X194285714Y-99167143D01*
X194333333Y-99214762D01*
X194428571Y-99262381D01*
X194619048Y-99262381D01*
X194714286Y-99214762D01*
X194761905Y-99167143D01*
X194809524Y-99071905D01*
X194809524Y-98833810D01*
X194761905Y-98738571D01*
X194714286Y-98690952D01*
X194619048Y-98643333D01*
X194428571Y-98643333D01*
X194333333Y-98690952D01*
X194285714Y-98738571D01*
X194238095Y-98833810D01*
X208048095Y-61062381D02*
X208048095Y-61871905D01*
X208095714Y-61967143D01*
X208143333Y-62014762D01*
X208238571Y-62062381D01*
X208429048Y-62062381D01*
X208524286Y-62014762D01*
X208571905Y-61967143D01*
X208619524Y-61871905D01*
X208619524Y-61062381D01*
X209000476Y-61062381D02*
X209667143Y-61062381D01*
X209238571Y-62062381D01*
M02*
