G04 #@! TF.FileFunction,Legend,Top*
%FSLAX46Y46*%
G04 Gerber Fmt 4.6, Leading zero omitted, Abs format (unit mm)*
G04 Created by KiCad (PCBNEW 4.0.5) date 07/04/17 20:38:32*
%MOMM*%
%LPD*%
G01*
G04 APERTURE LIST*
%ADD10C,0.100000*%
%ADD11C,0.120000*%
%ADD12C,0.150000*%
G04 APERTURE END LIST*
D10*
D11*
X174850000Y-132820000D02*
X174850000Y-132690000D01*
X174850000Y-132690000D02*
X180170000Y-132690000D01*
X180170000Y-132690000D02*
X180170000Y-132820000D01*
X174850000Y-135380000D02*
X174850000Y-135510000D01*
X174850000Y-135510000D02*
X180170000Y-135510000D01*
X180170000Y-135510000D02*
X180170000Y-135380000D01*
X175690000Y-132690000D02*
X175690000Y-135510000D01*
X111550000Y-136900000D02*
X107450000Y-136900000D01*
X111550000Y-136940000D02*
X107450000Y-136940000D01*
X111549000Y-136980000D02*
X107451000Y-136980000D01*
X111547000Y-137020000D02*
X107453000Y-137020000D01*
X111544000Y-137060000D02*
X107456000Y-137060000D01*
X111541000Y-137100000D02*
X107459000Y-137100000D01*
X111537000Y-137140000D02*
X110280000Y-137140000D01*
X108720000Y-137140000D02*
X107463000Y-137140000D01*
X111532000Y-137180000D02*
X110280000Y-137180000D01*
X108720000Y-137180000D02*
X107468000Y-137180000D01*
X111526000Y-137220000D02*
X110280000Y-137220000D01*
X108720000Y-137220000D02*
X107474000Y-137220000D01*
X111519000Y-137260000D02*
X110280000Y-137260000D01*
X108720000Y-137260000D02*
X107481000Y-137260000D01*
X111512000Y-137300000D02*
X110280000Y-137300000D01*
X108720000Y-137300000D02*
X107488000Y-137300000D01*
X111504000Y-137340000D02*
X110280000Y-137340000D01*
X108720000Y-137340000D02*
X107496000Y-137340000D01*
X111495000Y-137380000D02*
X110280000Y-137380000D01*
X108720000Y-137380000D02*
X107505000Y-137380000D01*
X111485000Y-137420000D02*
X110280000Y-137420000D01*
X108720000Y-137420000D02*
X107515000Y-137420000D01*
X111474000Y-137460000D02*
X110280000Y-137460000D01*
X108720000Y-137460000D02*
X107526000Y-137460000D01*
X111463000Y-137500000D02*
X110280000Y-137500000D01*
X108720000Y-137500000D02*
X107537000Y-137500000D01*
X111450000Y-137540000D02*
X110280000Y-137540000D01*
X108720000Y-137540000D02*
X107550000Y-137540000D01*
X111437000Y-137580000D02*
X110280000Y-137580000D01*
X108720000Y-137580000D02*
X107563000Y-137580000D01*
X111423000Y-137621000D02*
X110280000Y-137621000D01*
X108720000Y-137621000D02*
X107577000Y-137621000D01*
X111407000Y-137661000D02*
X110280000Y-137661000D01*
X108720000Y-137661000D02*
X107593000Y-137661000D01*
X111391000Y-137701000D02*
X110280000Y-137701000D01*
X108720000Y-137701000D02*
X107609000Y-137701000D01*
X111374000Y-137741000D02*
X110280000Y-137741000D01*
X108720000Y-137741000D02*
X107626000Y-137741000D01*
X111356000Y-137781000D02*
X110280000Y-137781000D01*
X108720000Y-137781000D02*
X107644000Y-137781000D01*
X111337000Y-137821000D02*
X110280000Y-137821000D01*
X108720000Y-137821000D02*
X107663000Y-137821000D01*
X111317000Y-137861000D02*
X110280000Y-137861000D01*
X108720000Y-137861000D02*
X107683000Y-137861000D01*
X111296000Y-137901000D02*
X110280000Y-137901000D01*
X108720000Y-137901000D02*
X107704000Y-137901000D01*
X111273000Y-137941000D02*
X110280000Y-137941000D01*
X108720000Y-137941000D02*
X107727000Y-137941000D01*
X111250000Y-137981000D02*
X110280000Y-137981000D01*
X108720000Y-137981000D02*
X107750000Y-137981000D01*
X111225000Y-138021000D02*
X110280000Y-138021000D01*
X108720000Y-138021000D02*
X107775000Y-138021000D01*
X111199000Y-138061000D02*
X110280000Y-138061000D01*
X108720000Y-138061000D02*
X107801000Y-138061000D01*
X111172000Y-138101000D02*
X110280000Y-138101000D01*
X108720000Y-138101000D02*
X107828000Y-138101000D01*
X111143000Y-138141000D02*
X110280000Y-138141000D01*
X108720000Y-138141000D02*
X107857000Y-138141000D01*
X111113000Y-138181000D02*
X110280000Y-138181000D01*
X108720000Y-138181000D02*
X107887000Y-138181000D01*
X111081000Y-138221000D02*
X110280000Y-138221000D01*
X108720000Y-138221000D02*
X107919000Y-138221000D01*
X111047000Y-138261000D02*
X110280000Y-138261000D01*
X108720000Y-138261000D02*
X107953000Y-138261000D01*
X111012000Y-138301000D02*
X110280000Y-138301000D01*
X108720000Y-138301000D02*
X107988000Y-138301000D01*
X110975000Y-138341000D02*
X110280000Y-138341000D01*
X108720000Y-138341000D02*
X108025000Y-138341000D01*
X110936000Y-138381000D02*
X110280000Y-138381000D01*
X108720000Y-138381000D02*
X108064000Y-138381000D01*
X110895000Y-138421000D02*
X110280000Y-138421000D01*
X108720000Y-138421000D02*
X108105000Y-138421000D01*
X110851000Y-138461000D02*
X110280000Y-138461000D01*
X108720000Y-138461000D02*
X108149000Y-138461000D01*
X110805000Y-138501000D02*
X110280000Y-138501000D01*
X108720000Y-138501000D02*
X108195000Y-138501000D01*
X110756000Y-138541000D02*
X110280000Y-138541000D01*
X108720000Y-138541000D02*
X108244000Y-138541000D01*
X110704000Y-138581000D02*
X110280000Y-138581000D01*
X108720000Y-138581000D02*
X108296000Y-138581000D01*
X110648000Y-138621000D02*
X110280000Y-138621000D01*
X108720000Y-138621000D02*
X108352000Y-138621000D01*
X110588000Y-138661000D02*
X110280000Y-138661000D01*
X108720000Y-138661000D02*
X108412000Y-138661000D01*
X110523000Y-138701000D02*
X108477000Y-138701000D01*
X110452000Y-138741000D02*
X108548000Y-138741000D01*
X110374000Y-138781000D02*
X108626000Y-138781000D01*
X110286000Y-138821000D02*
X108714000Y-138821000D01*
X110186000Y-138861000D02*
X108814000Y-138861000D01*
X110067000Y-138901000D02*
X108933000Y-138901000D01*
X109915000Y-138941000D02*
X109085000Y-138941000D01*
X109665000Y-138981000D02*
X109335000Y-138981000D01*
X109500000Y-134200000D02*
X109500000Y-135100000D01*
X109950000Y-134650000D02*
X109050000Y-134650000D01*
X110279089Y-138839361D02*
G75*
G03X110280000Y-134961005I-779089J1939361D01*
G01*
X108720911Y-138839361D02*
G75*
G02X108720000Y-134961005I779089J1939361D01*
G01*
X108720911Y-138839361D02*
G75*
G03X110280000Y-138838995I779089J1939361D01*
G01*
X204560000Y-131685000D02*
X205760000Y-131685000D01*
X205160000Y-131035000D02*
X205160000Y-132335000D01*
X210940162Y-130704057D02*
G75*
G03X205079522Y-130705000I-2930162J-980943D01*
G01*
X210940162Y-132665943D02*
G75*
G02X205079522Y-132665000I-2930162J980943D01*
G01*
X210940162Y-132665943D02*
G75*
G03X210940478Y-130705000I-2930162J980943D01*
G01*
X113200000Y-90300000D02*
X113200000Y-91500000D01*
X113850000Y-90900000D02*
X112550000Y-90900000D01*
X114180943Y-96680162D02*
G75*
G03X114180000Y-90819522I-980943J2930162D01*
G01*
X112219057Y-96680162D02*
G75*
G02X112220000Y-90819522I980943J2930162D01*
G01*
X112219057Y-96680162D02*
G75*
G03X114180000Y-96680478I980943J2930162D01*
G01*
X133000000Y-135550000D02*
X134000000Y-135550000D01*
X134000000Y-133850000D02*
X133000000Y-133850000D01*
X95500000Y-119300000D02*
X95500000Y-120500000D01*
X96150000Y-119900000D02*
X94850000Y-119900000D01*
X99590000Y-122750000D02*
G75*
G03X99590000Y-122750000I-4090000J0D01*
G01*
X134100000Y-144750000D02*
X133100000Y-144750000D01*
X133100000Y-146450000D02*
X134100000Y-146450000D01*
X152700000Y-109000000D02*
X151500000Y-109000000D01*
X152100000Y-109650000D02*
X152100000Y-108350000D01*
X153340000Y-109000000D02*
G75*
G03X153340000Y-109000000I-4090000J0D01*
G01*
X134000000Y-139150000D02*
X133000000Y-139150000D01*
X133000000Y-140850000D02*
X134000000Y-140850000D01*
X154300000Y-68050000D02*
X154300000Y-63950000D01*
X154260000Y-68050000D02*
X154260000Y-63950000D01*
X154220000Y-68049000D02*
X154220000Y-63951000D01*
X154180000Y-68047000D02*
X154180000Y-63953000D01*
X154140000Y-68044000D02*
X154140000Y-63956000D01*
X154100000Y-68041000D02*
X154100000Y-63959000D01*
X154060000Y-68037000D02*
X154060000Y-66780000D01*
X154060000Y-65220000D02*
X154060000Y-63963000D01*
X154020000Y-68032000D02*
X154020000Y-66780000D01*
X154020000Y-65220000D02*
X154020000Y-63968000D01*
X153980000Y-68026000D02*
X153980000Y-66780000D01*
X153980000Y-65220000D02*
X153980000Y-63974000D01*
X153940000Y-68019000D02*
X153940000Y-66780000D01*
X153940000Y-65220000D02*
X153940000Y-63981000D01*
X153900000Y-68012000D02*
X153900000Y-66780000D01*
X153900000Y-65220000D02*
X153900000Y-63988000D01*
X153860000Y-68004000D02*
X153860000Y-66780000D01*
X153860000Y-65220000D02*
X153860000Y-63996000D01*
X153820000Y-67995000D02*
X153820000Y-66780000D01*
X153820000Y-65220000D02*
X153820000Y-64005000D01*
X153780000Y-67985000D02*
X153780000Y-66780000D01*
X153780000Y-65220000D02*
X153780000Y-64015000D01*
X153740000Y-67974000D02*
X153740000Y-66780000D01*
X153740000Y-65220000D02*
X153740000Y-64026000D01*
X153700000Y-67963000D02*
X153700000Y-66780000D01*
X153700000Y-65220000D02*
X153700000Y-64037000D01*
X153660000Y-67950000D02*
X153660000Y-66780000D01*
X153660000Y-65220000D02*
X153660000Y-64050000D01*
X153620000Y-67937000D02*
X153620000Y-66780000D01*
X153620000Y-65220000D02*
X153620000Y-64063000D01*
X153579000Y-67923000D02*
X153579000Y-66780000D01*
X153579000Y-65220000D02*
X153579000Y-64077000D01*
X153539000Y-67907000D02*
X153539000Y-66780000D01*
X153539000Y-65220000D02*
X153539000Y-64093000D01*
X153499000Y-67891000D02*
X153499000Y-66780000D01*
X153499000Y-65220000D02*
X153499000Y-64109000D01*
X153459000Y-67874000D02*
X153459000Y-66780000D01*
X153459000Y-65220000D02*
X153459000Y-64126000D01*
X153419000Y-67856000D02*
X153419000Y-66780000D01*
X153419000Y-65220000D02*
X153419000Y-64144000D01*
X153379000Y-67837000D02*
X153379000Y-66780000D01*
X153379000Y-65220000D02*
X153379000Y-64163000D01*
X153339000Y-67817000D02*
X153339000Y-66780000D01*
X153339000Y-65220000D02*
X153339000Y-64183000D01*
X153299000Y-67796000D02*
X153299000Y-66780000D01*
X153299000Y-65220000D02*
X153299000Y-64204000D01*
X153259000Y-67773000D02*
X153259000Y-66780000D01*
X153259000Y-65220000D02*
X153259000Y-64227000D01*
X153219000Y-67750000D02*
X153219000Y-66780000D01*
X153219000Y-65220000D02*
X153219000Y-64250000D01*
X153179000Y-67725000D02*
X153179000Y-66780000D01*
X153179000Y-65220000D02*
X153179000Y-64275000D01*
X153139000Y-67699000D02*
X153139000Y-66780000D01*
X153139000Y-65220000D02*
X153139000Y-64301000D01*
X153099000Y-67672000D02*
X153099000Y-66780000D01*
X153099000Y-65220000D02*
X153099000Y-64328000D01*
X153059000Y-67643000D02*
X153059000Y-66780000D01*
X153059000Y-65220000D02*
X153059000Y-64357000D01*
X153019000Y-67613000D02*
X153019000Y-66780000D01*
X153019000Y-65220000D02*
X153019000Y-64387000D01*
X152979000Y-67581000D02*
X152979000Y-66780000D01*
X152979000Y-65220000D02*
X152979000Y-64419000D01*
X152939000Y-67547000D02*
X152939000Y-66780000D01*
X152939000Y-65220000D02*
X152939000Y-64453000D01*
X152899000Y-67512000D02*
X152899000Y-66780000D01*
X152899000Y-65220000D02*
X152899000Y-64488000D01*
X152859000Y-67475000D02*
X152859000Y-66780000D01*
X152859000Y-65220000D02*
X152859000Y-64525000D01*
X152819000Y-67436000D02*
X152819000Y-66780000D01*
X152819000Y-65220000D02*
X152819000Y-64564000D01*
X152779000Y-67395000D02*
X152779000Y-66780000D01*
X152779000Y-65220000D02*
X152779000Y-64605000D01*
X152739000Y-67351000D02*
X152739000Y-66780000D01*
X152739000Y-65220000D02*
X152739000Y-64649000D01*
X152699000Y-67305000D02*
X152699000Y-66780000D01*
X152699000Y-65220000D02*
X152699000Y-64695000D01*
X152659000Y-67256000D02*
X152659000Y-66780000D01*
X152659000Y-65220000D02*
X152659000Y-64744000D01*
X152619000Y-67204000D02*
X152619000Y-66780000D01*
X152619000Y-65220000D02*
X152619000Y-64796000D01*
X152579000Y-67148000D02*
X152579000Y-66780000D01*
X152579000Y-65220000D02*
X152579000Y-64852000D01*
X152539000Y-67088000D02*
X152539000Y-66780000D01*
X152539000Y-65220000D02*
X152539000Y-64912000D01*
X152499000Y-67023000D02*
X152499000Y-64977000D01*
X152459000Y-66952000D02*
X152459000Y-65048000D01*
X152419000Y-66874000D02*
X152419000Y-65126000D01*
X152379000Y-66786000D02*
X152379000Y-65214000D01*
X152339000Y-66686000D02*
X152339000Y-65314000D01*
X152299000Y-66567000D02*
X152299000Y-65433000D01*
X152259000Y-66415000D02*
X152259000Y-65585000D01*
X152219000Y-66165000D02*
X152219000Y-65835000D01*
X157000000Y-66000000D02*
X156100000Y-66000000D01*
X156550000Y-66450000D02*
X156550000Y-65550000D01*
X152360639Y-66779089D02*
G75*
G03X156238995Y-66780000I1939361J779089D01*
G01*
X152360639Y-65220911D02*
G75*
G02X156238995Y-65220000I1939361J-779089D01*
G01*
X152360639Y-65220911D02*
G75*
G03X152361005Y-66780000I1939361J-779089D01*
G01*
X132500000Y-105150000D02*
X131500000Y-105150000D01*
X131500000Y-106850000D02*
X132500000Y-106850000D01*
X173350000Y-107800000D02*
X169250000Y-107800000D01*
X173350000Y-107840000D02*
X169250000Y-107840000D01*
X173349000Y-107880000D02*
X169251000Y-107880000D01*
X173347000Y-107920000D02*
X169253000Y-107920000D01*
X173344000Y-107960000D02*
X169256000Y-107960000D01*
X173341000Y-108000000D02*
X169259000Y-108000000D01*
X173337000Y-108040000D02*
X172080000Y-108040000D01*
X170520000Y-108040000D02*
X169263000Y-108040000D01*
X173332000Y-108080000D02*
X172080000Y-108080000D01*
X170520000Y-108080000D02*
X169268000Y-108080000D01*
X173326000Y-108120000D02*
X172080000Y-108120000D01*
X170520000Y-108120000D02*
X169274000Y-108120000D01*
X173319000Y-108160000D02*
X172080000Y-108160000D01*
X170520000Y-108160000D02*
X169281000Y-108160000D01*
X173312000Y-108200000D02*
X172080000Y-108200000D01*
X170520000Y-108200000D02*
X169288000Y-108200000D01*
X173304000Y-108240000D02*
X172080000Y-108240000D01*
X170520000Y-108240000D02*
X169296000Y-108240000D01*
X173295000Y-108280000D02*
X172080000Y-108280000D01*
X170520000Y-108280000D02*
X169305000Y-108280000D01*
X173285000Y-108320000D02*
X172080000Y-108320000D01*
X170520000Y-108320000D02*
X169315000Y-108320000D01*
X173274000Y-108360000D02*
X172080000Y-108360000D01*
X170520000Y-108360000D02*
X169326000Y-108360000D01*
X173263000Y-108400000D02*
X172080000Y-108400000D01*
X170520000Y-108400000D02*
X169337000Y-108400000D01*
X173250000Y-108440000D02*
X172080000Y-108440000D01*
X170520000Y-108440000D02*
X169350000Y-108440000D01*
X173237000Y-108480000D02*
X172080000Y-108480000D01*
X170520000Y-108480000D02*
X169363000Y-108480000D01*
X173223000Y-108521000D02*
X172080000Y-108521000D01*
X170520000Y-108521000D02*
X169377000Y-108521000D01*
X173207000Y-108561000D02*
X172080000Y-108561000D01*
X170520000Y-108561000D02*
X169393000Y-108561000D01*
X173191000Y-108601000D02*
X172080000Y-108601000D01*
X170520000Y-108601000D02*
X169409000Y-108601000D01*
X173174000Y-108641000D02*
X172080000Y-108641000D01*
X170520000Y-108641000D02*
X169426000Y-108641000D01*
X173156000Y-108681000D02*
X172080000Y-108681000D01*
X170520000Y-108681000D02*
X169444000Y-108681000D01*
X173137000Y-108721000D02*
X172080000Y-108721000D01*
X170520000Y-108721000D02*
X169463000Y-108721000D01*
X173117000Y-108761000D02*
X172080000Y-108761000D01*
X170520000Y-108761000D02*
X169483000Y-108761000D01*
X173096000Y-108801000D02*
X172080000Y-108801000D01*
X170520000Y-108801000D02*
X169504000Y-108801000D01*
X173073000Y-108841000D02*
X172080000Y-108841000D01*
X170520000Y-108841000D02*
X169527000Y-108841000D01*
X173050000Y-108881000D02*
X172080000Y-108881000D01*
X170520000Y-108881000D02*
X169550000Y-108881000D01*
X173025000Y-108921000D02*
X172080000Y-108921000D01*
X170520000Y-108921000D02*
X169575000Y-108921000D01*
X172999000Y-108961000D02*
X172080000Y-108961000D01*
X170520000Y-108961000D02*
X169601000Y-108961000D01*
X172972000Y-109001000D02*
X172080000Y-109001000D01*
X170520000Y-109001000D02*
X169628000Y-109001000D01*
X172943000Y-109041000D02*
X172080000Y-109041000D01*
X170520000Y-109041000D02*
X169657000Y-109041000D01*
X172913000Y-109081000D02*
X172080000Y-109081000D01*
X170520000Y-109081000D02*
X169687000Y-109081000D01*
X172881000Y-109121000D02*
X172080000Y-109121000D01*
X170520000Y-109121000D02*
X169719000Y-109121000D01*
X172847000Y-109161000D02*
X172080000Y-109161000D01*
X170520000Y-109161000D02*
X169753000Y-109161000D01*
X172812000Y-109201000D02*
X172080000Y-109201000D01*
X170520000Y-109201000D02*
X169788000Y-109201000D01*
X172775000Y-109241000D02*
X172080000Y-109241000D01*
X170520000Y-109241000D02*
X169825000Y-109241000D01*
X172736000Y-109281000D02*
X172080000Y-109281000D01*
X170520000Y-109281000D02*
X169864000Y-109281000D01*
X172695000Y-109321000D02*
X172080000Y-109321000D01*
X170520000Y-109321000D02*
X169905000Y-109321000D01*
X172651000Y-109361000D02*
X172080000Y-109361000D01*
X170520000Y-109361000D02*
X169949000Y-109361000D01*
X172605000Y-109401000D02*
X172080000Y-109401000D01*
X170520000Y-109401000D02*
X169995000Y-109401000D01*
X172556000Y-109441000D02*
X172080000Y-109441000D01*
X170520000Y-109441000D02*
X170044000Y-109441000D01*
X172504000Y-109481000D02*
X172080000Y-109481000D01*
X170520000Y-109481000D02*
X170096000Y-109481000D01*
X172448000Y-109521000D02*
X172080000Y-109521000D01*
X170520000Y-109521000D02*
X170152000Y-109521000D01*
X172388000Y-109561000D02*
X172080000Y-109561000D01*
X170520000Y-109561000D02*
X170212000Y-109561000D01*
X172323000Y-109601000D02*
X170277000Y-109601000D01*
X172252000Y-109641000D02*
X170348000Y-109641000D01*
X172174000Y-109681000D02*
X170426000Y-109681000D01*
X172086000Y-109721000D02*
X170514000Y-109721000D01*
X171986000Y-109761000D02*
X170614000Y-109761000D01*
X171867000Y-109801000D02*
X170733000Y-109801000D01*
X171715000Y-109841000D02*
X170885000Y-109841000D01*
X171465000Y-109881000D02*
X171135000Y-109881000D01*
X171300000Y-105100000D02*
X171300000Y-106000000D01*
X171750000Y-105550000D02*
X170850000Y-105550000D01*
X172079089Y-109739361D02*
G75*
G03X172080000Y-105861005I-779089J1939361D01*
G01*
X170520911Y-109739361D02*
G75*
G02X170520000Y-105861005I779089J1939361D01*
G01*
X170520911Y-109739361D02*
G75*
G03X172080000Y-109738995I779089J1939361D01*
G01*
X212000000Y-82300000D02*
X212000000Y-83500000D01*
X212650000Y-82900000D02*
X211350000Y-82900000D01*
X212980943Y-88680162D02*
G75*
G03X212980000Y-82819522I-980943J2930162D01*
G01*
X211019057Y-88680162D02*
G75*
G02X211020000Y-82819522I980943J2930162D01*
G01*
X211019057Y-88680162D02*
G75*
G03X212980000Y-88680478I980943J2930162D01*
G01*
X188700000Y-138000000D02*
X188700000Y-136800000D01*
X188050000Y-137400000D02*
X189350000Y-137400000D01*
X187719057Y-131619838D02*
G75*
G03X187720000Y-137480478I980943J-2930162D01*
G01*
X189680943Y-131619838D02*
G75*
G02X189680000Y-137480478I-980943J-2930162D01*
G01*
X189680943Y-131619838D02*
G75*
G03X187720000Y-131619522I-980943J-2930162D01*
G01*
X194400000Y-69100000D02*
X194400000Y-67900000D01*
X193750000Y-68500000D02*
X195050000Y-68500000D01*
X193419057Y-62719838D02*
G75*
G03X193420000Y-68580478I980943J-2930162D01*
G01*
X195380943Y-62719838D02*
G75*
G02X195380000Y-68580478I-980943J-2930162D01*
G01*
X195380943Y-62719838D02*
G75*
G03X193420000Y-62719522I-980943J-2930162D01*
G01*
X195850000Y-133700000D02*
X199950000Y-133700000D01*
X195850000Y-133660000D02*
X199950000Y-133660000D01*
X195851000Y-133620000D02*
X199949000Y-133620000D01*
X195853000Y-133580000D02*
X199947000Y-133580000D01*
X195856000Y-133540000D02*
X199944000Y-133540000D01*
X195859000Y-133500000D02*
X199941000Y-133500000D01*
X195863000Y-133460000D02*
X197120000Y-133460000D01*
X198680000Y-133460000D02*
X199937000Y-133460000D01*
X195868000Y-133420000D02*
X197120000Y-133420000D01*
X198680000Y-133420000D02*
X199932000Y-133420000D01*
X195874000Y-133380000D02*
X197120000Y-133380000D01*
X198680000Y-133380000D02*
X199926000Y-133380000D01*
X195881000Y-133340000D02*
X197120000Y-133340000D01*
X198680000Y-133340000D02*
X199919000Y-133340000D01*
X195888000Y-133300000D02*
X197120000Y-133300000D01*
X198680000Y-133300000D02*
X199912000Y-133300000D01*
X195896000Y-133260000D02*
X197120000Y-133260000D01*
X198680000Y-133260000D02*
X199904000Y-133260000D01*
X195905000Y-133220000D02*
X197120000Y-133220000D01*
X198680000Y-133220000D02*
X199895000Y-133220000D01*
X195915000Y-133180000D02*
X197120000Y-133180000D01*
X198680000Y-133180000D02*
X199885000Y-133180000D01*
X195926000Y-133140000D02*
X197120000Y-133140000D01*
X198680000Y-133140000D02*
X199874000Y-133140000D01*
X195937000Y-133100000D02*
X197120000Y-133100000D01*
X198680000Y-133100000D02*
X199863000Y-133100000D01*
X195950000Y-133060000D02*
X197120000Y-133060000D01*
X198680000Y-133060000D02*
X199850000Y-133060000D01*
X195963000Y-133020000D02*
X197120000Y-133020000D01*
X198680000Y-133020000D02*
X199837000Y-133020000D01*
X195977000Y-132979000D02*
X197120000Y-132979000D01*
X198680000Y-132979000D02*
X199823000Y-132979000D01*
X195993000Y-132939000D02*
X197120000Y-132939000D01*
X198680000Y-132939000D02*
X199807000Y-132939000D01*
X196009000Y-132899000D02*
X197120000Y-132899000D01*
X198680000Y-132899000D02*
X199791000Y-132899000D01*
X196026000Y-132859000D02*
X197120000Y-132859000D01*
X198680000Y-132859000D02*
X199774000Y-132859000D01*
X196044000Y-132819000D02*
X197120000Y-132819000D01*
X198680000Y-132819000D02*
X199756000Y-132819000D01*
X196063000Y-132779000D02*
X197120000Y-132779000D01*
X198680000Y-132779000D02*
X199737000Y-132779000D01*
X196083000Y-132739000D02*
X197120000Y-132739000D01*
X198680000Y-132739000D02*
X199717000Y-132739000D01*
X196104000Y-132699000D02*
X197120000Y-132699000D01*
X198680000Y-132699000D02*
X199696000Y-132699000D01*
X196127000Y-132659000D02*
X197120000Y-132659000D01*
X198680000Y-132659000D02*
X199673000Y-132659000D01*
X196150000Y-132619000D02*
X197120000Y-132619000D01*
X198680000Y-132619000D02*
X199650000Y-132619000D01*
X196175000Y-132579000D02*
X197120000Y-132579000D01*
X198680000Y-132579000D02*
X199625000Y-132579000D01*
X196201000Y-132539000D02*
X197120000Y-132539000D01*
X198680000Y-132539000D02*
X199599000Y-132539000D01*
X196228000Y-132499000D02*
X197120000Y-132499000D01*
X198680000Y-132499000D02*
X199572000Y-132499000D01*
X196257000Y-132459000D02*
X197120000Y-132459000D01*
X198680000Y-132459000D02*
X199543000Y-132459000D01*
X196287000Y-132419000D02*
X197120000Y-132419000D01*
X198680000Y-132419000D02*
X199513000Y-132419000D01*
X196319000Y-132379000D02*
X197120000Y-132379000D01*
X198680000Y-132379000D02*
X199481000Y-132379000D01*
X196353000Y-132339000D02*
X197120000Y-132339000D01*
X198680000Y-132339000D02*
X199447000Y-132339000D01*
X196388000Y-132299000D02*
X197120000Y-132299000D01*
X198680000Y-132299000D02*
X199412000Y-132299000D01*
X196425000Y-132259000D02*
X197120000Y-132259000D01*
X198680000Y-132259000D02*
X199375000Y-132259000D01*
X196464000Y-132219000D02*
X197120000Y-132219000D01*
X198680000Y-132219000D02*
X199336000Y-132219000D01*
X196505000Y-132179000D02*
X197120000Y-132179000D01*
X198680000Y-132179000D02*
X199295000Y-132179000D01*
X196549000Y-132139000D02*
X197120000Y-132139000D01*
X198680000Y-132139000D02*
X199251000Y-132139000D01*
X196595000Y-132099000D02*
X197120000Y-132099000D01*
X198680000Y-132099000D02*
X199205000Y-132099000D01*
X196644000Y-132059000D02*
X197120000Y-132059000D01*
X198680000Y-132059000D02*
X199156000Y-132059000D01*
X196696000Y-132019000D02*
X197120000Y-132019000D01*
X198680000Y-132019000D02*
X199104000Y-132019000D01*
X196752000Y-131979000D02*
X197120000Y-131979000D01*
X198680000Y-131979000D02*
X199048000Y-131979000D01*
X196812000Y-131939000D02*
X197120000Y-131939000D01*
X198680000Y-131939000D02*
X198988000Y-131939000D01*
X196877000Y-131899000D02*
X198923000Y-131899000D01*
X196948000Y-131859000D02*
X198852000Y-131859000D01*
X197026000Y-131819000D02*
X198774000Y-131819000D01*
X197114000Y-131779000D02*
X198686000Y-131779000D01*
X197214000Y-131739000D02*
X198586000Y-131739000D01*
X197333000Y-131699000D02*
X198467000Y-131699000D01*
X197485000Y-131659000D02*
X198315000Y-131659000D01*
X197735000Y-131619000D02*
X198065000Y-131619000D01*
X197900000Y-136400000D02*
X197900000Y-135500000D01*
X197450000Y-135950000D02*
X198350000Y-135950000D01*
X197120911Y-131760639D02*
G75*
G03X197120000Y-135638995I779089J-1939361D01*
G01*
X198679089Y-131760639D02*
G75*
G02X198680000Y-135638995I-779089J-1939361D01*
G01*
X198679089Y-131760639D02*
G75*
G03X197120000Y-131761005I-779089J-1939361D01*
G01*
X191600000Y-125650000D02*
X191600000Y-121550000D01*
X191560000Y-125650000D02*
X191560000Y-121550000D01*
X191520000Y-125649000D02*
X191520000Y-121551000D01*
X191480000Y-125647000D02*
X191480000Y-121553000D01*
X191440000Y-125644000D02*
X191440000Y-121556000D01*
X191400000Y-125641000D02*
X191400000Y-121559000D01*
X191360000Y-125637000D02*
X191360000Y-124380000D01*
X191360000Y-122820000D02*
X191360000Y-121563000D01*
X191320000Y-125632000D02*
X191320000Y-124380000D01*
X191320000Y-122820000D02*
X191320000Y-121568000D01*
X191280000Y-125626000D02*
X191280000Y-124380000D01*
X191280000Y-122820000D02*
X191280000Y-121574000D01*
X191240000Y-125619000D02*
X191240000Y-124380000D01*
X191240000Y-122820000D02*
X191240000Y-121581000D01*
X191200000Y-125612000D02*
X191200000Y-124380000D01*
X191200000Y-122820000D02*
X191200000Y-121588000D01*
X191160000Y-125604000D02*
X191160000Y-124380000D01*
X191160000Y-122820000D02*
X191160000Y-121596000D01*
X191120000Y-125595000D02*
X191120000Y-124380000D01*
X191120000Y-122820000D02*
X191120000Y-121605000D01*
X191080000Y-125585000D02*
X191080000Y-124380000D01*
X191080000Y-122820000D02*
X191080000Y-121615000D01*
X191040000Y-125574000D02*
X191040000Y-124380000D01*
X191040000Y-122820000D02*
X191040000Y-121626000D01*
X191000000Y-125563000D02*
X191000000Y-124380000D01*
X191000000Y-122820000D02*
X191000000Y-121637000D01*
X190960000Y-125550000D02*
X190960000Y-124380000D01*
X190960000Y-122820000D02*
X190960000Y-121650000D01*
X190920000Y-125537000D02*
X190920000Y-124380000D01*
X190920000Y-122820000D02*
X190920000Y-121663000D01*
X190879000Y-125523000D02*
X190879000Y-124380000D01*
X190879000Y-122820000D02*
X190879000Y-121677000D01*
X190839000Y-125507000D02*
X190839000Y-124380000D01*
X190839000Y-122820000D02*
X190839000Y-121693000D01*
X190799000Y-125491000D02*
X190799000Y-124380000D01*
X190799000Y-122820000D02*
X190799000Y-121709000D01*
X190759000Y-125474000D02*
X190759000Y-124380000D01*
X190759000Y-122820000D02*
X190759000Y-121726000D01*
X190719000Y-125456000D02*
X190719000Y-124380000D01*
X190719000Y-122820000D02*
X190719000Y-121744000D01*
X190679000Y-125437000D02*
X190679000Y-124380000D01*
X190679000Y-122820000D02*
X190679000Y-121763000D01*
X190639000Y-125417000D02*
X190639000Y-124380000D01*
X190639000Y-122820000D02*
X190639000Y-121783000D01*
X190599000Y-125396000D02*
X190599000Y-124380000D01*
X190599000Y-122820000D02*
X190599000Y-121804000D01*
X190559000Y-125373000D02*
X190559000Y-124380000D01*
X190559000Y-122820000D02*
X190559000Y-121827000D01*
X190519000Y-125350000D02*
X190519000Y-124380000D01*
X190519000Y-122820000D02*
X190519000Y-121850000D01*
X190479000Y-125325000D02*
X190479000Y-124380000D01*
X190479000Y-122820000D02*
X190479000Y-121875000D01*
X190439000Y-125299000D02*
X190439000Y-124380000D01*
X190439000Y-122820000D02*
X190439000Y-121901000D01*
X190399000Y-125272000D02*
X190399000Y-124380000D01*
X190399000Y-122820000D02*
X190399000Y-121928000D01*
X190359000Y-125243000D02*
X190359000Y-124380000D01*
X190359000Y-122820000D02*
X190359000Y-121957000D01*
X190319000Y-125213000D02*
X190319000Y-124380000D01*
X190319000Y-122820000D02*
X190319000Y-121987000D01*
X190279000Y-125181000D02*
X190279000Y-124380000D01*
X190279000Y-122820000D02*
X190279000Y-122019000D01*
X190239000Y-125147000D02*
X190239000Y-124380000D01*
X190239000Y-122820000D02*
X190239000Y-122053000D01*
X190199000Y-125112000D02*
X190199000Y-124380000D01*
X190199000Y-122820000D02*
X190199000Y-122088000D01*
X190159000Y-125075000D02*
X190159000Y-124380000D01*
X190159000Y-122820000D02*
X190159000Y-122125000D01*
X190119000Y-125036000D02*
X190119000Y-124380000D01*
X190119000Y-122820000D02*
X190119000Y-122164000D01*
X190079000Y-124995000D02*
X190079000Y-124380000D01*
X190079000Y-122820000D02*
X190079000Y-122205000D01*
X190039000Y-124951000D02*
X190039000Y-124380000D01*
X190039000Y-122820000D02*
X190039000Y-122249000D01*
X189999000Y-124905000D02*
X189999000Y-124380000D01*
X189999000Y-122820000D02*
X189999000Y-122295000D01*
X189959000Y-124856000D02*
X189959000Y-124380000D01*
X189959000Y-122820000D02*
X189959000Y-122344000D01*
X189919000Y-124804000D02*
X189919000Y-124380000D01*
X189919000Y-122820000D02*
X189919000Y-122396000D01*
X189879000Y-124748000D02*
X189879000Y-124380000D01*
X189879000Y-122820000D02*
X189879000Y-122452000D01*
X189839000Y-124688000D02*
X189839000Y-124380000D01*
X189839000Y-122820000D02*
X189839000Y-122512000D01*
X189799000Y-124623000D02*
X189799000Y-122577000D01*
X189759000Y-124552000D02*
X189759000Y-122648000D01*
X189719000Y-124474000D02*
X189719000Y-122726000D01*
X189679000Y-124386000D02*
X189679000Y-122814000D01*
X189639000Y-124286000D02*
X189639000Y-122914000D01*
X189599000Y-124167000D02*
X189599000Y-123033000D01*
X189559000Y-124015000D02*
X189559000Y-123185000D01*
X189519000Y-123765000D02*
X189519000Y-123435000D01*
X194300000Y-123600000D02*
X193400000Y-123600000D01*
X193850000Y-124050000D02*
X193850000Y-123150000D01*
X189660639Y-124379089D02*
G75*
G03X193538995Y-124380000I1939361J779089D01*
G01*
X189660639Y-122820911D02*
G75*
G02X193538995Y-122820000I1939361J-779089D01*
G01*
X189660639Y-122820911D02*
G75*
G03X189661005Y-124380000I1939361J-779089D01*
G01*
X163450000Y-135500000D02*
X167550000Y-135500000D01*
X163450000Y-135460000D02*
X167550000Y-135460000D01*
X163451000Y-135420000D02*
X167549000Y-135420000D01*
X163453000Y-135380000D02*
X167547000Y-135380000D01*
X163456000Y-135340000D02*
X167544000Y-135340000D01*
X163459000Y-135300000D02*
X167541000Y-135300000D01*
X163463000Y-135260000D02*
X164720000Y-135260000D01*
X166280000Y-135260000D02*
X167537000Y-135260000D01*
X163468000Y-135220000D02*
X164720000Y-135220000D01*
X166280000Y-135220000D02*
X167532000Y-135220000D01*
X163474000Y-135180000D02*
X164720000Y-135180000D01*
X166280000Y-135180000D02*
X167526000Y-135180000D01*
X163481000Y-135140000D02*
X164720000Y-135140000D01*
X166280000Y-135140000D02*
X167519000Y-135140000D01*
X163488000Y-135100000D02*
X164720000Y-135100000D01*
X166280000Y-135100000D02*
X167512000Y-135100000D01*
X163496000Y-135060000D02*
X164720000Y-135060000D01*
X166280000Y-135060000D02*
X167504000Y-135060000D01*
X163505000Y-135020000D02*
X164720000Y-135020000D01*
X166280000Y-135020000D02*
X167495000Y-135020000D01*
X163515000Y-134980000D02*
X164720000Y-134980000D01*
X166280000Y-134980000D02*
X167485000Y-134980000D01*
X163526000Y-134940000D02*
X164720000Y-134940000D01*
X166280000Y-134940000D02*
X167474000Y-134940000D01*
X163537000Y-134900000D02*
X164720000Y-134900000D01*
X166280000Y-134900000D02*
X167463000Y-134900000D01*
X163550000Y-134860000D02*
X164720000Y-134860000D01*
X166280000Y-134860000D02*
X167450000Y-134860000D01*
X163563000Y-134820000D02*
X164720000Y-134820000D01*
X166280000Y-134820000D02*
X167437000Y-134820000D01*
X163577000Y-134779000D02*
X164720000Y-134779000D01*
X166280000Y-134779000D02*
X167423000Y-134779000D01*
X163593000Y-134739000D02*
X164720000Y-134739000D01*
X166280000Y-134739000D02*
X167407000Y-134739000D01*
X163609000Y-134699000D02*
X164720000Y-134699000D01*
X166280000Y-134699000D02*
X167391000Y-134699000D01*
X163626000Y-134659000D02*
X164720000Y-134659000D01*
X166280000Y-134659000D02*
X167374000Y-134659000D01*
X163644000Y-134619000D02*
X164720000Y-134619000D01*
X166280000Y-134619000D02*
X167356000Y-134619000D01*
X163663000Y-134579000D02*
X164720000Y-134579000D01*
X166280000Y-134579000D02*
X167337000Y-134579000D01*
X163683000Y-134539000D02*
X164720000Y-134539000D01*
X166280000Y-134539000D02*
X167317000Y-134539000D01*
X163704000Y-134499000D02*
X164720000Y-134499000D01*
X166280000Y-134499000D02*
X167296000Y-134499000D01*
X163727000Y-134459000D02*
X164720000Y-134459000D01*
X166280000Y-134459000D02*
X167273000Y-134459000D01*
X163750000Y-134419000D02*
X164720000Y-134419000D01*
X166280000Y-134419000D02*
X167250000Y-134419000D01*
X163775000Y-134379000D02*
X164720000Y-134379000D01*
X166280000Y-134379000D02*
X167225000Y-134379000D01*
X163801000Y-134339000D02*
X164720000Y-134339000D01*
X166280000Y-134339000D02*
X167199000Y-134339000D01*
X163828000Y-134299000D02*
X164720000Y-134299000D01*
X166280000Y-134299000D02*
X167172000Y-134299000D01*
X163857000Y-134259000D02*
X164720000Y-134259000D01*
X166280000Y-134259000D02*
X167143000Y-134259000D01*
X163887000Y-134219000D02*
X164720000Y-134219000D01*
X166280000Y-134219000D02*
X167113000Y-134219000D01*
X163919000Y-134179000D02*
X164720000Y-134179000D01*
X166280000Y-134179000D02*
X167081000Y-134179000D01*
X163953000Y-134139000D02*
X164720000Y-134139000D01*
X166280000Y-134139000D02*
X167047000Y-134139000D01*
X163988000Y-134099000D02*
X164720000Y-134099000D01*
X166280000Y-134099000D02*
X167012000Y-134099000D01*
X164025000Y-134059000D02*
X164720000Y-134059000D01*
X166280000Y-134059000D02*
X166975000Y-134059000D01*
X164064000Y-134019000D02*
X164720000Y-134019000D01*
X166280000Y-134019000D02*
X166936000Y-134019000D01*
X164105000Y-133979000D02*
X164720000Y-133979000D01*
X166280000Y-133979000D02*
X166895000Y-133979000D01*
X164149000Y-133939000D02*
X164720000Y-133939000D01*
X166280000Y-133939000D02*
X166851000Y-133939000D01*
X164195000Y-133899000D02*
X164720000Y-133899000D01*
X166280000Y-133899000D02*
X166805000Y-133899000D01*
X164244000Y-133859000D02*
X164720000Y-133859000D01*
X166280000Y-133859000D02*
X166756000Y-133859000D01*
X164296000Y-133819000D02*
X164720000Y-133819000D01*
X166280000Y-133819000D02*
X166704000Y-133819000D01*
X164352000Y-133779000D02*
X164720000Y-133779000D01*
X166280000Y-133779000D02*
X166648000Y-133779000D01*
X164412000Y-133739000D02*
X164720000Y-133739000D01*
X166280000Y-133739000D02*
X166588000Y-133739000D01*
X164477000Y-133699000D02*
X166523000Y-133699000D01*
X164548000Y-133659000D02*
X166452000Y-133659000D01*
X164626000Y-133619000D02*
X166374000Y-133619000D01*
X164714000Y-133579000D02*
X166286000Y-133579000D01*
X164814000Y-133539000D02*
X166186000Y-133539000D01*
X164933000Y-133499000D02*
X166067000Y-133499000D01*
X165085000Y-133459000D02*
X165915000Y-133459000D01*
X165335000Y-133419000D02*
X165665000Y-133419000D01*
X165500000Y-138200000D02*
X165500000Y-137300000D01*
X165050000Y-137750000D02*
X165950000Y-137750000D01*
X164720911Y-133560639D02*
G75*
G03X164720000Y-137438995I779089J-1939361D01*
G01*
X166279089Y-133560639D02*
G75*
G02X166280000Y-137438995I-779089J-1939361D01*
G01*
X166279089Y-133560639D02*
G75*
G03X164720000Y-133561005I-779089J-1939361D01*
G01*
X191500000Y-117050000D02*
X191500000Y-112950000D01*
X191460000Y-117050000D02*
X191460000Y-112950000D01*
X191420000Y-117049000D02*
X191420000Y-112951000D01*
X191380000Y-117047000D02*
X191380000Y-112953000D01*
X191340000Y-117044000D02*
X191340000Y-112956000D01*
X191300000Y-117041000D02*
X191300000Y-112959000D01*
X191260000Y-117037000D02*
X191260000Y-115780000D01*
X191260000Y-114220000D02*
X191260000Y-112963000D01*
X191220000Y-117032000D02*
X191220000Y-115780000D01*
X191220000Y-114220000D02*
X191220000Y-112968000D01*
X191180000Y-117026000D02*
X191180000Y-115780000D01*
X191180000Y-114220000D02*
X191180000Y-112974000D01*
X191140000Y-117019000D02*
X191140000Y-115780000D01*
X191140000Y-114220000D02*
X191140000Y-112981000D01*
X191100000Y-117012000D02*
X191100000Y-115780000D01*
X191100000Y-114220000D02*
X191100000Y-112988000D01*
X191060000Y-117004000D02*
X191060000Y-115780000D01*
X191060000Y-114220000D02*
X191060000Y-112996000D01*
X191020000Y-116995000D02*
X191020000Y-115780000D01*
X191020000Y-114220000D02*
X191020000Y-113005000D01*
X190980000Y-116985000D02*
X190980000Y-115780000D01*
X190980000Y-114220000D02*
X190980000Y-113015000D01*
X190940000Y-116974000D02*
X190940000Y-115780000D01*
X190940000Y-114220000D02*
X190940000Y-113026000D01*
X190900000Y-116963000D02*
X190900000Y-115780000D01*
X190900000Y-114220000D02*
X190900000Y-113037000D01*
X190860000Y-116950000D02*
X190860000Y-115780000D01*
X190860000Y-114220000D02*
X190860000Y-113050000D01*
X190820000Y-116937000D02*
X190820000Y-115780000D01*
X190820000Y-114220000D02*
X190820000Y-113063000D01*
X190779000Y-116923000D02*
X190779000Y-115780000D01*
X190779000Y-114220000D02*
X190779000Y-113077000D01*
X190739000Y-116907000D02*
X190739000Y-115780000D01*
X190739000Y-114220000D02*
X190739000Y-113093000D01*
X190699000Y-116891000D02*
X190699000Y-115780000D01*
X190699000Y-114220000D02*
X190699000Y-113109000D01*
X190659000Y-116874000D02*
X190659000Y-115780000D01*
X190659000Y-114220000D02*
X190659000Y-113126000D01*
X190619000Y-116856000D02*
X190619000Y-115780000D01*
X190619000Y-114220000D02*
X190619000Y-113144000D01*
X190579000Y-116837000D02*
X190579000Y-115780000D01*
X190579000Y-114220000D02*
X190579000Y-113163000D01*
X190539000Y-116817000D02*
X190539000Y-115780000D01*
X190539000Y-114220000D02*
X190539000Y-113183000D01*
X190499000Y-116796000D02*
X190499000Y-115780000D01*
X190499000Y-114220000D02*
X190499000Y-113204000D01*
X190459000Y-116773000D02*
X190459000Y-115780000D01*
X190459000Y-114220000D02*
X190459000Y-113227000D01*
X190419000Y-116750000D02*
X190419000Y-115780000D01*
X190419000Y-114220000D02*
X190419000Y-113250000D01*
X190379000Y-116725000D02*
X190379000Y-115780000D01*
X190379000Y-114220000D02*
X190379000Y-113275000D01*
X190339000Y-116699000D02*
X190339000Y-115780000D01*
X190339000Y-114220000D02*
X190339000Y-113301000D01*
X190299000Y-116672000D02*
X190299000Y-115780000D01*
X190299000Y-114220000D02*
X190299000Y-113328000D01*
X190259000Y-116643000D02*
X190259000Y-115780000D01*
X190259000Y-114220000D02*
X190259000Y-113357000D01*
X190219000Y-116613000D02*
X190219000Y-115780000D01*
X190219000Y-114220000D02*
X190219000Y-113387000D01*
X190179000Y-116581000D02*
X190179000Y-115780000D01*
X190179000Y-114220000D02*
X190179000Y-113419000D01*
X190139000Y-116547000D02*
X190139000Y-115780000D01*
X190139000Y-114220000D02*
X190139000Y-113453000D01*
X190099000Y-116512000D02*
X190099000Y-115780000D01*
X190099000Y-114220000D02*
X190099000Y-113488000D01*
X190059000Y-116475000D02*
X190059000Y-115780000D01*
X190059000Y-114220000D02*
X190059000Y-113525000D01*
X190019000Y-116436000D02*
X190019000Y-115780000D01*
X190019000Y-114220000D02*
X190019000Y-113564000D01*
X189979000Y-116395000D02*
X189979000Y-115780000D01*
X189979000Y-114220000D02*
X189979000Y-113605000D01*
X189939000Y-116351000D02*
X189939000Y-115780000D01*
X189939000Y-114220000D02*
X189939000Y-113649000D01*
X189899000Y-116305000D02*
X189899000Y-115780000D01*
X189899000Y-114220000D02*
X189899000Y-113695000D01*
X189859000Y-116256000D02*
X189859000Y-115780000D01*
X189859000Y-114220000D02*
X189859000Y-113744000D01*
X189819000Y-116204000D02*
X189819000Y-115780000D01*
X189819000Y-114220000D02*
X189819000Y-113796000D01*
X189779000Y-116148000D02*
X189779000Y-115780000D01*
X189779000Y-114220000D02*
X189779000Y-113852000D01*
X189739000Y-116088000D02*
X189739000Y-115780000D01*
X189739000Y-114220000D02*
X189739000Y-113912000D01*
X189699000Y-116023000D02*
X189699000Y-113977000D01*
X189659000Y-115952000D02*
X189659000Y-114048000D01*
X189619000Y-115874000D02*
X189619000Y-114126000D01*
X189579000Y-115786000D02*
X189579000Y-114214000D01*
X189539000Y-115686000D02*
X189539000Y-114314000D01*
X189499000Y-115567000D02*
X189499000Y-114433000D01*
X189459000Y-115415000D02*
X189459000Y-114585000D01*
X189419000Y-115165000D02*
X189419000Y-114835000D01*
X194200000Y-115000000D02*
X193300000Y-115000000D01*
X193750000Y-115450000D02*
X193750000Y-114550000D01*
X189560639Y-115779089D02*
G75*
G03X193438995Y-115780000I1939361J779089D01*
G01*
X189560639Y-114220911D02*
G75*
G02X193438995Y-114220000I1939361J-779089D01*
G01*
X189560639Y-114220911D02*
G75*
G03X189561005Y-115780000I1939361J-779089D01*
G01*
X213080724Y-96513242D02*
G75*
G03X213398749Y-92210000I-1080724J2243242D01*
G01*
X210919276Y-96513242D02*
G75*
G02X210601251Y-92210000I1080724J2243242D01*
G01*
X213080961Y-95952713D02*
G75*
G03X213080000Y-92586670I-1080961J1682713D01*
G01*
X210919039Y-95952713D02*
G75*
G02X210920000Y-92586670I1080961J1682713D01*
G01*
X213399000Y-92210000D02*
X213080000Y-92210000D01*
X210920000Y-92210000D02*
X210601000Y-92210000D01*
X68850000Y-60550000D02*
X64750000Y-60550000D01*
X64750000Y-60550000D02*
X64750000Y-68350000D01*
X64750000Y-68350000D02*
X68850000Y-68350000D01*
X68850000Y-68350000D02*
X68850000Y-60550000D01*
X67100000Y-60550000D02*
X67100000Y-61050000D01*
X67100000Y-61050000D02*
X68350000Y-61050000D01*
X68350000Y-61050000D02*
X68350000Y-67850000D01*
X68350000Y-67850000D02*
X67100000Y-67850000D01*
X67100000Y-67850000D02*
X67100000Y-68350000D01*
X66250000Y-60550000D02*
X66250000Y-61550000D01*
X66250000Y-61550000D02*
X64750000Y-61550000D01*
X66250000Y-68350000D02*
X66250000Y-67350000D01*
X66250000Y-67350000D02*
X64750000Y-67350000D01*
X66950000Y-60250000D02*
X64450000Y-60250000D01*
X64450000Y-60250000D02*
X64450000Y-62750000D01*
X96750000Y-100350000D02*
X92650000Y-100350000D01*
X92650000Y-100350000D02*
X92650000Y-110650000D01*
X92650000Y-110650000D02*
X96750000Y-110650000D01*
X96750000Y-110650000D02*
X96750000Y-100350000D01*
X95000000Y-100350000D02*
X95000000Y-100850000D01*
X95000000Y-100850000D02*
X96250000Y-100850000D01*
X96250000Y-100850000D02*
X96250000Y-110150000D01*
X96250000Y-110150000D02*
X95000000Y-110150000D01*
X95000000Y-110150000D02*
X95000000Y-110650000D01*
X94150000Y-100350000D02*
X94150000Y-101350000D01*
X94150000Y-101350000D02*
X92650000Y-101350000D01*
X94150000Y-110650000D02*
X94150000Y-109650000D01*
X94150000Y-109650000D02*
X92650000Y-109650000D01*
X94850000Y-100050000D02*
X92350000Y-100050000D01*
X92350000Y-100050000D02*
X92350000Y-102550000D01*
X66350000Y-129250000D02*
X66350000Y-133350000D01*
X66350000Y-133350000D02*
X74150000Y-133350000D01*
X74150000Y-133350000D02*
X74150000Y-129250000D01*
X74150000Y-129250000D02*
X66350000Y-129250000D01*
X66350000Y-131000000D02*
X66850000Y-131000000D01*
X66850000Y-131000000D02*
X66850000Y-129750000D01*
X66850000Y-129750000D02*
X73650000Y-129750000D01*
X73650000Y-129750000D02*
X73650000Y-131000000D01*
X73650000Y-131000000D02*
X74150000Y-131000000D01*
X66350000Y-131850000D02*
X67350000Y-131850000D01*
X67350000Y-131850000D02*
X67350000Y-133350000D01*
X74150000Y-131850000D02*
X73150000Y-131850000D01*
X73150000Y-131850000D02*
X73150000Y-133350000D01*
X66050000Y-131150000D02*
X66050000Y-133650000D01*
X66050000Y-133650000D02*
X68550000Y-133650000D01*
X66350000Y-120250000D02*
X66350000Y-124350000D01*
X66350000Y-124350000D02*
X74150000Y-124350000D01*
X74150000Y-124350000D02*
X74150000Y-120250000D01*
X74150000Y-120250000D02*
X66350000Y-120250000D01*
X66350000Y-122000000D02*
X66850000Y-122000000D01*
X66850000Y-122000000D02*
X66850000Y-120750000D01*
X66850000Y-120750000D02*
X73650000Y-120750000D01*
X73650000Y-120750000D02*
X73650000Y-122000000D01*
X73650000Y-122000000D02*
X74150000Y-122000000D01*
X66350000Y-122850000D02*
X67350000Y-122850000D01*
X67350000Y-122850000D02*
X67350000Y-124350000D01*
X74150000Y-122850000D02*
X73150000Y-122850000D01*
X73150000Y-122850000D02*
X73150000Y-124350000D01*
X66050000Y-122150000D02*
X66050000Y-124650000D01*
X66050000Y-124650000D02*
X68550000Y-124650000D01*
X66350000Y-111250000D02*
X66350000Y-115350000D01*
X66350000Y-115350000D02*
X74150000Y-115350000D01*
X74150000Y-115350000D02*
X74150000Y-111250000D01*
X74150000Y-111250000D02*
X66350000Y-111250000D01*
X66350000Y-113000000D02*
X66850000Y-113000000D01*
X66850000Y-113000000D02*
X66850000Y-111750000D01*
X66850000Y-111750000D02*
X73650000Y-111750000D01*
X73650000Y-111750000D02*
X73650000Y-113000000D01*
X73650000Y-113000000D02*
X74150000Y-113000000D01*
X66350000Y-113850000D02*
X67350000Y-113850000D01*
X67350000Y-113850000D02*
X67350000Y-115350000D01*
X74150000Y-113850000D02*
X73150000Y-113850000D01*
X73150000Y-113850000D02*
X73150000Y-115350000D01*
X66050000Y-113150000D02*
X66050000Y-115650000D01*
X66050000Y-115650000D02*
X68550000Y-115650000D01*
X66350000Y-102250000D02*
X66350000Y-106350000D01*
X66350000Y-106350000D02*
X74150000Y-106350000D01*
X74150000Y-106350000D02*
X74150000Y-102250000D01*
X74150000Y-102250000D02*
X66350000Y-102250000D01*
X66350000Y-104000000D02*
X66850000Y-104000000D01*
X66850000Y-104000000D02*
X66850000Y-102750000D01*
X66850000Y-102750000D02*
X73650000Y-102750000D01*
X73650000Y-102750000D02*
X73650000Y-104000000D01*
X73650000Y-104000000D02*
X74150000Y-104000000D01*
X66350000Y-104850000D02*
X67350000Y-104850000D01*
X67350000Y-104850000D02*
X67350000Y-106350000D01*
X74150000Y-104850000D02*
X73150000Y-104850000D01*
X73150000Y-104850000D02*
X73150000Y-106350000D01*
X66050000Y-104150000D02*
X66050000Y-106650000D01*
X66050000Y-106650000D02*
X68550000Y-106650000D01*
X75850000Y-142750000D02*
X75850000Y-146850000D01*
X75850000Y-146850000D02*
X86150000Y-146850000D01*
X86150000Y-146850000D02*
X86150000Y-142750000D01*
X86150000Y-142750000D02*
X75850000Y-142750000D01*
X75850000Y-144500000D02*
X76350000Y-144500000D01*
X76350000Y-144500000D02*
X76350000Y-143250000D01*
X76350000Y-143250000D02*
X85650000Y-143250000D01*
X85650000Y-143250000D02*
X85650000Y-144500000D01*
X85650000Y-144500000D02*
X86150000Y-144500000D01*
X75850000Y-145350000D02*
X76850000Y-145350000D01*
X76850000Y-145350000D02*
X76850000Y-146850000D01*
X86150000Y-145350000D02*
X85150000Y-145350000D01*
X85150000Y-145350000D02*
X85150000Y-146850000D01*
X75550000Y-144650000D02*
X75550000Y-147150000D01*
X75550000Y-147150000D02*
X78050000Y-147150000D01*
X111750000Y-58350000D02*
X107650000Y-58350000D01*
X107650000Y-58350000D02*
X107650000Y-66150000D01*
X107650000Y-66150000D02*
X111750000Y-66150000D01*
X111750000Y-66150000D02*
X111750000Y-58350000D01*
X110000000Y-58350000D02*
X110000000Y-58850000D01*
X110000000Y-58850000D02*
X111250000Y-58850000D01*
X111250000Y-58850000D02*
X111250000Y-65650000D01*
X111250000Y-65650000D02*
X110000000Y-65650000D01*
X110000000Y-65650000D02*
X110000000Y-66150000D01*
X109150000Y-58350000D02*
X109150000Y-59350000D01*
X109150000Y-59350000D02*
X107650000Y-59350000D01*
X109150000Y-66150000D02*
X109150000Y-65150000D01*
X109150000Y-65150000D02*
X107650000Y-65150000D01*
X109850000Y-58050000D02*
X107350000Y-58050000D01*
X107350000Y-58050000D02*
X107350000Y-60550000D01*
X127250000Y-110350000D02*
X123150000Y-110350000D01*
X123150000Y-110350000D02*
X123150000Y-118150000D01*
X123150000Y-118150000D02*
X127250000Y-118150000D01*
X127250000Y-118150000D02*
X127250000Y-110350000D01*
X125500000Y-110350000D02*
X125500000Y-110850000D01*
X125500000Y-110850000D02*
X126750000Y-110850000D01*
X126750000Y-110850000D02*
X126750000Y-117650000D01*
X126750000Y-117650000D02*
X125500000Y-117650000D01*
X125500000Y-117650000D02*
X125500000Y-118150000D01*
X124650000Y-110350000D02*
X124650000Y-111350000D01*
X124650000Y-111350000D02*
X123150000Y-111350000D01*
X124650000Y-118150000D02*
X124650000Y-117150000D01*
X124650000Y-117150000D02*
X123150000Y-117150000D01*
X125350000Y-110050000D02*
X122850000Y-110050000D01*
X122850000Y-110050000D02*
X122850000Y-112550000D01*
X127250000Y-121350000D02*
X123150000Y-121350000D01*
X123150000Y-121350000D02*
X123150000Y-129150000D01*
X123150000Y-129150000D02*
X127250000Y-129150000D01*
X127250000Y-129150000D02*
X127250000Y-121350000D01*
X125500000Y-121350000D02*
X125500000Y-121850000D01*
X125500000Y-121850000D02*
X126750000Y-121850000D01*
X126750000Y-121850000D02*
X126750000Y-128650000D01*
X126750000Y-128650000D02*
X125500000Y-128650000D01*
X125500000Y-128650000D02*
X125500000Y-129150000D01*
X124650000Y-121350000D02*
X124650000Y-122350000D01*
X124650000Y-122350000D02*
X123150000Y-122350000D01*
X124650000Y-129150000D02*
X124650000Y-128150000D01*
X124650000Y-128150000D02*
X123150000Y-128150000D01*
X125350000Y-121050000D02*
X122850000Y-121050000D01*
X122850000Y-121050000D02*
X122850000Y-123550000D01*
X146850000Y-54750000D02*
X146850000Y-58850000D01*
X146850000Y-58850000D02*
X159650000Y-58850000D01*
X159650000Y-58850000D02*
X159650000Y-54750000D01*
X159650000Y-54750000D02*
X146850000Y-54750000D01*
X146850000Y-56500000D02*
X147350000Y-56500000D01*
X147350000Y-56500000D02*
X147350000Y-55250000D01*
X147350000Y-55250000D02*
X159150000Y-55250000D01*
X159150000Y-55250000D02*
X159150000Y-56500000D01*
X159150000Y-56500000D02*
X159650000Y-56500000D01*
X146850000Y-57350000D02*
X147850000Y-57350000D01*
X147850000Y-57350000D02*
X147850000Y-58850000D01*
X159650000Y-57350000D02*
X158650000Y-57350000D01*
X158650000Y-57350000D02*
X158650000Y-58850000D01*
X146550000Y-56650000D02*
X146550000Y-59150000D01*
X146550000Y-59150000D02*
X149050000Y-59150000D01*
X178150000Y-58750000D02*
X178150000Y-54650000D01*
X178150000Y-54650000D02*
X165350000Y-54650000D01*
X165350000Y-54650000D02*
X165350000Y-58750000D01*
X165350000Y-58750000D02*
X178150000Y-58750000D01*
X178150000Y-57000000D02*
X177650000Y-57000000D01*
X177650000Y-57000000D02*
X177650000Y-58250000D01*
X177650000Y-58250000D02*
X165850000Y-58250000D01*
X165850000Y-58250000D02*
X165850000Y-57000000D01*
X165850000Y-57000000D02*
X165350000Y-57000000D01*
X178150000Y-56150000D02*
X177150000Y-56150000D01*
X177150000Y-56150000D02*
X177150000Y-54650000D01*
X165350000Y-56150000D02*
X166350000Y-56150000D01*
X166350000Y-56150000D02*
X166350000Y-54650000D01*
X178450000Y-56850000D02*
X178450000Y-54350000D01*
X178450000Y-54350000D02*
X175950000Y-54350000D01*
X184050000Y-54550000D02*
X184050000Y-58650000D01*
X184050000Y-58650000D02*
X196850000Y-58650000D01*
X196850000Y-58650000D02*
X196850000Y-54550000D01*
X196850000Y-54550000D02*
X184050000Y-54550000D01*
X184050000Y-56300000D02*
X184550000Y-56300000D01*
X184550000Y-56300000D02*
X184550000Y-55050000D01*
X184550000Y-55050000D02*
X196350000Y-55050000D01*
X196350000Y-55050000D02*
X196350000Y-56300000D01*
X196350000Y-56300000D02*
X196850000Y-56300000D01*
X184050000Y-57150000D02*
X185050000Y-57150000D01*
X185050000Y-57150000D02*
X185050000Y-58650000D01*
X196850000Y-57150000D02*
X195850000Y-57150000D01*
X195850000Y-57150000D02*
X195850000Y-58650000D01*
X183750000Y-56450000D02*
X183750000Y-58950000D01*
X183750000Y-58950000D02*
X186250000Y-58950000D01*
X176350000Y-142250000D02*
X176350000Y-146350000D01*
X176350000Y-146350000D02*
X199150000Y-146350000D01*
X199150000Y-146350000D02*
X199150000Y-142250000D01*
X199150000Y-142250000D02*
X176350000Y-142250000D01*
X176350000Y-144000000D02*
X176850000Y-144000000D01*
X176850000Y-144000000D02*
X176850000Y-142750000D01*
X176850000Y-142750000D02*
X198650000Y-142750000D01*
X198650000Y-142750000D02*
X198650000Y-144000000D01*
X198650000Y-144000000D02*
X199150000Y-144000000D01*
X176350000Y-144850000D02*
X177350000Y-144850000D01*
X177350000Y-144850000D02*
X177350000Y-146350000D01*
X199150000Y-144850000D02*
X198150000Y-144850000D01*
X198150000Y-144850000D02*
X198150000Y-146350000D01*
X176050000Y-144150000D02*
X176050000Y-146650000D01*
X176050000Y-146650000D02*
X178550000Y-146650000D01*
X199650000Y-122750000D02*
X203750000Y-122750000D01*
X203750000Y-122750000D02*
X203750000Y-114950000D01*
X203750000Y-114950000D02*
X199650000Y-114950000D01*
X199650000Y-114950000D02*
X199650000Y-122750000D01*
X201400000Y-122750000D02*
X201400000Y-122250000D01*
X201400000Y-122250000D02*
X200150000Y-122250000D01*
X200150000Y-122250000D02*
X200150000Y-115450000D01*
X200150000Y-115450000D02*
X201400000Y-115450000D01*
X201400000Y-115450000D02*
X201400000Y-114950000D01*
X202250000Y-122750000D02*
X202250000Y-121750000D01*
X202250000Y-121750000D02*
X203750000Y-121750000D01*
X202250000Y-114950000D02*
X202250000Y-115950000D01*
X202250000Y-115950000D02*
X203750000Y-115950000D01*
X201550000Y-123050000D02*
X204050000Y-123050000D01*
X204050000Y-123050000D02*
X204050000Y-120550000D01*
X78350000Y-115250000D02*
X78350000Y-119350000D01*
X78350000Y-119350000D02*
X86150000Y-119350000D01*
X86150000Y-119350000D02*
X86150000Y-115250000D01*
X86150000Y-115250000D02*
X78350000Y-115250000D01*
X78350000Y-117000000D02*
X78850000Y-117000000D01*
X78850000Y-117000000D02*
X78850000Y-115750000D01*
X78850000Y-115750000D02*
X85650000Y-115750000D01*
X85650000Y-115750000D02*
X85650000Y-117000000D01*
X85650000Y-117000000D02*
X86150000Y-117000000D01*
X78350000Y-117850000D02*
X79350000Y-117850000D01*
X79350000Y-117850000D02*
X79350000Y-119350000D01*
X86150000Y-117850000D02*
X85150000Y-117850000D01*
X85150000Y-117850000D02*
X85150000Y-119350000D01*
X78050000Y-117150000D02*
X78050000Y-119650000D01*
X78050000Y-119650000D02*
X80550000Y-119650000D01*
D12*
X156551000Y-129326000D02*
X153122000Y-129326000D01*
X156551000Y-119674000D02*
X153122000Y-119674000D01*
X157694000Y-129834000D02*
X157694000Y-119166000D01*
X156678000Y-126278000D02*
X157948000Y-126278000D01*
X156678000Y-122722000D02*
X157948000Y-122722000D01*
X156551000Y-119166000D02*
X156551000Y-129834000D01*
X153122000Y-129834000D02*
X153122000Y-119166000D01*
X157948000Y-119166000D02*
X153122000Y-119166000D01*
X157948000Y-129834000D02*
X153122000Y-129834000D01*
X157948000Y-129834000D02*
X157948000Y-119166000D01*
D11*
X64380000Y-126400000D02*
X64380000Y-127600000D01*
X62620000Y-127600000D02*
X62620000Y-126400000D01*
X64380000Y-117900000D02*
X64380000Y-119100000D01*
X62620000Y-119100000D02*
X62620000Y-117900000D01*
X64380000Y-108400000D02*
X64380000Y-109600000D01*
X62620000Y-109600000D02*
X62620000Y-108400000D01*
X103680000Y-138700000D02*
X103680000Y-139900000D01*
X101920000Y-139900000D02*
X101920000Y-138700000D01*
X91300000Y-138880000D02*
X90100000Y-138880000D01*
X90100000Y-137120000D02*
X91300000Y-137120000D01*
X96520000Y-139900000D02*
X96520000Y-138700000D01*
X98280000Y-138700000D02*
X98280000Y-139900000D01*
X111120000Y-79000000D02*
X111120000Y-77800000D01*
X112880000Y-77800000D02*
X112880000Y-79000000D01*
X162400000Y-107120000D02*
X163600000Y-107120000D01*
X163600000Y-108880000D02*
X162400000Y-108880000D01*
X146400000Y-74820000D02*
X147600000Y-74820000D01*
X147600000Y-76580000D02*
X146400000Y-76580000D01*
X147700000Y-71680000D02*
X146500000Y-71680000D01*
X146500000Y-69920000D02*
X147700000Y-69920000D01*
X147200000Y-135380000D02*
X146000000Y-135380000D01*
X146000000Y-133620000D02*
X147200000Y-133620000D01*
D12*
X105950000Y-94590000D02*
X105950000Y-76810000D01*
X67850000Y-94590000D02*
X67850000Y-76810000D01*
X105950000Y-94590000D02*
X67850000Y-94590000D01*
X67850000Y-76810000D02*
X105950000Y-76810000D01*
X101970000Y-71890000D02*
X101970000Y-54110000D01*
X74030000Y-71890000D02*
X74030000Y-54110000D01*
X101970000Y-71890000D02*
X74030000Y-71890000D01*
X74030000Y-54110000D02*
X101970000Y-54110000D01*
X104650000Y-130930000D02*
X117350000Y-130930000D01*
X117350000Y-130930000D02*
X117350000Y-108070000D01*
X117350000Y-108070000D02*
X104650000Y-108070000D01*
X104650000Y-108070000D02*
X104650000Y-130930000D01*
X140860000Y-101320000D02*
X120540000Y-101320000D01*
X120540000Y-101320000D02*
X120540000Y-60680000D01*
X120540000Y-60680000D02*
X139590000Y-60680000D01*
X139590000Y-60680000D02*
X140860000Y-60680000D01*
X140860000Y-60680000D02*
X140860000Y-100050000D01*
X140860000Y-100050000D02*
X140860000Y-101320000D01*
X159800000Y-65140000D02*
X185200000Y-65140000D01*
X185200000Y-65140000D02*
X185200000Y-103240000D01*
X185200000Y-103240000D02*
X159800000Y-103240000D01*
X159800000Y-103240000D02*
X159800000Y-65140000D01*
X171050000Y-114280000D02*
X183750000Y-114280000D01*
X183750000Y-114280000D02*
X183750000Y-129520000D01*
X183750000Y-129520000D02*
X171050000Y-129520000D01*
X171050000Y-129520000D02*
X171050000Y-114280000D01*
D11*
X197810000Y-82610000D02*
X196040000Y-82610000D01*
X196040000Y-82610000D02*
X196040000Y-93010000D01*
X196040000Y-93010000D02*
X201580000Y-93010000D01*
X201580000Y-93010000D02*
X201580000Y-82610000D01*
X201580000Y-82610000D02*
X199810000Y-82610000D01*
X199810000Y-82610000D02*
G75*
G02X197810000Y-82610000I-1000000J0D01*
G01*
D12*
X175367143Y-132142381D02*
X174795714Y-132142381D01*
X175081428Y-132142381D02*
X175081428Y-131142381D01*
X174986190Y-131285238D01*
X174890952Y-131380476D01*
X174795714Y-131428095D01*
X175795714Y-132142381D02*
X175795714Y-131142381D01*
X176367143Y-132142381D01*
X176367143Y-131142381D01*
X177271905Y-131475714D02*
X177271905Y-132142381D01*
X177033809Y-131094762D02*
X176795714Y-131809048D01*
X177414762Y-131809048D01*
X177986190Y-131142381D02*
X178081429Y-131142381D01*
X178176667Y-131190000D01*
X178224286Y-131237619D01*
X178271905Y-131332857D01*
X178319524Y-131523333D01*
X178319524Y-131761429D01*
X178271905Y-131951905D01*
X178224286Y-132047143D01*
X178176667Y-132094762D01*
X178081429Y-132142381D01*
X177986190Y-132142381D01*
X177890952Y-132094762D01*
X177843333Y-132047143D01*
X177795714Y-131951905D01*
X177748095Y-131761429D01*
X177748095Y-131523333D01*
X177795714Y-131332857D01*
X177843333Y-131237619D01*
X177890952Y-131190000D01*
X177986190Y-131142381D01*
X178938571Y-131142381D02*
X179033810Y-131142381D01*
X179129048Y-131190000D01*
X179176667Y-131237619D01*
X179224286Y-131332857D01*
X179271905Y-131523333D01*
X179271905Y-131761429D01*
X179224286Y-131951905D01*
X179176667Y-132047143D01*
X179129048Y-132094762D01*
X179033810Y-132142381D01*
X178938571Y-132142381D01*
X178843333Y-132094762D01*
X178795714Y-132047143D01*
X178748095Y-131951905D01*
X178700476Y-131761429D01*
X178700476Y-131523333D01*
X178748095Y-131332857D01*
X178795714Y-131237619D01*
X178843333Y-131190000D01*
X178938571Y-131142381D01*
X180224286Y-132142381D02*
X179652857Y-132142381D01*
X179938571Y-132142381D02*
X179938571Y-131142381D01*
X179843333Y-131285238D01*
X179748095Y-131380476D01*
X179652857Y-131428095D01*
X112917143Y-137066666D02*
X112964762Y-137114285D01*
X113012381Y-137257142D01*
X113012381Y-137352380D01*
X112964762Y-137495238D01*
X112869524Y-137590476D01*
X112774286Y-137638095D01*
X112583810Y-137685714D01*
X112440952Y-137685714D01*
X112250476Y-137638095D01*
X112155238Y-137590476D01*
X112060000Y-137495238D01*
X112012381Y-137352380D01*
X112012381Y-137257142D01*
X112060000Y-137114285D01*
X112107619Y-137066666D01*
X113012381Y-136114285D02*
X113012381Y-136685714D01*
X113012381Y-136400000D02*
X112012381Y-136400000D01*
X112155238Y-136495238D01*
X112250476Y-136590476D01*
X112298095Y-136685714D01*
X207843334Y-127982143D02*
X207795715Y-128029762D01*
X207652858Y-128077381D01*
X207557620Y-128077381D01*
X207414762Y-128029762D01*
X207319524Y-127934524D01*
X207271905Y-127839286D01*
X207224286Y-127648810D01*
X207224286Y-127505952D01*
X207271905Y-127315476D01*
X207319524Y-127220238D01*
X207414762Y-127125000D01*
X207557620Y-127077381D01*
X207652858Y-127077381D01*
X207795715Y-127125000D01*
X207843334Y-127172619D01*
X208224286Y-127172619D02*
X208271905Y-127125000D01*
X208367143Y-127077381D01*
X208605239Y-127077381D01*
X208700477Y-127125000D01*
X208748096Y-127172619D01*
X208795715Y-127267857D01*
X208795715Y-127363095D01*
X208748096Y-127505952D01*
X208176667Y-128077381D01*
X208795715Y-128077381D01*
X117617143Y-93916666D02*
X117664762Y-93964285D01*
X117712381Y-94107142D01*
X117712381Y-94202380D01*
X117664762Y-94345238D01*
X117569524Y-94440476D01*
X117474286Y-94488095D01*
X117283810Y-94535714D01*
X117140952Y-94535714D01*
X116950476Y-94488095D01*
X116855238Y-94440476D01*
X116760000Y-94345238D01*
X116712381Y-94202380D01*
X116712381Y-94107142D01*
X116760000Y-93964285D01*
X116807619Y-93916666D01*
X116712381Y-93583333D02*
X116712381Y-92964285D01*
X117093333Y-93297619D01*
X117093333Y-93154761D01*
X117140952Y-93059523D01*
X117188571Y-93011904D01*
X117283810Y-92964285D01*
X117521905Y-92964285D01*
X117617143Y-93011904D01*
X117664762Y-93059523D01*
X117712381Y-93154761D01*
X117712381Y-93440476D01*
X117664762Y-93535714D01*
X117617143Y-93583333D01*
X133333334Y-136807143D02*
X133285715Y-136854762D01*
X133142858Y-136902381D01*
X133047620Y-136902381D01*
X132904762Y-136854762D01*
X132809524Y-136759524D01*
X132761905Y-136664286D01*
X132714286Y-136473810D01*
X132714286Y-136330952D01*
X132761905Y-136140476D01*
X132809524Y-136045238D01*
X132904762Y-135950000D01*
X133047620Y-135902381D01*
X133142858Y-135902381D01*
X133285715Y-135950000D01*
X133333334Y-135997619D01*
X134190477Y-136235714D02*
X134190477Y-136902381D01*
X133952381Y-135854762D02*
X133714286Y-136569048D01*
X134333334Y-136569048D01*
X100917143Y-122916666D02*
X100964762Y-122964285D01*
X101012381Y-123107142D01*
X101012381Y-123202380D01*
X100964762Y-123345238D01*
X100869524Y-123440476D01*
X100774286Y-123488095D01*
X100583810Y-123535714D01*
X100440952Y-123535714D01*
X100250476Y-123488095D01*
X100155238Y-123440476D01*
X100060000Y-123345238D01*
X100012381Y-123202380D01*
X100012381Y-123107142D01*
X100060000Y-122964285D01*
X100107619Y-122916666D01*
X100012381Y-122011904D02*
X100012381Y-122488095D01*
X100488571Y-122535714D01*
X100440952Y-122488095D01*
X100393333Y-122392857D01*
X100393333Y-122154761D01*
X100440952Y-122059523D01*
X100488571Y-122011904D01*
X100583810Y-121964285D01*
X100821905Y-121964285D01*
X100917143Y-122011904D01*
X100964762Y-122059523D01*
X101012381Y-122154761D01*
X101012381Y-122392857D01*
X100964762Y-122488095D01*
X100917143Y-122535714D01*
X133433334Y-144207143D02*
X133385715Y-144254762D01*
X133242858Y-144302381D01*
X133147620Y-144302381D01*
X133004762Y-144254762D01*
X132909524Y-144159524D01*
X132861905Y-144064286D01*
X132814286Y-143873810D01*
X132814286Y-143730952D01*
X132861905Y-143540476D01*
X132909524Y-143445238D01*
X133004762Y-143350000D01*
X133147620Y-143302381D01*
X133242858Y-143302381D01*
X133385715Y-143350000D01*
X133433334Y-143397619D01*
X134290477Y-143302381D02*
X134100000Y-143302381D01*
X134004762Y-143350000D01*
X133957143Y-143397619D01*
X133861905Y-143540476D01*
X133814286Y-143730952D01*
X133814286Y-144111905D01*
X133861905Y-144207143D01*
X133909524Y-144254762D01*
X134004762Y-144302381D01*
X134195239Y-144302381D01*
X134290477Y-144254762D01*
X134338096Y-144207143D01*
X134385715Y-144111905D01*
X134385715Y-143873810D01*
X134338096Y-143778571D01*
X134290477Y-143730952D01*
X134195239Y-143683333D01*
X134004762Y-143683333D01*
X133909524Y-143730952D01*
X133861905Y-143778571D01*
X133814286Y-143873810D01*
X149083334Y-114417143D02*
X149035715Y-114464762D01*
X148892858Y-114512381D01*
X148797620Y-114512381D01*
X148654762Y-114464762D01*
X148559524Y-114369524D01*
X148511905Y-114274286D01*
X148464286Y-114083810D01*
X148464286Y-113940952D01*
X148511905Y-113750476D01*
X148559524Y-113655238D01*
X148654762Y-113560000D01*
X148797620Y-113512381D01*
X148892858Y-113512381D01*
X149035715Y-113560000D01*
X149083334Y-113607619D01*
X149416667Y-113512381D02*
X150083334Y-113512381D01*
X149654762Y-114512381D01*
X133333334Y-138607143D02*
X133285715Y-138654762D01*
X133142858Y-138702381D01*
X133047620Y-138702381D01*
X132904762Y-138654762D01*
X132809524Y-138559524D01*
X132761905Y-138464286D01*
X132714286Y-138273810D01*
X132714286Y-138130952D01*
X132761905Y-137940476D01*
X132809524Y-137845238D01*
X132904762Y-137750000D01*
X133047620Y-137702381D01*
X133142858Y-137702381D01*
X133285715Y-137750000D01*
X133333334Y-137797619D01*
X133904762Y-138130952D02*
X133809524Y-138083333D01*
X133761905Y-138035714D01*
X133714286Y-137940476D01*
X133714286Y-137892857D01*
X133761905Y-137797619D01*
X133809524Y-137750000D01*
X133904762Y-137702381D01*
X134095239Y-137702381D01*
X134190477Y-137750000D01*
X134238096Y-137797619D01*
X134285715Y-137892857D01*
X134285715Y-137940476D01*
X134238096Y-138035714D01*
X134190477Y-138083333D01*
X134095239Y-138130952D01*
X133904762Y-138130952D01*
X133809524Y-138178571D01*
X133761905Y-138226190D01*
X133714286Y-138321429D01*
X133714286Y-138511905D01*
X133761905Y-138607143D01*
X133809524Y-138654762D01*
X133904762Y-138702381D01*
X134095239Y-138702381D01*
X134190477Y-138654762D01*
X134238096Y-138607143D01*
X134285715Y-138511905D01*
X134285715Y-138321429D01*
X134238096Y-138226190D01*
X134190477Y-138178571D01*
X134095239Y-138130952D01*
X154133334Y-69417143D02*
X154085715Y-69464762D01*
X153942858Y-69512381D01*
X153847620Y-69512381D01*
X153704762Y-69464762D01*
X153609524Y-69369524D01*
X153561905Y-69274286D01*
X153514286Y-69083810D01*
X153514286Y-68940952D01*
X153561905Y-68750476D01*
X153609524Y-68655238D01*
X153704762Y-68560000D01*
X153847620Y-68512381D01*
X153942858Y-68512381D01*
X154085715Y-68560000D01*
X154133334Y-68607619D01*
X154609524Y-69512381D02*
X154800000Y-69512381D01*
X154895239Y-69464762D01*
X154942858Y-69417143D01*
X155038096Y-69274286D01*
X155085715Y-69083810D01*
X155085715Y-68702857D01*
X155038096Y-68607619D01*
X154990477Y-68560000D01*
X154895239Y-68512381D01*
X154704762Y-68512381D01*
X154609524Y-68560000D01*
X154561905Y-68607619D01*
X154514286Y-68702857D01*
X154514286Y-68940952D01*
X154561905Y-69036190D01*
X154609524Y-69083810D01*
X154704762Y-69131429D01*
X154895239Y-69131429D01*
X154990477Y-69083810D01*
X155038096Y-69036190D01*
X155085715Y-68940952D01*
X131357143Y-104607143D02*
X131309524Y-104654762D01*
X131166667Y-104702381D01*
X131071429Y-104702381D01*
X130928571Y-104654762D01*
X130833333Y-104559524D01*
X130785714Y-104464286D01*
X130738095Y-104273810D01*
X130738095Y-104130952D01*
X130785714Y-103940476D01*
X130833333Y-103845238D01*
X130928571Y-103750000D01*
X131071429Y-103702381D01*
X131166667Y-103702381D01*
X131309524Y-103750000D01*
X131357143Y-103797619D01*
X132309524Y-104702381D02*
X131738095Y-104702381D01*
X132023809Y-104702381D02*
X132023809Y-103702381D01*
X131928571Y-103845238D01*
X131833333Y-103940476D01*
X131738095Y-103988095D01*
X132928571Y-103702381D02*
X133023810Y-103702381D01*
X133119048Y-103750000D01*
X133166667Y-103797619D01*
X133214286Y-103892857D01*
X133261905Y-104083333D01*
X133261905Y-104321429D01*
X133214286Y-104511905D01*
X133166667Y-104607143D01*
X133119048Y-104654762D01*
X133023810Y-104702381D01*
X132928571Y-104702381D01*
X132833333Y-104654762D01*
X132785714Y-104607143D01*
X132738095Y-104511905D01*
X132690476Y-104321429D01*
X132690476Y-104083333D01*
X132738095Y-103892857D01*
X132785714Y-103797619D01*
X132833333Y-103750000D01*
X132928571Y-103702381D01*
X174717143Y-108442857D02*
X174764762Y-108490476D01*
X174812381Y-108633333D01*
X174812381Y-108728571D01*
X174764762Y-108871429D01*
X174669524Y-108966667D01*
X174574286Y-109014286D01*
X174383810Y-109061905D01*
X174240952Y-109061905D01*
X174050476Y-109014286D01*
X173955238Y-108966667D01*
X173860000Y-108871429D01*
X173812381Y-108728571D01*
X173812381Y-108633333D01*
X173860000Y-108490476D01*
X173907619Y-108442857D01*
X174812381Y-107490476D02*
X174812381Y-108061905D01*
X174812381Y-107776191D02*
X173812381Y-107776191D01*
X173955238Y-107871429D01*
X174050476Y-107966667D01*
X174098095Y-108061905D01*
X174812381Y-106538095D02*
X174812381Y-107109524D01*
X174812381Y-106823810D02*
X173812381Y-106823810D01*
X173955238Y-106919048D01*
X174050476Y-107014286D01*
X174098095Y-107109524D01*
X216417143Y-86392857D02*
X216464762Y-86440476D01*
X216512381Y-86583333D01*
X216512381Y-86678571D01*
X216464762Y-86821429D01*
X216369524Y-86916667D01*
X216274286Y-86964286D01*
X216083810Y-87011905D01*
X215940952Y-87011905D01*
X215750476Y-86964286D01*
X215655238Y-86916667D01*
X215560000Y-86821429D01*
X215512381Y-86678571D01*
X215512381Y-86583333D01*
X215560000Y-86440476D01*
X215607619Y-86392857D01*
X216512381Y-85440476D02*
X216512381Y-86011905D01*
X216512381Y-85726191D02*
X215512381Y-85726191D01*
X215655238Y-85821429D01*
X215750476Y-85916667D01*
X215798095Y-86011905D01*
X215607619Y-85059524D02*
X215560000Y-85011905D01*
X215512381Y-84916667D01*
X215512381Y-84678571D01*
X215560000Y-84583333D01*
X215607619Y-84535714D01*
X215702857Y-84488095D01*
X215798095Y-84488095D01*
X215940952Y-84535714D01*
X216512381Y-85107143D01*
X216512381Y-84488095D01*
X184997143Y-135192857D02*
X185044762Y-135240476D01*
X185092381Y-135383333D01*
X185092381Y-135478571D01*
X185044762Y-135621429D01*
X184949524Y-135716667D01*
X184854286Y-135764286D01*
X184663810Y-135811905D01*
X184520952Y-135811905D01*
X184330476Y-135764286D01*
X184235238Y-135716667D01*
X184140000Y-135621429D01*
X184092381Y-135478571D01*
X184092381Y-135383333D01*
X184140000Y-135240476D01*
X184187619Y-135192857D01*
X185092381Y-134240476D02*
X185092381Y-134811905D01*
X185092381Y-134526191D02*
X184092381Y-134526191D01*
X184235238Y-134621429D01*
X184330476Y-134716667D01*
X184378095Y-134811905D01*
X184092381Y-133907143D02*
X184092381Y-133288095D01*
X184473333Y-133621429D01*
X184473333Y-133478571D01*
X184520952Y-133383333D01*
X184568571Y-133335714D01*
X184663810Y-133288095D01*
X184901905Y-133288095D01*
X184997143Y-133335714D01*
X185044762Y-133383333D01*
X185092381Y-133478571D01*
X185092381Y-133764286D01*
X185044762Y-133859524D01*
X184997143Y-133907143D01*
X190697143Y-66292857D02*
X190744762Y-66340476D01*
X190792381Y-66483333D01*
X190792381Y-66578571D01*
X190744762Y-66721429D01*
X190649524Y-66816667D01*
X190554286Y-66864286D01*
X190363810Y-66911905D01*
X190220952Y-66911905D01*
X190030476Y-66864286D01*
X189935238Y-66816667D01*
X189840000Y-66721429D01*
X189792381Y-66578571D01*
X189792381Y-66483333D01*
X189840000Y-66340476D01*
X189887619Y-66292857D01*
X190792381Y-65340476D02*
X190792381Y-65911905D01*
X190792381Y-65626191D02*
X189792381Y-65626191D01*
X189935238Y-65721429D01*
X190030476Y-65816667D01*
X190078095Y-65911905D01*
X190125714Y-64483333D02*
X190792381Y-64483333D01*
X189744762Y-64721429D02*
X190459048Y-64959524D01*
X190459048Y-64340476D01*
X195197143Y-134342857D02*
X195244762Y-134390476D01*
X195292381Y-134533333D01*
X195292381Y-134628571D01*
X195244762Y-134771429D01*
X195149524Y-134866667D01*
X195054286Y-134914286D01*
X194863810Y-134961905D01*
X194720952Y-134961905D01*
X194530476Y-134914286D01*
X194435238Y-134866667D01*
X194340000Y-134771429D01*
X194292381Y-134628571D01*
X194292381Y-134533333D01*
X194340000Y-134390476D01*
X194387619Y-134342857D01*
X195292381Y-133390476D02*
X195292381Y-133961905D01*
X195292381Y-133676191D02*
X194292381Y-133676191D01*
X194435238Y-133771429D01*
X194530476Y-133866667D01*
X194578095Y-133961905D01*
X194292381Y-132485714D02*
X194292381Y-132961905D01*
X194768571Y-133009524D01*
X194720952Y-132961905D01*
X194673333Y-132866667D01*
X194673333Y-132628571D01*
X194720952Y-132533333D01*
X194768571Y-132485714D01*
X194863810Y-132438095D01*
X195101905Y-132438095D01*
X195197143Y-132485714D01*
X195244762Y-132533333D01*
X195292381Y-132628571D01*
X195292381Y-132866667D01*
X195244762Y-132961905D01*
X195197143Y-133009524D01*
X190957143Y-127017143D02*
X190909524Y-127064762D01*
X190766667Y-127112381D01*
X190671429Y-127112381D01*
X190528571Y-127064762D01*
X190433333Y-126969524D01*
X190385714Y-126874286D01*
X190338095Y-126683810D01*
X190338095Y-126540952D01*
X190385714Y-126350476D01*
X190433333Y-126255238D01*
X190528571Y-126160000D01*
X190671429Y-126112381D01*
X190766667Y-126112381D01*
X190909524Y-126160000D01*
X190957143Y-126207619D01*
X191909524Y-127112381D02*
X191338095Y-127112381D01*
X191623809Y-127112381D02*
X191623809Y-126112381D01*
X191528571Y-126255238D01*
X191433333Y-126350476D01*
X191338095Y-126398095D01*
X192766667Y-126112381D02*
X192576190Y-126112381D01*
X192480952Y-126160000D01*
X192433333Y-126207619D01*
X192338095Y-126350476D01*
X192290476Y-126540952D01*
X192290476Y-126921905D01*
X192338095Y-127017143D01*
X192385714Y-127064762D01*
X192480952Y-127112381D01*
X192671429Y-127112381D01*
X192766667Y-127064762D01*
X192814286Y-127017143D01*
X192861905Y-126921905D01*
X192861905Y-126683810D01*
X192814286Y-126588571D01*
X192766667Y-126540952D01*
X192671429Y-126493333D01*
X192480952Y-126493333D01*
X192385714Y-126540952D01*
X192338095Y-126588571D01*
X192290476Y-126683810D01*
X162797143Y-136142857D02*
X162844762Y-136190476D01*
X162892381Y-136333333D01*
X162892381Y-136428571D01*
X162844762Y-136571429D01*
X162749524Y-136666667D01*
X162654286Y-136714286D01*
X162463810Y-136761905D01*
X162320952Y-136761905D01*
X162130476Y-136714286D01*
X162035238Y-136666667D01*
X161940000Y-136571429D01*
X161892381Y-136428571D01*
X161892381Y-136333333D01*
X161940000Y-136190476D01*
X161987619Y-136142857D01*
X162892381Y-135190476D02*
X162892381Y-135761905D01*
X162892381Y-135476191D02*
X161892381Y-135476191D01*
X162035238Y-135571429D01*
X162130476Y-135666667D01*
X162178095Y-135761905D01*
X161892381Y-134857143D02*
X161892381Y-134190476D01*
X162892381Y-134619048D01*
X190857143Y-118417143D02*
X190809524Y-118464762D01*
X190666667Y-118512381D01*
X190571429Y-118512381D01*
X190428571Y-118464762D01*
X190333333Y-118369524D01*
X190285714Y-118274286D01*
X190238095Y-118083810D01*
X190238095Y-117940952D01*
X190285714Y-117750476D01*
X190333333Y-117655238D01*
X190428571Y-117560000D01*
X190571429Y-117512381D01*
X190666667Y-117512381D01*
X190809524Y-117560000D01*
X190857143Y-117607619D01*
X191809524Y-118512381D02*
X191238095Y-118512381D01*
X191523809Y-118512381D02*
X191523809Y-117512381D01*
X191428571Y-117655238D01*
X191333333Y-117750476D01*
X191238095Y-117798095D01*
X192380952Y-117940952D02*
X192285714Y-117893333D01*
X192238095Y-117845714D01*
X192190476Y-117750476D01*
X192190476Y-117702857D01*
X192238095Y-117607619D01*
X192285714Y-117560000D01*
X192380952Y-117512381D01*
X192571429Y-117512381D01*
X192666667Y-117560000D01*
X192714286Y-117607619D01*
X192761905Y-117702857D01*
X192761905Y-117750476D01*
X192714286Y-117845714D01*
X192666667Y-117893333D01*
X192571429Y-117940952D01*
X192380952Y-117940952D01*
X192285714Y-117988571D01*
X192238095Y-118036190D01*
X192190476Y-118131429D01*
X192190476Y-118321905D01*
X192238095Y-118417143D01*
X192285714Y-118464762D01*
X192380952Y-118512381D01*
X192571429Y-118512381D01*
X192666667Y-118464762D01*
X192714286Y-118417143D01*
X192761905Y-118321905D01*
X192761905Y-118131429D01*
X192714286Y-118036190D01*
X192666667Y-117988571D01*
X192571429Y-117940952D01*
X215912381Y-95008095D02*
X214912381Y-95008095D01*
X214912381Y-94770000D01*
X214960000Y-94627142D01*
X215055238Y-94531904D01*
X215150476Y-94484285D01*
X215340952Y-94436666D01*
X215483810Y-94436666D01*
X215674286Y-94484285D01*
X215769524Y-94531904D01*
X215864762Y-94627142D01*
X215912381Y-94770000D01*
X215912381Y-95008095D01*
X215912381Y-93484285D02*
X215912381Y-94055714D01*
X215912381Y-93770000D02*
X214912381Y-93770000D01*
X215055238Y-93865238D01*
X215150476Y-93960476D01*
X215198095Y-94055714D01*
X70552381Y-65188095D02*
X69552381Y-65188095D01*
X69552381Y-64807142D01*
X69600000Y-64711904D01*
X69647619Y-64664285D01*
X69742857Y-64616666D01*
X69885714Y-64616666D01*
X69980952Y-64664285D01*
X70028571Y-64711904D01*
X70076190Y-64807142D01*
X70076190Y-65188095D01*
X70552381Y-63664285D02*
X70552381Y-64235714D01*
X70552381Y-63950000D02*
X69552381Y-63950000D01*
X69695238Y-64045238D01*
X69790476Y-64140476D01*
X69838095Y-64235714D01*
X98452381Y-106238095D02*
X97452381Y-106238095D01*
X97452381Y-105857142D01*
X97500000Y-105761904D01*
X97547619Y-105714285D01*
X97642857Y-105666666D01*
X97785714Y-105666666D01*
X97880952Y-105714285D01*
X97928571Y-105761904D01*
X97976190Y-105857142D01*
X97976190Y-106238095D01*
X97547619Y-105285714D02*
X97500000Y-105238095D01*
X97452381Y-105142857D01*
X97452381Y-104904761D01*
X97500000Y-104809523D01*
X97547619Y-104761904D01*
X97642857Y-104714285D01*
X97738095Y-104714285D01*
X97880952Y-104761904D01*
X98452381Y-105333333D01*
X98452381Y-104714285D01*
X69511905Y-128452381D02*
X69511905Y-127452381D01*
X69892858Y-127452381D01*
X69988096Y-127500000D01*
X70035715Y-127547619D01*
X70083334Y-127642857D01*
X70083334Y-127785714D01*
X70035715Y-127880952D01*
X69988096Y-127928571D01*
X69892858Y-127976190D01*
X69511905Y-127976190D01*
X70416667Y-127452381D02*
X71035715Y-127452381D01*
X70702381Y-127833333D01*
X70845239Y-127833333D01*
X70940477Y-127880952D01*
X70988096Y-127928571D01*
X71035715Y-128023810D01*
X71035715Y-128261905D01*
X70988096Y-128357143D01*
X70940477Y-128404762D01*
X70845239Y-128452381D01*
X70559524Y-128452381D01*
X70464286Y-128404762D01*
X70416667Y-128357143D01*
X69511905Y-119452381D02*
X69511905Y-118452381D01*
X69892858Y-118452381D01*
X69988096Y-118500000D01*
X70035715Y-118547619D01*
X70083334Y-118642857D01*
X70083334Y-118785714D01*
X70035715Y-118880952D01*
X69988096Y-118928571D01*
X69892858Y-118976190D01*
X69511905Y-118976190D01*
X70940477Y-118785714D02*
X70940477Y-119452381D01*
X70702381Y-118404762D02*
X70464286Y-119119048D01*
X71083334Y-119119048D01*
X69511905Y-110452381D02*
X69511905Y-109452381D01*
X69892858Y-109452381D01*
X69988096Y-109500000D01*
X70035715Y-109547619D01*
X70083334Y-109642857D01*
X70083334Y-109785714D01*
X70035715Y-109880952D01*
X69988096Y-109928571D01*
X69892858Y-109976190D01*
X69511905Y-109976190D01*
X70988096Y-109452381D02*
X70511905Y-109452381D01*
X70464286Y-109928571D01*
X70511905Y-109880952D01*
X70607143Y-109833333D01*
X70845239Y-109833333D01*
X70940477Y-109880952D01*
X70988096Y-109928571D01*
X71035715Y-110023810D01*
X71035715Y-110261905D01*
X70988096Y-110357143D01*
X70940477Y-110404762D01*
X70845239Y-110452381D01*
X70607143Y-110452381D01*
X70511905Y-110404762D01*
X70464286Y-110357143D01*
X69511905Y-101452381D02*
X69511905Y-100452381D01*
X69892858Y-100452381D01*
X69988096Y-100500000D01*
X70035715Y-100547619D01*
X70083334Y-100642857D01*
X70083334Y-100785714D01*
X70035715Y-100880952D01*
X69988096Y-100928571D01*
X69892858Y-100976190D01*
X69511905Y-100976190D01*
X70940477Y-100452381D02*
X70750000Y-100452381D01*
X70654762Y-100500000D01*
X70607143Y-100547619D01*
X70511905Y-100690476D01*
X70464286Y-100880952D01*
X70464286Y-101261905D01*
X70511905Y-101357143D01*
X70559524Y-101404762D01*
X70654762Y-101452381D01*
X70845239Y-101452381D01*
X70940477Y-101404762D01*
X70988096Y-101357143D01*
X71035715Y-101261905D01*
X71035715Y-101023810D01*
X70988096Y-100928571D01*
X70940477Y-100880952D01*
X70845239Y-100833333D01*
X70654762Y-100833333D01*
X70559524Y-100880952D01*
X70511905Y-100928571D01*
X70464286Y-101023810D01*
X80261905Y-141952381D02*
X80261905Y-140952381D01*
X80642858Y-140952381D01*
X80738096Y-141000000D01*
X80785715Y-141047619D01*
X80833334Y-141142857D01*
X80833334Y-141285714D01*
X80785715Y-141380952D01*
X80738096Y-141428571D01*
X80642858Y-141476190D01*
X80261905Y-141476190D01*
X81166667Y-140952381D02*
X81833334Y-140952381D01*
X81404762Y-141952381D01*
X113452381Y-62988095D02*
X112452381Y-62988095D01*
X112452381Y-62607142D01*
X112500000Y-62511904D01*
X112547619Y-62464285D01*
X112642857Y-62416666D01*
X112785714Y-62416666D01*
X112880952Y-62464285D01*
X112928571Y-62511904D01*
X112976190Y-62607142D01*
X112976190Y-62988095D01*
X112880952Y-61845238D02*
X112833333Y-61940476D01*
X112785714Y-61988095D01*
X112690476Y-62035714D01*
X112642857Y-62035714D01*
X112547619Y-61988095D01*
X112500000Y-61940476D01*
X112452381Y-61845238D01*
X112452381Y-61654761D01*
X112500000Y-61559523D01*
X112547619Y-61511904D01*
X112642857Y-61464285D01*
X112690476Y-61464285D01*
X112785714Y-61511904D01*
X112833333Y-61559523D01*
X112880952Y-61654761D01*
X112880952Y-61845238D01*
X112928571Y-61940476D01*
X112976190Y-61988095D01*
X113071429Y-62035714D01*
X113261905Y-62035714D01*
X113357143Y-61988095D01*
X113404762Y-61940476D01*
X113452381Y-61845238D01*
X113452381Y-61654761D01*
X113404762Y-61559523D01*
X113357143Y-61511904D01*
X113261905Y-61464285D01*
X113071429Y-61464285D01*
X112976190Y-61511904D01*
X112928571Y-61559523D01*
X112880952Y-61654761D01*
X128952381Y-114988095D02*
X127952381Y-114988095D01*
X127952381Y-114607142D01*
X128000000Y-114511904D01*
X128047619Y-114464285D01*
X128142857Y-114416666D01*
X128285714Y-114416666D01*
X128380952Y-114464285D01*
X128428571Y-114511904D01*
X128476190Y-114607142D01*
X128476190Y-114988095D01*
X128952381Y-113940476D02*
X128952381Y-113750000D01*
X128904762Y-113654761D01*
X128857143Y-113607142D01*
X128714286Y-113511904D01*
X128523810Y-113464285D01*
X128142857Y-113464285D01*
X128047619Y-113511904D01*
X128000000Y-113559523D01*
X127952381Y-113654761D01*
X127952381Y-113845238D01*
X128000000Y-113940476D01*
X128047619Y-113988095D01*
X128142857Y-114035714D01*
X128380952Y-114035714D01*
X128476190Y-113988095D01*
X128523810Y-113940476D01*
X128571429Y-113845238D01*
X128571429Y-113654761D01*
X128523810Y-113559523D01*
X128476190Y-113511904D01*
X128380952Y-113464285D01*
X128952381Y-126464286D02*
X127952381Y-126464286D01*
X127952381Y-126083333D01*
X128000000Y-125988095D01*
X128047619Y-125940476D01*
X128142857Y-125892857D01*
X128285714Y-125892857D01*
X128380952Y-125940476D01*
X128428571Y-125988095D01*
X128476190Y-126083333D01*
X128476190Y-126464286D01*
X128952381Y-124940476D02*
X128952381Y-125511905D01*
X128952381Y-125226191D02*
X127952381Y-125226191D01*
X128095238Y-125321429D01*
X128190476Y-125416667D01*
X128238095Y-125511905D01*
X127952381Y-124321429D02*
X127952381Y-124226190D01*
X128000000Y-124130952D01*
X128047619Y-124083333D01*
X128142857Y-124035714D01*
X128333333Y-123988095D01*
X128571429Y-123988095D01*
X128761905Y-124035714D01*
X128857143Y-124083333D01*
X128904762Y-124130952D01*
X128952381Y-124226190D01*
X128952381Y-124321429D01*
X128904762Y-124416667D01*
X128857143Y-124464286D01*
X128761905Y-124511905D01*
X128571429Y-124559524D01*
X128333333Y-124559524D01*
X128142857Y-124511905D01*
X128047619Y-124464286D01*
X128000000Y-124416667D01*
X127952381Y-124321429D01*
X152035714Y-53952381D02*
X152035714Y-52952381D01*
X152416667Y-52952381D01*
X152511905Y-53000000D01*
X152559524Y-53047619D01*
X152607143Y-53142857D01*
X152607143Y-53285714D01*
X152559524Y-53380952D01*
X152511905Y-53428571D01*
X152416667Y-53476190D01*
X152035714Y-53476190D01*
X153559524Y-53952381D02*
X152988095Y-53952381D01*
X153273809Y-53952381D02*
X153273809Y-52952381D01*
X153178571Y-53095238D01*
X153083333Y-53190476D01*
X152988095Y-53238095D01*
X154511905Y-53952381D02*
X153940476Y-53952381D01*
X154226190Y-53952381D02*
X154226190Y-52952381D01*
X154130952Y-53095238D01*
X154035714Y-53190476D01*
X153940476Y-53238095D01*
X170535714Y-60452381D02*
X170535714Y-59452381D01*
X170916667Y-59452381D01*
X171011905Y-59500000D01*
X171059524Y-59547619D01*
X171107143Y-59642857D01*
X171107143Y-59785714D01*
X171059524Y-59880952D01*
X171011905Y-59928571D01*
X170916667Y-59976190D01*
X170535714Y-59976190D01*
X172059524Y-60452381D02*
X171488095Y-60452381D01*
X171773809Y-60452381D02*
X171773809Y-59452381D01*
X171678571Y-59595238D01*
X171583333Y-59690476D01*
X171488095Y-59738095D01*
X172440476Y-59547619D02*
X172488095Y-59500000D01*
X172583333Y-59452381D01*
X172821429Y-59452381D01*
X172916667Y-59500000D01*
X172964286Y-59547619D01*
X173011905Y-59642857D01*
X173011905Y-59738095D01*
X172964286Y-59880952D01*
X172392857Y-60452381D01*
X173011905Y-60452381D01*
X189235714Y-53752381D02*
X189235714Y-52752381D01*
X189616667Y-52752381D01*
X189711905Y-52800000D01*
X189759524Y-52847619D01*
X189807143Y-52942857D01*
X189807143Y-53085714D01*
X189759524Y-53180952D01*
X189711905Y-53228571D01*
X189616667Y-53276190D01*
X189235714Y-53276190D01*
X190759524Y-53752381D02*
X190188095Y-53752381D01*
X190473809Y-53752381D02*
X190473809Y-52752381D01*
X190378571Y-52895238D01*
X190283333Y-52990476D01*
X190188095Y-53038095D01*
X191092857Y-52752381D02*
X191711905Y-52752381D01*
X191378571Y-53133333D01*
X191521429Y-53133333D01*
X191616667Y-53180952D01*
X191664286Y-53228571D01*
X191711905Y-53323810D01*
X191711905Y-53561905D01*
X191664286Y-53657143D01*
X191616667Y-53704762D01*
X191521429Y-53752381D01*
X191235714Y-53752381D01*
X191140476Y-53704762D01*
X191092857Y-53657143D01*
X186535714Y-141452381D02*
X186535714Y-140452381D01*
X186916667Y-140452381D01*
X187011905Y-140500000D01*
X187059524Y-140547619D01*
X187107143Y-140642857D01*
X187107143Y-140785714D01*
X187059524Y-140880952D01*
X187011905Y-140928571D01*
X186916667Y-140976190D01*
X186535714Y-140976190D01*
X188059524Y-141452381D02*
X187488095Y-141452381D01*
X187773809Y-141452381D02*
X187773809Y-140452381D01*
X187678571Y-140595238D01*
X187583333Y-140690476D01*
X187488095Y-140738095D01*
X188916667Y-140785714D02*
X188916667Y-141452381D01*
X188678571Y-140404762D02*
X188440476Y-141119048D01*
X189059524Y-141119048D01*
X198852381Y-120064286D02*
X197852381Y-120064286D01*
X197852381Y-119683333D01*
X197900000Y-119588095D01*
X197947619Y-119540476D01*
X198042857Y-119492857D01*
X198185714Y-119492857D01*
X198280952Y-119540476D01*
X198328571Y-119588095D01*
X198376190Y-119683333D01*
X198376190Y-120064286D01*
X198852381Y-118540476D02*
X198852381Y-119111905D01*
X198852381Y-118826191D02*
X197852381Y-118826191D01*
X197995238Y-118921429D01*
X198090476Y-119016667D01*
X198138095Y-119111905D01*
X197852381Y-117635714D02*
X197852381Y-118111905D01*
X198328571Y-118159524D01*
X198280952Y-118111905D01*
X198233333Y-118016667D01*
X198233333Y-117778571D01*
X198280952Y-117683333D01*
X198328571Y-117635714D01*
X198423810Y-117588095D01*
X198661905Y-117588095D01*
X198757143Y-117635714D01*
X198804762Y-117683333D01*
X198852381Y-117778571D01*
X198852381Y-118016667D01*
X198804762Y-118111905D01*
X198757143Y-118159524D01*
X81035714Y-114452381D02*
X81035714Y-113452381D01*
X81416667Y-113452381D01*
X81511905Y-113500000D01*
X81559524Y-113547619D01*
X81607143Y-113642857D01*
X81607143Y-113785714D01*
X81559524Y-113880952D01*
X81511905Y-113928571D01*
X81416667Y-113976190D01*
X81035714Y-113976190D01*
X82559524Y-114452381D02*
X81988095Y-114452381D01*
X82273809Y-114452381D02*
X82273809Y-113452381D01*
X82178571Y-113595238D01*
X82083333Y-113690476D01*
X81988095Y-113738095D01*
X83416667Y-113452381D02*
X83226190Y-113452381D01*
X83130952Y-113500000D01*
X83083333Y-113547619D01*
X82988095Y-113690476D01*
X82940476Y-113880952D01*
X82940476Y-114261905D01*
X82988095Y-114357143D01*
X83035714Y-114404762D01*
X83130952Y-114452381D01*
X83321429Y-114452381D01*
X83416667Y-114404762D01*
X83464286Y-114357143D01*
X83511905Y-114261905D01*
X83511905Y-114023810D01*
X83464286Y-113928571D01*
X83416667Y-113880952D01*
X83321429Y-113833333D01*
X83130952Y-113833333D01*
X83035714Y-113880952D01*
X82988095Y-113928571D01*
X82940476Y-114023810D01*
X159765619Y-124595238D02*
X159718000Y-124690476D01*
X159622762Y-124785714D01*
X159479905Y-124928571D01*
X159432286Y-125023810D01*
X159432286Y-125119048D01*
X159670381Y-125071429D02*
X159622762Y-125166667D01*
X159527524Y-125261905D01*
X159337048Y-125309524D01*
X159003714Y-125309524D01*
X158813238Y-125261905D01*
X158718000Y-125166667D01*
X158670381Y-125071429D01*
X158670381Y-124880952D01*
X158718000Y-124785714D01*
X158813238Y-124690476D01*
X159003714Y-124642857D01*
X159337048Y-124642857D01*
X159527524Y-124690476D01*
X159622762Y-124785714D01*
X159670381Y-124880952D01*
X159670381Y-125071429D01*
X159670381Y-123690476D02*
X159670381Y-124261905D01*
X159670381Y-123976191D02*
X158670381Y-123976191D01*
X158813238Y-124071429D01*
X158908476Y-124166667D01*
X158956095Y-124261905D01*
X62252381Y-127166666D02*
X61776190Y-127500000D01*
X62252381Y-127738095D02*
X61252381Y-127738095D01*
X61252381Y-127357142D01*
X61300000Y-127261904D01*
X61347619Y-127214285D01*
X61442857Y-127166666D01*
X61585714Y-127166666D01*
X61680952Y-127214285D01*
X61728571Y-127261904D01*
X61776190Y-127357142D01*
X61776190Y-127738095D01*
X61347619Y-126785714D02*
X61300000Y-126738095D01*
X61252381Y-126642857D01*
X61252381Y-126404761D01*
X61300000Y-126309523D01*
X61347619Y-126261904D01*
X61442857Y-126214285D01*
X61538095Y-126214285D01*
X61680952Y-126261904D01*
X62252381Y-126833333D01*
X62252381Y-126214285D01*
X62252381Y-118666666D02*
X61776190Y-119000000D01*
X62252381Y-119238095D02*
X61252381Y-119238095D01*
X61252381Y-118857142D01*
X61300000Y-118761904D01*
X61347619Y-118714285D01*
X61442857Y-118666666D01*
X61585714Y-118666666D01*
X61680952Y-118714285D01*
X61728571Y-118761904D01*
X61776190Y-118857142D01*
X61776190Y-119238095D01*
X61252381Y-118333333D02*
X61252381Y-117714285D01*
X61633333Y-118047619D01*
X61633333Y-117904761D01*
X61680952Y-117809523D01*
X61728571Y-117761904D01*
X61823810Y-117714285D01*
X62061905Y-117714285D01*
X62157143Y-117761904D01*
X62204762Y-117809523D01*
X62252381Y-117904761D01*
X62252381Y-118190476D01*
X62204762Y-118285714D01*
X62157143Y-118333333D01*
X62252381Y-109166666D02*
X61776190Y-109500000D01*
X62252381Y-109738095D02*
X61252381Y-109738095D01*
X61252381Y-109357142D01*
X61300000Y-109261904D01*
X61347619Y-109214285D01*
X61442857Y-109166666D01*
X61585714Y-109166666D01*
X61680952Y-109214285D01*
X61728571Y-109261904D01*
X61776190Y-109357142D01*
X61776190Y-109738095D01*
X61585714Y-108309523D02*
X62252381Y-108309523D01*
X61204762Y-108547619D02*
X61919048Y-108785714D01*
X61919048Y-108166666D01*
X101552381Y-139466666D02*
X101076190Y-139800000D01*
X101552381Y-140038095D02*
X100552381Y-140038095D01*
X100552381Y-139657142D01*
X100600000Y-139561904D01*
X100647619Y-139514285D01*
X100742857Y-139466666D01*
X100885714Y-139466666D01*
X100980952Y-139514285D01*
X101028571Y-139561904D01*
X101076190Y-139657142D01*
X101076190Y-140038095D01*
X100552381Y-138561904D02*
X100552381Y-139038095D01*
X101028571Y-139085714D01*
X100980952Y-139038095D01*
X100933333Y-138942857D01*
X100933333Y-138704761D01*
X100980952Y-138609523D01*
X101028571Y-138561904D01*
X101123810Y-138514285D01*
X101361905Y-138514285D01*
X101457143Y-138561904D01*
X101504762Y-138609523D01*
X101552381Y-138704761D01*
X101552381Y-138942857D01*
X101504762Y-139038095D01*
X101457143Y-139085714D01*
X90533334Y-136752381D02*
X90200000Y-136276190D01*
X89961905Y-136752381D02*
X89961905Y-135752381D01*
X90342858Y-135752381D01*
X90438096Y-135800000D01*
X90485715Y-135847619D01*
X90533334Y-135942857D01*
X90533334Y-136085714D01*
X90485715Y-136180952D01*
X90438096Y-136228571D01*
X90342858Y-136276190D01*
X89961905Y-136276190D01*
X91390477Y-135752381D02*
X91200000Y-135752381D01*
X91104762Y-135800000D01*
X91057143Y-135847619D01*
X90961905Y-135990476D01*
X90914286Y-136180952D01*
X90914286Y-136561905D01*
X90961905Y-136657143D01*
X91009524Y-136704762D01*
X91104762Y-136752381D01*
X91295239Y-136752381D01*
X91390477Y-136704762D01*
X91438096Y-136657143D01*
X91485715Y-136561905D01*
X91485715Y-136323810D01*
X91438096Y-136228571D01*
X91390477Y-136180952D01*
X91295239Y-136133333D01*
X91104762Y-136133333D01*
X91009524Y-136180952D01*
X90961905Y-136228571D01*
X90914286Y-136323810D01*
X99552381Y-139466666D02*
X99076190Y-139800000D01*
X99552381Y-140038095D02*
X98552381Y-140038095D01*
X98552381Y-139657142D01*
X98600000Y-139561904D01*
X98647619Y-139514285D01*
X98742857Y-139466666D01*
X98885714Y-139466666D01*
X98980952Y-139514285D01*
X99028571Y-139561904D01*
X99076190Y-139657142D01*
X99076190Y-140038095D01*
X98552381Y-139133333D02*
X98552381Y-138466666D01*
X99552381Y-138895238D01*
X114152381Y-78566666D02*
X113676190Y-78900000D01*
X114152381Y-79138095D02*
X113152381Y-79138095D01*
X113152381Y-78757142D01*
X113200000Y-78661904D01*
X113247619Y-78614285D01*
X113342857Y-78566666D01*
X113485714Y-78566666D01*
X113580952Y-78614285D01*
X113628571Y-78661904D01*
X113676190Y-78757142D01*
X113676190Y-79138095D01*
X113580952Y-77995238D02*
X113533333Y-78090476D01*
X113485714Y-78138095D01*
X113390476Y-78185714D01*
X113342857Y-78185714D01*
X113247619Y-78138095D01*
X113200000Y-78090476D01*
X113152381Y-77995238D01*
X113152381Y-77804761D01*
X113200000Y-77709523D01*
X113247619Y-77661904D01*
X113342857Y-77614285D01*
X113390476Y-77614285D01*
X113485714Y-77661904D01*
X113533333Y-77709523D01*
X113580952Y-77804761D01*
X113580952Y-77995238D01*
X113628571Y-78090476D01*
X113676190Y-78138095D01*
X113771429Y-78185714D01*
X113961905Y-78185714D01*
X114057143Y-78138095D01*
X114104762Y-78090476D01*
X114152381Y-77995238D01*
X114152381Y-77804761D01*
X114104762Y-77709523D01*
X114057143Y-77661904D01*
X113961905Y-77614285D01*
X113771429Y-77614285D01*
X113676190Y-77661904D01*
X113628571Y-77709523D01*
X113580952Y-77804761D01*
X162833334Y-110152381D02*
X162500000Y-109676190D01*
X162261905Y-110152381D02*
X162261905Y-109152381D01*
X162642858Y-109152381D01*
X162738096Y-109200000D01*
X162785715Y-109247619D01*
X162833334Y-109342857D01*
X162833334Y-109485714D01*
X162785715Y-109580952D01*
X162738096Y-109628571D01*
X162642858Y-109676190D01*
X162261905Y-109676190D01*
X163309524Y-110152381D02*
X163500000Y-110152381D01*
X163595239Y-110104762D01*
X163642858Y-110057143D01*
X163738096Y-109914286D01*
X163785715Y-109723810D01*
X163785715Y-109342857D01*
X163738096Y-109247619D01*
X163690477Y-109200000D01*
X163595239Y-109152381D01*
X163404762Y-109152381D01*
X163309524Y-109200000D01*
X163261905Y-109247619D01*
X163214286Y-109342857D01*
X163214286Y-109580952D01*
X163261905Y-109676190D01*
X163309524Y-109723810D01*
X163404762Y-109771429D01*
X163595239Y-109771429D01*
X163690477Y-109723810D01*
X163738096Y-109676190D01*
X163785715Y-109580952D01*
X146357143Y-77852381D02*
X146023809Y-77376190D01*
X145785714Y-77852381D02*
X145785714Y-76852381D01*
X146166667Y-76852381D01*
X146261905Y-76900000D01*
X146309524Y-76947619D01*
X146357143Y-77042857D01*
X146357143Y-77185714D01*
X146309524Y-77280952D01*
X146261905Y-77328571D01*
X146166667Y-77376190D01*
X145785714Y-77376190D01*
X147309524Y-77852381D02*
X146738095Y-77852381D01*
X147023809Y-77852381D02*
X147023809Y-76852381D01*
X146928571Y-76995238D01*
X146833333Y-77090476D01*
X146738095Y-77138095D01*
X147928571Y-76852381D02*
X148023810Y-76852381D01*
X148119048Y-76900000D01*
X148166667Y-76947619D01*
X148214286Y-77042857D01*
X148261905Y-77233333D01*
X148261905Y-77471429D01*
X148214286Y-77661905D01*
X148166667Y-77757143D01*
X148119048Y-77804762D01*
X148023810Y-77852381D01*
X147928571Y-77852381D01*
X147833333Y-77804762D01*
X147785714Y-77757143D01*
X147738095Y-77661905D01*
X147690476Y-77471429D01*
X147690476Y-77233333D01*
X147738095Y-77042857D01*
X147785714Y-76947619D01*
X147833333Y-76900000D01*
X147928571Y-76852381D01*
X146457143Y-69552381D02*
X146123809Y-69076190D01*
X145885714Y-69552381D02*
X145885714Y-68552381D01*
X146266667Y-68552381D01*
X146361905Y-68600000D01*
X146409524Y-68647619D01*
X146457143Y-68742857D01*
X146457143Y-68885714D01*
X146409524Y-68980952D01*
X146361905Y-69028571D01*
X146266667Y-69076190D01*
X145885714Y-69076190D01*
X147409524Y-69552381D02*
X146838095Y-69552381D01*
X147123809Y-69552381D02*
X147123809Y-68552381D01*
X147028571Y-68695238D01*
X146933333Y-68790476D01*
X146838095Y-68838095D01*
X148361905Y-69552381D02*
X147790476Y-69552381D01*
X148076190Y-69552381D02*
X148076190Y-68552381D01*
X147980952Y-68695238D01*
X147885714Y-68790476D01*
X147790476Y-68838095D01*
X145957143Y-133252381D02*
X145623809Y-132776190D01*
X145385714Y-133252381D02*
X145385714Y-132252381D01*
X145766667Y-132252381D01*
X145861905Y-132300000D01*
X145909524Y-132347619D01*
X145957143Y-132442857D01*
X145957143Y-132585714D01*
X145909524Y-132680952D01*
X145861905Y-132728571D01*
X145766667Y-132776190D01*
X145385714Y-132776190D01*
X146909524Y-133252381D02*
X146338095Y-133252381D01*
X146623809Y-133252381D02*
X146623809Y-132252381D01*
X146528571Y-132395238D01*
X146433333Y-132490476D01*
X146338095Y-132538095D01*
X147290476Y-132347619D02*
X147338095Y-132300000D01*
X147433333Y-132252381D01*
X147671429Y-132252381D01*
X147766667Y-132300000D01*
X147814286Y-132347619D01*
X147861905Y-132442857D01*
X147861905Y-132538095D01*
X147814286Y-132680952D01*
X147242857Y-133252381D01*
X147861905Y-133252381D01*
X86138095Y-81342381D02*
X86138095Y-82151905D01*
X86185714Y-82247143D01*
X86233333Y-82294762D01*
X86328571Y-82342381D01*
X86519048Y-82342381D01*
X86614286Y-82294762D01*
X86661905Y-82247143D01*
X86709524Y-82151905D01*
X86709524Y-81342381D01*
X87709524Y-82342381D02*
X87138095Y-82342381D01*
X87423809Y-82342381D02*
X87423809Y-81342381D01*
X87328571Y-81485238D01*
X87233333Y-81580476D01*
X87138095Y-81628095D01*
X87238095Y-57372381D02*
X87238095Y-58181905D01*
X87285714Y-58277143D01*
X87333333Y-58324762D01*
X87428571Y-58372381D01*
X87619048Y-58372381D01*
X87714286Y-58324762D01*
X87761905Y-58277143D01*
X87809524Y-58181905D01*
X87809524Y-57372381D01*
X88238095Y-57467619D02*
X88285714Y-57420000D01*
X88380952Y-57372381D01*
X88619048Y-57372381D01*
X88714286Y-57420000D01*
X88761905Y-57467619D01*
X88809524Y-57562857D01*
X88809524Y-57658095D01*
X88761905Y-57800952D01*
X88190476Y-58372381D01*
X88809524Y-58372381D01*
X110238095Y-127842381D02*
X110238095Y-128651905D01*
X110285714Y-128747143D01*
X110333333Y-128794762D01*
X110428571Y-128842381D01*
X110619048Y-128842381D01*
X110714286Y-128794762D01*
X110761905Y-128747143D01*
X110809524Y-128651905D01*
X110809524Y-127842381D01*
X111190476Y-127842381D02*
X111809524Y-127842381D01*
X111476190Y-128223333D01*
X111619048Y-128223333D01*
X111714286Y-128270952D01*
X111761905Y-128318571D01*
X111809524Y-128413810D01*
X111809524Y-128651905D01*
X111761905Y-128747143D01*
X111714286Y-128794762D01*
X111619048Y-128842381D01*
X111333333Y-128842381D01*
X111238095Y-128794762D01*
X111190476Y-128747143D01*
X129938095Y-62672381D02*
X129938095Y-63481905D01*
X129985714Y-63577143D01*
X130033333Y-63624762D01*
X130128571Y-63672381D01*
X130319048Y-63672381D01*
X130414286Y-63624762D01*
X130461905Y-63577143D01*
X130509524Y-63481905D01*
X130509524Y-62672381D01*
X131414286Y-63005714D02*
X131414286Y-63672381D01*
X131176190Y-62624762D02*
X130938095Y-63339048D01*
X131557143Y-63339048D01*
X171738095Y-96342381D02*
X171738095Y-97151905D01*
X171785714Y-97247143D01*
X171833333Y-97294762D01*
X171928571Y-97342381D01*
X172119048Y-97342381D01*
X172214286Y-97294762D01*
X172261905Y-97247143D01*
X172309524Y-97151905D01*
X172309524Y-96342381D01*
X173261905Y-96342381D02*
X172785714Y-96342381D01*
X172738095Y-96818571D01*
X172785714Y-96770952D01*
X172880952Y-96723333D01*
X173119048Y-96723333D01*
X173214286Y-96770952D01*
X173261905Y-96818571D01*
X173309524Y-96913810D01*
X173309524Y-97151905D01*
X173261905Y-97247143D01*
X173214286Y-97294762D01*
X173119048Y-97342381D01*
X172880952Y-97342381D01*
X172785714Y-97294762D01*
X172738095Y-97247143D01*
X176638095Y-125162381D02*
X176638095Y-125971905D01*
X176685714Y-126067143D01*
X176733333Y-126114762D01*
X176828571Y-126162381D01*
X177019048Y-126162381D01*
X177114286Y-126114762D01*
X177161905Y-126067143D01*
X177209524Y-125971905D01*
X177209524Y-125162381D01*
X178114286Y-125162381D02*
X177923809Y-125162381D01*
X177828571Y-125210000D01*
X177780952Y-125257619D01*
X177685714Y-125400476D01*
X177638095Y-125590952D01*
X177638095Y-125971905D01*
X177685714Y-126067143D01*
X177733333Y-126114762D01*
X177828571Y-126162381D01*
X178019048Y-126162381D01*
X178114286Y-126114762D01*
X178161905Y-126067143D01*
X178209524Y-125971905D01*
X178209524Y-125733810D01*
X178161905Y-125638571D01*
X178114286Y-125590952D01*
X178019048Y-125543333D01*
X177828571Y-125543333D01*
X177733333Y-125590952D01*
X177685714Y-125638571D01*
X177638095Y-125733810D01*
X198048095Y-81062381D02*
X198048095Y-81871905D01*
X198095714Y-81967143D01*
X198143333Y-82014762D01*
X198238571Y-82062381D01*
X198429048Y-82062381D01*
X198524286Y-82014762D01*
X198571905Y-81967143D01*
X198619524Y-81871905D01*
X198619524Y-81062381D01*
X199000476Y-81062381D02*
X199667143Y-81062381D01*
X199238571Y-82062381D01*
M02*
