G04 #@! TF.FileFunction,Soldermask,Bot*
%FSLAX46Y46*%
G04 Gerber Fmt 4.6, Leading zero omitted, Abs format (unit mm)*
G04 Created by KiCad (PCBNEW 4.0.5) date 06/25/17 19:58:10*
%MOMM*%
%LPD*%
G01*
G04 APERTURE LIST*
%ADD10C,0.150000*%
%ADD11C,0.100000*%
%ADD12R,1.200000X1.200000*%
%ADD13C,1.200000*%
%ADD14R,1.600000X1.600000*%
%ADD15C,1.600000*%
%ADD16R,1.800000X1.800000*%
%ADD17C,1.800000*%
%ADD18R,1.850000X1.850000*%
%ADD19C,1.850000*%
%ADD20O,2.540000X2.032000*%
%ADD21C,1.524000*%
%ADD22O,1.600000X1.600000*%
G04 APERTURE END LIST*
D10*
D11*
X60000000Y-140000000D02*
X60000000Y-40000000D01*
X220000000Y-140000000D02*
X60000000Y-140000000D01*
X220000000Y-40000000D02*
X220000000Y-140000000D01*
X60000000Y-40000000D02*
X220000000Y-40000000D01*
D12*
X136000000Y-120000000D03*
D13*
X138000000Y-120000000D03*
D14*
X84250000Y-127500000D03*
D15*
X84250000Y-130000000D03*
D14*
X193000000Y-121000000D03*
D15*
X195500000Y-121000000D03*
D14*
X152000000Y-124000000D03*
D15*
X152000000Y-121500000D03*
D14*
X110000000Y-85000000D03*
D15*
X110000000Y-87500000D03*
D12*
X115000000Y-136000000D03*
D13*
X117000000Y-136000000D03*
D12*
X123000000Y-134000000D03*
D13*
X125000000Y-134000000D03*
D14*
X194000000Y-58000000D03*
D15*
X191500000Y-58000000D03*
D14*
X137000000Y-110000000D03*
D15*
X139500000Y-110000000D03*
D14*
X149000000Y-58000000D03*
D15*
X149000000Y-60500000D03*
D12*
X206000000Y-116000000D03*
D13*
X206000000Y-114000000D03*
D12*
X181000000Y-102000000D03*
D13*
X181000000Y-100000000D03*
D12*
X208000000Y-124000000D03*
D13*
X208000000Y-122000000D03*
D12*
X208000000Y-88000000D03*
D13*
X206000000Y-88000000D03*
D16*
X207000000Y-107000000D03*
D17*
X207000000Y-104460000D03*
D18*
X66000000Y-50000000D03*
D19*
X66000000Y-52500000D03*
D18*
X170000000Y-126000000D03*
D19*
X170000000Y-123500000D03*
X170000000Y-121000000D03*
D18*
X73000000Y-124000000D03*
D19*
X75500000Y-124000000D03*
D18*
X73000000Y-115000000D03*
D19*
X75500000Y-115000000D03*
D18*
X73000000Y-107000000D03*
D19*
X75500000Y-107000000D03*
D18*
X73000000Y-99000000D03*
D19*
X75500000Y-99000000D03*
D18*
X107000000Y-134000000D03*
D19*
X104500000Y-134000000D03*
X102000000Y-134000000D03*
D18*
X112000000Y-52000000D03*
D19*
X112000000Y-54500000D03*
D18*
X126000000Y-101000000D03*
D19*
X126000000Y-103500000D03*
D18*
X126000000Y-112000000D03*
D19*
X126000000Y-114500000D03*
D18*
X168000000Y-48000000D03*
D19*
X170500000Y-48000000D03*
X173000000Y-48000000D03*
X175500000Y-48000000D03*
D18*
X186000000Y-48000000D03*
D19*
X188500000Y-48000000D03*
X191000000Y-48000000D03*
X193500000Y-48000000D03*
D18*
X204000000Y-48000000D03*
D19*
X206500000Y-48000000D03*
X209000000Y-48000000D03*
X211500000Y-48000000D03*
D18*
X193000000Y-132000000D03*
D19*
X195500000Y-132000000D03*
X198000000Y-132000000D03*
X200500000Y-132000000D03*
X203000000Y-132000000D03*
X205500000Y-132000000D03*
X208000000Y-132000000D03*
X210500000Y-132000000D03*
D18*
X214000000Y-101000000D03*
D19*
X214000000Y-98500000D03*
D20*
X90000000Y-100000000D03*
X90000000Y-97460000D03*
X90000000Y-102540000D03*
D21*
X66760000Y-72190000D03*
X66760000Y-79810000D03*
X97240000Y-72190000D03*
X97240000Y-79810000D03*
X78570000Y-56810000D03*
X78570000Y-49190000D03*
X78570000Y-46650000D03*
X78570000Y-59350000D03*
X101430000Y-46650000D03*
X101430000Y-59350000D03*
X111310000Y-108020000D03*
X111310000Y-110560000D03*
X111310000Y-113100000D03*
X111310000Y-115640000D03*
X111310000Y-105480000D03*
X111310000Y-102940000D03*
X111310000Y-100400000D03*
X111310000Y-97860000D03*
X103690000Y-115640000D03*
X103690000Y-113100000D03*
X103690000Y-110560000D03*
X103690000Y-108020000D03*
X103690000Y-105480000D03*
X103690000Y-102940000D03*
X103690000Y-100400000D03*
X103690000Y-97860000D03*
X136620000Y-74540000D03*
X136620000Y-77080000D03*
X136620000Y-79620000D03*
X136620000Y-82160000D03*
X136620000Y-84700000D03*
X136620000Y-87240000D03*
X136620000Y-89780000D03*
X136620000Y-72000000D03*
X136620000Y-69460000D03*
X136620000Y-66920000D03*
X136620000Y-64380000D03*
X136620000Y-61840000D03*
X136620000Y-59300000D03*
X136620000Y-56760000D03*
X136620000Y-54220000D03*
X121380000Y-54220000D03*
X121380000Y-56760000D03*
X121380000Y-59300000D03*
X121380000Y-61840000D03*
X121380000Y-64380000D03*
X121380000Y-66920000D03*
X121380000Y-69460000D03*
X121380000Y-72000000D03*
X121380000Y-74540000D03*
X121380000Y-77080000D03*
X121380000Y-79620000D03*
X121380000Y-82160000D03*
X121380000Y-84700000D03*
X121380000Y-87240000D03*
X121380000Y-89780000D03*
X180000000Y-90700000D03*
X180000000Y-88160000D03*
X180000000Y-85620000D03*
X180000000Y-83080000D03*
X180000000Y-80540000D03*
X180000000Y-78000000D03*
X180000000Y-75460000D03*
X180000000Y-72920000D03*
X180000000Y-70380000D03*
X180000000Y-67840000D03*
X180000000Y-65300000D03*
X180000000Y-62760000D03*
X180000000Y-60220000D03*
X180000000Y-57680000D03*
X160000000Y-90700000D03*
X160000000Y-88160000D03*
X160000000Y-85620000D03*
X160000000Y-83080000D03*
X160000000Y-80540000D03*
X160000000Y-78000000D03*
X160000000Y-75460000D03*
X160000000Y-72920000D03*
X160000000Y-70380000D03*
X160000000Y-67840000D03*
X160000000Y-65300000D03*
X160000000Y-62760000D03*
X160000000Y-60220000D03*
X160000000Y-57680000D03*
X197810000Y-95000000D03*
X197810000Y-97540000D03*
X197810000Y-100080000D03*
X197810000Y-92460000D03*
X197810000Y-89920000D03*
X190190000Y-95000000D03*
X190190000Y-97540000D03*
X190190000Y-100080000D03*
X190190000Y-92460000D03*
X190190000Y-89920000D03*
D14*
X205000000Y-64000000D03*
D22*
X212620000Y-71620000D03*
X205000000Y-66540000D03*
X212620000Y-69080000D03*
X205000000Y-69080000D03*
X212620000Y-66540000D03*
X205000000Y-71620000D03*
X212620000Y-64000000D03*
M02*
