M48
;DRILL file {KiCad 4.0.5} date 06/25/17 20:01:55
;FORMAT={-:-/ absolute / inch / decimal}
FMAT,2
INCH,TZ
T1C0.024
T2C0.025
T3C0.030
T4C0.031
T5C0.035
T6C0.039
T7C0.045
%
G90
G05
M72
T1
X2.1654Y0.1575
X2.2441Y0.1575
X2.4803Y0.2362
X2.5591Y0.2362
X2.9921Y0.7874
X3.0709Y0.7874
X4.7638Y1.5748
X4.7638Y1.4961
X5.748Y2.0472
X5.748Y1.0236
X5.748Y0.9449
X5.8268Y2.0472
X5.8268Y0.7087
X5.8268Y0.6299
T2
X0.3445Y1.5354
X0.3445Y1.2992
X0.3445Y1.0236
X1.2205Y0.3937
X1.3583Y1.624
X1.3681Y0.2953
X1.378Y0.3839
X1.4665Y2.4705
X1.5059Y0.3839
X1.5551Y0.9547
X1.9783Y2.4016
X2.1457Y2.4803
X2.185Y2.2146
X2.2244Y1.0039
X2.2835Y1.2598
X2.3819Y1.1614
X2.3819Y0.561
X2.4508Y0.3937
X2.4803Y0.6594
X2.6083Y0.5512
X2.6969Y0.2657
X2.7264Y0.6004
X2.8346Y0.2657
X2.9134Y2.3228
X2.9429Y2.1654
X2.9626Y2.2244
X3.002Y0.502
X3.0512Y0.9252
X3.1594Y2.9429
X3.1594Y2.4213
X3.1594Y2.2441
X3.1594Y2.0965
X3.1791Y1.0039
X3.2185Y0.9547
X3.2283Y1.3583
X3.2677Y2.9035
X3.3071Y2.4902
X3.3169Y1.1417
X3.3465Y1.4764
X3.3858Y2.7165
X3.3957Y1.063
X3.4055Y0.8465
X3.4843Y0.9843
X3.5039Y2.2933
X3.5039Y1.3287
X3.5728Y1.3287
X3.5925Y2.4409
X3.6909Y0.7382
X3.7303Y2.4409
X3.9272Y0.502
X3.9862Y3.4252
X4.1831Y0.6004
X4.2717Y1.4961
X4.3504Y1.0138
X4.3799Y1.5748
X4.3898Y3.4646
X4.5768Y3.2382
X4.5965Y1.5846
X4.6555Y0.2657
X4.7933Y1.3878
X4.8524Y0.8268
X4.8622Y1.2992
X4.8622Y1.063
X5.0098Y1.2992
X5.0197Y0.748
X5.0295Y3.75
X5.2854Y1.25
X5.374Y0.935
X5.3839Y3.75
X5.5807Y1.5846
X5.5906Y0.876
X5.6299Y1.2992
X5.8661Y3.4547
X5.8957Y3.1004
X5.9055Y2.8445
X5.9154Y2.7067
T3
X0.2661Y2.6697
X0.2661Y2.3697
X1.4661Y2.6697
X1.4661Y2.3697
T4
X0.9547Y0.4921
X0.9547Y0.3937
X1.9685Y2.1654
X1.9685Y2.0669
X3.0315Y1.1811
X3.1299Y1.1811
X3.5039Y3.2283
X3.5039Y3.1299
X3.622Y0.7283
X3.622Y0.6299
X5.1772Y3.2283
X5.2362Y0.748
X5.2756Y3.2283
X5.3346Y0.748
X5.7087Y2.9921
X5.7087Y2.8921
X5.7087Y2.7921
X5.7087Y2.6921
X6.0087Y2.9921
X6.0087Y2.8921
X6.0087Y2.7921
X6.0087Y2.6921
T5
X0.2362Y3.5433
X0.2362Y3.4449
X0.5118Y1.6142
X0.5118Y1.2992
X0.5118Y0.9843
X0.5118Y0.6299
X0.6102Y1.6142
X0.6102Y1.2992
X0.6102Y0.9843
X0.6102Y0.6299
X1.6535Y0.2362
X1.752Y0.2362
X1.8504Y0.2362
X2.0472Y3.4646
X2.0472Y3.3661
X2.5984Y1.5354
X2.5984Y1.437
X2.5984Y1.1024
X2.5984Y1.0039
X4.252Y3.622
X4.3307Y0.748
X4.3307Y0.6496
X4.3307Y0.5512
X4.3504Y3.622
X4.4488Y3.622
X4.5472Y3.622
X4.9606Y3.622
X5.0591Y3.622
X5.1575Y3.622
X5.2362Y0.315
X5.2559Y3.622
X5.3346Y0.315
X5.4331Y0.315
X5.5315Y0.315
X5.6299Y0.315
X5.6693Y3.622
X5.7283Y0.315
X5.7677Y3.622
X5.7874Y1.3992
X5.7874Y1.2992
X5.8268Y0.315
X5.8661Y3.622
X5.9252Y0.315
X5.9646Y3.622
X6.063Y1.6339
X6.063Y1.5354
T6
X0.7311Y3.6752
X0.7311Y3.5752
X0.7311Y3.2752
X0.7311Y3.1752
X1.6311Y3.6752
X1.6311Y3.1752
X1.7201Y1.6591
X1.7201Y1.5591
X1.7201Y1.4591
X1.7201Y1.3591
X1.7201Y1.2591
X1.7201Y1.1591
X1.7201Y1.0591
X1.7201Y0.9591
X2.0201Y1.6591
X2.0201Y1.5591
X2.0201Y1.4591
X2.0201Y1.3591
X2.0201Y1.2591
X2.0201Y1.1591
X2.0201Y1.0591
X2.0201Y0.9591
X2.4165Y3.3772
X2.4165Y3.2772
X2.4165Y3.1772
X2.4165Y3.0772
X2.4165Y2.9772
X2.4165Y2.8772
X2.4165Y2.7772
X2.4165Y2.6772
X2.4165Y2.5772
X2.4165Y2.4772
X2.4165Y2.3772
X2.4165Y2.2772
X2.4165Y2.1772
X2.4165Y2.0772
X2.4165Y1.9772
X3.0165Y3.3772
X3.0165Y3.2772
X3.0165Y3.1772
X3.0165Y3.0772
X3.0165Y2.9772
X3.0165Y2.8772
X3.0165Y2.7772
X3.0165Y2.6772
X3.0165Y2.5772
X3.0165Y2.4772
X3.0165Y2.3772
X3.0165Y2.2772
X3.0165Y2.1772
X3.0165Y2.0772
X3.0165Y1.9772
X3.937Y3.2409
X3.937Y3.1409
X3.937Y3.0409
X3.937Y2.9409
X3.937Y2.8409
X3.937Y2.7409
X3.937Y2.6409
X3.937Y2.5409
X3.937Y2.4409
X3.937Y2.3409
X3.937Y2.2409
X3.937Y2.1409
X3.937Y2.0409
X3.937Y1.9409
X4.7244Y3.2409
X4.7244Y3.1409
X4.7244Y3.0409
X4.7244Y2.9409
X4.7244Y2.8409
X4.7244Y2.7409
X4.7244Y2.6409
X4.7244Y2.5409
X4.7244Y2.4409
X4.7244Y2.3409
X4.7244Y2.2409
X4.7244Y2.1409
X4.7244Y2.0409
X4.7244Y1.9409
X5.1256Y1.9717
X5.1256Y1.8717
X5.1256Y1.7717
X5.1256Y1.6717
X5.1256Y1.5717
X5.4256Y1.9717
X5.4256Y1.8717
X5.4256Y1.7717
X5.4256Y1.6717
X5.4256Y1.5717
T7
X1.1811Y1.6748
X1.1811Y1.5748
X1.1811Y1.4748
T0
M30
