G04 #@! TF.FileFunction,Soldermask,Top*
%FSLAX46Y46*%
G04 Gerber Fmt 4.6, Leading zero omitted, Abs format (unit mm)*
G04 Created by KiCad (PCBNEW 4.0.5) date 07/04/17 20:38:32*
%MOMM*%
%LPD*%
G01*
G04 APERTURE LIST*
%ADD10C,0.100000*%
%ADD11R,2.600000X2.600000*%
%ADD12O,2.600000X2.600000*%
%ADD13R,1.600000X1.600000*%
%ADD14C,1.600000*%
%ADD15R,2.000000X2.000000*%
%ADD16C,2.000000*%
%ADD17R,1.900000X1.650000*%
%ADD18R,2.200000X2.200000*%
%ADD19C,2.200000*%
%ADD20R,2.250000X2.250000*%
%ADD21C,2.250000*%
%ADD22O,2.940000X2.432000*%
%ADD23R,1.700000X1.900000*%
%ADD24R,1.900000X1.700000*%
%ADD25C,1.924000*%
%ADD26O,2.000000X2.000000*%
G04 APERTURE END LIST*
D10*
D11*
X173700000Y-134100000D03*
D12*
X181320000Y-134100000D03*
D13*
X109500000Y-135900000D03*
D14*
X109500000Y-137900000D03*
D15*
X206760000Y-131685000D03*
D16*
X209260000Y-131685000D03*
D15*
X113200000Y-92500000D03*
D16*
X113200000Y-95000000D03*
D17*
X134750000Y-134700000D03*
X132250000Y-134700000D03*
D15*
X95500000Y-121500000D03*
D16*
X95500000Y-124000000D03*
D17*
X132350000Y-145600000D03*
X134850000Y-145600000D03*
D15*
X150500000Y-109000000D03*
D16*
X148000000Y-109000000D03*
D17*
X132250000Y-140000000D03*
X134750000Y-140000000D03*
D13*
X155300000Y-66000000D03*
D14*
X153300000Y-66000000D03*
D17*
X130750000Y-106000000D03*
X133250000Y-106000000D03*
D13*
X171300000Y-106800000D03*
D14*
X171300000Y-108800000D03*
D15*
X212000000Y-84500000D03*
D16*
X212000000Y-87000000D03*
D15*
X188700000Y-135800000D03*
D16*
X188700000Y-133300000D03*
D15*
X194400000Y-66900000D03*
D16*
X194400000Y-64400000D03*
D13*
X197900000Y-134700000D03*
D14*
X197900000Y-132700000D03*
D13*
X192600000Y-123600000D03*
D14*
X190600000Y-123600000D03*
D13*
X165500000Y-136500000D03*
D14*
X165500000Y-134500000D03*
D13*
X192500000Y-115000000D03*
D14*
X190500000Y-115000000D03*
D18*
X212000000Y-93000000D03*
D19*
X212000000Y-95540000D03*
D20*
X67100000Y-63200000D03*
D21*
X67100000Y-65700000D03*
D20*
X95000000Y-103000000D03*
D21*
X95000000Y-105500000D03*
X95000000Y-108000000D03*
D20*
X69000000Y-131000000D03*
D21*
X71500000Y-131000000D03*
D20*
X69000000Y-122000000D03*
D21*
X71500000Y-122000000D03*
D20*
X69000000Y-113000000D03*
D21*
X71500000Y-113000000D03*
D20*
X69000000Y-104000000D03*
D21*
X71500000Y-104000000D03*
D20*
X78500000Y-144500000D03*
D21*
X81000000Y-144500000D03*
X83500000Y-144500000D03*
D20*
X110000000Y-61000000D03*
D21*
X110000000Y-63500000D03*
D20*
X125500000Y-113000000D03*
D21*
X125500000Y-115500000D03*
D20*
X125500000Y-124000000D03*
D21*
X125500000Y-126500000D03*
D20*
X149500000Y-56500000D03*
D21*
X152000000Y-56500000D03*
X154500000Y-56500000D03*
X157000000Y-56500000D03*
D20*
X175500000Y-57000000D03*
D21*
X173000000Y-57000000D03*
X170500000Y-57000000D03*
X168000000Y-57000000D03*
D20*
X186700000Y-56300000D03*
D21*
X189200000Y-56300000D03*
X191700000Y-56300000D03*
X194200000Y-56300000D03*
D20*
X179000000Y-144000000D03*
D21*
X181500000Y-144000000D03*
X184000000Y-144000000D03*
X186500000Y-144000000D03*
X189000000Y-144000000D03*
X191500000Y-144000000D03*
X194000000Y-144000000D03*
X196500000Y-144000000D03*
D20*
X201400000Y-120100000D03*
D21*
X201400000Y-117600000D03*
D20*
X81000000Y-117000000D03*
D21*
X83500000Y-117000000D03*
D22*
X154900000Y-124500000D03*
X154900000Y-127040000D03*
X154900000Y-121960000D03*
D23*
X63500000Y-128350000D03*
X63500000Y-125650000D03*
X63500000Y-119850000D03*
X63500000Y-117150000D03*
X63500000Y-110350000D03*
X63500000Y-107650000D03*
X102800000Y-140650000D03*
X102800000Y-137950000D03*
D24*
X89350000Y-138000000D03*
X92050000Y-138000000D03*
D23*
X97400000Y-137950000D03*
X97400000Y-140650000D03*
X112000000Y-77050000D03*
X112000000Y-79750000D03*
D24*
X164350000Y-108000000D03*
X161650000Y-108000000D03*
X148350000Y-75700000D03*
X145650000Y-75700000D03*
X145750000Y-70800000D03*
X148450000Y-70800000D03*
X145250000Y-134500000D03*
X147950000Y-134500000D03*
D25*
X102140000Y-89510000D03*
X102140000Y-81890000D03*
X71660000Y-89510000D03*
X71660000Y-81890000D03*
X76570000Y-66810000D03*
X76570000Y-59190000D03*
X76570000Y-56650000D03*
X76570000Y-69350000D03*
X99430000Y-56650000D03*
X99430000Y-69350000D03*
X114810000Y-120770000D03*
X114810000Y-123310000D03*
X114810000Y-125850000D03*
X114810000Y-128390000D03*
X114810000Y-118230000D03*
X114810000Y-115690000D03*
X114810000Y-113150000D03*
X114810000Y-110610000D03*
X107190000Y-128390000D03*
X107190000Y-125850000D03*
X107190000Y-123310000D03*
X107190000Y-120770000D03*
X107190000Y-118230000D03*
X107190000Y-115690000D03*
X107190000Y-113150000D03*
X107190000Y-110610000D03*
X138320000Y-83540000D03*
X138320000Y-86080000D03*
X138320000Y-88620000D03*
X138320000Y-91160000D03*
X138320000Y-93700000D03*
X138320000Y-96240000D03*
X138320000Y-98780000D03*
X138320000Y-81000000D03*
X138320000Y-78460000D03*
X138320000Y-75920000D03*
X138320000Y-73380000D03*
X138320000Y-70840000D03*
X138320000Y-68300000D03*
X138320000Y-65760000D03*
X138320000Y-63220000D03*
X123080000Y-63220000D03*
X123080000Y-65760000D03*
X123080000Y-68300000D03*
X123080000Y-70840000D03*
X123080000Y-73380000D03*
X123080000Y-75920000D03*
X123080000Y-78460000D03*
X123080000Y-81000000D03*
X123080000Y-83540000D03*
X123080000Y-86080000D03*
X123080000Y-88620000D03*
X123080000Y-91160000D03*
X123080000Y-93700000D03*
X123080000Y-96240000D03*
X123080000Y-98780000D03*
X182500000Y-100700000D03*
X182500000Y-98160000D03*
X182500000Y-95620000D03*
X182500000Y-93080000D03*
X182500000Y-90540000D03*
X182500000Y-88000000D03*
X182500000Y-85460000D03*
X182500000Y-82920000D03*
X182500000Y-80380000D03*
X182500000Y-77840000D03*
X182500000Y-75300000D03*
X182500000Y-72760000D03*
X182500000Y-70220000D03*
X182500000Y-67680000D03*
X162500000Y-100700000D03*
X162500000Y-98160000D03*
X162500000Y-95620000D03*
X162500000Y-93080000D03*
X162500000Y-90540000D03*
X162500000Y-88000000D03*
X162500000Y-85460000D03*
X162500000Y-82920000D03*
X162500000Y-80380000D03*
X162500000Y-77840000D03*
X162500000Y-75300000D03*
X162500000Y-72760000D03*
X162500000Y-70220000D03*
X162500000Y-67680000D03*
X181210000Y-121900000D03*
X181210000Y-124440000D03*
X181210000Y-126980000D03*
X181210000Y-119360000D03*
X181210000Y-116820000D03*
X173590000Y-121900000D03*
X173590000Y-124440000D03*
X173590000Y-126980000D03*
X173590000Y-119360000D03*
X173590000Y-116820000D03*
D15*
X195000000Y-84000000D03*
D26*
X202620000Y-91620000D03*
X195000000Y-86540000D03*
X202620000Y-89080000D03*
X195000000Y-89080000D03*
X202620000Y-86540000D03*
X195000000Y-91620000D03*
X202620000Y-84000000D03*
M02*
