M48
;DRILL file {KiCad 4.0.5} date 07/04/17 20:38:45
;FORMAT={3:3/ absolute / metric / suppress leading zeros}
FMAT,2
METRIC,TZ
T1C0.400
T2C0.600
T3C0.762
T4C0.800
T5C0.900
T6C1.000
T7C1.100
T8C1.143
%
G90
G05
M71
T1
X130750Y-104865
X133250Y-107182
X139509Y-82904
X143734Y-133891
X148925Y-85002
X156191Y-98399
X156683Y-127452
X175409Y-122621
X179000Y-135863
T2
X109500Y-135900
X109500Y-137900
X153300Y-66000
X155300Y-66000
X165500Y-134500
X165500Y-136500
X171300Y-106800
X171300Y-108800
X190500Y-115000
X190600Y-123600
X192500Y-115000
X192600Y-123600
X197900Y-132700
X197900Y-134700
T3
X71660Y-81890
X71660Y-89510
X102140Y-81890
X102140Y-89510
T4
X95500Y-121500
X95500Y-124000
X113200Y-92500
X113200Y-95000
X148000Y-109000
X150500Y-109000
X188700Y-133300
X188700Y-135800
X194400Y-64400
X194400Y-66900
X195000Y-84000
X195000Y-86540
X195000Y-89080
X195000Y-91620
X202620Y-84000
X202620Y-86540
X202620Y-89080
X202620Y-91620
X206760Y-131685
X209260Y-131685
X212000Y-84500
X212000Y-87000
T5
X67100Y-63200
X67100Y-65700
X69000Y-104000
X69000Y-113000
X69000Y-122000
X69000Y-131000
X71500Y-104000
X71500Y-113000
X71500Y-122000
X71500Y-131000
X78500Y-144500
X81000Y-117000
X81000Y-144500
X83500Y-117000
X83500Y-144500
X95000Y-103000
X95000Y-105500
X95000Y-108000
X110000Y-61000
X110000Y-63500
X125500Y-113000
X125500Y-115500
X125500Y-124000
X125500Y-126500
X149500Y-56500
X152000Y-56500
X154500Y-56500
X157000Y-56500
X168000Y-57000
X170500Y-57000
X173000Y-57000
X175500Y-57000
X179000Y-144000
X181500Y-144000
X184000Y-144000
X186500Y-144000
X186700Y-56300
X189000Y-144000
X189200Y-56300
X191500Y-144000
X191700Y-56300
X194000Y-144000
X194200Y-56300
X196500Y-144000
X201400Y-117600
X201400Y-120100
X212000Y-93000
X212000Y-95540
T6
X76570Y-56650
X76570Y-59190
X76570Y-66810
X76570Y-69350
X99430Y-56650
X99430Y-69350
X107190Y-110610
X107190Y-113150
X107190Y-115690
X107190Y-118230
X107190Y-120770
X107190Y-123310
X107190Y-125850
X107190Y-128390
X114810Y-110610
X114810Y-113150
X114810Y-115690
X114810Y-118230
X114810Y-120770
X114810Y-123310
X114810Y-125850
X114810Y-128390
X123080Y-63220
X123080Y-65760
X123080Y-68300
X123080Y-70840
X123080Y-73380
X123080Y-75920
X123080Y-78460
X123080Y-81000
X123080Y-83540
X123080Y-86080
X123080Y-88620
X123080Y-91160
X123080Y-93700
X123080Y-96240
X123080Y-98780
X138320Y-63220
X138320Y-65760
X138320Y-68300
X138320Y-70840
X138320Y-73380
X138320Y-75920
X138320Y-78460
X138320Y-81000
X138320Y-83540
X138320Y-86080
X138320Y-88620
X138320Y-91160
X138320Y-93700
X138320Y-96240
X138320Y-98780
X162500Y-67680
X162500Y-70220
X162500Y-72760
X162500Y-75300
X162500Y-77840
X162500Y-80380
X162500Y-82920
X162500Y-85460
X162500Y-88000
X162500Y-90540
X162500Y-93080
X162500Y-95620
X162500Y-98160
X162500Y-100700
X173590Y-116820
X173590Y-119360
X173590Y-121900
X173590Y-124440
X173590Y-126980
X181210Y-116820
X181210Y-119360
X181210Y-121900
X181210Y-124440
X181210Y-126980
X182500Y-67680
X182500Y-70220
X182500Y-72760
X182500Y-75300
X182500Y-77840
X182500Y-80380
X182500Y-82920
X182500Y-85460
X182500Y-88000
X182500Y-90540
X182500Y-93080
X182500Y-95620
X182500Y-98160
X182500Y-100700
T7
X173700Y-134100
X181320Y-134100
T8
X154900Y-121960
X154900Y-124500
X154900Y-127040
T0
M30
