G04 #@! TF.FileFunction,Other,Fab,Top*
%FSLAX46Y46*%
G04 Gerber Fmt 4.6, Leading zero omitted, Abs format (unit mm)*
G04 Created by KiCad (PCBNEW 4.0.6+dfsg1-1) date Sun Jan 14 01:56:40 2018*
%MOMM*%
%LPD*%
G01*
G04 APERTURE LIST*
%ADD10C,0.100000*%
%ADD11C,0.150000*%
%ADD12C,0.125000*%
G04 APERTURE END LIST*
D10*
X154850000Y-117490000D02*
X157550000Y-117490000D01*
X157550000Y-117490000D02*
X157550000Y-112290000D01*
X157550000Y-112290000D02*
X154850000Y-112290000D01*
X154850000Y-112290000D02*
X154850000Y-117490000D01*
X156200000Y-118700000D02*
X156200000Y-117490000D01*
X156200000Y-111080000D02*
X156200000Y-112290000D01*
X154850000Y-116710000D02*
X157550000Y-116710000D01*
X102750000Y-134100000D02*
G75*
G03X102750000Y-134100000I-2500000J0D01*
G01*
X103700000Y-134100000D02*
X102500000Y-134100000D01*
X103100000Y-134750000D02*
X103100000Y-133450000D01*
X188700000Y-124550000D02*
G75*
G03X188700000Y-124550000I-2500000J0D01*
G01*
X186200000Y-121100000D02*
X186200000Y-122300000D01*
X186850000Y-121700000D02*
X185550000Y-121700000D01*
X183150000Y-79340000D02*
X185650000Y-79340000D01*
X185650000Y-79340000D02*
X185650000Y-73040000D01*
X185650000Y-73040000D02*
X183150000Y-73040000D01*
X183150000Y-73040000D02*
X183150000Y-79340000D01*
X184400000Y-80000000D02*
X184400000Y-79340000D01*
X184400000Y-72380000D02*
X184400000Y-73040000D01*
X182250000Y-66060000D02*
X179750000Y-66060000D01*
X179750000Y-66060000D02*
X179750000Y-72360000D01*
X179750000Y-72360000D02*
X182250000Y-72360000D01*
X182250000Y-72360000D02*
X182250000Y-66060000D01*
X181000000Y-65400000D02*
X181000000Y-66060000D01*
X181000000Y-73020000D02*
X181000000Y-72360000D01*
X105650000Y-76060000D02*
X103150000Y-76060000D01*
X103150000Y-76060000D02*
X103150000Y-82360000D01*
X103150000Y-82360000D02*
X105650000Y-82360000D01*
X105650000Y-82360000D02*
X105650000Y-76060000D01*
X104400000Y-75400000D02*
X104400000Y-76060000D01*
X104400000Y-83020000D02*
X104400000Y-82360000D01*
X103340000Y-130750000D02*
X103340000Y-128250000D01*
X103340000Y-128250000D02*
X97040000Y-128250000D01*
X97040000Y-128250000D02*
X97040000Y-130750000D01*
X97040000Y-130750000D02*
X103340000Y-130750000D01*
X104000000Y-129500000D02*
X103340000Y-129500000D01*
X96380000Y-129500000D02*
X97040000Y-129500000D01*
X103340000Y-127350000D02*
X103340000Y-124850000D01*
X103340000Y-124850000D02*
X97040000Y-124850000D01*
X97040000Y-124850000D02*
X97040000Y-127350000D01*
X97040000Y-127350000D02*
X103340000Y-127350000D01*
X104000000Y-126100000D02*
X103340000Y-126100000D01*
X96380000Y-126100000D02*
X97040000Y-126100000D01*
X103340000Y-123950000D02*
X103340000Y-121450000D01*
X103340000Y-121450000D02*
X97040000Y-121450000D01*
X97040000Y-121450000D02*
X97040000Y-123950000D01*
X97040000Y-123950000D02*
X103340000Y-123950000D01*
X104000000Y-122700000D02*
X103340000Y-122700000D01*
X96380000Y-122700000D02*
X97040000Y-122700000D01*
X109350000Y-76060000D02*
X106850000Y-76060000D01*
X106850000Y-76060000D02*
X106850000Y-82360000D01*
X106850000Y-82360000D02*
X109350000Y-82360000D01*
X109350000Y-82360000D02*
X109350000Y-76060000D01*
X108100000Y-75400000D02*
X108100000Y-76060000D01*
X108100000Y-83020000D02*
X108100000Y-82360000D01*
X182250000Y-75960000D02*
X179750000Y-75960000D01*
X179750000Y-75960000D02*
X179750000Y-82260000D01*
X179750000Y-82260000D02*
X182250000Y-82260000D01*
X182250000Y-82260000D02*
X182250000Y-75960000D01*
X181000000Y-75300000D02*
X181000000Y-75960000D01*
X181000000Y-82920000D02*
X181000000Y-82260000D01*
X178950000Y-66060000D02*
X176450000Y-66060000D01*
X176450000Y-66060000D02*
X176450000Y-72360000D01*
X176450000Y-72360000D02*
X178950000Y-72360000D01*
X178950000Y-72360000D02*
X178950000Y-66060000D01*
X177700000Y-65400000D02*
X177700000Y-66060000D01*
X177700000Y-73020000D02*
X177700000Y-72360000D01*
X94550000Y-122850000D02*
X88800000Y-122850000D01*
X88800000Y-122850000D02*
X88800000Y-135250000D01*
X88800000Y-135250000D02*
X94550000Y-135250000D01*
X94550000Y-135250000D02*
X94550000Y-122850000D01*
X94950000Y-124950000D02*
X94950000Y-122450000D01*
X94950000Y-122450000D02*
X92450000Y-122450000D01*
X183450000Y-137250000D02*
X183450000Y-143000000D01*
X183450000Y-143000000D02*
X190850000Y-143000000D01*
X190850000Y-143000000D02*
X190850000Y-137250000D01*
X190850000Y-137250000D02*
X183450000Y-137250000D01*
X185550000Y-136850000D02*
X183050000Y-136850000D01*
X183050000Y-136850000D02*
X183050000Y-139350000D01*
X112250000Y-70650000D02*
X112250000Y-64900000D01*
X112250000Y-64900000D02*
X104850000Y-64900000D01*
X104850000Y-64900000D02*
X104850000Y-70650000D01*
X104850000Y-70650000D02*
X112250000Y-70650000D01*
X110150000Y-71050000D02*
X112650000Y-71050000D01*
X112650000Y-71050000D02*
X112650000Y-68550000D01*
X191750000Y-112450000D02*
X197500000Y-112450000D01*
X197500000Y-112450000D02*
X197500000Y-105050000D01*
X197500000Y-105050000D02*
X191750000Y-105050000D01*
X191750000Y-105050000D02*
X191750000Y-112450000D01*
X191350000Y-110350000D02*
X191350000Y-112850000D01*
X191350000Y-112850000D02*
X193850000Y-112850000D01*
X191750000Y-103250000D02*
X197500000Y-103250000D01*
X197500000Y-103250000D02*
X197500000Y-95850000D01*
X197500000Y-95850000D02*
X191750000Y-95850000D01*
X191750000Y-95850000D02*
X191750000Y-103250000D01*
X191350000Y-101150000D02*
X191350000Y-103650000D01*
X191350000Y-103650000D02*
X193850000Y-103650000D01*
X127060000Y-105750000D02*
X127060000Y-108250000D01*
X127060000Y-108250000D02*
X133360000Y-108250000D01*
X133360000Y-108250000D02*
X133360000Y-105750000D01*
X133360000Y-105750000D02*
X127060000Y-105750000D01*
X126400000Y-107000000D02*
X127060000Y-107000000D01*
X134020000Y-107000000D02*
X133360000Y-107000000D01*
X137635000Y-126530000D02*
X142985000Y-126530000D01*
X142985000Y-126530000D02*
X142985000Y-136690000D01*
X142985000Y-136690000D02*
X136635000Y-136690000D01*
X136635000Y-136690000D02*
X136635000Y-127530000D01*
X136635000Y-127530000D02*
X137635000Y-126530000D01*
X190650000Y-70450000D02*
X190650000Y-64700000D01*
X190650000Y-64700000D02*
X183250000Y-64700000D01*
X183250000Y-64700000D02*
X183250000Y-70450000D01*
X183250000Y-70450000D02*
X190650000Y-70450000D01*
X188550000Y-70850000D02*
X191050000Y-70850000D01*
X191050000Y-70850000D02*
X191050000Y-68350000D01*
X97250000Y-137550000D02*
X97250000Y-143300000D01*
X97250000Y-143300000D02*
X104650000Y-143300000D01*
X104650000Y-143300000D02*
X104650000Y-137550000D01*
X104650000Y-137550000D02*
X97250000Y-137550000D01*
X99350000Y-137150000D02*
X96850000Y-137150000D01*
X96850000Y-137150000D02*
X96850000Y-139650000D01*
X103550000Y-70650000D02*
X103550000Y-64900000D01*
X103550000Y-64900000D02*
X96150000Y-64900000D01*
X96150000Y-64900000D02*
X96150000Y-70650000D01*
X96150000Y-70650000D02*
X103550000Y-70650000D01*
X101450000Y-71050000D02*
X103950000Y-71050000D01*
X103950000Y-71050000D02*
X103950000Y-68550000D01*
X191750000Y-79850000D02*
X197500000Y-79850000D01*
X197500000Y-79850000D02*
X197500000Y-72450000D01*
X197500000Y-72450000D02*
X191750000Y-72450000D01*
X191750000Y-72450000D02*
X191750000Y-79850000D01*
X191350000Y-77750000D02*
X191350000Y-80250000D01*
X191350000Y-80250000D02*
X193850000Y-80250000D01*
X191750000Y-94050000D02*
X197500000Y-94050000D01*
X197500000Y-94050000D02*
X197500000Y-81650000D01*
X197500000Y-81650000D02*
X191750000Y-81650000D01*
X191750000Y-81650000D02*
X191750000Y-94050000D01*
X191350000Y-91950000D02*
X191350000Y-94450000D01*
X191350000Y-94450000D02*
X193850000Y-94450000D01*
X126900000Y-111600000D02*
G75*
G03X126900000Y-111600000I-2500000J0D01*
G01*
X121200000Y-111600000D02*
X122400000Y-111600000D01*
X121800000Y-110950000D02*
X121800000Y-112250000D01*
X158350000Y-112250000D02*
X160450000Y-112250000D01*
X160450000Y-112250000D02*
X160450000Y-108850000D01*
X160450000Y-108850000D02*
X158350000Y-108850000D01*
X158350000Y-108850000D02*
X158350000Y-112250000D01*
X124550000Y-108050000D02*
X124550000Y-105950000D01*
X124550000Y-105950000D02*
X121150000Y-105950000D01*
X121150000Y-105950000D02*
X121150000Y-108050000D01*
X121150000Y-108050000D02*
X124550000Y-108050000D01*
X160450000Y-117550000D02*
X158350000Y-117550000D01*
X158350000Y-117550000D02*
X158350000Y-120950000D01*
X158350000Y-120950000D02*
X160450000Y-120950000D01*
X160450000Y-120950000D02*
X160450000Y-117550000D01*
X94850000Y-71750000D02*
X89100000Y-71750000D01*
X89100000Y-71750000D02*
X89100000Y-84150000D01*
X89100000Y-84150000D02*
X94850000Y-84150000D01*
X94850000Y-84150000D02*
X94850000Y-71750000D01*
X95250000Y-73850000D02*
X95250000Y-71350000D01*
X95250000Y-71350000D02*
X92750000Y-71350000D01*
X191750000Y-126550000D02*
X197500000Y-126550000D01*
X197500000Y-126550000D02*
X197500000Y-114150000D01*
X197500000Y-114150000D02*
X191750000Y-114150000D01*
X191750000Y-114150000D02*
X191750000Y-126550000D01*
X191350000Y-124450000D02*
X191350000Y-126950000D01*
X191350000Y-126950000D02*
X193850000Y-126950000D01*
X184700000Y-103700000D02*
G75*
G03X184700000Y-103700000I-4000000J0D01*
G01*
X176600000Y-103700000D02*
X177800000Y-103700000D01*
X177200000Y-103050000D02*
X177200000Y-104350000D01*
X184300000Y-88400000D02*
G75*
G03X184300000Y-88400000I-4000000J0D01*
G01*
X176200000Y-88400000D02*
X177400000Y-88400000D01*
X176800000Y-87750000D02*
X176800000Y-89050000D01*
X140300000Y-140850000D02*
G75*
G03X140300000Y-140850000I-2500000J0D01*
G01*
X137800000Y-137400000D02*
X137800000Y-138600000D01*
X138450000Y-138000000D02*
X137150000Y-138000000D01*
X126900000Y-117500000D02*
G75*
G03X126900000Y-117500000I-2500000J0D01*
G01*
X121200000Y-117500000D02*
X122400000Y-117500000D01*
X121800000Y-116850000D02*
X121800000Y-118150000D01*
X190150000Y-87900000D02*
G75*
G03X190150000Y-87900000I-2500000J0D01*
G01*
X184200000Y-87900000D02*
X185400000Y-87900000D01*
X184800000Y-87250000D02*
X184800000Y-88550000D01*
X132750000Y-111600000D02*
G75*
G03X132750000Y-111600000I-2500000J0D01*
G01*
X126800000Y-111600000D02*
X128000000Y-111600000D01*
X127400000Y-110950000D02*
X127400000Y-112250000D01*
X138600000Y-117500000D02*
G75*
G03X138600000Y-117500000I-2500000J0D01*
G01*
X132900000Y-117500000D02*
X134100000Y-117500000D01*
X133500000Y-116850000D02*
X133500000Y-118150000D01*
X138600000Y-111600000D02*
G75*
G03X138600000Y-111600000I-2500000J0D01*
G01*
X132900000Y-111600000D02*
X134100000Y-111600000D01*
X133500000Y-110950000D02*
X133500000Y-112250000D01*
X132800000Y-117500000D02*
G75*
G03X132800000Y-117500000I-2500000J0D01*
G01*
X127100000Y-117500000D02*
X128300000Y-117500000D01*
X127700000Y-116850000D02*
X127700000Y-118150000D01*
X191750000Y-135750000D02*
X197500000Y-135750000D01*
X197500000Y-135750000D02*
X197500000Y-128350000D01*
X197500000Y-128350000D02*
X191750000Y-128350000D01*
X191750000Y-128350000D02*
X191750000Y-135750000D01*
X191350000Y-133650000D02*
X191350000Y-136150000D01*
X191350000Y-136150000D02*
X193850000Y-136150000D01*
D11*
X156652381Y-113561905D02*
X155652381Y-113561905D01*
X155652381Y-113323810D01*
X155700000Y-113180952D01*
X155795238Y-113085714D01*
X155890476Y-113038095D01*
X156080952Y-112990476D01*
X156223810Y-112990476D01*
X156414286Y-113038095D01*
X156509524Y-113085714D01*
X156604762Y-113180952D01*
X156652381Y-113323810D01*
X156652381Y-113561905D01*
X103023810Y-132661905D02*
X102566667Y-132661905D01*
X102795238Y-132661905D02*
X102795238Y-131861905D01*
X102719048Y-131976190D01*
X102642857Y-132052381D01*
X102566667Y-132090476D01*
X103709524Y-132128571D02*
X103709524Y-132661905D01*
X103366667Y-132128571D02*
X103366667Y-132547619D01*
X103404762Y-132623810D01*
X103480953Y-132661905D01*
X103595239Y-132661905D01*
X103671429Y-132623810D01*
X103709524Y-132585714D01*
X104357144Y-132242857D02*
X104090477Y-132242857D01*
X104090477Y-132661905D02*
X104090477Y-131861905D01*
X104471430Y-131861905D01*
X186561905Y-128361905D02*
X186104762Y-128361905D01*
X186333333Y-128361905D02*
X186333333Y-127561905D01*
X186257143Y-127676190D01*
X186180952Y-127752381D01*
X186104762Y-127790476D01*
X187057143Y-127561905D02*
X187133334Y-127561905D01*
X187209524Y-127600000D01*
X187247619Y-127638095D01*
X187285715Y-127714286D01*
X187323810Y-127866667D01*
X187323810Y-128057143D01*
X187285715Y-128209524D01*
X187247619Y-128285714D01*
X187209524Y-128323810D01*
X187133334Y-128361905D01*
X187057143Y-128361905D01*
X186980953Y-128323810D01*
X186942857Y-128285714D01*
X186904762Y-128209524D01*
X186866667Y-128057143D01*
X186866667Y-127866667D01*
X186904762Y-127714286D01*
X186942857Y-127638095D01*
X186980953Y-127600000D01*
X187057143Y-127561905D01*
X187819048Y-127561905D02*
X187895239Y-127561905D01*
X187971429Y-127600000D01*
X188009524Y-127638095D01*
X188047620Y-127714286D01*
X188085715Y-127866667D01*
X188085715Y-128057143D01*
X188047620Y-128209524D01*
X188009524Y-128285714D01*
X187971429Y-128323810D01*
X187895239Y-128361905D01*
X187819048Y-128361905D01*
X187742858Y-128323810D01*
X187704762Y-128285714D01*
X187666667Y-128209524D01*
X187628572Y-128057143D01*
X187628572Y-127866667D01*
X187666667Y-127714286D01*
X187704762Y-127638095D01*
X187742858Y-127600000D01*
X187819048Y-127561905D01*
X188771429Y-127828571D02*
X188771429Y-128361905D01*
X188428572Y-127828571D02*
X188428572Y-128247619D01*
X188466667Y-128323810D01*
X188542858Y-128361905D01*
X188657144Y-128361905D01*
X188733334Y-128323810D01*
X188771429Y-128285714D01*
X189419049Y-127942857D02*
X189152382Y-127942857D01*
X189152382Y-128361905D02*
X189152382Y-127561905D01*
X189533335Y-127561905D01*
X188852381Y-117780952D02*
X187852381Y-117780952D01*
X188852381Y-116733333D02*
X188376190Y-117066667D01*
X188852381Y-117304762D02*
X187852381Y-117304762D01*
X187852381Y-116923809D01*
X187900000Y-116828571D01*
X187947619Y-116780952D01*
X188042857Y-116733333D01*
X188185714Y-116733333D01*
X188280952Y-116780952D01*
X188328571Y-116828571D01*
X188376190Y-116923809D01*
X188376190Y-117304762D01*
X188328571Y-115971428D02*
X188328571Y-116304762D01*
X188852381Y-116304762D02*
X187852381Y-116304762D01*
X187852381Y-115828571D01*
X187852381Y-114971428D02*
X187852381Y-115447619D01*
X188328571Y-115495238D01*
X188280952Y-115447619D01*
X188233333Y-115352381D01*
X188233333Y-115114285D01*
X188280952Y-115019047D01*
X188328571Y-114971428D01*
X188423810Y-114923809D01*
X188661905Y-114923809D01*
X188757143Y-114971428D01*
X188804762Y-115019047D01*
X188852381Y-115114285D01*
X188852381Y-115352381D01*
X188804762Y-115447619D01*
X188757143Y-115495238D01*
X188185714Y-114066666D02*
X188852381Y-114066666D01*
X187804762Y-114304762D02*
X188519048Y-114542857D01*
X188519048Y-113923809D01*
X187852381Y-113352381D02*
X187852381Y-113257142D01*
X187900000Y-113161904D01*
X187947619Y-113114285D01*
X188042857Y-113066666D01*
X188233333Y-113019047D01*
X188471429Y-113019047D01*
X188661905Y-113066666D01*
X188757143Y-113114285D01*
X188804762Y-113161904D01*
X188852381Y-113257142D01*
X188852381Y-113352381D01*
X188804762Y-113447619D01*
X188757143Y-113495238D01*
X188661905Y-113542857D01*
X188471429Y-113590476D01*
X188233333Y-113590476D01*
X188042857Y-113542857D01*
X187947619Y-113495238D01*
X187900000Y-113447619D01*
X187852381Y-113352381D01*
X188852381Y-112590476D02*
X187852381Y-112590476D01*
X188852381Y-112019047D01*
X187852381Y-112019047D01*
X183947619Y-78704762D02*
X183900000Y-78657143D01*
X183852381Y-78561905D01*
X183852381Y-78323809D01*
X183900000Y-78228571D01*
X183947619Y-78180952D01*
X184042857Y-78133333D01*
X184138095Y-78133333D01*
X184280952Y-78180952D01*
X184852381Y-78752381D01*
X184852381Y-78133333D01*
X184804762Y-77657143D02*
X184852381Y-77657143D01*
X184947619Y-77704762D01*
X184995238Y-77752381D01*
X183947619Y-77276191D02*
X183900000Y-77228572D01*
X183852381Y-77133334D01*
X183852381Y-76895238D01*
X183900000Y-76800000D01*
X183947619Y-76752381D01*
X184042857Y-76704762D01*
X184138095Y-76704762D01*
X184280952Y-76752381D01*
X184852381Y-77323810D01*
X184852381Y-76704762D01*
X184852381Y-76276191D02*
X183852381Y-76276191D01*
X184471429Y-76180953D02*
X184852381Y-75895238D01*
X184185714Y-75895238D02*
X184566667Y-76276191D01*
X180547619Y-71704762D02*
X180500000Y-71657143D01*
X180452381Y-71561905D01*
X180452381Y-71323809D01*
X180500000Y-71228571D01*
X180547619Y-71180952D01*
X180642857Y-71133333D01*
X180738095Y-71133333D01*
X180880952Y-71180952D01*
X181452381Y-71752381D01*
X181452381Y-71133333D01*
X181404762Y-70657143D02*
X181452381Y-70657143D01*
X181547619Y-70704762D01*
X181595238Y-70752381D01*
X180547619Y-70276191D02*
X180500000Y-70228572D01*
X180452381Y-70133334D01*
X180452381Y-69895238D01*
X180500000Y-69800000D01*
X180547619Y-69752381D01*
X180642857Y-69704762D01*
X180738095Y-69704762D01*
X180880952Y-69752381D01*
X181452381Y-70323810D01*
X181452381Y-69704762D01*
X181452381Y-69276191D02*
X180452381Y-69276191D01*
X181071429Y-69180953D02*
X181452381Y-68895238D01*
X180785714Y-68895238D02*
X181166667Y-69276191D01*
X103847619Y-79504762D02*
X103800000Y-79457143D01*
X103752381Y-79361905D01*
X103752381Y-79123809D01*
X103800000Y-79028571D01*
X103847619Y-78980952D01*
X103942857Y-78933333D01*
X104038095Y-78933333D01*
X104180952Y-78980952D01*
X104752381Y-79552381D01*
X104752381Y-78933333D01*
X104704762Y-78457143D02*
X104752381Y-78457143D01*
X104847619Y-78504762D01*
X104895238Y-78552381D01*
X103847619Y-78076191D02*
X103800000Y-78028572D01*
X103752381Y-77933334D01*
X103752381Y-77695238D01*
X103800000Y-77600000D01*
X103847619Y-77552381D01*
X103942857Y-77504762D01*
X104038095Y-77504762D01*
X104180952Y-77552381D01*
X104752381Y-78123810D01*
X104752381Y-77504762D01*
X104752381Y-77076191D02*
X103752381Y-77076191D01*
X104371429Y-76980953D02*
X104752381Y-76695238D01*
X104085714Y-76695238D02*
X104466667Y-77076191D01*
X100228572Y-129852381D02*
X99657143Y-129852381D01*
X99942857Y-129852381D02*
X99942857Y-128852381D01*
X99847619Y-128995238D01*
X99752381Y-129090476D01*
X99657143Y-129138095D01*
X100847619Y-128852381D02*
X100942858Y-128852381D01*
X101038096Y-128900000D01*
X101085715Y-128947619D01*
X101133334Y-129042857D01*
X101180953Y-129233333D01*
X101180953Y-129471429D01*
X101133334Y-129661905D01*
X101085715Y-129757143D01*
X101038096Y-129804762D01*
X100942858Y-129852381D01*
X100847619Y-129852381D01*
X100752381Y-129804762D01*
X100704762Y-129757143D01*
X100657143Y-129661905D01*
X100609524Y-129471429D01*
X100609524Y-129233333D01*
X100657143Y-129042857D01*
X100704762Y-128947619D01*
X100752381Y-128900000D01*
X100847619Y-128852381D01*
X101800000Y-128852381D02*
X101895239Y-128852381D01*
X101990477Y-128900000D01*
X102038096Y-128947619D01*
X102085715Y-129042857D01*
X102133334Y-129233333D01*
X102133334Y-129471429D01*
X102085715Y-129661905D01*
X102038096Y-129757143D01*
X101990477Y-129804762D01*
X101895239Y-129852381D01*
X101800000Y-129852381D01*
X101704762Y-129804762D01*
X101657143Y-129757143D01*
X101609524Y-129661905D01*
X101561905Y-129471429D01*
X101561905Y-129233333D01*
X101609524Y-129042857D01*
X101657143Y-128947619D01*
X101704762Y-128900000D01*
X101800000Y-128852381D01*
X102561905Y-129852381D02*
X102561905Y-128852381D01*
X102657143Y-129471429D02*
X102942858Y-129852381D01*
X102942858Y-129185714D02*
X102561905Y-129566667D01*
X101104762Y-126452381D02*
X100533333Y-126452381D01*
X100819047Y-126452381D02*
X100819047Y-125452381D01*
X100723809Y-125595238D01*
X100628571Y-125690476D01*
X100533333Y-125738095D01*
X101723809Y-125452381D02*
X101819048Y-125452381D01*
X101914286Y-125500000D01*
X101961905Y-125547619D01*
X102009524Y-125642857D01*
X102057143Y-125833333D01*
X102057143Y-126071429D01*
X102009524Y-126261905D01*
X101961905Y-126357143D01*
X101914286Y-126404762D01*
X101819048Y-126452381D01*
X101723809Y-126452381D01*
X101628571Y-126404762D01*
X101580952Y-126357143D01*
X101533333Y-126261905D01*
X101485714Y-126071429D01*
X101485714Y-125833333D01*
X101533333Y-125642857D01*
X101580952Y-125547619D01*
X101628571Y-125500000D01*
X101723809Y-125452381D01*
X102485714Y-126452381D02*
X102485714Y-125452381D01*
X102580952Y-126071429D02*
X102866667Y-126452381D01*
X102866667Y-125785714D02*
X102485714Y-126166667D01*
X101204762Y-123152381D02*
X100633333Y-123152381D01*
X100919047Y-123152381D02*
X100919047Y-122152381D01*
X100823809Y-122295238D01*
X100728571Y-122390476D01*
X100633333Y-122438095D01*
X101823809Y-122152381D02*
X101919048Y-122152381D01*
X102014286Y-122200000D01*
X102061905Y-122247619D01*
X102109524Y-122342857D01*
X102157143Y-122533333D01*
X102157143Y-122771429D01*
X102109524Y-122961905D01*
X102061905Y-123057143D01*
X102014286Y-123104762D01*
X101919048Y-123152381D01*
X101823809Y-123152381D01*
X101728571Y-123104762D01*
X101680952Y-123057143D01*
X101633333Y-122961905D01*
X101585714Y-122771429D01*
X101585714Y-122533333D01*
X101633333Y-122342857D01*
X101680952Y-122247619D01*
X101728571Y-122200000D01*
X101823809Y-122152381D01*
X102585714Y-123152381D02*
X102585714Y-122152381D01*
X102680952Y-122771429D02*
X102966667Y-123152381D01*
X102966667Y-122485714D02*
X102585714Y-122866667D01*
X108452381Y-78019047D02*
X108452381Y-78590476D01*
X108452381Y-78304762D02*
X107452381Y-78304762D01*
X107595238Y-78400000D01*
X107690476Y-78495238D01*
X107738095Y-78590476D01*
X108452381Y-77590476D02*
X107452381Y-77590476D01*
X108071429Y-77495238D02*
X108452381Y-77209523D01*
X107785714Y-77209523D02*
X108166667Y-77590476D01*
X180252381Y-79285714D02*
X180252381Y-78666666D01*
X180633333Y-79000000D01*
X180633333Y-78857142D01*
X180680952Y-78761904D01*
X180728571Y-78714285D01*
X180823810Y-78666666D01*
X181061905Y-78666666D01*
X181157143Y-78714285D01*
X181204762Y-78761904D01*
X181252381Y-78857142D01*
X181252381Y-79142857D01*
X181204762Y-79238095D01*
X181157143Y-79285714D01*
X180252381Y-78047619D02*
X180252381Y-77952380D01*
X180300000Y-77857142D01*
X180347619Y-77809523D01*
X180442857Y-77761904D01*
X180633333Y-77714285D01*
X180871429Y-77714285D01*
X181061905Y-77761904D01*
X181157143Y-77809523D01*
X181204762Y-77857142D01*
X181252381Y-77952380D01*
X181252381Y-78047619D01*
X181204762Y-78142857D01*
X181157143Y-78190476D01*
X181061905Y-78238095D01*
X180871429Y-78285714D01*
X180633333Y-78285714D01*
X180442857Y-78238095D01*
X180347619Y-78190476D01*
X180300000Y-78142857D01*
X180252381Y-78047619D01*
X180252381Y-77095238D02*
X180252381Y-76999999D01*
X180300000Y-76904761D01*
X180347619Y-76857142D01*
X180442857Y-76809523D01*
X180633333Y-76761904D01*
X180871429Y-76761904D01*
X181061905Y-76809523D01*
X181157143Y-76857142D01*
X181204762Y-76904761D01*
X181252381Y-76999999D01*
X181252381Y-77095238D01*
X181204762Y-77190476D01*
X181157143Y-77238095D01*
X181061905Y-77285714D01*
X180871429Y-77333333D01*
X180633333Y-77333333D01*
X180442857Y-77285714D01*
X180347619Y-77238095D01*
X180300000Y-77190476D01*
X180252381Y-77095238D01*
X178152381Y-71119047D02*
X178152381Y-71690476D01*
X178152381Y-71404762D02*
X177152381Y-71404762D01*
X177295238Y-71500000D01*
X177390476Y-71595238D01*
X177438095Y-71690476D01*
X178152381Y-70690476D02*
X177152381Y-70690476D01*
X177771429Y-70595238D02*
X178152381Y-70309523D01*
X177485714Y-70309523D02*
X177866667Y-70690476D01*
X158476381Y-79749142D02*
X159190667Y-79749142D01*
X159333524Y-79796762D01*
X159428762Y-79892000D01*
X159476381Y-80034857D01*
X159476381Y-80130095D01*
X159571619Y-78606285D02*
X159524000Y-78701523D01*
X159428762Y-78796761D01*
X159285905Y-78939618D01*
X159238286Y-79034857D01*
X159238286Y-79130095D01*
X159476381Y-79082476D02*
X159428762Y-79177714D01*
X159333524Y-79272952D01*
X159143048Y-79320571D01*
X158809714Y-79320571D01*
X158619238Y-79272952D01*
X158524000Y-79177714D01*
X158476381Y-79082476D01*
X158476381Y-78891999D01*
X158524000Y-78796761D01*
X158619238Y-78701523D01*
X158809714Y-78653904D01*
X159143048Y-78653904D01*
X159333524Y-78701523D01*
X159428762Y-78796761D01*
X159476381Y-78891999D01*
X159476381Y-79082476D01*
X158476381Y-77796761D02*
X158476381Y-77987238D01*
X158524000Y-78082476D01*
X158571619Y-78130095D01*
X158714476Y-78225333D01*
X158904952Y-78272952D01*
X159285905Y-78272952D01*
X159381143Y-78225333D01*
X159428762Y-78177714D01*
X159476381Y-78082476D01*
X159476381Y-77891999D01*
X159428762Y-77796761D01*
X159381143Y-77749142D01*
X159285905Y-77701523D01*
X159047810Y-77701523D01*
X158952571Y-77749142D01*
X158904952Y-77796761D01*
X158857333Y-77891999D01*
X158857333Y-78082476D01*
X158904952Y-78177714D01*
X158952571Y-78225333D01*
X159047810Y-78272952D01*
X158476381Y-76796761D02*
X158476381Y-77272952D01*
X158952571Y-77320571D01*
X158904952Y-77272952D01*
X158857333Y-77177714D01*
X158857333Y-76939618D01*
X158904952Y-76844380D01*
X158952571Y-76796761D01*
X159047810Y-76749142D01*
X159285905Y-76749142D01*
X159381143Y-76796761D01*
X159428762Y-76844380D01*
X159476381Y-76939618D01*
X159476381Y-77177714D01*
X159428762Y-77272952D01*
X159381143Y-77320571D01*
X158476381Y-76130095D02*
X158476381Y-76034856D01*
X158524000Y-75939618D01*
X158571619Y-75891999D01*
X158666857Y-75844380D01*
X158857333Y-75796761D01*
X159095429Y-75796761D01*
X159285905Y-75844380D01*
X159381143Y-75891999D01*
X159428762Y-75939618D01*
X159476381Y-76034856D01*
X159476381Y-76130095D01*
X159428762Y-76225333D01*
X159381143Y-76272952D01*
X159285905Y-76320571D01*
X159095429Y-76368190D01*
X158857333Y-76368190D01*
X158666857Y-76320571D01*
X158571619Y-76272952D01*
X158524000Y-76225333D01*
X158476381Y-76130095D01*
X158476381Y-75177714D02*
X158476381Y-75082475D01*
X158524000Y-74987237D01*
X158571619Y-74939618D01*
X158666857Y-74891999D01*
X158857333Y-74844380D01*
X159095429Y-74844380D01*
X159285905Y-74891999D01*
X159381143Y-74939618D01*
X159428762Y-74987237D01*
X159476381Y-75082475D01*
X159476381Y-75177714D01*
X159428762Y-75272952D01*
X159381143Y-75320571D01*
X159285905Y-75368190D01*
X159095429Y-75415809D01*
X158857333Y-75415809D01*
X158666857Y-75368190D01*
X158571619Y-75320571D01*
X158524000Y-75272952D01*
X158476381Y-75177714D01*
X159095429Y-74415809D02*
X159095429Y-73653904D01*
X158571619Y-73225333D02*
X158524000Y-73177714D01*
X158476381Y-73082476D01*
X158476381Y-72844380D01*
X158524000Y-72749142D01*
X158571619Y-72701523D01*
X158666857Y-72653904D01*
X158762095Y-72653904D01*
X158904952Y-72701523D01*
X159476381Y-73272952D01*
X159476381Y-72653904D01*
X158904952Y-72082476D02*
X158857333Y-72177714D01*
X158809714Y-72225333D01*
X158714476Y-72272952D01*
X158666857Y-72272952D01*
X158571619Y-72225333D01*
X158524000Y-72177714D01*
X158476381Y-72082476D01*
X158476381Y-71891999D01*
X158524000Y-71796761D01*
X158571619Y-71749142D01*
X158666857Y-71701523D01*
X158714476Y-71701523D01*
X158809714Y-71749142D01*
X158857333Y-71796761D01*
X158904952Y-71891999D01*
X158904952Y-72082476D01*
X158952571Y-72177714D01*
X159000190Y-72225333D01*
X159095429Y-72272952D01*
X159285905Y-72272952D01*
X159381143Y-72225333D01*
X159428762Y-72177714D01*
X159476381Y-72082476D01*
X159476381Y-71891999D01*
X159428762Y-71796761D01*
X159381143Y-71749142D01*
X159285905Y-71701523D01*
X159095429Y-71701523D01*
X159000190Y-71749142D01*
X158952571Y-71796761D01*
X158904952Y-71891999D01*
X159476381Y-71272952D02*
X158476381Y-71272952D01*
X158476381Y-70891999D01*
X158524000Y-70796761D01*
X158571619Y-70749142D01*
X158666857Y-70701523D01*
X158809714Y-70701523D01*
X158904952Y-70749142D01*
X158952571Y-70796761D01*
X159000190Y-70891999D01*
X159000190Y-71272952D01*
X105080952Y-97962381D02*
X105080952Y-96962381D01*
X105414286Y-97676667D01*
X105747619Y-96962381D01*
X105747619Y-97962381D01*
X106080952Y-96962381D02*
X106652381Y-96962381D01*
X106366666Y-97962381D02*
X106366666Y-96962381D01*
X106890476Y-96962381D02*
X107509524Y-96962381D01*
X107176190Y-97343333D01*
X107319048Y-97343333D01*
X107414286Y-97390952D01*
X107461905Y-97438571D01*
X107509524Y-97533810D01*
X107509524Y-97771905D01*
X107461905Y-97867143D01*
X107414286Y-97914762D01*
X107319048Y-97962381D01*
X107033333Y-97962381D01*
X106938095Y-97914762D01*
X106890476Y-97867143D01*
X108366667Y-96962381D02*
X108176190Y-96962381D01*
X108080952Y-97010000D01*
X108033333Y-97057619D01*
X107938095Y-97200476D01*
X107890476Y-97390952D01*
X107890476Y-97771905D01*
X107938095Y-97867143D01*
X107985714Y-97914762D01*
X108080952Y-97962381D01*
X108271429Y-97962381D01*
X108366667Y-97914762D01*
X108414286Y-97867143D01*
X108461905Y-97771905D01*
X108461905Y-97533810D01*
X108414286Y-97438571D01*
X108366667Y-97390952D01*
X108271429Y-97343333D01*
X108080952Y-97343333D01*
X107985714Y-97390952D01*
X107938095Y-97438571D01*
X107890476Y-97533810D01*
X109080952Y-96962381D02*
X109176191Y-96962381D01*
X109271429Y-97010000D01*
X109319048Y-97057619D01*
X109366667Y-97152857D01*
X109414286Y-97343333D01*
X109414286Y-97581429D01*
X109366667Y-97771905D01*
X109319048Y-97867143D01*
X109271429Y-97914762D01*
X109176191Y-97962381D01*
X109080952Y-97962381D01*
X108985714Y-97914762D01*
X108938095Y-97867143D01*
X108890476Y-97771905D01*
X108842857Y-97581429D01*
X108842857Y-97343333D01*
X108890476Y-97152857D01*
X108938095Y-97057619D01*
X108985714Y-97010000D01*
X109080952Y-96962381D01*
X109985714Y-97390952D02*
X109890476Y-97343333D01*
X109842857Y-97295714D01*
X109795238Y-97200476D01*
X109795238Y-97152857D01*
X109842857Y-97057619D01*
X109890476Y-97010000D01*
X109985714Y-96962381D01*
X110176191Y-96962381D01*
X110271429Y-97010000D01*
X110319048Y-97057619D01*
X110366667Y-97152857D01*
X110366667Y-97200476D01*
X110319048Y-97295714D01*
X110271429Y-97343333D01*
X110176191Y-97390952D01*
X109985714Y-97390952D01*
X109890476Y-97438571D01*
X109842857Y-97486190D01*
X109795238Y-97581429D01*
X109795238Y-97771905D01*
X109842857Y-97867143D01*
X109890476Y-97914762D01*
X109985714Y-97962381D01*
X110176191Y-97962381D01*
X110271429Y-97914762D01*
X110319048Y-97867143D01*
X110366667Y-97771905D01*
X110366667Y-97581429D01*
X110319048Y-97486190D01*
X110271429Y-97438571D01*
X110176191Y-97390952D01*
X90261905Y-122152381D02*
X90261905Y-121152381D01*
X90642858Y-121152381D01*
X90738096Y-121200000D01*
X90785715Y-121247619D01*
X90833334Y-121342857D01*
X90833334Y-121485714D01*
X90785715Y-121580952D01*
X90738096Y-121628571D01*
X90642858Y-121676190D01*
X90261905Y-121676190D01*
X91404762Y-122152381D02*
X91309524Y-122104762D01*
X91261905Y-122057143D01*
X91214286Y-121961905D01*
X91214286Y-121676190D01*
X91261905Y-121580952D01*
X91309524Y-121533333D01*
X91404762Y-121485714D01*
X91547620Y-121485714D01*
X91642858Y-121533333D01*
X91690477Y-121580952D01*
X91738096Y-121676190D01*
X91738096Y-121961905D01*
X91690477Y-122057143D01*
X91642858Y-122104762D01*
X91547620Y-122152381D01*
X91404762Y-122152381D01*
X92023810Y-121485714D02*
X92404762Y-121485714D01*
X92166667Y-121152381D02*
X92166667Y-122009524D01*
X92214286Y-122104762D01*
X92309524Y-122152381D01*
X92404762Y-122152381D01*
X92738096Y-122152381D02*
X92738096Y-121485714D01*
X92738096Y-121152381D02*
X92690477Y-121200000D01*
X92738096Y-121247619D01*
X92785715Y-121200000D01*
X92738096Y-121152381D01*
X92738096Y-121247619D01*
X91566667Y-135852381D02*
X91566667Y-136566667D01*
X91519047Y-136709524D01*
X91423809Y-136804762D01*
X91280952Y-136852381D01*
X91185714Y-136852381D01*
X92566667Y-136852381D02*
X91995238Y-136852381D01*
X92280952Y-136852381D02*
X92280952Y-135852381D01*
X92185714Y-135995238D01*
X92090476Y-136090476D01*
X91995238Y-136138095D01*
X184909524Y-136552381D02*
X184576190Y-136076190D01*
X184338095Y-136552381D02*
X184338095Y-135552381D01*
X184719048Y-135552381D01*
X184814286Y-135600000D01*
X184861905Y-135647619D01*
X184909524Y-135742857D01*
X184909524Y-135885714D01*
X184861905Y-135980952D01*
X184814286Y-136028571D01*
X184719048Y-136076190D01*
X184338095Y-136076190D01*
X185719048Y-136504762D02*
X185623810Y-136552381D01*
X185433333Y-136552381D01*
X185338095Y-136504762D01*
X185290476Y-136409524D01*
X185290476Y-136028571D01*
X185338095Y-135933333D01*
X185433333Y-135885714D01*
X185623810Y-135885714D01*
X185719048Y-135933333D01*
X185766667Y-136028571D01*
X185766667Y-136123810D01*
X185290476Y-136219048D01*
X186623810Y-136504762D02*
X186528572Y-136552381D01*
X186338095Y-136552381D01*
X186242857Y-136504762D01*
X186195238Y-136457143D01*
X186147619Y-136361905D01*
X186147619Y-136076190D01*
X186195238Y-135980952D01*
X186242857Y-135933333D01*
X186338095Y-135885714D01*
X186528572Y-135885714D01*
X186623810Y-135933333D01*
X187052381Y-136552381D02*
X187052381Y-135552381D01*
X187480953Y-136552381D02*
X187480953Y-136028571D01*
X187433334Y-135933333D01*
X187338096Y-135885714D01*
X187195238Y-135885714D01*
X187100000Y-135933333D01*
X187052381Y-135980952D01*
X187814286Y-135885714D02*
X188195238Y-135885714D01*
X187957143Y-135552381D02*
X187957143Y-136409524D01*
X188004762Y-136504762D01*
X188100000Y-136552381D01*
X188195238Y-136552381D01*
X188480953Y-136504762D02*
X188576191Y-136552381D01*
X188766667Y-136552381D01*
X188861906Y-136504762D01*
X188909525Y-136409524D01*
X188909525Y-136361905D01*
X188861906Y-136266667D01*
X188766667Y-136219048D01*
X188623810Y-136219048D01*
X188528572Y-136171429D01*
X188480953Y-136076190D01*
X188480953Y-136028571D01*
X188528572Y-135933333D01*
X188623810Y-135885714D01*
X188766667Y-135885714D01*
X188861906Y-135933333D01*
X186161905Y-142052381D02*
X186161905Y-141052381D01*
X186542858Y-141052381D01*
X186638096Y-141100000D01*
X186685715Y-141147619D01*
X186733334Y-141242857D01*
X186733334Y-141385714D01*
X186685715Y-141480952D01*
X186638096Y-141528571D01*
X186542858Y-141576190D01*
X186161905Y-141576190D01*
X187638096Y-141052381D02*
X187161905Y-141052381D01*
X187114286Y-141528571D01*
X187161905Y-141480952D01*
X187257143Y-141433333D01*
X187495239Y-141433333D01*
X187590477Y-141480952D01*
X187638096Y-141528571D01*
X187685715Y-141623810D01*
X187685715Y-141861905D01*
X187638096Y-141957143D01*
X187590477Y-142004762D01*
X187495239Y-142052381D01*
X187257143Y-142052381D01*
X187161905Y-142004762D01*
X187114286Y-141957143D01*
X107300000Y-72966667D02*
X107776191Y-72966667D01*
X107204762Y-73252381D02*
X107538095Y-72252381D01*
X107871429Y-73252381D01*
X108204762Y-73252381D02*
X108204762Y-72252381D01*
X108300000Y-72871429D02*
X108585715Y-73252381D01*
X108585715Y-72585714D02*
X108204762Y-72966667D01*
X109014286Y-73252381D02*
X109014286Y-72252381D01*
X109109524Y-72871429D02*
X109395239Y-73252381D01*
X109395239Y-72585714D02*
X109014286Y-72966667D01*
X110252382Y-72585714D02*
X110252382Y-73252381D01*
X109823810Y-72585714D02*
X109823810Y-73109524D01*
X109871429Y-73204762D01*
X109966667Y-73252381D01*
X110109525Y-73252381D01*
X110204763Y-73204762D01*
X110252382Y-73157143D01*
X107761905Y-66852381D02*
X107761905Y-65852381D01*
X108142858Y-65852381D01*
X108238096Y-65900000D01*
X108285715Y-65947619D01*
X108333334Y-66042857D01*
X108333334Y-66185714D01*
X108285715Y-66280952D01*
X108238096Y-66328571D01*
X108142858Y-66376190D01*
X107761905Y-66376190D01*
X109285715Y-66852381D02*
X108714286Y-66852381D01*
X109000000Y-66852381D02*
X109000000Y-65852381D01*
X108904762Y-65995238D01*
X108809524Y-66090476D01*
X108714286Y-66138095D01*
X149416667Y-102757143D02*
X149416667Y-102280952D01*
X149702381Y-102852381D02*
X148702381Y-102519048D01*
X149702381Y-102185714D01*
X149702381Y-101852381D02*
X149035714Y-101852381D01*
X149226190Y-101852381D02*
X149130952Y-101804762D01*
X149083333Y-101757143D01*
X149035714Y-101661905D01*
X149035714Y-101566666D01*
X149702381Y-100804761D02*
X148702381Y-100804761D01*
X149654762Y-100804761D02*
X149702381Y-100899999D01*
X149702381Y-101090476D01*
X149654762Y-101185714D01*
X149607143Y-101233333D01*
X149511905Y-101280952D01*
X149226190Y-101280952D01*
X149130952Y-101233333D01*
X149083333Y-101185714D01*
X149035714Y-101090476D01*
X149035714Y-100899999D01*
X149083333Y-100804761D01*
X149035714Y-99899999D02*
X149702381Y-99899999D01*
X149035714Y-100328571D02*
X149559524Y-100328571D01*
X149654762Y-100280952D01*
X149702381Y-100185714D01*
X149702381Y-100042856D01*
X149654762Y-99947618D01*
X149607143Y-99899999D01*
X149702381Y-99423809D02*
X149035714Y-99423809D01*
X148702381Y-99423809D02*
X148750000Y-99471428D01*
X148797619Y-99423809D01*
X148750000Y-99376190D01*
X148702381Y-99423809D01*
X148797619Y-99423809D01*
X149035714Y-98947619D02*
X149702381Y-98947619D01*
X149130952Y-98947619D02*
X149083333Y-98900000D01*
X149035714Y-98804762D01*
X149035714Y-98661904D01*
X149083333Y-98566666D01*
X149178571Y-98519047D01*
X149702381Y-98519047D01*
X149702381Y-97900000D02*
X149654762Y-97995238D01*
X149607143Y-98042857D01*
X149511905Y-98090476D01*
X149226190Y-98090476D01*
X149130952Y-98042857D01*
X149083333Y-97995238D01*
X149035714Y-97900000D01*
X149035714Y-97757142D01*
X149083333Y-97661904D01*
X149130952Y-97614285D01*
X149226190Y-97566666D01*
X149511905Y-97566666D01*
X149607143Y-97614285D01*
X149654762Y-97661904D01*
X149702381Y-97757142D01*
X149702381Y-97900000D01*
X149797619Y-97376190D02*
X149797619Y-96614285D01*
X149702381Y-96376190D02*
X148702381Y-96376190D01*
X149702381Y-95804761D01*
X148702381Y-95804761D01*
X149702381Y-94899999D02*
X149178571Y-94899999D01*
X149083333Y-94947618D01*
X149035714Y-95042856D01*
X149035714Y-95233333D01*
X149083333Y-95328571D01*
X149654762Y-94899999D02*
X149702381Y-94995237D01*
X149702381Y-95233333D01*
X149654762Y-95328571D01*
X149559524Y-95376190D01*
X149464286Y-95376190D01*
X149369048Y-95328571D01*
X149321429Y-95233333D01*
X149321429Y-94995237D01*
X149273810Y-94899999D01*
X149035714Y-94423809D02*
X149702381Y-94423809D01*
X149130952Y-94423809D02*
X149083333Y-94376190D01*
X149035714Y-94280952D01*
X149035714Y-94138094D01*
X149083333Y-94042856D01*
X149178571Y-93995237D01*
X149702381Y-93995237D01*
X149702381Y-93376190D02*
X149654762Y-93471428D01*
X149607143Y-93519047D01*
X149511905Y-93566666D01*
X149226190Y-93566666D01*
X149130952Y-93519047D01*
X149083333Y-93471428D01*
X149035714Y-93376190D01*
X149035714Y-93233332D01*
X149083333Y-93138094D01*
X149130952Y-93090475D01*
X149226190Y-93042856D01*
X149511905Y-93042856D01*
X149607143Y-93090475D01*
X149654762Y-93138094D01*
X149702381Y-93233332D01*
X149702381Y-93376190D01*
X191052381Y-109661905D02*
X190052381Y-109661905D01*
X190052381Y-109423810D01*
X190100000Y-109280952D01*
X190195238Y-109185714D01*
X190290476Y-109138095D01*
X190480952Y-109090476D01*
X190623810Y-109090476D01*
X190814286Y-109138095D01*
X190909524Y-109185714D01*
X191004762Y-109280952D01*
X191052381Y-109423810D01*
X191052381Y-109661905D01*
X190952381Y-108038095D02*
X189952381Y-108038095D01*
X189952381Y-107800000D01*
X190000000Y-107657142D01*
X190095238Y-107561904D01*
X190190476Y-107514285D01*
X190380952Y-107466666D01*
X190523810Y-107466666D01*
X190714286Y-107514285D01*
X190809524Y-107561904D01*
X190904762Y-107657142D01*
X190952381Y-107800000D01*
X190952381Y-108038095D01*
X190952381Y-106514285D02*
X190952381Y-107085714D01*
X190952381Y-106800000D02*
X189952381Y-106800000D01*
X190095238Y-106895238D01*
X190190476Y-106990476D01*
X190238095Y-107085714D01*
X118371429Y-134120762D02*
X118514286Y-134168381D01*
X118752382Y-134168381D01*
X118847620Y-134120762D01*
X118895239Y-134073143D01*
X118942858Y-133977905D01*
X118942858Y-133882667D01*
X118895239Y-133787429D01*
X118847620Y-133739810D01*
X118752382Y-133692190D01*
X118561905Y-133644571D01*
X118466667Y-133596952D01*
X118419048Y-133549333D01*
X118371429Y-133454095D01*
X118371429Y-133358857D01*
X118419048Y-133263619D01*
X118466667Y-133216000D01*
X118561905Y-133168381D01*
X118800001Y-133168381D01*
X118942858Y-133216000D01*
X119371429Y-134168381D02*
X119371429Y-133501714D01*
X119371429Y-133168381D02*
X119323810Y-133216000D01*
X119371429Y-133263619D01*
X119419048Y-133216000D01*
X119371429Y-133168381D01*
X119371429Y-133263619D01*
X120276191Y-133501714D02*
X120276191Y-134168381D01*
X120038095Y-133120762D02*
X119800000Y-133835048D01*
X120419048Y-133835048D01*
X120704762Y-133168381D02*
X121371429Y-133168381D01*
X120942857Y-134168381D01*
X121942857Y-133168381D02*
X122038096Y-133168381D01*
X122133334Y-133216000D01*
X122180953Y-133263619D01*
X122228572Y-133358857D01*
X122276191Y-133549333D01*
X122276191Y-133787429D01*
X122228572Y-133977905D01*
X122180953Y-134073143D01*
X122133334Y-134120762D01*
X122038096Y-134168381D01*
X121942857Y-134168381D01*
X121847619Y-134120762D01*
X121800000Y-134073143D01*
X121752381Y-133977905D01*
X121704762Y-133787429D01*
X121704762Y-133549333D01*
X121752381Y-133358857D01*
X121800000Y-133263619D01*
X121847619Y-133216000D01*
X121942857Y-133168381D01*
X122609524Y-133168381D02*
X123228572Y-133168381D01*
X122895238Y-133549333D01*
X123038096Y-133549333D01*
X123133334Y-133596952D01*
X123180953Y-133644571D01*
X123228572Y-133739810D01*
X123228572Y-133977905D01*
X123180953Y-134073143D01*
X123133334Y-134120762D01*
X123038096Y-134168381D01*
X122752381Y-134168381D01*
X122657143Y-134120762D01*
X122609524Y-134073143D01*
X99909524Y-115562381D02*
X100480953Y-115562381D01*
X100195238Y-116562381D02*
X100195238Y-115562381D01*
X100814286Y-116562381D02*
X100814286Y-115562381D01*
X101195239Y-115562381D01*
X101290477Y-115610000D01*
X101338096Y-115657619D01*
X101385715Y-115752857D01*
X101385715Y-115895714D01*
X101338096Y-115990952D01*
X101290477Y-116038571D01*
X101195239Y-116086190D01*
X100814286Y-116086190D01*
X102242858Y-115895714D02*
X102242858Y-116562381D01*
X102004762Y-115514762D02*
X101766667Y-116229048D01*
X102385715Y-116229048D01*
X102957143Y-115562381D02*
X103052382Y-115562381D01*
X103147620Y-115610000D01*
X103195239Y-115657619D01*
X103242858Y-115752857D01*
X103290477Y-115943333D01*
X103290477Y-116181429D01*
X103242858Y-116371905D01*
X103195239Y-116467143D01*
X103147620Y-116514762D01*
X103052382Y-116562381D01*
X102957143Y-116562381D01*
X102861905Y-116514762D01*
X102814286Y-116467143D01*
X102766667Y-116371905D01*
X102719048Y-116181429D01*
X102719048Y-115943333D01*
X102766667Y-115752857D01*
X102814286Y-115657619D01*
X102861905Y-115610000D01*
X102957143Y-115562381D01*
X104195239Y-115562381D02*
X103719048Y-115562381D01*
X103671429Y-116038571D01*
X103719048Y-115990952D01*
X103814286Y-115943333D01*
X104052382Y-115943333D01*
X104147620Y-115990952D01*
X104195239Y-116038571D01*
X104242858Y-116133810D01*
X104242858Y-116371905D01*
X104195239Y-116467143D01*
X104147620Y-116514762D01*
X104052382Y-116562381D01*
X103814286Y-116562381D01*
X103719048Y-116514762D01*
X103671429Y-116467143D01*
X105100001Y-115562381D02*
X104909524Y-115562381D01*
X104814286Y-115610000D01*
X104766667Y-115657619D01*
X104671429Y-115800476D01*
X104623810Y-115990952D01*
X104623810Y-116371905D01*
X104671429Y-116467143D01*
X104719048Y-116514762D01*
X104814286Y-116562381D01*
X105004763Y-116562381D01*
X105100001Y-116514762D01*
X105147620Y-116467143D01*
X105195239Y-116371905D01*
X105195239Y-116133810D01*
X105147620Y-116038571D01*
X105100001Y-115990952D01*
X105004763Y-115943333D01*
X104814286Y-115943333D01*
X104719048Y-115990952D01*
X104671429Y-116038571D01*
X104623810Y-116133810D01*
X163828571Y-114452381D02*
X164400000Y-114452381D01*
X164114285Y-115452381D02*
X164114285Y-114452381D01*
X164733333Y-115452381D02*
X164733333Y-114452381D01*
X164971428Y-114452381D01*
X165114286Y-114500000D01*
X165209524Y-114595238D01*
X165257143Y-114690476D01*
X165304762Y-114880952D01*
X165304762Y-115023810D01*
X165257143Y-115214286D01*
X165209524Y-115309524D01*
X165114286Y-115404762D01*
X164971428Y-115452381D01*
X164733333Y-115452381D01*
X165685714Y-115166667D02*
X166161905Y-115166667D01*
X165590476Y-115452381D02*
X165923809Y-114452381D01*
X166257143Y-115452381D01*
X166495238Y-114452381D02*
X167161905Y-114452381D01*
X166733333Y-115452381D01*
X167733333Y-114452381D02*
X167828572Y-114452381D01*
X167923810Y-114500000D01*
X167971429Y-114547619D01*
X168019048Y-114642857D01*
X168066667Y-114833333D01*
X168066667Y-115071429D01*
X168019048Y-115261905D01*
X167971429Y-115357143D01*
X167923810Y-115404762D01*
X167828572Y-115452381D01*
X167733333Y-115452381D01*
X167638095Y-115404762D01*
X167590476Y-115357143D01*
X167542857Y-115261905D01*
X167495238Y-115071429D01*
X167495238Y-114833333D01*
X167542857Y-114642857D01*
X167590476Y-114547619D01*
X167638095Y-114500000D01*
X167733333Y-114452381D01*
X168971429Y-114452381D02*
X168495238Y-114452381D01*
X168447619Y-114928571D01*
X168495238Y-114880952D01*
X168590476Y-114833333D01*
X168828572Y-114833333D01*
X168923810Y-114880952D01*
X168971429Y-114928571D01*
X169019048Y-115023810D01*
X169019048Y-115261905D01*
X168971429Y-115357143D01*
X168923810Y-115404762D01*
X168828572Y-115452381D01*
X168590476Y-115452381D01*
X168495238Y-115404762D01*
X168447619Y-115357143D01*
X169352381Y-114452381D02*
X169971429Y-114452381D01*
X169638095Y-114833333D01*
X169780953Y-114833333D01*
X169876191Y-114880952D01*
X169923810Y-114928571D01*
X169971429Y-115023810D01*
X169971429Y-115261905D01*
X169923810Y-115357143D01*
X169876191Y-115404762D01*
X169780953Y-115452381D01*
X169495238Y-115452381D01*
X169400000Y-115404762D01*
X169352381Y-115357143D01*
X170828572Y-115452381D02*
X170828572Y-114928571D01*
X170780953Y-114833333D01*
X170685715Y-114785714D01*
X170495238Y-114785714D01*
X170400000Y-114833333D01*
X170828572Y-115404762D02*
X170733334Y-115452381D01*
X170495238Y-115452381D01*
X170400000Y-115404762D01*
X170352381Y-115309524D01*
X170352381Y-115214286D01*
X170400000Y-115119048D01*
X170495238Y-115071429D01*
X170733334Y-115071429D01*
X170828572Y-115023810D01*
X190852381Y-100871429D02*
X189852381Y-100871429D01*
X190852381Y-100300000D01*
X189852381Y-100300000D01*
X190852381Y-99395238D02*
X190328571Y-99395238D01*
X190233333Y-99442857D01*
X190185714Y-99538095D01*
X190185714Y-99728572D01*
X190233333Y-99823810D01*
X190804762Y-99395238D02*
X190852381Y-99490476D01*
X190852381Y-99728572D01*
X190804762Y-99823810D01*
X190709524Y-99871429D01*
X190614286Y-99871429D01*
X190519048Y-99823810D01*
X190471429Y-99728572D01*
X190471429Y-99490476D01*
X190423810Y-99395238D01*
X190804762Y-98966667D02*
X190852381Y-98871429D01*
X190852381Y-98680953D01*
X190804762Y-98585714D01*
X190709524Y-98538095D01*
X190661905Y-98538095D01*
X190566667Y-98585714D01*
X190519048Y-98680953D01*
X190519048Y-98823810D01*
X190471429Y-98919048D01*
X190376190Y-98966667D01*
X190328571Y-98966667D01*
X190233333Y-98919048D01*
X190185714Y-98823810D01*
X190185714Y-98680953D01*
X190233333Y-98585714D01*
X190804762Y-97728571D02*
X190852381Y-97823809D01*
X190852381Y-98014286D01*
X190804762Y-98109524D01*
X190709524Y-98157143D01*
X190328571Y-98157143D01*
X190233333Y-98109524D01*
X190185714Y-98014286D01*
X190185714Y-97823809D01*
X190233333Y-97728571D01*
X190328571Y-97680952D01*
X190423810Y-97680952D01*
X190519048Y-98157143D01*
X196852381Y-100238095D02*
X195852381Y-100238095D01*
X195852381Y-99857142D01*
X195900000Y-99761904D01*
X195947619Y-99714285D01*
X196042857Y-99666666D01*
X196185714Y-99666666D01*
X196280952Y-99714285D01*
X196328571Y-99761904D01*
X196376190Y-99857142D01*
X196376190Y-100238095D01*
X195852381Y-99333333D02*
X195852381Y-98714285D01*
X196233333Y-99047619D01*
X196233333Y-98904761D01*
X196280952Y-98809523D01*
X196328571Y-98761904D01*
X196423810Y-98714285D01*
X196661905Y-98714285D01*
X196757143Y-98761904D01*
X196804762Y-98809523D01*
X196852381Y-98904761D01*
X196852381Y-99190476D01*
X196804762Y-99285714D01*
X196757143Y-99333333D01*
X130195238Y-106447619D02*
X130242857Y-106400000D01*
X130338095Y-106352381D01*
X130576191Y-106352381D01*
X130671429Y-106400000D01*
X130719048Y-106447619D01*
X130766667Y-106542857D01*
X130766667Y-106638095D01*
X130719048Y-106780952D01*
X130147619Y-107352381D01*
X130766667Y-107352381D01*
X131242857Y-107304762D02*
X131242857Y-107352381D01*
X131195238Y-107447619D01*
X131147619Y-107495238D01*
X131576190Y-106352381D02*
X132242857Y-106352381D01*
X131814285Y-107352381D01*
X132623809Y-107352381D02*
X132623809Y-106352381D01*
X132719047Y-106971429D02*
X133004762Y-107352381D01*
X133004762Y-106685714D02*
X132623809Y-107066667D01*
X136714762Y-137357619D02*
X136762381Y-137310000D01*
X136857619Y-137262381D01*
X137095715Y-137262381D01*
X137190953Y-137310000D01*
X137238572Y-137357619D01*
X137286191Y-137452857D01*
X137286191Y-137548095D01*
X137238572Y-137690952D01*
X136667143Y-138262381D01*
X137286191Y-138262381D01*
X138143334Y-137595714D02*
X138143334Y-138262381D01*
X137905238Y-137214762D02*
X137667143Y-137929048D01*
X138286191Y-137929048D01*
X139143334Y-138262381D02*
X138667143Y-138262381D01*
X138667143Y-137262381D01*
X140048096Y-138167143D02*
X140000477Y-138214762D01*
X139857620Y-138262381D01*
X139762382Y-138262381D01*
X139619524Y-138214762D01*
X139524286Y-138119524D01*
X139476667Y-138024286D01*
X139429048Y-137833810D01*
X139429048Y-137690952D01*
X139476667Y-137500476D01*
X139524286Y-137405238D01*
X139619524Y-137310000D01*
X139762382Y-137262381D01*
X139857620Y-137262381D01*
X140000477Y-137310000D01*
X140048096Y-137357619D01*
X140429048Y-137357619D02*
X140476667Y-137310000D01*
X140571905Y-137262381D01*
X140810001Y-137262381D01*
X140905239Y-137310000D01*
X140952858Y-137357619D01*
X141000477Y-137452857D01*
X141000477Y-137548095D01*
X140952858Y-137690952D01*
X140381429Y-138262381D01*
X141000477Y-138262381D01*
X141905239Y-137262381D02*
X141429048Y-137262381D01*
X141381429Y-137738571D01*
X141429048Y-137690952D01*
X141524286Y-137643333D01*
X141762382Y-137643333D01*
X141857620Y-137690952D01*
X141905239Y-137738571D01*
X141952858Y-137833810D01*
X141952858Y-138071905D01*
X141905239Y-138167143D01*
X141857620Y-138214762D01*
X141762382Y-138262381D01*
X141524286Y-138262381D01*
X141429048Y-138214762D01*
X141381429Y-138167143D01*
X142810001Y-137262381D02*
X142619524Y-137262381D01*
X142524286Y-137310000D01*
X142476667Y-137357619D01*
X142381429Y-137500476D01*
X142333810Y-137690952D01*
X142333810Y-138071905D01*
X142381429Y-138167143D01*
X142429048Y-138214762D01*
X142524286Y-138262381D01*
X142714763Y-138262381D01*
X142810001Y-138214762D01*
X142857620Y-138167143D01*
X142905239Y-138071905D01*
X142905239Y-137833810D01*
X142857620Y-137738571D01*
X142810001Y-137690952D01*
X142714763Y-137643333D01*
X142524286Y-137643333D01*
X142429048Y-137690952D01*
X142381429Y-137738571D01*
X142333810Y-137833810D01*
X140228571Y-116114285D02*
X140228571Y-116447619D01*
X140752381Y-116447619D02*
X139752381Y-116447619D01*
X139752381Y-115971428D01*
X140752381Y-115019047D02*
X140276190Y-115352381D01*
X140752381Y-115590476D02*
X139752381Y-115590476D01*
X139752381Y-115209523D01*
X139800000Y-115114285D01*
X139847619Y-115066666D01*
X139942857Y-115019047D01*
X140085714Y-115019047D01*
X140180952Y-115066666D01*
X140228571Y-115114285D01*
X140276190Y-115209523D01*
X140276190Y-115590476D01*
X139752381Y-114733333D02*
X139752381Y-114161904D01*
X140752381Y-114447619D02*
X139752381Y-114447619D01*
X139752381Y-113352380D02*
X139752381Y-113828571D01*
X140228571Y-113876190D01*
X140180952Y-113828571D01*
X140133333Y-113733333D01*
X140133333Y-113495237D01*
X140180952Y-113399999D01*
X140228571Y-113352380D01*
X140323810Y-113304761D01*
X140561905Y-113304761D01*
X140657143Y-113352380D01*
X140704762Y-113399999D01*
X140752381Y-113495237D01*
X140752381Y-113733333D01*
X140704762Y-113828571D01*
X140657143Y-113876190D01*
X186009524Y-72052381D02*
X185533333Y-72052381D01*
X185533333Y-71052381D01*
X186342857Y-72052381D02*
X186342857Y-71385714D01*
X186342857Y-71052381D02*
X186295238Y-71100000D01*
X186342857Y-71147619D01*
X186390476Y-71100000D01*
X186342857Y-71052381D01*
X186342857Y-71147619D01*
X186819047Y-71385714D02*
X186819047Y-72052381D01*
X186819047Y-71480952D02*
X186866666Y-71433333D01*
X186961904Y-71385714D01*
X187104762Y-71385714D01*
X187200000Y-71433333D01*
X187247619Y-71528571D01*
X187247619Y-72052381D01*
X187723809Y-72052381D02*
X187723809Y-71052381D01*
X187819047Y-71671429D02*
X188104762Y-72052381D01*
X188104762Y-71385714D02*
X187723809Y-71766667D01*
X188485714Y-72004762D02*
X188580952Y-72052381D01*
X188771428Y-72052381D01*
X188866667Y-72004762D01*
X188914286Y-71909524D01*
X188914286Y-71861905D01*
X188866667Y-71766667D01*
X188771428Y-71719048D01*
X188628571Y-71719048D01*
X188533333Y-71671429D01*
X188485714Y-71576190D01*
X188485714Y-71528571D01*
X188533333Y-71433333D01*
X188628571Y-71385714D01*
X188771428Y-71385714D01*
X188866667Y-71433333D01*
X186361905Y-66552381D02*
X186361905Y-65552381D01*
X186742858Y-65552381D01*
X186838096Y-65600000D01*
X186885715Y-65647619D01*
X186933334Y-65742857D01*
X186933334Y-65885714D01*
X186885715Y-65980952D01*
X186838096Y-66028571D01*
X186742858Y-66076190D01*
X186361905Y-66076190D01*
X187790477Y-65885714D02*
X187790477Y-66552381D01*
X187552381Y-65504762D02*
X187314286Y-66219048D01*
X187933334Y-66219048D01*
X95828571Y-143314285D02*
X95876190Y-143171428D01*
X95923810Y-143123809D01*
X96019048Y-143076190D01*
X96161905Y-143076190D01*
X96257143Y-143123809D01*
X96304762Y-143171428D01*
X96352381Y-143266666D01*
X96352381Y-143647619D01*
X95352381Y-143647619D01*
X95352381Y-143314285D01*
X95400000Y-143219047D01*
X95447619Y-143171428D01*
X95542857Y-143123809D01*
X95638095Y-143123809D01*
X95733333Y-143171428D01*
X95780952Y-143219047D01*
X95828571Y-143314285D01*
X95828571Y-143647619D01*
X96352381Y-142219047D02*
X95828571Y-142219047D01*
X95733333Y-142266666D01*
X95685714Y-142361904D01*
X95685714Y-142552381D01*
X95733333Y-142647619D01*
X96304762Y-142219047D02*
X96352381Y-142314285D01*
X96352381Y-142552381D01*
X96304762Y-142647619D01*
X96209524Y-142695238D01*
X96114286Y-142695238D01*
X96019048Y-142647619D01*
X95971429Y-142552381D01*
X95971429Y-142314285D01*
X95923810Y-142219047D01*
X95685714Y-141314285D02*
X96352381Y-141314285D01*
X95685714Y-141742857D02*
X96209524Y-141742857D01*
X96304762Y-141695238D01*
X96352381Y-141600000D01*
X96352381Y-141457142D01*
X96304762Y-141361904D01*
X96257143Y-141314285D01*
X96304762Y-140409523D02*
X96352381Y-140504761D01*
X96352381Y-140695238D01*
X96304762Y-140790476D01*
X96257143Y-140838095D01*
X96161905Y-140885714D01*
X95876190Y-140885714D01*
X95780952Y-140838095D01*
X95733333Y-140790476D01*
X95685714Y-140695238D01*
X95685714Y-140504761D01*
X95733333Y-140409523D01*
X96352381Y-139980952D02*
X95352381Y-139980952D01*
X96352381Y-139552380D02*
X95828571Y-139552380D01*
X95733333Y-139599999D01*
X95685714Y-139695237D01*
X95685714Y-139838095D01*
X95733333Y-139933333D01*
X95780952Y-139980952D01*
X96452381Y-138738095D02*
X95452381Y-138738095D01*
X95452381Y-138357142D01*
X95500000Y-138261904D01*
X95547619Y-138214285D01*
X95642857Y-138166666D01*
X95785714Y-138166666D01*
X95880952Y-138214285D01*
X95928571Y-138261904D01*
X95976190Y-138357142D01*
X95976190Y-138738095D01*
X95452381Y-137309523D02*
X95452381Y-137500000D01*
X95500000Y-137595238D01*
X95547619Y-137642857D01*
X95690476Y-137738095D01*
X95880952Y-137785714D01*
X96261905Y-137785714D01*
X96357143Y-137738095D01*
X96404762Y-137690476D01*
X96452381Y-137595238D01*
X96452381Y-137404761D01*
X96404762Y-137309523D01*
X96357143Y-137261904D01*
X96261905Y-137214285D01*
X96023810Y-137214285D01*
X95928571Y-137261904D01*
X95880952Y-137309523D01*
X95833333Y-137404761D01*
X95833333Y-137595238D01*
X95880952Y-137690476D01*
X95928571Y-137738095D01*
X96023810Y-137785714D01*
X98561905Y-72166667D02*
X99038096Y-72166667D01*
X98466667Y-72452381D02*
X98800000Y-71452381D01*
X99133334Y-72452381D01*
X99466667Y-71452381D02*
X99466667Y-72261905D01*
X99514286Y-72357143D01*
X99561905Y-72404762D01*
X99657143Y-72452381D01*
X99847620Y-72452381D01*
X99942858Y-72404762D01*
X99990477Y-72357143D01*
X100038096Y-72261905D01*
X100038096Y-71452381D01*
X100419048Y-71452381D02*
X101085715Y-72452381D01*
X101085715Y-71452381D02*
X100419048Y-72452381D01*
X99061905Y-66852381D02*
X99061905Y-65852381D01*
X99442858Y-65852381D01*
X99538096Y-65900000D01*
X99585715Y-65947619D01*
X99633334Y-66042857D01*
X99633334Y-66185714D01*
X99585715Y-66280952D01*
X99538096Y-66328571D01*
X99442858Y-66376190D01*
X99061905Y-66376190D01*
X100109524Y-66852381D02*
X100300000Y-66852381D01*
X100395239Y-66804762D01*
X100442858Y-66757143D01*
X100538096Y-66614286D01*
X100585715Y-66423810D01*
X100585715Y-66042857D01*
X100538096Y-65947619D01*
X100490477Y-65900000D01*
X100395239Y-65852381D01*
X100204762Y-65852381D01*
X100109524Y-65900000D01*
X100061905Y-65947619D01*
X100014286Y-66042857D01*
X100014286Y-66280952D01*
X100061905Y-66376190D01*
X100109524Y-66423810D01*
X100204762Y-66471429D01*
X100395239Y-66471429D01*
X100490477Y-66423810D01*
X100538096Y-66376190D01*
X100585715Y-66280952D01*
X196704762Y-79938096D02*
X196752381Y-79795239D01*
X196752381Y-79557143D01*
X196704762Y-79461905D01*
X196657143Y-79414286D01*
X196561905Y-79366667D01*
X196466667Y-79366667D01*
X196371429Y-79414286D01*
X196323810Y-79461905D01*
X196276190Y-79557143D01*
X196228571Y-79747620D01*
X196180952Y-79842858D01*
X196133333Y-79890477D01*
X196038095Y-79938096D01*
X195942857Y-79938096D01*
X195847619Y-79890477D01*
X195800000Y-79842858D01*
X195752381Y-79747620D01*
X195752381Y-79509524D01*
X195800000Y-79366667D01*
X196085714Y-78938096D02*
X197085714Y-78938096D01*
X196133333Y-78938096D02*
X196085714Y-78842858D01*
X196085714Y-78652381D01*
X196133333Y-78557143D01*
X196180952Y-78509524D01*
X196276190Y-78461905D01*
X196561905Y-78461905D01*
X196657143Y-78509524D01*
X196704762Y-78557143D01*
X196752381Y-78652381D01*
X196752381Y-78842858D01*
X196704762Y-78938096D01*
X196752381Y-78033334D02*
X195752381Y-78033334D01*
X196371429Y-77938096D02*
X196752381Y-77652381D01*
X196085714Y-77652381D02*
X196466667Y-78033334D01*
X196752381Y-77223810D02*
X196085714Y-77223810D01*
X196276190Y-77223810D02*
X196180952Y-77176191D01*
X196133333Y-77128572D01*
X196085714Y-77033334D01*
X196085714Y-76938095D01*
X196752381Y-75366666D02*
X196752381Y-75842857D01*
X195752381Y-75842857D01*
X196752381Y-75033333D02*
X196085714Y-75033333D01*
X195752381Y-75033333D02*
X195800000Y-75080952D01*
X195847619Y-75033333D01*
X195800000Y-74985714D01*
X195752381Y-75033333D01*
X195847619Y-75033333D01*
X196085714Y-74557143D02*
X196752381Y-74557143D01*
X196180952Y-74557143D02*
X196133333Y-74509524D01*
X196085714Y-74414286D01*
X196085714Y-74271428D01*
X196133333Y-74176190D01*
X196228571Y-74128571D01*
X196752381Y-74128571D01*
X196752381Y-73652381D02*
X195752381Y-73652381D01*
X196371429Y-73557143D02*
X196752381Y-73271428D01*
X196085714Y-73271428D02*
X196466667Y-73652381D01*
X196704762Y-72890476D02*
X196752381Y-72795238D01*
X196752381Y-72604762D01*
X196704762Y-72509523D01*
X196609524Y-72461904D01*
X196561905Y-72461904D01*
X196466667Y-72509523D01*
X196419048Y-72604762D01*
X196419048Y-72747619D01*
X196371429Y-72842857D01*
X196276190Y-72890476D01*
X196228571Y-72890476D01*
X196133333Y-72842857D01*
X196085714Y-72747619D01*
X196085714Y-72604762D01*
X196133333Y-72509523D01*
X189852381Y-78166666D02*
X189852381Y-78642857D01*
X188852381Y-78642857D01*
X189852381Y-77833333D02*
X189185714Y-77833333D01*
X188852381Y-77833333D02*
X188900000Y-77880952D01*
X188947619Y-77833333D01*
X188900000Y-77785714D01*
X188852381Y-77833333D01*
X188947619Y-77833333D01*
X189185714Y-77357143D02*
X189852381Y-77357143D01*
X189280952Y-77357143D02*
X189233333Y-77309524D01*
X189185714Y-77214286D01*
X189185714Y-77071428D01*
X189233333Y-76976190D01*
X189328571Y-76928571D01*
X189852381Y-76928571D01*
X189852381Y-76452381D02*
X188852381Y-76452381D01*
X189471429Y-76357143D02*
X189852381Y-76071428D01*
X189185714Y-76071428D02*
X189566667Y-76452381D01*
X189804762Y-75690476D02*
X189852381Y-75595238D01*
X189852381Y-75404762D01*
X189804762Y-75309523D01*
X189709524Y-75261904D01*
X189661905Y-75261904D01*
X189566667Y-75309523D01*
X189519048Y-75404762D01*
X189519048Y-75547619D01*
X189471429Y-75642857D01*
X189376190Y-75690476D01*
X189328571Y-75690476D01*
X189233333Y-75642857D01*
X189185714Y-75547619D01*
X189185714Y-75404762D01*
X189233333Y-75309523D01*
X189852381Y-74309523D02*
X189852381Y-74880952D01*
X189852381Y-74595238D02*
X188852381Y-74595238D01*
X188995238Y-74690476D01*
X189090476Y-74785714D01*
X189138095Y-74880952D01*
X197552381Y-91133333D02*
X196552381Y-91133333D01*
X197028571Y-91133333D02*
X197028571Y-90561904D01*
X197552381Y-90561904D02*
X196552381Y-90561904D01*
X197457143Y-89514285D02*
X197504762Y-89561904D01*
X197552381Y-89704761D01*
X197552381Y-89799999D01*
X197504762Y-89942857D01*
X197409524Y-90038095D01*
X197314286Y-90085714D01*
X197123810Y-90133333D01*
X196980952Y-90133333D01*
X196790476Y-90085714D01*
X196695238Y-90038095D01*
X196600000Y-89942857D01*
X196552381Y-89799999D01*
X196552381Y-89704761D01*
X196600000Y-89561904D01*
X196647619Y-89514285D01*
X197171429Y-89085714D02*
X197171429Y-88323809D01*
X197504762Y-87895238D02*
X197552381Y-87752381D01*
X197552381Y-87514285D01*
X197504762Y-87419047D01*
X197457143Y-87371428D01*
X197361905Y-87323809D01*
X197266667Y-87323809D01*
X197171429Y-87371428D01*
X197123810Y-87419047D01*
X197076190Y-87514285D01*
X197028571Y-87704762D01*
X196980952Y-87800000D01*
X196933333Y-87847619D01*
X196838095Y-87895238D01*
X196742857Y-87895238D01*
X196647619Y-87847619D01*
X196600000Y-87800000D01*
X196552381Y-87704762D01*
X196552381Y-87466666D01*
X196600000Y-87323809D01*
X197552381Y-86323809D02*
X197076190Y-86657143D01*
X197552381Y-86895238D02*
X196552381Y-86895238D01*
X196552381Y-86514285D01*
X196600000Y-86419047D01*
X196647619Y-86371428D01*
X196742857Y-86323809D01*
X196885714Y-86323809D01*
X196980952Y-86371428D01*
X197028571Y-86419047D01*
X197076190Y-86514285D01*
X197076190Y-86895238D01*
X196552381Y-85704762D02*
X196552381Y-85609523D01*
X196600000Y-85514285D01*
X196647619Y-85466666D01*
X196742857Y-85419047D01*
X196933333Y-85371428D01*
X197171429Y-85371428D01*
X197361905Y-85419047D01*
X197457143Y-85466666D01*
X197504762Y-85514285D01*
X197552381Y-85609523D01*
X197552381Y-85704762D01*
X197504762Y-85800000D01*
X197457143Y-85847619D01*
X197361905Y-85895238D01*
X197171429Y-85942857D01*
X196933333Y-85942857D01*
X196742857Y-85895238D01*
X196647619Y-85847619D01*
X196600000Y-85800000D01*
X196552381Y-85704762D01*
X196885714Y-84514285D02*
X197552381Y-84514285D01*
X196504762Y-84752381D02*
X197219048Y-84990476D01*
X197219048Y-84371428D01*
X196452381Y-88538095D02*
X195452381Y-88538095D01*
X195452381Y-88157142D01*
X195500000Y-88061904D01*
X195547619Y-88014285D01*
X195642857Y-87966666D01*
X195785714Y-87966666D01*
X195880952Y-88014285D01*
X195928571Y-88061904D01*
X195976190Y-88157142D01*
X195976190Y-88538095D01*
X195452381Y-87633333D02*
X195452381Y-86966666D01*
X196452381Y-87395238D01*
X121123810Y-109861905D02*
X120666667Y-109861905D01*
X120895238Y-109861905D02*
X120895238Y-109061905D01*
X120819048Y-109176190D01*
X120742857Y-109252381D01*
X120666667Y-109290476D01*
X121809524Y-109328571D02*
X121809524Y-109861905D01*
X121466667Y-109328571D02*
X121466667Y-109747619D01*
X121504762Y-109823810D01*
X121580953Y-109861905D01*
X121695239Y-109861905D01*
X121771429Y-109823810D01*
X121809524Y-109785714D01*
X122457144Y-109442857D02*
X122190477Y-109442857D01*
X122190477Y-109861905D02*
X122190477Y-109061905D01*
X122571430Y-109061905D01*
D12*
X158240478Y-113026190D02*
X158288097Y-113026190D01*
X158335716Y-113050000D01*
X158359525Y-113073810D01*
X158383335Y-113121429D01*
X158407144Y-113216667D01*
X158407144Y-113335714D01*
X158383335Y-113430952D01*
X158359525Y-113478571D01*
X158335716Y-113502381D01*
X158288097Y-113526190D01*
X158240478Y-113526190D01*
X158192859Y-113502381D01*
X158169049Y-113478571D01*
X158145240Y-113430952D01*
X158121430Y-113335714D01*
X158121430Y-113216667D01*
X158145240Y-113121429D01*
X158169049Y-113073810D01*
X158192859Y-113050000D01*
X158240478Y-113026190D01*
X158645239Y-113502381D02*
X158645239Y-113526190D01*
X158621430Y-113573810D01*
X158597620Y-113597619D01*
X159073810Y-113192857D02*
X159073810Y-113526190D01*
X158954763Y-113002381D02*
X158835715Y-113359524D01*
X159145239Y-113359524D01*
X159288096Y-113026190D02*
X159621429Y-113026190D01*
X159407143Y-113526190D01*
X160026190Y-113192857D02*
X160026190Y-113526190D01*
X159811905Y-113192857D02*
X159811905Y-113454762D01*
X159835714Y-113502381D01*
X159883333Y-113526190D01*
X159954762Y-113526190D01*
X160002381Y-113502381D01*
X160026190Y-113478571D01*
X160430952Y-113264286D02*
X160264286Y-113264286D01*
X160264286Y-113526190D02*
X160264286Y-113026190D01*
X160502381Y-113026190D01*
D11*
X118728571Y-107561905D02*
X118804762Y-107561905D01*
X118880952Y-107600000D01*
X118919047Y-107638095D01*
X118957143Y-107714286D01*
X118995238Y-107866667D01*
X118995238Y-108057143D01*
X118957143Y-108209524D01*
X118919047Y-108285714D01*
X118880952Y-108323810D01*
X118804762Y-108361905D01*
X118728571Y-108361905D01*
X118652381Y-108323810D01*
X118614285Y-108285714D01*
X118576190Y-108209524D01*
X118538095Y-108057143D01*
X118538095Y-107866667D01*
X118576190Y-107714286D01*
X118614285Y-107638095D01*
X118652381Y-107600000D01*
X118728571Y-107561905D01*
X119376190Y-108323810D02*
X119376190Y-108361905D01*
X119338095Y-108438095D01*
X119300000Y-108476190D01*
X120138095Y-108361905D02*
X119680952Y-108361905D01*
X119909523Y-108361905D02*
X119909523Y-107561905D01*
X119833333Y-107676190D01*
X119757142Y-107752381D01*
X119680952Y-107790476D01*
X120823809Y-107828571D02*
X120823809Y-108361905D01*
X120480952Y-107828571D02*
X120480952Y-108247619D01*
X120519047Y-108323810D01*
X120595238Y-108361905D01*
X120709524Y-108361905D01*
X120785714Y-108323810D01*
X120823809Y-108285714D01*
D12*
X158240478Y-116226190D02*
X158288097Y-116226190D01*
X158335716Y-116250000D01*
X158359525Y-116273810D01*
X158383335Y-116321429D01*
X158407144Y-116416667D01*
X158407144Y-116535714D01*
X158383335Y-116630952D01*
X158359525Y-116678571D01*
X158335716Y-116702381D01*
X158288097Y-116726190D01*
X158240478Y-116726190D01*
X158192859Y-116702381D01*
X158169049Y-116678571D01*
X158145240Y-116630952D01*
X158121430Y-116535714D01*
X158121430Y-116416667D01*
X158145240Y-116321429D01*
X158169049Y-116273810D01*
X158192859Y-116250000D01*
X158240478Y-116226190D01*
X158645239Y-116702381D02*
X158645239Y-116726190D01*
X158621430Y-116773810D01*
X158597620Y-116797619D01*
X159073810Y-116392857D02*
X159073810Y-116726190D01*
X158954763Y-116202381D02*
X158835715Y-116559524D01*
X159145239Y-116559524D01*
X159288096Y-116226190D02*
X159621429Y-116226190D01*
X159407143Y-116726190D01*
X160026190Y-116392857D02*
X160026190Y-116726190D01*
X159811905Y-116392857D02*
X159811905Y-116654762D01*
X159835714Y-116702381D01*
X159883333Y-116726190D01*
X159954762Y-116726190D01*
X160002381Y-116702381D01*
X160026190Y-116678571D01*
X160430952Y-116464286D02*
X160264286Y-116464286D01*
X160264286Y-116726190D02*
X160264286Y-116226190D01*
X160502381Y-116226190D01*
D11*
X95538095Y-82852381D02*
X95538095Y-83661905D01*
X95585714Y-83757143D01*
X95633333Y-83804762D01*
X95728571Y-83852381D01*
X95919048Y-83852381D01*
X96014286Y-83804762D01*
X96061905Y-83757143D01*
X96109524Y-83661905D01*
X96109524Y-82852381D01*
X96538095Y-83804762D02*
X96680952Y-83852381D01*
X96919048Y-83852381D01*
X97014286Y-83804762D01*
X97061905Y-83757143D01*
X97109524Y-83661905D01*
X97109524Y-83566667D01*
X97061905Y-83471429D01*
X97014286Y-83423810D01*
X96919048Y-83376190D01*
X96728571Y-83328571D01*
X96633333Y-83280952D01*
X96585714Y-83233333D01*
X96538095Y-83138095D01*
X96538095Y-83042857D01*
X96585714Y-82947619D01*
X96633333Y-82900000D01*
X96728571Y-82852381D01*
X96966667Y-82852381D01*
X97109524Y-82900000D01*
X97871429Y-83328571D02*
X98014286Y-83376190D01*
X98061905Y-83423810D01*
X98109524Y-83519048D01*
X98109524Y-83661905D01*
X98061905Y-83757143D01*
X98014286Y-83804762D01*
X97919048Y-83852381D01*
X97538095Y-83852381D01*
X97538095Y-82852381D01*
X97871429Y-82852381D01*
X97966667Y-82900000D01*
X98014286Y-82947619D01*
X98061905Y-83042857D01*
X98061905Y-83138095D01*
X98014286Y-83233333D01*
X97966667Y-83280952D01*
X97871429Y-83328571D01*
X97538095Y-83328571D01*
X90452381Y-78638095D02*
X89452381Y-78638095D01*
X89452381Y-78257142D01*
X89500000Y-78161904D01*
X89547619Y-78114285D01*
X89642857Y-78066666D01*
X89785714Y-78066666D01*
X89880952Y-78114285D01*
X89928571Y-78161904D01*
X89976190Y-78257142D01*
X89976190Y-78638095D01*
X89547619Y-77685714D02*
X89500000Y-77638095D01*
X89452381Y-77542857D01*
X89452381Y-77304761D01*
X89500000Y-77209523D01*
X89547619Y-77161904D01*
X89642857Y-77114285D01*
X89738095Y-77114285D01*
X89880952Y-77161904D01*
X90452381Y-77733333D01*
X90452381Y-77114285D01*
X191752381Y-122752381D02*
X190752381Y-122752381D01*
X190752381Y-122514286D01*
X190800000Y-122371428D01*
X190895238Y-122276190D01*
X190990476Y-122228571D01*
X191180952Y-122180952D01*
X191323810Y-122180952D01*
X191514286Y-122228571D01*
X191609524Y-122276190D01*
X191704762Y-122371428D01*
X191752381Y-122514286D01*
X191752381Y-122752381D01*
X191752381Y-121752381D02*
X191085714Y-121752381D01*
X190752381Y-121752381D02*
X190800000Y-121800000D01*
X190847619Y-121752381D01*
X190800000Y-121704762D01*
X190752381Y-121752381D01*
X190847619Y-121752381D01*
X191704762Y-121323810D02*
X191752381Y-121228572D01*
X191752381Y-121038096D01*
X191704762Y-120942857D01*
X191609524Y-120895238D01*
X191561905Y-120895238D01*
X191466667Y-120942857D01*
X191419048Y-121038096D01*
X191419048Y-121180953D01*
X191371429Y-121276191D01*
X191276190Y-121323810D01*
X191228571Y-121323810D01*
X191133333Y-121276191D01*
X191085714Y-121180953D01*
X191085714Y-121038096D01*
X191133333Y-120942857D01*
X191085714Y-120466667D02*
X192085714Y-120466667D01*
X191133333Y-120466667D02*
X191085714Y-120371429D01*
X191085714Y-120180952D01*
X191133333Y-120085714D01*
X191180952Y-120038095D01*
X191276190Y-119990476D01*
X191561905Y-119990476D01*
X191657143Y-120038095D01*
X191704762Y-120085714D01*
X191752381Y-120180952D01*
X191752381Y-120371429D01*
X191704762Y-120466667D01*
X191752381Y-119419048D02*
X191704762Y-119514286D01*
X191609524Y-119561905D01*
X190752381Y-119561905D01*
X191752381Y-118609523D02*
X191228571Y-118609523D01*
X191133333Y-118657142D01*
X191085714Y-118752380D01*
X191085714Y-118942857D01*
X191133333Y-119038095D01*
X191704762Y-118609523D02*
X191752381Y-118704761D01*
X191752381Y-118942857D01*
X191704762Y-119038095D01*
X191609524Y-119085714D01*
X191514286Y-119085714D01*
X191419048Y-119038095D01*
X191371429Y-118942857D01*
X191371429Y-118704761D01*
X191323810Y-118609523D01*
X191085714Y-118228571D02*
X191752381Y-117990476D01*
X191085714Y-117752380D02*
X191752381Y-117990476D01*
X191990476Y-118085714D01*
X192038095Y-118133333D01*
X192085714Y-118228571D01*
X196652381Y-121038095D02*
X195652381Y-121038095D01*
X195652381Y-120657142D01*
X195700000Y-120561904D01*
X195747619Y-120514285D01*
X195842857Y-120466666D01*
X195985714Y-120466666D01*
X196080952Y-120514285D01*
X196128571Y-120561904D01*
X196176190Y-120657142D01*
X196176190Y-121038095D01*
X196080952Y-119895238D02*
X196033333Y-119990476D01*
X195985714Y-120038095D01*
X195890476Y-120085714D01*
X195842857Y-120085714D01*
X195747619Y-120038095D01*
X195700000Y-119990476D01*
X195652381Y-119895238D01*
X195652381Y-119704761D01*
X195700000Y-119609523D01*
X195747619Y-119561904D01*
X195842857Y-119514285D01*
X195890476Y-119514285D01*
X195985714Y-119561904D01*
X196033333Y-119609523D01*
X196080952Y-119704761D01*
X196080952Y-119895238D01*
X196128571Y-119990476D01*
X196176190Y-120038095D01*
X196271429Y-120085714D01*
X196461905Y-120085714D01*
X196557143Y-120038095D01*
X196604762Y-119990476D01*
X196652381Y-119895238D01*
X196652381Y-119704761D01*
X196604762Y-119609523D01*
X196557143Y-119561904D01*
X196461905Y-119514285D01*
X196271429Y-119514285D01*
X196176190Y-119561904D01*
X196128571Y-119609523D01*
X196080952Y-119704761D01*
X184504762Y-105638095D02*
X184542857Y-105600000D01*
X184619048Y-105561905D01*
X184809524Y-105561905D01*
X184885714Y-105600000D01*
X184923810Y-105638095D01*
X184961905Y-105714286D01*
X184961905Y-105790476D01*
X184923810Y-105904762D01*
X184466667Y-106361905D01*
X184961905Y-106361905D01*
X185266667Y-105638095D02*
X185304762Y-105600000D01*
X185380953Y-105561905D01*
X185571429Y-105561905D01*
X185647619Y-105600000D01*
X185685715Y-105638095D01*
X185723810Y-105714286D01*
X185723810Y-105790476D01*
X185685715Y-105904762D01*
X185228572Y-106361905D01*
X185723810Y-106361905D01*
X186219048Y-105561905D02*
X186295239Y-105561905D01*
X186371429Y-105600000D01*
X186409524Y-105638095D01*
X186447620Y-105714286D01*
X186485715Y-105866667D01*
X186485715Y-106057143D01*
X186447620Y-106209524D01*
X186409524Y-106285714D01*
X186371429Y-106323810D01*
X186295239Y-106361905D01*
X186219048Y-106361905D01*
X186142858Y-106323810D01*
X186104762Y-106285714D01*
X186066667Y-106209524D01*
X186028572Y-106057143D01*
X186028572Y-105866667D01*
X186066667Y-105714286D01*
X186104762Y-105638095D01*
X186142858Y-105600000D01*
X186219048Y-105561905D01*
X187171429Y-105828571D02*
X187171429Y-106361905D01*
X186828572Y-105828571D02*
X186828572Y-106247619D01*
X186866667Y-106323810D01*
X186942858Y-106361905D01*
X187057144Y-106361905D01*
X187133334Y-106323810D01*
X187171429Y-106285714D01*
X187819049Y-105942857D02*
X187552382Y-105942857D01*
X187552382Y-106361905D02*
X187552382Y-105561905D01*
X187933335Y-105561905D01*
X178604762Y-93098095D02*
X178642857Y-93060000D01*
X178719048Y-93021905D01*
X178909524Y-93021905D01*
X178985714Y-93060000D01*
X179023810Y-93098095D01*
X179061905Y-93174286D01*
X179061905Y-93250476D01*
X179023810Y-93364762D01*
X178566667Y-93821905D01*
X179061905Y-93821905D01*
X179366667Y-93098095D02*
X179404762Y-93060000D01*
X179480953Y-93021905D01*
X179671429Y-93021905D01*
X179747619Y-93060000D01*
X179785715Y-93098095D01*
X179823810Y-93174286D01*
X179823810Y-93250476D01*
X179785715Y-93364762D01*
X179328572Y-93821905D01*
X179823810Y-93821905D01*
X180319048Y-93021905D02*
X180395239Y-93021905D01*
X180471429Y-93060000D01*
X180509524Y-93098095D01*
X180547620Y-93174286D01*
X180585715Y-93326667D01*
X180585715Y-93517143D01*
X180547620Y-93669524D01*
X180509524Y-93745714D01*
X180471429Y-93783810D01*
X180395239Y-93821905D01*
X180319048Y-93821905D01*
X180242858Y-93783810D01*
X180204762Y-93745714D01*
X180166667Y-93669524D01*
X180128572Y-93517143D01*
X180128572Y-93326667D01*
X180166667Y-93174286D01*
X180204762Y-93098095D01*
X180242858Y-93060000D01*
X180319048Y-93021905D01*
X181271429Y-93288571D02*
X181271429Y-93821905D01*
X180928572Y-93288571D02*
X180928572Y-93707619D01*
X180966667Y-93783810D01*
X181042858Y-93821905D01*
X181157144Y-93821905D01*
X181233334Y-93783810D01*
X181271429Y-93745714D01*
X181919049Y-93402857D02*
X181652382Y-93402857D01*
X181652382Y-93821905D02*
X181652382Y-93021905D01*
X182033335Y-93021905D01*
X134692381Y-142397619D02*
X134692381Y-142969048D01*
X134692381Y-142683334D02*
X133692381Y-142683334D01*
X133835238Y-142778572D01*
X133930476Y-142873810D01*
X133978095Y-142969048D01*
X133692381Y-141778572D02*
X133692381Y-141683333D01*
X133740000Y-141588095D01*
X133787619Y-141540476D01*
X133882857Y-141492857D01*
X134073333Y-141445238D01*
X134311429Y-141445238D01*
X134501905Y-141492857D01*
X134597143Y-141540476D01*
X134644762Y-141588095D01*
X134692381Y-141683333D01*
X134692381Y-141778572D01*
X134644762Y-141873810D01*
X134597143Y-141921429D01*
X134501905Y-141969048D01*
X134311429Y-142016667D01*
X134073333Y-142016667D01*
X133882857Y-141969048D01*
X133787619Y-141921429D01*
X133740000Y-141873810D01*
X133692381Y-141778572D01*
X133692381Y-140826191D02*
X133692381Y-140730952D01*
X133740000Y-140635714D01*
X133787619Y-140588095D01*
X133882857Y-140540476D01*
X134073333Y-140492857D01*
X134311429Y-140492857D01*
X134501905Y-140540476D01*
X134597143Y-140588095D01*
X134644762Y-140635714D01*
X134692381Y-140730952D01*
X134692381Y-140826191D01*
X134644762Y-140921429D01*
X134597143Y-140969048D01*
X134501905Y-141016667D01*
X134311429Y-141064286D01*
X134073333Y-141064286D01*
X133882857Y-141016667D01*
X133787619Y-140969048D01*
X133740000Y-140921429D01*
X133692381Y-140826191D01*
X134025714Y-139635714D02*
X134692381Y-139635714D01*
X134025714Y-140064286D02*
X134549524Y-140064286D01*
X134644762Y-140016667D01*
X134692381Y-139921429D01*
X134692381Y-139778571D01*
X134644762Y-139683333D01*
X134597143Y-139635714D01*
X134168571Y-138826190D02*
X134168571Y-139159524D01*
X134692381Y-139159524D02*
X133692381Y-139159524D01*
X133692381Y-138683333D01*
X122123810Y-121261905D02*
X121666667Y-121261905D01*
X121895238Y-121261905D02*
X121895238Y-120461905D01*
X121819048Y-120576190D01*
X121742857Y-120652381D01*
X121666667Y-120690476D01*
X122809524Y-120728571D02*
X122809524Y-121261905D01*
X122466667Y-120728571D02*
X122466667Y-121147619D01*
X122504762Y-121223810D01*
X122580953Y-121261905D01*
X122695239Y-121261905D01*
X122771429Y-121223810D01*
X122809524Y-121185714D01*
X123457144Y-120842857D02*
X123190477Y-120842857D01*
X123190477Y-121261905D02*
X123190477Y-120461905D01*
X123571430Y-120461905D01*
X187861905Y-91561905D02*
X187404762Y-91561905D01*
X187633333Y-91561905D02*
X187633333Y-90761905D01*
X187557143Y-90876190D01*
X187480952Y-90952381D01*
X187404762Y-90990476D01*
X188357143Y-90761905D02*
X188433334Y-90761905D01*
X188509524Y-90800000D01*
X188547619Y-90838095D01*
X188585715Y-90914286D01*
X188623810Y-91066667D01*
X188623810Y-91257143D01*
X188585715Y-91409524D01*
X188547619Y-91485714D01*
X188509524Y-91523810D01*
X188433334Y-91561905D01*
X188357143Y-91561905D01*
X188280953Y-91523810D01*
X188242857Y-91485714D01*
X188204762Y-91409524D01*
X188166667Y-91257143D01*
X188166667Y-91066667D01*
X188204762Y-90914286D01*
X188242857Y-90838095D01*
X188280953Y-90800000D01*
X188357143Y-90761905D01*
X189119048Y-90761905D02*
X189195239Y-90761905D01*
X189271429Y-90800000D01*
X189309524Y-90838095D01*
X189347620Y-90914286D01*
X189385715Y-91066667D01*
X189385715Y-91257143D01*
X189347620Y-91409524D01*
X189309524Y-91485714D01*
X189271429Y-91523810D01*
X189195239Y-91561905D01*
X189119048Y-91561905D01*
X189042858Y-91523810D01*
X189004762Y-91485714D01*
X188966667Y-91409524D01*
X188928572Y-91257143D01*
X188928572Y-91066667D01*
X188966667Y-90914286D01*
X189004762Y-90838095D01*
X189042858Y-90800000D01*
X189119048Y-90761905D01*
X190071429Y-91028571D02*
X190071429Y-91561905D01*
X189728572Y-91028571D02*
X189728572Y-91447619D01*
X189766667Y-91523810D01*
X189842858Y-91561905D01*
X189957144Y-91561905D01*
X190033334Y-91523810D01*
X190071429Y-91485714D01*
X190719049Y-91142857D02*
X190452382Y-91142857D01*
X190452382Y-91561905D02*
X190452382Y-90761905D01*
X190833335Y-90761905D01*
X131523810Y-114261905D02*
X131066667Y-114261905D01*
X131295238Y-114261905D02*
X131295238Y-113461905D01*
X131219048Y-113576190D01*
X131142857Y-113652381D01*
X131066667Y-113690476D01*
X132209524Y-113728571D02*
X132209524Y-114261905D01*
X131866667Y-113728571D02*
X131866667Y-114147619D01*
X131904762Y-114223810D01*
X131980953Y-114261905D01*
X132095239Y-114261905D01*
X132171429Y-114223810D01*
X132209524Y-114185714D01*
X132857144Y-113842857D02*
X132590477Y-113842857D01*
X132590477Y-114261905D02*
X132590477Y-113461905D01*
X132971430Y-113461905D01*
X136923810Y-121261905D02*
X136466667Y-121261905D01*
X136695238Y-121261905D02*
X136695238Y-120461905D01*
X136619048Y-120576190D01*
X136542857Y-120652381D01*
X136466667Y-120690476D01*
X137609524Y-120728571D02*
X137609524Y-121261905D01*
X137266667Y-120728571D02*
X137266667Y-121147619D01*
X137304762Y-121223810D01*
X137380953Y-121261905D01*
X137495239Y-121261905D01*
X137571429Y-121223810D01*
X137609524Y-121185714D01*
X138257144Y-120842857D02*
X137990477Y-120842857D01*
X137990477Y-121261905D02*
X137990477Y-120461905D01*
X138371430Y-120461905D01*
X137004762Y-114252381D02*
X136433333Y-114252381D01*
X136719047Y-114252381D02*
X136719047Y-113252381D01*
X136623809Y-113395238D01*
X136528571Y-113490476D01*
X136433333Y-113538095D01*
X137861905Y-113585714D02*
X137861905Y-114252381D01*
X137433333Y-113585714D02*
X137433333Y-114109524D01*
X137480952Y-114204762D01*
X137576190Y-114252381D01*
X137719048Y-114252381D01*
X137814286Y-114204762D01*
X137861905Y-114157143D01*
X138671429Y-113728571D02*
X138338095Y-113728571D01*
X138338095Y-114252381D02*
X138338095Y-113252381D01*
X138814286Y-113252381D01*
X130823810Y-121261905D02*
X130366667Y-121261905D01*
X130595238Y-121261905D02*
X130595238Y-120461905D01*
X130519048Y-120576190D01*
X130442857Y-120652381D01*
X130366667Y-120690476D01*
X131509524Y-120728571D02*
X131509524Y-121261905D01*
X131166667Y-120728571D02*
X131166667Y-121147619D01*
X131204762Y-121223810D01*
X131280953Y-121261905D01*
X131395239Y-121261905D01*
X131471429Y-121223810D01*
X131509524Y-121185714D01*
X132157144Y-120842857D02*
X131890477Y-120842857D01*
X131890477Y-121261905D02*
X131890477Y-120461905D01*
X132271430Y-120461905D01*
X120755619Y-73490381D02*
X120755619Y-72490381D01*
X121088953Y-73204667D01*
X121422286Y-72490381D01*
X121422286Y-73490381D01*
X121898476Y-73490381D02*
X121898476Y-72823714D01*
X121898476Y-72490381D02*
X121850857Y-72538000D01*
X121898476Y-72585619D01*
X121946095Y-72538000D01*
X121898476Y-72490381D01*
X121898476Y-72585619D01*
X122803238Y-73442762D02*
X122708000Y-73490381D01*
X122517523Y-73490381D01*
X122422285Y-73442762D01*
X122374666Y-73395143D01*
X122327047Y-73299905D01*
X122327047Y-73014190D01*
X122374666Y-72918952D01*
X122422285Y-72871333D01*
X122517523Y-72823714D01*
X122708000Y-72823714D01*
X122803238Y-72871333D01*
X123231809Y-73490381D02*
X123231809Y-72823714D01*
X123231809Y-73014190D02*
X123279428Y-72918952D01*
X123327047Y-72871333D01*
X123422285Y-72823714D01*
X123517524Y-72823714D01*
X123993714Y-73490381D02*
X123898476Y-73442762D01*
X123850857Y-73395143D01*
X123803238Y-73299905D01*
X123803238Y-73014190D01*
X123850857Y-72918952D01*
X123898476Y-72871333D01*
X123993714Y-72823714D01*
X124136572Y-72823714D01*
X124231810Y-72871333D01*
X124279429Y-72918952D01*
X124327048Y-73014190D01*
X124327048Y-73299905D01*
X124279429Y-73395143D01*
X124231810Y-73442762D01*
X124136572Y-73490381D01*
X123993714Y-73490381D01*
X124517524Y-73585619D02*
X125279429Y-73585619D01*
X125517524Y-72490381D02*
X125517524Y-73299905D01*
X125565143Y-73395143D01*
X125612762Y-73442762D01*
X125708000Y-73490381D01*
X125898477Y-73490381D01*
X125993715Y-73442762D01*
X126041334Y-73395143D01*
X126088953Y-73299905D01*
X126088953Y-72490381D01*
X126517524Y-73442762D02*
X126660381Y-73490381D01*
X126898477Y-73490381D01*
X126993715Y-73442762D01*
X127041334Y-73395143D01*
X127088953Y-73299905D01*
X127088953Y-73204667D01*
X127041334Y-73109429D01*
X126993715Y-73061810D01*
X126898477Y-73014190D01*
X126708000Y-72966571D01*
X126612762Y-72918952D01*
X126565143Y-72871333D01*
X126517524Y-72776095D01*
X126517524Y-72680857D01*
X126565143Y-72585619D01*
X126612762Y-72538000D01*
X126708000Y-72490381D01*
X126946096Y-72490381D01*
X127088953Y-72538000D01*
X127850858Y-72966571D02*
X127993715Y-73014190D01*
X128041334Y-73061810D01*
X128088953Y-73157048D01*
X128088953Y-73299905D01*
X128041334Y-73395143D01*
X127993715Y-73442762D01*
X127898477Y-73490381D01*
X127517524Y-73490381D01*
X127517524Y-72490381D01*
X127850858Y-72490381D01*
X127946096Y-72538000D01*
X127993715Y-72585619D01*
X128041334Y-72680857D01*
X128041334Y-72776095D01*
X127993715Y-72871333D01*
X127946096Y-72918952D01*
X127850858Y-72966571D01*
X127517524Y-72966571D01*
X128279429Y-73585619D02*
X129041334Y-73585619D01*
X129279429Y-73490381D02*
X129279429Y-72490381D01*
X129279429Y-72966571D02*
X129850858Y-72966571D01*
X129850858Y-73490381D02*
X129850858Y-72490381D01*
X130755620Y-72823714D02*
X130755620Y-73490381D01*
X130327048Y-72823714D02*
X130327048Y-73347524D01*
X130374667Y-73442762D01*
X130469905Y-73490381D01*
X130612763Y-73490381D01*
X130708001Y-73442762D01*
X130755620Y-73395143D01*
X131231810Y-73490381D02*
X131231810Y-72490381D01*
X131231810Y-72871333D02*
X131327048Y-72823714D01*
X131517525Y-72823714D01*
X131612763Y-72871333D01*
X131660382Y-72918952D01*
X131708001Y-73014190D01*
X131708001Y-73299905D01*
X131660382Y-73395143D01*
X131612763Y-73442762D01*
X131517525Y-73490381D01*
X131327048Y-73490381D01*
X131231810Y-73442762D01*
X146976143Y-142904381D02*
X146976143Y-141904381D01*
X147214238Y-141904381D01*
X147357096Y-141952000D01*
X147452334Y-142047238D01*
X147499953Y-142142476D01*
X147547572Y-142332952D01*
X147547572Y-142475810D01*
X147499953Y-142666286D01*
X147452334Y-142761524D01*
X147357096Y-142856762D01*
X147214238Y-142904381D01*
X146976143Y-142904381D01*
X147928524Y-142856762D02*
X148071381Y-142904381D01*
X148309477Y-142904381D01*
X148404715Y-142856762D01*
X148452334Y-142809143D01*
X148499953Y-142713905D01*
X148499953Y-142618667D01*
X148452334Y-142523429D01*
X148404715Y-142475810D01*
X148309477Y-142428190D01*
X148119000Y-142380571D01*
X148023762Y-142332952D01*
X147976143Y-142285333D01*
X147928524Y-142190095D01*
X147928524Y-142094857D01*
X147976143Y-141999619D01*
X148023762Y-141952000D01*
X148119000Y-141904381D01*
X148357096Y-141904381D01*
X148499953Y-141952000D01*
X148833286Y-141904381D02*
X149452334Y-141904381D01*
X149119000Y-142285333D01*
X149261858Y-142285333D01*
X149357096Y-142332952D01*
X149404715Y-142380571D01*
X149452334Y-142475810D01*
X149452334Y-142713905D01*
X149404715Y-142809143D01*
X149357096Y-142856762D01*
X149261858Y-142904381D01*
X148976143Y-142904381D01*
X148880905Y-142856762D01*
X148833286Y-142809143D01*
X149833286Y-141999619D02*
X149880905Y-141952000D01*
X149976143Y-141904381D01*
X150214239Y-141904381D01*
X150309477Y-141952000D01*
X150357096Y-141999619D01*
X150404715Y-142094857D01*
X150404715Y-142190095D01*
X150357096Y-142332952D01*
X149785667Y-142904381D01*
X150404715Y-142904381D01*
X150738048Y-141904381D02*
X151357096Y-141904381D01*
X151023762Y-142285333D01*
X151166620Y-142285333D01*
X151261858Y-142332952D01*
X151309477Y-142380571D01*
X151357096Y-142475810D01*
X151357096Y-142713905D01*
X151309477Y-142809143D01*
X151261858Y-142856762D01*
X151166620Y-142904381D01*
X150880905Y-142904381D01*
X150785667Y-142856762D01*
X150738048Y-142809143D01*
X152309477Y-142904381D02*
X151738048Y-142904381D01*
X152023762Y-142904381D02*
X152023762Y-141904381D01*
X151928524Y-142047238D01*
X151833286Y-142142476D01*
X151738048Y-142190095D01*
X196604762Y-136533334D02*
X196652381Y-136390477D01*
X196652381Y-136152381D01*
X196604762Y-136057143D01*
X196557143Y-136009524D01*
X196461905Y-135961905D01*
X196366667Y-135961905D01*
X196271429Y-136009524D01*
X196223810Y-136057143D01*
X196176190Y-136152381D01*
X196128571Y-136342858D01*
X196080952Y-136438096D01*
X196033333Y-136485715D01*
X195938095Y-136533334D01*
X195842857Y-136533334D01*
X195747619Y-136485715D01*
X195700000Y-136438096D01*
X195652381Y-136342858D01*
X195652381Y-136104762D01*
X195700000Y-135961905D01*
X195985714Y-135533334D02*
X196985714Y-135533334D01*
X196033333Y-135533334D02*
X195985714Y-135438096D01*
X195985714Y-135247619D01*
X196033333Y-135152381D01*
X196080952Y-135104762D01*
X196176190Y-135057143D01*
X196461905Y-135057143D01*
X196557143Y-135104762D01*
X196604762Y-135152381D01*
X196652381Y-135247619D01*
X196652381Y-135438096D01*
X196604762Y-135533334D01*
X196652381Y-134628572D02*
X195652381Y-134628572D01*
X196271429Y-134533334D02*
X196652381Y-134247619D01*
X195985714Y-134247619D02*
X196366667Y-134628572D01*
X196652381Y-133819048D02*
X195985714Y-133819048D01*
X196176190Y-133819048D02*
X196080952Y-133771429D01*
X196033333Y-133723810D01*
X195985714Y-133628572D01*
X195985714Y-133533333D01*
X196652381Y-131866666D02*
X196176190Y-132200000D01*
X196652381Y-132438095D02*
X195652381Y-132438095D01*
X195652381Y-132057142D01*
X195700000Y-131961904D01*
X195747619Y-131914285D01*
X195842857Y-131866666D01*
X195985714Y-131866666D01*
X196080952Y-131914285D01*
X196128571Y-131961904D01*
X196176190Y-132057142D01*
X196176190Y-132438095D01*
X196604762Y-131057142D02*
X196652381Y-131152380D01*
X196652381Y-131342857D01*
X196604762Y-131438095D01*
X196509524Y-131485714D01*
X196128571Y-131485714D01*
X196033333Y-131438095D01*
X195985714Y-131342857D01*
X195985714Y-131152380D01*
X196033333Y-131057142D01*
X196128571Y-131009523D01*
X196223810Y-131009523D01*
X196319048Y-131485714D01*
X196604762Y-130152380D02*
X196652381Y-130247618D01*
X196652381Y-130438095D01*
X196604762Y-130533333D01*
X196557143Y-130580952D01*
X196461905Y-130628571D01*
X196176190Y-130628571D01*
X196080952Y-130580952D01*
X196033333Y-130533333D01*
X195985714Y-130438095D01*
X195985714Y-130247618D01*
X196033333Y-130152380D01*
X196652381Y-129723809D02*
X195652381Y-129723809D01*
X196652381Y-129295237D02*
X196128571Y-129295237D01*
X196033333Y-129342856D01*
X195985714Y-129438094D01*
X195985714Y-129580952D01*
X196033333Y-129676190D01*
X196080952Y-129723809D01*
X195985714Y-128961904D02*
X195985714Y-128580952D01*
X195652381Y-128819047D02*
X196509524Y-128819047D01*
X196604762Y-128771428D01*
X196652381Y-128676190D01*
X196652381Y-128580952D01*
X196604762Y-128295237D02*
X196652381Y-128199999D01*
X196652381Y-128009523D01*
X196604762Y-127914284D01*
X196509524Y-127866665D01*
X196461905Y-127866665D01*
X196366667Y-127914284D01*
X196319048Y-128009523D01*
X196319048Y-128152380D01*
X196271429Y-128247618D01*
X196176190Y-128295237D01*
X196128571Y-128295237D01*
X196033333Y-128247618D01*
X195985714Y-128152380D01*
X195985714Y-128009523D01*
X196033333Y-127914284D01*
X190052381Y-133866667D02*
X189576190Y-134200001D01*
X190052381Y-134438096D02*
X189052381Y-134438096D01*
X189052381Y-134057143D01*
X189100000Y-133961905D01*
X189147619Y-133914286D01*
X189242857Y-133866667D01*
X189385714Y-133866667D01*
X189480952Y-133914286D01*
X189528571Y-133961905D01*
X189576190Y-134057143D01*
X189576190Y-134438096D01*
X190004762Y-133057143D02*
X190052381Y-133152381D01*
X190052381Y-133342858D01*
X190004762Y-133438096D01*
X189909524Y-133485715D01*
X189528571Y-133485715D01*
X189433333Y-133438096D01*
X189385714Y-133342858D01*
X189385714Y-133152381D01*
X189433333Y-133057143D01*
X189528571Y-133009524D01*
X189623810Y-133009524D01*
X189719048Y-133485715D01*
X190004762Y-132152381D02*
X190052381Y-132247619D01*
X190052381Y-132438096D01*
X190004762Y-132533334D01*
X189957143Y-132580953D01*
X189861905Y-132628572D01*
X189576190Y-132628572D01*
X189480952Y-132580953D01*
X189433333Y-132533334D01*
X189385714Y-132438096D01*
X189385714Y-132247619D01*
X189433333Y-132152381D01*
X190052381Y-131723810D02*
X189052381Y-131723810D01*
X190052381Y-131295238D02*
X189528571Y-131295238D01*
X189433333Y-131342857D01*
X189385714Y-131438095D01*
X189385714Y-131580953D01*
X189433333Y-131676191D01*
X189480952Y-131723810D01*
X189385714Y-130961905D02*
X189385714Y-130580953D01*
X189052381Y-130819048D02*
X189909524Y-130819048D01*
X190004762Y-130771429D01*
X190052381Y-130676191D01*
X190052381Y-130580953D01*
X190004762Y-130295238D02*
X190052381Y-130200000D01*
X190052381Y-130009524D01*
X190004762Y-129914285D01*
X189909524Y-129866666D01*
X189861905Y-129866666D01*
X189766667Y-129914285D01*
X189719048Y-130009524D01*
X189719048Y-130152381D01*
X189671429Y-130247619D01*
X189576190Y-130295238D01*
X189528571Y-130295238D01*
X189433333Y-130247619D01*
X189385714Y-130152381D01*
X189385714Y-130009524D01*
X189433333Y-129914285D01*
X190052381Y-128914285D02*
X190052381Y-129485714D01*
X190052381Y-129200000D02*
X189052381Y-129200000D01*
X189195238Y-129295238D01*
X189290476Y-129390476D01*
X189338095Y-129485714D01*
M02*
