M48
;DRILL file {KiCad 4.0.6+dfsg1-1} date Mon Jan 15 11:50:23 2018
;FORMAT={-:-/ absolute / metric / decimal}
FMAT,2
METRIC,TZ
T1C0.762
T2C0.800
T3C0.900
T4C1.000
T5C1.100
T6C1.143
%
G90
G05
M71
T1
X106.83Y-121.27
X113.8Y-69.3
X113.8Y-72.3
X113.8Y-75.3
X113.8Y-78.3
X119.53Y-121.27
X137.6Y-67.6
X137.6Y-70.6
X137.6Y-77.
X137.6Y-80.
T2
X91.17Y-105.45
X91.17Y-107.99
X91.17Y-115.61
X91.17Y-118.15
X92.46Y-89.89
X92.46Y-97.51
X96.38Y-122.7
X96.38Y-126.1
X96.38Y-129.5
X96.504Y-105.45
X96.504Y-118.15
X99.Y-134.1
X101.5Y-134.1
X104.Y-122.7
X104.Y-126.1
X104.Y-129.5
X104.4Y-75.4
X104.4Y-83.02
X108.1Y-75.4
X108.1Y-83.02
X114.03Y-105.45
X114.03Y-118.15
X121.6Y-107.
X122.94Y-89.89
X122.94Y-97.51
X123.4Y-111.6
X123.4Y-117.5
X124.1Y-107.
X125.4Y-111.6
X125.4Y-117.5
X126.4Y-107.
X129.Y-111.6
X129.3Y-117.5
X131.3Y-117.5
X131.5Y-111.6
X134.02Y-107.
X135.1Y-111.6
X135.1Y-117.5
X136.Y-127.8
X136.Y-130.34
X136.Y-132.88
X136.Y-135.42
X137.1Y-111.6
X137.1Y-117.5
X137.8Y-139.6
X137.8Y-142.1
X143.62Y-127.8
X143.62Y-130.34
X143.62Y-132.88
X143.62Y-135.42
X159.4Y-109.3
X159.4Y-111.8
X159.4Y-118.
X159.4Y-120.5
X177.7Y-65.4
X177.7Y-73.02
X178.4Y-88.4
X178.8Y-103.7
X181.Y-65.4
X181.Y-73.02
X181.Y-75.3
X181.Y-82.92
X182.2Y-88.4
X182.6Y-103.7
X184.4Y-72.38
X184.4Y-80.
X186.2Y-123.3
X186.2Y-125.8
X186.4Y-87.9
X188.9Y-87.9
T3
X92.2Y-125.3
X92.2Y-127.8
X92.2Y-130.3
X92.2Y-132.8
X92.5Y-74.2
X92.5Y-76.7
X92.5Y-79.2
X92.5Y-81.7
X194.1Y-84.1
X194.1Y-86.6
X194.1Y-89.1
X194.1Y-91.6
X194.1Y-116.6
X194.1Y-119.1
X194.1Y-121.6
X194.1Y-124.1
T4
X98.6Y-68.3
X99.7Y-139.9
X101.1Y-68.3
X102.2Y-139.9
X107.3Y-68.3
X109.8Y-68.3
X132.74Y-94.09
X132.74Y-101.71
X133.5Y-123.81
X133.5Y-126.35
X133.5Y-128.89
X133.5Y-131.43
X133.5Y-133.97
X133.5Y-136.51
X133.5Y-139.05
X133.5Y-141.59
X137.82Y-90.28
X137.82Y-105.52
X140.36Y-90.28
X140.36Y-105.52
X140.99Y-66.298
X140.99Y-85.501
X141.62Y-111.09
X141.62Y-118.71
X142.9Y-90.28
X142.9Y-105.52
X143.53Y-66.298
X143.53Y-85.501
X144.16Y-111.09
X144.16Y-118.71
X145.44Y-90.28
X145.44Y-105.52
X146.07Y-66.298
X146.07Y-85.501
X146.7Y-111.09
X146.7Y-118.71
X147.98Y-90.28
X147.98Y-105.52
X148.61Y-66.298
X148.61Y-85.501
X149.24Y-111.09
X149.24Y-118.71
X150.52Y-90.28
X150.52Y-105.52
X151.15Y-66.298
X151.15Y-85.501
X151.78Y-111.09
X151.78Y-118.71
X153.06Y-90.28
X153.06Y-105.52
X153.69Y-66.298
X153.69Y-85.501
X155.6Y-90.28
X155.6Y-105.52
X156.23Y-66.298
X156.23Y-85.501
X158.14Y-90.28
X158.14Y-105.52
X158.77Y-66.298
X158.77Y-85.501
X160.68Y-90.28
X160.68Y-105.52
X161.31Y-66.298
X161.31Y-85.501
X163.22Y-90.28
X163.22Y-105.52
X163.51Y-111.19
X163.51Y-118.81
X163.85Y-66.298
X163.85Y-85.501
X165.76Y-90.28
X165.76Y-105.52
X166.05Y-111.19
X166.05Y-118.81
X166.39Y-66.298
X166.39Y-85.501
X168.3Y-90.28
X168.3Y-105.52
X168.59Y-111.19
X168.59Y-118.81
X168.93Y-66.298
X168.93Y-85.501
X170.84Y-90.28
X170.84Y-105.52
X171.13Y-111.19
X171.13Y-118.81
X171.47Y-66.298
X171.47Y-85.501
X173.38Y-90.28
X173.38Y-105.52
X173.67Y-111.19
X173.67Y-118.81
X174.01Y-66.298
X174.01Y-85.501
X176.21Y-111.19
X176.21Y-118.81
X178.75Y-111.19
X178.75Y-118.81
X180.734Y-126.45
X180.734Y-128.99
X180.734Y-131.53
X180.734Y-134.07
X180.734Y-136.61
X180.734Y-139.15
X181.29Y-111.19
X181.29Y-118.81
X185.7Y-68.1
X185.9Y-139.6
X188.2Y-68.1
X188.4Y-139.6
X194.1Y-74.9
X194.1Y-77.4
X194.1Y-98.3
X194.1Y-100.8
X194.1Y-107.5
X194.1Y-110.
X194.1Y-130.8
X194.1Y-133.3
T5
X156.2Y-111.08
X156.2Y-118.7
T6
X186.2Y-112.36
X186.2Y-114.9
X186.2Y-117.44
T0
M30
