%FSLAX45Y45*%
G04 Gerber Fmt 4.5, Leading zero omitted, Abs format (unit mm)*
G04 Created by KiCad (PCBNEW 4.0.6+dfsg1-1) date Mon Jan 15 11:50:24 2018*
%MOMM*%
%LPD*%
G01*
G04 APERTURE LIST*
%ADD10C,0.127000*%
%ADD11C,0.150000*%
%ADD12C,0.200000*%
%ADD13C,0.300000*%
G04 APERTURE END LIST*
D10*
D11*
X19830000Y-14410000D02*
X8830000Y-14410000D01*
X19830000Y-14410000D02*
X19830000Y-6410000D01*
X8830000Y-6410000D02*
X8830000Y-14410000D01*
X19830000Y-6410000D02*
X8830000Y-6410000D01*
X19640000Y-14050000D02*
G75*
G03X19640000Y-14050000I-160000J0D01*
G01*
X19630000Y-6750000D02*
G75*
G03X19630000Y-6750000I-160000J0D01*
G01*
X9330000Y-6770000D02*
G75*
G03X9330000Y-6770000I-160000J0D01*
G01*
X9350000Y-14060000D02*
G75*
G03X9350000Y-14060000I-160000J0D01*
G01*
D12*
X10644900Y-12088900D02*
X10721100Y-12165100D01*
X10721100Y-12088900D02*
X10644900Y-12165100D01*
X11341900Y-6891900D02*
X11418100Y-6968100D01*
X11418100Y-6891900D02*
X11341900Y-6968100D01*
X11341900Y-7191900D02*
X11418100Y-7268100D01*
X11418100Y-7191900D02*
X11341900Y-7268100D01*
X11341900Y-7491900D02*
X11418100Y-7568100D01*
X11418100Y-7491900D02*
X11341900Y-7568100D01*
X11341900Y-7791900D02*
X11418100Y-7868100D01*
X11418100Y-7791900D02*
X11341900Y-7868100D01*
X11914900Y-12088900D02*
X11991100Y-12165100D01*
X11991100Y-12088900D02*
X11914900Y-12165100D01*
X13721900Y-6721900D02*
X13798100Y-6798100D01*
X13798100Y-6721900D02*
X13721900Y-6798100D01*
X13721900Y-7021900D02*
X13798100Y-7098100D01*
X13798100Y-7021900D02*
X13721900Y-7098100D01*
X13721900Y-7661900D02*
X13798100Y-7738100D01*
X13798100Y-7661900D02*
X13721900Y-7738100D01*
X13721900Y-7961900D02*
X13798100Y-8038100D01*
X13798100Y-7961900D02*
X13721900Y-8038100D01*
X9157000Y-10545000D02*
G75*
G03X9157000Y-10545000I-40000J0D01*
G01*
X9157000Y-10799000D02*
G75*
G03X9157000Y-10799000I-40000J0D01*
G01*
X9157000Y-11561000D02*
G75*
G03X9157000Y-11561000I-40000J0D01*
G01*
X9157000Y-11815000D02*
G75*
G03X9157000Y-11815000I-40000J0D01*
G01*
X9286000Y-8989000D02*
G75*
G03X9286000Y-8989000I-40000J0D01*
G01*
X9286000Y-9751000D02*
G75*
G03X9286000Y-9751000I-40000J0D01*
G01*
X9678000Y-12270000D02*
G75*
G03X9678000Y-12270000I-40000J0D01*
G01*
X9678000Y-12610000D02*
G75*
G03X9678000Y-12610000I-40000J0D01*
G01*
X9678000Y-12950000D02*
G75*
G03X9678000Y-12950000I-40000J0D01*
G01*
X9690400Y-10545000D02*
G75*
G03X9690400Y-10545000I-40000J0D01*
G01*
X9690400Y-11815000D02*
G75*
G03X9690400Y-11815000I-40000J0D01*
G01*
X9940000Y-13410000D02*
G75*
G03X9940000Y-13410000I-40000J0D01*
G01*
X10190000Y-13410000D02*
G75*
G03X10190000Y-13410000I-40000J0D01*
G01*
X10440000Y-12270000D02*
G75*
G03X10440000Y-12270000I-40000J0D01*
G01*
X10440000Y-12610000D02*
G75*
G03X10440000Y-12610000I-40000J0D01*
G01*
X10440000Y-12950000D02*
G75*
G03X10440000Y-12950000I-40000J0D01*
G01*
X10480000Y-7540000D02*
G75*
G03X10480000Y-7540000I-40000J0D01*
G01*
X10480000Y-8302000D02*
G75*
G03X10480000Y-8302000I-40000J0D01*
G01*
X10850000Y-7540000D02*
G75*
G03X10850000Y-7540000I-40000J0D01*
G01*
X10850000Y-8302000D02*
G75*
G03X10850000Y-8302000I-40000J0D01*
G01*
X11443000Y-10545000D02*
G75*
G03X11443000Y-10545000I-40000J0D01*
G01*
X11443000Y-11815000D02*
G75*
G03X11443000Y-11815000I-40000J0D01*
G01*
X12200000Y-10700000D02*
G75*
G03X12200000Y-10700000I-40000J0D01*
G01*
X12334000Y-8989000D02*
G75*
G03X12334000Y-8989000I-40000J0D01*
G01*
X12334000Y-9751000D02*
G75*
G03X12334000Y-9751000I-40000J0D01*
G01*
X12380000Y-11160000D02*
G75*
G03X12380000Y-11160000I-40000J0D01*
G01*
X12380000Y-11750000D02*
G75*
G03X12380000Y-11750000I-40000J0D01*
G01*
X12450000Y-10700000D02*
G75*
G03X12450000Y-10700000I-40000J0D01*
G01*
X12580000Y-11160000D02*
G75*
G03X12580000Y-11160000I-40000J0D01*
G01*
X12580000Y-11750000D02*
G75*
G03X12580000Y-11750000I-40000J0D01*
G01*
X12680000Y-10700000D02*
G75*
G03X12680000Y-10700000I-40000J0D01*
G01*
X12940000Y-11160000D02*
G75*
G03X12940000Y-11160000I-40000J0D01*
G01*
X12970000Y-11750000D02*
G75*
G03X12970000Y-11750000I-40000J0D01*
G01*
X13170000Y-11750000D02*
G75*
G03X13170000Y-11750000I-40000J0D01*
G01*
X13190000Y-11160000D02*
G75*
G03X13190000Y-11160000I-40000J0D01*
G01*
X13442000Y-10700000D02*
G75*
G03X13442000Y-10700000I-40000J0D01*
G01*
X13550000Y-11160000D02*
G75*
G03X13550000Y-11160000I-40000J0D01*
G01*
X13550000Y-11750000D02*
G75*
G03X13550000Y-11750000I-40000J0D01*
G01*
X13640000Y-12780000D02*
G75*
G03X13640000Y-12780000I-40000J0D01*
G01*
X13640000Y-13034000D02*
G75*
G03X13640000Y-13034000I-40000J0D01*
G01*
X13640000Y-13288000D02*
G75*
G03X13640000Y-13288000I-40000J0D01*
G01*
X13640000Y-13542000D02*
G75*
G03X13640000Y-13542000I-40000J0D01*
G01*
X13750000Y-11160000D02*
G75*
G03X13750000Y-11160000I-40000J0D01*
G01*
X13750000Y-11750000D02*
G75*
G03X13750000Y-11750000I-40000J0D01*
G01*
X13820000Y-13960000D02*
G75*
G03X13820000Y-13960000I-40000J0D01*
G01*
X13820000Y-14210000D02*
G75*
G03X13820000Y-14210000I-40000J0D01*
G01*
X14402000Y-12780000D02*
G75*
G03X14402000Y-12780000I-40000J0D01*
G01*
X14402000Y-13034000D02*
G75*
G03X14402000Y-13034000I-40000J0D01*
G01*
X14402000Y-13288000D02*
G75*
G03X14402000Y-13288000I-40000J0D01*
G01*
X14402000Y-13542000D02*
G75*
G03X14402000Y-13542000I-40000J0D01*
G01*
X15980000Y-10930000D02*
G75*
G03X15980000Y-10930000I-40000J0D01*
G01*
X15980000Y-11180000D02*
G75*
G03X15980000Y-11180000I-40000J0D01*
G01*
X15980000Y-11800000D02*
G75*
G03X15980000Y-11800000I-40000J0D01*
G01*
X15980000Y-12050000D02*
G75*
G03X15980000Y-12050000I-40000J0D01*
G01*
X17810000Y-6540000D02*
G75*
G03X17810000Y-6540000I-40000J0D01*
G01*
X17810000Y-7302000D02*
G75*
G03X17810000Y-7302000I-40000J0D01*
G01*
X17880000Y-8840000D02*
G75*
G03X17880000Y-8840000I-40000J0D01*
G01*
X17920000Y-10370000D02*
G75*
G03X17920000Y-10370000I-40000J0D01*
G01*
X18140000Y-6540000D02*
G75*
G03X18140000Y-6540000I-40000J0D01*
G01*
X18140000Y-7302000D02*
G75*
G03X18140000Y-7302000I-40000J0D01*
G01*
X18140000Y-7530000D02*
G75*
G03X18140000Y-7530000I-40000J0D01*
G01*
X18140000Y-8292000D02*
G75*
G03X18140000Y-8292000I-40000J0D01*
G01*
X18260000Y-8840000D02*
G75*
G03X18260000Y-8840000I-40000J0D01*
G01*
X18300000Y-10370000D02*
G75*
G03X18300000Y-10370000I-40000J0D01*
G01*
X18480000Y-7238000D02*
G75*
G03X18480000Y-7238000I-40000J0D01*
G01*
X18480000Y-8000000D02*
G75*
G03X18480000Y-8000000I-40000J0D01*
G01*
X18660000Y-12330000D02*
G75*
G03X18660000Y-12330000I-40000J0D01*
G01*
X18660000Y-12580000D02*
G75*
G03X18660000Y-12580000I-40000J0D01*
G01*
X18680000Y-8790000D02*
G75*
G03X18680000Y-8790000I-40000J0D01*
G01*
X18930000Y-8790000D02*
G75*
G03X18930000Y-8790000I-40000J0D01*
G01*
X9220000Y-12485000D02*
X9220000Y-12575000D01*
X9175000Y-12530000D02*
X9265000Y-12530000D01*
X9220000Y-12735000D02*
X9220000Y-12825000D01*
X9175000Y-12780000D02*
X9265000Y-12780000D01*
X9220000Y-12985000D02*
X9220000Y-13075000D01*
X9175000Y-13030000D02*
X9265000Y-13030000D01*
X9220000Y-13235000D02*
X9220000Y-13325000D01*
X9175000Y-13280000D02*
X9265000Y-13280000D01*
X9250000Y-7375000D02*
X9250000Y-7465000D01*
X9205000Y-7420000D02*
X9295000Y-7420000D01*
X9250000Y-7625000D02*
X9250000Y-7715000D01*
X9205000Y-7670000D02*
X9295000Y-7670000D01*
X9250000Y-7875000D02*
X9250000Y-7965000D01*
X9205000Y-7920000D02*
X9295000Y-7920000D01*
X9250000Y-8125000D02*
X9250000Y-8215000D01*
X9205000Y-8170000D02*
X9295000Y-8170000D01*
X19410000Y-8365000D02*
X19410000Y-8455000D01*
X19365000Y-8410000D02*
X19455000Y-8410000D01*
X19410000Y-8615000D02*
X19410000Y-8705000D01*
X19365000Y-8660000D02*
X19455000Y-8660000D01*
X19410000Y-8865000D02*
X19410000Y-8955000D01*
X19365000Y-8910000D02*
X19455000Y-8910000D01*
X19410000Y-9115000D02*
X19410000Y-9205000D01*
X19365000Y-9160000D02*
X19455000Y-9160000D01*
X19410000Y-11615000D02*
X19410000Y-11705000D01*
X19365000Y-11660000D02*
X19455000Y-11660000D01*
X19410000Y-11865000D02*
X19410000Y-11955000D01*
X19365000Y-11910000D02*
X19455000Y-11910000D01*
X19410000Y-12115000D02*
X19410000Y-12205000D01*
X19365000Y-12160000D02*
X19455000Y-12160000D01*
X19410000Y-12365000D02*
X19410000Y-12455000D01*
X19365000Y-12410000D02*
X19455000Y-12410000D01*
X9895356Y-6865356D02*
X9895356Y-6794644D01*
X9824644Y-6794644D01*
X9824644Y-6865356D01*
X9895356Y-6865356D01*
X10005356Y-14025356D02*
X10005356Y-13954644D01*
X9934644Y-13954644D01*
X9934644Y-14025356D01*
X10005356Y-14025356D01*
X10145356Y-6865356D02*
X10145356Y-6794644D01*
X10074644Y-6794644D01*
X10074644Y-6865356D01*
X10145356Y-6865356D01*
X10255356Y-14025356D02*
X10255356Y-13954644D01*
X10184644Y-13954644D01*
X10184644Y-14025356D01*
X10255356Y-14025356D01*
X10765356Y-6865356D02*
X10765356Y-6794644D01*
X10694644Y-6794644D01*
X10694644Y-6865356D01*
X10765356Y-6865356D01*
X11015356Y-6865356D02*
X11015356Y-6794644D01*
X10944644Y-6794644D01*
X10944644Y-6865356D01*
X11015356Y-6865356D01*
X13309356Y-9444356D02*
X13309356Y-9373644D01*
X13238644Y-9373644D01*
X13238644Y-9444356D01*
X13309356Y-9444356D01*
X13309356Y-10206356D02*
X13309356Y-10135644D01*
X13238644Y-10135644D01*
X13238644Y-10206356D01*
X13309356Y-10206356D01*
X13385356Y-12416356D02*
X13385356Y-12345644D01*
X13314644Y-12345644D01*
X13314644Y-12416356D01*
X13385356Y-12416356D01*
X13385356Y-12670356D02*
X13385356Y-12599644D01*
X13314644Y-12599644D01*
X13314644Y-12670356D01*
X13385356Y-12670356D01*
X13385356Y-12924356D02*
X13385356Y-12853644D01*
X13314644Y-12853644D01*
X13314644Y-12924356D01*
X13385356Y-12924356D01*
X13385356Y-13178356D02*
X13385356Y-13107644D01*
X13314644Y-13107644D01*
X13314644Y-13178356D01*
X13385356Y-13178356D01*
X13385356Y-13432356D02*
X13385356Y-13361644D01*
X13314644Y-13361644D01*
X13314644Y-13432356D01*
X13385356Y-13432356D01*
X13385356Y-13686356D02*
X13385356Y-13615644D01*
X13314644Y-13615644D01*
X13314644Y-13686356D01*
X13385356Y-13686356D01*
X13385356Y-13940356D02*
X13385356Y-13869644D01*
X13314644Y-13869644D01*
X13314644Y-13940356D01*
X13385356Y-13940356D01*
X13385356Y-14194356D02*
X13385356Y-14123644D01*
X13314644Y-14123644D01*
X13314644Y-14194356D01*
X13385356Y-14194356D01*
X13817356Y-9063356D02*
X13817356Y-8992644D01*
X13746644Y-8992644D01*
X13746644Y-9063356D01*
X13817356Y-9063356D01*
X13817356Y-10587356D02*
X13817356Y-10516644D01*
X13746644Y-10516644D01*
X13746644Y-10587356D01*
X13817356Y-10587356D01*
X14071356Y-9063356D02*
X14071356Y-8992644D01*
X14000644Y-8992644D01*
X14000644Y-9063356D01*
X14071356Y-9063356D01*
X14071356Y-10587356D02*
X14071356Y-10516644D01*
X14000644Y-10516644D01*
X14000644Y-10587356D01*
X14071356Y-10587356D01*
X14134356Y-6665206D02*
X14134356Y-6594494D01*
X14063644Y-6594494D01*
X14063644Y-6665206D01*
X14134356Y-6665206D01*
X14134356Y-8585506D02*
X14134356Y-8514794D01*
X14063644Y-8514794D01*
X14063644Y-8585506D01*
X14134356Y-8585506D01*
X14197356Y-11144356D02*
X14197356Y-11073644D01*
X14126644Y-11073644D01*
X14126644Y-11144356D01*
X14197356Y-11144356D01*
X14197356Y-11906356D02*
X14197356Y-11835644D01*
X14126644Y-11835644D01*
X14126644Y-11906356D01*
X14197356Y-11906356D01*
X14325356Y-9063356D02*
X14325356Y-8992644D01*
X14254644Y-8992644D01*
X14254644Y-9063356D01*
X14325356Y-9063356D01*
X14325356Y-10587356D02*
X14325356Y-10516644D01*
X14254644Y-10516644D01*
X14254644Y-10587356D01*
X14325356Y-10587356D01*
X14388356Y-6665206D02*
X14388356Y-6594494D01*
X14317644Y-6594494D01*
X14317644Y-6665206D01*
X14388356Y-6665206D01*
X14388356Y-8585506D02*
X14388356Y-8514794D01*
X14317644Y-8514794D01*
X14317644Y-8585506D01*
X14388356Y-8585506D01*
X14451356Y-11144356D02*
X14451356Y-11073644D01*
X14380644Y-11073644D01*
X14380644Y-11144356D01*
X14451356Y-11144356D01*
X14451356Y-11906356D02*
X14451356Y-11835644D01*
X14380644Y-11835644D01*
X14380644Y-11906356D01*
X14451356Y-11906356D01*
X14579356Y-9063356D02*
X14579356Y-8992644D01*
X14508644Y-8992644D01*
X14508644Y-9063356D01*
X14579356Y-9063356D01*
X14579356Y-10587356D02*
X14579356Y-10516644D01*
X14508644Y-10516644D01*
X14508644Y-10587356D01*
X14579356Y-10587356D01*
X14642356Y-6665206D02*
X14642356Y-6594494D01*
X14571644Y-6594494D01*
X14571644Y-6665206D01*
X14642356Y-6665206D01*
X14642356Y-8585506D02*
X14642356Y-8514794D01*
X14571644Y-8514794D01*
X14571644Y-8585506D01*
X14642356Y-8585506D01*
X14705356Y-11144356D02*
X14705356Y-11073644D01*
X14634644Y-11073644D01*
X14634644Y-11144356D01*
X14705356Y-11144356D01*
X14705356Y-11906356D02*
X14705356Y-11835644D01*
X14634644Y-11835644D01*
X14634644Y-11906356D01*
X14705356Y-11906356D01*
X14833356Y-9063356D02*
X14833356Y-8992644D01*
X14762644Y-8992644D01*
X14762644Y-9063356D01*
X14833356Y-9063356D01*
X14833356Y-10587356D02*
X14833356Y-10516644D01*
X14762644Y-10516644D01*
X14762644Y-10587356D01*
X14833356Y-10587356D01*
X14896356Y-6665206D02*
X14896356Y-6594494D01*
X14825644Y-6594494D01*
X14825644Y-6665206D01*
X14896356Y-6665206D01*
X14896356Y-8585506D02*
X14896356Y-8514794D01*
X14825644Y-8514794D01*
X14825644Y-8585506D01*
X14896356Y-8585506D01*
X14959356Y-11144356D02*
X14959356Y-11073644D01*
X14888644Y-11073644D01*
X14888644Y-11144356D01*
X14959356Y-11144356D01*
X14959356Y-11906356D02*
X14959356Y-11835644D01*
X14888644Y-11835644D01*
X14888644Y-11906356D01*
X14959356Y-11906356D01*
X15087356Y-9063356D02*
X15087356Y-8992644D01*
X15016644Y-8992644D01*
X15016644Y-9063356D01*
X15087356Y-9063356D01*
X15087356Y-10587356D02*
X15087356Y-10516644D01*
X15016644Y-10516644D01*
X15016644Y-10587356D01*
X15087356Y-10587356D01*
X15150356Y-6665206D02*
X15150356Y-6594494D01*
X15079644Y-6594494D01*
X15079644Y-6665206D01*
X15150356Y-6665206D01*
X15150356Y-8585506D02*
X15150356Y-8514794D01*
X15079644Y-8514794D01*
X15079644Y-8585506D01*
X15150356Y-8585506D01*
X15213356Y-11144356D02*
X15213356Y-11073644D01*
X15142644Y-11073644D01*
X15142644Y-11144356D01*
X15213356Y-11144356D01*
X15213356Y-11906356D02*
X15213356Y-11835644D01*
X15142644Y-11835644D01*
X15142644Y-11906356D01*
X15213356Y-11906356D01*
X15341356Y-9063356D02*
X15341356Y-8992644D01*
X15270644Y-8992644D01*
X15270644Y-9063356D01*
X15341356Y-9063356D01*
X15341356Y-10587356D02*
X15341356Y-10516644D01*
X15270644Y-10516644D01*
X15270644Y-10587356D01*
X15341356Y-10587356D01*
X15404356Y-6665206D02*
X15404356Y-6594494D01*
X15333644Y-6594494D01*
X15333644Y-6665206D01*
X15404356Y-6665206D01*
X15404356Y-8585506D02*
X15404356Y-8514794D01*
X15333644Y-8514794D01*
X15333644Y-8585506D01*
X15404356Y-8585506D01*
X15595356Y-9063356D02*
X15595356Y-8992644D01*
X15524644Y-8992644D01*
X15524644Y-9063356D01*
X15595356Y-9063356D01*
X15595356Y-10587356D02*
X15595356Y-10516644D01*
X15524644Y-10516644D01*
X15524644Y-10587356D01*
X15595356Y-10587356D01*
X15658356Y-6665206D02*
X15658356Y-6594494D01*
X15587644Y-6594494D01*
X15587644Y-6665206D01*
X15658356Y-6665206D01*
X15658356Y-8585506D02*
X15658356Y-8514794D01*
X15587644Y-8514794D01*
X15587644Y-8585506D01*
X15658356Y-8585506D01*
X15849356Y-9063356D02*
X15849356Y-8992644D01*
X15778644Y-8992644D01*
X15778644Y-9063356D01*
X15849356Y-9063356D01*
X15849356Y-10587356D02*
X15849356Y-10516644D01*
X15778644Y-10516644D01*
X15778644Y-10587356D01*
X15849356Y-10587356D01*
X15912356Y-6665206D02*
X15912356Y-6594494D01*
X15841644Y-6594494D01*
X15841644Y-6665206D01*
X15912356Y-6665206D01*
X15912356Y-8585506D02*
X15912356Y-8514794D01*
X15841644Y-8514794D01*
X15841644Y-8585506D01*
X15912356Y-8585506D01*
X16103356Y-9063356D02*
X16103356Y-8992644D01*
X16032644Y-8992644D01*
X16032644Y-9063356D01*
X16103356Y-9063356D01*
X16103356Y-10587356D02*
X16103356Y-10516644D01*
X16032644Y-10516644D01*
X16032644Y-10587356D01*
X16103356Y-10587356D01*
X16166356Y-6665206D02*
X16166356Y-6594494D01*
X16095644Y-6594494D01*
X16095644Y-6665206D01*
X16166356Y-6665206D01*
X16166356Y-8585506D02*
X16166356Y-8514794D01*
X16095644Y-8514794D01*
X16095644Y-8585506D01*
X16166356Y-8585506D01*
X16357356Y-9063356D02*
X16357356Y-8992644D01*
X16286644Y-8992644D01*
X16286644Y-9063356D01*
X16357356Y-9063356D01*
X16357356Y-10587356D02*
X16357356Y-10516644D01*
X16286644Y-10516644D01*
X16286644Y-10587356D01*
X16357356Y-10587356D01*
X16386356Y-11154356D02*
X16386356Y-11083644D01*
X16315644Y-11083644D01*
X16315644Y-11154356D01*
X16386356Y-11154356D01*
X16386356Y-11916356D02*
X16386356Y-11845644D01*
X16315644Y-11845644D01*
X16315644Y-11916356D01*
X16386356Y-11916356D01*
X16420356Y-6665206D02*
X16420356Y-6594494D01*
X16349644Y-6594494D01*
X16349644Y-6665206D01*
X16420356Y-6665206D01*
X16420356Y-8585506D02*
X16420356Y-8514794D01*
X16349644Y-8514794D01*
X16349644Y-8585506D01*
X16420356Y-8585506D01*
X16611356Y-9063356D02*
X16611356Y-8992644D01*
X16540644Y-8992644D01*
X16540644Y-9063356D01*
X16611356Y-9063356D01*
X16611356Y-10587356D02*
X16611356Y-10516644D01*
X16540644Y-10516644D01*
X16540644Y-10587356D01*
X16611356Y-10587356D01*
X16640356Y-11154356D02*
X16640356Y-11083644D01*
X16569644Y-11083644D01*
X16569644Y-11154356D01*
X16640356Y-11154356D01*
X16640356Y-11916356D02*
X16640356Y-11845644D01*
X16569644Y-11845644D01*
X16569644Y-11916356D01*
X16640356Y-11916356D01*
X16674356Y-6665206D02*
X16674356Y-6594494D01*
X16603644Y-6594494D01*
X16603644Y-6665206D01*
X16674356Y-6665206D01*
X16674356Y-8585506D02*
X16674356Y-8514794D01*
X16603644Y-8514794D01*
X16603644Y-8585506D01*
X16674356Y-8585506D01*
X16865356Y-9063356D02*
X16865356Y-8992644D01*
X16794644Y-8992644D01*
X16794644Y-9063356D01*
X16865356Y-9063356D01*
X16865356Y-10587356D02*
X16865356Y-10516644D01*
X16794644Y-10516644D01*
X16794644Y-10587356D01*
X16865356Y-10587356D01*
X16894356Y-11154356D02*
X16894356Y-11083644D01*
X16823644Y-11083644D01*
X16823644Y-11154356D01*
X16894356Y-11154356D01*
X16894356Y-11916356D02*
X16894356Y-11845644D01*
X16823644Y-11845644D01*
X16823644Y-11916356D01*
X16894356Y-11916356D01*
X16928356Y-6665206D02*
X16928356Y-6594494D01*
X16857644Y-6594494D01*
X16857644Y-6665206D01*
X16928356Y-6665206D01*
X16928356Y-8585506D02*
X16928356Y-8514794D01*
X16857644Y-8514794D01*
X16857644Y-8585506D01*
X16928356Y-8585506D01*
X17119356Y-9063356D02*
X17119356Y-8992644D01*
X17048644Y-8992644D01*
X17048644Y-9063356D01*
X17119356Y-9063356D01*
X17119356Y-10587356D02*
X17119356Y-10516644D01*
X17048644Y-10516644D01*
X17048644Y-10587356D01*
X17119356Y-10587356D01*
X17148356Y-11154356D02*
X17148356Y-11083644D01*
X17077644Y-11083644D01*
X17077644Y-11154356D01*
X17148356Y-11154356D01*
X17148356Y-11916356D02*
X17148356Y-11845644D01*
X17077644Y-11845644D01*
X17077644Y-11916356D01*
X17148356Y-11916356D01*
X17182356Y-6665206D02*
X17182356Y-6594494D01*
X17111644Y-6594494D01*
X17111644Y-6665206D01*
X17182356Y-6665206D01*
X17182356Y-8585506D02*
X17182356Y-8514794D01*
X17111644Y-8514794D01*
X17111644Y-8585506D01*
X17182356Y-8585506D01*
X17373356Y-9063356D02*
X17373356Y-8992644D01*
X17302644Y-8992644D01*
X17302644Y-9063356D01*
X17373356Y-9063356D01*
X17373356Y-10587356D02*
X17373356Y-10516644D01*
X17302644Y-10516644D01*
X17302644Y-10587356D01*
X17373356Y-10587356D01*
X17402356Y-11154356D02*
X17402356Y-11083644D01*
X17331644Y-11083644D01*
X17331644Y-11154356D01*
X17402356Y-11154356D01*
X17402356Y-11916356D02*
X17402356Y-11845644D01*
X17331644Y-11845644D01*
X17331644Y-11916356D01*
X17402356Y-11916356D01*
X17436356Y-6665206D02*
X17436356Y-6594494D01*
X17365644Y-6594494D01*
X17365644Y-6665206D01*
X17436356Y-6665206D01*
X17436356Y-8585506D02*
X17436356Y-8514794D01*
X17365644Y-8514794D01*
X17365644Y-8585506D01*
X17436356Y-8585506D01*
X17656356Y-11154356D02*
X17656356Y-11083644D01*
X17585644Y-11083644D01*
X17585644Y-11154356D01*
X17656356Y-11154356D01*
X17656356Y-11916356D02*
X17656356Y-11845644D01*
X17585644Y-11845644D01*
X17585644Y-11916356D01*
X17656356Y-11916356D01*
X17910356Y-11154356D02*
X17910356Y-11083644D01*
X17839644Y-11083644D01*
X17839644Y-11154356D01*
X17910356Y-11154356D01*
X17910356Y-11916356D02*
X17910356Y-11845644D01*
X17839644Y-11845644D01*
X17839644Y-11916356D01*
X17910356Y-11916356D01*
X18108756Y-12680356D02*
X18108756Y-12609644D01*
X18038044Y-12609644D01*
X18038044Y-12680356D01*
X18108756Y-12680356D01*
X18108756Y-12934356D02*
X18108756Y-12863644D01*
X18038044Y-12863644D01*
X18038044Y-12934356D01*
X18108756Y-12934356D01*
X18108756Y-13188356D02*
X18108756Y-13117644D01*
X18038044Y-13117644D01*
X18038044Y-13188356D01*
X18108756Y-13188356D01*
X18108756Y-13442356D02*
X18108756Y-13371644D01*
X18038044Y-13371644D01*
X18038044Y-13442356D01*
X18108756Y-13442356D01*
X18108756Y-13696356D02*
X18108756Y-13625644D01*
X18038044Y-13625644D01*
X18038044Y-13696356D01*
X18108756Y-13696356D01*
X18108756Y-13950356D02*
X18108756Y-13879644D01*
X18038044Y-13879644D01*
X18038044Y-13950356D01*
X18108756Y-13950356D01*
X18164356Y-11154356D02*
X18164356Y-11083644D01*
X18093644Y-11083644D01*
X18093644Y-11154356D01*
X18164356Y-11154356D01*
X18164356Y-11916356D02*
X18164356Y-11845644D01*
X18093644Y-11845644D01*
X18093644Y-11916356D01*
X18164356Y-11916356D01*
X18605356Y-6845356D02*
X18605356Y-6774644D01*
X18534644Y-6774644D01*
X18534644Y-6845356D01*
X18605356Y-6845356D01*
X18625356Y-13995356D02*
X18625356Y-13924644D01*
X18554644Y-13924644D01*
X18554644Y-13995356D01*
X18625356Y-13995356D01*
X18855356Y-6845356D02*
X18855356Y-6774644D01*
X18784644Y-6774644D01*
X18784644Y-6845356D01*
X18855356Y-6845356D01*
X18875356Y-13995356D02*
X18875356Y-13924644D01*
X18804644Y-13924644D01*
X18804644Y-13995356D01*
X18875356Y-13995356D01*
X19445356Y-7525356D02*
X19445356Y-7454644D01*
X19374644Y-7454644D01*
X19374644Y-7525356D01*
X19445356Y-7525356D01*
X19445356Y-7775356D02*
X19445356Y-7704644D01*
X19374644Y-7704644D01*
X19374644Y-7775356D01*
X19445356Y-7775356D01*
X19445356Y-9865356D02*
X19445356Y-9794644D01*
X19374644Y-9794644D01*
X19374644Y-9865356D01*
X19445356Y-9865356D01*
X19445356Y-10115356D02*
X19445356Y-10044644D01*
X19374644Y-10044644D01*
X19374644Y-10115356D01*
X19445356Y-10115356D01*
X19445356Y-10785356D02*
X19445356Y-10714644D01*
X19374644Y-10714644D01*
X19374644Y-10785356D01*
X19445356Y-10785356D01*
X19445356Y-11035356D02*
X19445356Y-10964644D01*
X19374644Y-10964644D01*
X19374644Y-11035356D01*
X19445356Y-11035356D01*
X19445356Y-13115356D02*
X19445356Y-13044644D01*
X19374644Y-13044644D01*
X19374644Y-13115356D01*
X19445356Y-13115356D01*
X19445356Y-13365356D02*
X19445356Y-13294644D01*
X19374644Y-13294644D01*
X19374644Y-13365356D01*
X19445356Y-13365356D01*
X15620000Y-11163000D02*
X15675000Y-11108000D01*
X15620000Y-11053000D01*
X15565000Y-11108000D01*
X15620000Y-11163000D01*
X15620000Y-11925000D02*
X15675000Y-11870000D01*
X15620000Y-11815000D01*
X15565000Y-11870000D01*
X15620000Y-11925000D01*
X18562850Y-11178850D02*
X18677150Y-11293150D01*
X18677150Y-11178850D02*
X18562850Y-11293150D01*
X18677150Y-11236000D02*
G75*
G03X18677150Y-11236000I-57150J0D01*
G01*
X18562850Y-11432850D02*
X18677150Y-11547150D01*
X18677150Y-11432850D02*
X18562850Y-11547150D01*
X18677150Y-11490000D02*
G75*
G03X18677150Y-11490000I-57150J0D01*
G01*
X18562850Y-11686850D02*
X18677150Y-11801150D01*
X18677150Y-11686850D02*
X18562850Y-11801150D01*
X18677150Y-11744000D02*
G75*
G03X18677150Y-11744000I-57150J0D01*
G01*
D13*
X9093929Y-14883214D02*
X9093929Y-14583214D01*
X9165357Y-14583214D01*
X9208214Y-14597500D01*
X9236786Y-14626071D01*
X9251071Y-14654643D01*
X9265357Y-14711786D01*
X9265357Y-14754643D01*
X9251071Y-14811786D01*
X9236786Y-14840357D01*
X9208214Y-14868929D01*
X9165357Y-14883214D01*
X9093929Y-14883214D01*
X9393929Y-14883214D02*
X9393929Y-14683214D01*
X9393929Y-14740357D02*
X9408214Y-14711786D01*
X9422500Y-14697500D01*
X9451071Y-14683214D01*
X9479643Y-14683214D01*
X9579643Y-14883214D02*
X9579643Y-14683214D01*
X9579643Y-14583214D02*
X9565357Y-14597500D01*
X9579643Y-14611786D01*
X9593929Y-14597500D01*
X9579643Y-14583214D01*
X9579643Y-14611786D01*
X9765357Y-14883214D02*
X9736786Y-14868929D01*
X9722500Y-14840357D01*
X9722500Y-14583214D01*
X9922500Y-14883214D02*
X9893929Y-14868929D01*
X9879643Y-14840357D01*
X9879643Y-14583214D01*
X10265357Y-14883214D02*
X10265357Y-14583214D01*
X10365357Y-14797500D01*
X10465357Y-14583214D01*
X10465357Y-14883214D01*
X10736786Y-14883214D02*
X10736786Y-14726071D01*
X10722500Y-14697500D01*
X10693929Y-14683214D01*
X10636786Y-14683214D01*
X10608214Y-14697500D01*
X10736786Y-14868929D02*
X10708214Y-14883214D01*
X10636786Y-14883214D01*
X10608214Y-14868929D01*
X10593929Y-14840357D01*
X10593929Y-14811786D01*
X10608214Y-14783214D01*
X10636786Y-14768929D01*
X10708214Y-14768929D01*
X10736786Y-14754643D01*
X10879643Y-14683214D02*
X10879643Y-14983214D01*
X10879643Y-14697500D02*
X10908214Y-14683214D01*
X10965357Y-14683214D01*
X10993929Y-14697500D01*
X11008214Y-14711786D01*
X11022500Y-14740357D01*
X11022500Y-14826071D01*
X11008214Y-14854643D01*
X10993929Y-14868929D01*
X10965357Y-14883214D01*
X10908214Y-14883214D01*
X10879643Y-14868929D01*
X11151071Y-14854643D02*
X11165357Y-14868929D01*
X11151071Y-14883214D01*
X11136786Y-14868929D01*
X11151071Y-14854643D01*
X11151071Y-14883214D01*
X11151071Y-14697500D02*
X11165357Y-14711786D01*
X11151071Y-14726071D01*
X11136786Y-14711786D01*
X11151071Y-14697500D01*
X11151071Y-14726071D01*
X8746300Y-15339400D02*
X8822500Y-15415600D01*
X8822500Y-15339400D02*
X8746300Y-15415600D01*
X9151071Y-15213214D02*
X9179643Y-15213214D01*
X9208214Y-15227500D01*
X9222500Y-15241786D01*
X9236786Y-15270357D01*
X9251071Y-15327500D01*
X9251071Y-15398929D01*
X9236786Y-15456071D01*
X9222500Y-15484643D01*
X9208214Y-15498929D01*
X9179643Y-15513214D01*
X9151071Y-15513214D01*
X9122500Y-15498929D01*
X9108214Y-15484643D01*
X9093929Y-15456071D01*
X9079643Y-15398929D01*
X9079643Y-15327500D01*
X9093929Y-15270357D01*
X9108214Y-15241786D01*
X9122500Y-15227500D01*
X9151071Y-15213214D01*
X9379643Y-15484643D02*
X9393929Y-15498929D01*
X9379643Y-15513214D01*
X9365357Y-15498929D01*
X9379643Y-15484643D01*
X9379643Y-15513214D01*
X9493928Y-15213214D02*
X9693928Y-15213214D01*
X9565357Y-15513214D01*
X9936786Y-15213214D02*
X9879643Y-15213214D01*
X9851071Y-15227500D01*
X9836786Y-15241786D01*
X9808214Y-15284643D01*
X9793929Y-15341786D01*
X9793929Y-15456071D01*
X9808214Y-15484643D01*
X9822500Y-15498929D01*
X9851071Y-15513214D01*
X9908214Y-15513214D01*
X9936786Y-15498929D01*
X9951071Y-15484643D01*
X9965357Y-15456071D01*
X9965357Y-15384643D01*
X9951071Y-15356071D01*
X9936786Y-15341786D01*
X9908214Y-15327500D01*
X9851071Y-15327500D01*
X9822500Y-15341786D01*
X9808214Y-15356071D01*
X9793929Y-15384643D01*
X10093929Y-15513214D02*
X10093929Y-15313214D01*
X10093929Y-15341786D02*
X10108214Y-15327500D01*
X10136786Y-15313214D01*
X10179643Y-15313214D01*
X10208214Y-15327500D01*
X10222500Y-15356071D01*
X10222500Y-15513214D01*
X10222500Y-15356071D02*
X10236786Y-15327500D01*
X10265357Y-15313214D01*
X10308214Y-15313214D01*
X10336786Y-15327500D01*
X10351071Y-15356071D01*
X10351071Y-15513214D01*
X10493929Y-15513214D02*
X10493929Y-15313214D01*
X10493929Y-15341786D02*
X10508214Y-15327500D01*
X10536786Y-15313214D01*
X10579643Y-15313214D01*
X10608214Y-15327500D01*
X10622500Y-15356071D01*
X10622500Y-15513214D01*
X10622500Y-15356071D02*
X10636786Y-15327500D01*
X10665357Y-15313214D01*
X10708214Y-15313214D01*
X10736786Y-15327500D01*
X10751071Y-15356071D01*
X10751071Y-15513214D01*
X11336786Y-15198929D02*
X11079643Y-15584643D01*
X11722500Y-15213214D02*
X11751071Y-15213214D01*
X11779643Y-15227500D01*
X11793928Y-15241786D01*
X11808214Y-15270357D01*
X11822500Y-15327500D01*
X11822500Y-15398929D01*
X11808214Y-15456071D01*
X11793928Y-15484643D01*
X11779643Y-15498929D01*
X11751071Y-15513214D01*
X11722500Y-15513214D01*
X11693928Y-15498929D01*
X11679643Y-15484643D01*
X11665357Y-15456071D01*
X11651071Y-15398929D01*
X11651071Y-15327500D01*
X11665357Y-15270357D01*
X11679643Y-15241786D01*
X11693928Y-15227500D01*
X11722500Y-15213214D01*
X11951071Y-15484643D02*
X11965357Y-15498929D01*
X11951071Y-15513214D01*
X11936786Y-15498929D01*
X11951071Y-15484643D01*
X11951071Y-15513214D01*
X12151071Y-15213214D02*
X12179643Y-15213214D01*
X12208214Y-15227500D01*
X12222500Y-15241786D01*
X12236785Y-15270357D01*
X12251071Y-15327500D01*
X12251071Y-15398929D01*
X12236785Y-15456071D01*
X12222500Y-15484643D01*
X12208214Y-15498929D01*
X12179643Y-15513214D01*
X12151071Y-15513214D01*
X12122500Y-15498929D01*
X12108214Y-15484643D01*
X12093928Y-15456071D01*
X12079643Y-15398929D01*
X12079643Y-15327500D01*
X12093928Y-15270357D01*
X12108214Y-15241786D01*
X12122500Y-15227500D01*
X12151071Y-15213214D01*
X12351071Y-15213214D02*
X12536785Y-15213214D01*
X12436785Y-15327500D01*
X12479643Y-15327500D01*
X12508214Y-15341786D01*
X12522500Y-15356071D01*
X12536785Y-15384643D01*
X12536785Y-15456071D01*
X12522500Y-15484643D01*
X12508214Y-15498929D01*
X12479643Y-15513214D01*
X12393928Y-15513214D01*
X12365357Y-15498929D01*
X12351071Y-15484643D01*
X12722500Y-15213214D02*
X12751071Y-15213214D01*
X12779643Y-15227500D01*
X12793928Y-15241786D01*
X12808214Y-15270357D01*
X12822500Y-15327500D01*
X12822500Y-15398929D01*
X12808214Y-15456071D01*
X12793928Y-15484643D01*
X12779643Y-15498929D01*
X12751071Y-15513214D01*
X12722500Y-15513214D01*
X12693928Y-15498929D01*
X12679643Y-15484643D01*
X12665357Y-15456071D01*
X12651071Y-15398929D01*
X12651071Y-15327500D01*
X12665357Y-15270357D01*
X12679643Y-15241786D01*
X12693928Y-15227500D01*
X12722500Y-15213214D01*
X12936786Y-15213214D02*
X12936786Y-15270357D01*
X13051071Y-15213214D02*
X13051071Y-15270357D01*
X13493928Y-15627500D02*
X13479643Y-15613214D01*
X13451071Y-15570357D01*
X13436785Y-15541786D01*
X13422500Y-15498929D01*
X13408214Y-15427500D01*
X13408214Y-15370357D01*
X13422500Y-15298929D01*
X13436785Y-15256071D01*
X13451071Y-15227500D01*
X13479643Y-15184643D01*
X13493928Y-15170357D01*
X13765357Y-15513214D02*
X13593928Y-15513214D01*
X13679643Y-15513214D02*
X13679643Y-15213214D01*
X13651071Y-15256071D01*
X13622500Y-15284643D01*
X13593928Y-15298929D01*
X13951071Y-15213214D02*
X13979643Y-15213214D01*
X14008214Y-15227500D01*
X14022500Y-15241786D01*
X14036785Y-15270357D01*
X14051071Y-15327500D01*
X14051071Y-15398929D01*
X14036785Y-15456071D01*
X14022500Y-15484643D01*
X14008214Y-15498929D01*
X13979643Y-15513214D01*
X13951071Y-15513214D01*
X13922500Y-15498929D01*
X13908214Y-15484643D01*
X13893928Y-15456071D01*
X13879643Y-15398929D01*
X13879643Y-15327500D01*
X13893928Y-15270357D01*
X13908214Y-15241786D01*
X13922500Y-15227500D01*
X13951071Y-15213214D01*
X14408214Y-15513214D02*
X14408214Y-15213214D01*
X14536785Y-15513214D02*
X14536785Y-15356071D01*
X14522500Y-15327500D01*
X14493928Y-15313214D01*
X14451071Y-15313214D01*
X14422500Y-15327500D01*
X14408214Y-15341786D01*
X14722500Y-15513214D02*
X14693928Y-15498929D01*
X14679643Y-15484643D01*
X14665357Y-15456071D01*
X14665357Y-15370357D01*
X14679643Y-15341786D01*
X14693928Y-15327500D01*
X14722500Y-15313214D01*
X14765357Y-15313214D01*
X14793928Y-15327500D01*
X14808214Y-15341786D01*
X14822500Y-15370357D01*
X14822500Y-15456071D01*
X14808214Y-15484643D01*
X14793928Y-15498929D01*
X14765357Y-15513214D01*
X14722500Y-15513214D01*
X14993928Y-15513214D02*
X14965357Y-15498929D01*
X14951071Y-15470357D01*
X14951071Y-15213214D01*
X15222500Y-15498929D02*
X15193928Y-15513214D01*
X15136786Y-15513214D01*
X15108214Y-15498929D01*
X15093928Y-15470357D01*
X15093928Y-15356071D01*
X15108214Y-15327500D01*
X15136786Y-15313214D01*
X15193928Y-15313214D01*
X15222500Y-15327500D01*
X15236786Y-15356071D01*
X15236786Y-15384643D01*
X15093928Y-15413214D01*
X15351071Y-15498929D02*
X15379643Y-15513214D01*
X15436786Y-15513214D01*
X15465357Y-15498929D01*
X15479643Y-15470357D01*
X15479643Y-15456071D01*
X15465357Y-15427500D01*
X15436786Y-15413214D01*
X15393928Y-15413214D01*
X15365357Y-15398929D01*
X15351071Y-15370357D01*
X15351071Y-15356071D01*
X15365357Y-15327500D01*
X15393928Y-15313214D01*
X15436786Y-15313214D01*
X15465357Y-15327500D01*
X15579643Y-15627500D02*
X15593928Y-15613214D01*
X15622500Y-15570357D01*
X15636786Y-15541786D01*
X15651071Y-15498929D01*
X15665357Y-15427500D01*
X15665357Y-15370357D01*
X15651071Y-15298929D01*
X15636786Y-15256071D01*
X15622500Y-15227500D01*
X15593928Y-15184643D01*
X15579643Y-15170357D01*
X8822500Y-15773500D02*
G75*
G03X8822500Y-15773500I-40000J0D01*
G01*
X9151071Y-15609214D02*
X9179643Y-15609214D01*
X9208214Y-15623500D01*
X9222500Y-15637786D01*
X9236786Y-15666357D01*
X9251071Y-15723500D01*
X9251071Y-15794929D01*
X9236786Y-15852071D01*
X9222500Y-15880643D01*
X9208214Y-15894929D01*
X9179643Y-15909214D01*
X9151071Y-15909214D01*
X9122500Y-15894929D01*
X9108214Y-15880643D01*
X9093929Y-15852071D01*
X9079643Y-15794929D01*
X9079643Y-15723500D01*
X9093929Y-15666357D01*
X9108214Y-15637786D01*
X9122500Y-15623500D01*
X9151071Y-15609214D01*
X9379643Y-15880643D02*
X9393929Y-15894929D01*
X9379643Y-15909214D01*
X9365357Y-15894929D01*
X9379643Y-15880643D01*
X9379643Y-15909214D01*
X9565357Y-15737786D02*
X9536786Y-15723500D01*
X9522500Y-15709214D01*
X9508214Y-15680643D01*
X9508214Y-15666357D01*
X9522500Y-15637786D01*
X9536786Y-15623500D01*
X9565357Y-15609214D01*
X9622500Y-15609214D01*
X9651071Y-15623500D01*
X9665357Y-15637786D01*
X9679643Y-15666357D01*
X9679643Y-15680643D01*
X9665357Y-15709214D01*
X9651071Y-15723500D01*
X9622500Y-15737786D01*
X9565357Y-15737786D01*
X9536786Y-15752071D01*
X9522500Y-15766357D01*
X9508214Y-15794929D01*
X9508214Y-15852071D01*
X9522500Y-15880643D01*
X9536786Y-15894929D01*
X9565357Y-15909214D01*
X9622500Y-15909214D01*
X9651071Y-15894929D01*
X9665357Y-15880643D01*
X9679643Y-15852071D01*
X9679643Y-15794929D01*
X9665357Y-15766357D01*
X9651071Y-15752071D01*
X9622500Y-15737786D01*
X9865357Y-15609214D02*
X9893929Y-15609214D01*
X9922500Y-15623500D01*
X9936786Y-15637786D01*
X9951071Y-15666357D01*
X9965357Y-15723500D01*
X9965357Y-15794929D01*
X9951071Y-15852071D01*
X9936786Y-15880643D01*
X9922500Y-15894929D01*
X9893929Y-15909214D01*
X9865357Y-15909214D01*
X9836786Y-15894929D01*
X9822500Y-15880643D01*
X9808214Y-15852071D01*
X9793929Y-15794929D01*
X9793929Y-15723500D01*
X9808214Y-15666357D01*
X9822500Y-15637786D01*
X9836786Y-15623500D01*
X9865357Y-15609214D01*
X10093929Y-15909214D02*
X10093929Y-15709214D01*
X10093929Y-15737786D02*
X10108214Y-15723500D01*
X10136786Y-15709214D01*
X10179643Y-15709214D01*
X10208214Y-15723500D01*
X10222500Y-15752071D01*
X10222500Y-15909214D01*
X10222500Y-15752071D02*
X10236786Y-15723500D01*
X10265357Y-15709214D01*
X10308214Y-15709214D01*
X10336786Y-15723500D01*
X10351071Y-15752071D01*
X10351071Y-15909214D01*
X10493929Y-15909214D02*
X10493929Y-15709214D01*
X10493929Y-15737786D02*
X10508214Y-15723500D01*
X10536786Y-15709214D01*
X10579643Y-15709214D01*
X10608214Y-15723500D01*
X10622500Y-15752071D01*
X10622500Y-15909214D01*
X10622500Y-15752071D02*
X10636786Y-15723500D01*
X10665357Y-15709214D01*
X10708214Y-15709214D01*
X10736786Y-15723500D01*
X10751071Y-15752071D01*
X10751071Y-15909214D01*
X11336786Y-15594929D02*
X11079643Y-15980643D01*
X11722500Y-15609214D02*
X11751071Y-15609214D01*
X11779643Y-15623500D01*
X11793928Y-15637786D01*
X11808214Y-15666357D01*
X11822500Y-15723500D01*
X11822500Y-15794929D01*
X11808214Y-15852071D01*
X11793928Y-15880643D01*
X11779643Y-15894929D01*
X11751071Y-15909214D01*
X11722500Y-15909214D01*
X11693928Y-15894929D01*
X11679643Y-15880643D01*
X11665357Y-15852071D01*
X11651071Y-15794929D01*
X11651071Y-15723500D01*
X11665357Y-15666357D01*
X11679643Y-15637786D01*
X11693928Y-15623500D01*
X11722500Y-15609214D01*
X11951071Y-15880643D02*
X11965357Y-15894929D01*
X11951071Y-15909214D01*
X11936786Y-15894929D01*
X11951071Y-15880643D01*
X11951071Y-15909214D01*
X12151071Y-15609214D02*
X12179643Y-15609214D01*
X12208214Y-15623500D01*
X12222500Y-15637786D01*
X12236785Y-15666357D01*
X12251071Y-15723500D01*
X12251071Y-15794929D01*
X12236785Y-15852071D01*
X12222500Y-15880643D01*
X12208214Y-15894929D01*
X12179643Y-15909214D01*
X12151071Y-15909214D01*
X12122500Y-15894929D01*
X12108214Y-15880643D01*
X12093928Y-15852071D01*
X12079643Y-15794929D01*
X12079643Y-15723500D01*
X12093928Y-15666357D01*
X12108214Y-15637786D01*
X12122500Y-15623500D01*
X12151071Y-15609214D01*
X12351071Y-15609214D02*
X12536785Y-15609214D01*
X12436785Y-15723500D01*
X12479643Y-15723500D01*
X12508214Y-15737786D01*
X12522500Y-15752071D01*
X12536785Y-15780643D01*
X12536785Y-15852071D01*
X12522500Y-15880643D01*
X12508214Y-15894929D01*
X12479643Y-15909214D01*
X12393928Y-15909214D01*
X12365357Y-15894929D01*
X12351071Y-15880643D01*
X12822500Y-15909214D02*
X12651071Y-15909214D01*
X12736785Y-15909214D02*
X12736785Y-15609214D01*
X12708214Y-15652071D01*
X12679643Y-15680643D01*
X12651071Y-15694929D01*
X12936786Y-15609214D02*
X12936786Y-15666357D01*
X13051071Y-15609214D02*
X13051071Y-15666357D01*
X13493928Y-16023500D02*
X13479643Y-16009214D01*
X13451071Y-15966357D01*
X13436785Y-15937786D01*
X13422500Y-15894929D01*
X13408214Y-15823500D01*
X13408214Y-15766357D01*
X13422500Y-15694929D01*
X13436785Y-15652071D01*
X13451071Y-15623500D01*
X13479643Y-15580643D01*
X13493928Y-15566357D01*
X13579643Y-15609214D02*
X13779643Y-15609214D01*
X13651071Y-15909214D01*
X13951071Y-15609214D02*
X13979643Y-15609214D01*
X14008214Y-15623500D01*
X14022500Y-15637786D01*
X14036785Y-15666357D01*
X14051071Y-15723500D01*
X14051071Y-15794929D01*
X14036785Y-15852071D01*
X14022500Y-15880643D01*
X14008214Y-15894929D01*
X13979643Y-15909214D01*
X13951071Y-15909214D01*
X13922500Y-15894929D01*
X13908214Y-15880643D01*
X13893928Y-15852071D01*
X13879643Y-15794929D01*
X13879643Y-15723500D01*
X13893928Y-15666357D01*
X13908214Y-15637786D01*
X13922500Y-15623500D01*
X13951071Y-15609214D01*
X14408214Y-15909214D02*
X14408214Y-15609214D01*
X14536785Y-15909214D02*
X14536785Y-15752071D01*
X14522500Y-15723500D01*
X14493928Y-15709214D01*
X14451071Y-15709214D01*
X14422500Y-15723500D01*
X14408214Y-15737786D01*
X14722500Y-15909214D02*
X14693928Y-15894929D01*
X14679643Y-15880643D01*
X14665357Y-15852071D01*
X14665357Y-15766357D01*
X14679643Y-15737786D01*
X14693928Y-15723500D01*
X14722500Y-15709214D01*
X14765357Y-15709214D01*
X14793928Y-15723500D01*
X14808214Y-15737786D01*
X14822500Y-15766357D01*
X14822500Y-15852071D01*
X14808214Y-15880643D01*
X14793928Y-15894929D01*
X14765357Y-15909214D01*
X14722500Y-15909214D01*
X14993928Y-15909214D02*
X14965357Y-15894929D01*
X14951071Y-15866357D01*
X14951071Y-15609214D01*
X15222500Y-15894929D02*
X15193928Y-15909214D01*
X15136786Y-15909214D01*
X15108214Y-15894929D01*
X15093928Y-15866357D01*
X15093928Y-15752071D01*
X15108214Y-15723500D01*
X15136786Y-15709214D01*
X15193928Y-15709214D01*
X15222500Y-15723500D01*
X15236786Y-15752071D01*
X15236786Y-15780643D01*
X15093928Y-15809214D01*
X15351071Y-15894929D02*
X15379643Y-15909214D01*
X15436786Y-15909214D01*
X15465357Y-15894929D01*
X15479643Y-15866357D01*
X15479643Y-15852071D01*
X15465357Y-15823500D01*
X15436786Y-15809214D01*
X15393928Y-15809214D01*
X15365357Y-15794929D01*
X15351071Y-15766357D01*
X15351071Y-15752071D01*
X15365357Y-15723500D01*
X15393928Y-15709214D01*
X15436786Y-15709214D01*
X15465357Y-15723500D01*
X15579643Y-16023500D02*
X15593928Y-16009214D01*
X15622500Y-15966357D01*
X15636786Y-15937786D01*
X15651071Y-15894929D01*
X15665357Y-15823500D01*
X15665357Y-15766357D01*
X15651071Y-15694929D01*
X15636786Y-15652071D01*
X15622500Y-15623500D01*
X15593928Y-15580643D01*
X15579643Y-15566357D01*
X8777500Y-16124500D02*
X8777500Y-16214500D01*
X8732500Y-16169500D02*
X8822500Y-16169500D01*
X9151071Y-16005214D02*
X9179643Y-16005214D01*
X9208214Y-16019500D01*
X9222500Y-16033786D01*
X9236786Y-16062357D01*
X9251071Y-16119500D01*
X9251071Y-16190929D01*
X9236786Y-16248071D01*
X9222500Y-16276643D01*
X9208214Y-16290929D01*
X9179643Y-16305214D01*
X9151071Y-16305214D01*
X9122500Y-16290929D01*
X9108214Y-16276643D01*
X9093929Y-16248071D01*
X9079643Y-16190929D01*
X9079643Y-16119500D01*
X9093929Y-16062357D01*
X9108214Y-16033786D01*
X9122500Y-16019500D01*
X9151071Y-16005214D01*
X9379643Y-16276643D02*
X9393929Y-16290929D01*
X9379643Y-16305214D01*
X9365357Y-16290929D01*
X9379643Y-16276643D01*
X9379643Y-16305214D01*
X9536786Y-16305214D02*
X9593928Y-16305214D01*
X9622500Y-16290929D01*
X9636786Y-16276643D01*
X9665357Y-16233786D01*
X9679643Y-16176643D01*
X9679643Y-16062357D01*
X9665357Y-16033786D01*
X9651071Y-16019500D01*
X9622500Y-16005214D01*
X9565357Y-16005214D01*
X9536786Y-16019500D01*
X9522500Y-16033786D01*
X9508214Y-16062357D01*
X9508214Y-16133786D01*
X9522500Y-16162357D01*
X9536786Y-16176643D01*
X9565357Y-16190929D01*
X9622500Y-16190929D01*
X9651071Y-16176643D01*
X9665357Y-16162357D01*
X9679643Y-16133786D01*
X9865357Y-16005214D02*
X9893929Y-16005214D01*
X9922500Y-16019500D01*
X9936786Y-16033786D01*
X9951071Y-16062357D01*
X9965357Y-16119500D01*
X9965357Y-16190929D01*
X9951071Y-16248071D01*
X9936786Y-16276643D01*
X9922500Y-16290929D01*
X9893929Y-16305214D01*
X9865357Y-16305214D01*
X9836786Y-16290929D01*
X9822500Y-16276643D01*
X9808214Y-16248071D01*
X9793929Y-16190929D01*
X9793929Y-16119500D01*
X9808214Y-16062357D01*
X9822500Y-16033786D01*
X9836786Y-16019500D01*
X9865357Y-16005214D01*
X10093929Y-16305214D02*
X10093929Y-16105214D01*
X10093929Y-16133786D02*
X10108214Y-16119500D01*
X10136786Y-16105214D01*
X10179643Y-16105214D01*
X10208214Y-16119500D01*
X10222500Y-16148071D01*
X10222500Y-16305214D01*
X10222500Y-16148071D02*
X10236786Y-16119500D01*
X10265357Y-16105214D01*
X10308214Y-16105214D01*
X10336786Y-16119500D01*
X10351071Y-16148071D01*
X10351071Y-16305214D01*
X10493929Y-16305214D02*
X10493929Y-16105214D01*
X10493929Y-16133786D02*
X10508214Y-16119500D01*
X10536786Y-16105214D01*
X10579643Y-16105214D01*
X10608214Y-16119500D01*
X10622500Y-16148071D01*
X10622500Y-16305214D01*
X10622500Y-16148071D02*
X10636786Y-16119500D01*
X10665357Y-16105214D01*
X10708214Y-16105214D01*
X10736786Y-16119500D01*
X10751071Y-16148071D01*
X10751071Y-16305214D01*
X11336786Y-15990929D02*
X11079643Y-16376643D01*
X11722500Y-16005214D02*
X11751071Y-16005214D01*
X11779643Y-16019500D01*
X11793928Y-16033786D01*
X11808214Y-16062357D01*
X11822500Y-16119500D01*
X11822500Y-16190929D01*
X11808214Y-16248071D01*
X11793928Y-16276643D01*
X11779643Y-16290929D01*
X11751071Y-16305214D01*
X11722500Y-16305214D01*
X11693928Y-16290929D01*
X11679643Y-16276643D01*
X11665357Y-16248071D01*
X11651071Y-16190929D01*
X11651071Y-16119500D01*
X11665357Y-16062357D01*
X11679643Y-16033786D01*
X11693928Y-16019500D01*
X11722500Y-16005214D01*
X11951071Y-16276643D02*
X11965357Y-16290929D01*
X11951071Y-16305214D01*
X11936786Y-16290929D01*
X11951071Y-16276643D01*
X11951071Y-16305214D01*
X12151071Y-16005214D02*
X12179643Y-16005214D01*
X12208214Y-16019500D01*
X12222500Y-16033786D01*
X12236785Y-16062357D01*
X12251071Y-16119500D01*
X12251071Y-16190929D01*
X12236785Y-16248071D01*
X12222500Y-16276643D01*
X12208214Y-16290929D01*
X12179643Y-16305214D01*
X12151071Y-16305214D01*
X12122500Y-16290929D01*
X12108214Y-16276643D01*
X12093928Y-16248071D01*
X12079643Y-16190929D01*
X12079643Y-16119500D01*
X12093928Y-16062357D01*
X12108214Y-16033786D01*
X12122500Y-16019500D01*
X12151071Y-16005214D01*
X12351071Y-16005214D02*
X12536785Y-16005214D01*
X12436785Y-16119500D01*
X12479643Y-16119500D01*
X12508214Y-16133786D01*
X12522500Y-16148071D01*
X12536785Y-16176643D01*
X12536785Y-16248071D01*
X12522500Y-16276643D01*
X12508214Y-16290929D01*
X12479643Y-16305214D01*
X12393928Y-16305214D01*
X12365357Y-16290929D01*
X12351071Y-16276643D01*
X12808214Y-16005214D02*
X12665357Y-16005214D01*
X12651071Y-16148071D01*
X12665357Y-16133786D01*
X12693928Y-16119500D01*
X12765357Y-16119500D01*
X12793928Y-16133786D01*
X12808214Y-16148071D01*
X12822500Y-16176643D01*
X12822500Y-16248071D01*
X12808214Y-16276643D01*
X12793928Y-16290929D01*
X12765357Y-16305214D01*
X12693928Y-16305214D01*
X12665357Y-16290929D01*
X12651071Y-16276643D01*
X12936786Y-16005214D02*
X12936786Y-16062357D01*
X13051071Y-16005214D02*
X13051071Y-16062357D01*
X13493928Y-16419500D02*
X13479643Y-16405214D01*
X13451071Y-16362357D01*
X13436785Y-16333786D01*
X13422500Y-16290929D01*
X13408214Y-16219500D01*
X13408214Y-16162357D01*
X13422500Y-16090929D01*
X13436785Y-16048071D01*
X13451071Y-16019500D01*
X13479643Y-15976643D01*
X13493928Y-15962357D01*
X13765357Y-16305214D02*
X13593928Y-16305214D01*
X13679643Y-16305214D02*
X13679643Y-16005214D01*
X13651071Y-16048071D01*
X13622500Y-16076643D01*
X13593928Y-16090929D01*
X14022500Y-16005214D02*
X13965357Y-16005214D01*
X13936785Y-16019500D01*
X13922500Y-16033786D01*
X13893928Y-16076643D01*
X13879643Y-16133786D01*
X13879643Y-16248071D01*
X13893928Y-16276643D01*
X13908214Y-16290929D01*
X13936785Y-16305214D01*
X13993928Y-16305214D01*
X14022500Y-16290929D01*
X14036785Y-16276643D01*
X14051071Y-16248071D01*
X14051071Y-16176643D01*
X14036785Y-16148071D01*
X14022500Y-16133786D01*
X13993928Y-16119500D01*
X13936785Y-16119500D01*
X13908214Y-16133786D01*
X13893928Y-16148071D01*
X13879643Y-16176643D01*
X14408214Y-16305214D02*
X14408214Y-16005214D01*
X14536785Y-16305214D02*
X14536785Y-16148071D01*
X14522500Y-16119500D01*
X14493928Y-16105214D01*
X14451071Y-16105214D01*
X14422500Y-16119500D01*
X14408214Y-16133786D01*
X14722500Y-16305214D02*
X14693928Y-16290929D01*
X14679643Y-16276643D01*
X14665357Y-16248071D01*
X14665357Y-16162357D01*
X14679643Y-16133786D01*
X14693928Y-16119500D01*
X14722500Y-16105214D01*
X14765357Y-16105214D01*
X14793928Y-16119500D01*
X14808214Y-16133786D01*
X14822500Y-16162357D01*
X14822500Y-16248071D01*
X14808214Y-16276643D01*
X14793928Y-16290929D01*
X14765357Y-16305214D01*
X14722500Y-16305214D01*
X14993928Y-16305214D02*
X14965357Y-16290929D01*
X14951071Y-16262357D01*
X14951071Y-16005214D01*
X15222500Y-16290929D02*
X15193928Y-16305214D01*
X15136786Y-16305214D01*
X15108214Y-16290929D01*
X15093928Y-16262357D01*
X15093928Y-16148071D01*
X15108214Y-16119500D01*
X15136786Y-16105214D01*
X15193928Y-16105214D01*
X15222500Y-16119500D01*
X15236786Y-16148071D01*
X15236786Y-16176643D01*
X15093928Y-16205214D01*
X15351071Y-16290929D02*
X15379643Y-16305214D01*
X15436786Y-16305214D01*
X15465357Y-16290929D01*
X15479643Y-16262357D01*
X15479643Y-16248071D01*
X15465357Y-16219500D01*
X15436786Y-16205214D01*
X15393928Y-16205214D01*
X15365357Y-16190929D01*
X15351071Y-16162357D01*
X15351071Y-16148071D01*
X15365357Y-16119500D01*
X15393928Y-16105214D01*
X15436786Y-16105214D01*
X15465357Y-16119500D01*
X15579643Y-16419500D02*
X15593928Y-16405214D01*
X15622500Y-16362357D01*
X15636786Y-16333786D01*
X15651071Y-16290929D01*
X15665357Y-16219500D01*
X15665357Y-16162357D01*
X15651071Y-16090929D01*
X15636786Y-16048071D01*
X15622500Y-16019500D01*
X15593928Y-15976643D01*
X15579643Y-15962357D01*
X8807856Y-16600856D02*
X8807856Y-16530144D01*
X8737144Y-16530144D01*
X8737144Y-16600856D01*
X8807856Y-16600856D01*
X9251071Y-16701214D02*
X9079643Y-16701214D01*
X9165357Y-16701214D02*
X9165357Y-16401214D01*
X9136786Y-16444071D01*
X9108214Y-16472643D01*
X9079643Y-16486929D01*
X9379643Y-16672643D02*
X9393929Y-16686929D01*
X9379643Y-16701214D01*
X9365357Y-16686929D01*
X9379643Y-16672643D01*
X9379643Y-16701214D01*
X9579643Y-16401214D02*
X9608214Y-16401214D01*
X9636786Y-16415500D01*
X9651071Y-16429786D01*
X9665357Y-16458357D01*
X9679643Y-16515500D01*
X9679643Y-16586929D01*
X9665357Y-16644071D01*
X9651071Y-16672643D01*
X9636786Y-16686929D01*
X9608214Y-16701214D01*
X9579643Y-16701214D01*
X9551071Y-16686929D01*
X9536786Y-16672643D01*
X9522500Y-16644071D01*
X9508214Y-16586929D01*
X9508214Y-16515500D01*
X9522500Y-16458357D01*
X9536786Y-16429786D01*
X9551071Y-16415500D01*
X9579643Y-16401214D01*
X9865357Y-16401214D02*
X9893929Y-16401214D01*
X9922500Y-16415500D01*
X9936786Y-16429786D01*
X9951071Y-16458357D01*
X9965357Y-16515500D01*
X9965357Y-16586929D01*
X9951071Y-16644071D01*
X9936786Y-16672643D01*
X9922500Y-16686929D01*
X9893929Y-16701214D01*
X9865357Y-16701214D01*
X9836786Y-16686929D01*
X9822500Y-16672643D01*
X9808214Y-16644071D01*
X9793929Y-16586929D01*
X9793929Y-16515500D01*
X9808214Y-16458357D01*
X9822500Y-16429786D01*
X9836786Y-16415500D01*
X9865357Y-16401214D01*
X10093929Y-16701214D02*
X10093929Y-16501214D01*
X10093929Y-16529786D02*
X10108214Y-16515500D01*
X10136786Y-16501214D01*
X10179643Y-16501214D01*
X10208214Y-16515500D01*
X10222500Y-16544071D01*
X10222500Y-16701214D01*
X10222500Y-16544071D02*
X10236786Y-16515500D01*
X10265357Y-16501214D01*
X10308214Y-16501214D01*
X10336786Y-16515500D01*
X10351071Y-16544071D01*
X10351071Y-16701214D01*
X10493929Y-16701214D02*
X10493929Y-16501214D01*
X10493929Y-16529786D02*
X10508214Y-16515500D01*
X10536786Y-16501214D01*
X10579643Y-16501214D01*
X10608214Y-16515500D01*
X10622500Y-16544071D01*
X10622500Y-16701214D01*
X10622500Y-16544071D02*
X10636786Y-16515500D01*
X10665357Y-16501214D01*
X10708214Y-16501214D01*
X10736786Y-16515500D01*
X10751071Y-16544071D01*
X10751071Y-16701214D01*
X11336786Y-16386929D02*
X11079643Y-16772643D01*
X11722500Y-16401214D02*
X11751071Y-16401214D01*
X11779643Y-16415500D01*
X11793928Y-16429786D01*
X11808214Y-16458357D01*
X11822500Y-16515500D01*
X11822500Y-16586929D01*
X11808214Y-16644071D01*
X11793928Y-16672643D01*
X11779643Y-16686929D01*
X11751071Y-16701214D01*
X11722500Y-16701214D01*
X11693928Y-16686929D01*
X11679643Y-16672643D01*
X11665357Y-16644071D01*
X11651071Y-16586929D01*
X11651071Y-16515500D01*
X11665357Y-16458357D01*
X11679643Y-16429786D01*
X11693928Y-16415500D01*
X11722500Y-16401214D01*
X11951071Y-16672643D02*
X11965357Y-16686929D01*
X11951071Y-16701214D01*
X11936786Y-16686929D01*
X11951071Y-16672643D01*
X11951071Y-16701214D01*
X12151071Y-16401214D02*
X12179643Y-16401214D01*
X12208214Y-16415500D01*
X12222500Y-16429786D01*
X12236785Y-16458357D01*
X12251071Y-16515500D01*
X12251071Y-16586929D01*
X12236785Y-16644071D01*
X12222500Y-16672643D01*
X12208214Y-16686929D01*
X12179643Y-16701214D01*
X12151071Y-16701214D01*
X12122500Y-16686929D01*
X12108214Y-16672643D01*
X12093928Y-16644071D01*
X12079643Y-16586929D01*
X12079643Y-16515500D01*
X12093928Y-16458357D01*
X12108214Y-16429786D01*
X12122500Y-16415500D01*
X12151071Y-16401214D01*
X12351071Y-16401214D02*
X12536785Y-16401214D01*
X12436785Y-16515500D01*
X12479643Y-16515500D01*
X12508214Y-16529786D01*
X12522500Y-16544071D01*
X12536785Y-16572643D01*
X12536785Y-16644071D01*
X12522500Y-16672643D01*
X12508214Y-16686929D01*
X12479643Y-16701214D01*
X12393928Y-16701214D01*
X12365357Y-16686929D01*
X12351071Y-16672643D01*
X12679643Y-16701214D02*
X12736785Y-16701214D01*
X12765357Y-16686929D01*
X12779643Y-16672643D01*
X12808214Y-16629786D01*
X12822500Y-16572643D01*
X12822500Y-16458357D01*
X12808214Y-16429786D01*
X12793928Y-16415500D01*
X12765357Y-16401214D01*
X12708214Y-16401214D01*
X12679643Y-16415500D01*
X12665357Y-16429786D01*
X12651071Y-16458357D01*
X12651071Y-16529786D01*
X12665357Y-16558357D01*
X12679643Y-16572643D01*
X12708214Y-16586929D01*
X12765357Y-16586929D01*
X12793928Y-16572643D01*
X12808214Y-16558357D01*
X12822500Y-16529786D01*
X12936786Y-16401214D02*
X12936786Y-16458357D01*
X13051071Y-16401214D02*
X13051071Y-16458357D01*
X13493928Y-16815500D02*
X13479643Y-16801214D01*
X13451071Y-16758357D01*
X13436785Y-16729786D01*
X13422500Y-16686929D01*
X13408214Y-16615500D01*
X13408214Y-16558357D01*
X13422500Y-16486929D01*
X13436785Y-16444071D01*
X13451071Y-16415500D01*
X13479643Y-16372643D01*
X13493928Y-16358357D01*
X13765357Y-16701214D02*
X13593928Y-16701214D01*
X13679643Y-16701214D02*
X13679643Y-16401214D01*
X13651071Y-16444071D01*
X13622500Y-16472643D01*
X13593928Y-16486929D01*
X14051071Y-16701214D02*
X13879643Y-16701214D01*
X13965357Y-16701214D02*
X13965357Y-16401214D01*
X13936785Y-16444071D01*
X13908214Y-16472643D01*
X13879643Y-16486929D01*
X14222500Y-16529786D02*
X14193928Y-16515500D01*
X14179643Y-16501214D01*
X14165357Y-16472643D01*
X14165357Y-16458357D01*
X14179643Y-16429786D01*
X14193928Y-16415500D01*
X14222500Y-16401214D01*
X14279643Y-16401214D01*
X14308214Y-16415500D01*
X14322500Y-16429786D01*
X14336785Y-16458357D01*
X14336785Y-16472643D01*
X14322500Y-16501214D01*
X14308214Y-16515500D01*
X14279643Y-16529786D01*
X14222500Y-16529786D01*
X14193928Y-16544071D01*
X14179643Y-16558357D01*
X14165357Y-16586929D01*
X14165357Y-16644071D01*
X14179643Y-16672643D01*
X14193928Y-16686929D01*
X14222500Y-16701214D01*
X14279643Y-16701214D01*
X14308214Y-16686929D01*
X14322500Y-16672643D01*
X14336785Y-16644071D01*
X14336785Y-16586929D01*
X14322500Y-16558357D01*
X14308214Y-16544071D01*
X14279643Y-16529786D01*
X14693928Y-16701214D02*
X14693928Y-16401214D01*
X14822500Y-16701214D02*
X14822500Y-16544071D01*
X14808214Y-16515500D01*
X14779643Y-16501214D01*
X14736785Y-16501214D01*
X14708214Y-16515500D01*
X14693928Y-16529786D01*
X15008214Y-16701214D02*
X14979643Y-16686929D01*
X14965357Y-16672643D01*
X14951071Y-16644071D01*
X14951071Y-16558357D01*
X14965357Y-16529786D01*
X14979643Y-16515500D01*
X15008214Y-16501214D01*
X15051071Y-16501214D01*
X15079643Y-16515500D01*
X15093928Y-16529786D01*
X15108214Y-16558357D01*
X15108214Y-16644071D01*
X15093928Y-16672643D01*
X15079643Y-16686929D01*
X15051071Y-16701214D01*
X15008214Y-16701214D01*
X15279643Y-16701214D02*
X15251071Y-16686929D01*
X15236786Y-16658357D01*
X15236786Y-16401214D01*
X15508214Y-16686929D02*
X15479643Y-16701214D01*
X15422500Y-16701214D01*
X15393928Y-16686929D01*
X15379643Y-16658357D01*
X15379643Y-16544071D01*
X15393928Y-16515500D01*
X15422500Y-16501214D01*
X15479643Y-16501214D01*
X15508214Y-16515500D01*
X15522500Y-16544071D01*
X15522500Y-16572643D01*
X15379643Y-16601214D01*
X15636786Y-16686929D02*
X15665357Y-16701214D01*
X15722500Y-16701214D01*
X15751071Y-16686929D01*
X15765357Y-16658357D01*
X15765357Y-16644071D01*
X15751071Y-16615500D01*
X15722500Y-16601214D01*
X15679643Y-16601214D01*
X15651071Y-16586929D01*
X15636786Y-16558357D01*
X15636786Y-16544071D01*
X15651071Y-16515500D01*
X15679643Y-16501214D01*
X15722500Y-16501214D01*
X15751071Y-16515500D01*
X15865357Y-16815500D02*
X15879643Y-16801214D01*
X15908214Y-16758357D01*
X15922500Y-16729786D01*
X15936786Y-16686929D01*
X15951071Y-16615500D01*
X15951071Y-16558357D01*
X15936786Y-16486929D01*
X15922500Y-16444071D01*
X15908214Y-16415500D01*
X15879643Y-16372643D01*
X15865357Y-16358357D01*
X8767500Y-17016500D02*
X8822500Y-16961500D01*
X8767500Y-16906500D01*
X8712500Y-16961500D01*
X8767500Y-17016500D01*
X9251071Y-17097214D02*
X9079643Y-17097214D01*
X9165357Y-17097214D02*
X9165357Y-16797214D01*
X9136786Y-16840072D01*
X9108214Y-16868643D01*
X9079643Y-16882929D01*
X9379643Y-17068643D02*
X9393929Y-17082929D01*
X9379643Y-17097214D01*
X9365357Y-17082929D01*
X9379643Y-17068643D01*
X9379643Y-17097214D01*
X9679643Y-17097214D02*
X9508214Y-17097214D01*
X9593928Y-17097214D02*
X9593928Y-16797214D01*
X9565357Y-16840072D01*
X9536786Y-16868643D01*
X9508214Y-16882929D01*
X9865357Y-16797214D02*
X9893929Y-16797214D01*
X9922500Y-16811500D01*
X9936786Y-16825786D01*
X9951071Y-16854357D01*
X9965357Y-16911500D01*
X9965357Y-16982929D01*
X9951071Y-17040072D01*
X9936786Y-17068643D01*
X9922500Y-17082929D01*
X9893929Y-17097214D01*
X9865357Y-17097214D01*
X9836786Y-17082929D01*
X9822500Y-17068643D01*
X9808214Y-17040072D01*
X9793929Y-16982929D01*
X9793929Y-16911500D01*
X9808214Y-16854357D01*
X9822500Y-16825786D01*
X9836786Y-16811500D01*
X9865357Y-16797214D01*
X10093929Y-17097214D02*
X10093929Y-16897214D01*
X10093929Y-16925786D02*
X10108214Y-16911500D01*
X10136786Y-16897214D01*
X10179643Y-16897214D01*
X10208214Y-16911500D01*
X10222500Y-16940072D01*
X10222500Y-17097214D01*
X10222500Y-16940072D02*
X10236786Y-16911500D01*
X10265357Y-16897214D01*
X10308214Y-16897214D01*
X10336786Y-16911500D01*
X10351071Y-16940072D01*
X10351071Y-17097214D01*
X10493929Y-17097214D02*
X10493929Y-16897214D01*
X10493929Y-16925786D02*
X10508214Y-16911500D01*
X10536786Y-16897214D01*
X10579643Y-16897214D01*
X10608214Y-16911500D01*
X10622500Y-16940072D01*
X10622500Y-17097214D01*
X10622500Y-16940072D02*
X10636786Y-16911500D01*
X10665357Y-16897214D01*
X10708214Y-16897214D01*
X10736786Y-16911500D01*
X10751071Y-16940072D01*
X10751071Y-17097214D01*
X11336786Y-16782929D02*
X11079643Y-17168643D01*
X11722500Y-16797214D02*
X11751071Y-16797214D01*
X11779643Y-16811500D01*
X11793928Y-16825786D01*
X11808214Y-16854357D01*
X11822500Y-16911500D01*
X11822500Y-16982929D01*
X11808214Y-17040072D01*
X11793928Y-17068643D01*
X11779643Y-17082929D01*
X11751071Y-17097214D01*
X11722500Y-17097214D01*
X11693928Y-17082929D01*
X11679643Y-17068643D01*
X11665357Y-17040072D01*
X11651071Y-16982929D01*
X11651071Y-16911500D01*
X11665357Y-16854357D01*
X11679643Y-16825786D01*
X11693928Y-16811500D01*
X11722500Y-16797214D01*
X11951071Y-17068643D02*
X11965357Y-17082929D01*
X11951071Y-17097214D01*
X11936786Y-17082929D01*
X11951071Y-17068643D01*
X11951071Y-17097214D01*
X12151071Y-16797214D02*
X12179643Y-16797214D01*
X12208214Y-16811500D01*
X12222500Y-16825786D01*
X12236785Y-16854357D01*
X12251071Y-16911500D01*
X12251071Y-16982929D01*
X12236785Y-17040072D01*
X12222500Y-17068643D01*
X12208214Y-17082929D01*
X12179643Y-17097214D01*
X12151071Y-17097214D01*
X12122500Y-17082929D01*
X12108214Y-17068643D01*
X12093928Y-17040072D01*
X12079643Y-16982929D01*
X12079643Y-16911500D01*
X12093928Y-16854357D01*
X12108214Y-16825786D01*
X12122500Y-16811500D01*
X12151071Y-16797214D01*
X12508214Y-16897214D02*
X12508214Y-17097214D01*
X12436785Y-16782929D02*
X12365357Y-16997214D01*
X12551071Y-16997214D01*
X12636785Y-16797214D02*
X12822500Y-16797214D01*
X12722500Y-16911500D01*
X12765357Y-16911500D01*
X12793928Y-16925786D01*
X12808214Y-16940072D01*
X12822500Y-16968643D01*
X12822500Y-17040072D01*
X12808214Y-17068643D01*
X12793928Y-17082929D01*
X12765357Y-17097214D01*
X12679643Y-17097214D01*
X12651071Y-17082929D01*
X12636785Y-17068643D01*
X12936786Y-16797214D02*
X12936786Y-16854357D01*
X13051071Y-16797214D02*
X13051071Y-16854357D01*
X13493928Y-17211500D02*
X13479643Y-17197214D01*
X13451071Y-17154357D01*
X13436785Y-17125786D01*
X13422500Y-17082929D01*
X13408214Y-17011500D01*
X13408214Y-16954357D01*
X13422500Y-16882929D01*
X13436785Y-16840072D01*
X13451071Y-16811500D01*
X13479643Y-16768643D01*
X13493928Y-16754357D01*
X13593928Y-16825786D02*
X13608214Y-16811500D01*
X13636785Y-16797214D01*
X13708214Y-16797214D01*
X13736785Y-16811500D01*
X13751071Y-16825786D01*
X13765357Y-16854357D01*
X13765357Y-16882929D01*
X13751071Y-16925786D01*
X13579643Y-17097214D01*
X13765357Y-17097214D01*
X14122500Y-17097214D02*
X14122500Y-16797214D01*
X14251071Y-17097214D02*
X14251071Y-16940072D01*
X14236785Y-16911500D01*
X14208214Y-16897214D01*
X14165357Y-16897214D01*
X14136785Y-16911500D01*
X14122500Y-16925786D01*
X14436785Y-17097214D02*
X14408214Y-17082929D01*
X14393928Y-17068643D01*
X14379643Y-17040072D01*
X14379643Y-16954357D01*
X14393928Y-16925786D01*
X14408214Y-16911500D01*
X14436785Y-16897214D01*
X14479643Y-16897214D01*
X14508214Y-16911500D01*
X14522500Y-16925786D01*
X14536785Y-16954357D01*
X14536785Y-17040072D01*
X14522500Y-17068643D01*
X14508214Y-17082929D01*
X14479643Y-17097214D01*
X14436785Y-17097214D01*
X14708214Y-17097214D02*
X14679643Y-17082929D01*
X14665357Y-17054357D01*
X14665357Y-16797214D01*
X14936786Y-17082929D02*
X14908214Y-17097214D01*
X14851071Y-17097214D01*
X14822500Y-17082929D01*
X14808214Y-17054357D01*
X14808214Y-16940072D01*
X14822500Y-16911500D01*
X14851071Y-16897214D01*
X14908214Y-16897214D01*
X14936786Y-16911500D01*
X14951071Y-16940072D01*
X14951071Y-16968643D01*
X14808214Y-16997214D01*
X15065357Y-17082929D02*
X15093928Y-17097214D01*
X15151071Y-17097214D01*
X15179643Y-17082929D01*
X15193928Y-17054357D01*
X15193928Y-17040072D01*
X15179643Y-17011500D01*
X15151071Y-16997214D01*
X15108214Y-16997214D01*
X15079643Y-16982929D01*
X15065357Y-16954357D01*
X15065357Y-16940072D01*
X15079643Y-16911500D01*
X15108214Y-16897214D01*
X15151071Y-16897214D01*
X15179643Y-16911500D01*
X15293928Y-17211500D02*
X15308214Y-17197214D01*
X15336786Y-17154357D01*
X15351071Y-17125786D01*
X15365357Y-17082929D01*
X15379643Y-17011500D01*
X15379643Y-16954357D01*
X15365357Y-16882929D01*
X15351071Y-16840072D01*
X15336786Y-16811500D01*
X15308214Y-16768643D01*
X15293928Y-16754357D01*
X8708200Y-17300350D02*
X8822500Y-17414650D01*
X8822500Y-17300350D02*
X8708200Y-17414650D01*
X8822500Y-17357500D02*
G75*
G03X8822500Y-17357500I-57150J0D01*
G01*
X9251071Y-17493214D02*
X9079643Y-17493214D01*
X9165357Y-17493214D02*
X9165357Y-17193214D01*
X9136786Y-17236072D01*
X9108214Y-17264643D01*
X9079643Y-17278929D01*
X9379643Y-17464643D02*
X9393929Y-17478929D01*
X9379643Y-17493214D01*
X9365357Y-17478929D01*
X9379643Y-17464643D01*
X9379643Y-17493214D01*
X9679643Y-17493214D02*
X9508214Y-17493214D01*
X9593928Y-17493214D02*
X9593928Y-17193214D01*
X9565357Y-17236072D01*
X9536786Y-17264643D01*
X9508214Y-17278929D01*
X9936786Y-17293214D02*
X9936786Y-17493214D01*
X9865357Y-17178929D02*
X9793929Y-17393214D01*
X9979643Y-17393214D01*
X10093929Y-17493214D02*
X10093929Y-17293214D01*
X10093929Y-17321786D02*
X10108214Y-17307500D01*
X10136786Y-17293214D01*
X10179643Y-17293214D01*
X10208214Y-17307500D01*
X10222500Y-17336072D01*
X10222500Y-17493214D01*
X10222500Y-17336072D02*
X10236786Y-17307500D01*
X10265357Y-17293214D01*
X10308214Y-17293214D01*
X10336786Y-17307500D01*
X10351071Y-17336072D01*
X10351071Y-17493214D01*
X10493929Y-17493214D02*
X10493929Y-17293214D01*
X10493929Y-17321786D02*
X10508214Y-17307500D01*
X10536786Y-17293214D01*
X10579643Y-17293214D01*
X10608214Y-17307500D01*
X10622500Y-17336072D01*
X10622500Y-17493214D01*
X10622500Y-17336072D02*
X10636786Y-17307500D01*
X10665357Y-17293214D01*
X10708214Y-17293214D01*
X10736786Y-17307500D01*
X10751071Y-17336072D01*
X10751071Y-17493214D01*
X11336786Y-17178929D02*
X11079643Y-17564643D01*
X11722500Y-17193214D02*
X11751071Y-17193214D01*
X11779643Y-17207500D01*
X11793928Y-17221786D01*
X11808214Y-17250357D01*
X11822500Y-17307500D01*
X11822500Y-17378929D01*
X11808214Y-17436072D01*
X11793928Y-17464643D01*
X11779643Y-17478929D01*
X11751071Y-17493214D01*
X11722500Y-17493214D01*
X11693928Y-17478929D01*
X11679643Y-17464643D01*
X11665357Y-17436072D01*
X11651071Y-17378929D01*
X11651071Y-17307500D01*
X11665357Y-17250357D01*
X11679643Y-17221786D01*
X11693928Y-17207500D01*
X11722500Y-17193214D01*
X11951071Y-17464643D02*
X11965357Y-17478929D01*
X11951071Y-17493214D01*
X11936786Y-17478929D01*
X11951071Y-17464643D01*
X11951071Y-17493214D01*
X12151071Y-17193214D02*
X12179643Y-17193214D01*
X12208214Y-17207500D01*
X12222500Y-17221786D01*
X12236785Y-17250357D01*
X12251071Y-17307500D01*
X12251071Y-17378929D01*
X12236785Y-17436072D01*
X12222500Y-17464643D01*
X12208214Y-17478929D01*
X12179643Y-17493214D01*
X12151071Y-17493214D01*
X12122500Y-17478929D01*
X12108214Y-17464643D01*
X12093928Y-17436072D01*
X12079643Y-17378929D01*
X12079643Y-17307500D01*
X12093928Y-17250357D01*
X12108214Y-17221786D01*
X12122500Y-17207500D01*
X12151071Y-17193214D01*
X12508214Y-17293214D02*
X12508214Y-17493214D01*
X12436785Y-17178929D02*
X12365357Y-17393214D01*
X12551071Y-17393214D01*
X12808214Y-17193214D02*
X12665357Y-17193214D01*
X12651071Y-17336072D01*
X12665357Y-17321786D01*
X12693928Y-17307500D01*
X12765357Y-17307500D01*
X12793928Y-17321786D01*
X12808214Y-17336072D01*
X12822500Y-17364643D01*
X12822500Y-17436072D01*
X12808214Y-17464643D01*
X12793928Y-17478929D01*
X12765357Y-17493214D01*
X12693928Y-17493214D01*
X12665357Y-17478929D01*
X12651071Y-17464643D01*
X12936786Y-17193214D02*
X12936786Y-17250357D01*
X13051071Y-17193214D02*
X13051071Y-17250357D01*
X13493928Y-17607500D02*
X13479643Y-17593214D01*
X13451071Y-17550357D01*
X13436785Y-17521786D01*
X13422500Y-17478929D01*
X13408214Y-17407500D01*
X13408214Y-17350357D01*
X13422500Y-17278929D01*
X13436785Y-17236072D01*
X13451071Y-17207500D01*
X13479643Y-17164643D01*
X13493928Y-17150357D01*
X13579643Y-17193214D02*
X13765357Y-17193214D01*
X13665357Y-17307500D01*
X13708214Y-17307500D01*
X13736785Y-17321786D01*
X13751071Y-17336072D01*
X13765357Y-17364643D01*
X13765357Y-17436072D01*
X13751071Y-17464643D01*
X13736785Y-17478929D01*
X13708214Y-17493214D01*
X13622500Y-17493214D01*
X13593928Y-17478929D01*
X13579643Y-17464643D01*
X14122500Y-17493214D02*
X14122500Y-17193214D01*
X14251071Y-17493214D02*
X14251071Y-17336072D01*
X14236785Y-17307500D01*
X14208214Y-17293214D01*
X14165357Y-17293214D01*
X14136785Y-17307500D01*
X14122500Y-17321786D01*
X14436785Y-17493214D02*
X14408214Y-17478929D01*
X14393928Y-17464643D01*
X14379643Y-17436072D01*
X14379643Y-17350357D01*
X14393928Y-17321786D01*
X14408214Y-17307500D01*
X14436785Y-17293214D01*
X14479643Y-17293214D01*
X14508214Y-17307500D01*
X14522500Y-17321786D01*
X14536785Y-17350357D01*
X14536785Y-17436072D01*
X14522500Y-17464643D01*
X14508214Y-17478929D01*
X14479643Y-17493214D01*
X14436785Y-17493214D01*
X14708214Y-17493214D02*
X14679643Y-17478929D01*
X14665357Y-17450357D01*
X14665357Y-17193214D01*
X14936786Y-17478929D02*
X14908214Y-17493214D01*
X14851071Y-17493214D01*
X14822500Y-17478929D01*
X14808214Y-17450357D01*
X14808214Y-17336072D01*
X14822500Y-17307500D01*
X14851071Y-17293214D01*
X14908214Y-17293214D01*
X14936786Y-17307500D01*
X14951071Y-17336072D01*
X14951071Y-17364643D01*
X14808214Y-17393214D01*
X15065357Y-17478929D02*
X15093928Y-17493214D01*
X15151071Y-17493214D01*
X15179643Y-17478929D01*
X15193928Y-17450357D01*
X15193928Y-17436072D01*
X15179643Y-17407500D01*
X15151071Y-17393214D01*
X15108214Y-17393214D01*
X15079643Y-17378929D01*
X15065357Y-17350357D01*
X15065357Y-17336072D01*
X15079643Y-17307500D01*
X15108214Y-17293214D01*
X15151071Y-17293214D01*
X15179643Y-17307500D01*
X15293928Y-17607500D02*
X15308214Y-17593214D01*
X15336786Y-17550357D01*
X15351071Y-17521786D01*
X15365357Y-17478929D01*
X15379643Y-17407500D01*
X15379643Y-17350357D01*
X15365357Y-17278929D01*
X15351071Y-17236072D01*
X15336786Y-17207500D01*
X15308214Y-17164643D01*
X15293928Y-17150357D01*
M02*
