G04 #@! TF.FileFunction,Copper,L1,Top,Signal*
%FSLAX46Y46*%
G04 Gerber Fmt 4.6, Leading zero omitted, Abs format (unit mm)*
G04 Created by KiCad (PCBNEW 4.0.6+dfsg1-1) date Mon Jan 15 11:50:26 2018*
%MOMM*%
%LPD*%
G01*
G04 APERTURE LIST*
%ADD10C,0.100000*%
%ADD11R,2.200000X2.200000*%
%ADD12O,2.200000X2.200000*%
%ADD13R,1.600000X1.600000*%
%ADD14C,1.600000*%
%ADD15O,2.540000X2.032000*%
%ADD16O,1.600000X1.600000*%
%ADD17R,1.750000X1.750000*%
%ADD18C,1.750000*%
%ADD19C,1.524000*%
%ADD20C,0.250000*%
%ADD21C,0.254000*%
G04 APERTURE END LIST*
D10*
D11*
X156200000Y-118700000D03*
D12*
X156200000Y-111080000D03*
D13*
X101500000Y-134100000D03*
D14*
X99000000Y-134100000D03*
D13*
X186200000Y-123300000D03*
D14*
X186200000Y-125800000D03*
D15*
X186200000Y-114900000D03*
X186200000Y-117440000D03*
X186200000Y-112360000D03*
D14*
X184400000Y-80000000D03*
D16*
X184400000Y-72380000D03*
D14*
X181000000Y-65400000D03*
D16*
X181000000Y-73020000D03*
D14*
X104400000Y-75400000D03*
D16*
X104400000Y-83020000D03*
D14*
X104000000Y-129500000D03*
D16*
X96380000Y-129500000D03*
D14*
X104000000Y-126100000D03*
D16*
X96380000Y-126100000D03*
D14*
X104000000Y-122700000D03*
D16*
X96380000Y-122700000D03*
D14*
X108100000Y-75400000D03*
D16*
X108100000Y-83020000D03*
D14*
X181000000Y-75300000D03*
D16*
X181000000Y-82920000D03*
D14*
X177700000Y-65400000D03*
D16*
X177700000Y-73020000D03*
D17*
X92200000Y-125300000D03*
D18*
X92200000Y-127800000D03*
X92200000Y-130300000D03*
X92200000Y-132800000D03*
D17*
X185900000Y-139600000D03*
D18*
X188400000Y-139600000D03*
D17*
X109800000Y-68300000D03*
D18*
X107300000Y-68300000D03*
D17*
X194100000Y-110000000D03*
D18*
X194100000Y-107500000D03*
D19*
X173670000Y-111190000D03*
X176210000Y-111190000D03*
X178750000Y-111190000D03*
X181290000Y-111190000D03*
X171130000Y-111190000D03*
X168590000Y-111190000D03*
X166050000Y-111190000D03*
X163510000Y-111190000D03*
X181290000Y-118810000D03*
X178750000Y-118810000D03*
X176210000Y-118810000D03*
X173670000Y-118810000D03*
X171130000Y-118810000D03*
X168590000Y-118810000D03*
X166050000Y-118810000D03*
X163510000Y-118810000D03*
D17*
X194100000Y-100800000D03*
D18*
X194100000Y-98300000D03*
D14*
X126400000Y-107000000D03*
D16*
X134020000Y-107000000D03*
D13*
X136000000Y-127800000D03*
D16*
X143620000Y-135420000D03*
X136000000Y-130340000D03*
X143620000Y-132880000D03*
X136000000Y-132880000D03*
X143620000Y-130340000D03*
X136000000Y-135420000D03*
X143620000Y-127800000D03*
D19*
X146700000Y-111090000D03*
X149240000Y-111090000D03*
X151780000Y-111090000D03*
X144160000Y-111090000D03*
X141620000Y-111090000D03*
X146700000Y-118710000D03*
X149240000Y-118710000D03*
X151780000Y-118710000D03*
X144160000Y-118710000D03*
X141620000Y-118710000D03*
D17*
X188200000Y-68100000D03*
D18*
X185700000Y-68100000D03*
D17*
X99700000Y-139900000D03*
D18*
X102200000Y-139900000D03*
D17*
X101100000Y-68300000D03*
D18*
X98600000Y-68300000D03*
D17*
X194100000Y-77400000D03*
D18*
X194100000Y-74900000D03*
D17*
X194100000Y-91600000D03*
D18*
X194100000Y-89100000D03*
X194100000Y-86600000D03*
X194100000Y-84100000D03*
D13*
X123400000Y-111600000D03*
D14*
X125400000Y-111600000D03*
X159400000Y-111800000D03*
X159400000Y-109300000D03*
X124100000Y-107000000D03*
X121600000Y-107000000D03*
X159400000Y-118000000D03*
X159400000Y-120500000D03*
D17*
X92500000Y-74200000D03*
D18*
X92500000Y-76700000D03*
X92500000Y-79200000D03*
X92500000Y-81700000D03*
D17*
X194100000Y-124100000D03*
D18*
X194100000Y-121600000D03*
X194100000Y-119100000D03*
X194100000Y-116600000D03*
D13*
X178800000Y-103700000D03*
D14*
X182600000Y-103700000D03*
D13*
X178400000Y-88400000D03*
D14*
X182200000Y-88400000D03*
D13*
X137800000Y-139600000D03*
D14*
X137800000Y-142100000D03*
D13*
X123400000Y-117500000D03*
D14*
X125400000Y-117500000D03*
D13*
X186400000Y-87900000D03*
D14*
X188900000Y-87900000D03*
D13*
X129000000Y-111600000D03*
D14*
X131500000Y-111600000D03*
D13*
X135100000Y-117500000D03*
D14*
X137100000Y-117500000D03*
D13*
X135100000Y-111600000D03*
D14*
X137100000Y-111600000D03*
D13*
X129300000Y-117500000D03*
D14*
X131300000Y-117500000D03*
D17*
X194100000Y-133300000D03*
D18*
X194100000Y-130800000D03*
D19*
X113800000Y-78300000D03*
X113800000Y-75300000D03*
X113800000Y-72300000D03*
X113800000Y-69300000D03*
X137600000Y-67600000D03*
X137600000Y-70600000D03*
X137600000Y-77000000D03*
X137600000Y-80000000D03*
X122940000Y-97510000D03*
X122940000Y-89890000D03*
X92460000Y-97510000D03*
X92460000Y-89890000D03*
X91170000Y-115610000D03*
X91170000Y-107990000D03*
X91170000Y-105450000D03*
X91170000Y-118150000D03*
X114030000Y-105450000D03*
X114030000Y-118150000D03*
X96504000Y-118150000D03*
X96504000Y-105450000D03*
X140990000Y-66298500D03*
X143530000Y-66298500D03*
X146070000Y-66298500D03*
X148610000Y-66298500D03*
X151150000Y-66298500D03*
X153690000Y-66298500D03*
X156230000Y-66298500D03*
X158770000Y-66298500D03*
X174010000Y-66298500D03*
X171470000Y-66298500D03*
X168930000Y-66298500D03*
X166390000Y-66298500D03*
X163850000Y-66298500D03*
X161310000Y-66298500D03*
X161310000Y-85501500D03*
X163850000Y-85501500D03*
X166390000Y-85501500D03*
X168930000Y-85501500D03*
X171470000Y-85501500D03*
X174010000Y-85501500D03*
X158770000Y-85501500D03*
X156230000Y-85501500D03*
X153690000Y-85501500D03*
X151150000Y-85501500D03*
X148610000Y-85501500D03*
X146070000Y-85501500D03*
X143530000Y-85501500D03*
X140990000Y-85501500D03*
X153060000Y-105520000D03*
X150520000Y-105520000D03*
X147980000Y-105520000D03*
X145440000Y-105520000D03*
X142900000Y-105520000D03*
X140360000Y-105520000D03*
X137820000Y-105520000D03*
X155600000Y-105520000D03*
X158140000Y-105520000D03*
X160680000Y-105520000D03*
X163220000Y-105520000D03*
X165760000Y-105520000D03*
X168300000Y-105520000D03*
X170840000Y-105520000D03*
X173380000Y-105520000D03*
X173380000Y-90280000D03*
X170840000Y-90280000D03*
X168300000Y-90280000D03*
X165760000Y-90280000D03*
X163220000Y-90280000D03*
X160680000Y-90280000D03*
X158140000Y-90280000D03*
X155600000Y-90280000D03*
X153060000Y-90280000D03*
X150520000Y-90280000D03*
X147980000Y-90280000D03*
X145440000Y-90280000D03*
X142900000Y-90280000D03*
X140360000Y-90280000D03*
X137820000Y-90280000D03*
X132740000Y-94090000D03*
X132740000Y-101710000D03*
X180734000Y-134070000D03*
X180734000Y-136610000D03*
X180734000Y-139150000D03*
X180734000Y-131530000D03*
X180734000Y-128990000D03*
X180734000Y-126450000D03*
X106830000Y-121270000D03*
X119530000Y-121270000D03*
X133500000Y-141590000D03*
X133500000Y-139050000D03*
X133500000Y-136510000D03*
X133500000Y-133970000D03*
X133500000Y-131430000D03*
X133500000Y-128890000D03*
X133500000Y-126350000D03*
X133500000Y-123810000D03*
D20*
X154764700Y-111090000D02*
X154774700Y-111080000D01*
X151780000Y-111090000D02*
X154764700Y-111090000D01*
X156200000Y-111080000D02*
X154774700Y-111080000D01*
X187774600Y-89025400D02*
X188900000Y-87900000D01*
X182825400Y-89025400D02*
X187774600Y-89025400D01*
X182200000Y-88400000D02*
X182825400Y-89025400D01*
X154764700Y-118710000D02*
X154774700Y-118700000D01*
X151780000Y-118710000D02*
X154764700Y-118710000D01*
X156200000Y-118700000D02*
X154774700Y-118700000D01*
X143620000Y-130340000D02*
X136000000Y-130340000D01*
X192900000Y-87900000D02*
X188900000Y-87900000D01*
X194100000Y-89100000D02*
X192900000Y-87900000D01*
X167842600Y-86588900D02*
X168930000Y-85501500D01*
X144051100Y-86588900D02*
X167842600Y-86588900D01*
X140360000Y-90280000D02*
X144051100Y-86588900D01*
X194100000Y-110000000D02*
X194100000Y-111200300D01*
X156200000Y-113327600D02*
X156200000Y-118700000D01*
X158977600Y-110550000D02*
X156200000Y-113327600D01*
X162298000Y-110550000D02*
X158977600Y-110550000D01*
X162783200Y-110064800D02*
X162298000Y-110550000D01*
X167464800Y-110064800D02*
X162783200Y-110064800D01*
X168590000Y-111190000D02*
X167464800Y-110064800D01*
X169721100Y-112321100D02*
X168590000Y-111190000D01*
X178750000Y-112321100D02*
X169721100Y-112321100D01*
X178750000Y-118810000D02*
X178750000Y-112321100D01*
X178750000Y-112321100D02*
X178750000Y-111190000D01*
X186200000Y-133684000D02*
X186200000Y-125800000D01*
X180734000Y-139150000D02*
X186200000Y-133684000D01*
X91170000Y-98800000D02*
X92460000Y-97510000D01*
X91170000Y-105450000D02*
X91170000Y-98800000D01*
X104400000Y-85570000D02*
X104400000Y-83020000D01*
X92460000Y-97510000D02*
X104400000Y-85570000D01*
X170200000Y-85501500D02*
X170200000Y-66298500D01*
X171470000Y-85501500D02*
X170200000Y-85501500D01*
X170200000Y-85501500D02*
X168930000Y-85501500D01*
X168930000Y-66298500D02*
X170200000Y-66298500D01*
X170200000Y-66298500D02*
X171470000Y-66298500D01*
X139982500Y-100062500D02*
X124076700Y-100062500D01*
X145440000Y-105520000D02*
X139982500Y-100062500D01*
X124076700Y-98646700D02*
X124076700Y-100062500D01*
X122940000Y-97510000D02*
X124076700Y-98646700D01*
X104000000Y-120139200D02*
X104000000Y-122700000D01*
X124076700Y-100062500D02*
X104000000Y-120139200D01*
X192899700Y-117899700D02*
X194100000Y-119100000D01*
X192899700Y-116102800D02*
X192899700Y-117899700D01*
X194099900Y-114902600D02*
X192899700Y-116102800D01*
X194100000Y-114902600D02*
X194099900Y-114902600D01*
X194100000Y-111200300D02*
X194100000Y-114902600D01*
X94874700Y-132974700D02*
X92200000Y-130300000D01*
X99530800Y-132974700D02*
X94874700Y-132974700D01*
X100374700Y-133818600D02*
X99530800Y-132974700D01*
X100374700Y-134100000D02*
X100374700Y-133818600D01*
X101500000Y-134100000D02*
X100374700Y-134100000D01*
X180198500Y-119901500D02*
X181290000Y-118810000D01*
X167141500Y-119901500D02*
X180198500Y-119901500D01*
X166050000Y-118810000D02*
X167141500Y-119901500D01*
X108420000Y-125080000D02*
X104000000Y-129500000D01*
X159780000Y-125080000D02*
X108420000Y-125080000D01*
X166050000Y-118810000D02*
X159780000Y-125080000D01*
X187525300Y-87618700D02*
X187525300Y-87900000D01*
X188544000Y-86600000D02*
X187525300Y-87618700D01*
X194100000Y-86600000D02*
X188544000Y-86600000D01*
X186400000Y-87900000D02*
X187525300Y-87900000D01*
X184628200Y-87253500D02*
X185274700Y-87900000D01*
X180671800Y-87253500D02*
X184628200Y-87253500D01*
X179525300Y-88400000D02*
X180671800Y-87253500D01*
X178400000Y-88400000D02*
X179525300Y-88400000D01*
X186400000Y-87900000D02*
X185274700Y-87900000D01*
X174010000Y-85501500D02*
X174010000Y-66298500D01*
X146575000Y-89145000D02*
X145440000Y-90280000D01*
X149094700Y-89145000D02*
X146575000Y-89145000D01*
X149871300Y-88368400D02*
X149094700Y-89145000D01*
X171143100Y-88368400D02*
X149871300Y-88368400D01*
X174010000Y-85501500D02*
X171143100Y-88368400D01*
X100468000Y-81882000D02*
X92460000Y-89890000D01*
X105024200Y-81882000D02*
X100468000Y-81882000D01*
X111801800Y-88659600D02*
X105024200Y-81882000D01*
X134475400Y-88659600D02*
X111801800Y-88659600D01*
X137665800Y-91850000D02*
X134475400Y-88659600D01*
X147949900Y-91850000D02*
X137665800Y-91850000D01*
X149094700Y-90705200D02*
X147949900Y-91850000D01*
X149094700Y-89145000D02*
X149094700Y-90705200D01*
X186200000Y-123300000D02*
X186200000Y-124425300D01*
X143620000Y-127800000D02*
X144745300Y-127800000D01*
X181887000Y-127800000D02*
X144745300Y-127800000D01*
X181887000Y-135457000D02*
X181887000Y-127800000D01*
X180734000Y-136610000D02*
X181887000Y-135457000D01*
X185261700Y-124425300D02*
X186200000Y-124425300D01*
X181887000Y-127800000D02*
X185261700Y-124425300D01*
X159677700Y-117722300D02*
X159400000Y-118000000D01*
X170042300Y-117722300D02*
X159677700Y-117722300D01*
X171130000Y-118810000D02*
X170042300Y-117722300D01*
X122274700Y-118525300D02*
X119530000Y-121270000D01*
X122274700Y-117500000D02*
X122274700Y-118525300D01*
X123400000Y-117500000D02*
X122274700Y-117500000D01*
X148490000Y-109300000D02*
X146700000Y-111090000D01*
X159400000Y-109300000D02*
X148490000Y-109300000D01*
X112604700Y-121270000D02*
X106830000Y-121270000D01*
X122274700Y-111600000D02*
X112604700Y-121270000D01*
X123400000Y-111600000D02*
X122274700Y-111600000D01*
X148490000Y-120500000D02*
X146700000Y-118710000D01*
X159400000Y-120500000D02*
X148490000Y-120500000D01*
X146882600Y-113447400D02*
X149240000Y-111090000D01*
X135352600Y-113447400D02*
X146882600Y-113447400D01*
X131300000Y-117500000D02*
X135352600Y-113447400D01*
X130374600Y-110474600D02*
X131500000Y-111600000D01*
X126525400Y-110474600D02*
X130374600Y-110474600D01*
X125400000Y-111600000D02*
X126525400Y-110474600D01*
X142950000Y-117500000D02*
X144160000Y-118710000D01*
X137100000Y-117500000D02*
X142950000Y-117500000D01*
X182163900Y-82881400D02*
X182125300Y-82920000D01*
X194604200Y-82881400D02*
X182163900Y-82881400D01*
X195768600Y-84045800D02*
X194604200Y-82881400D01*
X195768600Y-105831400D02*
X195768600Y-84045800D01*
X194100000Y-107500000D02*
X195768600Y-105831400D01*
X181000000Y-82920000D02*
X182125300Y-82920000D01*
X133573500Y-136583500D02*
X133500000Y-136510000D01*
X141331200Y-136583500D02*
X133573500Y-136583500D01*
X142494700Y-135420000D02*
X141331200Y-136583500D01*
X143620000Y-135420000D02*
X142494700Y-135420000D01*
X146095300Y-134070000D02*
X144745300Y-135420000D01*
X180734000Y-134070000D02*
X146095300Y-134070000D01*
X143620000Y-135420000D02*
X144745300Y-135420000D01*
X133590000Y-134060000D02*
X133500000Y-133970000D01*
X141314700Y-134060000D02*
X133590000Y-134060000D01*
X142494700Y-132880000D02*
X141314700Y-134060000D01*
X143620000Y-132880000D02*
X142494700Y-132880000D01*
X146095300Y-131530000D02*
X144745300Y-132880000D01*
X180734000Y-131530000D02*
X146095300Y-131530000D01*
X143620000Y-132880000D02*
X144745300Y-132880000D01*
X181000000Y-67854700D02*
X181000000Y-65400000D01*
X184400000Y-71254700D02*
X181000000Y-67854700D01*
X184400000Y-72380000D02*
X184400000Y-71254700D01*
X186999700Y-68655000D02*
X184400000Y-71254700D01*
X186999700Y-68100000D02*
X186999700Y-68655000D01*
X188200000Y-68100000D02*
X186999700Y-68100000D01*
X173780000Y-98300000D02*
X194100000Y-98300000D01*
X165760000Y-90280000D02*
X173780000Y-98300000D01*
X102620000Y-140320000D02*
X102200000Y-139900000D01*
X135224500Y-140320000D02*
X102620000Y-140320000D01*
X135754500Y-140850000D02*
X135224500Y-140320000D01*
X187150000Y-140850000D02*
X135754500Y-140850000D01*
X188400000Y-139600000D02*
X187150000Y-140850000D01*
X183250600Y-74145300D02*
X182125300Y-73020000D01*
X186508800Y-74145300D02*
X183250600Y-74145300D01*
X196220500Y-83857000D02*
X186508800Y-74145300D01*
X196220500Y-133438800D02*
X196220500Y-83857000D01*
X191259600Y-138399700D02*
X196220500Y-133438800D01*
X187850400Y-138399700D02*
X191259600Y-138399700D01*
X187100300Y-139149800D02*
X187850400Y-138399700D01*
X187100300Y-139600000D02*
X187100300Y-139149800D01*
X185900000Y-139600000D02*
X187100300Y-139600000D01*
X181000000Y-73020000D02*
X182125300Y-73020000D01*
X181000000Y-71724700D02*
X181000000Y-73020000D01*
X174440300Y-65165000D02*
X181000000Y-71724700D01*
X138296500Y-65165000D02*
X174440300Y-65165000D01*
X129733000Y-73728500D02*
X138296500Y-65165000D01*
X109453200Y-73728500D02*
X129733000Y-73728500D01*
X108979800Y-74201900D02*
X109453200Y-73728500D01*
X105598100Y-74201900D02*
X108979800Y-74201900D01*
X104400000Y-75400000D02*
X105598100Y-74201900D01*
X195300300Y-94000600D02*
X194100000Y-92800300D01*
X195300300Y-98825600D02*
X195300300Y-94000600D01*
X194526300Y-99599600D02*
X195300300Y-98825600D01*
X179300400Y-99599600D02*
X194526300Y-99599600D01*
X173380000Y-105520000D02*
X179300400Y-99599600D01*
X194100000Y-91600000D02*
X194100000Y-92800300D01*
X179560000Y-84100000D02*
X194100000Y-84100000D01*
X173380000Y-90280000D02*
X179560000Y-84100000D01*
X182888300Y-107707000D02*
X186200000Y-111018700D01*
X174009900Y-107707000D02*
X182888300Y-107707000D01*
X172110000Y-105807100D02*
X174009900Y-107707000D01*
X172110000Y-105184800D02*
X172110000Y-105807100D01*
X171357400Y-104432200D02*
X172110000Y-105184800D01*
X159227800Y-104432200D02*
X171357400Y-104432200D01*
X158140000Y-105520000D02*
X159227800Y-104432200D01*
X186200000Y-112360000D02*
X186200000Y-111018700D01*
X146881900Y-91378100D02*
X147980000Y-90280000D01*
X139903100Y-91378100D02*
X146881900Y-91378100D01*
X139090000Y-90565000D02*
X139903100Y-91378100D01*
X139090000Y-89980300D02*
X139090000Y-90565000D01*
X123311600Y-74201900D02*
X139090000Y-89980300D01*
X109934900Y-74201900D02*
X123311600Y-74201900D01*
X108736800Y-75400000D02*
X109934900Y-74201900D01*
X108100000Y-75400000D02*
X108736800Y-75400000D01*
X177700000Y-83390500D02*
X177700000Y-73020000D01*
X171897900Y-89192600D02*
X177700000Y-83390500D01*
X165269600Y-89192600D02*
X171897900Y-89192600D01*
X164490000Y-89972200D02*
X165269600Y-89192600D01*
X164490000Y-91550000D02*
X164490000Y-89972200D01*
X150520000Y-105520000D02*
X164490000Y-91550000D01*
X193649800Y-132099700D02*
X194100000Y-132099700D01*
X192899700Y-131349600D02*
X193649800Y-132099700D01*
X192899700Y-127338700D02*
X192899700Y-131349600D01*
X180020000Y-114459000D02*
X192899700Y-127338700D01*
X180020000Y-110857500D02*
X180020000Y-114459000D01*
X179262700Y-110100200D02*
X180020000Y-110857500D01*
X174759800Y-110100200D02*
X179262700Y-110100200D01*
X173670000Y-111190000D02*
X174759800Y-110100200D01*
X194100000Y-133300000D02*
X194100000Y-132099700D01*
X181290000Y-115000600D02*
X181290000Y-111190000D01*
X194100000Y-127810600D02*
X181290000Y-115000600D01*
X194100000Y-130800000D02*
X194100000Y-127810600D01*
X143108500Y-80000000D02*
X148610000Y-85501500D01*
X137600000Y-80000000D02*
X143108500Y-80000000D01*
X93964000Y-107990000D02*
X91170000Y-107990000D01*
X96504000Y-105450000D02*
X93964000Y-107990000D01*
X110259500Y-107424500D02*
X125367000Y-92317000D01*
X110259500Y-110487300D02*
X110259500Y-107424500D01*
X92946800Y-127800000D02*
X110259500Y-110487300D01*
X92200000Y-127800000D02*
X92946800Y-127800000D01*
X148483000Y-92317000D02*
X125367000Y-92317000D01*
X150520000Y-90280000D02*
X148483000Y-92317000D01*
X125367000Y-92317000D02*
X122940000Y-89890000D01*
X92200000Y-125300000D02*
X92200000Y-124099700D01*
X92200000Y-118150000D02*
X92200000Y-124099700D01*
X96504000Y-118150000D02*
X92200000Y-118150000D01*
X92200000Y-118150000D02*
X91170000Y-118150000D01*
X90076100Y-114516100D02*
X91170000Y-115610000D01*
X90076100Y-74397200D02*
X90076100Y-114516100D01*
X91473700Y-72999600D02*
X90076100Y-74397200D01*
X101963600Y-72999600D02*
X91473700Y-72999600D01*
X106663200Y-68300000D02*
X101963600Y-72999600D01*
X107300000Y-68300000D02*
X106663200Y-68300000D01*
X173852600Y-116452600D02*
X176210000Y-118810000D01*
X164052600Y-116452600D02*
X173852600Y-116452600D01*
X159400000Y-111800000D02*
X164052600Y-116452600D01*
X168191400Y-108168600D02*
X170840000Y-105520000D01*
X125268600Y-108168600D02*
X168191400Y-108168600D01*
X124100000Y-107000000D02*
X125268600Y-108168600D01*
X143005100Y-112244900D02*
X144160000Y-111090000D01*
X137744900Y-112244900D02*
X143005100Y-112244900D01*
X137100000Y-111600000D02*
X137744900Y-112244900D01*
X95054400Y-74145600D02*
X92500000Y-76700000D01*
X105017500Y-74145600D02*
X95054400Y-74145600D01*
X105467900Y-73695200D02*
X105017500Y-74145600D01*
X108440800Y-73695200D02*
X105467900Y-73695200D01*
X109836000Y-72300000D02*
X108440800Y-73695200D01*
X113800000Y-72300000D02*
X109836000Y-72300000D01*
X109900000Y-79200000D02*
X92500000Y-79200000D01*
X113800000Y-75300000D02*
X109900000Y-79200000D01*
X92824900Y-81375100D02*
X92500000Y-81700000D01*
X105329800Y-81375100D02*
X92824900Y-81375100D01*
X106974700Y-83020000D02*
X105329800Y-81375100D01*
X108100000Y-83020000D02*
X106974700Y-83020000D01*
X94450300Y-73450000D02*
X93700300Y-74200000D01*
X102468300Y-73450000D02*
X94450300Y-73450000D01*
X102693600Y-73224700D02*
X102468300Y-73450000D01*
X108274400Y-73224700D02*
X102693600Y-73224700D01*
X112199100Y-69300000D02*
X108274400Y-73224700D01*
X113800000Y-69300000D02*
X112199100Y-69300000D01*
X92500000Y-74200000D02*
X93700300Y-74200000D01*
X100600000Y-129500000D02*
X96380000Y-129500000D01*
X104000000Y-126100000D02*
X100600000Y-129500000D01*
D21*
G36*
X129418198Y-72968500D02*
X115035064Y-72968500D01*
X115196757Y-72579100D01*
X115197242Y-72023339D01*
X114985010Y-71509697D01*
X114592370Y-71116371D01*
X114079100Y-70903243D01*
X113523339Y-70902758D01*
X113009697Y-71114990D01*
X112616371Y-71507630D01*
X112602930Y-71540000D01*
X111033902Y-71540000D01*
X112513902Y-70060000D01*
X112602469Y-70060000D01*
X112614990Y-70090303D01*
X113007630Y-70483629D01*
X113520900Y-70696757D01*
X114076661Y-70697242D01*
X114590303Y-70485010D01*
X114983629Y-70092370D01*
X115196757Y-69579100D01*
X115197242Y-69023339D01*
X114985010Y-68509697D01*
X114592370Y-68116371D01*
X114079100Y-67903243D01*
X113523339Y-67902758D01*
X113009697Y-68114990D01*
X112616371Y-68507630D01*
X112602930Y-68540000D01*
X112199100Y-68540000D01*
X111908261Y-68597852D01*
X111661699Y-68762599D01*
X111322440Y-69101858D01*
X111322440Y-67425000D01*
X111278162Y-67189683D01*
X111139090Y-66973559D01*
X110926890Y-66828569D01*
X110675000Y-66777560D01*
X108925000Y-66777560D01*
X108689683Y-66821838D01*
X108473559Y-66960910D01*
X108328569Y-67173110D01*
X108325214Y-67189676D01*
X108156463Y-67020630D01*
X107601675Y-66790262D01*
X107000960Y-66789738D01*
X106445771Y-67019138D01*
X106020630Y-67443537D01*
X105790262Y-67998325D01*
X105790175Y-68098223D01*
X101648798Y-72239600D01*
X91473700Y-72239600D01*
X91182861Y-72297452D01*
X90936299Y-72462199D01*
X89538699Y-73859799D01*
X89373952Y-74106361D01*
X89316100Y-74397200D01*
X89316100Y-114516100D01*
X89373952Y-114806939D01*
X89538699Y-115053501D01*
X89785817Y-115300619D01*
X89773243Y-115330900D01*
X89772758Y-115886661D01*
X89984990Y-116400303D01*
X90377630Y-116793629D01*
X90585512Y-116879949D01*
X90379697Y-116964990D01*
X89986371Y-117357630D01*
X89773243Y-117870900D01*
X89772758Y-118426661D01*
X89984990Y-118940303D01*
X90377630Y-119333629D01*
X90890900Y-119546757D01*
X91440000Y-119547236D01*
X91440000Y-123777560D01*
X91325000Y-123777560D01*
X91089683Y-123821838D01*
X90873559Y-123960910D01*
X90728569Y-124173110D01*
X90677560Y-124425000D01*
X90677560Y-126175000D01*
X90721838Y-126410317D01*
X90860910Y-126626441D01*
X91073110Y-126771431D01*
X91089676Y-126774786D01*
X90920630Y-126943537D01*
X90690262Y-127498325D01*
X90689738Y-128099040D01*
X90919138Y-128654229D01*
X91314536Y-129050318D01*
X90920630Y-129443537D01*
X90690262Y-129998325D01*
X90689738Y-130599040D01*
X90919138Y-131154229D01*
X91314536Y-131550318D01*
X90920630Y-131943537D01*
X90690262Y-132498325D01*
X90689738Y-133099040D01*
X90919138Y-133654229D01*
X91343537Y-134079370D01*
X91898325Y-134309738D01*
X92499040Y-134310262D01*
X93054229Y-134080862D01*
X93479370Y-133656463D01*
X93709738Y-133101675D01*
X93709927Y-132884729D01*
X94337299Y-133512101D01*
X94583861Y-133676848D01*
X94874700Y-133734700D01*
X97606420Y-133734700D01*
X97553035Y-133883223D01*
X97580222Y-134453454D01*
X97746136Y-134854005D01*
X97992255Y-134928139D01*
X98820395Y-134100000D01*
X98806253Y-134085858D01*
X98985858Y-133906253D01*
X99000000Y-133920395D01*
X99014143Y-133906253D01*
X99193748Y-134085858D01*
X99179605Y-134100000D01*
X100007745Y-134928139D01*
X100055167Y-134913855D01*
X100096838Y-135135317D01*
X100235910Y-135351441D01*
X100448110Y-135496431D01*
X100700000Y-135547440D01*
X102300000Y-135547440D01*
X102535317Y-135503162D01*
X102751441Y-135364090D01*
X102896431Y-135151890D01*
X102947440Y-134900000D01*
X102947440Y-133300000D01*
X102903162Y-133064683D01*
X102764090Y-132848559D01*
X102551890Y-132703569D01*
X102300000Y-132652560D01*
X100700000Y-132652560D01*
X100464683Y-132696838D01*
X100381358Y-132750456D01*
X100068201Y-132437299D01*
X99821639Y-132272552D01*
X99530800Y-132214700D01*
X95189502Y-132214700D01*
X93670639Y-130695837D01*
X93709738Y-130601675D01*
X93710262Y-130000960D01*
X93503270Y-129500000D01*
X94916887Y-129500000D01*
X95026120Y-130049151D01*
X95337189Y-130514698D01*
X95802736Y-130825767D01*
X96351887Y-130935000D01*
X96408113Y-130935000D01*
X96957264Y-130825767D01*
X97422811Y-130514698D01*
X97592995Y-130260000D01*
X100600000Y-130260000D01*
X100890839Y-130202148D01*
X101137401Y-130037401D01*
X103661546Y-127513256D01*
X103713309Y-127534750D01*
X104284187Y-127535248D01*
X104811800Y-127317243D01*
X105215824Y-126913923D01*
X105434750Y-126386691D01*
X105435248Y-125815813D01*
X105217243Y-125288200D01*
X104813923Y-124884176D01*
X104286691Y-124665250D01*
X103715813Y-124664752D01*
X103188200Y-124882757D01*
X102784176Y-125286077D01*
X102565250Y-125813309D01*
X102564752Y-126384187D01*
X102587049Y-126438149D01*
X100285198Y-128740000D01*
X97592995Y-128740000D01*
X97422811Y-128485302D01*
X96957264Y-128174233D01*
X96408113Y-128065000D01*
X96351887Y-128065000D01*
X95802736Y-128174233D01*
X95337189Y-128485302D01*
X95026120Y-128950849D01*
X94916887Y-129500000D01*
X93503270Y-129500000D01*
X93480862Y-129445771D01*
X93085464Y-129049682D01*
X93479370Y-128656463D01*
X93702503Y-128119099D01*
X95084732Y-126736870D01*
X95337189Y-127114698D01*
X95802736Y-127425767D01*
X96351887Y-127535000D01*
X96408113Y-127535000D01*
X96957264Y-127425767D01*
X97422811Y-127114698D01*
X97733880Y-126649151D01*
X97843113Y-126100000D01*
X97733880Y-125550849D01*
X97422811Y-125085302D01*
X97011278Y-124810324D01*
X98113857Y-123707745D01*
X103171861Y-123707745D01*
X103245995Y-123953864D01*
X103783223Y-124146965D01*
X104353454Y-124119778D01*
X104754005Y-123953864D01*
X104828139Y-123707745D01*
X104000000Y-122879605D01*
X103171861Y-123707745D01*
X98113857Y-123707745D01*
X99338379Y-122483223D01*
X102553035Y-122483223D01*
X102580222Y-123053454D01*
X102746136Y-123454005D01*
X102992255Y-123528139D01*
X103820395Y-122700000D01*
X104179605Y-122700000D01*
X105007745Y-123528139D01*
X105253864Y-123454005D01*
X105446965Y-122916777D01*
X105419778Y-122346546D01*
X105253864Y-121945995D01*
X105007745Y-121871861D01*
X104179605Y-122700000D01*
X103820395Y-122700000D01*
X102992255Y-121871861D01*
X102746136Y-121945995D01*
X102553035Y-122483223D01*
X99338379Y-122483223D01*
X100129347Y-121692255D01*
X103171861Y-121692255D01*
X104000000Y-122520395D01*
X104828139Y-121692255D01*
X104784285Y-121546661D01*
X105432758Y-121546661D01*
X105644990Y-122060303D01*
X106037630Y-122453629D01*
X106550900Y-122666757D01*
X107106661Y-122667242D01*
X107620303Y-122455010D01*
X108013629Y-122062370D01*
X108027070Y-122030000D01*
X112604700Y-122030000D01*
X112895539Y-121972148D01*
X113142101Y-121807401D01*
X113402841Y-121546661D01*
X118132758Y-121546661D01*
X118344990Y-122060303D01*
X118737630Y-122453629D01*
X119250900Y-122666757D01*
X119806661Y-122667242D01*
X120320303Y-122455010D01*
X120713629Y-122062370D01*
X120926757Y-121549100D01*
X120927242Y-120993339D01*
X120913857Y-120960945D01*
X122812101Y-119062701D01*
X122889116Y-118947440D01*
X124200000Y-118947440D01*
X124435317Y-118903162D01*
X124651441Y-118764090D01*
X124662685Y-118747634D01*
X125113309Y-118934750D01*
X125684187Y-118935248D01*
X126211800Y-118717243D01*
X126615824Y-118313923D01*
X126834750Y-117786691D01*
X126835248Y-117215813D01*
X126617243Y-116688200D01*
X126213923Y-116284176D01*
X125686691Y-116065250D01*
X125115813Y-116064752D01*
X124665534Y-116250803D01*
X124664090Y-116248559D01*
X124451890Y-116103569D01*
X124200000Y-116052560D01*
X122600000Y-116052560D01*
X122364683Y-116096838D01*
X122148559Y-116235910D01*
X122003569Y-116448110D01*
X121952560Y-116700000D01*
X121952560Y-116818767D01*
X121737299Y-116962599D01*
X121572552Y-117209161D01*
X121514700Y-117500000D01*
X121514700Y-118210498D01*
X119839381Y-119885817D01*
X119809100Y-119873243D01*
X119253339Y-119872758D01*
X118739697Y-120084990D01*
X118346371Y-120477630D01*
X118133243Y-120990900D01*
X118132758Y-121546661D01*
X113402841Y-121546661D01*
X122121091Y-112828411D01*
X122135910Y-112851441D01*
X122348110Y-112996431D01*
X122600000Y-113047440D01*
X124200000Y-113047440D01*
X124435317Y-113003162D01*
X124651441Y-112864090D01*
X124662685Y-112847634D01*
X125113309Y-113034750D01*
X125684187Y-113035248D01*
X126211800Y-112817243D01*
X126615824Y-112413923D01*
X126834750Y-111886691D01*
X126835248Y-111315813D01*
X126812951Y-111261851D01*
X126840202Y-111234600D01*
X127552560Y-111234600D01*
X127552560Y-112400000D01*
X127596838Y-112635317D01*
X127735910Y-112851441D01*
X127948110Y-112996431D01*
X128200000Y-113047440D01*
X129800000Y-113047440D01*
X130035317Y-113003162D01*
X130251441Y-112864090D01*
X130396431Y-112651890D01*
X130417680Y-112546959D01*
X130686077Y-112815824D01*
X131213309Y-113034750D01*
X131784187Y-113035248D01*
X132311800Y-112817243D01*
X132715824Y-112413923D01*
X132934750Y-111886691D01*
X132935248Y-111315813D01*
X132717243Y-110788200D01*
X132313923Y-110384176D01*
X131786691Y-110165250D01*
X131215813Y-110164752D01*
X131161851Y-110187049D01*
X130912001Y-109937199D01*
X130665439Y-109772452D01*
X130374600Y-109714600D01*
X126525400Y-109714600D01*
X126234561Y-109772452D01*
X125987999Y-109937199D01*
X125738454Y-110186744D01*
X125686691Y-110165250D01*
X125115813Y-110164752D01*
X124665534Y-110350803D01*
X124664090Y-110348559D01*
X124451890Y-110203569D01*
X124200000Y-110152560D01*
X122600000Y-110152560D01*
X122364683Y-110196838D01*
X122148559Y-110335910D01*
X122003569Y-110548110D01*
X121952560Y-110800000D01*
X121952560Y-110918767D01*
X121737299Y-111062599D01*
X115280852Y-117519046D01*
X115215010Y-117359697D01*
X114822370Y-116966371D01*
X114309100Y-116753243D01*
X113753339Y-116752758D01*
X113239697Y-116964990D01*
X112846371Y-117357630D01*
X112633243Y-117870900D01*
X112632758Y-118426661D01*
X112844990Y-118940303D01*
X113237630Y-119333629D01*
X113399185Y-119400713D01*
X112289898Y-120510000D01*
X108027531Y-120510000D01*
X108015010Y-120479697D01*
X107622370Y-120086371D01*
X107109100Y-119873243D01*
X106553339Y-119872758D01*
X106039697Y-120084990D01*
X105646371Y-120477630D01*
X105433243Y-120990900D01*
X105432758Y-121546661D01*
X104784285Y-121546661D01*
X104754005Y-121446136D01*
X104216777Y-121253035D01*
X103646546Y-121280222D01*
X103245995Y-121446136D01*
X103171861Y-121692255D01*
X100129347Y-121692255D01*
X110796901Y-111024701D01*
X110961648Y-110778139D01*
X111019500Y-110487300D01*
X111019500Y-107739302D01*
X112749530Y-106009272D01*
X112844990Y-106240303D01*
X113237630Y-106633629D01*
X113750900Y-106846757D01*
X114306661Y-106847242D01*
X114820303Y-106635010D01*
X115213629Y-106242370D01*
X115426757Y-105729100D01*
X115427242Y-105173339D01*
X115215010Y-104659697D01*
X114822370Y-104266371D01*
X114589236Y-104169566D01*
X116772141Y-101986661D01*
X131342758Y-101986661D01*
X131554990Y-102500303D01*
X131947630Y-102893629D01*
X132460900Y-103106757D01*
X133016661Y-103107242D01*
X133530303Y-102895010D01*
X133923629Y-102502370D01*
X134136757Y-101989100D01*
X134137242Y-101433339D01*
X133925010Y-100919697D01*
X133532370Y-100526371D01*
X133019100Y-100313243D01*
X132463339Y-100312758D01*
X131949697Y-100524990D01*
X131556371Y-100917630D01*
X131343243Y-101430900D01*
X131342758Y-101986661D01*
X116772141Y-101986661D01*
X120268589Y-98490213D01*
X122139392Y-98490213D01*
X122208857Y-98732397D01*
X122732302Y-98919144D01*
X123287368Y-98891362D01*
X123671143Y-98732397D01*
X123740608Y-98490213D01*
X122940000Y-97689605D01*
X122139392Y-98490213D01*
X120268589Y-98490213D01*
X121572097Y-97186705D01*
X121530856Y-97302302D01*
X121558638Y-97857368D01*
X121717603Y-98241143D01*
X121959787Y-98310608D01*
X122760395Y-97510000D01*
X123119605Y-97510000D01*
X123920213Y-98310608D01*
X124162397Y-98241143D01*
X124349144Y-97717698D01*
X124321362Y-97162632D01*
X124162397Y-96778857D01*
X123920213Y-96709392D01*
X123119605Y-97510000D01*
X122760395Y-97510000D01*
X122746253Y-97495858D01*
X122925858Y-97316253D01*
X122940000Y-97330395D01*
X123740608Y-96529787D01*
X123671143Y-96287603D01*
X123147698Y-96100856D01*
X122632142Y-96126660D01*
X125681802Y-93077000D01*
X131777386Y-93077000D01*
X131556371Y-93297630D01*
X131343243Y-93810900D01*
X131342758Y-94366661D01*
X131554990Y-94880303D01*
X131947630Y-95273629D01*
X132460900Y-95486757D01*
X133016661Y-95487242D01*
X133530303Y-95275010D01*
X133923629Y-94882370D01*
X134136757Y-94369100D01*
X134137242Y-93813339D01*
X133925010Y-93299697D01*
X133702701Y-93077000D01*
X148483000Y-93077000D01*
X148773839Y-93019148D01*
X149020401Y-92854401D01*
X150210619Y-91664183D01*
X150240900Y-91676757D01*
X150796661Y-91677242D01*
X151310303Y-91465010D01*
X151703629Y-91072370D01*
X151789949Y-90864488D01*
X151874990Y-91070303D01*
X152267630Y-91463629D01*
X152780900Y-91676757D01*
X153336661Y-91677242D01*
X153850303Y-91465010D01*
X154243629Y-91072370D01*
X154329949Y-90864488D01*
X154414990Y-91070303D01*
X154807630Y-91463629D01*
X155320900Y-91676757D01*
X155876661Y-91677242D01*
X156390303Y-91465010D01*
X156783629Y-91072370D01*
X156869949Y-90864488D01*
X156954990Y-91070303D01*
X157347630Y-91463629D01*
X157860900Y-91676757D01*
X158416661Y-91677242D01*
X158930303Y-91465010D01*
X159323629Y-91072370D01*
X159409949Y-90864488D01*
X159494990Y-91070303D01*
X159887630Y-91463629D01*
X160400900Y-91676757D01*
X160956661Y-91677242D01*
X161470303Y-91465010D01*
X161863629Y-91072370D01*
X161949949Y-90864488D01*
X162034990Y-91070303D01*
X162427630Y-91463629D01*
X162940900Y-91676757D01*
X163288138Y-91677060D01*
X150829381Y-104135817D01*
X150799100Y-104123243D01*
X150243339Y-104122758D01*
X149729697Y-104334990D01*
X149336371Y-104727630D01*
X149250051Y-104935512D01*
X149165010Y-104729697D01*
X148772370Y-104336371D01*
X148259100Y-104123243D01*
X147703339Y-104122758D01*
X147189697Y-104334990D01*
X146796371Y-104727630D01*
X146716605Y-104919727D01*
X146662397Y-104788857D01*
X146420213Y-104719392D01*
X145619605Y-105520000D01*
X146420213Y-106320608D01*
X146662397Y-106251143D01*
X146712509Y-106110682D01*
X146794990Y-106310303D01*
X147187630Y-106703629D01*
X147700900Y-106916757D01*
X148256661Y-106917242D01*
X148770303Y-106705010D01*
X149163629Y-106312370D01*
X149249949Y-106104488D01*
X149334990Y-106310303D01*
X149727630Y-106703629D01*
X150240900Y-106916757D01*
X150796661Y-106917242D01*
X151310303Y-106705010D01*
X151703629Y-106312370D01*
X151789949Y-106104488D01*
X151874990Y-106310303D01*
X152267630Y-106703629D01*
X152780900Y-106916757D01*
X153336661Y-106917242D01*
X153850303Y-106705010D01*
X154243629Y-106312370D01*
X154329949Y-106104488D01*
X154414990Y-106310303D01*
X154807630Y-106703629D01*
X155320900Y-106916757D01*
X155876661Y-106917242D01*
X156390303Y-106705010D01*
X156783629Y-106312370D01*
X156869949Y-106104488D01*
X156954990Y-106310303D01*
X157347630Y-106703629D01*
X157860900Y-106916757D01*
X158416661Y-106917242D01*
X158930303Y-106705010D01*
X159323629Y-106312370D01*
X159409949Y-106104488D01*
X159494990Y-106310303D01*
X159887630Y-106703629D01*
X160400900Y-106916757D01*
X160956661Y-106917242D01*
X161470303Y-106705010D01*
X161863629Y-106312370D01*
X161949949Y-106104488D01*
X162034990Y-106310303D01*
X162427630Y-106703629D01*
X162940900Y-106916757D01*
X163496661Y-106917242D01*
X164010303Y-106705010D01*
X164403629Y-106312370D01*
X164489949Y-106104488D01*
X164574990Y-106310303D01*
X164967630Y-106703629D01*
X165480900Y-106916757D01*
X166036661Y-106917242D01*
X166550303Y-106705010D01*
X166943629Y-106312370D01*
X167029949Y-106104488D01*
X167114990Y-106310303D01*
X167507630Y-106703629D01*
X168020900Y-106916757D01*
X168368138Y-106917060D01*
X167876598Y-107408600D01*
X135401837Y-107408600D01*
X135483113Y-107000000D01*
X135373880Y-106450849D01*
X135062811Y-105985302D01*
X134780491Y-105796661D01*
X136422758Y-105796661D01*
X136634990Y-106310303D01*
X137027630Y-106703629D01*
X137540900Y-106916757D01*
X138096661Y-106917242D01*
X138610303Y-106705010D01*
X139003629Y-106312370D01*
X139089949Y-106104488D01*
X139174990Y-106310303D01*
X139567630Y-106703629D01*
X140080900Y-106916757D01*
X140636661Y-106917242D01*
X141150303Y-106705010D01*
X141543629Y-106312370D01*
X141629949Y-106104488D01*
X141714990Y-106310303D01*
X142107630Y-106703629D01*
X142620900Y-106916757D01*
X143176661Y-106917242D01*
X143690303Y-106705010D01*
X143895457Y-106500213D01*
X144639392Y-106500213D01*
X144708857Y-106742397D01*
X145232302Y-106929144D01*
X145787368Y-106901362D01*
X146171143Y-106742397D01*
X146240608Y-106500213D01*
X145440000Y-105699605D01*
X144639392Y-106500213D01*
X143895457Y-106500213D01*
X144083629Y-106312370D01*
X144163395Y-106120273D01*
X144217603Y-106251143D01*
X144459787Y-106320608D01*
X145260395Y-105520000D01*
X144459787Y-104719392D01*
X144217603Y-104788857D01*
X144167491Y-104929318D01*
X144085010Y-104729697D01*
X143895432Y-104539787D01*
X144639392Y-104539787D01*
X145440000Y-105340395D01*
X146240608Y-104539787D01*
X146171143Y-104297603D01*
X145647698Y-104110856D01*
X145092632Y-104138638D01*
X144708857Y-104297603D01*
X144639392Y-104539787D01*
X143895432Y-104539787D01*
X143692370Y-104336371D01*
X143179100Y-104123243D01*
X142623339Y-104122758D01*
X142109697Y-104334990D01*
X141716371Y-104727630D01*
X141630051Y-104935512D01*
X141545010Y-104729697D01*
X141152370Y-104336371D01*
X140639100Y-104123243D01*
X140083339Y-104122758D01*
X139569697Y-104334990D01*
X139176371Y-104727630D01*
X139090051Y-104935512D01*
X139005010Y-104729697D01*
X138612370Y-104336371D01*
X138099100Y-104123243D01*
X137543339Y-104122758D01*
X137029697Y-104334990D01*
X136636371Y-104727630D01*
X136423243Y-105240900D01*
X136422758Y-105796661D01*
X134780491Y-105796661D01*
X134597264Y-105674233D01*
X134048113Y-105565000D01*
X133991887Y-105565000D01*
X133442736Y-105674233D01*
X132977189Y-105985302D01*
X132666120Y-106450849D01*
X132556887Y-107000000D01*
X132638163Y-107408600D01*
X127784129Y-107408600D01*
X127834750Y-107286691D01*
X127835248Y-106715813D01*
X127617243Y-106188200D01*
X127213923Y-105784176D01*
X126686691Y-105565250D01*
X126115813Y-105564752D01*
X125588200Y-105782757D01*
X125249764Y-106120603D01*
X124913923Y-105784176D01*
X124386691Y-105565250D01*
X123815813Y-105564752D01*
X123288200Y-105782757D01*
X122884176Y-106186077D01*
X122850187Y-106267931D01*
X122817243Y-106188200D01*
X122413923Y-105784176D01*
X121886691Y-105565250D01*
X121315813Y-105564752D01*
X120788200Y-105782757D01*
X120384176Y-106186077D01*
X120165250Y-106713309D01*
X120164752Y-107284187D01*
X120382757Y-107811800D01*
X120786077Y-108215824D01*
X121313309Y-108434750D01*
X121884187Y-108435248D01*
X122411800Y-108217243D01*
X122815824Y-107813923D01*
X122849813Y-107732069D01*
X122882757Y-107811800D01*
X123286077Y-108215824D01*
X123813309Y-108434750D01*
X124384187Y-108435248D01*
X124438149Y-108412951D01*
X124731199Y-108706001D01*
X124977761Y-108870748D01*
X125268600Y-108928600D01*
X147786598Y-108928600D01*
X147009381Y-109705817D01*
X146979100Y-109693243D01*
X146423339Y-109692758D01*
X145909697Y-109904990D01*
X145516371Y-110297630D01*
X145430051Y-110505512D01*
X145345010Y-110299697D01*
X144952370Y-109906371D01*
X144439100Y-109693243D01*
X143883339Y-109692758D01*
X143369697Y-109904990D01*
X142976371Y-110297630D01*
X142890051Y-110505512D01*
X142805010Y-110299697D01*
X142412370Y-109906371D01*
X141899100Y-109693243D01*
X141343339Y-109692758D01*
X140829697Y-109904990D01*
X140436371Y-110297630D01*
X140223243Y-110810900D01*
X140222758Y-111366661D01*
X140271613Y-111484900D01*
X138535100Y-111484900D01*
X138535248Y-111315813D01*
X138317243Y-110788200D01*
X137913923Y-110384176D01*
X137386691Y-110165250D01*
X136815813Y-110164752D01*
X136365534Y-110350803D01*
X136364090Y-110348559D01*
X136151890Y-110203569D01*
X135900000Y-110152560D01*
X134300000Y-110152560D01*
X134064683Y-110196838D01*
X133848559Y-110335910D01*
X133703569Y-110548110D01*
X133652560Y-110800000D01*
X133652560Y-112400000D01*
X133696838Y-112635317D01*
X133835910Y-112851441D01*
X134048110Y-112996431D01*
X134300000Y-113047440D01*
X134677758Y-113047440D01*
X131638454Y-116086744D01*
X131586691Y-116065250D01*
X131015813Y-116064752D01*
X130565534Y-116250803D01*
X130564090Y-116248559D01*
X130351890Y-116103569D01*
X130100000Y-116052560D01*
X128500000Y-116052560D01*
X128264683Y-116096838D01*
X128048559Y-116235910D01*
X127903569Y-116448110D01*
X127852560Y-116700000D01*
X127852560Y-118300000D01*
X127896838Y-118535317D01*
X128035910Y-118751441D01*
X128248110Y-118896431D01*
X128500000Y-118947440D01*
X130100000Y-118947440D01*
X130335317Y-118903162D01*
X130551441Y-118764090D01*
X130562685Y-118747634D01*
X131013309Y-118934750D01*
X131584187Y-118935248D01*
X132111800Y-118717243D01*
X132515824Y-118313923D01*
X132734750Y-117786691D01*
X132735248Y-117215813D01*
X132712951Y-117161851D01*
X135667402Y-114207400D01*
X146882600Y-114207400D01*
X147173439Y-114149548D01*
X147420001Y-113984801D01*
X148930619Y-112474183D01*
X148960900Y-112486757D01*
X149516661Y-112487242D01*
X150030303Y-112275010D01*
X150423629Y-111882370D01*
X150509949Y-111674488D01*
X150594990Y-111880303D01*
X150987630Y-112273629D01*
X151500900Y-112486757D01*
X152056661Y-112487242D01*
X152570303Y-112275010D01*
X152963629Y-111882370D01*
X152977070Y-111850000D01*
X154645213Y-111850000D01*
X154973170Y-112340821D01*
X155536044Y-112716922D01*
X156200000Y-112848991D01*
X156863956Y-112716922D01*
X157426830Y-112340821D01*
X157802931Y-111777947D01*
X157935000Y-111113991D01*
X157935000Y-111046009D01*
X157802931Y-110382053D01*
X157587742Y-110060000D01*
X158161354Y-110060000D01*
X158182757Y-110111800D01*
X158586077Y-110515824D01*
X158667931Y-110549813D01*
X158588200Y-110582757D01*
X158184176Y-110986077D01*
X157965250Y-111513309D01*
X157964752Y-112084187D01*
X158182757Y-112611800D01*
X158586077Y-113015824D01*
X159113309Y-113234750D01*
X159684187Y-113235248D01*
X159738149Y-113212951D01*
X163487498Y-116962300D01*
X160391737Y-116962300D01*
X160213923Y-116784176D01*
X159686691Y-116565250D01*
X159115813Y-116564752D01*
X158588200Y-116782757D01*
X158184176Y-117186077D01*
X157965250Y-117713309D01*
X157964752Y-118284187D01*
X158182757Y-118811800D01*
X158586077Y-119215824D01*
X158667931Y-119249813D01*
X158588200Y-119282757D01*
X158184176Y-119686077D01*
X158161785Y-119740000D01*
X157935000Y-119740000D01*
X157935000Y-118985750D01*
X157776250Y-118827000D01*
X156327000Y-118827000D01*
X156327000Y-118847000D01*
X156073000Y-118847000D01*
X156073000Y-118827000D01*
X154623750Y-118827000D01*
X154465000Y-118985750D01*
X154465000Y-119740000D01*
X152566328Y-119740000D01*
X152580608Y-119690213D01*
X151780000Y-118889605D01*
X150979392Y-119690213D01*
X150993672Y-119740000D01*
X150185584Y-119740000D01*
X150423629Y-119502370D01*
X150503395Y-119310273D01*
X150557603Y-119441143D01*
X150799787Y-119510608D01*
X151600395Y-118710000D01*
X151959605Y-118710000D01*
X152760213Y-119510608D01*
X153002397Y-119441143D01*
X153189144Y-118917698D01*
X153161362Y-118362632D01*
X153002397Y-117978857D01*
X152760213Y-117909392D01*
X151959605Y-118710000D01*
X151600395Y-118710000D01*
X150799787Y-117909392D01*
X150557603Y-117978857D01*
X150507491Y-118119318D01*
X150425010Y-117919697D01*
X150235432Y-117729787D01*
X150979392Y-117729787D01*
X151780000Y-118530395D01*
X152580608Y-117729787D01*
X152511143Y-117487603D01*
X152472149Y-117473691D01*
X154465000Y-117473691D01*
X154465000Y-118414250D01*
X154623750Y-118573000D01*
X156073000Y-118573000D01*
X156073000Y-117123750D01*
X156327000Y-117123750D01*
X156327000Y-118573000D01*
X157776250Y-118573000D01*
X157935000Y-118414250D01*
X157935000Y-117473691D01*
X157838327Y-117240302D01*
X157659699Y-117061673D01*
X157426310Y-116965000D01*
X156485750Y-116965000D01*
X156327000Y-117123750D01*
X156073000Y-117123750D01*
X155914250Y-116965000D01*
X154973690Y-116965000D01*
X154740301Y-117061673D01*
X154561673Y-117240302D01*
X154465000Y-117473691D01*
X152472149Y-117473691D01*
X151987698Y-117300856D01*
X151432632Y-117328638D01*
X151048857Y-117487603D01*
X150979392Y-117729787D01*
X150235432Y-117729787D01*
X150032370Y-117526371D01*
X149519100Y-117313243D01*
X148963339Y-117312758D01*
X148449697Y-117524990D01*
X148056371Y-117917630D01*
X147970051Y-118125512D01*
X147885010Y-117919697D01*
X147492370Y-117526371D01*
X146979100Y-117313243D01*
X146423339Y-117312758D01*
X145909697Y-117524990D01*
X145516371Y-117917630D01*
X145430051Y-118125512D01*
X145345010Y-117919697D01*
X144952370Y-117526371D01*
X144439100Y-117313243D01*
X143883339Y-117312758D01*
X143850945Y-117326143D01*
X143487401Y-116962599D01*
X143240839Y-116797852D01*
X142950000Y-116740000D01*
X138338646Y-116740000D01*
X138317243Y-116688200D01*
X137913923Y-116284176D01*
X137386691Y-116065250D01*
X136815813Y-116064752D01*
X136365534Y-116250803D01*
X136364090Y-116248559D01*
X136151890Y-116103569D01*
X135900000Y-116052560D01*
X134300000Y-116052560D01*
X134064683Y-116096838D01*
X133848559Y-116235910D01*
X133703569Y-116448110D01*
X133652560Y-116700000D01*
X133652560Y-118300000D01*
X133696838Y-118535317D01*
X133835910Y-118751441D01*
X134048110Y-118896431D01*
X134300000Y-118947440D01*
X135900000Y-118947440D01*
X136135317Y-118903162D01*
X136351441Y-118764090D01*
X136362685Y-118747634D01*
X136813309Y-118934750D01*
X137384187Y-118935248D01*
X137911800Y-118717243D01*
X138315824Y-118313923D01*
X138338215Y-118260000D01*
X140294207Y-118260000D01*
X140223243Y-118430900D01*
X140222758Y-118986661D01*
X140434990Y-119500303D01*
X140827630Y-119893629D01*
X141340900Y-120106757D01*
X141896661Y-120107242D01*
X142410303Y-119895010D01*
X142803629Y-119502370D01*
X142889949Y-119294488D01*
X142974990Y-119500303D01*
X143367630Y-119893629D01*
X143880900Y-120106757D01*
X144436661Y-120107242D01*
X144950303Y-119895010D01*
X145343629Y-119502370D01*
X145429949Y-119294488D01*
X145514990Y-119500303D01*
X145907630Y-119893629D01*
X146420900Y-120106757D01*
X146976661Y-120107242D01*
X147009055Y-120093857D01*
X147952599Y-121037401D01*
X148199160Y-121202148D01*
X148490000Y-121260000D01*
X158161354Y-121260000D01*
X158182757Y-121311800D01*
X158586077Y-121715824D01*
X159113309Y-121934750D01*
X159684187Y-121935248D01*
X160211800Y-121717243D01*
X160615824Y-121313923D01*
X160834750Y-120786691D01*
X160835248Y-120215813D01*
X160617243Y-119688200D01*
X160213923Y-119284176D01*
X160132069Y-119250187D01*
X160211800Y-119217243D01*
X160615824Y-118813923D01*
X160753526Y-118482300D01*
X162133423Y-118482300D01*
X162113243Y-118530900D01*
X162112758Y-119086661D01*
X162324990Y-119600303D01*
X162717630Y-119993629D01*
X163230900Y-120206757D01*
X163578138Y-120207060D01*
X159465198Y-124320000D01*
X134800879Y-124320000D01*
X134896757Y-124089100D01*
X134897242Y-123533339D01*
X134685010Y-123019697D01*
X134292370Y-122626371D01*
X133779100Y-122413243D01*
X133223339Y-122412758D01*
X132709697Y-122624990D01*
X132316371Y-123017630D01*
X132103243Y-123530900D01*
X132102758Y-124086661D01*
X132199171Y-124320000D01*
X108420000Y-124320000D01*
X108129161Y-124377852D01*
X107882599Y-124542599D01*
X104338454Y-128086744D01*
X104286691Y-128065250D01*
X103715813Y-128064752D01*
X103188200Y-128282757D01*
X102784176Y-128686077D01*
X102565250Y-129213309D01*
X102564752Y-129784187D01*
X102782757Y-130311800D01*
X103186077Y-130715824D01*
X103713309Y-130934750D01*
X104284187Y-130935248D01*
X104811800Y-130717243D01*
X105215824Y-130313923D01*
X105434750Y-129786691D01*
X105435248Y-129215813D01*
X105412951Y-129161851D01*
X108734802Y-125840000D01*
X132199121Y-125840000D01*
X132103243Y-126070900D01*
X132102758Y-126626661D01*
X132314990Y-127140303D01*
X132707630Y-127533629D01*
X132915512Y-127619949D01*
X132709697Y-127704990D01*
X132316371Y-128097630D01*
X132103243Y-128610900D01*
X132102758Y-129166661D01*
X132314990Y-129680303D01*
X132707630Y-130073629D01*
X132915512Y-130159949D01*
X132709697Y-130244990D01*
X132316371Y-130637630D01*
X132103243Y-131150900D01*
X132102758Y-131706661D01*
X132314990Y-132220303D01*
X132707630Y-132613629D01*
X132915512Y-132699949D01*
X132709697Y-132784990D01*
X132316371Y-133177630D01*
X132103243Y-133690900D01*
X132102758Y-134246661D01*
X132314990Y-134760303D01*
X132707630Y-135153629D01*
X132915512Y-135239949D01*
X132709697Y-135324990D01*
X132316371Y-135717630D01*
X132103243Y-136230900D01*
X132102758Y-136786661D01*
X132314990Y-137300303D01*
X132707630Y-137693629D01*
X132899727Y-137773395D01*
X132768857Y-137827603D01*
X132699392Y-138069787D01*
X133500000Y-138870395D01*
X134300608Y-138069787D01*
X134231143Y-137827603D01*
X134090682Y-137777491D01*
X134290303Y-137695010D01*
X134642427Y-137343500D01*
X141331200Y-137343500D01*
X141622039Y-137285648D01*
X141868601Y-137120901D01*
X142568223Y-136421279D01*
X142577189Y-136434698D01*
X143042736Y-136745767D01*
X143591887Y-136855000D01*
X143648113Y-136855000D01*
X144197264Y-136745767D01*
X144662811Y-136434698D01*
X144846437Y-136159882D01*
X145036139Y-136122148D01*
X145282701Y-135957401D01*
X146410102Y-134830000D01*
X179536469Y-134830000D01*
X179548990Y-134860303D01*
X179941630Y-135253629D01*
X180149512Y-135339949D01*
X179943697Y-135424990D01*
X179550371Y-135817630D01*
X179337243Y-136330900D01*
X179336758Y-136886661D01*
X179548990Y-137400303D01*
X179941630Y-137793629D01*
X180133727Y-137873395D01*
X180002857Y-137927603D01*
X179933392Y-138169787D01*
X180734000Y-138970395D01*
X181534608Y-138169787D01*
X181465143Y-137927603D01*
X181324682Y-137877491D01*
X181524303Y-137795010D01*
X181917629Y-137402370D01*
X182130757Y-136889100D01*
X182131242Y-136333339D01*
X182117857Y-136300945D01*
X182424401Y-135994401D01*
X182589148Y-135747840D01*
X182647000Y-135457000D01*
X182647000Y-128114802D01*
X183954057Y-126807745D01*
X185371861Y-126807745D01*
X185445995Y-127053864D01*
X185983223Y-127246965D01*
X186553454Y-127219778D01*
X186954005Y-127053864D01*
X187028139Y-126807745D01*
X186200000Y-125979605D01*
X185371861Y-126807745D01*
X183954057Y-126807745D01*
X184772400Y-125989402D01*
X184780222Y-126153454D01*
X184946136Y-126554005D01*
X185192255Y-126628139D01*
X186020395Y-125800000D01*
X186379605Y-125800000D01*
X187207745Y-126628139D01*
X187453864Y-126554005D01*
X187646965Y-126016777D01*
X187619778Y-125446546D01*
X187453864Y-125045995D01*
X187207745Y-124971861D01*
X186379605Y-125800000D01*
X186020395Y-125800000D01*
X186006253Y-125785858D01*
X186185858Y-125606252D01*
X186200000Y-125620395D01*
X187028139Y-124792255D01*
X187013855Y-124744833D01*
X187235317Y-124703162D01*
X187451441Y-124564090D01*
X187596431Y-124351890D01*
X187647440Y-124100000D01*
X187647440Y-123161242D01*
X192139700Y-127653502D01*
X192139700Y-131349600D01*
X192197552Y-131640439D01*
X192362299Y-131887001D01*
X192636622Y-132161324D01*
X192628569Y-132173110D01*
X192577560Y-132425000D01*
X192577560Y-134175000D01*
X192621838Y-134410317D01*
X192760910Y-134626441D01*
X192973110Y-134771431D01*
X193225000Y-134822440D01*
X193762058Y-134822440D01*
X190944798Y-137639700D01*
X187850400Y-137639700D01*
X187559561Y-137697552D01*
X187312999Y-137862299D01*
X187038676Y-138136622D01*
X187026890Y-138128569D01*
X186775000Y-138077560D01*
X185025000Y-138077560D01*
X184789683Y-138121838D01*
X184573559Y-138260910D01*
X184428569Y-138473110D01*
X184377560Y-138725000D01*
X184377560Y-140090000D01*
X181804844Y-140090000D01*
X181829226Y-140065618D01*
X181714215Y-139950607D01*
X181956397Y-139881143D01*
X182143144Y-139357698D01*
X182115362Y-138802632D01*
X181956397Y-138418857D01*
X181714213Y-138349392D01*
X180913605Y-139150000D01*
X180927748Y-139164143D01*
X180748143Y-139343748D01*
X180734000Y-139329605D01*
X180719858Y-139343748D01*
X180540253Y-139164143D01*
X180554395Y-139150000D01*
X179753787Y-138349392D01*
X179511603Y-138418857D01*
X179324856Y-138942302D01*
X179352638Y-139497368D01*
X179511603Y-139881143D01*
X179753785Y-139950607D01*
X179638774Y-140065618D01*
X179663156Y-140090000D01*
X139235000Y-140090000D01*
X139235000Y-139885750D01*
X139076250Y-139727000D01*
X137927000Y-139727000D01*
X137927000Y-139747000D01*
X137673000Y-139747000D01*
X137673000Y-139727000D01*
X136523750Y-139727000D01*
X136365000Y-139885750D01*
X136365000Y-140090000D01*
X136069302Y-140090000D01*
X135761901Y-139782599D01*
X135515339Y-139617852D01*
X135224500Y-139560000D01*
X134801293Y-139560000D01*
X134909144Y-139257698D01*
X134881362Y-138702632D01*
X134869375Y-138673691D01*
X136365000Y-138673691D01*
X136365000Y-139314250D01*
X136523750Y-139473000D01*
X137673000Y-139473000D01*
X137673000Y-138323750D01*
X137927000Y-138323750D01*
X137927000Y-139473000D01*
X139076250Y-139473000D01*
X139235000Y-139314250D01*
X139235000Y-138673691D01*
X139138327Y-138440302D01*
X138959699Y-138261673D01*
X138726310Y-138165000D01*
X138085750Y-138165000D01*
X137927000Y-138323750D01*
X137673000Y-138323750D01*
X137514250Y-138165000D01*
X136873690Y-138165000D01*
X136640301Y-138261673D01*
X136461673Y-138440302D01*
X136365000Y-138673691D01*
X134869375Y-138673691D01*
X134722397Y-138318857D01*
X134480213Y-138249392D01*
X133679605Y-139050000D01*
X133693748Y-139064143D01*
X133514143Y-139243748D01*
X133500000Y-139229605D01*
X133485858Y-139243748D01*
X133306253Y-139064143D01*
X133320395Y-139050000D01*
X132519787Y-138249392D01*
X132277603Y-138318857D01*
X132090856Y-138842302D01*
X132118638Y-139397368D01*
X132186002Y-139560000D01*
X103693338Y-139560000D01*
X103480862Y-139045771D01*
X103056463Y-138620630D01*
X102501675Y-138390262D01*
X101900960Y-138389738D01*
X101345771Y-138619138D01*
X101167797Y-138796802D01*
X101113327Y-138665301D01*
X100934698Y-138486673D01*
X100701309Y-138390000D01*
X99985750Y-138390000D01*
X99827000Y-138548750D01*
X99827000Y-139773000D01*
X99847000Y-139773000D01*
X99847000Y-140027000D01*
X99827000Y-140027000D01*
X99827000Y-141251250D01*
X99985750Y-141410000D01*
X100701309Y-141410000D01*
X100934698Y-141313327D01*
X101113327Y-141134699D01*
X101167760Y-141003286D01*
X101343537Y-141179370D01*
X101898325Y-141409738D01*
X102499040Y-141410262D01*
X103054229Y-141180862D01*
X103155267Y-141080000D01*
X132199121Y-141080000D01*
X132103243Y-141310900D01*
X132102758Y-141866661D01*
X132314990Y-142380303D01*
X132707630Y-142773629D01*
X133220900Y-142986757D01*
X133776661Y-142987242D01*
X134290303Y-142775010D01*
X134683629Y-142382370D01*
X134896757Y-141869100D01*
X134897242Y-141313339D01*
X134800829Y-141080000D01*
X134909698Y-141080000D01*
X135217099Y-141387401D01*
X135463660Y-141552148D01*
X135754500Y-141610000D01*
X136449671Y-141610000D01*
X136365250Y-141813309D01*
X136364752Y-142384187D01*
X136582757Y-142911800D01*
X136986077Y-143315824D01*
X137164713Y-143390000D01*
X89010000Y-143390000D01*
X89010000Y-140600000D01*
X89590000Y-140600000D01*
X89765838Y-141483999D01*
X90266583Y-142233417D01*
X91016001Y-142734162D01*
X91900000Y-142910000D01*
X92783999Y-142734162D01*
X93533417Y-142233417D01*
X94034162Y-141483999D01*
X94210000Y-140600000D01*
X94127601Y-140185750D01*
X98190000Y-140185750D01*
X98190000Y-140901310D01*
X98286673Y-141134699D01*
X98465302Y-141313327D01*
X98698691Y-141410000D01*
X99414250Y-141410000D01*
X99573000Y-141251250D01*
X99573000Y-140027000D01*
X98348750Y-140027000D01*
X98190000Y-140185750D01*
X94127601Y-140185750D01*
X94034162Y-139716001D01*
X93533417Y-138966583D01*
X93431808Y-138898690D01*
X98190000Y-138898690D01*
X98190000Y-139614250D01*
X98348750Y-139773000D01*
X99573000Y-139773000D01*
X99573000Y-138548750D01*
X99414250Y-138390000D01*
X98698691Y-138390000D01*
X98465302Y-138486673D01*
X98286673Y-138665301D01*
X98190000Y-138898690D01*
X93431808Y-138898690D01*
X92783999Y-138465838D01*
X91900000Y-138290000D01*
X91016001Y-138465838D01*
X90266583Y-138966583D01*
X89765838Y-139716001D01*
X89590000Y-140600000D01*
X89010000Y-140600000D01*
X89010000Y-135107745D01*
X98171861Y-135107745D01*
X98245995Y-135353864D01*
X98783223Y-135546965D01*
X99353454Y-135519778D01*
X99754005Y-135353864D01*
X99828139Y-135107745D01*
X99000000Y-134279605D01*
X98171861Y-135107745D01*
X89010000Y-135107745D01*
X89010000Y-67700000D01*
X89390000Y-67700000D01*
X89565838Y-68583999D01*
X90066583Y-69333417D01*
X90816001Y-69834162D01*
X91700000Y-70010000D01*
X92583999Y-69834162D01*
X93333417Y-69333417D01*
X93824111Y-68599040D01*
X97089738Y-68599040D01*
X97319138Y-69154229D01*
X97743537Y-69579370D01*
X98298325Y-69809738D01*
X98899040Y-69810262D01*
X99454229Y-69580862D01*
X99623103Y-69412283D01*
X99760910Y-69626441D01*
X99973110Y-69771431D01*
X100225000Y-69822440D01*
X101975000Y-69822440D01*
X102210317Y-69778162D01*
X102426441Y-69639090D01*
X102571431Y-69426890D01*
X102622440Y-69175000D01*
X102622440Y-67425000D01*
X102578162Y-67189683D01*
X102439090Y-66973559D01*
X102226890Y-66828569D01*
X101975000Y-66777560D01*
X100225000Y-66777560D01*
X99989683Y-66821838D01*
X99773559Y-66960910D01*
X99628569Y-67173110D01*
X99625214Y-67189676D01*
X99456463Y-67020630D01*
X98901675Y-66790262D01*
X98300960Y-66789738D01*
X97745771Y-67019138D01*
X97320630Y-67443537D01*
X97090262Y-67998325D01*
X97089738Y-68599040D01*
X93824111Y-68599040D01*
X93834162Y-68583999D01*
X94010000Y-67700000D01*
X93834162Y-66816001D01*
X93333417Y-66066583D01*
X92583999Y-65565838D01*
X91700000Y-65390000D01*
X90816001Y-65565838D01*
X90066583Y-66066583D01*
X89565838Y-66816001D01*
X89390000Y-67700000D01*
X89010000Y-67700000D01*
X89010000Y-64810000D01*
X137576698Y-64810000D01*
X129418198Y-72968500D01*
X129418198Y-72968500D01*
G37*
X129418198Y-72968500D02*
X115035064Y-72968500D01*
X115196757Y-72579100D01*
X115197242Y-72023339D01*
X114985010Y-71509697D01*
X114592370Y-71116371D01*
X114079100Y-70903243D01*
X113523339Y-70902758D01*
X113009697Y-71114990D01*
X112616371Y-71507630D01*
X112602930Y-71540000D01*
X111033902Y-71540000D01*
X112513902Y-70060000D01*
X112602469Y-70060000D01*
X112614990Y-70090303D01*
X113007630Y-70483629D01*
X113520900Y-70696757D01*
X114076661Y-70697242D01*
X114590303Y-70485010D01*
X114983629Y-70092370D01*
X115196757Y-69579100D01*
X115197242Y-69023339D01*
X114985010Y-68509697D01*
X114592370Y-68116371D01*
X114079100Y-67903243D01*
X113523339Y-67902758D01*
X113009697Y-68114990D01*
X112616371Y-68507630D01*
X112602930Y-68540000D01*
X112199100Y-68540000D01*
X111908261Y-68597852D01*
X111661699Y-68762599D01*
X111322440Y-69101858D01*
X111322440Y-67425000D01*
X111278162Y-67189683D01*
X111139090Y-66973559D01*
X110926890Y-66828569D01*
X110675000Y-66777560D01*
X108925000Y-66777560D01*
X108689683Y-66821838D01*
X108473559Y-66960910D01*
X108328569Y-67173110D01*
X108325214Y-67189676D01*
X108156463Y-67020630D01*
X107601675Y-66790262D01*
X107000960Y-66789738D01*
X106445771Y-67019138D01*
X106020630Y-67443537D01*
X105790262Y-67998325D01*
X105790175Y-68098223D01*
X101648798Y-72239600D01*
X91473700Y-72239600D01*
X91182861Y-72297452D01*
X90936299Y-72462199D01*
X89538699Y-73859799D01*
X89373952Y-74106361D01*
X89316100Y-74397200D01*
X89316100Y-114516100D01*
X89373952Y-114806939D01*
X89538699Y-115053501D01*
X89785817Y-115300619D01*
X89773243Y-115330900D01*
X89772758Y-115886661D01*
X89984990Y-116400303D01*
X90377630Y-116793629D01*
X90585512Y-116879949D01*
X90379697Y-116964990D01*
X89986371Y-117357630D01*
X89773243Y-117870900D01*
X89772758Y-118426661D01*
X89984990Y-118940303D01*
X90377630Y-119333629D01*
X90890900Y-119546757D01*
X91440000Y-119547236D01*
X91440000Y-123777560D01*
X91325000Y-123777560D01*
X91089683Y-123821838D01*
X90873559Y-123960910D01*
X90728569Y-124173110D01*
X90677560Y-124425000D01*
X90677560Y-126175000D01*
X90721838Y-126410317D01*
X90860910Y-126626441D01*
X91073110Y-126771431D01*
X91089676Y-126774786D01*
X90920630Y-126943537D01*
X90690262Y-127498325D01*
X90689738Y-128099040D01*
X90919138Y-128654229D01*
X91314536Y-129050318D01*
X90920630Y-129443537D01*
X90690262Y-129998325D01*
X90689738Y-130599040D01*
X90919138Y-131154229D01*
X91314536Y-131550318D01*
X90920630Y-131943537D01*
X90690262Y-132498325D01*
X90689738Y-133099040D01*
X90919138Y-133654229D01*
X91343537Y-134079370D01*
X91898325Y-134309738D01*
X92499040Y-134310262D01*
X93054229Y-134080862D01*
X93479370Y-133656463D01*
X93709738Y-133101675D01*
X93709927Y-132884729D01*
X94337299Y-133512101D01*
X94583861Y-133676848D01*
X94874700Y-133734700D01*
X97606420Y-133734700D01*
X97553035Y-133883223D01*
X97580222Y-134453454D01*
X97746136Y-134854005D01*
X97992255Y-134928139D01*
X98820395Y-134100000D01*
X98806253Y-134085858D01*
X98985858Y-133906253D01*
X99000000Y-133920395D01*
X99014143Y-133906253D01*
X99193748Y-134085858D01*
X99179605Y-134100000D01*
X100007745Y-134928139D01*
X100055167Y-134913855D01*
X100096838Y-135135317D01*
X100235910Y-135351441D01*
X100448110Y-135496431D01*
X100700000Y-135547440D01*
X102300000Y-135547440D01*
X102535317Y-135503162D01*
X102751441Y-135364090D01*
X102896431Y-135151890D01*
X102947440Y-134900000D01*
X102947440Y-133300000D01*
X102903162Y-133064683D01*
X102764090Y-132848559D01*
X102551890Y-132703569D01*
X102300000Y-132652560D01*
X100700000Y-132652560D01*
X100464683Y-132696838D01*
X100381358Y-132750456D01*
X100068201Y-132437299D01*
X99821639Y-132272552D01*
X99530800Y-132214700D01*
X95189502Y-132214700D01*
X93670639Y-130695837D01*
X93709738Y-130601675D01*
X93710262Y-130000960D01*
X93503270Y-129500000D01*
X94916887Y-129500000D01*
X95026120Y-130049151D01*
X95337189Y-130514698D01*
X95802736Y-130825767D01*
X96351887Y-130935000D01*
X96408113Y-130935000D01*
X96957264Y-130825767D01*
X97422811Y-130514698D01*
X97592995Y-130260000D01*
X100600000Y-130260000D01*
X100890839Y-130202148D01*
X101137401Y-130037401D01*
X103661546Y-127513256D01*
X103713309Y-127534750D01*
X104284187Y-127535248D01*
X104811800Y-127317243D01*
X105215824Y-126913923D01*
X105434750Y-126386691D01*
X105435248Y-125815813D01*
X105217243Y-125288200D01*
X104813923Y-124884176D01*
X104286691Y-124665250D01*
X103715813Y-124664752D01*
X103188200Y-124882757D01*
X102784176Y-125286077D01*
X102565250Y-125813309D01*
X102564752Y-126384187D01*
X102587049Y-126438149D01*
X100285198Y-128740000D01*
X97592995Y-128740000D01*
X97422811Y-128485302D01*
X96957264Y-128174233D01*
X96408113Y-128065000D01*
X96351887Y-128065000D01*
X95802736Y-128174233D01*
X95337189Y-128485302D01*
X95026120Y-128950849D01*
X94916887Y-129500000D01*
X93503270Y-129500000D01*
X93480862Y-129445771D01*
X93085464Y-129049682D01*
X93479370Y-128656463D01*
X93702503Y-128119099D01*
X95084732Y-126736870D01*
X95337189Y-127114698D01*
X95802736Y-127425767D01*
X96351887Y-127535000D01*
X96408113Y-127535000D01*
X96957264Y-127425767D01*
X97422811Y-127114698D01*
X97733880Y-126649151D01*
X97843113Y-126100000D01*
X97733880Y-125550849D01*
X97422811Y-125085302D01*
X97011278Y-124810324D01*
X98113857Y-123707745D01*
X103171861Y-123707745D01*
X103245995Y-123953864D01*
X103783223Y-124146965D01*
X104353454Y-124119778D01*
X104754005Y-123953864D01*
X104828139Y-123707745D01*
X104000000Y-122879605D01*
X103171861Y-123707745D01*
X98113857Y-123707745D01*
X99338379Y-122483223D01*
X102553035Y-122483223D01*
X102580222Y-123053454D01*
X102746136Y-123454005D01*
X102992255Y-123528139D01*
X103820395Y-122700000D01*
X104179605Y-122700000D01*
X105007745Y-123528139D01*
X105253864Y-123454005D01*
X105446965Y-122916777D01*
X105419778Y-122346546D01*
X105253864Y-121945995D01*
X105007745Y-121871861D01*
X104179605Y-122700000D01*
X103820395Y-122700000D01*
X102992255Y-121871861D01*
X102746136Y-121945995D01*
X102553035Y-122483223D01*
X99338379Y-122483223D01*
X100129347Y-121692255D01*
X103171861Y-121692255D01*
X104000000Y-122520395D01*
X104828139Y-121692255D01*
X104784285Y-121546661D01*
X105432758Y-121546661D01*
X105644990Y-122060303D01*
X106037630Y-122453629D01*
X106550900Y-122666757D01*
X107106661Y-122667242D01*
X107620303Y-122455010D01*
X108013629Y-122062370D01*
X108027070Y-122030000D01*
X112604700Y-122030000D01*
X112895539Y-121972148D01*
X113142101Y-121807401D01*
X113402841Y-121546661D01*
X118132758Y-121546661D01*
X118344990Y-122060303D01*
X118737630Y-122453629D01*
X119250900Y-122666757D01*
X119806661Y-122667242D01*
X120320303Y-122455010D01*
X120713629Y-122062370D01*
X120926757Y-121549100D01*
X120927242Y-120993339D01*
X120913857Y-120960945D01*
X122812101Y-119062701D01*
X122889116Y-118947440D01*
X124200000Y-118947440D01*
X124435317Y-118903162D01*
X124651441Y-118764090D01*
X124662685Y-118747634D01*
X125113309Y-118934750D01*
X125684187Y-118935248D01*
X126211800Y-118717243D01*
X126615824Y-118313923D01*
X126834750Y-117786691D01*
X126835248Y-117215813D01*
X126617243Y-116688200D01*
X126213923Y-116284176D01*
X125686691Y-116065250D01*
X125115813Y-116064752D01*
X124665534Y-116250803D01*
X124664090Y-116248559D01*
X124451890Y-116103569D01*
X124200000Y-116052560D01*
X122600000Y-116052560D01*
X122364683Y-116096838D01*
X122148559Y-116235910D01*
X122003569Y-116448110D01*
X121952560Y-116700000D01*
X121952560Y-116818767D01*
X121737299Y-116962599D01*
X121572552Y-117209161D01*
X121514700Y-117500000D01*
X121514700Y-118210498D01*
X119839381Y-119885817D01*
X119809100Y-119873243D01*
X119253339Y-119872758D01*
X118739697Y-120084990D01*
X118346371Y-120477630D01*
X118133243Y-120990900D01*
X118132758Y-121546661D01*
X113402841Y-121546661D01*
X122121091Y-112828411D01*
X122135910Y-112851441D01*
X122348110Y-112996431D01*
X122600000Y-113047440D01*
X124200000Y-113047440D01*
X124435317Y-113003162D01*
X124651441Y-112864090D01*
X124662685Y-112847634D01*
X125113309Y-113034750D01*
X125684187Y-113035248D01*
X126211800Y-112817243D01*
X126615824Y-112413923D01*
X126834750Y-111886691D01*
X126835248Y-111315813D01*
X126812951Y-111261851D01*
X126840202Y-111234600D01*
X127552560Y-111234600D01*
X127552560Y-112400000D01*
X127596838Y-112635317D01*
X127735910Y-112851441D01*
X127948110Y-112996431D01*
X128200000Y-113047440D01*
X129800000Y-113047440D01*
X130035317Y-113003162D01*
X130251441Y-112864090D01*
X130396431Y-112651890D01*
X130417680Y-112546959D01*
X130686077Y-112815824D01*
X131213309Y-113034750D01*
X131784187Y-113035248D01*
X132311800Y-112817243D01*
X132715824Y-112413923D01*
X132934750Y-111886691D01*
X132935248Y-111315813D01*
X132717243Y-110788200D01*
X132313923Y-110384176D01*
X131786691Y-110165250D01*
X131215813Y-110164752D01*
X131161851Y-110187049D01*
X130912001Y-109937199D01*
X130665439Y-109772452D01*
X130374600Y-109714600D01*
X126525400Y-109714600D01*
X126234561Y-109772452D01*
X125987999Y-109937199D01*
X125738454Y-110186744D01*
X125686691Y-110165250D01*
X125115813Y-110164752D01*
X124665534Y-110350803D01*
X124664090Y-110348559D01*
X124451890Y-110203569D01*
X124200000Y-110152560D01*
X122600000Y-110152560D01*
X122364683Y-110196838D01*
X122148559Y-110335910D01*
X122003569Y-110548110D01*
X121952560Y-110800000D01*
X121952560Y-110918767D01*
X121737299Y-111062599D01*
X115280852Y-117519046D01*
X115215010Y-117359697D01*
X114822370Y-116966371D01*
X114309100Y-116753243D01*
X113753339Y-116752758D01*
X113239697Y-116964990D01*
X112846371Y-117357630D01*
X112633243Y-117870900D01*
X112632758Y-118426661D01*
X112844990Y-118940303D01*
X113237630Y-119333629D01*
X113399185Y-119400713D01*
X112289898Y-120510000D01*
X108027531Y-120510000D01*
X108015010Y-120479697D01*
X107622370Y-120086371D01*
X107109100Y-119873243D01*
X106553339Y-119872758D01*
X106039697Y-120084990D01*
X105646371Y-120477630D01*
X105433243Y-120990900D01*
X105432758Y-121546661D01*
X104784285Y-121546661D01*
X104754005Y-121446136D01*
X104216777Y-121253035D01*
X103646546Y-121280222D01*
X103245995Y-121446136D01*
X103171861Y-121692255D01*
X100129347Y-121692255D01*
X110796901Y-111024701D01*
X110961648Y-110778139D01*
X111019500Y-110487300D01*
X111019500Y-107739302D01*
X112749530Y-106009272D01*
X112844990Y-106240303D01*
X113237630Y-106633629D01*
X113750900Y-106846757D01*
X114306661Y-106847242D01*
X114820303Y-106635010D01*
X115213629Y-106242370D01*
X115426757Y-105729100D01*
X115427242Y-105173339D01*
X115215010Y-104659697D01*
X114822370Y-104266371D01*
X114589236Y-104169566D01*
X116772141Y-101986661D01*
X131342758Y-101986661D01*
X131554990Y-102500303D01*
X131947630Y-102893629D01*
X132460900Y-103106757D01*
X133016661Y-103107242D01*
X133530303Y-102895010D01*
X133923629Y-102502370D01*
X134136757Y-101989100D01*
X134137242Y-101433339D01*
X133925010Y-100919697D01*
X133532370Y-100526371D01*
X133019100Y-100313243D01*
X132463339Y-100312758D01*
X131949697Y-100524990D01*
X131556371Y-100917630D01*
X131343243Y-101430900D01*
X131342758Y-101986661D01*
X116772141Y-101986661D01*
X120268589Y-98490213D01*
X122139392Y-98490213D01*
X122208857Y-98732397D01*
X122732302Y-98919144D01*
X123287368Y-98891362D01*
X123671143Y-98732397D01*
X123740608Y-98490213D01*
X122940000Y-97689605D01*
X122139392Y-98490213D01*
X120268589Y-98490213D01*
X121572097Y-97186705D01*
X121530856Y-97302302D01*
X121558638Y-97857368D01*
X121717603Y-98241143D01*
X121959787Y-98310608D01*
X122760395Y-97510000D01*
X123119605Y-97510000D01*
X123920213Y-98310608D01*
X124162397Y-98241143D01*
X124349144Y-97717698D01*
X124321362Y-97162632D01*
X124162397Y-96778857D01*
X123920213Y-96709392D01*
X123119605Y-97510000D01*
X122760395Y-97510000D01*
X122746253Y-97495858D01*
X122925858Y-97316253D01*
X122940000Y-97330395D01*
X123740608Y-96529787D01*
X123671143Y-96287603D01*
X123147698Y-96100856D01*
X122632142Y-96126660D01*
X125681802Y-93077000D01*
X131777386Y-93077000D01*
X131556371Y-93297630D01*
X131343243Y-93810900D01*
X131342758Y-94366661D01*
X131554990Y-94880303D01*
X131947630Y-95273629D01*
X132460900Y-95486757D01*
X133016661Y-95487242D01*
X133530303Y-95275010D01*
X133923629Y-94882370D01*
X134136757Y-94369100D01*
X134137242Y-93813339D01*
X133925010Y-93299697D01*
X133702701Y-93077000D01*
X148483000Y-93077000D01*
X148773839Y-93019148D01*
X149020401Y-92854401D01*
X150210619Y-91664183D01*
X150240900Y-91676757D01*
X150796661Y-91677242D01*
X151310303Y-91465010D01*
X151703629Y-91072370D01*
X151789949Y-90864488D01*
X151874990Y-91070303D01*
X152267630Y-91463629D01*
X152780900Y-91676757D01*
X153336661Y-91677242D01*
X153850303Y-91465010D01*
X154243629Y-91072370D01*
X154329949Y-90864488D01*
X154414990Y-91070303D01*
X154807630Y-91463629D01*
X155320900Y-91676757D01*
X155876661Y-91677242D01*
X156390303Y-91465010D01*
X156783629Y-91072370D01*
X156869949Y-90864488D01*
X156954990Y-91070303D01*
X157347630Y-91463629D01*
X157860900Y-91676757D01*
X158416661Y-91677242D01*
X158930303Y-91465010D01*
X159323629Y-91072370D01*
X159409949Y-90864488D01*
X159494990Y-91070303D01*
X159887630Y-91463629D01*
X160400900Y-91676757D01*
X160956661Y-91677242D01*
X161470303Y-91465010D01*
X161863629Y-91072370D01*
X161949949Y-90864488D01*
X162034990Y-91070303D01*
X162427630Y-91463629D01*
X162940900Y-91676757D01*
X163288138Y-91677060D01*
X150829381Y-104135817D01*
X150799100Y-104123243D01*
X150243339Y-104122758D01*
X149729697Y-104334990D01*
X149336371Y-104727630D01*
X149250051Y-104935512D01*
X149165010Y-104729697D01*
X148772370Y-104336371D01*
X148259100Y-104123243D01*
X147703339Y-104122758D01*
X147189697Y-104334990D01*
X146796371Y-104727630D01*
X146716605Y-104919727D01*
X146662397Y-104788857D01*
X146420213Y-104719392D01*
X145619605Y-105520000D01*
X146420213Y-106320608D01*
X146662397Y-106251143D01*
X146712509Y-106110682D01*
X146794990Y-106310303D01*
X147187630Y-106703629D01*
X147700900Y-106916757D01*
X148256661Y-106917242D01*
X148770303Y-106705010D01*
X149163629Y-106312370D01*
X149249949Y-106104488D01*
X149334990Y-106310303D01*
X149727630Y-106703629D01*
X150240900Y-106916757D01*
X150796661Y-106917242D01*
X151310303Y-106705010D01*
X151703629Y-106312370D01*
X151789949Y-106104488D01*
X151874990Y-106310303D01*
X152267630Y-106703629D01*
X152780900Y-106916757D01*
X153336661Y-106917242D01*
X153850303Y-106705010D01*
X154243629Y-106312370D01*
X154329949Y-106104488D01*
X154414990Y-106310303D01*
X154807630Y-106703629D01*
X155320900Y-106916757D01*
X155876661Y-106917242D01*
X156390303Y-106705010D01*
X156783629Y-106312370D01*
X156869949Y-106104488D01*
X156954990Y-106310303D01*
X157347630Y-106703629D01*
X157860900Y-106916757D01*
X158416661Y-106917242D01*
X158930303Y-106705010D01*
X159323629Y-106312370D01*
X159409949Y-106104488D01*
X159494990Y-106310303D01*
X159887630Y-106703629D01*
X160400900Y-106916757D01*
X160956661Y-106917242D01*
X161470303Y-106705010D01*
X161863629Y-106312370D01*
X161949949Y-106104488D01*
X162034990Y-106310303D01*
X162427630Y-106703629D01*
X162940900Y-106916757D01*
X163496661Y-106917242D01*
X164010303Y-106705010D01*
X164403629Y-106312370D01*
X164489949Y-106104488D01*
X164574990Y-106310303D01*
X164967630Y-106703629D01*
X165480900Y-106916757D01*
X166036661Y-106917242D01*
X166550303Y-106705010D01*
X166943629Y-106312370D01*
X167029949Y-106104488D01*
X167114990Y-106310303D01*
X167507630Y-106703629D01*
X168020900Y-106916757D01*
X168368138Y-106917060D01*
X167876598Y-107408600D01*
X135401837Y-107408600D01*
X135483113Y-107000000D01*
X135373880Y-106450849D01*
X135062811Y-105985302D01*
X134780491Y-105796661D01*
X136422758Y-105796661D01*
X136634990Y-106310303D01*
X137027630Y-106703629D01*
X137540900Y-106916757D01*
X138096661Y-106917242D01*
X138610303Y-106705010D01*
X139003629Y-106312370D01*
X139089949Y-106104488D01*
X139174990Y-106310303D01*
X139567630Y-106703629D01*
X140080900Y-106916757D01*
X140636661Y-106917242D01*
X141150303Y-106705010D01*
X141543629Y-106312370D01*
X141629949Y-106104488D01*
X141714990Y-106310303D01*
X142107630Y-106703629D01*
X142620900Y-106916757D01*
X143176661Y-106917242D01*
X143690303Y-106705010D01*
X143895457Y-106500213D01*
X144639392Y-106500213D01*
X144708857Y-106742397D01*
X145232302Y-106929144D01*
X145787368Y-106901362D01*
X146171143Y-106742397D01*
X146240608Y-106500213D01*
X145440000Y-105699605D01*
X144639392Y-106500213D01*
X143895457Y-106500213D01*
X144083629Y-106312370D01*
X144163395Y-106120273D01*
X144217603Y-106251143D01*
X144459787Y-106320608D01*
X145260395Y-105520000D01*
X144459787Y-104719392D01*
X144217603Y-104788857D01*
X144167491Y-104929318D01*
X144085010Y-104729697D01*
X143895432Y-104539787D01*
X144639392Y-104539787D01*
X145440000Y-105340395D01*
X146240608Y-104539787D01*
X146171143Y-104297603D01*
X145647698Y-104110856D01*
X145092632Y-104138638D01*
X144708857Y-104297603D01*
X144639392Y-104539787D01*
X143895432Y-104539787D01*
X143692370Y-104336371D01*
X143179100Y-104123243D01*
X142623339Y-104122758D01*
X142109697Y-104334990D01*
X141716371Y-104727630D01*
X141630051Y-104935512D01*
X141545010Y-104729697D01*
X141152370Y-104336371D01*
X140639100Y-104123243D01*
X140083339Y-104122758D01*
X139569697Y-104334990D01*
X139176371Y-104727630D01*
X139090051Y-104935512D01*
X139005010Y-104729697D01*
X138612370Y-104336371D01*
X138099100Y-104123243D01*
X137543339Y-104122758D01*
X137029697Y-104334990D01*
X136636371Y-104727630D01*
X136423243Y-105240900D01*
X136422758Y-105796661D01*
X134780491Y-105796661D01*
X134597264Y-105674233D01*
X134048113Y-105565000D01*
X133991887Y-105565000D01*
X133442736Y-105674233D01*
X132977189Y-105985302D01*
X132666120Y-106450849D01*
X132556887Y-107000000D01*
X132638163Y-107408600D01*
X127784129Y-107408600D01*
X127834750Y-107286691D01*
X127835248Y-106715813D01*
X127617243Y-106188200D01*
X127213923Y-105784176D01*
X126686691Y-105565250D01*
X126115813Y-105564752D01*
X125588200Y-105782757D01*
X125249764Y-106120603D01*
X124913923Y-105784176D01*
X124386691Y-105565250D01*
X123815813Y-105564752D01*
X123288200Y-105782757D01*
X122884176Y-106186077D01*
X122850187Y-106267931D01*
X122817243Y-106188200D01*
X122413923Y-105784176D01*
X121886691Y-105565250D01*
X121315813Y-105564752D01*
X120788200Y-105782757D01*
X120384176Y-106186077D01*
X120165250Y-106713309D01*
X120164752Y-107284187D01*
X120382757Y-107811800D01*
X120786077Y-108215824D01*
X121313309Y-108434750D01*
X121884187Y-108435248D01*
X122411800Y-108217243D01*
X122815824Y-107813923D01*
X122849813Y-107732069D01*
X122882757Y-107811800D01*
X123286077Y-108215824D01*
X123813309Y-108434750D01*
X124384187Y-108435248D01*
X124438149Y-108412951D01*
X124731199Y-108706001D01*
X124977761Y-108870748D01*
X125268600Y-108928600D01*
X147786598Y-108928600D01*
X147009381Y-109705817D01*
X146979100Y-109693243D01*
X146423339Y-109692758D01*
X145909697Y-109904990D01*
X145516371Y-110297630D01*
X145430051Y-110505512D01*
X145345010Y-110299697D01*
X144952370Y-109906371D01*
X144439100Y-109693243D01*
X143883339Y-109692758D01*
X143369697Y-109904990D01*
X142976371Y-110297630D01*
X142890051Y-110505512D01*
X142805010Y-110299697D01*
X142412370Y-109906371D01*
X141899100Y-109693243D01*
X141343339Y-109692758D01*
X140829697Y-109904990D01*
X140436371Y-110297630D01*
X140223243Y-110810900D01*
X140222758Y-111366661D01*
X140271613Y-111484900D01*
X138535100Y-111484900D01*
X138535248Y-111315813D01*
X138317243Y-110788200D01*
X137913923Y-110384176D01*
X137386691Y-110165250D01*
X136815813Y-110164752D01*
X136365534Y-110350803D01*
X136364090Y-110348559D01*
X136151890Y-110203569D01*
X135900000Y-110152560D01*
X134300000Y-110152560D01*
X134064683Y-110196838D01*
X133848559Y-110335910D01*
X133703569Y-110548110D01*
X133652560Y-110800000D01*
X133652560Y-112400000D01*
X133696838Y-112635317D01*
X133835910Y-112851441D01*
X134048110Y-112996431D01*
X134300000Y-113047440D01*
X134677758Y-113047440D01*
X131638454Y-116086744D01*
X131586691Y-116065250D01*
X131015813Y-116064752D01*
X130565534Y-116250803D01*
X130564090Y-116248559D01*
X130351890Y-116103569D01*
X130100000Y-116052560D01*
X128500000Y-116052560D01*
X128264683Y-116096838D01*
X128048559Y-116235910D01*
X127903569Y-116448110D01*
X127852560Y-116700000D01*
X127852560Y-118300000D01*
X127896838Y-118535317D01*
X128035910Y-118751441D01*
X128248110Y-118896431D01*
X128500000Y-118947440D01*
X130100000Y-118947440D01*
X130335317Y-118903162D01*
X130551441Y-118764090D01*
X130562685Y-118747634D01*
X131013309Y-118934750D01*
X131584187Y-118935248D01*
X132111800Y-118717243D01*
X132515824Y-118313923D01*
X132734750Y-117786691D01*
X132735248Y-117215813D01*
X132712951Y-117161851D01*
X135667402Y-114207400D01*
X146882600Y-114207400D01*
X147173439Y-114149548D01*
X147420001Y-113984801D01*
X148930619Y-112474183D01*
X148960900Y-112486757D01*
X149516661Y-112487242D01*
X150030303Y-112275010D01*
X150423629Y-111882370D01*
X150509949Y-111674488D01*
X150594990Y-111880303D01*
X150987630Y-112273629D01*
X151500900Y-112486757D01*
X152056661Y-112487242D01*
X152570303Y-112275010D01*
X152963629Y-111882370D01*
X152977070Y-111850000D01*
X154645213Y-111850000D01*
X154973170Y-112340821D01*
X155536044Y-112716922D01*
X156200000Y-112848991D01*
X156863956Y-112716922D01*
X157426830Y-112340821D01*
X157802931Y-111777947D01*
X157935000Y-111113991D01*
X157935000Y-111046009D01*
X157802931Y-110382053D01*
X157587742Y-110060000D01*
X158161354Y-110060000D01*
X158182757Y-110111800D01*
X158586077Y-110515824D01*
X158667931Y-110549813D01*
X158588200Y-110582757D01*
X158184176Y-110986077D01*
X157965250Y-111513309D01*
X157964752Y-112084187D01*
X158182757Y-112611800D01*
X158586077Y-113015824D01*
X159113309Y-113234750D01*
X159684187Y-113235248D01*
X159738149Y-113212951D01*
X163487498Y-116962300D01*
X160391737Y-116962300D01*
X160213923Y-116784176D01*
X159686691Y-116565250D01*
X159115813Y-116564752D01*
X158588200Y-116782757D01*
X158184176Y-117186077D01*
X157965250Y-117713309D01*
X157964752Y-118284187D01*
X158182757Y-118811800D01*
X158586077Y-119215824D01*
X158667931Y-119249813D01*
X158588200Y-119282757D01*
X158184176Y-119686077D01*
X158161785Y-119740000D01*
X157935000Y-119740000D01*
X157935000Y-118985750D01*
X157776250Y-118827000D01*
X156327000Y-118827000D01*
X156327000Y-118847000D01*
X156073000Y-118847000D01*
X156073000Y-118827000D01*
X154623750Y-118827000D01*
X154465000Y-118985750D01*
X154465000Y-119740000D01*
X152566328Y-119740000D01*
X152580608Y-119690213D01*
X151780000Y-118889605D01*
X150979392Y-119690213D01*
X150993672Y-119740000D01*
X150185584Y-119740000D01*
X150423629Y-119502370D01*
X150503395Y-119310273D01*
X150557603Y-119441143D01*
X150799787Y-119510608D01*
X151600395Y-118710000D01*
X151959605Y-118710000D01*
X152760213Y-119510608D01*
X153002397Y-119441143D01*
X153189144Y-118917698D01*
X153161362Y-118362632D01*
X153002397Y-117978857D01*
X152760213Y-117909392D01*
X151959605Y-118710000D01*
X151600395Y-118710000D01*
X150799787Y-117909392D01*
X150557603Y-117978857D01*
X150507491Y-118119318D01*
X150425010Y-117919697D01*
X150235432Y-117729787D01*
X150979392Y-117729787D01*
X151780000Y-118530395D01*
X152580608Y-117729787D01*
X152511143Y-117487603D01*
X152472149Y-117473691D01*
X154465000Y-117473691D01*
X154465000Y-118414250D01*
X154623750Y-118573000D01*
X156073000Y-118573000D01*
X156073000Y-117123750D01*
X156327000Y-117123750D01*
X156327000Y-118573000D01*
X157776250Y-118573000D01*
X157935000Y-118414250D01*
X157935000Y-117473691D01*
X157838327Y-117240302D01*
X157659699Y-117061673D01*
X157426310Y-116965000D01*
X156485750Y-116965000D01*
X156327000Y-117123750D01*
X156073000Y-117123750D01*
X155914250Y-116965000D01*
X154973690Y-116965000D01*
X154740301Y-117061673D01*
X154561673Y-117240302D01*
X154465000Y-117473691D01*
X152472149Y-117473691D01*
X151987698Y-117300856D01*
X151432632Y-117328638D01*
X151048857Y-117487603D01*
X150979392Y-117729787D01*
X150235432Y-117729787D01*
X150032370Y-117526371D01*
X149519100Y-117313243D01*
X148963339Y-117312758D01*
X148449697Y-117524990D01*
X148056371Y-117917630D01*
X147970051Y-118125512D01*
X147885010Y-117919697D01*
X147492370Y-117526371D01*
X146979100Y-117313243D01*
X146423339Y-117312758D01*
X145909697Y-117524990D01*
X145516371Y-117917630D01*
X145430051Y-118125512D01*
X145345010Y-117919697D01*
X144952370Y-117526371D01*
X144439100Y-117313243D01*
X143883339Y-117312758D01*
X143850945Y-117326143D01*
X143487401Y-116962599D01*
X143240839Y-116797852D01*
X142950000Y-116740000D01*
X138338646Y-116740000D01*
X138317243Y-116688200D01*
X137913923Y-116284176D01*
X137386691Y-116065250D01*
X136815813Y-116064752D01*
X136365534Y-116250803D01*
X136364090Y-116248559D01*
X136151890Y-116103569D01*
X135900000Y-116052560D01*
X134300000Y-116052560D01*
X134064683Y-116096838D01*
X133848559Y-116235910D01*
X133703569Y-116448110D01*
X133652560Y-116700000D01*
X133652560Y-118300000D01*
X133696838Y-118535317D01*
X133835910Y-118751441D01*
X134048110Y-118896431D01*
X134300000Y-118947440D01*
X135900000Y-118947440D01*
X136135317Y-118903162D01*
X136351441Y-118764090D01*
X136362685Y-118747634D01*
X136813309Y-118934750D01*
X137384187Y-118935248D01*
X137911800Y-118717243D01*
X138315824Y-118313923D01*
X138338215Y-118260000D01*
X140294207Y-118260000D01*
X140223243Y-118430900D01*
X140222758Y-118986661D01*
X140434990Y-119500303D01*
X140827630Y-119893629D01*
X141340900Y-120106757D01*
X141896661Y-120107242D01*
X142410303Y-119895010D01*
X142803629Y-119502370D01*
X142889949Y-119294488D01*
X142974990Y-119500303D01*
X143367630Y-119893629D01*
X143880900Y-120106757D01*
X144436661Y-120107242D01*
X144950303Y-119895010D01*
X145343629Y-119502370D01*
X145429949Y-119294488D01*
X145514990Y-119500303D01*
X145907630Y-119893629D01*
X146420900Y-120106757D01*
X146976661Y-120107242D01*
X147009055Y-120093857D01*
X147952599Y-121037401D01*
X148199160Y-121202148D01*
X148490000Y-121260000D01*
X158161354Y-121260000D01*
X158182757Y-121311800D01*
X158586077Y-121715824D01*
X159113309Y-121934750D01*
X159684187Y-121935248D01*
X160211800Y-121717243D01*
X160615824Y-121313923D01*
X160834750Y-120786691D01*
X160835248Y-120215813D01*
X160617243Y-119688200D01*
X160213923Y-119284176D01*
X160132069Y-119250187D01*
X160211800Y-119217243D01*
X160615824Y-118813923D01*
X160753526Y-118482300D01*
X162133423Y-118482300D01*
X162113243Y-118530900D01*
X162112758Y-119086661D01*
X162324990Y-119600303D01*
X162717630Y-119993629D01*
X163230900Y-120206757D01*
X163578138Y-120207060D01*
X159465198Y-124320000D01*
X134800879Y-124320000D01*
X134896757Y-124089100D01*
X134897242Y-123533339D01*
X134685010Y-123019697D01*
X134292370Y-122626371D01*
X133779100Y-122413243D01*
X133223339Y-122412758D01*
X132709697Y-122624990D01*
X132316371Y-123017630D01*
X132103243Y-123530900D01*
X132102758Y-124086661D01*
X132199171Y-124320000D01*
X108420000Y-124320000D01*
X108129161Y-124377852D01*
X107882599Y-124542599D01*
X104338454Y-128086744D01*
X104286691Y-128065250D01*
X103715813Y-128064752D01*
X103188200Y-128282757D01*
X102784176Y-128686077D01*
X102565250Y-129213309D01*
X102564752Y-129784187D01*
X102782757Y-130311800D01*
X103186077Y-130715824D01*
X103713309Y-130934750D01*
X104284187Y-130935248D01*
X104811800Y-130717243D01*
X105215824Y-130313923D01*
X105434750Y-129786691D01*
X105435248Y-129215813D01*
X105412951Y-129161851D01*
X108734802Y-125840000D01*
X132199121Y-125840000D01*
X132103243Y-126070900D01*
X132102758Y-126626661D01*
X132314990Y-127140303D01*
X132707630Y-127533629D01*
X132915512Y-127619949D01*
X132709697Y-127704990D01*
X132316371Y-128097630D01*
X132103243Y-128610900D01*
X132102758Y-129166661D01*
X132314990Y-129680303D01*
X132707630Y-130073629D01*
X132915512Y-130159949D01*
X132709697Y-130244990D01*
X132316371Y-130637630D01*
X132103243Y-131150900D01*
X132102758Y-131706661D01*
X132314990Y-132220303D01*
X132707630Y-132613629D01*
X132915512Y-132699949D01*
X132709697Y-132784990D01*
X132316371Y-133177630D01*
X132103243Y-133690900D01*
X132102758Y-134246661D01*
X132314990Y-134760303D01*
X132707630Y-135153629D01*
X132915512Y-135239949D01*
X132709697Y-135324990D01*
X132316371Y-135717630D01*
X132103243Y-136230900D01*
X132102758Y-136786661D01*
X132314990Y-137300303D01*
X132707630Y-137693629D01*
X132899727Y-137773395D01*
X132768857Y-137827603D01*
X132699392Y-138069787D01*
X133500000Y-138870395D01*
X134300608Y-138069787D01*
X134231143Y-137827603D01*
X134090682Y-137777491D01*
X134290303Y-137695010D01*
X134642427Y-137343500D01*
X141331200Y-137343500D01*
X141622039Y-137285648D01*
X141868601Y-137120901D01*
X142568223Y-136421279D01*
X142577189Y-136434698D01*
X143042736Y-136745767D01*
X143591887Y-136855000D01*
X143648113Y-136855000D01*
X144197264Y-136745767D01*
X144662811Y-136434698D01*
X144846437Y-136159882D01*
X145036139Y-136122148D01*
X145282701Y-135957401D01*
X146410102Y-134830000D01*
X179536469Y-134830000D01*
X179548990Y-134860303D01*
X179941630Y-135253629D01*
X180149512Y-135339949D01*
X179943697Y-135424990D01*
X179550371Y-135817630D01*
X179337243Y-136330900D01*
X179336758Y-136886661D01*
X179548990Y-137400303D01*
X179941630Y-137793629D01*
X180133727Y-137873395D01*
X180002857Y-137927603D01*
X179933392Y-138169787D01*
X180734000Y-138970395D01*
X181534608Y-138169787D01*
X181465143Y-137927603D01*
X181324682Y-137877491D01*
X181524303Y-137795010D01*
X181917629Y-137402370D01*
X182130757Y-136889100D01*
X182131242Y-136333339D01*
X182117857Y-136300945D01*
X182424401Y-135994401D01*
X182589148Y-135747840D01*
X182647000Y-135457000D01*
X182647000Y-128114802D01*
X183954057Y-126807745D01*
X185371861Y-126807745D01*
X185445995Y-127053864D01*
X185983223Y-127246965D01*
X186553454Y-127219778D01*
X186954005Y-127053864D01*
X187028139Y-126807745D01*
X186200000Y-125979605D01*
X185371861Y-126807745D01*
X183954057Y-126807745D01*
X184772400Y-125989402D01*
X184780222Y-126153454D01*
X184946136Y-126554005D01*
X185192255Y-126628139D01*
X186020395Y-125800000D01*
X186379605Y-125800000D01*
X187207745Y-126628139D01*
X187453864Y-126554005D01*
X187646965Y-126016777D01*
X187619778Y-125446546D01*
X187453864Y-125045995D01*
X187207745Y-124971861D01*
X186379605Y-125800000D01*
X186020395Y-125800000D01*
X186006253Y-125785858D01*
X186185858Y-125606252D01*
X186200000Y-125620395D01*
X187028139Y-124792255D01*
X187013855Y-124744833D01*
X187235317Y-124703162D01*
X187451441Y-124564090D01*
X187596431Y-124351890D01*
X187647440Y-124100000D01*
X187647440Y-123161242D01*
X192139700Y-127653502D01*
X192139700Y-131349600D01*
X192197552Y-131640439D01*
X192362299Y-131887001D01*
X192636622Y-132161324D01*
X192628569Y-132173110D01*
X192577560Y-132425000D01*
X192577560Y-134175000D01*
X192621838Y-134410317D01*
X192760910Y-134626441D01*
X192973110Y-134771431D01*
X193225000Y-134822440D01*
X193762058Y-134822440D01*
X190944798Y-137639700D01*
X187850400Y-137639700D01*
X187559561Y-137697552D01*
X187312999Y-137862299D01*
X187038676Y-138136622D01*
X187026890Y-138128569D01*
X186775000Y-138077560D01*
X185025000Y-138077560D01*
X184789683Y-138121838D01*
X184573559Y-138260910D01*
X184428569Y-138473110D01*
X184377560Y-138725000D01*
X184377560Y-140090000D01*
X181804844Y-140090000D01*
X181829226Y-140065618D01*
X181714215Y-139950607D01*
X181956397Y-139881143D01*
X182143144Y-139357698D01*
X182115362Y-138802632D01*
X181956397Y-138418857D01*
X181714213Y-138349392D01*
X180913605Y-139150000D01*
X180927748Y-139164143D01*
X180748143Y-139343748D01*
X180734000Y-139329605D01*
X180719858Y-139343748D01*
X180540253Y-139164143D01*
X180554395Y-139150000D01*
X179753787Y-138349392D01*
X179511603Y-138418857D01*
X179324856Y-138942302D01*
X179352638Y-139497368D01*
X179511603Y-139881143D01*
X179753785Y-139950607D01*
X179638774Y-140065618D01*
X179663156Y-140090000D01*
X139235000Y-140090000D01*
X139235000Y-139885750D01*
X139076250Y-139727000D01*
X137927000Y-139727000D01*
X137927000Y-139747000D01*
X137673000Y-139747000D01*
X137673000Y-139727000D01*
X136523750Y-139727000D01*
X136365000Y-139885750D01*
X136365000Y-140090000D01*
X136069302Y-140090000D01*
X135761901Y-139782599D01*
X135515339Y-139617852D01*
X135224500Y-139560000D01*
X134801293Y-139560000D01*
X134909144Y-139257698D01*
X134881362Y-138702632D01*
X134869375Y-138673691D01*
X136365000Y-138673691D01*
X136365000Y-139314250D01*
X136523750Y-139473000D01*
X137673000Y-139473000D01*
X137673000Y-138323750D01*
X137927000Y-138323750D01*
X137927000Y-139473000D01*
X139076250Y-139473000D01*
X139235000Y-139314250D01*
X139235000Y-138673691D01*
X139138327Y-138440302D01*
X138959699Y-138261673D01*
X138726310Y-138165000D01*
X138085750Y-138165000D01*
X137927000Y-138323750D01*
X137673000Y-138323750D01*
X137514250Y-138165000D01*
X136873690Y-138165000D01*
X136640301Y-138261673D01*
X136461673Y-138440302D01*
X136365000Y-138673691D01*
X134869375Y-138673691D01*
X134722397Y-138318857D01*
X134480213Y-138249392D01*
X133679605Y-139050000D01*
X133693748Y-139064143D01*
X133514143Y-139243748D01*
X133500000Y-139229605D01*
X133485858Y-139243748D01*
X133306253Y-139064143D01*
X133320395Y-139050000D01*
X132519787Y-138249392D01*
X132277603Y-138318857D01*
X132090856Y-138842302D01*
X132118638Y-139397368D01*
X132186002Y-139560000D01*
X103693338Y-139560000D01*
X103480862Y-139045771D01*
X103056463Y-138620630D01*
X102501675Y-138390262D01*
X101900960Y-138389738D01*
X101345771Y-138619138D01*
X101167797Y-138796802D01*
X101113327Y-138665301D01*
X100934698Y-138486673D01*
X100701309Y-138390000D01*
X99985750Y-138390000D01*
X99827000Y-138548750D01*
X99827000Y-139773000D01*
X99847000Y-139773000D01*
X99847000Y-140027000D01*
X99827000Y-140027000D01*
X99827000Y-141251250D01*
X99985750Y-141410000D01*
X100701309Y-141410000D01*
X100934698Y-141313327D01*
X101113327Y-141134699D01*
X101167760Y-141003286D01*
X101343537Y-141179370D01*
X101898325Y-141409738D01*
X102499040Y-141410262D01*
X103054229Y-141180862D01*
X103155267Y-141080000D01*
X132199121Y-141080000D01*
X132103243Y-141310900D01*
X132102758Y-141866661D01*
X132314990Y-142380303D01*
X132707630Y-142773629D01*
X133220900Y-142986757D01*
X133776661Y-142987242D01*
X134290303Y-142775010D01*
X134683629Y-142382370D01*
X134896757Y-141869100D01*
X134897242Y-141313339D01*
X134800829Y-141080000D01*
X134909698Y-141080000D01*
X135217099Y-141387401D01*
X135463660Y-141552148D01*
X135754500Y-141610000D01*
X136449671Y-141610000D01*
X136365250Y-141813309D01*
X136364752Y-142384187D01*
X136582757Y-142911800D01*
X136986077Y-143315824D01*
X137164713Y-143390000D01*
X89010000Y-143390000D01*
X89010000Y-140600000D01*
X89590000Y-140600000D01*
X89765838Y-141483999D01*
X90266583Y-142233417D01*
X91016001Y-142734162D01*
X91900000Y-142910000D01*
X92783999Y-142734162D01*
X93533417Y-142233417D01*
X94034162Y-141483999D01*
X94210000Y-140600000D01*
X94127601Y-140185750D01*
X98190000Y-140185750D01*
X98190000Y-140901310D01*
X98286673Y-141134699D01*
X98465302Y-141313327D01*
X98698691Y-141410000D01*
X99414250Y-141410000D01*
X99573000Y-141251250D01*
X99573000Y-140027000D01*
X98348750Y-140027000D01*
X98190000Y-140185750D01*
X94127601Y-140185750D01*
X94034162Y-139716001D01*
X93533417Y-138966583D01*
X93431808Y-138898690D01*
X98190000Y-138898690D01*
X98190000Y-139614250D01*
X98348750Y-139773000D01*
X99573000Y-139773000D01*
X99573000Y-138548750D01*
X99414250Y-138390000D01*
X98698691Y-138390000D01*
X98465302Y-138486673D01*
X98286673Y-138665301D01*
X98190000Y-138898690D01*
X93431808Y-138898690D01*
X92783999Y-138465838D01*
X91900000Y-138290000D01*
X91016001Y-138465838D01*
X90266583Y-138966583D01*
X89765838Y-139716001D01*
X89590000Y-140600000D01*
X89010000Y-140600000D01*
X89010000Y-135107745D01*
X98171861Y-135107745D01*
X98245995Y-135353864D01*
X98783223Y-135546965D01*
X99353454Y-135519778D01*
X99754005Y-135353864D01*
X99828139Y-135107745D01*
X99000000Y-134279605D01*
X98171861Y-135107745D01*
X89010000Y-135107745D01*
X89010000Y-67700000D01*
X89390000Y-67700000D01*
X89565838Y-68583999D01*
X90066583Y-69333417D01*
X90816001Y-69834162D01*
X91700000Y-70010000D01*
X92583999Y-69834162D01*
X93333417Y-69333417D01*
X93824111Y-68599040D01*
X97089738Y-68599040D01*
X97319138Y-69154229D01*
X97743537Y-69579370D01*
X98298325Y-69809738D01*
X98899040Y-69810262D01*
X99454229Y-69580862D01*
X99623103Y-69412283D01*
X99760910Y-69626441D01*
X99973110Y-69771431D01*
X100225000Y-69822440D01*
X101975000Y-69822440D01*
X102210317Y-69778162D01*
X102426441Y-69639090D01*
X102571431Y-69426890D01*
X102622440Y-69175000D01*
X102622440Y-67425000D01*
X102578162Y-67189683D01*
X102439090Y-66973559D01*
X102226890Y-66828569D01*
X101975000Y-66777560D01*
X100225000Y-66777560D01*
X99989683Y-66821838D01*
X99773559Y-66960910D01*
X99628569Y-67173110D01*
X99625214Y-67189676D01*
X99456463Y-67020630D01*
X98901675Y-66790262D01*
X98300960Y-66789738D01*
X97745771Y-67019138D01*
X97320630Y-67443537D01*
X97090262Y-67998325D01*
X97089738Y-68599040D01*
X93824111Y-68599040D01*
X93834162Y-68583999D01*
X94010000Y-67700000D01*
X93834162Y-66816001D01*
X93333417Y-66066583D01*
X92583999Y-65565838D01*
X91700000Y-65390000D01*
X90816001Y-65565838D01*
X90066583Y-66066583D01*
X89565838Y-66816001D01*
X89390000Y-67700000D01*
X89010000Y-67700000D01*
X89010000Y-64810000D01*
X137576698Y-64810000D01*
X129418198Y-72968500D01*
G36*
X142577189Y-133894698D02*
X142959275Y-134150000D01*
X142577189Y-134405302D01*
X142393563Y-134680118D01*
X142252114Y-134708254D01*
X142203860Y-134717852D01*
X141957299Y-134882599D01*
X141016398Y-135823500D01*
X137369347Y-135823500D01*
X137391904Y-135769039D01*
X137269915Y-135547000D01*
X136127000Y-135547000D01*
X136127000Y-135567000D01*
X135873000Y-135567000D01*
X135873000Y-135547000D01*
X134730085Y-135547000D01*
X134652885Y-135687516D01*
X134292370Y-135326371D01*
X134084488Y-135240051D01*
X134290303Y-135155010D01*
X134625898Y-134820000D01*
X134712040Y-134820000D01*
X134608096Y-135070961D01*
X134730085Y-135293000D01*
X135873000Y-135293000D01*
X135873000Y-135273000D01*
X136127000Y-135273000D01*
X136127000Y-135293000D01*
X137269915Y-135293000D01*
X137391904Y-135070961D01*
X137287960Y-134820000D01*
X141314700Y-134820000D01*
X141605539Y-134762148D01*
X141852101Y-134597401D01*
X142568223Y-133881279D01*
X142577189Y-133894698D01*
X142577189Y-133894698D01*
G37*
X142577189Y-133894698D02*
X142959275Y-134150000D01*
X142577189Y-134405302D01*
X142393563Y-134680118D01*
X142252114Y-134708254D01*
X142203860Y-134717852D01*
X141957299Y-134882599D01*
X141016398Y-135823500D01*
X137369347Y-135823500D01*
X137391904Y-135769039D01*
X137269915Y-135547000D01*
X136127000Y-135547000D01*
X136127000Y-135567000D01*
X135873000Y-135567000D01*
X135873000Y-135547000D01*
X134730085Y-135547000D01*
X134652885Y-135687516D01*
X134292370Y-135326371D01*
X134084488Y-135240051D01*
X134290303Y-135155010D01*
X134625898Y-134820000D01*
X134712040Y-134820000D01*
X134608096Y-135070961D01*
X134730085Y-135293000D01*
X135873000Y-135293000D01*
X135873000Y-135273000D01*
X136127000Y-135273000D01*
X136127000Y-135293000D01*
X137269915Y-135293000D01*
X137391904Y-135070961D01*
X137287960Y-134820000D01*
X141314700Y-134820000D01*
X141605539Y-134762148D01*
X141852101Y-134597401D01*
X142568223Y-133881279D01*
X142577189Y-133894698D01*
G36*
X173472499Y-108244401D02*
X173719060Y-108409148D01*
X174009900Y-108467000D01*
X182573498Y-108467000D01*
X185075634Y-110969136D01*
X184741246Y-111192567D01*
X184383354Y-111728190D01*
X184257679Y-112360000D01*
X184383354Y-112991810D01*
X184741246Y-113527433D01*
X184894748Y-113630000D01*
X184741246Y-113732567D01*
X184383354Y-114268190D01*
X184257679Y-114900000D01*
X184383354Y-115531810D01*
X184741246Y-116067433D01*
X184894748Y-116170000D01*
X184741246Y-116272567D01*
X184383354Y-116808190D01*
X184348353Y-116984151D01*
X182050000Y-114685798D01*
X182050000Y-112387531D01*
X182080303Y-112375010D01*
X182473629Y-111982370D01*
X182686757Y-111469100D01*
X182687242Y-110913339D01*
X182475010Y-110399697D01*
X182082370Y-110006371D01*
X181569100Y-109793243D01*
X181013339Y-109792758D01*
X180499697Y-110004990D01*
X180370882Y-110133580D01*
X179800101Y-109562799D01*
X179553539Y-109398052D01*
X179262700Y-109340200D01*
X174759800Y-109340200D01*
X174468961Y-109398052D01*
X174222399Y-109562799D01*
X173979381Y-109805817D01*
X173949100Y-109793243D01*
X173393339Y-109792758D01*
X172879697Y-110004990D01*
X172486371Y-110397630D01*
X172400051Y-110605512D01*
X172315010Y-110399697D01*
X171922370Y-110006371D01*
X171409100Y-109793243D01*
X170853339Y-109792758D01*
X170339697Y-110004990D01*
X169946371Y-110397630D01*
X169866605Y-110589727D01*
X169812397Y-110458857D01*
X169570213Y-110389392D01*
X168769605Y-111190000D01*
X169570213Y-111990608D01*
X169812397Y-111921143D01*
X169862509Y-111780682D01*
X169944990Y-111980303D01*
X170337630Y-112373629D01*
X170850900Y-112586757D01*
X171406661Y-112587242D01*
X171920303Y-112375010D01*
X172313629Y-111982370D01*
X172399949Y-111774488D01*
X172484990Y-111980303D01*
X172877630Y-112373629D01*
X173390900Y-112586757D01*
X173946661Y-112587242D01*
X174460303Y-112375010D01*
X174853629Y-111982370D01*
X174939949Y-111774488D01*
X175024990Y-111980303D01*
X175417630Y-112373629D01*
X175930900Y-112586757D01*
X176486661Y-112587242D01*
X177000303Y-112375010D01*
X177393629Y-111982370D01*
X177473395Y-111790273D01*
X177527603Y-111921143D01*
X177769787Y-111990608D01*
X178570395Y-111190000D01*
X178556253Y-111175858D01*
X178735858Y-110996253D01*
X178750000Y-111010395D01*
X178764143Y-110996253D01*
X178943748Y-111175858D01*
X178929605Y-111190000D01*
X178943748Y-111204143D01*
X178764143Y-111383748D01*
X178750000Y-111369605D01*
X177949392Y-112170213D01*
X178018857Y-112412397D01*
X178542302Y-112599144D01*
X179097368Y-112571362D01*
X179260000Y-112503998D01*
X179260000Y-114459000D01*
X179317852Y-114749839D01*
X179482599Y-114996401D01*
X186338758Y-121852560D01*
X185400000Y-121852560D01*
X185164683Y-121896838D01*
X184948559Y-122035910D01*
X184803569Y-122248110D01*
X184752560Y-122500000D01*
X184752560Y-123869015D01*
X184724299Y-123887898D01*
X182130973Y-126481224D01*
X182131242Y-126173339D01*
X181919010Y-125659697D01*
X181526370Y-125266371D01*
X181013100Y-125053243D01*
X180457339Y-125052758D01*
X179943697Y-125264990D01*
X179550371Y-125657630D01*
X179337243Y-126170900D01*
X179336758Y-126726661D01*
X179466227Y-127040000D01*
X144832995Y-127040000D01*
X144662811Y-126785302D01*
X144197264Y-126474233D01*
X143648113Y-126365000D01*
X143591887Y-126365000D01*
X143042736Y-126474233D01*
X142577189Y-126785302D01*
X142266120Y-127250849D01*
X142156887Y-127800000D01*
X142266120Y-128349151D01*
X142577189Y-128814698D01*
X142981703Y-129084986D01*
X142764866Y-129187611D01*
X142388959Y-129602577D01*
X142228096Y-129990961D01*
X142350085Y-130213000D01*
X143493000Y-130213000D01*
X143493000Y-130193000D01*
X143747000Y-130193000D01*
X143747000Y-130213000D01*
X144889915Y-130213000D01*
X145011904Y-129990961D01*
X144851041Y-129602577D01*
X144475134Y-129187611D01*
X144258297Y-129084986D01*
X144662811Y-128814698D01*
X144832995Y-128560000D01*
X179399902Y-128560000D01*
X179337243Y-128710900D01*
X179336758Y-129266661D01*
X179548990Y-129780303D01*
X179941630Y-130173629D01*
X180149512Y-130259949D01*
X179943697Y-130344990D01*
X179550371Y-130737630D01*
X179536930Y-130770000D01*
X146095300Y-130770000D01*
X145804460Y-130827852D01*
X145557899Y-130992599D01*
X144671777Y-131878721D01*
X144662811Y-131865302D01*
X144258297Y-131595014D01*
X144475134Y-131492389D01*
X144851041Y-131077423D01*
X145011904Y-130689039D01*
X144889915Y-130467000D01*
X143747000Y-130467000D01*
X143747000Y-130487000D01*
X143493000Y-130487000D01*
X143493000Y-130467000D01*
X142350085Y-130467000D01*
X142228096Y-130689039D01*
X142388959Y-131077423D01*
X142764866Y-131492389D01*
X142981703Y-131595014D01*
X142577189Y-131865302D01*
X142393563Y-132140118D01*
X142203861Y-132177852D01*
X141957299Y-132342599D01*
X140999898Y-133300000D01*
X137362513Y-133300000D01*
X137391904Y-133229039D01*
X137269915Y-133007000D01*
X136127000Y-133007000D01*
X136127000Y-133027000D01*
X135873000Y-133027000D01*
X135873000Y-133007000D01*
X134730085Y-133007000D01*
X134652885Y-133147516D01*
X134292370Y-132786371D01*
X134084488Y-132700051D01*
X134290303Y-132615010D01*
X134683629Y-132222370D01*
X134896757Y-131709100D01*
X134897185Y-131218972D01*
X135144866Y-131492389D01*
X135393367Y-131610000D01*
X135144866Y-131727611D01*
X134768959Y-132142577D01*
X134608096Y-132530961D01*
X134730085Y-132753000D01*
X135873000Y-132753000D01*
X135873000Y-130467000D01*
X136127000Y-130467000D01*
X136127000Y-132753000D01*
X137269915Y-132753000D01*
X137391904Y-132530961D01*
X137231041Y-132142577D01*
X136855134Y-131727611D01*
X136606633Y-131610000D01*
X136855134Y-131492389D01*
X137231041Y-131077423D01*
X137391904Y-130689039D01*
X137269915Y-130467000D01*
X136127000Y-130467000D01*
X135873000Y-130467000D01*
X134730085Y-130467000D01*
X134652885Y-130607516D01*
X134292370Y-130246371D01*
X134084488Y-130160051D01*
X134290303Y-130075010D01*
X134683629Y-129682370D01*
X134896757Y-129169100D01*
X134896763Y-129161714D01*
X135073691Y-129235000D01*
X135101938Y-129235000D01*
X134768959Y-129602577D01*
X134608096Y-129990961D01*
X134730085Y-130213000D01*
X135873000Y-130213000D01*
X135873000Y-127927000D01*
X136127000Y-127927000D01*
X136127000Y-130213000D01*
X137269915Y-130213000D01*
X137391904Y-129990961D01*
X137231041Y-129602577D01*
X136898062Y-129235000D01*
X136926309Y-129235000D01*
X137159698Y-129138327D01*
X137338327Y-128959699D01*
X137435000Y-128726310D01*
X137435000Y-128085750D01*
X137276250Y-127927000D01*
X136127000Y-127927000D01*
X135873000Y-127927000D01*
X134723750Y-127927000D01*
X134618090Y-128032660D01*
X134292370Y-127706371D01*
X134084488Y-127620051D01*
X134290303Y-127535010D01*
X134565000Y-127260792D01*
X134565000Y-127514250D01*
X134723750Y-127673000D01*
X135873000Y-127673000D01*
X135873000Y-126523750D01*
X136127000Y-126523750D01*
X136127000Y-127673000D01*
X137276250Y-127673000D01*
X137435000Y-127514250D01*
X137435000Y-126873690D01*
X137338327Y-126640301D01*
X137159698Y-126461673D01*
X136926309Y-126365000D01*
X136285750Y-126365000D01*
X136127000Y-126523750D01*
X135873000Y-126523750D01*
X135714250Y-126365000D01*
X135073691Y-126365000D01*
X134896924Y-126438220D01*
X134897242Y-126073339D01*
X134800829Y-125840000D01*
X159780000Y-125840000D01*
X160070839Y-125782148D01*
X160317401Y-125617401D01*
X165740619Y-120194183D01*
X165770900Y-120206757D01*
X166326661Y-120207242D01*
X166359055Y-120193857D01*
X166604099Y-120438901D01*
X166850661Y-120603648D01*
X167141500Y-120661500D01*
X180198500Y-120661500D01*
X180489339Y-120603648D01*
X180735901Y-120438901D01*
X180980619Y-120194183D01*
X181010900Y-120206757D01*
X181566661Y-120207242D01*
X182080303Y-119995010D01*
X182473629Y-119602370D01*
X182686757Y-119089100D01*
X182687242Y-118533339D01*
X182475010Y-118019697D01*
X182082370Y-117626371D01*
X181569100Y-117413243D01*
X181013339Y-117412758D01*
X180499697Y-117624990D01*
X180106371Y-118017630D01*
X180026605Y-118209727D01*
X179972397Y-118078857D01*
X179730213Y-118009392D01*
X178929605Y-118810000D01*
X178943748Y-118824143D01*
X178764143Y-119003748D01*
X178750000Y-118989605D01*
X178735858Y-119003748D01*
X178556253Y-118824143D01*
X178570395Y-118810000D01*
X177769787Y-118009392D01*
X177527603Y-118078857D01*
X177477491Y-118219318D01*
X177395010Y-118019697D01*
X177205432Y-117829787D01*
X177949392Y-117829787D01*
X178750000Y-118630395D01*
X179550608Y-117829787D01*
X179481143Y-117587603D01*
X178957698Y-117400856D01*
X178402632Y-117428638D01*
X178018857Y-117587603D01*
X177949392Y-117829787D01*
X177205432Y-117829787D01*
X177002370Y-117626371D01*
X176489100Y-117413243D01*
X175933339Y-117412758D01*
X175900945Y-117426143D01*
X174390001Y-115915199D01*
X174143439Y-115750452D01*
X173852600Y-115692600D01*
X164367402Y-115692600D01*
X160813256Y-112138454D01*
X160834750Y-112086691D01*
X160835248Y-111515813D01*
X160814939Y-111466661D01*
X162112758Y-111466661D01*
X162324990Y-111980303D01*
X162717630Y-112373629D01*
X163230900Y-112586757D01*
X163786661Y-112587242D01*
X164300303Y-112375010D01*
X164693629Y-111982370D01*
X164779949Y-111774488D01*
X164864990Y-111980303D01*
X165257630Y-112373629D01*
X165770900Y-112586757D01*
X166326661Y-112587242D01*
X166840303Y-112375010D01*
X167045457Y-112170213D01*
X167789392Y-112170213D01*
X167858857Y-112412397D01*
X168382302Y-112599144D01*
X168937368Y-112571362D01*
X169321143Y-112412397D01*
X169390608Y-112170213D01*
X168590000Y-111369605D01*
X167789392Y-112170213D01*
X167045457Y-112170213D01*
X167233629Y-111982370D01*
X167313395Y-111790273D01*
X167367603Y-111921143D01*
X167609787Y-111990608D01*
X168410395Y-111190000D01*
X167609787Y-110389392D01*
X167367603Y-110458857D01*
X167317491Y-110599318D01*
X167235010Y-110399697D01*
X167045432Y-110209787D01*
X167789392Y-110209787D01*
X168590000Y-111010395D01*
X169390608Y-110209787D01*
X169321143Y-109967603D01*
X168797698Y-109780856D01*
X168242632Y-109808638D01*
X167858857Y-109967603D01*
X167789392Y-110209787D01*
X167045432Y-110209787D01*
X166842370Y-110006371D01*
X166329100Y-109793243D01*
X165773339Y-109792758D01*
X165259697Y-110004990D01*
X164866371Y-110397630D01*
X164780051Y-110605512D01*
X164695010Y-110399697D01*
X164302370Y-110006371D01*
X163789100Y-109793243D01*
X163233339Y-109792758D01*
X162719697Y-110004990D01*
X162326371Y-110397630D01*
X162113243Y-110910900D01*
X162112758Y-111466661D01*
X160814939Y-111466661D01*
X160617243Y-110988200D01*
X160213923Y-110584176D01*
X160132069Y-110550187D01*
X160211800Y-110517243D01*
X160615824Y-110113923D01*
X160834750Y-109586691D01*
X160835248Y-109015813D01*
X160799212Y-108928600D01*
X168191400Y-108928600D01*
X168482239Y-108870748D01*
X168728801Y-108706001D01*
X170530619Y-106904183D01*
X170560900Y-106916757D01*
X171116661Y-106917242D01*
X171630303Y-106705010D01*
X171781838Y-106553740D01*
X173472499Y-108244401D01*
X173472499Y-108244401D01*
G37*
X173472499Y-108244401D02*
X173719060Y-108409148D01*
X174009900Y-108467000D01*
X182573498Y-108467000D01*
X185075634Y-110969136D01*
X184741246Y-111192567D01*
X184383354Y-111728190D01*
X184257679Y-112360000D01*
X184383354Y-112991810D01*
X184741246Y-113527433D01*
X184894748Y-113630000D01*
X184741246Y-113732567D01*
X184383354Y-114268190D01*
X184257679Y-114900000D01*
X184383354Y-115531810D01*
X184741246Y-116067433D01*
X184894748Y-116170000D01*
X184741246Y-116272567D01*
X184383354Y-116808190D01*
X184348353Y-116984151D01*
X182050000Y-114685798D01*
X182050000Y-112387531D01*
X182080303Y-112375010D01*
X182473629Y-111982370D01*
X182686757Y-111469100D01*
X182687242Y-110913339D01*
X182475010Y-110399697D01*
X182082370Y-110006371D01*
X181569100Y-109793243D01*
X181013339Y-109792758D01*
X180499697Y-110004990D01*
X180370882Y-110133580D01*
X179800101Y-109562799D01*
X179553539Y-109398052D01*
X179262700Y-109340200D01*
X174759800Y-109340200D01*
X174468961Y-109398052D01*
X174222399Y-109562799D01*
X173979381Y-109805817D01*
X173949100Y-109793243D01*
X173393339Y-109792758D01*
X172879697Y-110004990D01*
X172486371Y-110397630D01*
X172400051Y-110605512D01*
X172315010Y-110399697D01*
X171922370Y-110006371D01*
X171409100Y-109793243D01*
X170853339Y-109792758D01*
X170339697Y-110004990D01*
X169946371Y-110397630D01*
X169866605Y-110589727D01*
X169812397Y-110458857D01*
X169570213Y-110389392D01*
X168769605Y-111190000D01*
X169570213Y-111990608D01*
X169812397Y-111921143D01*
X169862509Y-111780682D01*
X169944990Y-111980303D01*
X170337630Y-112373629D01*
X170850900Y-112586757D01*
X171406661Y-112587242D01*
X171920303Y-112375010D01*
X172313629Y-111982370D01*
X172399949Y-111774488D01*
X172484990Y-111980303D01*
X172877630Y-112373629D01*
X173390900Y-112586757D01*
X173946661Y-112587242D01*
X174460303Y-112375010D01*
X174853629Y-111982370D01*
X174939949Y-111774488D01*
X175024990Y-111980303D01*
X175417630Y-112373629D01*
X175930900Y-112586757D01*
X176486661Y-112587242D01*
X177000303Y-112375010D01*
X177393629Y-111982370D01*
X177473395Y-111790273D01*
X177527603Y-111921143D01*
X177769787Y-111990608D01*
X178570395Y-111190000D01*
X178556253Y-111175858D01*
X178735858Y-110996253D01*
X178750000Y-111010395D01*
X178764143Y-110996253D01*
X178943748Y-111175858D01*
X178929605Y-111190000D01*
X178943748Y-111204143D01*
X178764143Y-111383748D01*
X178750000Y-111369605D01*
X177949392Y-112170213D01*
X178018857Y-112412397D01*
X178542302Y-112599144D01*
X179097368Y-112571362D01*
X179260000Y-112503998D01*
X179260000Y-114459000D01*
X179317852Y-114749839D01*
X179482599Y-114996401D01*
X186338758Y-121852560D01*
X185400000Y-121852560D01*
X185164683Y-121896838D01*
X184948559Y-122035910D01*
X184803569Y-122248110D01*
X184752560Y-122500000D01*
X184752560Y-123869015D01*
X184724299Y-123887898D01*
X182130973Y-126481224D01*
X182131242Y-126173339D01*
X181919010Y-125659697D01*
X181526370Y-125266371D01*
X181013100Y-125053243D01*
X180457339Y-125052758D01*
X179943697Y-125264990D01*
X179550371Y-125657630D01*
X179337243Y-126170900D01*
X179336758Y-126726661D01*
X179466227Y-127040000D01*
X144832995Y-127040000D01*
X144662811Y-126785302D01*
X144197264Y-126474233D01*
X143648113Y-126365000D01*
X143591887Y-126365000D01*
X143042736Y-126474233D01*
X142577189Y-126785302D01*
X142266120Y-127250849D01*
X142156887Y-127800000D01*
X142266120Y-128349151D01*
X142577189Y-128814698D01*
X142981703Y-129084986D01*
X142764866Y-129187611D01*
X142388959Y-129602577D01*
X142228096Y-129990961D01*
X142350085Y-130213000D01*
X143493000Y-130213000D01*
X143493000Y-130193000D01*
X143747000Y-130193000D01*
X143747000Y-130213000D01*
X144889915Y-130213000D01*
X145011904Y-129990961D01*
X144851041Y-129602577D01*
X144475134Y-129187611D01*
X144258297Y-129084986D01*
X144662811Y-128814698D01*
X144832995Y-128560000D01*
X179399902Y-128560000D01*
X179337243Y-128710900D01*
X179336758Y-129266661D01*
X179548990Y-129780303D01*
X179941630Y-130173629D01*
X180149512Y-130259949D01*
X179943697Y-130344990D01*
X179550371Y-130737630D01*
X179536930Y-130770000D01*
X146095300Y-130770000D01*
X145804460Y-130827852D01*
X145557899Y-130992599D01*
X144671777Y-131878721D01*
X144662811Y-131865302D01*
X144258297Y-131595014D01*
X144475134Y-131492389D01*
X144851041Y-131077423D01*
X145011904Y-130689039D01*
X144889915Y-130467000D01*
X143747000Y-130467000D01*
X143747000Y-130487000D01*
X143493000Y-130487000D01*
X143493000Y-130467000D01*
X142350085Y-130467000D01*
X142228096Y-130689039D01*
X142388959Y-131077423D01*
X142764866Y-131492389D01*
X142981703Y-131595014D01*
X142577189Y-131865302D01*
X142393563Y-132140118D01*
X142203861Y-132177852D01*
X141957299Y-132342599D01*
X140999898Y-133300000D01*
X137362513Y-133300000D01*
X137391904Y-133229039D01*
X137269915Y-133007000D01*
X136127000Y-133007000D01*
X136127000Y-133027000D01*
X135873000Y-133027000D01*
X135873000Y-133007000D01*
X134730085Y-133007000D01*
X134652885Y-133147516D01*
X134292370Y-132786371D01*
X134084488Y-132700051D01*
X134290303Y-132615010D01*
X134683629Y-132222370D01*
X134896757Y-131709100D01*
X134897185Y-131218972D01*
X135144866Y-131492389D01*
X135393367Y-131610000D01*
X135144866Y-131727611D01*
X134768959Y-132142577D01*
X134608096Y-132530961D01*
X134730085Y-132753000D01*
X135873000Y-132753000D01*
X135873000Y-130467000D01*
X136127000Y-130467000D01*
X136127000Y-132753000D01*
X137269915Y-132753000D01*
X137391904Y-132530961D01*
X137231041Y-132142577D01*
X136855134Y-131727611D01*
X136606633Y-131610000D01*
X136855134Y-131492389D01*
X137231041Y-131077423D01*
X137391904Y-130689039D01*
X137269915Y-130467000D01*
X136127000Y-130467000D01*
X135873000Y-130467000D01*
X134730085Y-130467000D01*
X134652885Y-130607516D01*
X134292370Y-130246371D01*
X134084488Y-130160051D01*
X134290303Y-130075010D01*
X134683629Y-129682370D01*
X134896757Y-129169100D01*
X134896763Y-129161714D01*
X135073691Y-129235000D01*
X135101938Y-129235000D01*
X134768959Y-129602577D01*
X134608096Y-129990961D01*
X134730085Y-130213000D01*
X135873000Y-130213000D01*
X135873000Y-127927000D01*
X136127000Y-127927000D01*
X136127000Y-130213000D01*
X137269915Y-130213000D01*
X137391904Y-129990961D01*
X137231041Y-129602577D01*
X136898062Y-129235000D01*
X136926309Y-129235000D01*
X137159698Y-129138327D01*
X137338327Y-128959699D01*
X137435000Y-128726310D01*
X137435000Y-128085750D01*
X137276250Y-127927000D01*
X136127000Y-127927000D01*
X135873000Y-127927000D01*
X134723750Y-127927000D01*
X134618090Y-128032660D01*
X134292370Y-127706371D01*
X134084488Y-127620051D01*
X134290303Y-127535010D01*
X134565000Y-127260792D01*
X134565000Y-127514250D01*
X134723750Y-127673000D01*
X135873000Y-127673000D01*
X135873000Y-126523750D01*
X136127000Y-126523750D01*
X136127000Y-127673000D01*
X137276250Y-127673000D01*
X137435000Y-127514250D01*
X137435000Y-126873690D01*
X137338327Y-126640301D01*
X137159698Y-126461673D01*
X136926309Y-126365000D01*
X136285750Y-126365000D01*
X136127000Y-126523750D01*
X135873000Y-126523750D01*
X135714250Y-126365000D01*
X135073691Y-126365000D01*
X134896924Y-126438220D01*
X134897242Y-126073339D01*
X134800829Y-125840000D01*
X159780000Y-125840000D01*
X160070839Y-125782148D01*
X160317401Y-125617401D01*
X165740619Y-120194183D01*
X165770900Y-120206757D01*
X166326661Y-120207242D01*
X166359055Y-120193857D01*
X166604099Y-120438901D01*
X166850661Y-120603648D01*
X167141500Y-120661500D01*
X180198500Y-120661500D01*
X180489339Y-120603648D01*
X180735901Y-120438901D01*
X180980619Y-120194183D01*
X181010900Y-120206757D01*
X181566661Y-120207242D01*
X182080303Y-119995010D01*
X182473629Y-119602370D01*
X182686757Y-119089100D01*
X182687242Y-118533339D01*
X182475010Y-118019697D01*
X182082370Y-117626371D01*
X181569100Y-117413243D01*
X181013339Y-117412758D01*
X180499697Y-117624990D01*
X180106371Y-118017630D01*
X180026605Y-118209727D01*
X179972397Y-118078857D01*
X179730213Y-118009392D01*
X178929605Y-118810000D01*
X178943748Y-118824143D01*
X178764143Y-119003748D01*
X178750000Y-118989605D01*
X178735858Y-119003748D01*
X178556253Y-118824143D01*
X178570395Y-118810000D01*
X177769787Y-118009392D01*
X177527603Y-118078857D01*
X177477491Y-118219318D01*
X177395010Y-118019697D01*
X177205432Y-117829787D01*
X177949392Y-117829787D01*
X178750000Y-118630395D01*
X179550608Y-117829787D01*
X179481143Y-117587603D01*
X178957698Y-117400856D01*
X178402632Y-117428638D01*
X178018857Y-117587603D01*
X177949392Y-117829787D01*
X177205432Y-117829787D01*
X177002370Y-117626371D01*
X176489100Y-117413243D01*
X175933339Y-117412758D01*
X175900945Y-117426143D01*
X174390001Y-115915199D01*
X174143439Y-115750452D01*
X173852600Y-115692600D01*
X164367402Y-115692600D01*
X160813256Y-112138454D01*
X160834750Y-112086691D01*
X160835248Y-111515813D01*
X160814939Y-111466661D01*
X162112758Y-111466661D01*
X162324990Y-111980303D01*
X162717630Y-112373629D01*
X163230900Y-112586757D01*
X163786661Y-112587242D01*
X164300303Y-112375010D01*
X164693629Y-111982370D01*
X164779949Y-111774488D01*
X164864990Y-111980303D01*
X165257630Y-112373629D01*
X165770900Y-112586757D01*
X166326661Y-112587242D01*
X166840303Y-112375010D01*
X167045457Y-112170213D01*
X167789392Y-112170213D01*
X167858857Y-112412397D01*
X168382302Y-112599144D01*
X168937368Y-112571362D01*
X169321143Y-112412397D01*
X169390608Y-112170213D01*
X168590000Y-111369605D01*
X167789392Y-112170213D01*
X167045457Y-112170213D01*
X167233629Y-111982370D01*
X167313395Y-111790273D01*
X167367603Y-111921143D01*
X167609787Y-111990608D01*
X168410395Y-111190000D01*
X167609787Y-110389392D01*
X167367603Y-110458857D01*
X167317491Y-110599318D01*
X167235010Y-110399697D01*
X167045432Y-110209787D01*
X167789392Y-110209787D01*
X168590000Y-111010395D01*
X169390608Y-110209787D01*
X169321143Y-109967603D01*
X168797698Y-109780856D01*
X168242632Y-109808638D01*
X167858857Y-109967603D01*
X167789392Y-110209787D01*
X167045432Y-110209787D01*
X166842370Y-110006371D01*
X166329100Y-109793243D01*
X165773339Y-109792758D01*
X165259697Y-110004990D01*
X164866371Y-110397630D01*
X164780051Y-110605512D01*
X164695010Y-110399697D01*
X164302370Y-110006371D01*
X163789100Y-109793243D01*
X163233339Y-109792758D01*
X162719697Y-110004990D01*
X162326371Y-110397630D01*
X162113243Y-110910900D01*
X162112758Y-111466661D01*
X160814939Y-111466661D01*
X160617243Y-110988200D01*
X160213923Y-110584176D01*
X160132069Y-110550187D01*
X160211800Y-110517243D01*
X160615824Y-110113923D01*
X160834750Y-109586691D01*
X160835248Y-109015813D01*
X160799212Y-108928600D01*
X168191400Y-108928600D01*
X168482239Y-108870748D01*
X168728801Y-108706001D01*
X170530619Y-106904183D01*
X170560900Y-106916757D01*
X171116661Y-106917242D01*
X171630303Y-106705010D01*
X171781838Y-106553740D01*
X173472499Y-108244401D01*
G36*
X90977560Y-75075000D02*
X91021838Y-75310317D01*
X91160910Y-75526441D01*
X91373110Y-75671431D01*
X91389676Y-75674786D01*
X91220630Y-75843537D01*
X90990262Y-76398325D01*
X90989738Y-76999040D01*
X91219138Y-77554229D01*
X91614536Y-77950318D01*
X91220630Y-78343537D01*
X90990262Y-78898325D01*
X90989738Y-79499040D01*
X91219138Y-80054229D01*
X91614536Y-80450318D01*
X91220630Y-80843537D01*
X90990262Y-81398325D01*
X90989738Y-81999040D01*
X91219138Y-82554229D01*
X91643537Y-82979370D01*
X92198325Y-83209738D01*
X92799040Y-83210262D01*
X93354229Y-82980862D01*
X93779370Y-82556463D01*
X93954335Y-82135100D01*
X99140098Y-82135100D01*
X92769381Y-88505817D01*
X92739100Y-88493243D01*
X92183339Y-88492758D01*
X91669697Y-88704990D01*
X91276371Y-89097630D01*
X91063243Y-89610900D01*
X91062758Y-90166661D01*
X91274990Y-90680303D01*
X91667630Y-91073629D01*
X92180900Y-91286757D01*
X92736661Y-91287242D01*
X93250303Y-91075010D01*
X93643629Y-90682370D01*
X93856757Y-90169100D01*
X93857242Y-89613339D01*
X93843857Y-89580945D01*
X100055761Y-83369041D01*
X103008086Y-83369041D01*
X103247611Y-83875134D01*
X103662577Y-84251041D01*
X104050961Y-84411904D01*
X104273000Y-84289915D01*
X104273000Y-83147000D01*
X103129371Y-83147000D01*
X103008086Y-83369041D01*
X100055761Y-83369041D01*
X100782802Y-82642000D01*
X103021792Y-82642000D01*
X103008086Y-82670959D01*
X103129371Y-82893000D01*
X104273000Y-82893000D01*
X104273000Y-82873000D01*
X104527000Y-82873000D01*
X104527000Y-82893000D01*
X104547000Y-82893000D01*
X104547000Y-83147000D01*
X104527000Y-83147000D01*
X104527000Y-84289915D01*
X104749039Y-84411904D01*
X105137423Y-84251041D01*
X105552389Y-83875134D01*
X105677720Y-83610322D01*
X111264399Y-89197001D01*
X111510961Y-89361748D01*
X111801800Y-89419600D01*
X121622678Y-89419600D01*
X121543243Y-89610900D01*
X121542758Y-90166661D01*
X121754990Y-90680303D01*
X122147630Y-91073629D01*
X122660900Y-91286757D01*
X123216661Y-91287242D01*
X123249055Y-91273857D01*
X124292198Y-92317000D01*
X109722099Y-106887099D01*
X109557352Y-107133661D01*
X109499500Y-107424500D01*
X109499500Y-110172498D01*
X97648672Y-122023326D01*
X97422811Y-121685302D01*
X96957264Y-121374233D01*
X96408113Y-121265000D01*
X96351887Y-121265000D01*
X95802736Y-121374233D01*
X95337189Y-121685302D01*
X95026120Y-122150849D01*
X94916887Y-122700000D01*
X95026120Y-123249151D01*
X95337189Y-123714698D01*
X95708918Y-123963080D01*
X93722440Y-125949558D01*
X93722440Y-124425000D01*
X93678162Y-124189683D01*
X93539090Y-123973559D01*
X93326890Y-123828569D01*
X93075000Y-123777560D01*
X92960000Y-123777560D01*
X92960000Y-118910000D01*
X95306469Y-118910000D01*
X95318990Y-118940303D01*
X95711630Y-119333629D01*
X96224900Y-119546757D01*
X96780661Y-119547242D01*
X97294303Y-119335010D01*
X97687629Y-118942370D01*
X97900757Y-118429100D01*
X97901242Y-117873339D01*
X97689010Y-117359697D01*
X97296370Y-116966371D01*
X96783100Y-116753243D01*
X96227339Y-116752758D01*
X95713697Y-116964990D01*
X95320371Y-117357630D01*
X95306930Y-117390000D01*
X92367531Y-117390000D01*
X92355010Y-117359697D01*
X91962370Y-116966371D01*
X91754488Y-116880051D01*
X91960303Y-116795010D01*
X92353629Y-116402370D01*
X92566757Y-115889100D01*
X92567242Y-115333339D01*
X92355010Y-114819697D01*
X91962370Y-114426371D01*
X91449100Y-114213243D01*
X90893339Y-114212758D01*
X90860945Y-114226143D01*
X90836100Y-114201298D01*
X90836100Y-109364002D01*
X90890900Y-109386757D01*
X91446661Y-109387242D01*
X91960303Y-109175010D01*
X92353629Y-108782370D01*
X92367070Y-108750000D01*
X93964000Y-108750000D01*
X94254839Y-108692148D01*
X94501401Y-108527401D01*
X96194619Y-106834183D01*
X96224900Y-106846757D01*
X96780661Y-106847242D01*
X97294303Y-106635010D01*
X97687629Y-106242370D01*
X97900757Y-105729100D01*
X97901242Y-105173339D01*
X97689010Y-104659697D01*
X97296370Y-104266371D01*
X96783100Y-104053243D01*
X96227339Y-104052758D01*
X95713697Y-104264990D01*
X95320371Y-104657630D01*
X95107243Y-105170900D01*
X95106758Y-105726661D01*
X95120143Y-105759055D01*
X93649198Y-107230000D01*
X92367531Y-107230000D01*
X92355010Y-107199697D01*
X91962370Y-106806371D01*
X91770273Y-106726605D01*
X91901143Y-106672397D01*
X91970608Y-106430213D01*
X91170000Y-105629605D01*
X91155858Y-105643748D01*
X90976253Y-105464143D01*
X90990395Y-105450000D01*
X91349605Y-105450000D01*
X92150213Y-106250608D01*
X92392397Y-106181143D01*
X92579144Y-105657698D01*
X92551362Y-105102632D01*
X92392397Y-104718857D01*
X92150213Y-104649392D01*
X91349605Y-105450000D01*
X90990395Y-105450000D01*
X90976253Y-105435858D01*
X91155858Y-105256253D01*
X91170000Y-105270395D01*
X91970608Y-104469787D01*
X91901143Y-104227603D01*
X91377698Y-104040856D01*
X90836100Y-104067964D01*
X90836100Y-98490213D01*
X91659392Y-98490213D01*
X91728857Y-98732397D01*
X92252302Y-98919144D01*
X92807368Y-98891362D01*
X93191143Y-98732397D01*
X93260608Y-98490213D01*
X92460000Y-97689605D01*
X91659392Y-98490213D01*
X90836100Y-98490213D01*
X90836100Y-97302302D01*
X91050856Y-97302302D01*
X91078638Y-97857368D01*
X91237603Y-98241143D01*
X91479787Y-98310608D01*
X92280395Y-97510000D01*
X92639605Y-97510000D01*
X93440213Y-98310608D01*
X93682397Y-98241143D01*
X93869144Y-97717698D01*
X93841362Y-97162632D01*
X93682397Y-96778857D01*
X93440213Y-96709392D01*
X92639605Y-97510000D01*
X92280395Y-97510000D01*
X91479787Y-96709392D01*
X91237603Y-96778857D01*
X91050856Y-97302302D01*
X90836100Y-97302302D01*
X90836100Y-96529787D01*
X91659392Y-96529787D01*
X92460000Y-97330395D01*
X93260608Y-96529787D01*
X93191143Y-96287603D01*
X92667698Y-96100856D01*
X92112632Y-96128638D01*
X91728857Y-96287603D01*
X91659392Y-96529787D01*
X90836100Y-96529787D01*
X90836100Y-74712002D01*
X90977560Y-74570542D01*
X90977560Y-75075000D01*
X90977560Y-75075000D01*
G37*
X90977560Y-75075000D02*
X91021838Y-75310317D01*
X91160910Y-75526441D01*
X91373110Y-75671431D01*
X91389676Y-75674786D01*
X91220630Y-75843537D01*
X90990262Y-76398325D01*
X90989738Y-76999040D01*
X91219138Y-77554229D01*
X91614536Y-77950318D01*
X91220630Y-78343537D01*
X90990262Y-78898325D01*
X90989738Y-79499040D01*
X91219138Y-80054229D01*
X91614536Y-80450318D01*
X91220630Y-80843537D01*
X90990262Y-81398325D01*
X90989738Y-81999040D01*
X91219138Y-82554229D01*
X91643537Y-82979370D01*
X92198325Y-83209738D01*
X92799040Y-83210262D01*
X93354229Y-82980862D01*
X93779370Y-82556463D01*
X93954335Y-82135100D01*
X99140098Y-82135100D01*
X92769381Y-88505817D01*
X92739100Y-88493243D01*
X92183339Y-88492758D01*
X91669697Y-88704990D01*
X91276371Y-89097630D01*
X91063243Y-89610900D01*
X91062758Y-90166661D01*
X91274990Y-90680303D01*
X91667630Y-91073629D01*
X92180900Y-91286757D01*
X92736661Y-91287242D01*
X93250303Y-91075010D01*
X93643629Y-90682370D01*
X93856757Y-90169100D01*
X93857242Y-89613339D01*
X93843857Y-89580945D01*
X100055761Y-83369041D01*
X103008086Y-83369041D01*
X103247611Y-83875134D01*
X103662577Y-84251041D01*
X104050961Y-84411904D01*
X104273000Y-84289915D01*
X104273000Y-83147000D01*
X103129371Y-83147000D01*
X103008086Y-83369041D01*
X100055761Y-83369041D01*
X100782802Y-82642000D01*
X103021792Y-82642000D01*
X103008086Y-82670959D01*
X103129371Y-82893000D01*
X104273000Y-82893000D01*
X104273000Y-82873000D01*
X104527000Y-82873000D01*
X104527000Y-82893000D01*
X104547000Y-82893000D01*
X104547000Y-83147000D01*
X104527000Y-83147000D01*
X104527000Y-84289915D01*
X104749039Y-84411904D01*
X105137423Y-84251041D01*
X105552389Y-83875134D01*
X105677720Y-83610322D01*
X111264399Y-89197001D01*
X111510961Y-89361748D01*
X111801800Y-89419600D01*
X121622678Y-89419600D01*
X121543243Y-89610900D01*
X121542758Y-90166661D01*
X121754990Y-90680303D01*
X122147630Y-91073629D01*
X122660900Y-91286757D01*
X123216661Y-91287242D01*
X123249055Y-91273857D01*
X124292198Y-92317000D01*
X109722099Y-106887099D01*
X109557352Y-107133661D01*
X109499500Y-107424500D01*
X109499500Y-110172498D01*
X97648672Y-122023326D01*
X97422811Y-121685302D01*
X96957264Y-121374233D01*
X96408113Y-121265000D01*
X96351887Y-121265000D01*
X95802736Y-121374233D01*
X95337189Y-121685302D01*
X95026120Y-122150849D01*
X94916887Y-122700000D01*
X95026120Y-123249151D01*
X95337189Y-123714698D01*
X95708918Y-123963080D01*
X93722440Y-125949558D01*
X93722440Y-124425000D01*
X93678162Y-124189683D01*
X93539090Y-123973559D01*
X93326890Y-123828569D01*
X93075000Y-123777560D01*
X92960000Y-123777560D01*
X92960000Y-118910000D01*
X95306469Y-118910000D01*
X95318990Y-118940303D01*
X95711630Y-119333629D01*
X96224900Y-119546757D01*
X96780661Y-119547242D01*
X97294303Y-119335010D01*
X97687629Y-118942370D01*
X97900757Y-118429100D01*
X97901242Y-117873339D01*
X97689010Y-117359697D01*
X97296370Y-116966371D01*
X96783100Y-116753243D01*
X96227339Y-116752758D01*
X95713697Y-116964990D01*
X95320371Y-117357630D01*
X95306930Y-117390000D01*
X92367531Y-117390000D01*
X92355010Y-117359697D01*
X91962370Y-116966371D01*
X91754488Y-116880051D01*
X91960303Y-116795010D01*
X92353629Y-116402370D01*
X92566757Y-115889100D01*
X92567242Y-115333339D01*
X92355010Y-114819697D01*
X91962370Y-114426371D01*
X91449100Y-114213243D01*
X90893339Y-114212758D01*
X90860945Y-114226143D01*
X90836100Y-114201298D01*
X90836100Y-109364002D01*
X90890900Y-109386757D01*
X91446661Y-109387242D01*
X91960303Y-109175010D01*
X92353629Y-108782370D01*
X92367070Y-108750000D01*
X93964000Y-108750000D01*
X94254839Y-108692148D01*
X94501401Y-108527401D01*
X96194619Y-106834183D01*
X96224900Y-106846757D01*
X96780661Y-106847242D01*
X97294303Y-106635010D01*
X97687629Y-106242370D01*
X97900757Y-105729100D01*
X97901242Y-105173339D01*
X97689010Y-104659697D01*
X97296370Y-104266371D01*
X96783100Y-104053243D01*
X96227339Y-104052758D01*
X95713697Y-104264990D01*
X95320371Y-104657630D01*
X95107243Y-105170900D01*
X95106758Y-105726661D01*
X95120143Y-105759055D01*
X93649198Y-107230000D01*
X92367531Y-107230000D01*
X92355010Y-107199697D01*
X91962370Y-106806371D01*
X91770273Y-106726605D01*
X91901143Y-106672397D01*
X91970608Y-106430213D01*
X91170000Y-105629605D01*
X91155858Y-105643748D01*
X90976253Y-105464143D01*
X90990395Y-105450000D01*
X91349605Y-105450000D01*
X92150213Y-106250608D01*
X92392397Y-106181143D01*
X92579144Y-105657698D01*
X92551362Y-105102632D01*
X92392397Y-104718857D01*
X92150213Y-104649392D01*
X91349605Y-105450000D01*
X90990395Y-105450000D01*
X90976253Y-105435858D01*
X91155858Y-105256253D01*
X91170000Y-105270395D01*
X91970608Y-104469787D01*
X91901143Y-104227603D01*
X91377698Y-104040856D01*
X90836100Y-104067964D01*
X90836100Y-98490213D01*
X91659392Y-98490213D01*
X91728857Y-98732397D01*
X92252302Y-98919144D01*
X92807368Y-98891362D01*
X93191143Y-98732397D01*
X93260608Y-98490213D01*
X92460000Y-97689605D01*
X91659392Y-98490213D01*
X90836100Y-98490213D01*
X90836100Y-97302302D01*
X91050856Y-97302302D01*
X91078638Y-97857368D01*
X91237603Y-98241143D01*
X91479787Y-98310608D01*
X92280395Y-97510000D01*
X92639605Y-97510000D01*
X93440213Y-98310608D01*
X93682397Y-98241143D01*
X93869144Y-97717698D01*
X93841362Y-97162632D01*
X93682397Y-96778857D01*
X93440213Y-96709392D01*
X92639605Y-97510000D01*
X92280395Y-97510000D01*
X91479787Y-96709392D01*
X91237603Y-96778857D01*
X91050856Y-97302302D01*
X90836100Y-97302302D01*
X90836100Y-96529787D01*
X91659392Y-96529787D01*
X92460000Y-97330395D01*
X93260608Y-96529787D01*
X93191143Y-96287603D01*
X92667698Y-96100856D01*
X92112632Y-96128638D01*
X91728857Y-96287603D01*
X91659392Y-96529787D01*
X90836100Y-96529787D01*
X90836100Y-74712002D01*
X90977560Y-74570542D01*
X90977560Y-75075000D01*
G36*
X192577560Y-101675000D02*
X192621838Y-101910317D01*
X192760910Y-102126441D01*
X192973110Y-102271431D01*
X193225000Y-102322440D01*
X194975000Y-102322440D01*
X195008600Y-102316118D01*
X195008600Y-105516598D01*
X194495837Y-106029361D01*
X194401675Y-105990262D01*
X193800960Y-105989738D01*
X193245771Y-106219138D01*
X192820630Y-106643537D01*
X192590262Y-107198325D01*
X192589738Y-107799040D01*
X192819138Y-108354229D01*
X192996802Y-108532203D01*
X192865301Y-108586673D01*
X192686673Y-108765302D01*
X192590000Y-108998691D01*
X192590000Y-109714250D01*
X192748750Y-109873000D01*
X193973000Y-109873000D01*
X193973000Y-109853000D01*
X194227000Y-109853000D01*
X194227000Y-109873000D01*
X194247000Y-109873000D01*
X194247000Y-110127000D01*
X194227000Y-110127000D01*
X194227000Y-111351250D01*
X194385750Y-111510000D01*
X195101310Y-111510000D01*
X195334699Y-111413327D01*
X195460500Y-111287525D01*
X195460500Y-115938509D01*
X195380862Y-115745771D01*
X194956463Y-115320630D01*
X194401675Y-115090262D01*
X193800960Y-115089738D01*
X193245771Y-115319138D01*
X192820630Y-115743537D01*
X192590262Y-116298325D01*
X192589738Y-116899040D01*
X192819138Y-117454229D01*
X193243537Y-117879370D01*
X193266469Y-117888892D01*
X193217545Y-118037940D01*
X194100000Y-118920395D01*
X194982455Y-118037940D01*
X194933682Y-117889352D01*
X194954229Y-117880862D01*
X195379370Y-117456463D01*
X195460500Y-117261080D01*
X195460500Y-118408431D01*
X195415953Y-118300884D01*
X195162060Y-118217545D01*
X194279605Y-119100000D01*
X195162060Y-119982455D01*
X195415953Y-119899116D01*
X195460500Y-119776846D01*
X195460500Y-120938509D01*
X195380862Y-120745771D01*
X194956463Y-120320630D01*
X194933531Y-120311108D01*
X194982455Y-120162060D01*
X194100000Y-119279605D01*
X193217545Y-120162060D01*
X193266318Y-120310648D01*
X193245771Y-120319138D01*
X192820630Y-120743537D01*
X192590262Y-121298325D01*
X192589738Y-121899040D01*
X192819138Y-122454229D01*
X192987717Y-122623103D01*
X192773559Y-122760910D01*
X192628569Y-122973110D01*
X192577560Y-123225000D01*
X192577560Y-124975000D01*
X192621838Y-125210317D01*
X192707245Y-125343043D01*
X186455202Y-119091000D01*
X186491321Y-119091000D01*
X187123131Y-118965325D01*
X187272819Y-118865306D01*
X192578410Y-118865306D01*
X192604421Y-119465458D01*
X192784047Y-119899116D01*
X193037940Y-119982455D01*
X193920395Y-119100000D01*
X193037940Y-118217545D01*
X192784047Y-118300884D01*
X192578410Y-118865306D01*
X187272819Y-118865306D01*
X187658754Y-118607433D01*
X188016646Y-118071810D01*
X188142321Y-117440000D01*
X188016646Y-116808190D01*
X187658754Y-116272567D01*
X187505252Y-116170000D01*
X187658754Y-116067433D01*
X188016646Y-115531810D01*
X188142321Y-114900000D01*
X188016646Y-114268190D01*
X187658754Y-113732567D01*
X187505252Y-113630000D01*
X187658754Y-113527433D01*
X188016646Y-112991810D01*
X188142321Y-112360000D01*
X188016646Y-111728190D01*
X187658754Y-111192567D01*
X187123131Y-110834675D01*
X186915166Y-110793308D01*
X186902148Y-110727861D01*
X186737401Y-110481299D01*
X186541852Y-110285750D01*
X192590000Y-110285750D01*
X192590000Y-111001309D01*
X192686673Y-111234698D01*
X192865301Y-111413327D01*
X193098690Y-111510000D01*
X193814250Y-111510000D01*
X193973000Y-111351250D01*
X193973000Y-110127000D01*
X192748750Y-110127000D01*
X192590000Y-110285750D01*
X186541852Y-110285750D01*
X183425701Y-107169599D01*
X183179139Y-107004852D01*
X182888300Y-106947000D01*
X174324702Y-106947000D01*
X174108322Y-106730620D01*
X174170303Y-106705010D01*
X174563629Y-106312370D01*
X174776757Y-105799100D01*
X174777242Y-105243339D01*
X174763857Y-105210945D01*
X177074802Y-102900000D01*
X177352560Y-102900000D01*
X177352560Y-104500000D01*
X177396838Y-104735317D01*
X177535910Y-104951441D01*
X177748110Y-105096431D01*
X178000000Y-105147440D01*
X179600000Y-105147440D01*
X179835317Y-105103162D01*
X180051441Y-104964090D01*
X180196431Y-104751890D01*
X180205370Y-104707745D01*
X181771861Y-104707745D01*
X181845995Y-104953864D01*
X182383223Y-105146965D01*
X182953454Y-105119778D01*
X183354005Y-104953864D01*
X183428139Y-104707745D01*
X182600000Y-103879605D01*
X181771861Y-104707745D01*
X180205370Y-104707745D01*
X180247440Y-104500000D01*
X180247440Y-103483223D01*
X181153035Y-103483223D01*
X181180222Y-104053454D01*
X181346136Y-104454005D01*
X181592255Y-104528139D01*
X182420395Y-103700000D01*
X182779605Y-103700000D01*
X183607745Y-104528139D01*
X183853864Y-104454005D01*
X184046965Y-103916777D01*
X184019778Y-103346546D01*
X183853864Y-102945995D01*
X183607745Y-102871861D01*
X182779605Y-103700000D01*
X182420395Y-103700000D01*
X181592255Y-102871861D01*
X181346136Y-102945995D01*
X181153035Y-103483223D01*
X180247440Y-103483223D01*
X180247440Y-102900000D01*
X180208351Y-102692255D01*
X181771861Y-102692255D01*
X182600000Y-103520395D01*
X183428139Y-102692255D01*
X183354005Y-102446136D01*
X182816777Y-102253035D01*
X182246546Y-102280222D01*
X181845995Y-102446136D01*
X181771861Y-102692255D01*
X180208351Y-102692255D01*
X180203162Y-102664683D01*
X180064090Y-102448559D01*
X179851890Y-102303569D01*
X179600000Y-102252560D01*
X178000000Y-102252560D01*
X177764683Y-102296838D01*
X177548559Y-102435910D01*
X177403569Y-102648110D01*
X177352560Y-102900000D01*
X177074802Y-102900000D01*
X179615202Y-100359600D01*
X192577560Y-100359600D01*
X192577560Y-101675000D01*
X192577560Y-101675000D01*
G37*
X192577560Y-101675000D02*
X192621838Y-101910317D01*
X192760910Y-102126441D01*
X192973110Y-102271431D01*
X193225000Y-102322440D01*
X194975000Y-102322440D01*
X195008600Y-102316118D01*
X195008600Y-105516598D01*
X194495837Y-106029361D01*
X194401675Y-105990262D01*
X193800960Y-105989738D01*
X193245771Y-106219138D01*
X192820630Y-106643537D01*
X192590262Y-107198325D01*
X192589738Y-107799040D01*
X192819138Y-108354229D01*
X192996802Y-108532203D01*
X192865301Y-108586673D01*
X192686673Y-108765302D01*
X192590000Y-108998691D01*
X192590000Y-109714250D01*
X192748750Y-109873000D01*
X193973000Y-109873000D01*
X193973000Y-109853000D01*
X194227000Y-109853000D01*
X194227000Y-109873000D01*
X194247000Y-109873000D01*
X194247000Y-110127000D01*
X194227000Y-110127000D01*
X194227000Y-111351250D01*
X194385750Y-111510000D01*
X195101310Y-111510000D01*
X195334699Y-111413327D01*
X195460500Y-111287525D01*
X195460500Y-115938509D01*
X195380862Y-115745771D01*
X194956463Y-115320630D01*
X194401675Y-115090262D01*
X193800960Y-115089738D01*
X193245771Y-115319138D01*
X192820630Y-115743537D01*
X192590262Y-116298325D01*
X192589738Y-116899040D01*
X192819138Y-117454229D01*
X193243537Y-117879370D01*
X193266469Y-117888892D01*
X193217545Y-118037940D01*
X194100000Y-118920395D01*
X194982455Y-118037940D01*
X194933682Y-117889352D01*
X194954229Y-117880862D01*
X195379370Y-117456463D01*
X195460500Y-117261080D01*
X195460500Y-118408431D01*
X195415953Y-118300884D01*
X195162060Y-118217545D01*
X194279605Y-119100000D01*
X195162060Y-119982455D01*
X195415953Y-119899116D01*
X195460500Y-119776846D01*
X195460500Y-120938509D01*
X195380862Y-120745771D01*
X194956463Y-120320630D01*
X194933531Y-120311108D01*
X194982455Y-120162060D01*
X194100000Y-119279605D01*
X193217545Y-120162060D01*
X193266318Y-120310648D01*
X193245771Y-120319138D01*
X192820630Y-120743537D01*
X192590262Y-121298325D01*
X192589738Y-121899040D01*
X192819138Y-122454229D01*
X192987717Y-122623103D01*
X192773559Y-122760910D01*
X192628569Y-122973110D01*
X192577560Y-123225000D01*
X192577560Y-124975000D01*
X192621838Y-125210317D01*
X192707245Y-125343043D01*
X186455202Y-119091000D01*
X186491321Y-119091000D01*
X187123131Y-118965325D01*
X187272819Y-118865306D01*
X192578410Y-118865306D01*
X192604421Y-119465458D01*
X192784047Y-119899116D01*
X193037940Y-119982455D01*
X193920395Y-119100000D01*
X193037940Y-118217545D01*
X192784047Y-118300884D01*
X192578410Y-118865306D01*
X187272819Y-118865306D01*
X187658754Y-118607433D01*
X188016646Y-118071810D01*
X188142321Y-117440000D01*
X188016646Y-116808190D01*
X187658754Y-116272567D01*
X187505252Y-116170000D01*
X187658754Y-116067433D01*
X188016646Y-115531810D01*
X188142321Y-114900000D01*
X188016646Y-114268190D01*
X187658754Y-113732567D01*
X187505252Y-113630000D01*
X187658754Y-113527433D01*
X188016646Y-112991810D01*
X188142321Y-112360000D01*
X188016646Y-111728190D01*
X187658754Y-111192567D01*
X187123131Y-110834675D01*
X186915166Y-110793308D01*
X186902148Y-110727861D01*
X186737401Y-110481299D01*
X186541852Y-110285750D01*
X192590000Y-110285750D01*
X192590000Y-111001309D01*
X192686673Y-111234698D01*
X192865301Y-111413327D01*
X193098690Y-111510000D01*
X193814250Y-111510000D01*
X193973000Y-111351250D01*
X193973000Y-110127000D01*
X192748750Y-110127000D01*
X192590000Y-110285750D01*
X186541852Y-110285750D01*
X183425701Y-107169599D01*
X183179139Y-107004852D01*
X182888300Y-106947000D01*
X174324702Y-106947000D01*
X174108322Y-106730620D01*
X174170303Y-106705010D01*
X174563629Y-106312370D01*
X174776757Y-105799100D01*
X174777242Y-105243339D01*
X174763857Y-105210945D01*
X177074802Y-102900000D01*
X177352560Y-102900000D01*
X177352560Y-104500000D01*
X177396838Y-104735317D01*
X177535910Y-104951441D01*
X177748110Y-105096431D01*
X178000000Y-105147440D01*
X179600000Y-105147440D01*
X179835317Y-105103162D01*
X180051441Y-104964090D01*
X180196431Y-104751890D01*
X180205370Y-104707745D01*
X181771861Y-104707745D01*
X181845995Y-104953864D01*
X182383223Y-105146965D01*
X182953454Y-105119778D01*
X183354005Y-104953864D01*
X183428139Y-104707745D01*
X182600000Y-103879605D01*
X181771861Y-104707745D01*
X180205370Y-104707745D01*
X180247440Y-104500000D01*
X180247440Y-103483223D01*
X181153035Y-103483223D01*
X181180222Y-104053454D01*
X181346136Y-104454005D01*
X181592255Y-104528139D01*
X182420395Y-103700000D01*
X182779605Y-103700000D01*
X183607745Y-104528139D01*
X183853864Y-104454005D01*
X184046965Y-103916777D01*
X184019778Y-103346546D01*
X183853864Y-102945995D01*
X183607745Y-102871861D01*
X182779605Y-103700000D01*
X182420395Y-103700000D01*
X181592255Y-102871861D01*
X181346136Y-102945995D01*
X181153035Y-103483223D01*
X180247440Y-103483223D01*
X180247440Y-102900000D01*
X180208351Y-102692255D01*
X181771861Y-102692255D01*
X182600000Y-103520395D01*
X183428139Y-102692255D01*
X183354005Y-102446136D01*
X182816777Y-102253035D01*
X182246546Y-102280222D01*
X181845995Y-102446136D01*
X181771861Y-102692255D01*
X180208351Y-102692255D01*
X180203162Y-102664683D01*
X180064090Y-102448559D01*
X179851890Y-102303569D01*
X179600000Y-102252560D01*
X178000000Y-102252560D01*
X177764683Y-102296838D01*
X177548559Y-102435910D01*
X177403569Y-102648110D01*
X177352560Y-102900000D01*
X177074802Y-102900000D01*
X179615202Y-100359600D01*
X192577560Y-100359600D01*
X192577560Y-101675000D01*
G36*
X192819138Y-87454229D02*
X193243537Y-87879370D01*
X193266469Y-87888892D01*
X193217545Y-88037940D01*
X194100000Y-88920395D01*
X194114143Y-88906253D01*
X194293748Y-89085858D01*
X194279605Y-89100000D01*
X194293748Y-89114143D01*
X194114143Y-89293748D01*
X194100000Y-89279605D01*
X194085858Y-89293748D01*
X193906253Y-89114143D01*
X193920395Y-89100000D01*
X193037940Y-88217545D01*
X192784047Y-88300884D01*
X192578410Y-88865306D01*
X192604421Y-89465458D01*
X192784047Y-89899116D01*
X193037938Y-89982454D01*
X192923306Y-90097086D01*
X192964356Y-90138136D01*
X192773559Y-90260910D01*
X192628569Y-90473110D01*
X192577560Y-90725000D01*
X192577560Y-92475000D01*
X192621838Y-92710317D01*
X192760910Y-92926441D01*
X192973110Y-93071431D01*
X193225000Y-93122440D01*
X193418767Y-93122440D01*
X193562599Y-93337701D01*
X194540300Y-94315402D01*
X194540300Y-96847824D01*
X194401675Y-96790262D01*
X193800960Y-96789738D01*
X193245771Y-97019138D01*
X192820630Y-97443537D01*
X192780575Y-97540000D01*
X174094802Y-97540000D01*
X168231743Y-91676941D01*
X168576661Y-91677242D01*
X169090303Y-91465010D01*
X169483629Y-91072370D01*
X169569949Y-90864488D01*
X169654990Y-91070303D01*
X170047630Y-91463629D01*
X170560900Y-91676757D01*
X171116661Y-91677242D01*
X171630303Y-91465010D01*
X172023629Y-91072370D01*
X172109949Y-90864488D01*
X172194990Y-91070303D01*
X172587630Y-91463629D01*
X173100900Y-91676757D01*
X173656661Y-91677242D01*
X174170303Y-91465010D01*
X174563629Y-91072370D01*
X174776757Y-90559100D01*
X174777242Y-90003339D01*
X174763857Y-89970945D01*
X176952560Y-87782242D01*
X176952560Y-89200000D01*
X176996838Y-89435317D01*
X177135910Y-89651441D01*
X177348110Y-89796431D01*
X177600000Y-89847440D01*
X179200000Y-89847440D01*
X179435317Y-89803162D01*
X179651441Y-89664090D01*
X179796431Y-89451890D01*
X179805370Y-89407745D01*
X181371861Y-89407745D01*
X181445995Y-89653864D01*
X181983223Y-89846965D01*
X182553454Y-89819778D01*
X182954005Y-89653864D01*
X183028139Y-89407745D01*
X182200000Y-88579605D01*
X181371861Y-89407745D01*
X179805370Y-89407745D01*
X179847440Y-89200000D01*
X179847440Y-89081233D01*
X180062701Y-88937401D01*
X180755940Y-88244162D01*
X180780222Y-88753454D01*
X180946136Y-89154005D01*
X181192255Y-89228139D01*
X182020395Y-88400000D01*
X182006253Y-88385858D01*
X182185858Y-88206253D01*
X182200000Y-88220395D01*
X182214143Y-88206253D01*
X182393748Y-88385858D01*
X182379605Y-88400000D01*
X183207745Y-89228139D01*
X183453864Y-89154005D01*
X183646965Y-88616777D01*
X183619778Y-88046546D01*
X183606090Y-88013500D01*
X184313398Y-88013500D01*
X184737299Y-88437401D01*
X184952560Y-88581233D01*
X184952560Y-88700000D01*
X184996838Y-88935317D01*
X185135910Y-89151441D01*
X185348110Y-89296431D01*
X185600000Y-89347440D01*
X187200000Y-89347440D01*
X187435317Y-89303162D01*
X187651441Y-89164090D01*
X187796431Y-88951890D01*
X187805370Y-88907745D01*
X188071861Y-88907745D01*
X188145995Y-89153864D01*
X188683223Y-89346965D01*
X189253454Y-89319778D01*
X189654005Y-89153864D01*
X189728139Y-88907745D01*
X188900000Y-88079605D01*
X188071861Y-88907745D01*
X187805370Y-88907745D01*
X187844646Y-88713799D01*
X187892255Y-88728139D01*
X188720395Y-87900000D01*
X188706252Y-87885858D01*
X188885858Y-87706252D01*
X188900000Y-87720395D01*
X188914143Y-87706253D01*
X189093748Y-87885858D01*
X189079605Y-87900000D01*
X189907745Y-88728139D01*
X190153864Y-88654005D01*
X190346965Y-88116777D01*
X190319778Y-87546546D01*
X190242508Y-87360000D01*
X192780203Y-87360000D01*
X192819138Y-87454229D01*
X192819138Y-87454229D01*
G37*
X192819138Y-87454229D02*
X193243537Y-87879370D01*
X193266469Y-87888892D01*
X193217545Y-88037940D01*
X194100000Y-88920395D01*
X194114143Y-88906253D01*
X194293748Y-89085858D01*
X194279605Y-89100000D01*
X194293748Y-89114143D01*
X194114143Y-89293748D01*
X194100000Y-89279605D01*
X194085858Y-89293748D01*
X193906253Y-89114143D01*
X193920395Y-89100000D01*
X193037940Y-88217545D01*
X192784047Y-88300884D01*
X192578410Y-88865306D01*
X192604421Y-89465458D01*
X192784047Y-89899116D01*
X193037938Y-89982454D01*
X192923306Y-90097086D01*
X192964356Y-90138136D01*
X192773559Y-90260910D01*
X192628569Y-90473110D01*
X192577560Y-90725000D01*
X192577560Y-92475000D01*
X192621838Y-92710317D01*
X192760910Y-92926441D01*
X192973110Y-93071431D01*
X193225000Y-93122440D01*
X193418767Y-93122440D01*
X193562599Y-93337701D01*
X194540300Y-94315402D01*
X194540300Y-96847824D01*
X194401675Y-96790262D01*
X193800960Y-96789738D01*
X193245771Y-97019138D01*
X192820630Y-97443537D01*
X192780575Y-97540000D01*
X174094802Y-97540000D01*
X168231743Y-91676941D01*
X168576661Y-91677242D01*
X169090303Y-91465010D01*
X169483629Y-91072370D01*
X169569949Y-90864488D01*
X169654990Y-91070303D01*
X170047630Y-91463629D01*
X170560900Y-91676757D01*
X171116661Y-91677242D01*
X171630303Y-91465010D01*
X172023629Y-91072370D01*
X172109949Y-90864488D01*
X172194990Y-91070303D01*
X172587630Y-91463629D01*
X173100900Y-91676757D01*
X173656661Y-91677242D01*
X174170303Y-91465010D01*
X174563629Y-91072370D01*
X174776757Y-90559100D01*
X174777242Y-90003339D01*
X174763857Y-89970945D01*
X176952560Y-87782242D01*
X176952560Y-89200000D01*
X176996838Y-89435317D01*
X177135910Y-89651441D01*
X177348110Y-89796431D01*
X177600000Y-89847440D01*
X179200000Y-89847440D01*
X179435317Y-89803162D01*
X179651441Y-89664090D01*
X179796431Y-89451890D01*
X179805370Y-89407745D01*
X181371861Y-89407745D01*
X181445995Y-89653864D01*
X181983223Y-89846965D01*
X182553454Y-89819778D01*
X182954005Y-89653864D01*
X183028139Y-89407745D01*
X182200000Y-88579605D01*
X181371861Y-89407745D01*
X179805370Y-89407745D01*
X179847440Y-89200000D01*
X179847440Y-89081233D01*
X180062701Y-88937401D01*
X180755940Y-88244162D01*
X180780222Y-88753454D01*
X180946136Y-89154005D01*
X181192255Y-89228139D01*
X182020395Y-88400000D01*
X182006253Y-88385858D01*
X182185858Y-88206253D01*
X182200000Y-88220395D01*
X182214143Y-88206253D01*
X182393748Y-88385858D01*
X182379605Y-88400000D01*
X183207745Y-89228139D01*
X183453864Y-89154005D01*
X183646965Y-88616777D01*
X183619778Y-88046546D01*
X183606090Y-88013500D01*
X184313398Y-88013500D01*
X184737299Y-88437401D01*
X184952560Y-88581233D01*
X184952560Y-88700000D01*
X184996838Y-88935317D01*
X185135910Y-89151441D01*
X185348110Y-89296431D01*
X185600000Y-89347440D01*
X187200000Y-89347440D01*
X187435317Y-89303162D01*
X187651441Y-89164090D01*
X187796431Y-88951890D01*
X187805370Y-88907745D01*
X188071861Y-88907745D01*
X188145995Y-89153864D01*
X188683223Y-89346965D01*
X189253454Y-89319778D01*
X189654005Y-89153864D01*
X189728139Y-88907745D01*
X188900000Y-88079605D01*
X188071861Y-88907745D01*
X187805370Y-88907745D01*
X187844646Y-88713799D01*
X187892255Y-88728139D01*
X188720395Y-87900000D01*
X188706252Y-87885858D01*
X188885858Y-87706252D01*
X188900000Y-87720395D01*
X188914143Y-87706253D01*
X189093748Y-87885858D01*
X189079605Y-87900000D01*
X189907745Y-88728139D01*
X190153864Y-88654005D01*
X190346965Y-88116777D01*
X190319778Y-87546546D01*
X190242508Y-87360000D01*
X192780203Y-87360000D01*
X192819138Y-87454229D01*
G36*
X139593243Y-66019400D02*
X139592758Y-66575161D01*
X139804990Y-67088803D01*
X140197630Y-67482129D01*
X140710900Y-67695257D01*
X141266661Y-67695742D01*
X141780303Y-67483510D01*
X142173629Y-67090870D01*
X142259949Y-66882988D01*
X142344990Y-67088803D01*
X142737630Y-67482129D01*
X143250900Y-67695257D01*
X143806661Y-67695742D01*
X144320303Y-67483510D01*
X144713629Y-67090870D01*
X144799949Y-66882988D01*
X144884990Y-67088803D01*
X145277630Y-67482129D01*
X145790900Y-67695257D01*
X146346661Y-67695742D01*
X146860303Y-67483510D01*
X147253629Y-67090870D01*
X147339949Y-66882988D01*
X147424990Y-67088803D01*
X147817630Y-67482129D01*
X148330900Y-67695257D01*
X148886661Y-67695742D01*
X149400303Y-67483510D01*
X149793629Y-67090870D01*
X149879949Y-66882988D01*
X149964990Y-67088803D01*
X150357630Y-67482129D01*
X150870900Y-67695257D01*
X151426661Y-67695742D01*
X151940303Y-67483510D01*
X152333629Y-67090870D01*
X152419949Y-66882988D01*
X152504990Y-67088803D01*
X152897630Y-67482129D01*
X153410900Y-67695257D01*
X153966661Y-67695742D01*
X154480303Y-67483510D01*
X154873629Y-67090870D01*
X154959949Y-66882988D01*
X155044990Y-67088803D01*
X155437630Y-67482129D01*
X155950900Y-67695257D01*
X156506661Y-67695742D01*
X157020303Y-67483510D01*
X157413629Y-67090870D01*
X157499949Y-66882988D01*
X157584990Y-67088803D01*
X157977630Y-67482129D01*
X158490900Y-67695257D01*
X159046661Y-67695742D01*
X159560303Y-67483510D01*
X159953629Y-67090870D01*
X160039949Y-66882988D01*
X160124990Y-67088803D01*
X160517630Y-67482129D01*
X161030900Y-67695257D01*
X161586661Y-67695742D01*
X162100303Y-67483510D01*
X162493629Y-67090870D01*
X162579949Y-66882988D01*
X162664990Y-67088803D01*
X163057630Y-67482129D01*
X163570900Y-67695257D01*
X164126661Y-67695742D01*
X164640303Y-67483510D01*
X165033629Y-67090870D01*
X165119949Y-66882988D01*
X165204990Y-67088803D01*
X165597630Y-67482129D01*
X166110900Y-67695257D01*
X166666661Y-67695742D01*
X167180303Y-67483510D01*
X167385457Y-67278713D01*
X168129392Y-67278713D01*
X168198857Y-67520897D01*
X168722302Y-67707644D01*
X169277368Y-67679862D01*
X169661143Y-67520897D01*
X169730608Y-67278713D01*
X170669392Y-67278713D01*
X170738857Y-67520897D01*
X171262302Y-67707644D01*
X171817368Y-67679862D01*
X172201143Y-67520897D01*
X172270608Y-67278713D01*
X171470000Y-66478105D01*
X170669392Y-67278713D01*
X169730608Y-67278713D01*
X168930000Y-66478105D01*
X168129392Y-67278713D01*
X167385457Y-67278713D01*
X167573629Y-67090870D01*
X167653395Y-66898773D01*
X167707603Y-67029643D01*
X167949787Y-67099108D01*
X168750395Y-66298500D01*
X168736253Y-66284358D01*
X168915858Y-66104753D01*
X168930000Y-66118895D01*
X168944143Y-66104753D01*
X169123748Y-66284358D01*
X169109605Y-66298500D01*
X169910213Y-67099108D01*
X170152397Y-67029643D01*
X170196453Y-66906156D01*
X170247603Y-67029643D01*
X170489787Y-67099108D01*
X171290395Y-66298500D01*
X171276253Y-66284358D01*
X171455858Y-66104753D01*
X171470000Y-66118895D01*
X171484143Y-66104753D01*
X171663748Y-66284358D01*
X171649605Y-66298500D01*
X172450213Y-67099108D01*
X172692397Y-67029643D01*
X172742509Y-66889182D01*
X172824990Y-67088803D01*
X173217630Y-67482129D01*
X173250000Y-67495570D01*
X173250000Y-84303969D01*
X173219697Y-84316490D01*
X172826371Y-84709130D01*
X172746605Y-84901227D01*
X172692397Y-84770357D01*
X172450213Y-84700892D01*
X171649605Y-85501500D01*
X171663748Y-85515643D01*
X171484143Y-85695248D01*
X171470000Y-85681105D01*
X170669392Y-86481713D01*
X170738857Y-86723897D01*
X171262302Y-86910644D01*
X171539951Y-86896747D01*
X170828298Y-87608400D01*
X149871300Y-87608400D01*
X149580460Y-87666252D01*
X149333899Y-87830999D01*
X148779898Y-88385000D01*
X146575000Y-88385000D01*
X146284160Y-88442852D01*
X146037599Y-88607599D01*
X145749381Y-88895817D01*
X145719100Y-88883243D01*
X145163339Y-88882758D01*
X144649697Y-89094990D01*
X144256371Y-89487630D01*
X144170051Y-89695512D01*
X144085010Y-89489697D01*
X143692370Y-89096371D01*
X143179100Y-88883243D01*
X142623339Y-88882758D01*
X142109697Y-89094990D01*
X141716371Y-89487630D01*
X141636605Y-89679727D01*
X141582397Y-89548857D01*
X141340213Y-89479392D01*
X140539605Y-90280000D01*
X140553748Y-90294143D01*
X140374143Y-90473748D01*
X140360000Y-90459605D01*
X140345858Y-90473748D01*
X140166253Y-90294143D01*
X140180395Y-90280000D01*
X140166253Y-90265858D01*
X140345858Y-90086253D01*
X140360000Y-90100395D01*
X141160608Y-89299787D01*
X141091143Y-89057603D01*
X140567698Y-88870856D01*
X140012632Y-88898638D01*
X139628857Y-89057603D01*
X139559393Y-89299785D01*
X139444382Y-89184774D01*
X139406829Y-89222327D01*
X130461163Y-80276661D01*
X136202758Y-80276661D01*
X136414990Y-80790303D01*
X136807630Y-81183629D01*
X137320900Y-81396757D01*
X137876661Y-81397242D01*
X138390303Y-81185010D01*
X138783629Y-80792370D01*
X138797070Y-80760000D01*
X142793698Y-80760000D01*
X146138257Y-84104559D01*
X145793339Y-84104258D01*
X145279697Y-84316490D01*
X144886371Y-84709130D01*
X144800051Y-84917012D01*
X144715010Y-84711197D01*
X144322370Y-84317871D01*
X143809100Y-84104743D01*
X143253339Y-84104258D01*
X142739697Y-84316490D01*
X142346371Y-84709130D01*
X142260051Y-84917012D01*
X142175010Y-84711197D01*
X141782370Y-84317871D01*
X141269100Y-84104743D01*
X140713339Y-84104258D01*
X140199697Y-84316490D01*
X139806371Y-84709130D01*
X139593243Y-85222400D01*
X139592758Y-85778161D01*
X139804990Y-86291803D01*
X140197630Y-86685129D01*
X140710900Y-86898257D01*
X141266661Y-86898742D01*
X141780303Y-86686510D01*
X142173629Y-86293870D01*
X142259949Y-86085988D01*
X142344990Y-86291803D01*
X142737630Y-86685129D01*
X143250900Y-86898257D01*
X143806661Y-86898742D01*
X144320303Y-86686510D01*
X144713629Y-86293870D01*
X144799949Y-86085988D01*
X144884990Y-86291803D01*
X145277630Y-86685129D01*
X145790900Y-86898257D01*
X146346661Y-86898742D01*
X146860303Y-86686510D01*
X147253629Y-86293870D01*
X147339949Y-86085988D01*
X147424990Y-86291803D01*
X147817630Y-86685129D01*
X148330900Y-86898257D01*
X148886661Y-86898742D01*
X149400303Y-86686510D01*
X149793629Y-86293870D01*
X149879949Y-86085988D01*
X149964990Y-86291803D01*
X150357630Y-86685129D01*
X150870900Y-86898257D01*
X151426661Y-86898742D01*
X151940303Y-86686510D01*
X152333629Y-86293870D01*
X152419949Y-86085988D01*
X152504990Y-86291803D01*
X152897630Y-86685129D01*
X153410900Y-86898257D01*
X153966661Y-86898742D01*
X154480303Y-86686510D01*
X154873629Y-86293870D01*
X154959949Y-86085988D01*
X155044990Y-86291803D01*
X155437630Y-86685129D01*
X155950900Y-86898257D01*
X156506661Y-86898742D01*
X157020303Y-86686510D01*
X157413629Y-86293870D01*
X157499949Y-86085988D01*
X157584990Y-86291803D01*
X157977630Y-86685129D01*
X158490900Y-86898257D01*
X159046661Y-86898742D01*
X159560303Y-86686510D01*
X159953629Y-86293870D01*
X160039949Y-86085988D01*
X160124990Y-86291803D01*
X160517630Y-86685129D01*
X161030900Y-86898257D01*
X161586661Y-86898742D01*
X162100303Y-86686510D01*
X162493629Y-86293870D01*
X162579949Y-86085988D01*
X162664990Y-86291803D01*
X163057630Y-86685129D01*
X163570900Y-86898257D01*
X164126661Y-86898742D01*
X164640303Y-86686510D01*
X165033629Y-86293870D01*
X165119949Y-86085988D01*
X165204990Y-86291803D01*
X165597630Y-86685129D01*
X166110900Y-86898257D01*
X166666661Y-86898742D01*
X167180303Y-86686510D01*
X167385457Y-86481713D01*
X168129392Y-86481713D01*
X168198857Y-86723897D01*
X168722302Y-86910644D01*
X169277368Y-86882862D01*
X169661143Y-86723897D01*
X169730608Y-86481713D01*
X168930000Y-85681105D01*
X168129392Y-86481713D01*
X167385457Y-86481713D01*
X167573629Y-86293870D01*
X167653395Y-86101773D01*
X167707603Y-86232643D01*
X167949787Y-86302108D01*
X168750395Y-85501500D01*
X169109605Y-85501500D01*
X169910213Y-86302108D01*
X170152397Y-86232643D01*
X170196453Y-86109156D01*
X170247603Y-86232643D01*
X170489787Y-86302108D01*
X171290395Y-85501500D01*
X170489787Y-84700892D01*
X170247603Y-84770357D01*
X170203547Y-84893844D01*
X170152397Y-84770357D01*
X169910213Y-84700892D01*
X169109605Y-85501500D01*
X168750395Y-85501500D01*
X167949787Y-84700892D01*
X167707603Y-84770357D01*
X167657491Y-84910818D01*
X167575010Y-84711197D01*
X167385432Y-84521287D01*
X168129392Y-84521287D01*
X168930000Y-85321895D01*
X169730608Y-84521287D01*
X170669392Y-84521287D01*
X171470000Y-85321895D01*
X172270608Y-84521287D01*
X172201143Y-84279103D01*
X171677698Y-84092356D01*
X171122632Y-84120138D01*
X170738857Y-84279103D01*
X170669392Y-84521287D01*
X169730608Y-84521287D01*
X169661143Y-84279103D01*
X169137698Y-84092356D01*
X168582632Y-84120138D01*
X168198857Y-84279103D01*
X168129392Y-84521287D01*
X167385432Y-84521287D01*
X167182370Y-84317871D01*
X166669100Y-84104743D01*
X166113339Y-84104258D01*
X165599697Y-84316490D01*
X165206371Y-84709130D01*
X165120051Y-84917012D01*
X165035010Y-84711197D01*
X164642370Y-84317871D01*
X164129100Y-84104743D01*
X163573339Y-84104258D01*
X163059697Y-84316490D01*
X162666371Y-84709130D01*
X162580051Y-84917012D01*
X162495010Y-84711197D01*
X162102370Y-84317871D01*
X161589100Y-84104743D01*
X161033339Y-84104258D01*
X160519697Y-84316490D01*
X160126371Y-84709130D01*
X160040051Y-84917012D01*
X159955010Y-84711197D01*
X159562370Y-84317871D01*
X159049100Y-84104743D01*
X158493339Y-84104258D01*
X157979697Y-84316490D01*
X157586371Y-84709130D01*
X157500051Y-84917012D01*
X157415010Y-84711197D01*
X157022370Y-84317871D01*
X156509100Y-84104743D01*
X155953339Y-84104258D01*
X155439697Y-84316490D01*
X155046371Y-84709130D01*
X154960051Y-84917012D01*
X154875010Y-84711197D01*
X154482370Y-84317871D01*
X153969100Y-84104743D01*
X153413339Y-84104258D01*
X152899697Y-84316490D01*
X152506371Y-84709130D01*
X152420051Y-84917012D01*
X152335010Y-84711197D01*
X151942370Y-84317871D01*
X151429100Y-84104743D01*
X150873339Y-84104258D01*
X150359697Y-84316490D01*
X149966371Y-84709130D01*
X149880051Y-84917012D01*
X149795010Y-84711197D01*
X149402370Y-84317871D01*
X148889100Y-84104743D01*
X148333339Y-84104258D01*
X148300945Y-84117643D01*
X143645901Y-79462599D01*
X143399339Y-79297852D01*
X143108500Y-79240000D01*
X138797531Y-79240000D01*
X138785010Y-79209697D01*
X138392370Y-78816371D01*
X137879100Y-78603243D01*
X137323339Y-78602758D01*
X136809697Y-78814990D01*
X136416371Y-79207630D01*
X136203243Y-79720900D01*
X136202758Y-80276661D01*
X130461163Y-80276661D01*
X127461163Y-77276661D01*
X136202758Y-77276661D01*
X136414990Y-77790303D01*
X136807630Y-78183629D01*
X137320900Y-78396757D01*
X137876661Y-78397242D01*
X138390303Y-78185010D01*
X138783629Y-77792370D01*
X138996757Y-77279100D01*
X138997242Y-76723339D01*
X138785010Y-76209697D01*
X138392370Y-75816371D01*
X137879100Y-75603243D01*
X137323339Y-75602758D01*
X136809697Y-75814990D01*
X136416371Y-76207630D01*
X136203243Y-76720900D01*
X136202758Y-77276661D01*
X127461163Y-77276661D01*
X124673002Y-74488500D01*
X129733000Y-74488500D01*
X130023839Y-74430648D01*
X130270401Y-74265901D01*
X133659641Y-70876661D01*
X136202758Y-70876661D01*
X136414990Y-71390303D01*
X136807630Y-71783629D01*
X137320900Y-71996757D01*
X137876661Y-71997242D01*
X138390303Y-71785010D01*
X138783629Y-71392370D01*
X138996757Y-70879100D01*
X138997242Y-70323339D01*
X138785010Y-69809697D01*
X138392370Y-69416371D01*
X137879100Y-69203243D01*
X137323339Y-69202758D01*
X136809697Y-69414990D01*
X136416371Y-69807630D01*
X136203243Y-70320900D01*
X136202758Y-70876661D01*
X133659641Y-70876661D01*
X136336342Y-68199960D01*
X136414990Y-68390303D01*
X136807630Y-68783629D01*
X137320900Y-68996757D01*
X137876661Y-68997242D01*
X138390303Y-68785010D01*
X138783629Y-68392370D01*
X138996757Y-67879100D01*
X138997242Y-67323339D01*
X138785010Y-66809697D01*
X138392370Y-66416371D01*
X138199866Y-66336436D01*
X138611302Y-65925000D01*
X139632441Y-65925000D01*
X139593243Y-66019400D01*
X139593243Y-66019400D01*
G37*
X139593243Y-66019400D02*
X139592758Y-66575161D01*
X139804990Y-67088803D01*
X140197630Y-67482129D01*
X140710900Y-67695257D01*
X141266661Y-67695742D01*
X141780303Y-67483510D01*
X142173629Y-67090870D01*
X142259949Y-66882988D01*
X142344990Y-67088803D01*
X142737630Y-67482129D01*
X143250900Y-67695257D01*
X143806661Y-67695742D01*
X144320303Y-67483510D01*
X144713629Y-67090870D01*
X144799949Y-66882988D01*
X144884990Y-67088803D01*
X145277630Y-67482129D01*
X145790900Y-67695257D01*
X146346661Y-67695742D01*
X146860303Y-67483510D01*
X147253629Y-67090870D01*
X147339949Y-66882988D01*
X147424990Y-67088803D01*
X147817630Y-67482129D01*
X148330900Y-67695257D01*
X148886661Y-67695742D01*
X149400303Y-67483510D01*
X149793629Y-67090870D01*
X149879949Y-66882988D01*
X149964990Y-67088803D01*
X150357630Y-67482129D01*
X150870900Y-67695257D01*
X151426661Y-67695742D01*
X151940303Y-67483510D01*
X152333629Y-67090870D01*
X152419949Y-66882988D01*
X152504990Y-67088803D01*
X152897630Y-67482129D01*
X153410900Y-67695257D01*
X153966661Y-67695742D01*
X154480303Y-67483510D01*
X154873629Y-67090870D01*
X154959949Y-66882988D01*
X155044990Y-67088803D01*
X155437630Y-67482129D01*
X155950900Y-67695257D01*
X156506661Y-67695742D01*
X157020303Y-67483510D01*
X157413629Y-67090870D01*
X157499949Y-66882988D01*
X157584990Y-67088803D01*
X157977630Y-67482129D01*
X158490900Y-67695257D01*
X159046661Y-67695742D01*
X159560303Y-67483510D01*
X159953629Y-67090870D01*
X160039949Y-66882988D01*
X160124990Y-67088803D01*
X160517630Y-67482129D01*
X161030900Y-67695257D01*
X161586661Y-67695742D01*
X162100303Y-67483510D01*
X162493629Y-67090870D01*
X162579949Y-66882988D01*
X162664990Y-67088803D01*
X163057630Y-67482129D01*
X163570900Y-67695257D01*
X164126661Y-67695742D01*
X164640303Y-67483510D01*
X165033629Y-67090870D01*
X165119949Y-66882988D01*
X165204990Y-67088803D01*
X165597630Y-67482129D01*
X166110900Y-67695257D01*
X166666661Y-67695742D01*
X167180303Y-67483510D01*
X167385457Y-67278713D01*
X168129392Y-67278713D01*
X168198857Y-67520897D01*
X168722302Y-67707644D01*
X169277368Y-67679862D01*
X169661143Y-67520897D01*
X169730608Y-67278713D01*
X170669392Y-67278713D01*
X170738857Y-67520897D01*
X171262302Y-67707644D01*
X171817368Y-67679862D01*
X172201143Y-67520897D01*
X172270608Y-67278713D01*
X171470000Y-66478105D01*
X170669392Y-67278713D01*
X169730608Y-67278713D01*
X168930000Y-66478105D01*
X168129392Y-67278713D01*
X167385457Y-67278713D01*
X167573629Y-67090870D01*
X167653395Y-66898773D01*
X167707603Y-67029643D01*
X167949787Y-67099108D01*
X168750395Y-66298500D01*
X168736253Y-66284358D01*
X168915858Y-66104753D01*
X168930000Y-66118895D01*
X168944143Y-66104753D01*
X169123748Y-66284358D01*
X169109605Y-66298500D01*
X169910213Y-67099108D01*
X170152397Y-67029643D01*
X170196453Y-66906156D01*
X170247603Y-67029643D01*
X170489787Y-67099108D01*
X171290395Y-66298500D01*
X171276253Y-66284358D01*
X171455858Y-66104753D01*
X171470000Y-66118895D01*
X171484143Y-66104753D01*
X171663748Y-66284358D01*
X171649605Y-66298500D01*
X172450213Y-67099108D01*
X172692397Y-67029643D01*
X172742509Y-66889182D01*
X172824990Y-67088803D01*
X173217630Y-67482129D01*
X173250000Y-67495570D01*
X173250000Y-84303969D01*
X173219697Y-84316490D01*
X172826371Y-84709130D01*
X172746605Y-84901227D01*
X172692397Y-84770357D01*
X172450213Y-84700892D01*
X171649605Y-85501500D01*
X171663748Y-85515643D01*
X171484143Y-85695248D01*
X171470000Y-85681105D01*
X170669392Y-86481713D01*
X170738857Y-86723897D01*
X171262302Y-86910644D01*
X171539951Y-86896747D01*
X170828298Y-87608400D01*
X149871300Y-87608400D01*
X149580460Y-87666252D01*
X149333899Y-87830999D01*
X148779898Y-88385000D01*
X146575000Y-88385000D01*
X146284160Y-88442852D01*
X146037599Y-88607599D01*
X145749381Y-88895817D01*
X145719100Y-88883243D01*
X145163339Y-88882758D01*
X144649697Y-89094990D01*
X144256371Y-89487630D01*
X144170051Y-89695512D01*
X144085010Y-89489697D01*
X143692370Y-89096371D01*
X143179100Y-88883243D01*
X142623339Y-88882758D01*
X142109697Y-89094990D01*
X141716371Y-89487630D01*
X141636605Y-89679727D01*
X141582397Y-89548857D01*
X141340213Y-89479392D01*
X140539605Y-90280000D01*
X140553748Y-90294143D01*
X140374143Y-90473748D01*
X140360000Y-90459605D01*
X140345858Y-90473748D01*
X140166253Y-90294143D01*
X140180395Y-90280000D01*
X140166253Y-90265858D01*
X140345858Y-90086253D01*
X140360000Y-90100395D01*
X141160608Y-89299787D01*
X141091143Y-89057603D01*
X140567698Y-88870856D01*
X140012632Y-88898638D01*
X139628857Y-89057603D01*
X139559393Y-89299785D01*
X139444382Y-89184774D01*
X139406829Y-89222327D01*
X130461163Y-80276661D01*
X136202758Y-80276661D01*
X136414990Y-80790303D01*
X136807630Y-81183629D01*
X137320900Y-81396757D01*
X137876661Y-81397242D01*
X138390303Y-81185010D01*
X138783629Y-80792370D01*
X138797070Y-80760000D01*
X142793698Y-80760000D01*
X146138257Y-84104559D01*
X145793339Y-84104258D01*
X145279697Y-84316490D01*
X144886371Y-84709130D01*
X144800051Y-84917012D01*
X144715010Y-84711197D01*
X144322370Y-84317871D01*
X143809100Y-84104743D01*
X143253339Y-84104258D01*
X142739697Y-84316490D01*
X142346371Y-84709130D01*
X142260051Y-84917012D01*
X142175010Y-84711197D01*
X141782370Y-84317871D01*
X141269100Y-84104743D01*
X140713339Y-84104258D01*
X140199697Y-84316490D01*
X139806371Y-84709130D01*
X139593243Y-85222400D01*
X139592758Y-85778161D01*
X139804990Y-86291803D01*
X140197630Y-86685129D01*
X140710900Y-86898257D01*
X141266661Y-86898742D01*
X141780303Y-86686510D01*
X142173629Y-86293870D01*
X142259949Y-86085988D01*
X142344990Y-86291803D01*
X142737630Y-86685129D01*
X143250900Y-86898257D01*
X143806661Y-86898742D01*
X144320303Y-86686510D01*
X144713629Y-86293870D01*
X144799949Y-86085988D01*
X144884990Y-86291803D01*
X145277630Y-86685129D01*
X145790900Y-86898257D01*
X146346661Y-86898742D01*
X146860303Y-86686510D01*
X147253629Y-86293870D01*
X147339949Y-86085988D01*
X147424990Y-86291803D01*
X147817630Y-86685129D01*
X148330900Y-86898257D01*
X148886661Y-86898742D01*
X149400303Y-86686510D01*
X149793629Y-86293870D01*
X149879949Y-86085988D01*
X149964990Y-86291803D01*
X150357630Y-86685129D01*
X150870900Y-86898257D01*
X151426661Y-86898742D01*
X151940303Y-86686510D01*
X152333629Y-86293870D01*
X152419949Y-86085988D01*
X152504990Y-86291803D01*
X152897630Y-86685129D01*
X153410900Y-86898257D01*
X153966661Y-86898742D01*
X154480303Y-86686510D01*
X154873629Y-86293870D01*
X154959949Y-86085988D01*
X155044990Y-86291803D01*
X155437630Y-86685129D01*
X155950900Y-86898257D01*
X156506661Y-86898742D01*
X157020303Y-86686510D01*
X157413629Y-86293870D01*
X157499949Y-86085988D01*
X157584990Y-86291803D01*
X157977630Y-86685129D01*
X158490900Y-86898257D01*
X159046661Y-86898742D01*
X159560303Y-86686510D01*
X159953629Y-86293870D01*
X160039949Y-86085988D01*
X160124990Y-86291803D01*
X160517630Y-86685129D01*
X161030900Y-86898257D01*
X161586661Y-86898742D01*
X162100303Y-86686510D01*
X162493629Y-86293870D01*
X162579949Y-86085988D01*
X162664990Y-86291803D01*
X163057630Y-86685129D01*
X163570900Y-86898257D01*
X164126661Y-86898742D01*
X164640303Y-86686510D01*
X165033629Y-86293870D01*
X165119949Y-86085988D01*
X165204990Y-86291803D01*
X165597630Y-86685129D01*
X166110900Y-86898257D01*
X166666661Y-86898742D01*
X167180303Y-86686510D01*
X167385457Y-86481713D01*
X168129392Y-86481713D01*
X168198857Y-86723897D01*
X168722302Y-86910644D01*
X169277368Y-86882862D01*
X169661143Y-86723897D01*
X169730608Y-86481713D01*
X168930000Y-85681105D01*
X168129392Y-86481713D01*
X167385457Y-86481713D01*
X167573629Y-86293870D01*
X167653395Y-86101773D01*
X167707603Y-86232643D01*
X167949787Y-86302108D01*
X168750395Y-85501500D01*
X169109605Y-85501500D01*
X169910213Y-86302108D01*
X170152397Y-86232643D01*
X170196453Y-86109156D01*
X170247603Y-86232643D01*
X170489787Y-86302108D01*
X171290395Y-85501500D01*
X170489787Y-84700892D01*
X170247603Y-84770357D01*
X170203547Y-84893844D01*
X170152397Y-84770357D01*
X169910213Y-84700892D01*
X169109605Y-85501500D01*
X168750395Y-85501500D01*
X167949787Y-84700892D01*
X167707603Y-84770357D01*
X167657491Y-84910818D01*
X167575010Y-84711197D01*
X167385432Y-84521287D01*
X168129392Y-84521287D01*
X168930000Y-85321895D01*
X169730608Y-84521287D01*
X170669392Y-84521287D01*
X171470000Y-85321895D01*
X172270608Y-84521287D01*
X172201143Y-84279103D01*
X171677698Y-84092356D01*
X171122632Y-84120138D01*
X170738857Y-84279103D01*
X170669392Y-84521287D01*
X169730608Y-84521287D01*
X169661143Y-84279103D01*
X169137698Y-84092356D01*
X168582632Y-84120138D01*
X168198857Y-84279103D01*
X168129392Y-84521287D01*
X167385432Y-84521287D01*
X167182370Y-84317871D01*
X166669100Y-84104743D01*
X166113339Y-84104258D01*
X165599697Y-84316490D01*
X165206371Y-84709130D01*
X165120051Y-84917012D01*
X165035010Y-84711197D01*
X164642370Y-84317871D01*
X164129100Y-84104743D01*
X163573339Y-84104258D01*
X163059697Y-84316490D01*
X162666371Y-84709130D01*
X162580051Y-84917012D01*
X162495010Y-84711197D01*
X162102370Y-84317871D01*
X161589100Y-84104743D01*
X161033339Y-84104258D01*
X160519697Y-84316490D01*
X160126371Y-84709130D01*
X160040051Y-84917012D01*
X159955010Y-84711197D01*
X159562370Y-84317871D01*
X159049100Y-84104743D01*
X158493339Y-84104258D01*
X157979697Y-84316490D01*
X157586371Y-84709130D01*
X157500051Y-84917012D01*
X157415010Y-84711197D01*
X157022370Y-84317871D01*
X156509100Y-84104743D01*
X155953339Y-84104258D01*
X155439697Y-84316490D01*
X155046371Y-84709130D01*
X154960051Y-84917012D01*
X154875010Y-84711197D01*
X154482370Y-84317871D01*
X153969100Y-84104743D01*
X153413339Y-84104258D01*
X152899697Y-84316490D01*
X152506371Y-84709130D01*
X152420051Y-84917012D01*
X152335010Y-84711197D01*
X151942370Y-84317871D01*
X151429100Y-84104743D01*
X150873339Y-84104258D01*
X150359697Y-84316490D01*
X149966371Y-84709130D01*
X149880051Y-84917012D01*
X149795010Y-84711197D01*
X149402370Y-84317871D01*
X148889100Y-84104743D01*
X148333339Y-84104258D01*
X148300945Y-84117643D01*
X143645901Y-79462599D01*
X143399339Y-79297852D01*
X143108500Y-79240000D01*
X138797531Y-79240000D01*
X138785010Y-79209697D01*
X138392370Y-78816371D01*
X137879100Y-78603243D01*
X137323339Y-78602758D01*
X136809697Y-78814990D01*
X136416371Y-79207630D01*
X136203243Y-79720900D01*
X136202758Y-80276661D01*
X130461163Y-80276661D01*
X127461163Y-77276661D01*
X136202758Y-77276661D01*
X136414990Y-77790303D01*
X136807630Y-78183629D01*
X137320900Y-78396757D01*
X137876661Y-78397242D01*
X138390303Y-78185010D01*
X138783629Y-77792370D01*
X138996757Y-77279100D01*
X138997242Y-76723339D01*
X138785010Y-76209697D01*
X138392370Y-75816371D01*
X137879100Y-75603243D01*
X137323339Y-75602758D01*
X136809697Y-75814990D01*
X136416371Y-76207630D01*
X136203243Y-76720900D01*
X136202758Y-77276661D01*
X127461163Y-77276661D01*
X124673002Y-74488500D01*
X129733000Y-74488500D01*
X130023839Y-74430648D01*
X130270401Y-74265901D01*
X133659641Y-70876661D01*
X136202758Y-70876661D01*
X136414990Y-71390303D01*
X136807630Y-71783629D01*
X137320900Y-71996757D01*
X137876661Y-71997242D01*
X138390303Y-71785010D01*
X138783629Y-71392370D01*
X138996757Y-70879100D01*
X138997242Y-70323339D01*
X138785010Y-69809697D01*
X138392370Y-69416371D01*
X137879100Y-69203243D01*
X137323339Y-69202758D01*
X136809697Y-69414990D01*
X136416371Y-69807630D01*
X136203243Y-70320900D01*
X136202758Y-70876661D01*
X133659641Y-70876661D01*
X136336342Y-68199960D01*
X136414990Y-68390303D01*
X136807630Y-68783629D01*
X137320900Y-68996757D01*
X137876661Y-68997242D01*
X138390303Y-68785010D01*
X138783629Y-68392370D01*
X138996757Y-67879100D01*
X138997242Y-67323339D01*
X138785010Y-66809697D01*
X138392370Y-66416371D01*
X138199866Y-66336436D01*
X138611302Y-65925000D01*
X139632441Y-65925000D01*
X139593243Y-66019400D01*
M02*
