G04 #@! TF.FileFunction,Legend,Bot*
%FSLAX46Y46*%
G04 Gerber Fmt 4.6, Leading zero omitted, Abs format (unit mm)*
G04 Created by KiCad (PCBNEW 4.0.6+dfsg1-1) date Wed Jan 24 17:17:34 2018*
%MOMM*%
%LPD*%
G01*
G04 APERTURE LIST*
%ADD10C,0.100000*%
%ADD11C,0.300000*%
%ADD12C,0.500000*%
%ADD13C,0.010000*%
G04 APERTURE END LIST*
D10*
D11*
X131578571Y-85365179D02*
X130078571Y-85552679D01*
X130650000Y-85481250D02*
X130578571Y-85633036D01*
X130578571Y-85918750D01*
X130650000Y-86052678D01*
X130721429Y-86115178D01*
X130864286Y-86168750D01*
X131292857Y-86115179D01*
X131435714Y-86025893D01*
X131507143Y-85945535D01*
X131578571Y-85793750D01*
X131578571Y-85508036D01*
X131507143Y-85374107D01*
X130578571Y-86704465D02*
X131578571Y-86936608D01*
X130578571Y-87418750D02*
X131578571Y-86936608D01*
X131935714Y-86749107D01*
X132007143Y-86668750D01*
X132078571Y-86516965D01*
X131578571Y-89008036D02*
X130078571Y-89195536D01*
X131578571Y-89865179D01*
X130078571Y-90052679D01*
X131578571Y-90579465D02*
X130578571Y-90704465D01*
X130078571Y-90766965D02*
X130150000Y-90686607D01*
X130221429Y-90749107D01*
X130150000Y-90829464D01*
X130078571Y-90766965D01*
X130221429Y-90749107D01*
X131578571Y-91293751D02*
X130078571Y-91481251D01*
X131007143Y-91508036D02*
X131578571Y-91865179D01*
X130578571Y-91990179D02*
X131150000Y-91347322D01*
X131578571Y-92722323D02*
X131507143Y-92588393D01*
X131435714Y-92525894D01*
X131292857Y-92472322D01*
X130864286Y-92525893D01*
X130721429Y-92615179D01*
X130650000Y-92695536D01*
X130578571Y-92847323D01*
X130578571Y-93061608D01*
X130650000Y-93195536D01*
X130721429Y-93258036D01*
X130864286Y-93311608D01*
X131292857Y-93258037D01*
X131435714Y-93168751D01*
X131507143Y-93088393D01*
X131578571Y-92936608D01*
X131578571Y-92722323D01*
X131578571Y-94079466D02*
X131507143Y-93945536D01*
X131364286Y-93891965D01*
X130078571Y-94052680D01*
X131578571Y-95293751D02*
X130792857Y-95391965D01*
X130650000Y-95338393D01*
X130578571Y-95204465D01*
X130578571Y-94918751D01*
X130650000Y-94766965D01*
X131507143Y-95302679D02*
X131578571Y-95150894D01*
X131578571Y-94793751D01*
X131507143Y-94659822D01*
X131364286Y-94606250D01*
X131221429Y-94624107D01*
X131078571Y-94713394D01*
X131007143Y-94865179D01*
X131007143Y-95222322D01*
X130935714Y-95374108D01*
X131578571Y-96008037D02*
X130578571Y-96133037D01*
X130078571Y-96195537D02*
X130150000Y-96115179D01*
X130221429Y-96177679D01*
X130150000Y-96258036D01*
X130078571Y-96195537D01*
X130221429Y-96177679D01*
X131578571Y-98722323D02*
X130864286Y-98311608D01*
X131578571Y-97865180D02*
X130078571Y-98052680D01*
X130078571Y-98624108D01*
X130150000Y-98758037D01*
X130221429Y-98820536D01*
X130364286Y-98874108D01*
X130578571Y-98847323D01*
X130721429Y-98758036D01*
X130792857Y-98677680D01*
X130864286Y-98525893D01*
X130864286Y-97954465D01*
X131578571Y-100008037D02*
X130792857Y-100106251D01*
X130650000Y-100052679D01*
X130578571Y-99918751D01*
X130578571Y-99633037D01*
X130650000Y-99481251D01*
X131507143Y-100016965D02*
X131578571Y-99865180D01*
X131578571Y-99508037D01*
X131507143Y-99374108D01*
X131364286Y-99320536D01*
X131221429Y-99338393D01*
X131078571Y-99427680D01*
X131007143Y-99579465D01*
X131007143Y-99936608D01*
X130935714Y-100088394D01*
X131578571Y-101365180D02*
X130078571Y-101552680D01*
X131507143Y-101374108D02*
X131578571Y-101222323D01*
X131578571Y-100936609D01*
X131507143Y-100802679D01*
X131435714Y-100740180D01*
X131292857Y-100686608D01*
X130864286Y-100740179D01*
X130721429Y-100829465D01*
X130650000Y-100909822D01*
X130578571Y-101061609D01*
X130578571Y-101347323D01*
X130650000Y-101481251D01*
X131578571Y-102079466D02*
X130078571Y-102266966D01*
X131007143Y-102293751D02*
X131578571Y-102650894D01*
X130578571Y-102775894D02*
X131150000Y-102133037D01*
X131507143Y-103874108D02*
X131578571Y-103722323D01*
X131578571Y-103436609D01*
X131507143Y-103302680D01*
X131364286Y-103249108D01*
X130792857Y-103320537D01*
X130650000Y-103409823D01*
X130578571Y-103561609D01*
X130578571Y-103847323D01*
X130650000Y-103981251D01*
X130792857Y-104034823D01*
X130935714Y-104016966D01*
X131078571Y-103284823D01*
D12*
X129404762Y-87077381D02*
X127404762Y-87327381D01*
X129404762Y-88220239D01*
X127404762Y-88470239D01*
X127404762Y-89803572D02*
X127404762Y-90184524D01*
X127500000Y-90363095D01*
X127690476Y-90529763D01*
X128071429Y-90577381D01*
X128738095Y-90494048D01*
X129119048Y-90351191D01*
X129309524Y-90136905D01*
X129404762Y-89934524D01*
X129404762Y-89553572D01*
X129309524Y-89375001D01*
X129119048Y-89208333D01*
X128738095Y-89160714D01*
X128071429Y-89244047D01*
X127690476Y-89386905D01*
X127500000Y-89601191D01*
X127404762Y-89803572D01*
X129404762Y-91267857D02*
X127404762Y-91517857D01*
X129404762Y-92410715D02*
X128261905Y-91696429D01*
X127404762Y-92660715D02*
X128547619Y-91375000D01*
X127404762Y-93898810D02*
X127404762Y-94279762D01*
X127500000Y-94458333D01*
X127690476Y-94625001D01*
X128071429Y-94672619D01*
X128738095Y-94589286D01*
X129119048Y-94446429D01*
X129309524Y-94232143D01*
X129404762Y-94029762D01*
X129404762Y-93648810D01*
X129309524Y-93470239D01*
X129119048Y-93303571D01*
X128738095Y-93255952D01*
X128071429Y-93339285D01*
X127690476Y-93482143D01*
X127500000Y-93696429D01*
X127404762Y-93898810D01*
X127595238Y-97017857D02*
X127500000Y-97125000D01*
X127404762Y-97327382D01*
X127404762Y-97803572D01*
X127500000Y-97982143D01*
X127595238Y-98065476D01*
X127785714Y-98136906D01*
X127976190Y-98113096D01*
X128261905Y-97982143D01*
X129404762Y-96696429D01*
X129404762Y-97934525D01*
X129214286Y-98815476D02*
X129309524Y-98898811D01*
X129404762Y-98791667D01*
X129309524Y-98708334D01*
X129214286Y-98815476D01*
X129404762Y-98791667D01*
X127595238Y-99875000D02*
X127500000Y-99982143D01*
X127404762Y-100184525D01*
X127404762Y-100660715D01*
X127500000Y-100839286D01*
X127595238Y-100922619D01*
X127785714Y-100994049D01*
X127976190Y-100970239D01*
X128261905Y-100839286D01*
X129404762Y-99553572D01*
X129404762Y-100791668D01*
D13*
G36*
X97212356Y-100234535D02*
X97976291Y-100470673D01*
X98587222Y-100561216D01*
X99836068Y-100773916D01*
X101194403Y-101098829D01*
X101823875Y-101287080D01*
X103064844Y-101591867D01*
X104461435Y-101784738D01*
X105195349Y-101820000D01*
X106952947Y-101820000D01*
X106050918Y-102750658D01*
X105508677Y-103372618D01*
X105187044Y-103862300D01*
X105148889Y-103990463D01*
X105378982Y-104368888D01*
X105995538Y-104507522D01*
X106887971Y-104434044D01*
X107945697Y-104176134D01*
X109058130Y-103761473D01*
X110114685Y-103217740D01*
X111004777Y-102572616D01*
X111077161Y-102506594D01*
X111786948Y-102050357D01*
X112863116Y-101710142D01*
X113844067Y-101526934D01*
X114963678Y-101310000D01*
X116294613Y-100986839D01*
X117704498Y-100597494D01*
X119060959Y-100182007D01*
X120231624Y-99780420D01*
X121084120Y-99432776D01*
X121436658Y-99230211D01*
X121783659Y-98668594D01*
X121603847Y-98032379D01*
X120925067Y-97351632D01*
X119775161Y-96656421D01*
X118554444Y-96117731D01*
X117873134Y-95814064D01*
X117528380Y-95468794D01*
X117387440Y-94883004D01*
X117343693Y-94303368D01*
X117261830Y-92930000D01*
X118917679Y-92290878D01*
X120426631Y-91596819D01*
X121372414Y-90897048D01*
X121754606Y-90192008D01*
X121581715Y-89496011D01*
X121152831Y-89184597D01*
X120264093Y-88796612D01*
X119010000Y-88361744D01*
X117485051Y-87909682D01*
X115783744Y-87470113D01*
X114000577Y-87072724D01*
X113634981Y-86999455D01*
X112201409Y-86641078D01*
X111220566Y-86203153D01*
X110794035Y-85875117D01*
X109976260Y-85306140D01*
X108821988Y-84757842D01*
X107555391Y-84316079D01*
X106400641Y-84066710D01*
X106002606Y-84040000D01*
X105572222Y-84117923D01*
X105572222Y-84547564D01*
X106842222Y-84751264D01*
X107848185Y-85001763D01*
X108940428Y-85409696D01*
X109948385Y-85895656D01*
X110701493Y-86380234D01*
X110989139Y-86681911D01*
X111354988Y-86910742D01*
X112134243Y-87183659D01*
X113183284Y-87453518D01*
X113615556Y-87544037D01*
X115618724Y-87976679D01*
X117422771Y-88441269D01*
X118957028Y-88913593D01*
X120150825Y-89369436D01*
X120933492Y-89784585D01*
X121234359Y-90134825D01*
X121235556Y-90154958D01*
X120982791Y-90483068D01*
X120277234Y-90949297D01*
X119197987Y-91502863D01*
X118977778Y-91604393D01*
X116720000Y-92629998D01*
X116720000Y-94397400D01*
X116735154Y-95366524D01*
X116818889Y-95915868D01*
X117028613Y-96189986D01*
X117421733Y-96333433D01*
X117496111Y-96351663D01*
X118280611Y-96611810D01*
X119213164Y-97018808D01*
X120117426Y-97483213D01*
X120817056Y-97915579D01*
X121117588Y-98188558D01*
X121081597Y-98596041D01*
X120570503Y-99037815D01*
X119665504Y-99452652D01*
X119273037Y-99579469D01*
X117345458Y-100119652D01*
X115517104Y-100583007D01*
X113941206Y-100932563D01*
X112924912Y-101111162D01*
X111499486Y-101526555D01*
X110457639Y-102223629D01*
X109777133Y-102687168D01*
X108863326Y-103158768D01*
X107863404Y-103581839D01*
X106924552Y-103899790D01*
X106193955Y-104056030D01*
X105827540Y-104003836D01*
X105926747Y-103743084D01*
X106355004Y-103242516D01*
X106817125Y-102796877D01*
X107454319Y-102185781D01*
X107873426Y-101715907D01*
X107971111Y-101542670D01*
X107709222Y-101438834D01*
X107004147Y-101330279D01*
X105976773Y-101232756D01*
X105219444Y-101184124D01*
X103774033Y-101062200D01*
X102500463Y-100872168D01*
X101573503Y-100641715D01*
X101418509Y-100581947D01*
X100403406Y-100272223D01*
X99337034Y-100128003D01*
X99247943Y-100126666D01*
X98357552Y-100051639D01*
X98009125Y-99840041D01*
X98208456Y-99512095D01*
X98951614Y-99092421D01*
X99652927Y-98746433D01*
X99951955Y-98424639D01*
X99962990Y-97923757D01*
X99877539Y-97445555D01*
X99745147Y-96350767D01*
X99682618Y-94946977D01*
X99689100Y-93452597D01*
X99763741Y-92086038D01*
X99902386Y-91080456D01*
X100007851Y-90448482D01*
X99884064Y-90071804D01*
X99417193Y-89764710D01*
X98967927Y-89555927D01*
X98273018Y-89198345D01*
X97860410Y-88900602D01*
X97811111Y-88815223D01*
X98066083Y-88666997D01*
X98726594Y-88507919D01*
X99433889Y-88400671D01*
X100529600Y-88219373D01*
X101554155Y-87969878D01*
X102008355Y-87815919D01*
X102821519Y-87613378D01*
X104025438Y-87477185D01*
X105448384Y-87426674D01*
X105465577Y-87426666D01*
X106575807Y-87405726D01*
X107433844Y-87349685D01*
X107912909Y-87268714D01*
X107971111Y-87225682D01*
X107789315Y-86931904D01*
X107316830Y-86371177D01*
X106771667Y-85786131D01*
X105572222Y-84547564D01*
X105572222Y-84117923D01*
X105355234Y-84157210D01*
X105177497Y-84523837D01*
X105469668Y-85162373D01*
X106024792Y-85864624D01*
X106900694Y-86862222D01*
X104966458Y-86874609D01*
X103772131Y-86942565D01*
X102624722Y-87106590D01*
X101903333Y-87290500D01*
X100944752Y-87560071D01*
X99774456Y-87792533D01*
X99186220Y-87875101D01*
X97980778Y-88050004D01*
X97300570Y-88265898D01*
X97106388Y-88566220D01*
X97359029Y-88994407D01*
X97800450Y-89410433D01*
X98469656Y-89918277D01*
X99011862Y-90216204D01*
X99153794Y-90248889D01*
X99379924Y-90388528D01*
X99383460Y-90883946D01*
X99305566Y-91307222D01*
X99167050Y-92348585D01*
X99097138Y-93695765D01*
X99096742Y-95123679D01*
X99166772Y-96407244D01*
X99281662Y-97213586D01*
X99361031Y-97764695D01*
X99220751Y-98147785D01*
X98755607Y-98525361D01*
X98223328Y-98848260D01*
X97340581Y-99445482D01*
X97002021Y-99900189D01*
X97212356Y-100234535D01*
X97212356Y-100234535D01*
G37*
X97212356Y-100234535D02*
X97976291Y-100470673D01*
X98587222Y-100561216D01*
X99836068Y-100773916D01*
X101194403Y-101098829D01*
X101823875Y-101287080D01*
X103064844Y-101591867D01*
X104461435Y-101784738D01*
X105195349Y-101820000D01*
X106952947Y-101820000D01*
X106050918Y-102750658D01*
X105508677Y-103372618D01*
X105187044Y-103862300D01*
X105148889Y-103990463D01*
X105378982Y-104368888D01*
X105995538Y-104507522D01*
X106887971Y-104434044D01*
X107945697Y-104176134D01*
X109058130Y-103761473D01*
X110114685Y-103217740D01*
X111004777Y-102572616D01*
X111077161Y-102506594D01*
X111786948Y-102050357D01*
X112863116Y-101710142D01*
X113844067Y-101526934D01*
X114963678Y-101310000D01*
X116294613Y-100986839D01*
X117704498Y-100597494D01*
X119060959Y-100182007D01*
X120231624Y-99780420D01*
X121084120Y-99432776D01*
X121436658Y-99230211D01*
X121783659Y-98668594D01*
X121603847Y-98032379D01*
X120925067Y-97351632D01*
X119775161Y-96656421D01*
X118554444Y-96117731D01*
X117873134Y-95814064D01*
X117528380Y-95468794D01*
X117387440Y-94883004D01*
X117343693Y-94303368D01*
X117261830Y-92930000D01*
X118917679Y-92290878D01*
X120426631Y-91596819D01*
X121372414Y-90897048D01*
X121754606Y-90192008D01*
X121581715Y-89496011D01*
X121152831Y-89184597D01*
X120264093Y-88796612D01*
X119010000Y-88361744D01*
X117485051Y-87909682D01*
X115783744Y-87470113D01*
X114000577Y-87072724D01*
X113634981Y-86999455D01*
X112201409Y-86641078D01*
X111220566Y-86203153D01*
X110794035Y-85875117D01*
X109976260Y-85306140D01*
X108821988Y-84757842D01*
X107555391Y-84316079D01*
X106400641Y-84066710D01*
X106002606Y-84040000D01*
X105572222Y-84117923D01*
X105572222Y-84547564D01*
X106842222Y-84751264D01*
X107848185Y-85001763D01*
X108940428Y-85409696D01*
X109948385Y-85895656D01*
X110701493Y-86380234D01*
X110989139Y-86681911D01*
X111354988Y-86910742D01*
X112134243Y-87183659D01*
X113183284Y-87453518D01*
X113615556Y-87544037D01*
X115618724Y-87976679D01*
X117422771Y-88441269D01*
X118957028Y-88913593D01*
X120150825Y-89369436D01*
X120933492Y-89784585D01*
X121234359Y-90134825D01*
X121235556Y-90154958D01*
X120982791Y-90483068D01*
X120277234Y-90949297D01*
X119197987Y-91502863D01*
X118977778Y-91604393D01*
X116720000Y-92629998D01*
X116720000Y-94397400D01*
X116735154Y-95366524D01*
X116818889Y-95915868D01*
X117028613Y-96189986D01*
X117421733Y-96333433D01*
X117496111Y-96351663D01*
X118280611Y-96611810D01*
X119213164Y-97018808D01*
X120117426Y-97483213D01*
X120817056Y-97915579D01*
X121117588Y-98188558D01*
X121081597Y-98596041D01*
X120570503Y-99037815D01*
X119665504Y-99452652D01*
X119273037Y-99579469D01*
X117345458Y-100119652D01*
X115517104Y-100583007D01*
X113941206Y-100932563D01*
X112924912Y-101111162D01*
X111499486Y-101526555D01*
X110457639Y-102223629D01*
X109777133Y-102687168D01*
X108863326Y-103158768D01*
X107863404Y-103581839D01*
X106924552Y-103899790D01*
X106193955Y-104056030D01*
X105827540Y-104003836D01*
X105926747Y-103743084D01*
X106355004Y-103242516D01*
X106817125Y-102796877D01*
X107454319Y-102185781D01*
X107873426Y-101715907D01*
X107971111Y-101542670D01*
X107709222Y-101438834D01*
X107004147Y-101330279D01*
X105976773Y-101232756D01*
X105219444Y-101184124D01*
X103774033Y-101062200D01*
X102500463Y-100872168D01*
X101573503Y-100641715D01*
X101418509Y-100581947D01*
X100403406Y-100272223D01*
X99337034Y-100128003D01*
X99247943Y-100126666D01*
X98357552Y-100051639D01*
X98009125Y-99840041D01*
X98208456Y-99512095D01*
X98951614Y-99092421D01*
X99652927Y-98746433D01*
X99951955Y-98424639D01*
X99962990Y-97923757D01*
X99877539Y-97445555D01*
X99745147Y-96350767D01*
X99682618Y-94946977D01*
X99689100Y-93452597D01*
X99763741Y-92086038D01*
X99902386Y-91080456D01*
X100007851Y-90448482D01*
X99884064Y-90071804D01*
X99417193Y-89764710D01*
X98967927Y-89555927D01*
X98273018Y-89198345D01*
X97860410Y-88900602D01*
X97811111Y-88815223D01*
X98066083Y-88666997D01*
X98726594Y-88507919D01*
X99433889Y-88400671D01*
X100529600Y-88219373D01*
X101554155Y-87969878D01*
X102008355Y-87815919D01*
X102821519Y-87613378D01*
X104025438Y-87477185D01*
X105448384Y-87426674D01*
X105465577Y-87426666D01*
X106575807Y-87405726D01*
X107433844Y-87349685D01*
X107912909Y-87268714D01*
X107971111Y-87225682D01*
X107789315Y-86931904D01*
X107316830Y-86371177D01*
X106771667Y-85786131D01*
X105572222Y-84547564D01*
X105572222Y-84117923D01*
X105355234Y-84157210D01*
X105177497Y-84523837D01*
X105469668Y-85162373D01*
X106024792Y-85864624D01*
X106900694Y-86862222D01*
X104966458Y-86874609D01*
X103772131Y-86942565D01*
X102624722Y-87106590D01*
X101903333Y-87290500D01*
X100944752Y-87560071D01*
X99774456Y-87792533D01*
X99186220Y-87875101D01*
X97980778Y-88050004D01*
X97300570Y-88265898D01*
X97106388Y-88566220D01*
X97359029Y-88994407D01*
X97800450Y-89410433D01*
X98469656Y-89918277D01*
X99011862Y-90216204D01*
X99153794Y-90248889D01*
X99379924Y-90388528D01*
X99383460Y-90883946D01*
X99305566Y-91307222D01*
X99167050Y-92348585D01*
X99097138Y-93695765D01*
X99096742Y-95123679D01*
X99166772Y-96407244D01*
X99281662Y-97213586D01*
X99361031Y-97764695D01*
X99220751Y-98147785D01*
X98755607Y-98525361D01*
X98223328Y-98848260D01*
X97340581Y-99445482D01*
X97002021Y-99900189D01*
X97212356Y-100234535D01*
G36*
X115308889Y-98997778D02*
X115308889Y-89684444D01*
X112204444Y-89684444D01*
X112204444Y-89966666D01*
X114744444Y-89966666D01*
X114744444Y-98715555D01*
X112204444Y-98715555D01*
X112204444Y-89966666D01*
X112204444Y-89684444D01*
X111640000Y-89684444D01*
X111640000Y-98997778D01*
X115308889Y-98997778D01*
X115308889Y-98997778D01*
G37*
X115308889Y-98997778D02*
X115308889Y-89684444D01*
X112204444Y-89684444D01*
X112204444Y-89966666D01*
X114744444Y-89966666D01*
X114744444Y-98715555D01*
X112204444Y-98715555D01*
X112204444Y-89966666D01*
X112204444Y-89684444D01*
X111640000Y-89684444D01*
X111640000Y-98997778D01*
X115308889Y-98997778D01*
G36*
X104672592Y-95112924D02*
X105069941Y-95754891D01*
X105721268Y-96101563D01*
X106415248Y-96068101D01*
X106673523Y-95916229D01*
X107082050Y-95262847D01*
X107229337Y-94330651D01*
X107175531Y-93776666D01*
X106804536Y-92916838D01*
X106127989Y-92529985D01*
X106127640Y-92529956D01*
X106127640Y-92839199D01*
X106435165Y-93195607D01*
X106814392Y-94058028D01*
X106633849Y-94905494D01*
X106459700Y-95179692D01*
X105953601Y-95541471D01*
X105438697Y-95405834D01*
X105044440Y-94822614D01*
X104979148Y-94609741D01*
X104970814Y-93891150D01*
X105410348Y-93257101D01*
X105858075Y-92854100D01*
X106127640Y-92839199D01*
X106127640Y-92529956D01*
X105854444Y-92506666D01*
X105096073Y-92740323D01*
X104646851Y-93386967D01*
X104543730Y-94365111D01*
X104672592Y-95112924D01*
X104672592Y-95112924D01*
G37*
X104672592Y-95112924D02*
X105069941Y-95754891D01*
X105721268Y-96101563D01*
X106415248Y-96068101D01*
X106673523Y-95916229D01*
X107082050Y-95262847D01*
X107229337Y-94330651D01*
X107175531Y-93776666D01*
X106804536Y-92916838D01*
X106127989Y-92529985D01*
X106127640Y-92529956D01*
X106127640Y-92839199D01*
X106435165Y-93195607D01*
X106814392Y-94058028D01*
X106633849Y-94905494D01*
X106459700Y-95179692D01*
X105953601Y-95541471D01*
X105438697Y-95405834D01*
X105044440Y-94822614D01*
X104979148Y-94609741D01*
X104970814Y-93891150D01*
X105410348Y-93257101D01*
X105858075Y-92854100D01*
X106127640Y-92839199D01*
X106127640Y-92529956D01*
X105854444Y-92506666D01*
X105096073Y-92740323D01*
X104646851Y-93386967D01*
X104543730Y-94365111D01*
X104672592Y-95112924D01*
G36*
X102528505Y-91339622D02*
X102934605Y-91964439D01*
X103541246Y-92411709D01*
X103912671Y-92506666D01*
X104524395Y-92263515D01*
X104952067Y-91668154D01*
X105122995Y-90921727D01*
X104964487Y-90225373D01*
X104810222Y-90023111D01*
X104184364Y-89719534D01*
X103671995Y-89783225D01*
X103671995Y-90248889D01*
X104325000Y-90403086D01*
X104546546Y-90906928D01*
X104525794Y-91225053D01*
X104226865Y-91712875D01*
X103878889Y-91801111D01*
X103417163Y-91614254D01*
X103225143Y-91025000D01*
X103246609Y-90448350D01*
X103554010Y-90254468D01*
X103671995Y-90248889D01*
X103671995Y-89783225D01*
X103480706Y-89807004D01*
X102866384Y-90189087D01*
X102508534Y-90769347D01*
X102528505Y-91339622D01*
X102528505Y-91339622D01*
G37*
X102528505Y-91339622D02*
X102934605Y-91964439D01*
X103541246Y-92411709D01*
X103912671Y-92506666D01*
X104524395Y-92263515D01*
X104952067Y-91668154D01*
X105122995Y-90921727D01*
X104964487Y-90225373D01*
X104810222Y-90023111D01*
X104184364Y-89719534D01*
X103671995Y-89783225D01*
X103671995Y-90248889D01*
X104325000Y-90403086D01*
X104546546Y-90906928D01*
X104525794Y-91225053D01*
X104226865Y-91712875D01*
X103878889Y-91801111D01*
X103417163Y-91614254D01*
X103225143Y-91025000D01*
X103246609Y-90448350D01*
X103554010Y-90254468D01*
X103671995Y-90248889D01*
X103671995Y-89783225D01*
X103480706Y-89807004D01*
X102866384Y-90189087D01*
X102508534Y-90769347D01*
X102528505Y-91339622D01*
G36*
X102735313Y-98326549D02*
X102766003Y-98370537D01*
X103391353Y-98869509D01*
X104152477Y-98974683D01*
X104810222Y-98659111D01*
X105116740Y-98001755D01*
X105051447Y-97206825D01*
X104705397Y-96619047D01*
X104044002Y-96215802D01*
X103797093Y-96267379D01*
X103797093Y-96779794D01*
X104194420Y-96854841D01*
X104531169Y-97215887D01*
X104514978Y-97741310D01*
X104202469Y-98207081D01*
X103808333Y-98382406D01*
X103330524Y-98342272D01*
X103177772Y-97931880D01*
X103173333Y-97764062D01*
X103337746Y-97046928D01*
X103797093Y-96779794D01*
X103797093Y-96267379D01*
X103366456Y-96357337D01*
X102891111Y-96740000D01*
X102435629Y-97276915D01*
X102390140Y-97721782D01*
X102735313Y-98326549D01*
X102735313Y-98326549D01*
G37*
X102735313Y-98326549D02*
X102766003Y-98370537D01*
X103391353Y-98869509D01*
X104152477Y-98974683D01*
X104810222Y-98659111D01*
X105116740Y-98001755D01*
X105051447Y-97206825D01*
X104705397Y-96619047D01*
X104044002Y-96215802D01*
X103797093Y-96267379D01*
X103797093Y-96779794D01*
X104194420Y-96854841D01*
X104531169Y-97215887D01*
X104514978Y-97741310D01*
X104202469Y-98207081D01*
X103808333Y-98382406D01*
X103330524Y-98342272D01*
X103177772Y-97931880D01*
X103173333Y-97764062D01*
X103337746Y-97046928D01*
X103797093Y-96779794D01*
X103797093Y-96267379D01*
X103366456Y-96357337D01*
X102891111Y-96740000D01*
X102435629Y-97276915D01*
X102390140Y-97721782D01*
X102735313Y-98326549D01*
M02*
