G04 #@! TF.FileFunction,Soldermask,Bot*
%FSLAX46Y46*%
G04 Gerber Fmt 4.6, Leading zero omitted, Abs format (unit mm)*
G04 Created by KiCad (PCBNEW 4.0.6+dfsg1-1) date Wed Nov 15 17:46:22 2017*
%MOMM*%
%LPD*%
G01*
G04 APERTURE LIST*
%ADD10C,0.100000*%
%ADD11R,2.600000X2.600000*%
%ADD12O,2.600000X2.600000*%
%ADD13R,2.000000X2.000000*%
%ADD14C,2.000000*%
%ADD15R,2.200000X2.200000*%
%ADD16C,2.200000*%
%ADD17R,2.250000X2.250000*%
%ADD18C,2.250000*%
%ADD19O,2.940000X2.432000*%
%ADD20O,2.000000X2.000000*%
%ADD21C,1.924000*%
G04 APERTURE END LIST*
D10*
D11*
X148800000Y-110300000D03*
D12*
X148800000Y-102680000D03*
D13*
X89500000Y-106700000D03*
D14*
X87000000Y-106700000D03*
D13*
X176300000Y-102600000D03*
D14*
X178800000Y-102600000D03*
D13*
X163600000Y-102500000D03*
D14*
X166100000Y-102500000D03*
D13*
X170200000Y-102600000D03*
D14*
X172700000Y-102600000D03*
D13*
X180200000Y-115800000D03*
D14*
X180200000Y-113300000D03*
D13*
X158200000Y-89700000D03*
D14*
X158200000Y-87200000D03*
D13*
X132300000Y-96900000D03*
D14*
X129800000Y-96900000D03*
D13*
X139700000Y-116700000D03*
D14*
X137200000Y-116700000D03*
D13*
X132600000Y-140900000D03*
D14*
X132600000Y-138400000D03*
D13*
X124200000Y-103700000D03*
D14*
X126200000Y-103700000D03*
D13*
X124100000Y-110200000D03*
D14*
X126100000Y-110200000D03*
D13*
X184100000Y-88800000D03*
D14*
X186600000Y-88800000D03*
D13*
X135600000Y-96700000D03*
D14*
X138100000Y-96700000D03*
D13*
X130900000Y-116600000D03*
D14*
X133400000Y-116600000D03*
D13*
X161000000Y-80800000D03*
D14*
X158500000Y-80800000D03*
D13*
X183600000Y-102400000D03*
D14*
X186100000Y-102400000D03*
D13*
X124800000Y-116600000D03*
D14*
X126800000Y-116600000D03*
D13*
X124300000Y-96700000D03*
D14*
X126300000Y-96700000D03*
D15*
X193500000Y-101000000D03*
D16*
X196040000Y-101000000D03*
D17*
X61300000Y-84500000D03*
D18*
X61300000Y-82000000D03*
D17*
X71900000Y-121100000D03*
D18*
X69400000Y-121100000D03*
D17*
X174300000Y-96800000D03*
D18*
X171800000Y-96800000D03*
X169300000Y-96800000D03*
D17*
X195000000Y-92000000D03*
D18*
X195000000Y-94500000D03*
D17*
X185000000Y-47400000D03*
D18*
X187500000Y-47400000D03*
D17*
X186300000Y-140000000D03*
D18*
X183800000Y-140000000D03*
D17*
X61500000Y-98600000D03*
D18*
X61500000Y-96100000D03*
D17*
X83600000Y-121100000D03*
D18*
X81100000Y-121100000D03*
X78600000Y-121100000D03*
D17*
X193100000Y-61400000D03*
D18*
X193100000Y-58900000D03*
D17*
X195300000Y-128200000D03*
D18*
X195300000Y-130700000D03*
D17*
X194900000Y-77600000D03*
D18*
X194900000Y-80100000D03*
X194900000Y-82600000D03*
X194900000Y-85100000D03*
D17*
X194900000Y-108400000D03*
D18*
X194900000Y-110900000D03*
X194900000Y-113400000D03*
X194900000Y-115900000D03*
D17*
X81300000Y-74700000D03*
D18*
X83800000Y-74700000D03*
D19*
X155600000Y-99300000D03*
X155600000Y-101840000D03*
X155600000Y-96760000D03*
D14*
X187600000Y-62400000D03*
D20*
X187600000Y-54780000D03*
D14*
X183960000Y-54760000D03*
D20*
X183960000Y-62380000D03*
D14*
X184800000Y-133600000D03*
D20*
X177180000Y-133600000D03*
D14*
X96600000Y-121700000D03*
D20*
X88980000Y-121700000D03*
D14*
X96400000Y-112900000D03*
D20*
X88780000Y-112900000D03*
D14*
X88900000Y-117200000D03*
D20*
X96520000Y-117200000D03*
D14*
X122800000Y-86300000D03*
D20*
X130420000Y-86300000D03*
D14*
X179760000Y-96100000D03*
D20*
X187380000Y-96100000D03*
D14*
X160000000Y-68000000D03*
D20*
X160000000Y-75620000D03*
D14*
X187300000Y-65800000D03*
D20*
X187300000Y-73420000D03*
D14*
X187200000Y-84500000D03*
D20*
X187200000Y-76880000D03*
D21*
X165270000Y-108690000D03*
X167810000Y-108690000D03*
X170350000Y-108690000D03*
X172890000Y-108690000D03*
X162730000Y-108690000D03*
X160190000Y-108690000D03*
X157650000Y-108690000D03*
X155110000Y-108690000D03*
X172890000Y-116310000D03*
X170350000Y-116310000D03*
X167810000Y-116310000D03*
X165270000Y-116310000D03*
X162730000Y-116310000D03*
X160190000Y-116310000D03*
X157650000Y-116310000D03*
X155110000Y-116310000D03*
D13*
X179700000Y-88400000D03*
D20*
X164460000Y-55380000D03*
X179700000Y-85860000D03*
X164460000Y-57920000D03*
X179700000Y-83320000D03*
X164460000Y-60460000D03*
X179700000Y-80780000D03*
X164460000Y-63000000D03*
X179700000Y-78240000D03*
X164460000Y-65540000D03*
X179700000Y-75700000D03*
X164460000Y-68080000D03*
X179700000Y-73160000D03*
X164460000Y-70620000D03*
X179700000Y-70620000D03*
X164460000Y-73160000D03*
X179700000Y-68080000D03*
X164460000Y-75700000D03*
X179700000Y-65540000D03*
X164460000Y-78240000D03*
X179700000Y-63000000D03*
X164460000Y-80780000D03*
X179700000Y-60460000D03*
X164460000Y-83320000D03*
X179700000Y-57920000D03*
X164460000Y-85860000D03*
X179700000Y-55380000D03*
X164460000Y-88400000D03*
X179700000Y-52840000D03*
X164460000Y-52840000D03*
D21*
X137700000Y-103090000D03*
X140240000Y-103090000D03*
X142780000Y-103090000D03*
X135160000Y-103090000D03*
X132620000Y-103090000D03*
X137700000Y-110710000D03*
X140240000Y-110710000D03*
X142780000Y-110710000D03*
X135160000Y-110710000D03*
X132620000Y-110710000D03*
D13*
X104300000Y-111500000D03*
D20*
X111920000Y-103880000D03*
X106840000Y-111500000D03*
X109380000Y-103880000D03*
X109380000Y-111500000D03*
X106840000Y-103880000D03*
X111920000Y-111500000D03*
X104300000Y-103880000D03*
D21*
X88910000Y-81910000D03*
X88910000Y-79370000D03*
X88910000Y-76830000D03*
X88910000Y-74290000D03*
D17*
X66700000Y-74900000D03*
D18*
X69200000Y-74900000D03*
X71700000Y-74900000D03*
X74200000Y-74900000D03*
D21*
X154601500Y-48290000D03*
X154601500Y-50830000D03*
X154601500Y-53370000D03*
X154601500Y-55910000D03*
X154601500Y-58450000D03*
X154601500Y-60990000D03*
X154601500Y-63530000D03*
X154601500Y-66070000D03*
X154601500Y-81310000D03*
X154601500Y-78770000D03*
X154601500Y-76230000D03*
X154601500Y-73690000D03*
X154601500Y-71150000D03*
X154601500Y-68610000D03*
X135398500Y-68610000D03*
X135398500Y-71150000D03*
X135398500Y-73690000D03*
X135398500Y-76230000D03*
X135398500Y-78770000D03*
X135398500Y-81310000D03*
X135398500Y-66070000D03*
X135398500Y-63530000D03*
X135398500Y-60990000D03*
X135398500Y-58450000D03*
X135398500Y-55910000D03*
X135398500Y-53370000D03*
X135398500Y-50830000D03*
X135398500Y-48290000D03*
X100438000Y-117114000D03*
X102978000Y-117114000D03*
X108058000Y-117114000D03*
X110598000Y-117114000D03*
X126600000Y-140990000D03*
X126600000Y-138450000D03*
X126600000Y-135910000D03*
X126600000Y-133370000D03*
X126600000Y-130830000D03*
X126600000Y-128290000D03*
X126600000Y-125750000D03*
X126600000Y-123210000D03*
X172934000Y-133370000D03*
X172934000Y-135910000D03*
X172934000Y-138450000D03*
X172934000Y-130830000D03*
X172934000Y-128290000D03*
X172934000Y-125750000D03*
X70190000Y-90670000D03*
X77810000Y-90670000D03*
X80350000Y-90670000D03*
X67650000Y-90670000D03*
X80350000Y-113530000D03*
X67650000Y-113530000D03*
X67650000Y-96004000D03*
X80350000Y-96004000D03*
X117740000Y-96910000D03*
X117740000Y-89290000D03*
X87260000Y-96910000D03*
X87260000Y-89290000D03*
M02*
