G04 #@! TF.FileFunction,Copper,L1,Top,Signal*
%FSLAX46Y46*%
G04 Gerber Fmt 4.6, Leading zero omitted, Abs format (unit mm)*
G04 Created by KiCad (PCBNEW 4.0.6+dfsg1-1) date Wed Jan 24 17:17:34 2018*
%MOMM*%
%LPD*%
G01*
G04 APERTURE LIST*
%ADD10C,0.100000*%
%ADD11R,2.200000X2.200000*%
%ADD12O,2.200000X2.200000*%
%ADD13R,1.600000X1.600000*%
%ADD14C,1.600000*%
%ADD15O,2.540000X2.032000*%
%ADD16O,1.600000X1.600000*%
%ADD17R,1.750000X1.750000*%
%ADD18C,1.750000*%
%ADD19C,1.524000*%
%ADD20C,0.600000*%
%ADD21C,0.250000*%
%ADD22C,0.254000*%
G04 APERTURE END LIST*
D10*
D11*
X156200000Y-118700000D03*
D12*
X156200000Y-111080000D03*
D13*
X101500000Y-134100000D03*
D14*
X99000000Y-134100000D03*
D13*
X186200000Y-123300000D03*
D14*
X186200000Y-125800000D03*
D15*
X186200000Y-114900000D03*
X186200000Y-117440000D03*
X186200000Y-112360000D03*
D14*
X184400000Y-80000000D03*
D16*
X184400000Y-72380000D03*
D14*
X181000000Y-65400000D03*
D16*
X181000000Y-73020000D03*
D14*
X104400000Y-75400000D03*
D16*
X104400000Y-83020000D03*
D14*
X104000000Y-129500000D03*
D16*
X96380000Y-129500000D03*
D14*
X104000000Y-126100000D03*
D16*
X96380000Y-126100000D03*
D14*
X104000000Y-122700000D03*
D16*
X96380000Y-122700000D03*
D14*
X108100000Y-75400000D03*
D16*
X108100000Y-83020000D03*
D14*
X181000000Y-75300000D03*
D16*
X181000000Y-82920000D03*
D14*
X177700000Y-65400000D03*
D16*
X177700000Y-73020000D03*
D17*
X92200000Y-125300000D03*
D18*
X92200000Y-127800000D03*
X92200000Y-130300000D03*
X92200000Y-132800000D03*
D17*
X185900000Y-139600000D03*
D18*
X188400000Y-139600000D03*
D17*
X109800000Y-68300000D03*
D18*
X107300000Y-68300000D03*
D17*
X194100000Y-110000000D03*
D18*
X194100000Y-107500000D03*
D19*
X173670000Y-111190000D03*
X176210000Y-111190000D03*
X178750000Y-111190000D03*
X181290000Y-111190000D03*
X171130000Y-111190000D03*
X168590000Y-111190000D03*
X166050000Y-111190000D03*
X163510000Y-111190000D03*
X181290000Y-118810000D03*
X178750000Y-118810000D03*
X176210000Y-118810000D03*
X173670000Y-118810000D03*
X171130000Y-118810000D03*
X168590000Y-118810000D03*
X166050000Y-118810000D03*
X163510000Y-118810000D03*
D17*
X194100000Y-100800000D03*
D18*
X194100000Y-98300000D03*
D14*
X126400000Y-107000000D03*
D16*
X134020000Y-107000000D03*
D13*
X136000000Y-127800000D03*
D16*
X143620000Y-135420000D03*
X136000000Y-130340000D03*
X143620000Y-132880000D03*
X136000000Y-132880000D03*
X143620000Y-130340000D03*
X136000000Y-135420000D03*
X143620000Y-127800000D03*
D19*
X146700000Y-111090000D03*
X149240000Y-111090000D03*
X151780000Y-111090000D03*
X144160000Y-111090000D03*
X141620000Y-111090000D03*
X146700000Y-118710000D03*
X149240000Y-118710000D03*
X151780000Y-118710000D03*
X144160000Y-118710000D03*
X141620000Y-118710000D03*
D17*
X188200000Y-68100000D03*
D18*
X185700000Y-68100000D03*
D17*
X99700000Y-139900000D03*
D18*
X102200000Y-139900000D03*
D17*
X101100000Y-68300000D03*
D18*
X98600000Y-68300000D03*
D17*
X194100000Y-77400000D03*
D18*
X194100000Y-74900000D03*
D17*
X194100000Y-91600000D03*
D18*
X194100000Y-89100000D03*
X194100000Y-86600000D03*
X194100000Y-84100000D03*
D13*
X123400000Y-111600000D03*
D14*
X125400000Y-111600000D03*
X159400000Y-111800000D03*
X159400000Y-109300000D03*
X124100000Y-107000000D03*
X121600000Y-107000000D03*
X159400000Y-118000000D03*
X159400000Y-120500000D03*
D17*
X92500000Y-74200000D03*
D18*
X92500000Y-76700000D03*
X92500000Y-79200000D03*
X92500000Y-81700000D03*
D17*
X194100000Y-124100000D03*
D18*
X194100000Y-121600000D03*
X194100000Y-119100000D03*
X194100000Y-116600000D03*
D13*
X178800000Y-103700000D03*
D14*
X182600000Y-103700000D03*
D13*
X178400000Y-88400000D03*
D14*
X182200000Y-88400000D03*
D13*
X137800000Y-139600000D03*
D14*
X137800000Y-142100000D03*
D13*
X123400000Y-117500000D03*
D14*
X125400000Y-117500000D03*
D13*
X186400000Y-87900000D03*
D14*
X188900000Y-87900000D03*
D13*
X129000000Y-111600000D03*
D14*
X131500000Y-111600000D03*
D13*
X135100000Y-117500000D03*
D14*
X137100000Y-117500000D03*
D13*
X135100000Y-111600000D03*
D14*
X137100000Y-111600000D03*
D13*
X129300000Y-117500000D03*
D14*
X131300000Y-117500000D03*
D17*
X194100000Y-133300000D03*
D18*
X194100000Y-130800000D03*
D19*
X113800000Y-78300000D03*
X113800000Y-75300000D03*
X113800000Y-72300000D03*
X113800000Y-69300000D03*
X137600000Y-67600000D03*
X137600000Y-70600000D03*
X137600000Y-77000000D03*
X137600000Y-80000000D03*
X122940000Y-97510000D03*
X122940000Y-89890000D03*
X92460000Y-97510000D03*
X92460000Y-89890000D03*
X91170000Y-115610000D03*
X91170000Y-107990000D03*
X91170000Y-105450000D03*
X91170000Y-118150000D03*
X114030000Y-105450000D03*
X114030000Y-118150000D03*
X96504000Y-118150000D03*
X96504000Y-105450000D03*
X140990000Y-66298500D03*
X143530000Y-66298500D03*
X146070000Y-66298500D03*
X148610000Y-66298500D03*
X151150000Y-66298500D03*
X153690000Y-66298500D03*
X156230000Y-66298500D03*
X158770000Y-66298500D03*
X174010000Y-66298500D03*
X171470000Y-66298500D03*
X168930000Y-66298500D03*
X166390000Y-66298500D03*
X163850000Y-66298500D03*
X161310000Y-66298500D03*
X161310000Y-85501500D03*
X163850000Y-85501500D03*
X166390000Y-85501500D03*
X168930000Y-85501500D03*
X171470000Y-85501500D03*
X174010000Y-85501500D03*
X158770000Y-85501500D03*
X156230000Y-85501500D03*
X153690000Y-85501500D03*
X151150000Y-85501500D03*
X148610000Y-85501500D03*
X146070000Y-85501500D03*
X143530000Y-85501500D03*
X140990000Y-85501500D03*
X180734000Y-134070000D03*
X180734000Y-136610000D03*
X180734000Y-139150000D03*
X180734000Y-131530000D03*
X180734000Y-128990000D03*
X180734000Y-126450000D03*
X106830000Y-121270000D03*
X119530000Y-121270000D03*
X133500000Y-141590000D03*
X133500000Y-139050000D03*
X133500000Y-136510000D03*
X133500000Y-133970000D03*
X133500000Y-131430000D03*
X133500000Y-128890000D03*
X133500000Y-126350000D03*
X133500000Y-123810000D03*
X158040000Y-90280000D03*
X160580000Y-90280000D03*
X163120000Y-90280000D03*
X165660000Y-90280000D03*
X168200000Y-90280000D03*
X170740000Y-90280000D03*
X173280000Y-90280000D03*
X155500000Y-90280000D03*
X152960000Y-90280000D03*
X150420000Y-90280000D03*
X147880000Y-90280000D03*
X145340000Y-90280000D03*
X142800000Y-90280000D03*
X140260000Y-90280000D03*
X137720000Y-90280000D03*
X137720000Y-105520000D03*
X140260000Y-105520000D03*
X142800000Y-105520000D03*
X145340000Y-105520000D03*
X147880000Y-105520000D03*
X150420000Y-105520000D03*
X152960000Y-105520000D03*
X155500000Y-105520000D03*
X158040000Y-105520000D03*
X160580000Y-105520000D03*
X163120000Y-105520000D03*
X165660000Y-105520000D03*
X168200000Y-105520000D03*
X170740000Y-105520000D03*
X173280000Y-105520000D03*
X132700000Y-101700000D03*
X132700000Y-94100000D03*
D20*
X127709600Y-117083200D03*
X131177200Y-103889900D03*
X186503800Y-127812500D03*
X115537100Y-99989800D03*
X135315700Y-95738200D03*
D21*
X154764700Y-111090000D02*
X154774700Y-111080000D01*
X151780000Y-111090000D02*
X154764700Y-111090000D01*
X156200000Y-111080000D02*
X154774700Y-111080000D01*
X168930000Y-66298500D02*
X171470000Y-66298500D01*
X154764700Y-118710000D02*
X154774700Y-118700000D01*
X151780000Y-118710000D02*
X154764700Y-118710000D01*
X192900000Y-87900000D02*
X188900000Y-87900000D01*
X194100000Y-89100000D02*
X192900000Y-87900000D01*
X155487400Y-118700000D02*
X154774700Y-118700000D01*
X155487400Y-118700000D02*
X156200000Y-118700000D01*
X99700000Y-139900000D02*
X99700000Y-138699700D01*
X168930000Y-85501500D02*
X171470000Y-85501500D01*
X182200000Y-88400000D02*
X182200000Y-87128300D01*
X182571500Y-86756800D02*
X182200000Y-87128300D01*
X187756800Y-86756800D02*
X182571500Y-86756800D01*
X188900000Y-87900000D02*
X187756800Y-86756800D01*
X173096800Y-87128300D02*
X171470000Y-85501500D01*
X182200000Y-87128300D02*
X173096800Y-87128300D01*
X136000000Y-130340000D02*
X136000000Y-127800000D01*
X143620000Y-130340000D02*
X142494700Y-130340000D01*
X136000000Y-130340000D02*
X142494700Y-130340000D01*
X99700000Y-134800000D02*
X99000000Y-134100000D01*
X99700000Y-138699700D02*
X99700000Y-134800000D01*
X133149700Y-138699700D02*
X99700000Y-138699700D01*
X133500000Y-139050000D02*
X133149700Y-138699700D01*
X91170000Y-98800000D02*
X92460000Y-97510000D01*
X91170000Y-105450000D02*
X91170000Y-98800000D01*
X116340000Y-97510000D02*
X104400000Y-85570000D01*
X122940000Y-97510000D02*
X116340000Y-97510000D01*
X92460000Y-97510000D02*
X104400000Y-85570000D01*
X104400000Y-85570000D02*
X104400000Y-83020000D01*
X178750000Y-107550000D02*
X178750000Y-111190000D01*
X182600000Y-103700000D02*
X178750000Y-107550000D01*
X185878500Y-134005500D02*
X180734000Y-139150000D01*
X185878500Y-126121500D02*
X185878500Y-134005500D01*
X186200000Y-125800000D02*
X185878500Y-126121500D01*
X192900000Y-119100000D02*
X186200000Y-125800000D01*
X194100000Y-119100000D02*
X192900000Y-119100000D01*
X192899700Y-112400600D02*
X194100000Y-111200300D01*
X192899700Y-119099700D02*
X192899700Y-112400600D01*
X192900000Y-119100000D02*
X192899700Y-119099700D01*
X194100000Y-110000000D02*
X194100000Y-111200300D01*
X108420000Y-125080000D02*
X104000000Y-129500000D01*
X159780000Y-125080000D02*
X108420000Y-125080000D01*
X166050000Y-118810000D02*
X159780000Y-125080000D01*
X179690600Y-120409400D02*
X181290000Y-118810000D01*
X167649400Y-120409400D02*
X179690600Y-120409400D01*
X166050000Y-118810000D02*
X167649400Y-120409400D01*
X94874700Y-132974700D02*
X92200000Y-130300000D01*
X99530800Y-132974700D02*
X94874700Y-132974700D01*
X100374700Y-133818600D02*
X99530800Y-132974700D01*
X100374700Y-134100000D02*
X100374700Y-133818600D01*
X101500000Y-134100000D02*
X100374700Y-134100000D01*
X143620000Y-127800000D02*
X144745300Y-127800000D01*
X183623900Y-89550800D02*
X185274700Y-87900000D01*
X180676100Y-89550800D02*
X183623900Y-89550800D01*
X179525300Y-88400000D02*
X180676100Y-89550800D01*
X178400000Y-88400000D02*
X179525300Y-88400000D01*
X186400000Y-87900000D02*
X185274700Y-87900000D01*
X186200000Y-117440000D02*
X186200000Y-123300000D01*
X147973400Y-131028100D02*
X179646600Y-131028100D01*
X144745300Y-127800000D02*
X147973400Y-131028100D01*
X179646600Y-135522600D02*
X180734000Y-136610000D01*
X179646600Y-131028100D02*
X179646600Y-135522600D01*
X180414700Y-130260000D02*
X179646600Y-131028100D01*
X181012200Y-130260000D02*
X180414700Y-130260000D01*
X185074700Y-126197500D02*
X181012200Y-130260000D01*
X185074700Y-125269200D02*
X185074700Y-126197500D01*
X185918600Y-124425300D02*
X185074700Y-125269200D01*
X186200000Y-124425300D02*
X185918600Y-124425300D01*
X186200000Y-123300000D02*
X186200000Y-124425300D01*
X164099100Y-107080900D02*
X165660000Y-105520000D01*
X145302500Y-107080900D02*
X164099100Y-107080900D01*
X144070000Y-105848400D02*
X145302500Y-107080900D01*
X144070000Y-103608000D02*
X144070000Y-105848400D01*
X132998500Y-92536500D02*
X144070000Y-103608000D01*
X115854300Y-92536500D02*
X132998500Y-92536500D01*
X105210500Y-81892700D02*
X115854300Y-92536500D01*
X100457300Y-81892700D02*
X105210500Y-81892700D01*
X92460000Y-89890000D02*
X100457300Y-81892700D01*
X159677700Y-117722300D02*
X159400000Y-118000000D01*
X170042300Y-117722300D02*
X159677700Y-117722300D01*
X171130000Y-118810000D02*
X170042300Y-117722300D01*
X122274700Y-118525300D02*
X122274700Y-117500000D01*
X119530000Y-121270000D02*
X122274700Y-118525300D01*
X123400000Y-117500000D02*
X122274700Y-117500000D01*
X148490000Y-109300000D02*
X146700000Y-111090000D01*
X159400000Y-109300000D02*
X148490000Y-109300000D01*
X112604700Y-121270000D02*
X122274700Y-111600000D01*
X106830000Y-121270000D02*
X112604700Y-121270000D01*
X123400000Y-111600000D02*
X122274700Y-111600000D01*
X148490000Y-120500000D02*
X146700000Y-118710000D01*
X159400000Y-120500000D02*
X148490000Y-120500000D01*
X137290000Y-141590000D02*
X137800000Y-142100000D01*
X133500000Y-141590000D02*
X137290000Y-141590000D01*
X147081500Y-113248500D02*
X149240000Y-111090000D01*
X135551500Y-113248500D02*
X147081500Y-113248500D01*
X131300000Y-117500000D02*
X135551500Y-113248500D01*
X130374600Y-112725400D02*
X131500000Y-111600000D01*
X126525400Y-112725400D02*
X130374600Y-112725400D01*
X125400000Y-111600000D02*
X126525400Y-112725400D01*
X150344500Y-117605500D02*
X149240000Y-118710000D01*
X150344500Y-110650000D02*
X150344500Y-117605500D01*
X149627500Y-109933000D02*
X150344500Y-110650000D01*
X148841600Y-109933000D02*
X149627500Y-109933000D01*
X148148600Y-110626000D02*
X148841600Y-109933000D01*
X148148600Y-111179300D02*
X148148600Y-110626000D01*
X147110100Y-112217800D02*
X148148600Y-111179300D01*
X146285600Y-112217800D02*
X147110100Y-112217800D01*
X145430000Y-111362200D02*
X146285600Y-112217800D01*
X145430000Y-110796900D02*
X145430000Y-111362200D01*
X142758400Y-108125300D02*
X145430000Y-110796900D01*
X136270600Y-108125300D02*
X142758400Y-108125300D01*
X135145300Y-107000000D02*
X136270600Y-108125300D01*
X134020000Y-107000000D02*
X135145300Y-107000000D01*
X127709600Y-118022500D02*
X127709600Y-117083200D01*
X128369100Y-118682000D02*
X127709600Y-118022500D01*
X132792700Y-118682000D02*
X128369100Y-118682000D01*
X133974700Y-117500000D02*
X132792700Y-118682000D01*
X135100000Y-117500000D02*
X133974700Y-117500000D01*
X142950000Y-117500000D02*
X144160000Y-118710000D01*
X137100000Y-117500000D02*
X142950000Y-117500000D01*
X131177200Y-106551900D02*
X131177200Y-103889900D01*
X135100000Y-110474700D02*
X131177200Y-106551900D01*
X135100000Y-111600000D02*
X135100000Y-110474700D01*
X133573500Y-136583500D02*
X133500000Y-136510000D01*
X141331200Y-136583500D02*
X133573500Y-136583500D01*
X142494700Y-135420000D02*
X141331200Y-136583500D01*
X143620000Y-135420000D02*
X142494700Y-135420000D01*
X141369400Y-134005300D02*
X142494700Y-132880000D01*
X133535300Y-134005300D02*
X141369400Y-134005300D01*
X133500000Y-133970000D02*
X133535300Y-134005300D01*
X143620000Y-132880000D02*
X142494700Y-132880000D01*
X177493000Y-65193000D02*
X177700000Y-65400000D01*
X149715500Y-65193000D02*
X177493000Y-65193000D01*
X148610000Y-66298500D02*
X149715500Y-65193000D01*
X185525300Y-71975000D02*
X185525300Y-72380000D01*
X188200000Y-69300300D02*
X185525300Y-71975000D01*
X188200000Y-68100000D02*
X188200000Y-69300300D01*
X184400000Y-72380000D02*
X185525300Y-72380000D01*
X171317700Y-98300000D02*
X194100000Y-98300000D01*
X164390000Y-105227700D02*
X171317700Y-98300000D01*
X164390000Y-105820000D02*
X164390000Y-105227700D01*
X163579500Y-106630500D02*
X164390000Y-105820000D01*
X146450500Y-106630500D02*
X163579500Y-106630500D01*
X145340000Y-105520000D02*
X146450500Y-106630500D01*
X178749400Y-74145300D02*
X179874700Y-73020000D01*
X116654700Y-74145300D02*
X178749400Y-74145300D01*
X114395800Y-76404200D02*
X116654700Y-74145300D01*
X112779000Y-76404200D02*
X114395800Y-76404200D01*
X110631100Y-74256300D02*
X112779000Y-76404200D01*
X105543700Y-74256300D02*
X110631100Y-74256300D01*
X104400000Y-75400000D02*
X105543700Y-74256300D01*
X181000000Y-73020000D02*
X179874700Y-73020000D01*
X139040000Y-91600000D02*
X192899700Y-91600000D01*
X137720000Y-90280000D02*
X139040000Y-91600000D01*
X194100000Y-91600000D02*
X192899700Y-91600000D01*
X195353800Y-85353800D02*
X194100000Y-84100000D01*
X195353800Y-98811700D02*
X195353800Y-85353800D01*
X194565900Y-99599600D02*
X195353800Y-98811700D01*
X172530800Y-99599600D02*
X194565900Y-99599600D01*
X166930000Y-105200400D02*
X172530800Y-99599600D01*
X166930000Y-105797700D02*
X166930000Y-105200400D01*
X165196400Y-107531300D02*
X166930000Y-105797700D01*
X139731300Y-107531300D02*
X165196400Y-107531300D01*
X137720000Y-105520000D02*
X139731300Y-107531300D01*
X113624700Y-80924700D02*
X108100000Y-75400000D01*
X126823500Y-80924700D02*
X113624700Y-80924700D01*
X137956100Y-92057300D02*
X126823500Y-80924700D01*
X149657300Y-92057300D02*
X137956100Y-92057300D01*
X163120000Y-105520000D02*
X149657300Y-92057300D01*
X159761000Y-75300000D02*
X181000000Y-75300000D01*
X149880000Y-85181000D02*
X159761000Y-75300000D01*
X149880000Y-85777700D02*
X149880000Y-85181000D01*
X148711600Y-86946100D02*
X149880000Y-85777700D01*
X146133900Y-86946100D02*
X148711600Y-86946100D01*
X142800000Y-90280000D02*
X146133900Y-86946100D01*
X196287100Y-80787400D02*
X194100000Y-78600300D01*
X196287100Y-101467400D02*
X196287100Y-80787400D01*
X194570000Y-103184500D02*
X196287100Y-101467400D01*
X191559500Y-103184500D02*
X194570000Y-103184500D01*
X182450900Y-112293100D02*
X191559500Y-103184500D01*
X172233100Y-112293100D02*
X182450900Y-112293100D01*
X171130000Y-111190000D02*
X172233100Y-112293100D01*
X194100000Y-77400000D02*
X194100000Y-78600300D01*
X192899600Y-76100400D02*
X194100000Y-74900000D01*
X192899600Y-80223900D02*
X192899600Y-76100400D01*
X195808300Y-83132600D02*
X192899600Y-80223900D01*
X195808300Y-101308400D02*
X195808300Y-83132600D01*
X195056800Y-102059900D02*
X195808300Y-101308400D01*
X182530400Y-102059900D02*
X195056800Y-102059900D01*
X177163300Y-107427000D02*
X182530400Y-102059900D01*
X167273000Y-107427000D02*
X177163300Y-107427000D01*
X163510000Y-111190000D02*
X167273000Y-107427000D01*
X187412200Y-127812500D02*
X192899700Y-133300000D01*
X186503800Y-127812500D02*
X187412200Y-127812500D01*
X194100000Y-133300000D02*
X192899700Y-133300000D01*
X143108500Y-80000000D02*
X137600000Y-80000000D01*
X148610000Y-85501500D02*
X143108500Y-80000000D01*
X93964000Y-107990000D02*
X91170000Y-107990000D01*
X96504000Y-105450000D02*
X93964000Y-107990000D01*
X92924400Y-127800000D02*
X92200000Y-127800000D01*
X98009500Y-122714900D02*
X92924400Y-127800000D01*
X98009500Y-117517400D02*
X98009500Y-122714900D01*
X115537100Y-99989800D02*
X98009500Y-117517400D01*
X155156500Y-100096500D02*
X160580000Y-105520000D01*
X145094800Y-100096500D02*
X155156500Y-100096500D01*
X134888300Y-89890000D02*
X145094800Y-100096500D01*
X122940000Y-89890000D02*
X134888300Y-89890000D01*
X92200000Y-125300000D02*
X92200000Y-124099700D01*
X92200000Y-118150000D02*
X92200000Y-124099700D01*
X96504000Y-118150000D02*
X92200000Y-118150000D01*
X92200000Y-118150000D02*
X91170000Y-118150000D01*
X174761400Y-119901400D02*
X173670000Y-118810000D01*
X176680400Y-119901400D02*
X174761400Y-119901400D01*
X177480000Y-119101800D02*
X176680400Y-119901400D01*
X177480000Y-118533100D02*
X177480000Y-119101800D01*
X181113100Y-114900000D02*
X177480000Y-118533100D01*
X186200000Y-114900000D02*
X181113100Y-114900000D01*
X173852600Y-116452600D02*
X176210000Y-118810000D01*
X164052600Y-116452600D02*
X173852600Y-116452600D01*
X159400000Y-111800000D02*
X164052600Y-116452600D01*
X124100000Y-106953900D02*
X124100000Y-107000000D01*
X135315700Y-95738200D02*
X124100000Y-106953900D01*
X143072000Y-112178000D02*
X144160000Y-111090000D01*
X137678000Y-112178000D02*
X143072000Y-112178000D01*
X137100000Y-111600000D02*
X137678000Y-112178000D01*
X96900000Y-72300000D02*
X92500000Y-76700000D01*
X113800000Y-72300000D02*
X96900000Y-72300000D01*
X97894000Y-73806000D02*
X92500000Y-79200000D01*
X112306000Y-73806000D02*
X97894000Y-73806000D01*
X113800000Y-75300000D02*
X112306000Y-73806000D01*
X92824900Y-81375100D02*
X92500000Y-81700000D01*
X105329800Y-81375100D02*
X92824900Y-81375100D01*
X106974700Y-83020000D02*
X105329800Y-81375100D01*
X108100000Y-83020000D02*
X106974700Y-83020000D01*
X98274900Y-69625400D02*
X93700300Y-74200000D01*
X113474600Y-69625400D02*
X98274900Y-69625400D01*
X113800000Y-69300000D02*
X113474600Y-69625400D01*
X92500000Y-74200000D02*
X93700300Y-74200000D01*
X100600000Y-129500000D02*
X96380000Y-129500000D01*
X104000000Y-126100000D02*
X100600000Y-129500000D01*
D22*
G36*
X148919381Y-64914317D02*
X148889100Y-64901743D01*
X148333339Y-64901258D01*
X147819697Y-65113490D01*
X147426371Y-65506130D01*
X147340051Y-65714012D01*
X147255010Y-65508197D01*
X146862370Y-65114871D01*
X146349100Y-64901743D01*
X145793339Y-64901258D01*
X145279697Y-65113490D01*
X144886371Y-65506130D01*
X144800051Y-65714012D01*
X144715010Y-65508197D01*
X144322370Y-65114871D01*
X143809100Y-64901743D01*
X143253339Y-64901258D01*
X142739697Y-65113490D01*
X142346371Y-65506130D01*
X142260051Y-65714012D01*
X142175010Y-65508197D01*
X141782370Y-65114871D01*
X141269100Y-64901743D01*
X140713339Y-64901258D01*
X140199697Y-65113490D01*
X139806371Y-65506130D01*
X139593243Y-66019400D01*
X139592758Y-66575161D01*
X139804990Y-67088803D01*
X140197630Y-67482129D01*
X140710900Y-67695257D01*
X141266661Y-67695742D01*
X141780303Y-67483510D01*
X142173629Y-67090870D01*
X142259949Y-66882988D01*
X142344990Y-67088803D01*
X142737630Y-67482129D01*
X143250900Y-67695257D01*
X143806661Y-67695742D01*
X144320303Y-67483510D01*
X144713629Y-67090870D01*
X144799949Y-66882988D01*
X144884990Y-67088803D01*
X145277630Y-67482129D01*
X145790900Y-67695257D01*
X146346661Y-67695742D01*
X146860303Y-67483510D01*
X147253629Y-67090870D01*
X147339949Y-66882988D01*
X147424990Y-67088803D01*
X147817630Y-67482129D01*
X148330900Y-67695257D01*
X148886661Y-67695742D01*
X149400303Y-67483510D01*
X149793629Y-67090870D01*
X149879949Y-66882988D01*
X149964990Y-67088803D01*
X150357630Y-67482129D01*
X150870900Y-67695257D01*
X151426661Y-67695742D01*
X151940303Y-67483510D01*
X152333629Y-67090870D01*
X152419949Y-66882988D01*
X152504990Y-67088803D01*
X152897630Y-67482129D01*
X153410900Y-67695257D01*
X153966661Y-67695742D01*
X154480303Y-67483510D01*
X154873629Y-67090870D01*
X154959949Y-66882988D01*
X155044990Y-67088803D01*
X155437630Y-67482129D01*
X155950900Y-67695257D01*
X156506661Y-67695742D01*
X157020303Y-67483510D01*
X157413629Y-67090870D01*
X157499949Y-66882988D01*
X157584990Y-67088803D01*
X157977630Y-67482129D01*
X158490900Y-67695257D01*
X159046661Y-67695742D01*
X159560303Y-67483510D01*
X159953629Y-67090870D01*
X160039949Y-66882988D01*
X160124990Y-67088803D01*
X160517630Y-67482129D01*
X161030900Y-67695257D01*
X161586661Y-67695742D01*
X162100303Y-67483510D01*
X162493629Y-67090870D01*
X162579949Y-66882988D01*
X162664990Y-67088803D01*
X163057630Y-67482129D01*
X163570900Y-67695257D01*
X164126661Y-67695742D01*
X164640303Y-67483510D01*
X165033629Y-67090870D01*
X165119949Y-66882988D01*
X165204990Y-67088803D01*
X165597630Y-67482129D01*
X166110900Y-67695257D01*
X166666661Y-67695742D01*
X167180303Y-67483510D01*
X167385457Y-67278713D01*
X168129392Y-67278713D01*
X168198857Y-67520897D01*
X168722302Y-67707644D01*
X169277368Y-67679862D01*
X169661143Y-67520897D01*
X169730608Y-67278713D01*
X170669392Y-67278713D01*
X170738857Y-67520897D01*
X171262302Y-67707644D01*
X171817368Y-67679862D01*
X172201143Y-67520897D01*
X172270608Y-67278713D01*
X171470000Y-66478105D01*
X170669392Y-67278713D01*
X169730608Y-67278713D01*
X168930000Y-66478105D01*
X168129392Y-67278713D01*
X167385457Y-67278713D01*
X167573629Y-67090870D01*
X167653395Y-66898773D01*
X167707603Y-67029643D01*
X167949787Y-67099108D01*
X168750395Y-66298500D01*
X168736253Y-66284358D01*
X168915858Y-66104753D01*
X168930000Y-66118895D01*
X168944143Y-66104753D01*
X169123748Y-66284358D01*
X169109605Y-66298500D01*
X169910213Y-67099108D01*
X170152397Y-67029643D01*
X170196453Y-66906156D01*
X170247603Y-67029643D01*
X170489787Y-67099108D01*
X171290395Y-66298500D01*
X171276253Y-66284358D01*
X171455858Y-66104753D01*
X171470000Y-66118895D01*
X171484143Y-66104753D01*
X171663748Y-66284358D01*
X171649605Y-66298500D01*
X172450213Y-67099108D01*
X172692397Y-67029643D01*
X172742509Y-66889182D01*
X172824990Y-67088803D01*
X173217630Y-67482129D01*
X173730900Y-67695257D01*
X174286661Y-67695742D01*
X174800303Y-67483510D01*
X175193629Y-67090870D01*
X175406757Y-66577600D01*
X175407242Y-66021839D01*
X175378798Y-65953000D01*
X176375823Y-65953000D01*
X176482757Y-66211800D01*
X176886077Y-66615824D01*
X177413309Y-66834750D01*
X177984187Y-66835248D01*
X178511800Y-66617243D01*
X178915824Y-66213923D01*
X179134750Y-65686691D01*
X179135248Y-65115813D01*
X179008889Y-64810000D01*
X179691195Y-64810000D01*
X179565250Y-65113309D01*
X179564752Y-65684187D01*
X179782757Y-66211800D01*
X180186077Y-66615824D01*
X180713309Y-66834750D01*
X181284187Y-66835248D01*
X181811800Y-66617243D01*
X182215824Y-66213923D01*
X182434750Y-65686691D01*
X182435248Y-65115813D01*
X182308889Y-64810000D01*
X197590000Y-64810000D01*
X197590000Y-143390000D01*
X138435714Y-143390000D01*
X138611800Y-143317243D01*
X139015824Y-142913923D01*
X139234750Y-142386691D01*
X139235248Y-141815813D01*
X139017243Y-141288200D01*
X138753317Y-141023813D01*
X138959699Y-140938327D01*
X139138327Y-140759698D01*
X139235000Y-140526309D01*
X139235000Y-140130213D01*
X179933392Y-140130213D01*
X180002857Y-140372397D01*
X180526302Y-140559144D01*
X181081368Y-140531362D01*
X181465143Y-140372397D01*
X181534608Y-140130213D01*
X180734000Y-139329605D01*
X179933392Y-140130213D01*
X139235000Y-140130213D01*
X139235000Y-139885750D01*
X139076250Y-139727000D01*
X137927000Y-139727000D01*
X137927000Y-139747000D01*
X137673000Y-139747000D01*
X137673000Y-139727000D01*
X136523750Y-139727000D01*
X136365000Y-139885750D01*
X136365000Y-140526309D01*
X136461673Y-140759698D01*
X136531975Y-140830000D01*
X134697531Y-140830000D01*
X134685010Y-140799697D01*
X134292370Y-140406371D01*
X134100273Y-140326605D01*
X134231143Y-140272397D01*
X134300608Y-140030213D01*
X133500000Y-139229605D01*
X132699392Y-140030213D01*
X132768857Y-140272397D01*
X132909318Y-140322509D01*
X132709697Y-140404990D01*
X132316371Y-140797630D01*
X132103243Y-141310900D01*
X132102758Y-141866661D01*
X132314990Y-142380303D01*
X132707630Y-142773629D01*
X133220900Y-142986757D01*
X133776661Y-142987242D01*
X134290303Y-142775010D01*
X134683629Y-142382370D01*
X134697070Y-142350000D01*
X136364782Y-142350000D01*
X136364752Y-142384187D01*
X136582757Y-142911800D01*
X136986077Y-143315824D01*
X137164713Y-143390000D01*
X89010000Y-143390000D01*
X89010000Y-140600000D01*
X89590000Y-140600000D01*
X89765838Y-141483999D01*
X90266583Y-142233417D01*
X91016001Y-142734162D01*
X91900000Y-142910000D01*
X92783999Y-142734162D01*
X93533417Y-142233417D01*
X94034162Y-141483999D01*
X94210000Y-140600000D01*
X94127601Y-140185750D01*
X98190000Y-140185750D01*
X98190000Y-140901310D01*
X98286673Y-141134699D01*
X98465302Y-141313327D01*
X98698691Y-141410000D01*
X99414250Y-141410000D01*
X99573000Y-141251250D01*
X99573000Y-140027000D01*
X98348750Y-140027000D01*
X98190000Y-140185750D01*
X94127601Y-140185750D01*
X94034162Y-139716001D01*
X93533417Y-138966583D01*
X93431808Y-138898690D01*
X98190000Y-138898690D01*
X98190000Y-139614250D01*
X98348750Y-139773000D01*
X99573000Y-139773000D01*
X99573000Y-138548750D01*
X99827000Y-138548750D01*
X99827000Y-139773000D01*
X99847000Y-139773000D01*
X99847000Y-140027000D01*
X99827000Y-140027000D01*
X99827000Y-141251250D01*
X99985750Y-141410000D01*
X100701309Y-141410000D01*
X100934698Y-141313327D01*
X101113327Y-141134699D01*
X101167760Y-141003286D01*
X101343537Y-141179370D01*
X101898325Y-141409738D01*
X102499040Y-141410262D01*
X103054229Y-141180862D01*
X103479370Y-140756463D01*
X103709738Y-140201675D01*
X103710262Y-139600960D01*
X103480862Y-139045771D01*
X103277749Y-138842302D01*
X132090856Y-138842302D01*
X132118638Y-139397368D01*
X132277603Y-139781143D01*
X132519787Y-139850608D01*
X133320395Y-139050000D01*
X133679605Y-139050000D01*
X134480213Y-139850608D01*
X134722397Y-139781143D01*
X134909144Y-139257698D01*
X134881362Y-138702632D01*
X134869375Y-138673691D01*
X136365000Y-138673691D01*
X136365000Y-139314250D01*
X136523750Y-139473000D01*
X137673000Y-139473000D01*
X137673000Y-138323750D01*
X137927000Y-138323750D01*
X137927000Y-139473000D01*
X139076250Y-139473000D01*
X139235000Y-139314250D01*
X139235000Y-138942302D01*
X179324856Y-138942302D01*
X179352638Y-139497368D01*
X179511603Y-139881143D01*
X179753787Y-139950608D01*
X180554395Y-139150000D01*
X180913605Y-139150000D01*
X181714213Y-139950608D01*
X181956397Y-139881143D01*
X182143144Y-139357698D01*
X182115362Y-138802632D01*
X182083206Y-138725000D01*
X184377560Y-138725000D01*
X184377560Y-140475000D01*
X184421838Y-140710317D01*
X184560910Y-140926441D01*
X184773110Y-141071431D01*
X185025000Y-141122440D01*
X186775000Y-141122440D01*
X187010317Y-141078162D01*
X187226441Y-140939090D01*
X187371431Y-140726890D01*
X187374786Y-140710324D01*
X187543537Y-140879370D01*
X188098325Y-141109738D01*
X188699040Y-141110262D01*
X189254229Y-140880862D01*
X189635756Y-140500000D01*
X192490000Y-140500000D01*
X192665838Y-141383999D01*
X193166583Y-142133417D01*
X193916001Y-142634162D01*
X194800000Y-142810000D01*
X195683999Y-142634162D01*
X196433417Y-142133417D01*
X196934162Y-141383999D01*
X197110000Y-140500000D01*
X196934162Y-139616001D01*
X196433417Y-138866583D01*
X195683999Y-138365838D01*
X194800000Y-138190000D01*
X193916001Y-138365838D01*
X193166583Y-138866583D01*
X192665838Y-139616001D01*
X192490000Y-140500000D01*
X189635756Y-140500000D01*
X189679370Y-140456463D01*
X189909738Y-139901675D01*
X189910262Y-139300960D01*
X189680862Y-138745771D01*
X189256463Y-138320630D01*
X188701675Y-138090262D01*
X188100960Y-138089738D01*
X187545771Y-138319138D01*
X187376897Y-138487717D01*
X187239090Y-138273559D01*
X187026890Y-138128569D01*
X186775000Y-138077560D01*
X185025000Y-138077560D01*
X184789683Y-138121838D01*
X184573559Y-138260910D01*
X184428569Y-138473110D01*
X184377560Y-138725000D01*
X182083206Y-138725000D01*
X181956397Y-138418857D01*
X181714213Y-138349392D01*
X180913605Y-139150000D01*
X180554395Y-139150000D01*
X179753787Y-138349392D01*
X179511603Y-138418857D01*
X179324856Y-138942302D01*
X139235000Y-138942302D01*
X139235000Y-138673691D01*
X139138327Y-138440302D01*
X138959699Y-138261673D01*
X138726310Y-138165000D01*
X138085750Y-138165000D01*
X137927000Y-138323750D01*
X137673000Y-138323750D01*
X137514250Y-138165000D01*
X136873690Y-138165000D01*
X136640301Y-138261673D01*
X136461673Y-138440302D01*
X136365000Y-138673691D01*
X134869375Y-138673691D01*
X134722397Y-138318857D01*
X134480213Y-138249392D01*
X133679605Y-139050000D01*
X133320395Y-139050000D01*
X132519787Y-138249392D01*
X132277603Y-138318857D01*
X132090856Y-138842302D01*
X103277749Y-138842302D01*
X103056463Y-138620630D01*
X102501675Y-138390262D01*
X101900960Y-138389738D01*
X101345771Y-138619138D01*
X101167797Y-138796802D01*
X101113327Y-138665301D01*
X100934698Y-138486673D01*
X100701309Y-138390000D01*
X99985750Y-138390000D01*
X99827000Y-138548750D01*
X99573000Y-138548750D01*
X99414250Y-138390000D01*
X98698691Y-138390000D01*
X98465302Y-138486673D01*
X98286673Y-138665301D01*
X98190000Y-138898690D01*
X93431808Y-138898690D01*
X92783999Y-138465838D01*
X91900000Y-138290000D01*
X91016001Y-138465838D01*
X90266583Y-138966583D01*
X89765838Y-139716001D01*
X89590000Y-140600000D01*
X89010000Y-140600000D01*
X89010000Y-135107745D01*
X98171861Y-135107745D01*
X98245995Y-135353864D01*
X98783223Y-135546965D01*
X99353454Y-135519778D01*
X99754005Y-135353864D01*
X99828139Y-135107745D01*
X99000000Y-134279605D01*
X98171861Y-135107745D01*
X89010000Y-135107745D01*
X89010000Y-115886661D01*
X89772758Y-115886661D01*
X89984990Y-116400303D01*
X90377630Y-116793629D01*
X90585512Y-116879949D01*
X90379697Y-116964990D01*
X89986371Y-117357630D01*
X89773243Y-117870900D01*
X89772758Y-118426661D01*
X89984990Y-118940303D01*
X90377630Y-119333629D01*
X90890900Y-119546757D01*
X91440000Y-119547236D01*
X91440000Y-123777560D01*
X91325000Y-123777560D01*
X91089683Y-123821838D01*
X90873559Y-123960910D01*
X90728569Y-124173110D01*
X90677560Y-124425000D01*
X90677560Y-126175000D01*
X90721838Y-126410317D01*
X90860910Y-126626441D01*
X91073110Y-126771431D01*
X91089676Y-126774786D01*
X90920630Y-126943537D01*
X90690262Y-127498325D01*
X90689738Y-128099040D01*
X90919138Y-128654229D01*
X91314536Y-129050318D01*
X90920630Y-129443537D01*
X90690262Y-129998325D01*
X90689738Y-130599040D01*
X90919138Y-131154229D01*
X91314536Y-131550318D01*
X90920630Y-131943537D01*
X90690262Y-132498325D01*
X90689738Y-133099040D01*
X90919138Y-133654229D01*
X91343537Y-134079370D01*
X91898325Y-134309738D01*
X92499040Y-134310262D01*
X93054229Y-134080862D01*
X93479370Y-133656463D01*
X93709738Y-133101675D01*
X93709927Y-132884729D01*
X94337299Y-133512101D01*
X94583861Y-133676848D01*
X94874700Y-133734700D01*
X97606420Y-133734700D01*
X97553035Y-133883223D01*
X97580222Y-134453454D01*
X97746136Y-134854005D01*
X97992255Y-134928139D01*
X98820395Y-134100000D01*
X98806253Y-134085858D01*
X98985858Y-133906253D01*
X99000000Y-133920395D01*
X99014143Y-133906253D01*
X99193748Y-134085858D01*
X99179605Y-134100000D01*
X100007745Y-134928139D01*
X100055167Y-134913855D01*
X100096838Y-135135317D01*
X100235910Y-135351441D01*
X100448110Y-135496431D01*
X100700000Y-135547440D01*
X102300000Y-135547440D01*
X102535317Y-135503162D01*
X102751441Y-135364090D01*
X102896431Y-135151890D01*
X102947440Y-134900000D01*
X102947440Y-133300000D01*
X102903162Y-133064683D01*
X102764090Y-132848559D01*
X102551890Y-132703569D01*
X102300000Y-132652560D01*
X100700000Y-132652560D01*
X100464683Y-132696838D01*
X100381358Y-132750456D01*
X100068201Y-132437299D01*
X99821639Y-132272552D01*
X99530800Y-132214700D01*
X95189502Y-132214700D01*
X93670639Y-130695837D01*
X93709738Y-130601675D01*
X93710262Y-130000960D01*
X93503270Y-129500000D01*
X94916887Y-129500000D01*
X95026120Y-130049151D01*
X95337189Y-130514698D01*
X95802736Y-130825767D01*
X96351887Y-130935000D01*
X96408113Y-130935000D01*
X96957264Y-130825767D01*
X97422811Y-130514698D01*
X97592995Y-130260000D01*
X100600000Y-130260000D01*
X100890839Y-130202148D01*
X101137401Y-130037401D01*
X103661546Y-127513256D01*
X103713309Y-127534750D01*
X104284187Y-127535248D01*
X104811800Y-127317243D01*
X105215824Y-126913923D01*
X105434750Y-126386691D01*
X105435248Y-125815813D01*
X105217243Y-125288200D01*
X104813923Y-124884176D01*
X104286691Y-124665250D01*
X103715813Y-124664752D01*
X103188200Y-124882757D01*
X102784176Y-125286077D01*
X102565250Y-125813309D01*
X102564752Y-126384187D01*
X102587049Y-126438149D01*
X100285198Y-128740000D01*
X97592995Y-128740000D01*
X97422811Y-128485302D01*
X96957264Y-128174233D01*
X96408113Y-128065000D01*
X96351887Y-128065000D01*
X95802736Y-128174233D01*
X95337189Y-128485302D01*
X95026120Y-128950849D01*
X94916887Y-129500000D01*
X93503270Y-129500000D01*
X93480862Y-129445771D01*
X93085464Y-129049682D01*
X93479370Y-128656463D01*
X93709738Y-128101675D01*
X93709749Y-128089453D01*
X95075760Y-126723442D01*
X95337189Y-127114698D01*
X95802736Y-127425767D01*
X96351887Y-127535000D01*
X96408113Y-127535000D01*
X96957264Y-127425767D01*
X97422811Y-127114698D01*
X97733880Y-126649151D01*
X97843113Y-126100000D01*
X97733880Y-125550849D01*
X97422811Y-125085302D01*
X96997850Y-124801352D01*
X98091457Y-123707745D01*
X103171861Y-123707745D01*
X103245995Y-123953864D01*
X103783223Y-124146965D01*
X104353454Y-124119778D01*
X104754005Y-123953864D01*
X104828139Y-123707745D01*
X104000000Y-122879605D01*
X103171861Y-123707745D01*
X98091457Y-123707745D01*
X98546901Y-123252301D01*
X98711648Y-123005740D01*
X98769500Y-122714900D01*
X98769500Y-122483223D01*
X102553035Y-122483223D01*
X102580222Y-123053454D01*
X102746136Y-123454005D01*
X102992255Y-123528139D01*
X103820395Y-122700000D01*
X104179605Y-122700000D01*
X105007745Y-123528139D01*
X105253864Y-123454005D01*
X105446965Y-122916777D01*
X105419778Y-122346546D01*
X105253864Y-121945995D01*
X105007745Y-121871861D01*
X104179605Y-122700000D01*
X103820395Y-122700000D01*
X102992255Y-121871861D01*
X102746136Y-121945995D01*
X102553035Y-122483223D01*
X98769500Y-122483223D01*
X98769500Y-121692255D01*
X103171861Y-121692255D01*
X104000000Y-122520395D01*
X104828139Y-121692255D01*
X104784285Y-121546661D01*
X105432758Y-121546661D01*
X105644990Y-122060303D01*
X106037630Y-122453629D01*
X106550900Y-122666757D01*
X107106661Y-122667242D01*
X107620303Y-122455010D01*
X108013629Y-122062370D01*
X108027070Y-122030000D01*
X112604700Y-122030000D01*
X112895539Y-121972148D01*
X113142101Y-121807401D01*
X122121091Y-112828411D01*
X122135910Y-112851441D01*
X122348110Y-112996431D01*
X122600000Y-113047440D01*
X124200000Y-113047440D01*
X124435317Y-113003162D01*
X124651441Y-112864090D01*
X124662685Y-112847634D01*
X125113309Y-113034750D01*
X125684187Y-113035248D01*
X125738149Y-113012951D01*
X125987999Y-113262801D01*
X126234561Y-113427548D01*
X126525400Y-113485400D01*
X130374600Y-113485400D01*
X130665439Y-113427548D01*
X130912001Y-113262801D01*
X131161546Y-113013256D01*
X131213309Y-113034750D01*
X131784187Y-113035248D01*
X132311800Y-112817243D01*
X132715824Y-112413923D01*
X132934750Y-111886691D01*
X132935248Y-111315813D01*
X132717243Y-110788200D01*
X132313923Y-110384176D01*
X131786691Y-110165250D01*
X131215813Y-110164752D01*
X130688200Y-110382757D01*
X130419417Y-110651072D01*
X130403162Y-110564683D01*
X130264090Y-110348559D01*
X130051890Y-110203569D01*
X129800000Y-110152560D01*
X128200000Y-110152560D01*
X127964683Y-110196838D01*
X127748559Y-110335910D01*
X127603569Y-110548110D01*
X127552560Y-110800000D01*
X127552560Y-111965400D01*
X126840202Y-111965400D01*
X126813256Y-111938454D01*
X126834750Y-111886691D01*
X126835248Y-111315813D01*
X126617243Y-110788200D01*
X126213923Y-110384176D01*
X125686691Y-110165250D01*
X125115813Y-110164752D01*
X124665534Y-110350803D01*
X124664090Y-110348559D01*
X124451890Y-110203569D01*
X124200000Y-110152560D01*
X122600000Y-110152560D01*
X122364683Y-110196838D01*
X122148559Y-110335910D01*
X122003569Y-110548110D01*
X121952560Y-110800000D01*
X121952560Y-110918767D01*
X121737299Y-111062599D01*
X115280852Y-117519046D01*
X115215010Y-117359697D01*
X114822370Y-116966371D01*
X114309100Y-116753243D01*
X113753339Y-116752758D01*
X113239697Y-116964990D01*
X112846371Y-117357630D01*
X112633243Y-117870900D01*
X112632758Y-118426661D01*
X112844990Y-118940303D01*
X113237630Y-119333629D01*
X113399185Y-119400713D01*
X112289898Y-120510000D01*
X108027531Y-120510000D01*
X108015010Y-120479697D01*
X107622370Y-120086371D01*
X107109100Y-119873243D01*
X106553339Y-119872758D01*
X106039697Y-120084990D01*
X105646371Y-120477630D01*
X105433243Y-120990900D01*
X105432758Y-121546661D01*
X104784285Y-121546661D01*
X104754005Y-121446136D01*
X104216777Y-121253035D01*
X103646546Y-121280222D01*
X103245995Y-121446136D01*
X103171861Y-121692255D01*
X98769500Y-121692255D01*
X98769500Y-117832202D01*
X110875041Y-105726661D01*
X112632758Y-105726661D01*
X112844990Y-106240303D01*
X113237630Y-106633629D01*
X113750900Y-106846757D01*
X114306661Y-106847242D01*
X114820303Y-106635010D01*
X115213629Y-106242370D01*
X115426757Y-105729100D01*
X115427242Y-105173339D01*
X115215010Y-104659697D01*
X114822370Y-104266371D01*
X114309100Y-104053243D01*
X113753339Y-104052758D01*
X113239697Y-104264990D01*
X112846371Y-104657630D01*
X112633243Y-105170900D01*
X112632758Y-105726661D01*
X110875041Y-105726661D01*
X115676780Y-100924922D01*
X115722267Y-100924962D01*
X116066043Y-100782917D01*
X116329292Y-100520127D01*
X116471938Y-100176599D01*
X116472262Y-99804633D01*
X116330217Y-99460857D01*
X116067427Y-99197608D01*
X115723899Y-99054962D01*
X115351933Y-99054638D01*
X115008157Y-99196683D01*
X114744908Y-99459473D01*
X114602262Y-99803001D01*
X114602221Y-99849877D01*
X97472099Y-116979999D01*
X97407093Y-117077288D01*
X97296370Y-116966371D01*
X96783100Y-116753243D01*
X96227339Y-116752758D01*
X95713697Y-116964990D01*
X95320371Y-117357630D01*
X95306930Y-117390000D01*
X92367531Y-117390000D01*
X92355010Y-117359697D01*
X91962370Y-116966371D01*
X91754488Y-116880051D01*
X91960303Y-116795010D01*
X92353629Y-116402370D01*
X92566757Y-115889100D01*
X92567242Y-115333339D01*
X92355010Y-114819697D01*
X91962370Y-114426371D01*
X91449100Y-114213243D01*
X90893339Y-114212758D01*
X90379697Y-114424990D01*
X89986371Y-114817630D01*
X89773243Y-115330900D01*
X89772758Y-115886661D01*
X89010000Y-115886661D01*
X89010000Y-108266661D01*
X89772758Y-108266661D01*
X89984990Y-108780303D01*
X90377630Y-109173629D01*
X90890900Y-109386757D01*
X91446661Y-109387242D01*
X91960303Y-109175010D01*
X92353629Y-108782370D01*
X92367070Y-108750000D01*
X93964000Y-108750000D01*
X94254839Y-108692148D01*
X94501401Y-108527401D01*
X96194619Y-106834183D01*
X96224900Y-106846757D01*
X96780661Y-106847242D01*
X97294303Y-106635010D01*
X97687629Y-106242370D01*
X97900757Y-105729100D01*
X97901242Y-105173339D01*
X97689010Y-104659697D01*
X97296370Y-104266371D01*
X96783100Y-104053243D01*
X96227339Y-104052758D01*
X95713697Y-104264990D01*
X95320371Y-104657630D01*
X95107243Y-105170900D01*
X95106758Y-105726661D01*
X95120143Y-105759055D01*
X93649198Y-107230000D01*
X92367531Y-107230000D01*
X92355010Y-107199697D01*
X91962370Y-106806371D01*
X91770273Y-106726605D01*
X91901143Y-106672397D01*
X91970608Y-106430213D01*
X91170000Y-105629605D01*
X90369392Y-106430213D01*
X90438857Y-106672397D01*
X90579318Y-106722509D01*
X90379697Y-106804990D01*
X89986371Y-107197630D01*
X89773243Y-107710900D01*
X89772758Y-108266661D01*
X89010000Y-108266661D01*
X89010000Y-105242302D01*
X89760856Y-105242302D01*
X89788638Y-105797368D01*
X89947603Y-106181143D01*
X90189787Y-106250608D01*
X90990395Y-105450000D01*
X91349605Y-105450000D01*
X92150213Y-106250608D01*
X92392397Y-106181143D01*
X92579144Y-105657698D01*
X92551362Y-105102632D01*
X92392397Y-104718857D01*
X92150213Y-104649392D01*
X91349605Y-105450000D01*
X90990395Y-105450000D01*
X90189787Y-104649392D01*
X89947603Y-104718857D01*
X89760856Y-105242302D01*
X89010000Y-105242302D01*
X89010000Y-104469787D01*
X90369392Y-104469787D01*
X91170000Y-105270395D01*
X91970608Y-104469787D01*
X91901143Y-104227603D01*
X91377698Y-104040856D01*
X90822632Y-104068638D01*
X90438857Y-104227603D01*
X90369392Y-104469787D01*
X89010000Y-104469787D01*
X89010000Y-98490213D01*
X91659392Y-98490213D01*
X91728857Y-98732397D01*
X92252302Y-98919144D01*
X92807368Y-98891362D01*
X93191143Y-98732397D01*
X93260608Y-98490213D01*
X122139392Y-98490213D01*
X122208857Y-98732397D01*
X122732302Y-98919144D01*
X123287368Y-98891362D01*
X123671143Y-98732397D01*
X123740608Y-98490213D01*
X122940000Y-97689605D01*
X122139392Y-98490213D01*
X93260608Y-98490213D01*
X92460000Y-97689605D01*
X91659392Y-98490213D01*
X89010000Y-98490213D01*
X89010000Y-97302302D01*
X91050856Y-97302302D01*
X91078638Y-97857368D01*
X91237603Y-98241143D01*
X91479787Y-98310608D01*
X92280395Y-97510000D01*
X92639605Y-97510000D01*
X93440213Y-98310608D01*
X93682397Y-98241143D01*
X93869144Y-97717698D01*
X93848353Y-97302302D01*
X121530856Y-97302302D01*
X121558638Y-97857368D01*
X121717603Y-98241143D01*
X121959787Y-98310608D01*
X122760395Y-97510000D01*
X123119605Y-97510000D01*
X123920213Y-98310608D01*
X124162397Y-98241143D01*
X124349144Y-97717698D01*
X124321362Y-97162632D01*
X124162397Y-96778857D01*
X123920213Y-96709392D01*
X123119605Y-97510000D01*
X122760395Y-97510000D01*
X121959787Y-96709392D01*
X121717603Y-96778857D01*
X121530856Y-97302302D01*
X93848353Y-97302302D01*
X93841362Y-97162632D01*
X93682397Y-96778857D01*
X93440213Y-96709392D01*
X92639605Y-97510000D01*
X92280395Y-97510000D01*
X91479787Y-96709392D01*
X91237603Y-96778857D01*
X91050856Y-97302302D01*
X89010000Y-97302302D01*
X89010000Y-96529787D01*
X91659392Y-96529787D01*
X92460000Y-97330395D01*
X93260608Y-96529787D01*
X122139392Y-96529787D01*
X122940000Y-97330395D01*
X123740608Y-96529787D01*
X123671143Y-96287603D01*
X123147698Y-96100856D01*
X122592632Y-96128638D01*
X122208857Y-96287603D01*
X122139392Y-96529787D01*
X93260608Y-96529787D01*
X93191143Y-96287603D01*
X92667698Y-96100856D01*
X92112632Y-96128638D01*
X91728857Y-96287603D01*
X91659392Y-96529787D01*
X89010000Y-96529787D01*
X89010000Y-73325000D01*
X90977560Y-73325000D01*
X90977560Y-75075000D01*
X91021838Y-75310317D01*
X91160910Y-75526441D01*
X91373110Y-75671431D01*
X91389676Y-75674786D01*
X91220630Y-75843537D01*
X90990262Y-76398325D01*
X90989738Y-76999040D01*
X91219138Y-77554229D01*
X91614536Y-77950318D01*
X91220630Y-78343537D01*
X90990262Y-78898325D01*
X90989738Y-79499040D01*
X91219138Y-80054229D01*
X91614536Y-80450318D01*
X91220630Y-80843537D01*
X90990262Y-81398325D01*
X90989738Y-81999040D01*
X91219138Y-82554229D01*
X91643537Y-82979370D01*
X92198325Y-83209738D01*
X92799040Y-83210262D01*
X93354229Y-82980862D01*
X93779370Y-82556463D01*
X93954335Y-82135100D01*
X99140098Y-82135100D01*
X92769381Y-88505817D01*
X92739100Y-88493243D01*
X92183339Y-88492758D01*
X91669697Y-88704990D01*
X91276371Y-89097630D01*
X91063243Y-89610900D01*
X91062758Y-90166661D01*
X91274990Y-90680303D01*
X91667630Y-91073629D01*
X92180900Y-91286757D01*
X92736661Y-91287242D01*
X93250303Y-91075010D01*
X93643629Y-90682370D01*
X93856757Y-90169100D01*
X93857242Y-89613339D01*
X93843857Y-89580945D01*
X100055761Y-83369041D01*
X103008086Y-83369041D01*
X103247611Y-83875134D01*
X103662577Y-84251041D01*
X104050961Y-84411904D01*
X104273000Y-84289915D01*
X104273000Y-83147000D01*
X103129371Y-83147000D01*
X103008086Y-83369041D01*
X100055761Y-83369041D01*
X100772102Y-82652700D01*
X103016728Y-82652700D01*
X103008086Y-82670959D01*
X103129371Y-82893000D01*
X104273000Y-82893000D01*
X104273000Y-82873000D01*
X104527000Y-82873000D01*
X104527000Y-82893000D01*
X104547000Y-82893000D01*
X104547000Y-83147000D01*
X104527000Y-83147000D01*
X104527000Y-84289915D01*
X104749039Y-84411904D01*
X105137423Y-84251041D01*
X105552389Y-83875134D01*
X105734130Y-83491132D01*
X115316899Y-93073901D01*
X115563460Y-93238648D01*
X115854300Y-93296500D01*
X131527520Y-93296500D01*
X131516371Y-93307630D01*
X131303243Y-93820900D01*
X131302758Y-94376661D01*
X131514990Y-94890303D01*
X131907630Y-95283629D01*
X132420900Y-95496757D01*
X132976661Y-95497242D01*
X133490303Y-95285010D01*
X133883629Y-94892370D01*
X133999799Y-94612601D01*
X134559321Y-95172123D01*
X134523508Y-95207873D01*
X134380862Y-95551401D01*
X134380821Y-95598277D01*
X124405880Y-105573218D01*
X124386691Y-105565250D01*
X123815813Y-105564752D01*
X123288200Y-105782757D01*
X122884176Y-106186077D01*
X122850187Y-106267931D01*
X122817243Y-106188200D01*
X122413923Y-105784176D01*
X121886691Y-105565250D01*
X121315813Y-105564752D01*
X120788200Y-105782757D01*
X120384176Y-106186077D01*
X120165250Y-106713309D01*
X120164752Y-107284187D01*
X120382757Y-107811800D01*
X120786077Y-108215824D01*
X121313309Y-108434750D01*
X121884187Y-108435248D01*
X122411800Y-108217243D01*
X122815824Y-107813923D01*
X122849813Y-107732069D01*
X122882757Y-107811800D01*
X123286077Y-108215824D01*
X123813309Y-108434750D01*
X124384187Y-108435248D01*
X124911800Y-108217243D01*
X125250236Y-107879397D01*
X125586077Y-108215824D01*
X126113309Y-108434750D01*
X126684187Y-108435248D01*
X127211800Y-108217243D01*
X127615824Y-107813923D01*
X127834750Y-107286691D01*
X127835248Y-106715813D01*
X127617243Y-106188200D01*
X127213923Y-105784176D01*
X126686691Y-105565250D01*
X126563559Y-105565143D01*
X130152041Y-101976661D01*
X131302758Y-101976661D01*
X131514990Y-102490303D01*
X131907630Y-102883629D01*
X132420900Y-103096757D01*
X132976661Y-103097242D01*
X133490303Y-102885010D01*
X133883629Y-102492370D01*
X134096757Y-101979100D01*
X134097242Y-101423339D01*
X133885010Y-100909697D01*
X133492370Y-100516371D01*
X132979100Y-100303243D01*
X132423339Y-100302758D01*
X131909697Y-100514990D01*
X131516371Y-100907630D01*
X131303243Y-101420900D01*
X131302758Y-101976661D01*
X130152041Y-101976661D01*
X135455380Y-96673322D01*
X135500867Y-96673362D01*
X135844643Y-96531317D01*
X135881611Y-96494413D01*
X143310000Y-103922802D01*
X143310000Y-104219121D01*
X143079100Y-104123243D01*
X142523339Y-104122758D01*
X142009697Y-104334990D01*
X141616371Y-104727630D01*
X141530051Y-104935512D01*
X141445010Y-104729697D01*
X141052370Y-104336371D01*
X140539100Y-104123243D01*
X139983339Y-104122758D01*
X139469697Y-104334990D01*
X139076371Y-104727630D01*
X138990051Y-104935512D01*
X138905010Y-104729697D01*
X138512370Y-104336371D01*
X137999100Y-104123243D01*
X137443339Y-104122758D01*
X136929697Y-104334990D01*
X136536371Y-104727630D01*
X136323243Y-105240900D01*
X136322758Y-105796661D01*
X136534990Y-106310303D01*
X136927630Y-106703629D01*
X137440900Y-106916757D01*
X137996661Y-106917242D01*
X138029055Y-106903857D01*
X138490498Y-107365300D01*
X136585402Y-107365300D01*
X135682701Y-106462599D01*
X135436139Y-106297852D01*
X135246437Y-106260118D01*
X135062811Y-105985302D01*
X134597264Y-105674233D01*
X134048113Y-105565000D01*
X133991887Y-105565000D01*
X133442736Y-105674233D01*
X132977189Y-105985302D01*
X132666120Y-106450849D01*
X132580648Y-106880546D01*
X131937200Y-106237098D01*
X131937200Y-104452363D01*
X131969392Y-104420227D01*
X132112038Y-104076699D01*
X132112362Y-103704733D01*
X131970317Y-103360957D01*
X131707527Y-103097708D01*
X131363999Y-102955062D01*
X130992033Y-102954738D01*
X130648257Y-103096783D01*
X130385008Y-103359573D01*
X130242362Y-103703101D01*
X130242038Y-104075067D01*
X130384083Y-104418843D01*
X130417200Y-104452018D01*
X130417200Y-106551900D01*
X130475052Y-106842739D01*
X130639799Y-107089301D01*
X133871589Y-110321091D01*
X133848559Y-110335910D01*
X133703569Y-110548110D01*
X133652560Y-110800000D01*
X133652560Y-112400000D01*
X133696838Y-112635317D01*
X133835910Y-112851441D01*
X134048110Y-112996431D01*
X134300000Y-113047440D01*
X134677758Y-113047440D01*
X131638454Y-116086744D01*
X131586691Y-116065250D01*
X131015813Y-116064752D01*
X130565534Y-116250803D01*
X130564090Y-116248559D01*
X130351890Y-116103569D01*
X130100000Y-116052560D01*
X128500000Y-116052560D01*
X128264683Y-116096838D01*
X128071573Y-116221101D01*
X127896399Y-116148362D01*
X127524433Y-116148038D01*
X127180657Y-116290083D01*
X126917408Y-116552873D01*
X126774762Y-116896401D01*
X126774612Y-117069062D01*
X126617243Y-116688200D01*
X126213923Y-116284176D01*
X125686691Y-116065250D01*
X125115813Y-116064752D01*
X124665534Y-116250803D01*
X124664090Y-116248559D01*
X124451890Y-116103569D01*
X124200000Y-116052560D01*
X122600000Y-116052560D01*
X122364683Y-116096838D01*
X122148559Y-116235910D01*
X122003569Y-116448110D01*
X121952560Y-116700000D01*
X121952560Y-116818767D01*
X121737299Y-116962599D01*
X121572552Y-117209161D01*
X121514700Y-117500000D01*
X121514700Y-118210498D01*
X119839381Y-119885817D01*
X119809100Y-119873243D01*
X119253339Y-119872758D01*
X118739697Y-120084990D01*
X118346371Y-120477630D01*
X118133243Y-120990900D01*
X118132758Y-121546661D01*
X118344990Y-122060303D01*
X118737630Y-122453629D01*
X119250900Y-122666757D01*
X119806661Y-122667242D01*
X120320303Y-122455010D01*
X120713629Y-122062370D01*
X120926757Y-121549100D01*
X120927242Y-120993339D01*
X120913857Y-120960945D01*
X122812101Y-119062701D01*
X122889116Y-118947440D01*
X124200000Y-118947440D01*
X124435317Y-118903162D01*
X124651441Y-118764090D01*
X124662685Y-118747634D01*
X125113309Y-118934750D01*
X125684187Y-118935248D01*
X126211800Y-118717243D01*
X126615824Y-118313923D01*
X126834750Y-117786691D01*
X126835074Y-117415118D01*
X126916483Y-117612143D01*
X126949600Y-117645318D01*
X126949600Y-118022500D01*
X127007452Y-118313339D01*
X127172199Y-118559901D01*
X127831699Y-119219401D01*
X128078261Y-119384148D01*
X128369100Y-119442000D01*
X132792700Y-119442000D01*
X133083539Y-119384148D01*
X133330101Y-119219401D01*
X133821091Y-118728411D01*
X133835910Y-118751441D01*
X134048110Y-118896431D01*
X134300000Y-118947440D01*
X135900000Y-118947440D01*
X136135317Y-118903162D01*
X136351441Y-118764090D01*
X136362685Y-118747634D01*
X136813309Y-118934750D01*
X137384187Y-118935248D01*
X137911800Y-118717243D01*
X138315824Y-118313923D01*
X138338215Y-118260000D01*
X140294207Y-118260000D01*
X140223243Y-118430900D01*
X140222758Y-118986661D01*
X140434990Y-119500303D01*
X140827630Y-119893629D01*
X141340900Y-120106757D01*
X141896661Y-120107242D01*
X142410303Y-119895010D01*
X142803629Y-119502370D01*
X142889949Y-119294488D01*
X142974990Y-119500303D01*
X143367630Y-119893629D01*
X143880900Y-120106757D01*
X144436661Y-120107242D01*
X144950303Y-119895010D01*
X145343629Y-119502370D01*
X145429949Y-119294488D01*
X145514990Y-119500303D01*
X145907630Y-119893629D01*
X146420900Y-120106757D01*
X146976661Y-120107242D01*
X147009055Y-120093857D01*
X147952599Y-121037401D01*
X148199160Y-121202148D01*
X148490000Y-121260000D01*
X158161354Y-121260000D01*
X158182757Y-121311800D01*
X158586077Y-121715824D01*
X159113309Y-121934750D01*
X159684187Y-121935248D01*
X160211800Y-121717243D01*
X160615824Y-121313923D01*
X160834750Y-120786691D01*
X160835248Y-120215813D01*
X160617243Y-119688200D01*
X160213923Y-119284176D01*
X160132069Y-119250187D01*
X160211800Y-119217243D01*
X160615824Y-118813923D01*
X160753526Y-118482300D01*
X162133423Y-118482300D01*
X162113243Y-118530900D01*
X162112758Y-119086661D01*
X162324990Y-119600303D01*
X162717630Y-119993629D01*
X163230900Y-120206757D01*
X163578138Y-120207060D01*
X159465198Y-124320000D01*
X134800879Y-124320000D01*
X134896757Y-124089100D01*
X134897242Y-123533339D01*
X134685010Y-123019697D01*
X134292370Y-122626371D01*
X133779100Y-122413243D01*
X133223339Y-122412758D01*
X132709697Y-122624990D01*
X132316371Y-123017630D01*
X132103243Y-123530900D01*
X132102758Y-124086661D01*
X132199171Y-124320000D01*
X108420000Y-124320000D01*
X108129161Y-124377852D01*
X107882599Y-124542599D01*
X104338454Y-128086744D01*
X104286691Y-128065250D01*
X103715813Y-128064752D01*
X103188200Y-128282757D01*
X102784176Y-128686077D01*
X102565250Y-129213309D01*
X102564752Y-129784187D01*
X102782757Y-130311800D01*
X103186077Y-130715824D01*
X103713309Y-130934750D01*
X104284187Y-130935248D01*
X104811800Y-130717243D01*
X105215824Y-130313923D01*
X105434750Y-129786691D01*
X105435248Y-129215813D01*
X105412951Y-129161851D01*
X108734802Y-125840000D01*
X132199121Y-125840000D01*
X132103243Y-126070900D01*
X132102758Y-126626661D01*
X132314990Y-127140303D01*
X132707630Y-127533629D01*
X132915512Y-127619949D01*
X132709697Y-127704990D01*
X132316371Y-128097630D01*
X132103243Y-128610900D01*
X132102758Y-129166661D01*
X132314990Y-129680303D01*
X132707630Y-130073629D01*
X132915512Y-130159949D01*
X132709697Y-130244990D01*
X132316371Y-130637630D01*
X132103243Y-131150900D01*
X132102758Y-131706661D01*
X132314990Y-132220303D01*
X132707630Y-132613629D01*
X132915512Y-132699949D01*
X132709697Y-132784990D01*
X132316371Y-133177630D01*
X132103243Y-133690900D01*
X132102758Y-134246661D01*
X132314990Y-134760303D01*
X132707630Y-135153629D01*
X132915512Y-135239949D01*
X132709697Y-135324990D01*
X132316371Y-135717630D01*
X132103243Y-136230900D01*
X132102758Y-136786661D01*
X132314990Y-137300303D01*
X132707630Y-137693629D01*
X132899727Y-137773395D01*
X132768857Y-137827603D01*
X132699392Y-138069787D01*
X133500000Y-138870395D01*
X134300608Y-138069787D01*
X134231143Y-137827603D01*
X134090682Y-137777491D01*
X134290303Y-137695010D01*
X134642427Y-137343500D01*
X141331200Y-137343500D01*
X141622039Y-137285648D01*
X141868601Y-137120901D01*
X142568223Y-136421279D01*
X142577189Y-136434698D01*
X143042736Y-136745767D01*
X143591887Y-136855000D01*
X143648113Y-136855000D01*
X144197264Y-136745767D01*
X144662811Y-136434698D01*
X144973880Y-135969151D01*
X145083113Y-135420000D01*
X144973880Y-134870849D01*
X144662811Y-134405302D01*
X144280725Y-134150000D01*
X144662811Y-133894698D01*
X144973880Y-133429151D01*
X145083113Y-132880000D01*
X144973880Y-132330849D01*
X144662811Y-131865302D01*
X144258297Y-131595014D01*
X144475134Y-131492389D01*
X144851041Y-131077423D01*
X145011904Y-130689039D01*
X144889915Y-130467000D01*
X143747000Y-130467000D01*
X143747000Y-130487000D01*
X143493000Y-130487000D01*
X143493000Y-130467000D01*
X142350085Y-130467000D01*
X142228096Y-130689039D01*
X142388959Y-131077423D01*
X142764866Y-131492389D01*
X142981703Y-131595014D01*
X142577189Y-131865302D01*
X142393563Y-132140118D01*
X142203861Y-132177852D01*
X141957299Y-132342599D01*
X141054598Y-133245300D01*
X137385169Y-133245300D01*
X137391904Y-133229039D01*
X137269915Y-133007000D01*
X136127000Y-133007000D01*
X136127000Y-133027000D01*
X135873000Y-133027000D01*
X135873000Y-133007000D01*
X134730085Y-133007000D01*
X134652885Y-133147516D01*
X134292370Y-132786371D01*
X134084488Y-132700051D01*
X134290303Y-132615010D01*
X134683629Y-132222370D01*
X134896757Y-131709100D01*
X134897185Y-131218972D01*
X135144866Y-131492389D01*
X135393367Y-131610000D01*
X135144866Y-131727611D01*
X134768959Y-132142577D01*
X134608096Y-132530961D01*
X134730085Y-132753000D01*
X135873000Y-132753000D01*
X135873000Y-130467000D01*
X136127000Y-130467000D01*
X136127000Y-132753000D01*
X137269915Y-132753000D01*
X137391904Y-132530961D01*
X137231041Y-132142577D01*
X136855134Y-131727611D01*
X136606633Y-131610000D01*
X136855134Y-131492389D01*
X137231041Y-131077423D01*
X137391904Y-130689039D01*
X137269915Y-130467000D01*
X136127000Y-130467000D01*
X135873000Y-130467000D01*
X134730085Y-130467000D01*
X134652885Y-130607516D01*
X134292370Y-130246371D01*
X134084488Y-130160051D01*
X134290303Y-130075010D01*
X134683629Y-129682370D01*
X134896757Y-129169100D01*
X134896763Y-129161714D01*
X135073691Y-129235000D01*
X135101938Y-129235000D01*
X134768959Y-129602577D01*
X134608096Y-129990961D01*
X134730085Y-130213000D01*
X135873000Y-130213000D01*
X135873000Y-127927000D01*
X136127000Y-127927000D01*
X136127000Y-130213000D01*
X137269915Y-130213000D01*
X137391904Y-129990961D01*
X137231041Y-129602577D01*
X136898062Y-129235000D01*
X136926309Y-129235000D01*
X137159698Y-129138327D01*
X137338327Y-128959699D01*
X137435000Y-128726310D01*
X137435000Y-128085750D01*
X137276250Y-127927000D01*
X136127000Y-127927000D01*
X135873000Y-127927000D01*
X134723750Y-127927000D01*
X134618090Y-128032660D01*
X134292370Y-127706371D01*
X134084488Y-127620051D01*
X134290303Y-127535010D01*
X134565000Y-127260792D01*
X134565000Y-127514250D01*
X134723750Y-127673000D01*
X135873000Y-127673000D01*
X135873000Y-126523750D01*
X136127000Y-126523750D01*
X136127000Y-127673000D01*
X137276250Y-127673000D01*
X137435000Y-127514250D01*
X137435000Y-126873690D01*
X137338327Y-126640301D01*
X137159698Y-126461673D01*
X136926309Y-126365000D01*
X136285750Y-126365000D01*
X136127000Y-126523750D01*
X135873000Y-126523750D01*
X135714250Y-126365000D01*
X135073691Y-126365000D01*
X134896924Y-126438220D01*
X134897242Y-126073339D01*
X134800829Y-125840000D01*
X159780000Y-125840000D01*
X160070839Y-125782148D01*
X160317401Y-125617401D01*
X165740619Y-120194183D01*
X165770900Y-120206757D01*
X166326661Y-120207242D01*
X166359055Y-120193857D01*
X167111999Y-120946801D01*
X167358560Y-121111548D01*
X167649400Y-121169400D01*
X179690600Y-121169400D01*
X179981439Y-121111548D01*
X180228001Y-120946801D01*
X180980619Y-120194183D01*
X181010900Y-120206757D01*
X181566661Y-120207242D01*
X182080303Y-119995010D01*
X182473629Y-119602370D01*
X182686757Y-119089100D01*
X182687242Y-118533339D01*
X182475010Y-118019697D01*
X182082370Y-117626371D01*
X181569100Y-117413243D01*
X181013339Y-117412758D01*
X180499697Y-117624990D01*
X180106371Y-118017630D01*
X180026605Y-118209727D01*
X179972397Y-118078857D01*
X179730213Y-118009392D01*
X178929605Y-118810000D01*
X178943748Y-118824143D01*
X178764143Y-119003748D01*
X178750000Y-118989605D01*
X178735858Y-119003748D01*
X178556253Y-118824143D01*
X178570395Y-118810000D01*
X178556253Y-118795858D01*
X178735858Y-118616253D01*
X178750000Y-118630395D01*
X179550608Y-117829787D01*
X179485413Y-117602489D01*
X181427902Y-115660000D01*
X184469008Y-115660000D01*
X184741246Y-116067433D01*
X184894748Y-116170000D01*
X184741246Y-116272567D01*
X184383354Y-116808190D01*
X184257679Y-117440000D01*
X184383354Y-118071810D01*
X184741246Y-118607433D01*
X185276869Y-118965325D01*
X185440000Y-118997774D01*
X185440000Y-121852560D01*
X185400000Y-121852560D01*
X185164683Y-121896838D01*
X184948559Y-122035910D01*
X184803569Y-122248110D01*
X184752560Y-122500000D01*
X184752560Y-124100000D01*
X184796838Y-124335317D01*
X184850456Y-124418642D01*
X184537299Y-124731799D01*
X184372552Y-124978361D01*
X184314700Y-125269200D01*
X184314700Y-125882698D01*
X181942018Y-128255380D01*
X181919010Y-128199697D01*
X181526370Y-127806371D01*
X181318488Y-127720051D01*
X181524303Y-127635010D01*
X181917629Y-127242370D01*
X182130757Y-126729100D01*
X182131242Y-126173339D01*
X181919010Y-125659697D01*
X181526370Y-125266371D01*
X181013100Y-125053243D01*
X180457339Y-125052758D01*
X179943697Y-125264990D01*
X179550371Y-125657630D01*
X179337243Y-126170900D01*
X179336758Y-126726661D01*
X179548990Y-127240303D01*
X179941630Y-127633629D01*
X180149512Y-127719949D01*
X179943697Y-127804990D01*
X179550371Y-128197630D01*
X179337243Y-128710900D01*
X179336758Y-129266661D01*
X179548990Y-129780303D01*
X179684174Y-129915724D01*
X179331798Y-130268100D01*
X148288202Y-130268100D01*
X145282701Y-127262599D01*
X145036139Y-127097852D01*
X144846437Y-127060118D01*
X144662811Y-126785302D01*
X144197264Y-126474233D01*
X143648113Y-126365000D01*
X143591887Y-126365000D01*
X143042736Y-126474233D01*
X142577189Y-126785302D01*
X142266120Y-127250849D01*
X142156887Y-127800000D01*
X142266120Y-128349151D01*
X142577189Y-128814698D01*
X142981703Y-129084986D01*
X142764866Y-129187611D01*
X142388959Y-129602577D01*
X142228096Y-129990961D01*
X142350085Y-130213000D01*
X143493000Y-130213000D01*
X143493000Y-130193000D01*
X143747000Y-130193000D01*
X143747000Y-130213000D01*
X144889915Y-130213000D01*
X145011904Y-129990961D01*
X144851041Y-129602577D01*
X144475134Y-129187611D01*
X144258297Y-129084986D01*
X144662811Y-128814698D01*
X144671777Y-128801279D01*
X147435999Y-131565501D01*
X147682561Y-131730248D01*
X147973400Y-131788100D01*
X178886600Y-131788100D01*
X178886600Y-135522600D01*
X178944452Y-135813439D01*
X179109199Y-136060001D01*
X179349817Y-136300619D01*
X179337243Y-136330900D01*
X179336758Y-136886661D01*
X179548990Y-137400303D01*
X179941630Y-137793629D01*
X180133727Y-137873395D01*
X180002857Y-137927603D01*
X179933392Y-138169787D01*
X180734000Y-138970395D01*
X181534608Y-138169787D01*
X181465143Y-137927603D01*
X181324682Y-137877491D01*
X181524303Y-137795010D01*
X181917629Y-137402370D01*
X182130757Y-136889100D01*
X182131242Y-136333339D01*
X181919010Y-135819697D01*
X181526370Y-135426371D01*
X181318488Y-135340051D01*
X181524303Y-135255010D01*
X181917629Y-134862370D01*
X182130757Y-134349100D01*
X182131242Y-133793339D01*
X181919010Y-133279697D01*
X181526370Y-132886371D01*
X181318488Y-132800051D01*
X181524303Y-132715010D01*
X181917629Y-132322370D01*
X182130757Y-131809100D01*
X182131242Y-131253339D01*
X181919010Y-130739697D01*
X181763294Y-130583708D01*
X185410611Y-126936391D01*
X185445995Y-127053864D01*
X185809448Y-127184503D01*
X185711608Y-127282173D01*
X185568962Y-127625701D01*
X185568638Y-127997667D01*
X185710683Y-128341443D01*
X185973473Y-128604692D01*
X186317001Y-128747338D01*
X186688967Y-128747662D01*
X187032743Y-128605617D01*
X187065918Y-128572500D01*
X187097398Y-128572500D01*
X192362299Y-133837401D01*
X192577560Y-133981233D01*
X192577560Y-134175000D01*
X192621838Y-134410317D01*
X192760910Y-134626441D01*
X192973110Y-134771431D01*
X193225000Y-134822440D01*
X194975000Y-134822440D01*
X195210317Y-134778162D01*
X195426441Y-134639090D01*
X195571431Y-134426890D01*
X195622440Y-134175000D01*
X195622440Y-132425000D01*
X195578162Y-132189683D01*
X195439090Y-131973559D01*
X195226890Y-131828569D01*
X195210324Y-131825214D01*
X195379370Y-131656463D01*
X195609738Y-131101675D01*
X195610262Y-130500960D01*
X195380862Y-129945771D01*
X194956463Y-129520630D01*
X194401675Y-129290262D01*
X193800960Y-129289738D01*
X193245771Y-129519138D01*
X192820630Y-129943537D01*
X192590262Y-130498325D01*
X192589738Y-131099040D01*
X192819138Y-131654229D01*
X192987717Y-131823103D01*
X192773559Y-131960910D01*
X192717483Y-132042981D01*
X187949601Y-127275099D01*
X187703039Y-127110352D01*
X187412200Y-127052500D01*
X187066263Y-127052500D01*
X187034127Y-127020308D01*
X186971896Y-126994467D01*
X187028139Y-126807745D01*
X186200000Y-125979605D01*
X186185858Y-125993748D01*
X186006253Y-125814143D01*
X186020395Y-125800000D01*
X186379605Y-125800000D01*
X187207745Y-126628139D01*
X187453864Y-126554005D01*
X187646965Y-126016777D01*
X187619778Y-125446546D01*
X187453864Y-125045995D01*
X187207745Y-124971861D01*
X186379605Y-125800000D01*
X186020395Y-125800000D01*
X186006253Y-125785858D01*
X186185858Y-125606252D01*
X186200000Y-125620395D01*
X187028139Y-124792255D01*
X187013855Y-124744833D01*
X187235317Y-124703162D01*
X187451441Y-124564090D01*
X187596431Y-124351890D01*
X187647440Y-124100000D01*
X187647440Y-123225000D01*
X192577560Y-123225000D01*
X192577560Y-124975000D01*
X192621838Y-125210317D01*
X192760910Y-125426441D01*
X192973110Y-125571431D01*
X193225000Y-125622440D01*
X194975000Y-125622440D01*
X195210317Y-125578162D01*
X195426441Y-125439090D01*
X195571431Y-125226890D01*
X195622440Y-124975000D01*
X195622440Y-123225000D01*
X195578162Y-122989683D01*
X195439090Y-122773559D01*
X195226890Y-122628569D01*
X195210324Y-122625214D01*
X195379370Y-122456463D01*
X195609738Y-121901675D01*
X195610262Y-121300960D01*
X195380862Y-120745771D01*
X194956463Y-120320630D01*
X194933531Y-120311108D01*
X194982455Y-120162060D01*
X194100000Y-119279605D01*
X193217545Y-120162060D01*
X193266318Y-120310648D01*
X193245771Y-120319138D01*
X192820630Y-120743537D01*
X192590262Y-121298325D01*
X192589738Y-121899040D01*
X192819138Y-122454229D01*
X192987717Y-122623103D01*
X192773559Y-122760910D01*
X192628569Y-122973110D01*
X192577560Y-123225000D01*
X187647440Y-123225000D01*
X187647440Y-122500000D01*
X187603162Y-122264683D01*
X187464090Y-122048559D01*
X187251890Y-121903569D01*
X187000000Y-121852560D01*
X186960000Y-121852560D01*
X186960000Y-118997774D01*
X187123131Y-118965325D01*
X187272819Y-118865306D01*
X192578410Y-118865306D01*
X192604421Y-119465458D01*
X192784047Y-119899116D01*
X193037940Y-119982455D01*
X193920395Y-119100000D01*
X194279605Y-119100000D01*
X195162060Y-119982455D01*
X195415953Y-119899116D01*
X195621590Y-119334694D01*
X195595579Y-118734542D01*
X195415953Y-118300884D01*
X195162060Y-118217545D01*
X194279605Y-119100000D01*
X193920395Y-119100000D01*
X193037940Y-118217545D01*
X192784047Y-118300884D01*
X192578410Y-118865306D01*
X187272819Y-118865306D01*
X187658754Y-118607433D01*
X188016646Y-118071810D01*
X188142321Y-117440000D01*
X188034718Y-116899040D01*
X192589738Y-116899040D01*
X192819138Y-117454229D01*
X193243537Y-117879370D01*
X193266469Y-117888892D01*
X193217545Y-118037940D01*
X194100000Y-118920395D01*
X194982455Y-118037940D01*
X194933682Y-117889352D01*
X194954229Y-117880862D01*
X195379370Y-117456463D01*
X195609738Y-116901675D01*
X195610262Y-116300960D01*
X195380862Y-115745771D01*
X194956463Y-115320630D01*
X194401675Y-115090262D01*
X193800960Y-115089738D01*
X193245771Y-115319138D01*
X192820630Y-115743537D01*
X192590262Y-116298325D01*
X192589738Y-116899040D01*
X188034718Y-116899040D01*
X188016646Y-116808190D01*
X187658754Y-116272567D01*
X187505252Y-116170000D01*
X187658754Y-116067433D01*
X188016646Y-115531810D01*
X188142321Y-114900000D01*
X188016646Y-114268190D01*
X187658754Y-113732567D01*
X187505252Y-113630000D01*
X187658754Y-113527433D01*
X188016646Y-112991810D01*
X188142321Y-112360000D01*
X188016646Y-111728190D01*
X187658754Y-111192567D01*
X187123131Y-110834675D01*
X186491321Y-110709000D01*
X185908679Y-110709000D01*
X185276869Y-110834675D01*
X184741246Y-111192567D01*
X184383354Y-111728190D01*
X184257679Y-112360000D01*
X184383354Y-112991810D01*
X184741246Y-113527433D01*
X184894748Y-113630000D01*
X184741246Y-113732567D01*
X184469008Y-114140000D01*
X181113100Y-114140000D01*
X180822260Y-114197852D01*
X180575699Y-114362599D01*
X177157013Y-117781285D01*
X177002370Y-117626371D01*
X176489100Y-117413243D01*
X175933339Y-117412758D01*
X175900945Y-117426143D01*
X174390001Y-115915199D01*
X174143439Y-115750452D01*
X173852600Y-115692600D01*
X164367402Y-115692600D01*
X160813256Y-112138454D01*
X160834750Y-112086691D01*
X160835248Y-111515813D01*
X160617243Y-110988200D01*
X160213923Y-110584176D01*
X160132069Y-110550187D01*
X160211800Y-110517243D01*
X160615824Y-110113923D01*
X160834750Y-109586691D01*
X160835248Y-109015813D01*
X160617243Y-108488200D01*
X160420686Y-108291300D01*
X165196400Y-108291300D01*
X165368040Y-108257158D01*
X163819381Y-109805817D01*
X163789100Y-109793243D01*
X163233339Y-109792758D01*
X162719697Y-110004990D01*
X162326371Y-110397630D01*
X162113243Y-110910900D01*
X162112758Y-111466661D01*
X162324990Y-111980303D01*
X162717630Y-112373629D01*
X163230900Y-112586757D01*
X163786661Y-112587242D01*
X164300303Y-112375010D01*
X164693629Y-111982370D01*
X164779949Y-111774488D01*
X164864990Y-111980303D01*
X165257630Y-112373629D01*
X165770900Y-112586757D01*
X166326661Y-112587242D01*
X166840303Y-112375010D01*
X167045457Y-112170213D01*
X167789392Y-112170213D01*
X167858857Y-112412397D01*
X168382302Y-112599144D01*
X168937368Y-112571362D01*
X169321143Y-112412397D01*
X169390608Y-112170213D01*
X168590000Y-111369605D01*
X167789392Y-112170213D01*
X167045457Y-112170213D01*
X167233629Y-111982370D01*
X167313395Y-111790273D01*
X167367603Y-111921143D01*
X167609787Y-111990608D01*
X168410395Y-111190000D01*
X167609787Y-110389392D01*
X167367603Y-110458857D01*
X167317491Y-110599318D01*
X167235010Y-110399697D01*
X167045432Y-110209787D01*
X167789392Y-110209787D01*
X168590000Y-111010395D01*
X169390608Y-110209787D01*
X169321143Y-109967603D01*
X168797698Y-109780856D01*
X168242632Y-109808638D01*
X167858857Y-109967603D01*
X167789392Y-110209787D01*
X167045432Y-110209787D01*
X166842370Y-110006371D01*
X166329100Y-109793243D01*
X165981862Y-109792940D01*
X167587802Y-108187000D01*
X177163300Y-108187000D01*
X177454139Y-108129148D01*
X177700701Y-107964401D01*
X180957357Y-104707745D01*
X181771861Y-104707745D01*
X181845995Y-104953864D01*
X182383223Y-105146965D01*
X182953454Y-105119778D01*
X183354005Y-104953864D01*
X183428139Y-104707745D01*
X182600000Y-103879605D01*
X181771861Y-104707745D01*
X180957357Y-104707745D01*
X181306584Y-104358518D01*
X181346136Y-104454005D01*
X181592255Y-104528139D01*
X182420395Y-103700000D01*
X182406252Y-103685858D01*
X182585858Y-103506252D01*
X182600000Y-103520395D01*
X182614142Y-103506252D01*
X182793748Y-103685858D01*
X182779605Y-103700000D01*
X183607745Y-104528139D01*
X183853864Y-104454005D01*
X184046965Y-103916777D01*
X184019778Y-103346546D01*
X183853864Y-102945995D01*
X183607747Y-102871861D01*
X183659708Y-102819900D01*
X190849298Y-102819900D01*
X182687182Y-110982016D01*
X182687242Y-110913339D01*
X182475010Y-110399697D01*
X182082370Y-110006371D01*
X181569100Y-109793243D01*
X181013339Y-109792758D01*
X180499697Y-110004990D01*
X180106371Y-110397630D01*
X180026605Y-110589727D01*
X179972397Y-110458857D01*
X179730213Y-110389392D01*
X178929605Y-111190000D01*
X178943748Y-111204143D01*
X178764143Y-111383748D01*
X178750000Y-111369605D01*
X178735858Y-111383748D01*
X178556253Y-111204143D01*
X178570395Y-111190000D01*
X177769787Y-110389392D01*
X177527603Y-110458857D01*
X177477491Y-110599318D01*
X177395010Y-110399697D01*
X177205432Y-110209787D01*
X177949392Y-110209787D01*
X178750000Y-111010395D01*
X179550608Y-110209787D01*
X179481143Y-109967603D01*
X178957698Y-109780856D01*
X178402632Y-109808638D01*
X178018857Y-109967603D01*
X177949392Y-110209787D01*
X177205432Y-110209787D01*
X177002370Y-110006371D01*
X176489100Y-109793243D01*
X175933339Y-109792758D01*
X175419697Y-110004990D01*
X175026371Y-110397630D01*
X174940051Y-110605512D01*
X174855010Y-110399697D01*
X174462370Y-110006371D01*
X173949100Y-109793243D01*
X173393339Y-109792758D01*
X172879697Y-110004990D01*
X172486371Y-110397630D01*
X172400051Y-110605512D01*
X172315010Y-110399697D01*
X171922370Y-110006371D01*
X171409100Y-109793243D01*
X170853339Y-109792758D01*
X170339697Y-110004990D01*
X169946371Y-110397630D01*
X169866605Y-110589727D01*
X169812397Y-110458857D01*
X169570213Y-110389392D01*
X168769605Y-111190000D01*
X169570213Y-111990608D01*
X169812397Y-111921143D01*
X169862509Y-111780682D01*
X169944990Y-111980303D01*
X170337630Y-112373629D01*
X170850900Y-112586757D01*
X171406661Y-112587242D01*
X171439055Y-112573857D01*
X171695699Y-112830501D01*
X171942261Y-112995248D01*
X172233100Y-113053100D01*
X182450900Y-113053100D01*
X182741739Y-112995248D01*
X182988301Y-112830501D01*
X185533052Y-110285750D01*
X192590000Y-110285750D01*
X192590000Y-111001309D01*
X192686673Y-111234698D01*
X192865301Y-111413327D01*
X193098690Y-111510000D01*
X193814250Y-111510000D01*
X193973000Y-111351250D01*
X193973000Y-110127000D01*
X194227000Y-110127000D01*
X194227000Y-111351250D01*
X194385750Y-111510000D01*
X195101310Y-111510000D01*
X195334699Y-111413327D01*
X195513327Y-111234698D01*
X195610000Y-111001309D01*
X195610000Y-110285750D01*
X195451250Y-110127000D01*
X194227000Y-110127000D01*
X193973000Y-110127000D01*
X192748750Y-110127000D01*
X192590000Y-110285750D01*
X185533052Y-110285750D01*
X188019762Y-107799040D01*
X192589738Y-107799040D01*
X192819138Y-108354229D01*
X192996802Y-108532203D01*
X192865301Y-108586673D01*
X192686673Y-108765302D01*
X192590000Y-108998691D01*
X192590000Y-109714250D01*
X192748750Y-109873000D01*
X193973000Y-109873000D01*
X193973000Y-109853000D01*
X194227000Y-109853000D01*
X194227000Y-109873000D01*
X195451250Y-109873000D01*
X195610000Y-109714250D01*
X195610000Y-108998691D01*
X195513327Y-108765302D01*
X195334699Y-108586673D01*
X195203286Y-108532240D01*
X195379370Y-108356463D01*
X195609738Y-107801675D01*
X195610262Y-107200960D01*
X195380862Y-106645771D01*
X194956463Y-106220630D01*
X194401675Y-105990262D01*
X193800960Y-105989738D01*
X193245771Y-106219138D01*
X192820630Y-106643537D01*
X192590262Y-107198325D01*
X192589738Y-107799040D01*
X188019762Y-107799040D01*
X191874302Y-103944500D01*
X194570000Y-103944500D01*
X194860839Y-103886648D01*
X195107401Y-103721901D01*
X196824501Y-102004801D01*
X196989248Y-101758239D01*
X197047100Y-101467400D01*
X197047100Y-80787400D01*
X196989248Y-80496561D01*
X196989248Y-80496560D01*
X196824501Y-80249999D01*
X195357776Y-78783274D01*
X195426441Y-78739090D01*
X195571431Y-78526890D01*
X195622440Y-78275000D01*
X195622440Y-76525000D01*
X195578162Y-76289683D01*
X195439090Y-76073559D01*
X195226890Y-75928569D01*
X195210324Y-75925214D01*
X195379370Y-75756463D01*
X195609738Y-75201675D01*
X195610262Y-74600960D01*
X195380862Y-74045771D01*
X194956463Y-73620630D01*
X194401675Y-73390262D01*
X193800960Y-73389738D01*
X193245771Y-73619138D01*
X192820630Y-74043537D01*
X192590262Y-74598325D01*
X192589738Y-75199040D01*
X192629625Y-75295573D01*
X192362199Y-75562999D01*
X192197452Y-75809561D01*
X192139600Y-76100400D01*
X192139600Y-80223900D01*
X192197452Y-80514739D01*
X192362199Y-80761301D01*
X194190976Y-82590078D01*
X193800960Y-82589738D01*
X193245771Y-82819138D01*
X192820630Y-83243537D01*
X192590262Y-83798325D01*
X192589738Y-84399040D01*
X192819138Y-84954229D01*
X193214536Y-85350318D01*
X192820630Y-85743537D01*
X192590262Y-86298325D01*
X192589738Y-86899040D01*
X192819138Y-87454229D01*
X193243537Y-87879370D01*
X193266469Y-87888892D01*
X193217545Y-88037940D01*
X194100000Y-88920395D01*
X194114143Y-88906253D01*
X194293748Y-89085858D01*
X194279605Y-89100000D01*
X194293748Y-89114143D01*
X194114143Y-89293748D01*
X194100000Y-89279605D01*
X194085858Y-89293748D01*
X193906253Y-89114143D01*
X193920395Y-89100000D01*
X193037940Y-88217545D01*
X192784047Y-88300884D01*
X192578410Y-88865306D01*
X192604421Y-89465458D01*
X192784047Y-89899116D01*
X193037938Y-89982454D01*
X192923306Y-90097086D01*
X192964356Y-90138136D01*
X192773559Y-90260910D01*
X192628569Y-90473110D01*
X192577560Y-90725000D01*
X192577560Y-90840000D01*
X174560117Y-90840000D01*
X174676757Y-90559100D01*
X174677242Y-90003339D01*
X174465010Y-89489697D01*
X174072370Y-89096371D01*
X173559100Y-88883243D01*
X173003339Y-88882758D01*
X172489697Y-89094990D01*
X172096371Y-89487630D01*
X172010051Y-89695512D01*
X171925010Y-89489697D01*
X171532370Y-89096371D01*
X171019100Y-88883243D01*
X170463339Y-88882758D01*
X169949697Y-89094990D01*
X169556371Y-89487630D01*
X169470051Y-89695512D01*
X169385010Y-89489697D01*
X168992370Y-89096371D01*
X168479100Y-88883243D01*
X167923339Y-88882758D01*
X167409697Y-89094990D01*
X167016371Y-89487630D01*
X166936605Y-89679727D01*
X166882397Y-89548857D01*
X166640213Y-89479392D01*
X165839605Y-90280000D01*
X165853748Y-90294143D01*
X165674143Y-90473748D01*
X165660000Y-90459605D01*
X165645858Y-90473748D01*
X165466253Y-90294143D01*
X165480395Y-90280000D01*
X164679787Y-89479392D01*
X164437603Y-89548857D01*
X164387491Y-89689318D01*
X164305010Y-89489697D01*
X164115432Y-89299787D01*
X164859392Y-89299787D01*
X165660000Y-90100395D01*
X166460608Y-89299787D01*
X166391143Y-89057603D01*
X165867698Y-88870856D01*
X165312632Y-88898638D01*
X164928857Y-89057603D01*
X164859392Y-89299787D01*
X164115432Y-89299787D01*
X163912370Y-89096371D01*
X163399100Y-88883243D01*
X162843339Y-88882758D01*
X162329697Y-89094990D01*
X161936371Y-89487630D01*
X161850051Y-89695512D01*
X161765010Y-89489697D01*
X161372370Y-89096371D01*
X160859100Y-88883243D01*
X160303339Y-88882758D01*
X159789697Y-89094990D01*
X159396371Y-89487630D01*
X159310051Y-89695512D01*
X159225010Y-89489697D01*
X158832370Y-89096371D01*
X158319100Y-88883243D01*
X157763339Y-88882758D01*
X157249697Y-89094990D01*
X156856371Y-89487630D01*
X156770051Y-89695512D01*
X156685010Y-89489697D01*
X156292370Y-89096371D01*
X155779100Y-88883243D01*
X155223339Y-88882758D01*
X154709697Y-89094990D01*
X154316371Y-89487630D01*
X154230051Y-89695512D01*
X154145010Y-89489697D01*
X153752370Y-89096371D01*
X153239100Y-88883243D01*
X152683339Y-88882758D01*
X152169697Y-89094990D01*
X151776371Y-89487630D01*
X151690051Y-89695512D01*
X151605010Y-89489697D01*
X151212370Y-89096371D01*
X150699100Y-88883243D01*
X150143339Y-88882758D01*
X149629697Y-89094990D01*
X149236371Y-89487630D01*
X149150051Y-89695512D01*
X149065010Y-89489697D01*
X148672370Y-89096371D01*
X148159100Y-88883243D01*
X147603339Y-88882758D01*
X147089697Y-89094990D01*
X146696371Y-89487630D01*
X146610051Y-89695512D01*
X146525010Y-89489697D01*
X146132370Y-89096371D01*
X145619100Y-88883243D01*
X145271862Y-88882940D01*
X146448702Y-87706100D01*
X148711600Y-87706100D01*
X149002439Y-87648248D01*
X149074647Y-87600000D01*
X176952560Y-87600000D01*
X176952560Y-89200000D01*
X176996838Y-89435317D01*
X177135910Y-89651441D01*
X177348110Y-89796431D01*
X177600000Y-89847440D01*
X179200000Y-89847440D01*
X179435317Y-89803162D01*
X179651441Y-89664090D01*
X179677074Y-89626576D01*
X180138699Y-90088201D01*
X180385261Y-90252948D01*
X180676100Y-90310800D01*
X183623900Y-90310800D01*
X183914739Y-90252948D01*
X184161301Y-90088201D01*
X185121091Y-89128411D01*
X185135910Y-89151441D01*
X185348110Y-89296431D01*
X185600000Y-89347440D01*
X187200000Y-89347440D01*
X187435317Y-89303162D01*
X187651441Y-89164090D01*
X187796431Y-88951890D01*
X187805370Y-88907745D01*
X188071861Y-88907745D01*
X188145995Y-89153864D01*
X188683223Y-89346965D01*
X189253454Y-89319778D01*
X189654005Y-89153864D01*
X189728139Y-88907745D01*
X188900000Y-88079605D01*
X188071861Y-88907745D01*
X187805370Y-88907745D01*
X187844646Y-88713799D01*
X187892255Y-88728139D01*
X188720395Y-87900000D01*
X189079605Y-87900000D01*
X189907745Y-88728139D01*
X190153864Y-88654005D01*
X190346965Y-88116777D01*
X190319778Y-87546546D01*
X190153864Y-87145995D01*
X189907745Y-87071861D01*
X189079605Y-87900000D01*
X188720395Y-87900000D01*
X187892255Y-87071861D01*
X187844833Y-87086145D01*
X187808351Y-86892255D01*
X188071861Y-86892255D01*
X188900000Y-87720395D01*
X189728139Y-86892255D01*
X189654005Y-86646136D01*
X189116777Y-86453035D01*
X188546546Y-86480222D01*
X188145995Y-86646136D01*
X188071861Y-86892255D01*
X187808351Y-86892255D01*
X187803162Y-86864683D01*
X187664090Y-86648559D01*
X187451890Y-86503569D01*
X187200000Y-86452560D01*
X185600000Y-86452560D01*
X185364683Y-86496838D01*
X185148559Y-86635910D01*
X185003569Y-86848110D01*
X184952560Y-87100000D01*
X184952560Y-87218767D01*
X184737299Y-87362599D01*
X183639509Y-88460389D01*
X183619778Y-88046546D01*
X183453864Y-87645995D01*
X183207745Y-87571861D01*
X182379605Y-88400000D01*
X182393748Y-88414143D01*
X182214143Y-88593748D01*
X182200000Y-88579605D01*
X182185858Y-88593748D01*
X182006253Y-88414143D01*
X182020395Y-88400000D01*
X181192255Y-87571861D01*
X180946136Y-87645995D01*
X180753035Y-88183223D01*
X180771544Y-88571442D01*
X180062701Y-87862599D01*
X179847440Y-87718767D01*
X179847440Y-87600000D01*
X179808351Y-87392255D01*
X181371861Y-87392255D01*
X182200000Y-88220395D01*
X183028139Y-87392255D01*
X182954005Y-87146136D01*
X182416777Y-86953035D01*
X181846546Y-86980222D01*
X181445995Y-87146136D01*
X181371861Y-87392255D01*
X179808351Y-87392255D01*
X179803162Y-87364683D01*
X179664090Y-87148559D01*
X179451890Y-87003569D01*
X179200000Y-86952560D01*
X177600000Y-86952560D01*
X177364683Y-86996838D01*
X177148559Y-87135910D01*
X177003569Y-87348110D01*
X176952560Y-87600000D01*
X149074647Y-87600000D01*
X149249001Y-87483501D01*
X150202637Y-86529865D01*
X150357630Y-86685129D01*
X150870900Y-86898257D01*
X151426661Y-86898742D01*
X151940303Y-86686510D01*
X152333629Y-86293870D01*
X152419949Y-86085988D01*
X152504990Y-86291803D01*
X152897630Y-86685129D01*
X153410900Y-86898257D01*
X153966661Y-86898742D01*
X154480303Y-86686510D01*
X154873629Y-86293870D01*
X154959949Y-86085988D01*
X155044990Y-86291803D01*
X155437630Y-86685129D01*
X155950900Y-86898257D01*
X156506661Y-86898742D01*
X157020303Y-86686510D01*
X157413629Y-86293870D01*
X157499949Y-86085988D01*
X157584990Y-86291803D01*
X157977630Y-86685129D01*
X158490900Y-86898257D01*
X159046661Y-86898742D01*
X159560303Y-86686510D01*
X159953629Y-86293870D01*
X160039949Y-86085988D01*
X160124990Y-86291803D01*
X160517630Y-86685129D01*
X161030900Y-86898257D01*
X161586661Y-86898742D01*
X162100303Y-86686510D01*
X162493629Y-86293870D01*
X162579949Y-86085988D01*
X162664990Y-86291803D01*
X163057630Y-86685129D01*
X163570900Y-86898257D01*
X164126661Y-86898742D01*
X164640303Y-86686510D01*
X165033629Y-86293870D01*
X165119949Y-86085988D01*
X165204990Y-86291803D01*
X165597630Y-86685129D01*
X166110900Y-86898257D01*
X166666661Y-86898742D01*
X167180303Y-86686510D01*
X167385457Y-86481713D01*
X168129392Y-86481713D01*
X168198857Y-86723897D01*
X168722302Y-86910644D01*
X169277368Y-86882862D01*
X169661143Y-86723897D01*
X169730608Y-86481713D01*
X170669392Y-86481713D01*
X170738857Y-86723897D01*
X171262302Y-86910644D01*
X171817368Y-86882862D01*
X172201143Y-86723897D01*
X172270608Y-86481713D01*
X171470000Y-85681105D01*
X170669392Y-86481713D01*
X169730608Y-86481713D01*
X168930000Y-85681105D01*
X168129392Y-86481713D01*
X167385457Y-86481713D01*
X167573629Y-86293870D01*
X167653395Y-86101773D01*
X167707603Y-86232643D01*
X167949787Y-86302108D01*
X168750395Y-85501500D01*
X169109605Y-85501500D01*
X169910213Y-86302108D01*
X170152397Y-86232643D01*
X170196453Y-86109156D01*
X170247603Y-86232643D01*
X170489787Y-86302108D01*
X171290395Y-85501500D01*
X171649605Y-85501500D01*
X172450213Y-86302108D01*
X172692397Y-86232643D01*
X172742509Y-86092182D01*
X172824990Y-86291803D01*
X173217630Y-86685129D01*
X173730900Y-86898257D01*
X174286661Y-86898742D01*
X174800303Y-86686510D01*
X175193629Y-86293870D01*
X175406757Y-85780600D01*
X175407242Y-85224839D01*
X175195010Y-84711197D01*
X174802370Y-84317871D01*
X174289100Y-84104743D01*
X173733339Y-84104258D01*
X173219697Y-84316490D01*
X172826371Y-84709130D01*
X172746605Y-84901227D01*
X172692397Y-84770357D01*
X172450213Y-84700892D01*
X171649605Y-85501500D01*
X171290395Y-85501500D01*
X170489787Y-84700892D01*
X170247603Y-84770357D01*
X170203547Y-84893844D01*
X170152397Y-84770357D01*
X169910213Y-84700892D01*
X169109605Y-85501500D01*
X168750395Y-85501500D01*
X167949787Y-84700892D01*
X167707603Y-84770357D01*
X167657491Y-84910818D01*
X167575010Y-84711197D01*
X167385432Y-84521287D01*
X168129392Y-84521287D01*
X168930000Y-85321895D01*
X169730608Y-84521287D01*
X170669392Y-84521287D01*
X171470000Y-85321895D01*
X172270608Y-84521287D01*
X172201143Y-84279103D01*
X171677698Y-84092356D01*
X171122632Y-84120138D01*
X170738857Y-84279103D01*
X170669392Y-84521287D01*
X169730608Y-84521287D01*
X169661143Y-84279103D01*
X169137698Y-84092356D01*
X168582632Y-84120138D01*
X168198857Y-84279103D01*
X168129392Y-84521287D01*
X167385432Y-84521287D01*
X167182370Y-84317871D01*
X166669100Y-84104743D01*
X166113339Y-84104258D01*
X165599697Y-84316490D01*
X165206371Y-84709130D01*
X165120051Y-84917012D01*
X165035010Y-84711197D01*
X164642370Y-84317871D01*
X164129100Y-84104743D01*
X163573339Y-84104258D01*
X163059697Y-84316490D01*
X162666371Y-84709130D01*
X162580051Y-84917012D01*
X162495010Y-84711197D01*
X162102370Y-84317871D01*
X161589100Y-84104743D01*
X161033339Y-84104258D01*
X160519697Y-84316490D01*
X160126371Y-84709130D01*
X160040051Y-84917012D01*
X159955010Y-84711197D01*
X159562370Y-84317871D01*
X159049100Y-84104743D01*
X158493339Y-84104258D01*
X157979697Y-84316490D01*
X157586371Y-84709130D01*
X157500051Y-84917012D01*
X157415010Y-84711197D01*
X157022370Y-84317871D01*
X156509100Y-84104743D01*
X155953339Y-84104258D01*
X155439697Y-84316490D01*
X155046371Y-84709130D01*
X154960051Y-84917012D01*
X154875010Y-84711197D01*
X154482370Y-84317871D01*
X153969100Y-84104743D01*
X153413339Y-84104258D01*
X152899697Y-84316490D01*
X152506371Y-84709130D01*
X152420051Y-84917012D01*
X152335010Y-84711197D01*
X151942370Y-84317871D01*
X151854442Y-84281360D01*
X153243915Y-82891887D01*
X179565000Y-82891887D01*
X179565000Y-82948113D01*
X179674233Y-83497264D01*
X179985302Y-83962811D01*
X180450849Y-84273880D01*
X181000000Y-84383113D01*
X181549151Y-84273880D01*
X182014698Y-83962811D01*
X182325767Y-83497264D01*
X182435000Y-82948113D01*
X182435000Y-82891887D01*
X182325767Y-82342736D01*
X182014698Y-81877189D01*
X181549151Y-81566120D01*
X181000000Y-81456887D01*
X180450849Y-81566120D01*
X179985302Y-81877189D01*
X179674233Y-82342736D01*
X179565000Y-82891887D01*
X153243915Y-82891887D01*
X155851615Y-80284187D01*
X182964752Y-80284187D01*
X183182757Y-80811800D01*
X183586077Y-81215824D01*
X184113309Y-81434750D01*
X184684187Y-81435248D01*
X185211800Y-81217243D01*
X185615824Y-80813923D01*
X185834750Y-80286691D01*
X185835248Y-79715813D01*
X185617243Y-79188200D01*
X185213923Y-78784176D01*
X184686691Y-78565250D01*
X184115813Y-78564752D01*
X183588200Y-78782757D01*
X183184176Y-79186077D01*
X182965250Y-79713309D01*
X182964752Y-80284187D01*
X155851615Y-80284187D01*
X160075802Y-76060000D01*
X179761354Y-76060000D01*
X179782757Y-76111800D01*
X180186077Y-76515824D01*
X180713309Y-76734750D01*
X181284187Y-76735248D01*
X181811800Y-76517243D01*
X182215824Y-76113923D01*
X182434750Y-75586691D01*
X182435248Y-75015813D01*
X182217243Y-74488200D01*
X181881464Y-74151835D01*
X182014698Y-74062811D01*
X182325767Y-73597264D01*
X182435000Y-73048113D01*
X182435000Y-72991887D01*
X182325767Y-72442736D01*
X182265064Y-72351887D01*
X182965000Y-72351887D01*
X182965000Y-72408113D01*
X183074233Y-72957264D01*
X183385302Y-73422811D01*
X183850849Y-73733880D01*
X184400000Y-73843113D01*
X184949151Y-73733880D01*
X185414698Y-73422811D01*
X185615679Y-73122022D01*
X185816139Y-73082148D01*
X186062701Y-72917401D01*
X186227448Y-72670839D01*
X186285300Y-72380000D01*
X186285300Y-72289802D01*
X188737401Y-69837701D01*
X188881233Y-69622440D01*
X189075000Y-69622440D01*
X189310317Y-69578162D01*
X189526441Y-69439090D01*
X189671431Y-69226890D01*
X189722440Y-68975000D01*
X189722440Y-67500000D01*
X192390000Y-67500000D01*
X192565838Y-68383999D01*
X193066583Y-69133417D01*
X193816001Y-69634162D01*
X194700000Y-69810000D01*
X195583999Y-69634162D01*
X196333417Y-69133417D01*
X196834162Y-68383999D01*
X197010000Y-67500000D01*
X196834162Y-66616001D01*
X196333417Y-65866583D01*
X195583999Y-65365838D01*
X194700000Y-65190000D01*
X193816001Y-65365838D01*
X193066583Y-65866583D01*
X192565838Y-66616001D01*
X192390000Y-67500000D01*
X189722440Y-67500000D01*
X189722440Y-67225000D01*
X189678162Y-66989683D01*
X189539090Y-66773559D01*
X189326890Y-66628569D01*
X189075000Y-66577560D01*
X187325000Y-66577560D01*
X187089683Y-66621838D01*
X186873559Y-66760910D01*
X186728569Y-66973110D01*
X186725214Y-66989676D01*
X186556463Y-66820630D01*
X186001675Y-66590262D01*
X185400960Y-66589738D01*
X184845771Y-66819138D01*
X184420630Y-67243537D01*
X184190262Y-67798325D01*
X184189738Y-68399040D01*
X184419138Y-68954229D01*
X184843537Y-69379370D01*
X185398325Y-69609738D01*
X185999040Y-69610262D01*
X186554229Y-69380862D01*
X186723103Y-69212283D01*
X186860910Y-69426441D01*
X186942981Y-69482517D01*
X185219042Y-71206456D01*
X184949151Y-71026120D01*
X184400000Y-70916887D01*
X183850849Y-71026120D01*
X183385302Y-71337189D01*
X183074233Y-71802736D01*
X182965000Y-72351887D01*
X182265064Y-72351887D01*
X182014698Y-71977189D01*
X181549151Y-71666120D01*
X181000000Y-71556887D01*
X180450849Y-71666120D01*
X179985302Y-71977189D01*
X179784321Y-72277978D01*
X179583861Y-72317852D01*
X179337299Y-72482599D01*
X179084067Y-72735831D01*
X179025767Y-72442736D01*
X178714698Y-71977189D01*
X178249151Y-71666120D01*
X177700000Y-71556887D01*
X177150849Y-71666120D01*
X176685302Y-71977189D01*
X176374233Y-72442736D01*
X176265000Y-72991887D01*
X176265000Y-73048113D01*
X176332071Y-73385300D01*
X116654700Y-73385300D01*
X116363861Y-73443152D01*
X116117299Y-73607899D01*
X115052401Y-74672797D01*
X114985010Y-74509697D01*
X114592370Y-74116371D01*
X114079100Y-73903243D01*
X113523339Y-73902758D01*
X113490945Y-73916143D01*
X113094504Y-73519702D01*
X113520900Y-73696757D01*
X114076661Y-73697242D01*
X114590303Y-73485010D01*
X114983629Y-73092370D01*
X115196757Y-72579100D01*
X115197242Y-72023339D01*
X114985010Y-71509697D01*
X114592370Y-71116371D01*
X114079100Y-70903243D01*
X113523339Y-70902758D01*
X113009697Y-71114990D01*
X112616371Y-71507630D01*
X112602930Y-71540000D01*
X97435102Y-71540000D01*
X98098441Y-70876661D01*
X136202758Y-70876661D01*
X136414990Y-71390303D01*
X136807630Y-71783629D01*
X137320900Y-71996757D01*
X137876661Y-71997242D01*
X138390303Y-71785010D01*
X138783629Y-71392370D01*
X138996757Y-70879100D01*
X138997242Y-70323339D01*
X138785010Y-69809697D01*
X138392370Y-69416371D01*
X137879100Y-69203243D01*
X137323339Y-69202758D01*
X136809697Y-69414990D01*
X136416371Y-69807630D01*
X136203243Y-70320900D01*
X136202758Y-70876661D01*
X98098441Y-70876661D01*
X98589702Y-70385400D01*
X112909572Y-70385400D01*
X113007630Y-70483629D01*
X113520900Y-70696757D01*
X114076661Y-70697242D01*
X114590303Y-70485010D01*
X114983629Y-70092370D01*
X115196757Y-69579100D01*
X115197242Y-69023339D01*
X114985010Y-68509697D01*
X114592370Y-68116371D01*
X114079100Y-67903243D01*
X113523339Y-67902758D01*
X113009697Y-68114990D01*
X112616371Y-68507630D01*
X112467812Y-68865400D01*
X111322440Y-68865400D01*
X111322440Y-67876661D01*
X136202758Y-67876661D01*
X136414990Y-68390303D01*
X136807630Y-68783629D01*
X137320900Y-68996757D01*
X137876661Y-68997242D01*
X138390303Y-68785010D01*
X138783629Y-68392370D01*
X138996757Y-67879100D01*
X138997242Y-67323339D01*
X138785010Y-66809697D01*
X138392370Y-66416371D01*
X137879100Y-66203243D01*
X137323339Y-66202758D01*
X136809697Y-66414990D01*
X136416371Y-66807630D01*
X136203243Y-67320900D01*
X136202758Y-67876661D01*
X111322440Y-67876661D01*
X111322440Y-67425000D01*
X111278162Y-67189683D01*
X111139090Y-66973559D01*
X110926890Y-66828569D01*
X110675000Y-66777560D01*
X108925000Y-66777560D01*
X108689683Y-66821838D01*
X108473559Y-66960910D01*
X108328569Y-67173110D01*
X108325214Y-67189676D01*
X108156463Y-67020630D01*
X107601675Y-66790262D01*
X107000960Y-66789738D01*
X106445771Y-67019138D01*
X106020630Y-67443537D01*
X105790262Y-67998325D01*
X105789738Y-68599040D01*
X105899796Y-68865400D01*
X102622440Y-68865400D01*
X102622440Y-67425000D01*
X102578162Y-67189683D01*
X102439090Y-66973559D01*
X102226890Y-66828569D01*
X101975000Y-66777560D01*
X100225000Y-66777560D01*
X99989683Y-66821838D01*
X99773559Y-66960910D01*
X99628569Y-67173110D01*
X99625214Y-67189676D01*
X99456463Y-67020630D01*
X98901675Y-66790262D01*
X98300960Y-66789738D01*
X97745771Y-67019138D01*
X97320630Y-67443537D01*
X97090262Y-67998325D01*
X97089738Y-68599040D01*
X97319138Y-69154229D01*
X97495050Y-69330448D01*
X93883274Y-72942224D01*
X93839090Y-72873559D01*
X93626890Y-72728569D01*
X93375000Y-72677560D01*
X91625000Y-72677560D01*
X91389683Y-72721838D01*
X91173559Y-72860910D01*
X91028569Y-73073110D01*
X90977560Y-73325000D01*
X89010000Y-73325000D01*
X89010000Y-67700000D01*
X89390000Y-67700000D01*
X89565838Y-68583999D01*
X90066583Y-69333417D01*
X90816001Y-69834162D01*
X91700000Y-70010000D01*
X92583999Y-69834162D01*
X93333417Y-69333417D01*
X93834162Y-68583999D01*
X94010000Y-67700000D01*
X93834162Y-66816001D01*
X93333417Y-66066583D01*
X92583999Y-65565838D01*
X91700000Y-65390000D01*
X90816001Y-65565838D01*
X90066583Y-66066583D01*
X89565838Y-66816001D01*
X89390000Y-67700000D01*
X89010000Y-67700000D01*
X89010000Y-64810000D01*
X149023698Y-64810000D01*
X148919381Y-64914317D01*
X148919381Y-64914317D01*
G37*
X148919381Y-64914317D02*
X148889100Y-64901743D01*
X148333339Y-64901258D01*
X147819697Y-65113490D01*
X147426371Y-65506130D01*
X147340051Y-65714012D01*
X147255010Y-65508197D01*
X146862370Y-65114871D01*
X146349100Y-64901743D01*
X145793339Y-64901258D01*
X145279697Y-65113490D01*
X144886371Y-65506130D01*
X144800051Y-65714012D01*
X144715010Y-65508197D01*
X144322370Y-65114871D01*
X143809100Y-64901743D01*
X143253339Y-64901258D01*
X142739697Y-65113490D01*
X142346371Y-65506130D01*
X142260051Y-65714012D01*
X142175010Y-65508197D01*
X141782370Y-65114871D01*
X141269100Y-64901743D01*
X140713339Y-64901258D01*
X140199697Y-65113490D01*
X139806371Y-65506130D01*
X139593243Y-66019400D01*
X139592758Y-66575161D01*
X139804990Y-67088803D01*
X140197630Y-67482129D01*
X140710900Y-67695257D01*
X141266661Y-67695742D01*
X141780303Y-67483510D01*
X142173629Y-67090870D01*
X142259949Y-66882988D01*
X142344990Y-67088803D01*
X142737630Y-67482129D01*
X143250900Y-67695257D01*
X143806661Y-67695742D01*
X144320303Y-67483510D01*
X144713629Y-67090870D01*
X144799949Y-66882988D01*
X144884990Y-67088803D01*
X145277630Y-67482129D01*
X145790900Y-67695257D01*
X146346661Y-67695742D01*
X146860303Y-67483510D01*
X147253629Y-67090870D01*
X147339949Y-66882988D01*
X147424990Y-67088803D01*
X147817630Y-67482129D01*
X148330900Y-67695257D01*
X148886661Y-67695742D01*
X149400303Y-67483510D01*
X149793629Y-67090870D01*
X149879949Y-66882988D01*
X149964990Y-67088803D01*
X150357630Y-67482129D01*
X150870900Y-67695257D01*
X151426661Y-67695742D01*
X151940303Y-67483510D01*
X152333629Y-67090870D01*
X152419949Y-66882988D01*
X152504990Y-67088803D01*
X152897630Y-67482129D01*
X153410900Y-67695257D01*
X153966661Y-67695742D01*
X154480303Y-67483510D01*
X154873629Y-67090870D01*
X154959949Y-66882988D01*
X155044990Y-67088803D01*
X155437630Y-67482129D01*
X155950900Y-67695257D01*
X156506661Y-67695742D01*
X157020303Y-67483510D01*
X157413629Y-67090870D01*
X157499949Y-66882988D01*
X157584990Y-67088803D01*
X157977630Y-67482129D01*
X158490900Y-67695257D01*
X159046661Y-67695742D01*
X159560303Y-67483510D01*
X159953629Y-67090870D01*
X160039949Y-66882988D01*
X160124990Y-67088803D01*
X160517630Y-67482129D01*
X161030900Y-67695257D01*
X161586661Y-67695742D01*
X162100303Y-67483510D01*
X162493629Y-67090870D01*
X162579949Y-66882988D01*
X162664990Y-67088803D01*
X163057630Y-67482129D01*
X163570900Y-67695257D01*
X164126661Y-67695742D01*
X164640303Y-67483510D01*
X165033629Y-67090870D01*
X165119949Y-66882988D01*
X165204990Y-67088803D01*
X165597630Y-67482129D01*
X166110900Y-67695257D01*
X166666661Y-67695742D01*
X167180303Y-67483510D01*
X167385457Y-67278713D01*
X168129392Y-67278713D01*
X168198857Y-67520897D01*
X168722302Y-67707644D01*
X169277368Y-67679862D01*
X169661143Y-67520897D01*
X169730608Y-67278713D01*
X170669392Y-67278713D01*
X170738857Y-67520897D01*
X171262302Y-67707644D01*
X171817368Y-67679862D01*
X172201143Y-67520897D01*
X172270608Y-67278713D01*
X171470000Y-66478105D01*
X170669392Y-67278713D01*
X169730608Y-67278713D01*
X168930000Y-66478105D01*
X168129392Y-67278713D01*
X167385457Y-67278713D01*
X167573629Y-67090870D01*
X167653395Y-66898773D01*
X167707603Y-67029643D01*
X167949787Y-67099108D01*
X168750395Y-66298500D01*
X168736253Y-66284358D01*
X168915858Y-66104753D01*
X168930000Y-66118895D01*
X168944143Y-66104753D01*
X169123748Y-66284358D01*
X169109605Y-66298500D01*
X169910213Y-67099108D01*
X170152397Y-67029643D01*
X170196453Y-66906156D01*
X170247603Y-67029643D01*
X170489787Y-67099108D01*
X171290395Y-66298500D01*
X171276253Y-66284358D01*
X171455858Y-66104753D01*
X171470000Y-66118895D01*
X171484143Y-66104753D01*
X171663748Y-66284358D01*
X171649605Y-66298500D01*
X172450213Y-67099108D01*
X172692397Y-67029643D01*
X172742509Y-66889182D01*
X172824990Y-67088803D01*
X173217630Y-67482129D01*
X173730900Y-67695257D01*
X174286661Y-67695742D01*
X174800303Y-67483510D01*
X175193629Y-67090870D01*
X175406757Y-66577600D01*
X175407242Y-66021839D01*
X175378798Y-65953000D01*
X176375823Y-65953000D01*
X176482757Y-66211800D01*
X176886077Y-66615824D01*
X177413309Y-66834750D01*
X177984187Y-66835248D01*
X178511800Y-66617243D01*
X178915824Y-66213923D01*
X179134750Y-65686691D01*
X179135248Y-65115813D01*
X179008889Y-64810000D01*
X179691195Y-64810000D01*
X179565250Y-65113309D01*
X179564752Y-65684187D01*
X179782757Y-66211800D01*
X180186077Y-66615824D01*
X180713309Y-66834750D01*
X181284187Y-66835248D01*
X181811800Y-66617243D01*
X182215824Y-66213923D01*
X182434750Y-65686691D01*
X182435248Y-65115813D01*
X182308889Y-64810000D01*
X197590000Y-64810000D01*
X197590000Y-143390000D01*
X138435714Y-143390000D01*
X138611800Y-143317243D01*
X139015824Y-142913923D01*
X139234750Y-142386691D01*
X139235248Y-141815813D01*
X139017243Y-141288200D01*
X138753317Y-141023813D01*
X138959699Y-140938327D01*
X139138327Y-140759698D01*
X139235000Y-140526309D01*
X139235000Y-140130213D01*
X179933392Y-140130213D01*
X180002857Y-140372397D01*
X180526302Y-140559144D01*
X181081368Y-140531362D01*
X181465143Y-140372397D01*
X181534608Y-140130213D01*
X180734000Y-139329605D01*
X179933392Y-140130213D01*
X139235000Y-140130213D01*
X139235000Y-139885750D01*
X139076250Y-139727000D01*
X137927000Y-139727000D01*
X137927000Y-139747000D01*
X137673000Y-139747000D01*
X137673000Y-139727000D01*
X136523750Y-139727000D01*
X136365000Y-139885750D01*
X136365000Y-140526309D01*
X136461673Y-140759698D01*
X136531975Y-140830000D01*
X134697531Y-140830000D01*
X134685010Y-140799697D01*
X134292370Y-140406371D01*
X134100273Y-140326605D01*
X134231143Y-140272397D01*
X134300608Y-140030213D01*
X133500000Y-139229605D01*
X132699392Y-140030213D01*
X132768857Y-140272397D01*
X132909318Y-140322509D01*
X132709697Y-140404990D01*
X132316371Y-140797630D01*
X132103243Y-141310900D01*
X132102758Y-141866661D01*
X132314990Y-142380303D01*
X132707630Y-142773629D01*
X133220900Y-142986757D01*
X133776661Y-142987242D01*
X134290303Y-142775010D01*
X134683629Y-142382370D01*
X134697070Y-142350000D01*
X136364782Y-142350000D01*
X136364752Y-142384187D01*
X136582757Y-142911800D01*
X136986077Y-143315824D01*
X137164713Y-143390000D01*
X89010000Y-143390000D01*
X89010000Y-140600000D01*
X89590000Y-140600000D01*
X89765838Y-141483999D01*
X90266583Y-142233417D01*
X91016001Y-142734162D01*
X91900000Y-142910000D01*
X92783999Y-142734162D01*
X93533417Y-142233417D01*
X94034162Y-141483999D01*
X94210000Y-140600000D01*
X94127601Y-140185750D01*
X98190000Y-140185750D01*
X98190000Y-140901310D01*
X98286673Y-141134699D01*
X98465302Y-141313327D01*
X98698691Y-141410000D01*
X99414250Y-141410000D01*
X99573000Y-141251250D01*
X99573000Y-140027000D01*
X98348750Y-140027000D01*
X98190000Y-140185750D01*
X94127601Y-140185750D01*
X94034162Y-139716001D01*
X93533417Y-138966583D01*
X93431808Y-138898690D01*
X98190000Y-138898690D01*
X98190000Y-139614250D01*
X98348750Y-139773000D01*
X99573000Y-139773000D01*
X99573000Y-138548750D01*
X99827000Y-138548750D01*
X99827000Y-139773000D01*
X99847000Y-139773000D01*
X99847000Y-140027000D01*
X99827000Y-140027000D01*
X99827000Y-141251250D01*
X99985750Y-141410000D01*
X100701309Y-141410000D01*
X100934698Y-141313327D01*
X101113327Y-141134699D01*
X101167760Y-141003286D01*
X101343537Y-141179370D01*
X101898325Y-141409738D01*
X102499040Y-141410262D01*
X103054229Y-141180862D01*
X103479370Y-140756463D01*
X103709738Y-140201675D01*
X103710262Y-139600960D01*
X103480862Y-139045771D01*
X103277749Y-138842302D01*
X132090856Y-138842302D01*
X132118638Y-139397368D01*
X132277603Y-139781143D01*
X132519787Y-139850608D01*
X133320395Y-139050000D01*
X133679605Y-139050000D01*
X134480213Y-139850608D01*
X134722397Y-139781143D01*
X134909144Y-139257698D01*
X134881362Y-138702632D01*
X134869375Y-138673691D01*
X136365000Y-138673691D01*
X136365000Y-139314250D01*
X136523750Y-139473000D01*
X137673000Y-139473000D01*
X137673000Y-138323750D01*
X137927000Y-138323750D01*
X137927000Y-139473000D01*
X139076250Y-139473000D01*
X139235000Y-139314250D01*
X139235000Y-138942302D01*
X179324856Y-138942302D01*
X179352638Y-139497368D01*
X179511603Y-139881143D01*
X179753787Y-139950608D01*
X180554395Y-139150000D01*
X180913605Y-139150000D01*
X181714213Y-139950608D01*
X181956397Y-139881143D01*
X182143144Y-139357698D01*
X182115362Y-138802632D01*
X182083206Y-138725000D01*
X184377560Y-138725000D01*
X184377560Y-140475000D01*
X184421838Y-140710317D01*
X184560910Y-140926441D01*
X184773110Y-141071431D01*
X185025000Y-141122440D01*
X186775000Y-141122440D01*
X187010317Y-141078162D01*
X187226441Y-140939090D01*
X187371431Y-140726890D01*
X187374786Y-140710324D01*
X187543537Y-140879370D01*
X188098325Y-141109738D01*
X188699040Y-141110262D01*
X189254229Y-140880862D01*
X189635756Y-140500000D01*
X192490000Y-140500000D01*
X192665838Y-141383999D01*
X193166583Y-142133417D01*
X193916001Y-142634162D01*
X194800000Y-142810000D01*
X195683999Y-142634162D01*
X196433417Y-142133417D01*
X196934162Y-141383999D01*
X197110000Y-140500000D01*
X196934162Y-139616001D01*
X196433417Y-138866583D01*
X195683999Y-138365838D01*
X194800000Y-138190000D01*
X193916001Y-138365838D01*
X193166583Y-138866583D01*
X192665838Y-139616001D01*
X192490000Y-140500000D01*
X189635756Y-140500000D01*
X189679370Y-140456463D01*
X189909738Y-139901675D01*
X189910262Y-139300960D01*
X189680862Y-138745771D01*
X189256463Y-138320630D01*
X188701675Y-138090262D01*
X188100960Y-138089738D01*
X187545771Y-138319138D01*
X187376897Y-138487717D01*
X187239090Y-138273559D01*
X187026890Y-138128569D01*
X186775000Y-138077560D01*
X185025000Y-138077560D01*
X184789683Y-138121838D01*
X184573559Y-138260910D01*
X184428569Y-138473110D01*
X184377560Y-138725000D01*
X182083206Y-138725000D01*
X181956397Y-138418857D01*
X181714213Y-138349392D01*
X180913605Y-139150000D01*
X180554395Y-139150000D01*
X179753787Y-138349392D01*
X179511603Y-138418857D01*
X179324856Y-138942302D01*
X139235000Y-138942302D01*
X139235000Y-138673691D01*
X139138327Y-138440302D01*
X138959699Y-138261673D01*
X138726310Y-138165000D01*
X138085750Y-138165000D01*
X137927000Y-138323750D01*
X137673000Y-138323750D01*
X137514250Y-138165000D01*
X136873690Y-138165000D01*
X136640301Y-138261673D01*
X136461673Y-138440302D01*
X136365000Y-138673691D01*
X134869375Y-138673691D01*
X134722397Y-138318857D01*
X134480213Y-138249392D01*
X133679605Y-139050000D01*
X133320395Y-139050000D01*
X132519787Y-138249392D01*
X132277603Y-138318857D01*
X132090856Y-138842302D01*
X103277749Y-138842302D01*
X103056463Y-138620630D01*
X102501675Y-138390262D01*
X101900960Y-138389738D01*
X101345771Y-138619138D01*
X101167797Y-138796802D01*
X101113327Y-138665301D01*
X100934698Y-138486673D01*
X100701309Y-138390000D01*
X99985750Y-138390000D01*
X99827000Y-138548750D01*
X99573000Y-138548750D01*
X99414250Y-138390000D01*
X98698691Y-138390000D01*
X98465302Y-138486673D01*
X98286673Y-138665301D01*
X98190000Y-138898690D01*
X93431808Y-138898690D01*
X92783999Y-138465838D01*
X91900000Y-138290000D01*
X91016001Y-138465838D01*
X90266583Y-138966583D01*
X89765838Y-139716001D01*
X89590000Y-140600000D01*
X89010000Y-140600000D01*
X89010000Y-135107745D01*
X98171861Y-135107745D01*
X98245995Y-135353864D01*
X98783223Y-135546965D01*
X99353454Y-135519778D01*
X99754005Y-135353864D01*
X99828139Y-135107745D01*
X99000000Y-134279605D01*
X98171861Y-135107745D01*
X89010000Y-135107745D01*
X89010000Y-115886661D01*
X89772758Y-115886661D01*
X89984990Y-116400303D01*
X90377630Y-116793629D01*
X90585512Y-116879949D01*
X90379697Y-116964990D01*
X89986371Y-117357630D01*
X89773243Y-117870900D01*
X89772758Y-118426661D01*
X89984990Y-118940303D01*
X90377630Y-119333629D01*
X90890900Y-119546757D01*
X91440000Y-119547236D01*
X91440000Y-123777560D01*
X91325000Y-123777560D01*
X91089683Y-123821838D01*
X90873559Y-123960910D01*
X90728569Y-124173110D01*
X90677560Y-124425000D01*
X90677560Y-126175000D01*
X90721838Y-126410317D01*
X90860910Y-126626441D01*
X91073110Y-126771431D01*
X91089676Y-126774786D01*
X90920630Y-126943537D01*
X90690262Y-127498325D01*
X90689738Y-128099040D01*
X90919138Y-128654229D01*
X91314536Y-129050318D01*
X90920630Y-129443537D01*
X90690262Y-129998325D01*
X90689738Y-130599040D01*
X90919138Y-131154229D01*
X91314536Y-131550318D01*
X90920630Y-131943537D01*
X90690262Y-132498325D01*
X90689738Y-133099040D01*
X90919138Y-133654229D01*
X91343537Y-134079370D01*
X91898325Y-134309738D01*
X92499040Y-134310262D01*
X93054229Y-134080862D01*
X93479370Y-133656463D01*
X93709738Y-133101675D01*
X93709927Y-132884729D01*
X94337299Y-133512101D01*
X94583861Y-133676848D01*
X94874700Y-133734700D01*
X97606420Y-133734700D01*
X97553035Y-133883223D01*
X97580222Y-134453454D01*
X97746136Y-134854005D01*
X97992255Y-134928139D01*
X98820395Y-134100000D01*
X98806253Y-134085858D01*
X98985858Y-133906253D01*
X99000000Y-133920395D01*
X99014143Y-133906253D01*
X99193748Y-134085858D01*
X99179605Y-134100000D01*
X100007745Y-134928139D01*
X100055167Y-134913855D01*
X100096838Y-135135317D01*
X100235910Y-135351441D01*
X100448110Y-135496431D01*
X100700000Y-135547440D01*
X102300000Y-135547440D01*
X102535317Y-135503162D01*
X102751441Y-135364090D01*
X102896431Y-135151890D01*
X102947440Y-134900000D01*
X102947440Y-133300000D01*
X102903162Y-133064683D01*
X102764090Y-132848559D01*
X102551890Y-132703569D01*
X102300000Y-132652560D01*
X100700000Y-132652560D01*
X100464683Y-132696838D01*
X100381358Y-132750456D01*
X100068201Y-132437299D01*
X99821639Y-132272552D01*
X99530800Y-132214700D01*
X95189502Y-132214700D01*
X93670639Y-130695837D01*
X93709738Y-130601675D01*
X93710262Y-130000960D01*
X93503270Y-129500000D01*
X94916887Y-129500000D01*
X95026120Y-130049151D01*
X95337189Y-130514698D01*
X95802736Y-130825767D01*
X96351887Y-130935000D01*
X96408113Y-130935000D01*
X96957264Y-130825767D01*
X97422811Y-130514698D01*
X97592995Y-130260000D01*
X100600000Y-130260000D01*
X100890839Y-130202148D01*
X101137401Y-130037401D01*
X103661546Y-127513256D01*
X103713309Y-127534750D01*
X104284187Y-127535248D01*
X104811800Y-127317243D01*
X105215824Y-126913923D01*
X105434750Y-126386691D01*
X105435248Y-125815813D01*
X105217243Y-125288200D01*
X104813923Y-124884176D01*
X104286691Y-124665250D01*
X103715813Y-124664752D01*
X103188200Y-124882757D01*
X102784176Y-125286077D01*
X102565250Y-125813309D01*
X102564752Y-126384187D01*
X102587049Y-126438149D01*
X100285198Y-128740000D01*
X97592995Y-128740000D01*
X97422811Y-128485302D01*
X96957264Y-128174233D01*
X96408113Y-128065000D01*
X96351887Y-128065000D01*
X95802736Y-128174233D01*
X95337189Y-128485302D01*
X95026120Y-128950849D01*
X94916887Y-129500000D01*
X93503270Y-129500000D01*
X93480862Y-129445771D01*
X93085464Y-129049682D01*
X93479370Y-128656463D01*
X93709738Y-128101675D01*
X93709749Y-128089453D01*
X95075760Y-126723442D01*
X95337189Y-127114698D01*
X95802736Y-127425767D01*
X96351887Y-127535000D01*
X96408113Y-127535000D01*
X96957264Y-127425767D01*
X97422811Y-127114698D01*
X97733880Y-126649151D01*
X97843113Y-126100000D01*
X97733880Y-125550849D01*
X97422811Y-125085302D01*
X96997850Y-124801352D01*
X98091457Y-123707745D01*
X103171861Y-123707745D01*
X103245995Y-123953864D01*
X103783223Y-124146965D01*
X104353454Y-124119778D01*
X104754005Y-123953864D01*
X104828139Y-123707745D01*
X104000000Y-122879605D01*
X103171861Y-123707745D01*
X98091457Y-123707745D01*
X98546901Y-123252301D01*
X98711648Y-123005740D01*
X98769500Y-122714900D01*
X98769500Y-122483223D01*
X102553035Y-122483223D01*
X102580222Y-123053454D01*
X102746136Y-123454005D01*
X102992255Y-123528139D01*
X103820395Y-122700000D01*
X104179605Y-122700000D01*
X105007745Y-123528139D01*
X105253864Y-123454005D01*
X105446965Y-122916777D01*
X105419778Y-122346546D01*
X105253864Y-121945995D01*
X105007745Y-121871861D01*
X104179605Y-122700000D01*
X103820395Y-122700000D01*
X102992255Y-121871861D01*
X102746136Y-121945995D01*
X102553035Y-122483223D01*
X98769500Y-122483223D01*
X98769500Y-121692255D01*
X103171861Y-121692255D01*
X104000000Y-122520395D01*
X104828139Y-121692255D01*
X104784285Y-121546661D01*
X105432758Y-121546661D01*
X105644990Y-122060303D01*
X106037630Y-122453629D01*
X106550900Y-122666757D01*
X107106661Y-122667242D01*
X107620303Y-122455010D01*
X108013629Y-122062370D01*
X108027070Y-122030000D01*
X112604700Y-122030000D01*
X112895539Y-121972148D01*
X113142101Y-121807401D01*
X122121091Y-112828411D01*
X122135910Y-112851441D01*
X122348110Y-112996431D01*
X122600000Y-113047440D01*
X124200000Y-113047440D01*
X124435317Y-113003162D01*
X124651441Y-112864090D01*
X124662685Y-112847634D01*
X125113309Y-113034750D01*
X125684187Y-113035248D01*
X125738149Y-113012951D01*
X125987999Y-113262801D01*
X126234561Y-113427548D01*
X126525400Y-113485400D01*
X130374600Y-113485400D01*
X130665439Y-113427548D01*
X130912001Y-113262801D01*
X131161546Y-113013256D01*
X131213309Y-113034750D01*
X131784187Y-113035248D01*
X132311800Y-112817243D01*
X132715824Y-112413923D01*
X132934750Y-111886691D01*
X132935248Y-111315813D01*
X132717243Y-110788200D01*
X132313923Y-110384176D01*
X131786691Y-110165250D01*
X131215813Y-110164752D01*
X130688200Y-110382757D01*
X130419417Y-110651072D01*
X130403162Y-110564683D01*
X130264090Y-110348559D01*
X130051890Y-110203569D01*
X129800000Y-110152560D01*
X128200000Y-110152560D01*
X127964683Y-110196838D01*
X127748559Y-110335910D01*
X127603569Y-110548110D01*
X127552560Y-110800000D01*
X127552560Y-111965400D01*
X126840202Y-111965400D01*
X126813256Y-111938454D01*
X126834750Y-111886691D01*
X126835248Y-111315813D01*
X126617243Y-110788200D01*
X126213923Y-110384176D01*
X125686691Y-110165250D01*
X125115813Y-110164752D01*
X124665534Y-110350803D01*
X124664090Y-110348559D01*
X124451890Y-110203569D01*
X124200000Y-110152560D01*
X122600000Y-110152560D01*
X122364683Y-110196838D01*
X122148559Y-110335910D01*
X122003569Y-110548110D01*
X121952560Y-110800000D01*
X121952560Y-110918767D01*
X121737299Y-111062599D01*
X115280852Y-117519046D01*
X115215010Y-117359697D01*
X114822370Y-116966371D01*
X114309100Y-116753243D01*
X113753339Y-116752758D01*
X113239697Y-116964990D01*
X112846371Y-117357630D01*
X112633243Y-117870900D01*
X112632758Y-118426661D01*
X112844990Y-118940303D01*
X113237630Y-119333629D01*
X113399185Y-119400713D01*
X112289898Y-120510000D01*
X108027531Y-120510000D01*
X108015010Y-120479697D01*
X107622370Y-120086371D01*
X107109100Y-119873243D01*
X106553339Y-119872758D01*
X106039697Y-120084990D01*
X105646371Y-120477630D01*
X105433243Y-120990900D01*
X105432758Y-121546661D01*
X104784285Y-121546661D01*
X104754005Y-121446136D01*
X104216777Y-121253035D01*
X103646546Y-121280222D01*
X103245995Y-121446136D01*
X103171861Y-121692255D01*
X98769500Y-121692255D01*
X98769500Y-117832202D01*
X110875041Y-105726661D01*
X112632758Y-105726661D01*
X112844990Y-106240303D01*
X113237630Y-106633629D01*
X113750900Y-106846757D01*
X114306661Y-106847242D01*
X114820303Y-106635010D01*
X115213629Y-106242370D01*
X115426757Y-105729100D01*
X115427242Y-105173339D01*
X115215010Y-104659697D01*
X114822370Y-104266371D01*
X114309100Y-104053243D01*
X113753339Y-104052758D01*
X113239697Y-104264990D01*
X112846371Y-104657630D01*
X112633243Y-105170900D01*
X112632758Y-105726661D01*
X110875041Y-105726661D01*
X115676780Y-100924922D01*
X115722267Y-100924962D01*
X116066043Y-100782917D01*
X116329292Y-100520127D01*
X116471938Y-100176599D01*
X116472262Y-99804633D01*
X116330217Y-99460857D01*
X116067427Y-99197608D01*
X115723899Y-99054962D01*
X115351933Y-99054638D01*
X115008157Y-99196683D01*
X114744908Y-99459473D01*
X114602262Y-99803001D01*
X114602221Y-99849877D01*
X97472099Y-116979999D01*
X97407093Y-117077288D01*
X97296370Y-116966371D01*
X96783100Y-116753243D01*
X96227339Y-116752758D01*
X95713697Y-116964990D01*
X95320371Y-117357630D01*
X95306930Y-117390000D01*
X92367531Y-117390000D01*
X92355010Y-117359697D01*
X91962370Y-116966371D01*
X91754488Y-116880051D01*
X91960303Y-116795010D01*
X92353629Y-116402370D01*
X92566757Y-115889100D01*
X92567242Y-115333339D01*
X92355010Y-114819697D01*
X91962370Y-114426371D01*
X91449100Y-114213243D01*
X90893339Y-114212758D01*
X90379697Y-114424990D01*
X89986371Y-114817630D01*
X89773243Y-115330900D01*
X89772758Y-115886661D01*
X89010000Y-115886661D01*
X89010000Y-108266661D01*
X89772758Y-108266661D01*
X89984990Y-108780303D01*
X90377630Y-109173629D01*
X90890900Y-109386757D01*
X91446661Y-109387242D01*
X91960303Y-109175010D01*
X92353629Y-108782370D01*
X92367070Y-108750000D01*
X93964000Y-108750000D01*
X94254839Y-108692148D01*
X94501401Y-108527401D01*
X96194619Y-106834183D01*
X96224900Y-106846757D01*
X96780661Y-106847242D01*
X97294303Y-106635010D01*
X97687629Y-106242370D01*
X97900757Y-105729100D01*
X97901242Y-105173339D01*
X97689010Y-104659697D01*
X97296370Y-104266371D01*
X96783100Y-104053243D01*
X96227339Y-104052758D01*
X95713697Y-104264990D01*
X95320371Y-104657630D01*
X95107243Y-105170900D01*
X95106758Y-105726661D01*
X95120143Y-105759055D01*
X93649198Y-107230000D01*
X92367531Y-107230000D01*
X92355010Y-107199697D01*
X91962370Y-106806371D01*
X91770273Y-106726605D01*
X91901143Y-106672397D01*
X91970608Y-106430213D01*
X91170000Y-105629605D01*
X90369392Y-106430213D01*
X90438857Y-106672397D01*
X90579318Y-106722509D01*
X90379697Y-106804990D01*
X89986371Y-107197630D01*
X89773243Y-107710900D01*
X89772758Y-108266661D01*
X89010000Y-108266661D01*
X89010000Y-105242302D01*
X89760856Y-105242302D01*
X89788638Y-105797368D01*
X89947603Y-106181143D01*
X90189787Y-106250608D01*
X90990395Y-105450000D01*
X91349605Y-105450000D01*
X92150213Y-106250608D01*
X92392397Y-106181143D01*
X92579144Y-105657698D01*
X92551362Y-105102632D01*
X92392397Y-104718857D01*
X92150213Y-104649392D01*
X91349605Y-105450000D01*
X90990395Y-105450000D01*
X90189787Y-104649392D01*
X89947603Y-104718857D01*
X89760856Y-105242302D01*
X89010000Y-105242302D01*
X89010000Y-104469787D01*
X90369392Y-104469787D01*
X91170000Y-105270395D01*
X91970608Y-104469787D01*
X91901143Y-104227603D01*
X91377698Y-104040856D01*
X90822632Y-104068638D01*
X90438857Y-104227603D01*
X90369392Y-104469787D01*
X89010000Y-104469787D01*
X89010000Y-98490213D01*
X91659392Y-98490213D01*
X91728857Y-98732397D01*
X92252302Y-98919144D01*
X92807368Y-98891362D01*
X93191143Y-98732397D01*
X93260608Y-98490213D01*
X122139392Y-98490213D01*
X122208857Y-98732397D01*
X122732302Y-98919144D01*
X123287368Y-98891362D01*
X123671143Y-98732397D01*
X123740608Y-98490213D01*
X122940000Y-97689605D01*
X122139392Y-98490213D01*
X93260608Y-98490213D01*
X92460000Y-97689605D01*
X91659392Y-98490213D01*
X89010000Y-98490213D01*
X89010000Y-97302302D01*
X91050856Y-97302302D01*
X91078638Y-97857368D01*
X91237603Y-98241143D01*
X91479787Y-98310608D01*
X92280395Y-97510000D01*
X92639605Y-97510000D01*
X93440213Y-98310608D01*
X93682397Y-98241143D01*
X93869144Y-97717698D01*
X93848353Y-97302302D01*
X121530856Y-97302302D01*
X121558638Y-97857368D01*
X121717603Y-98241143D01*
X121959787Y-98310608D01*
X122760395Y-97510000D01*
X123119605Y-97510000D01*
X123920213Y-98310608D01*
X124162397Y-98241143D01*
X124349144Y-97717698D01*
X124321362Y-97162632D01*
X124162397Y-96778857D01*
X123920213Y-96709392D01*
X123119605Y-97510000D01*
X122760395Y-97510000D01*
X121959787Y-96709392D01*
X121717603Y-96778857D01*
X121530856Y-97302302D01*
X93848353Y-97302302D01*
X93841362Y-97162632D01*
X93682397Y-96778857D01*
X93440213Y-96709392D01*
X92639605Y-97510000D01*
X92280395Y-97510000D01*
X91479787Y-96709392D01*
X91237603Y-96778857D01*
X91050856Y-97302302D01*
X89010000Y-97302302D01*
X89010000Y-96529787D01*
X91659392Y-96529787D01*
X92460000Y-97330395D01*
X93260608Y-96529787D01*
X122139392Y-96529787D01*
X122940000Y-97330395D01*
X123740608Y-96529787D01*
X123671143Y-96287603D01*
X123147698Y-96100856D01*
X122592632Y-96128638D01*
X122208857Y-96287603D01*
X122139392Y-96529787D01*
X93260608Y-96529787D01*
X93191143Y-96287603D01*
X92667698Y-96100856D01*
X92112632Y-96128638D01*
X91728857Y-96287603D01*
X91659392Y-96529787D01*
X89010000Y-96529787D01*
X89010000Y-73325000D01*
X90977560Y-73325000D01*
X90977560Y-75075000D01*
X91021838Y-75310317D01*
X91160910Y-75526441D01*
X91373110Y-75671431D01*
X91389676Y-75674786D01*
X91220630Y-75843537D01*
X90990262Y-76398325D01*
X90989738Y-76999040D01*
X91219138Y-77554229D01*
X91614536Y-77950318D01*
X91220630Y-78343537D01*
X90990262Y-78898325D01*
X90989738Y-79499040D01*
X91219138Y-80054229D01*
X91614536Y-80450318D01*
X91220630Y-80843537D01*
X90990262Y-81398325D01*
X90989738Y-81999040D01*
X91219138Y-82554229D01*
X91643537Y-82979370D01*
X92198325Y-83209738D01*
X92799040Y-83210262D01*
X93354229Y-82980862D01*
X93779370Y-82556463D01*
X93954335Y-82135100D01*
X99140098Y-82135100D01*
X92769381Y-88505817D01*
X92739100Y-88493243D01*
X92183339Y-88492758D01*
X91669697Y-88704990D01*
X91276371Y-89097630D01*
X91063243Y-89610900D01*
X91062758Y-90166661D01*
X91274990Y-90680303D01*
X91667630Y-91073629D01*
X92180900Y-91286757D01*
X92736661Y-91287242D01*
X93250303Y-91075010D01*
X93643629Y-90682370D01*
X93856757Y-90169100D01*
X93857242Y-89613339D01*
X93843857Y-89580945D01*
X100055761Y-83369041D01*
X103008086Y-83369041D01*
X103247611Y-83875134D01*
X103662577Y-84251041D01*
X104050961Y-84411904D01*
X104273000Y-84289915D01*
X104273000Y-83147000D01*
X103129371Y-83147000D01*
X103008086Y-83369041D01*
X100055761Y-83369041D01*
X100772102Y-82652700D01*
X103016728Y-82652700D01*
X103008086Y-82670959D01*
X103129371Y-82893000D01*
X104273000Y-82893000D01*
X104273000Y-82873000D01*
X104527000Y-82873000D01*
X104527000Y-82893000D01*
X104547000Y-82893000D01*
X104547000Y-83147000D01*
X104527000Y-83147000D01*
X104527000Y-84289915D01*
X104749039Y-84411904D01*
X105137423Y-84251041D01*
X105552389Y-83875134D01*
X105734130Y-83491132D01*
X115316899Y-93073901D01*
X115563460Y-93238648D01*
X115854300Y-93296500D01*
X131527520Y-93296500D01*
X131516371Y-93307630D01*
X131303243Y-93820900D01*
X131302758Y-94376661D01*
X131514990Y-94890303D01*
X131907630Y-95283629D01*
X132420900Y-95496757D01*
X132976661Y-95497242D01*
X133490303Y-95285010D01*
X133883629Y-94892370D01*
X133999799Y-94612601D01*
X134559321Y-95172123D01*
X134523508Y-95207873D01*
X134380862Y-95551401D01*
X134380821Y-95598277D01*
X124405880Y-105573218D01*
X124386691Y-105565250D01*
X123815813Y-105564752D01*
X123288200Y-105782757D01*
X122884176Y-106186077D01*
X122850187Y-106267931D01*
X122817243Y-106188200D01*
X122413923Y-105784176D01*
X121886691Y-105565250D01*
X121315813Y-105564752D01*
X120788200Y-105782757D01*
X120384176Y-106186077D01*
X120165250Y-106713309D01*
X120164752Y-107284187D01*
X120382757Y-107811800D01*
X120786077Y-108215824D01*
X121313309Y-108434750D01*
X121884187Y-108435248D01*
X122411800Y-108217243D01*
X122815824Y-107813923D01*
X122849813Y-107732069D01*
X122882757Y-107811800D01*
X123286077Y-108215824D01*
X123813309Y-108434750D01*
X124384187Y-108435248D01*
X124911800Y-108217243D01*
X125250236Y-107879397D01*
X125586077Y-108215824D01*
X126113309Y-108434750D01*
X126684187Y-108435248D01*
X127211800Y-108217243D01*
X127615824Y-107813923D01*
X127834750Y-107286691D01*
X127835248Y-106715813D01*
X127617243Y-106188200D01*
X127213923Y-105784176D01*
X126686691Y-105565250D01*
X126563559Y-105565143D01*
X130152041Y-101976661D01*
X131302758Y-101976661D01*
X131514990Y-102490303D01*
X131907630Y-102883629D01*
X132420900Y-103096757D01*
X132976661Y-103097242D01*
X133490303Y-102885010D01*
X133883629Y-102492370D01*
X134096757Y-101979100D01*
X134097242Y-101423339D01*
X133885010Y-100909697D01*
X133492370Y-100516371D01*
X132979100Y-100303243D01*
X132423339Y-100302758D01*
X131909697Y-100514990D01*
X131516371Y-100907630D01*
X131303243Y-101420900D01*
X131302758Y-101976661D01*
X130152041Y-101976661D01*
X135455380Y-96673322D01*
X135500867Y-96673362D01*
X135844643Y-96531317D01*
X135881611Y-96494413D01*
X143310000Y-103922802D01*
X143310000Y-104219121D01*
X143079100Y-104123243D01*
X142523339Y-104122758D01*
X142009697Y-104334990D01*
X141616371Y-104727630D01*
X141530051Y-104935512D01*
X141445010Y-104729697D01*
X141052370Y-104336371D01*
X140539100Y-104123243D01*
X139983339Y-104122758D01*
X139469697Y-104334990D01*
X139076371Y-104727630D01*
X138990051Y-104935512D01*
X138905010Y-104729697D01*
X138512370Y-104336371D01*
X137999100Y-104123243D01*
X137443339Y-104122758D01*
X136929697Y-104334990D01*
X136536371Y-104727630D01*
X136323243Y-105240900D01*
X136322758Y-105796661D01*
X136534990Y-106310303D01*
X136927630Y-106703629D01*
X137440900Y-106916757D01*
X137996661Y-106917242D01*
X138029055Y-106903857D01*
X138490498Y-107365300D01*
X136585402Y-107365300D01*
X135682701Y-106462599D01*
X135436139Y-106297852D01*
X135246437Y-106260118D01*
X135062811Y-105985302D01*
X134597264Y-105674233D01*
X134048113Y-105565000D01*
X133991887Y-105565000D01*
X133442736Y-105674233D01*
X132977189Y-105985302D01*
X132666120Y-106450849D01*
X132580648Y-106880546D01*
X131937200Y-106237098D01*
X131937200Y-104452363D01*
X131969392Y-104420227D01*
X132112038Y-104076699D01*
X132112362Y-103704733D01*
X131970317Y-103360957D01*
X131707527Y-103097708D01*
X131363999Y-102955062D01*
X130992033Y-102954738D01*
X130648257Y-103096783D01*
X130385008Y-103359573D01*
X130242362Y-103703101D01*
X130242038Y-104075067D01*
X130384083Y-104418843D01*
X130417200Y-104452018D01*
X130417200Y-106551900D01*
X130475052Y-106842739D01*
X130639799Y-107089301D01*
X133871589Y-110321091D01*
X133848559Y-110335910D01*
X133703569Y-110548110D01*
X133652560Y-110800000D01*
X133652560Y-112400000D01*
X133696838Y-112635317D01*
X133835910Y-112851441D01*
X134048110Y-112996431D01*
X134300000Y-113047440D01*
X134677758Y-113047440D01*
X131638454Y-116086744D01*
X131586691Y-116065250D01*
X131015813Y-116064752D01*
X130565534Y-116250803D01*
X130564090Y-116248559D01*
X130351890Y-116103569D01*
X130100000Y-116052560D01*
X128500000Y-116052560D01*
X128264683Y-116096838D01*
X128071573Y-116221101D01*
X127896399Y-116148362D01*
X127524433Y-116148038D01*
X127180657Y-116290083D01*
X126917408Y-116552873D01*
X126774762Y-116896401D01*
X126774612Y-117069062D01*
X126617243Y-116688200D01*
X126213923Y-116284176D01*
X125686691Y-116065250D01*
X125115813Y-116064752D01*
X124665534Y-116250803D01*
X124664090Y-116248559D01*
X124451890Y-116103569D01*
X124200000Y-116052560D01*
X122600000Y-116052560D01*
X122364683Y-116096838D01*
X122148559Y-116235910D01*
X122003569Y-116448110D01*
X121952560Y-116700000D01*
X121952560Y-116818767D01*
X121737299Y-116962599D01*
X121572552Y-117209161D01*
X121514700Y-117500000D01*
X121514700Y-118210498D01*
X119839381Y-119885817D01*
X119809100Y-119873243D01*
X119253339Y-119872758D01*
X118739697Y-120084990D01*
X118346371Y-120477630D01*
X118133243Y-120990900D01*
X118132758Y-121546661D01*
X118344990Y-122060303D01*
X118737630Y-122453629D01*
X119250900Y-122666757D01*
X119806661Y-122667242D01*
X120320303Y-122455010D01*
X120713629Y-122062370D01*
X120926757Y-121549100D01*
X120927242Y-120993339D01*
X120913857Y-120960945D01*
X122812101Y-119062701D01*
X122889116Y-118947440D01*
X124200000Y-118947440D01*
X124435317Y-118903162D01*
X124651441Y-118764090D01*
X124662685Y-118747634D01*
X125113309Y-118934750D01*
X125684187Y-118935248D01*
X126211800Y-118717243D01*
X126615824Y-118313923D01*
X126834750Y-117786691D01*
X126835074Y-117415118D01*
X126916483Y-117612143D01*
X126949600Y-117645318D01*
X126949600Y-118022500D01*
X127007452Y-118313339D01*
X127172199Y-118559901D01*
X127831699Y-119219401D01*
X128078261Y-119384148D01*
X128369100Y-119442000D01*
X132792700Y-119442000D01*
X133083539Y-119384148D01*
X133330101Y-119219401D01*
X133821091Y-118728411D01*
X133835910Y-118751441D01*
X134048110Y-118896431D01*
X134300000Y-118947440D01*
X135900000Y-118947440D01*
X136135317Y-118903162D01*
X136351441Y-118764090D01*
X136362685Y-118747634D01*
X136813309Y-118934750D01*
X137384187Y-118935248D01*
X137911800Y-118717243D01*
X138315824Y-118313923D01*
X138338215Y-118260000D01*
X140294207Y-118260000D01*
X140223243Y-118430900D01*
X140222758Y-118986661D01*
X140434990Y-119500303D01*
X140827630Y-119893629D01*
X141340900Y-120106757D01*
X141896661Y-120107242D01*
X142410303Y-119895010D01*
X142803629Y-119502370D01*
X142889949Y-119294488D01*
X142974990Y-119500303D01*
X143367630Y-119893629D01*
X143880900Y-120106757D01*
X144436661Y-120107242D01*
X144950303Y-119895010D01*
X145343629Y-119502370D01*
X145429949Y-119294488D01*
X145514990Y-119500303D01*
X145907630Y-119893629D01*
X146420900Y-120106757D01*
X146976661Y-120107242D01*
X147009055Y-120093857D01*
X147952599Y-121037401D01*
X148199160Y-121202148D01*
X148490000Y-121260000D01*
X158161354Y-121260000D01*
X158182757Y-121311800D01*
X158586077Y-121715824D01*
X159113309Y-121934750D01*
X159684187Y-121935248D01*
X160211800Y-121717243D01*
X160615824Y-121313923D01*
X160834750Y-120786691D01*
X160835248Y-120215813D01*
X160617243Y-119688200D01*
X160213923Y-119284176D01*
X160132069Y-119250187D01*
X160211800Y-119217243D01*
X160615824Y-118813923D01*
X160753526Y-118482300D01*
X162133423Y-118482300D01*
X162113243Y-118530900D01*
X162112758Y-119086661D01*
X162324990Y-119600303D01*
X162717630Y-119993629D01*
X163230900Y-120206757D01*
X163578138Y-120207060D01*
X159465198Y-124320000D01*
X134800879Y-124320000D01*
X134896757Y-124089100D01*
X134897242Y-123533339D01*
X134685010Y-123019697D01*
X134292370Y-122626371D01*
X133779100Y-122413243D01*
X133223339Y-122412758D01*
X132709697Y-122624990D01*
X132316371Y-123017630D01*
X132103243Y-123530900D01*
X132102758Y-124086661D01*
X132199171Y-124320000D01*
X108420000Y-124320000D01*
X108129161Y-124377852D01*
X107882599Y-124542599D01*
X104338454Y-128086744D01*
X104286691Y-128065250D01*
X103715813Y-128064752D01*
X103188200Y-128282757D01*
X102784176Y-128686077D01*
X102565250Y-129213309D01*
X102564752Y-129784187D01*
X102782757Y-130311800D01*
X103186077Y-130715824D01*
X103713309Y-130934750D01*
X104284187Y-130935248D01*
X104811800Y-130717243D01*
X105215824Y-130313923D01*
X105434750Y-129786691D01*
X105435248Y-129215813D01*
X105412951Y-129161851D01*
X108734802Y-125840000D01*
X132199121Y-125840000D01*
X132103243Y-126070900D01*
X132102758Y-126626661D01*
X132314990Y-127140303D01*
X132707630Y-127533629D01*
X132915512Y-127619949D01*
X132709697Y-127704990D01*
X132316371Y-128097630D01*
X132103243Y-128610900D01*
X132102758Y-129166661D01*
X132314990Y-129680303D01*
X132707630Y-130073629D01*
X132915512Y-130159949D01*
X132709697Y-130244990D01*
X132316371Y-130637630D01*
X132103243Y-131150900D01*
X132102758Y-131706661D01*
X132314990Y-132220303D01*
X132707630Y-132613629D01*
X132915512Y-132699949D01*
X132709697Y-132784990D01*
X132316371Y-133177630D01*
X132103243Y-133690900D01*
X132102758Y-134246661D01*
X132314990Y-134760303D01*
X132707630Y-135153629D01*
X132915512Y-135239949D01*
X132709697Y-135324990D01*
X132316371Y-135717630D01*
X132103243Y-136230900D01*
X132102758Y-136786661D01*
X132314990Y-137300303D01*
X132707630Y-137693629D01*
X132899727Y-137773395D01*
X132768857Y-137827603D01*
X132699392Y-138069787D01*
X133500000Y-138870395D01*
X134300608Y-138069787D01*
X134231143Y-137827603D01*
X134090682Y-137777491D01*
X134290303Y-137695010D01*
X134642427Y-137343500D01*
X141331200Y-137343500D01*
X141622039Y-137285648D01*
X141868601Y-137120901D01*
X142568223Y-136421279D01*
X142577189Y-136434698D01*
X143042736Y-136745767D01*
X143591887Y-136855000D01*
X143648113Y-136855000D01*
X144197264Y-136745767D01*
X144662811Y-136434698D01*
X144973880Y-135969151D01*
X145083113Y-135420000D01*
X144973880Y-134870849D01*
X144662811Y-134405302D01*
X144280725Y-134150000D01*
X144662811Y-133894698D01*
X144973880Y-133429151D01*
X145083113Y-132880000D01*
X144973880Y-132330849D01*
X144662811Y-131865302D01*
X144258297Y-131595014D01*
X144475134Y-131492389D01*
X144851041Y-131077423D01*
X145011904Y-130689039D01*
X144889915Y-130467000D01*
X143747000Y-130467000D01*
X143747000Y-130487000D01*
X143493000Y-130487000D01*
X143493000Y-130467000D01*
X142350085Y-130467000D01*
X142228096Y-130689039D01*
X142388959Y-131077423D01*
X142764866Y-131492389D01*
X142981703Y-131595014D01*
X142577189Y-131865302D01*
X142393563Y-132140118D01*
X142203861Y-132177852D01*
X141957299Y-132342599D01*
X141054598Y-133245300D01*
X137385169Y-133245300D01*
X137391904Y-133229039D01*
X137269915Y-133007000D01*
X136127000Y-133007000D01*
X136127000Y-133027000D01*
X135873000Y-133027000D01*
X135873000Y-133007000D01*
X134730085Y-133007000D01*
X134652885Y-133147516D01*
X134292370Y-132786371D01*
X134084488Y-132700051D01*
X134290303Y-132615010D01*
X134683629Y-132222370D01*
X134896757Y-131709100D01*
X134897185Y-131218972D01*
X135144866Y-131492389D01*
X135393367Y-131610000D01*
X135144866Y-131727611D01*
X134768959Y-132142577D01*
X134608096Y-132530961D01*
X134730085Y-132753000D01*
X135873000Y-132753000D01*
X135873000Y-130467000D01*
X136127000Y-130467000D01*
X136127000Y-132753000D01*
X137269915Y-132753000D01*
X137391904Y-132530961D01*
X137231041Y-132142577D01*
X136855134Y-131727611D01*
X136606633Y-131610000D01*
X136855134Y-131492389D01*
X137231041Y-131077423D01*
X137391904Y-130689039D01*
X137269915Y-130467000D01*
X136127000Y-130467000D01*
X135873000Y-130467000D01*
X134730085Y-130467000D01*
X134652885Y-130607516D01*
X134292370Y-130246371D01*
X134084488Y-130160051D01*
X134290303Y-130075010D01*
X134683629Y-129682370D01*
X134896757Y-129169100D01*
X134896763Y-129161714D01*
X135073691Y-129235000D01*
X135101938Y-129235000D01*
X134768959Y-129602577D01*
X134608096Y-129990961D01*
X134730085Y-130213000D01*
X135873000Y-130213000D01*
X135873000Y-127927000D01*
X136127000Y-127927000D01*
X136127000Y-130213000D01*
X137269915Y-130213000D01*
X137391904Y-129990961D01*
X137231041Y-129602577D01*
X136898062Y-129235000D01*
X136926309Y-129235000D01*
X137159698Y-129138327D01*
X137338327Y-128959699D01*
X137435000Y-128726310D01*
X137435000Y-128085750D01*
X137276250Y-127927000D01*
X136127000Y-127927000D01*
X135873000Y-127927000D01*
X134723750Y-127927000D01*
X134618090Y-128032660D01*
X134292370Y-127706371D01*
X134084488Y-127620051D01*
X134290303Y-127535010D01*
X134565000Y-127260792D01*
X134565000Y-127514250D01*
X134723750Y-127673000D01*
X135873000Y-127673000D01*
X135873000Y-126523750D01*
X136127000Y-126523750D01*
X136127000Y-127673000D01*
X137276250Y-127673000D01*
X137435000Y-127514250D01*
X137435000Y-126873690D01*
X137338327Y-126640301D01*
X137159698Y-126461673D01*
X136926309Y-126365000D01*
X136285750Y-126365000D01*
X136127000Y-126523750D01*
X135873000Y-126523750D01*
X135714250Y-126365000D01*
X135073691Y-126365000D01*
X134896924Y-126438220D01*
X134897242Y-126073339D01*
X134800829Y-125840000D01*
X159780000Y-125840000D01*
X160070839Y-125782148D01*
X160317401Y-125617401D01*
X165740619Y-120194183D01*
X165770900Y-120206757D01*
X166326661Y-120207242D01*
X166359055Y-120193857D01*
X167111999Y-120946801D01*
X167358560Y-121111548D01*
X167649400Y-121169400D01*
X179690600Y-121169400D01*
X179981439Y-121111548D01*
X180228001Y-120946801D01*
X180980619Y-120194183D01*
X181010900Y-120206757D01*
X181566661Y-120207242D01*
X182080303Y-119995010D01*
X182473629Y-119602370D01*
X182686757Y-119089100D01*
X182687242Y-118533339D01*
X182475010Y-118019697D01*
X182082370Y-117626371D01*
X181569100Y-117413243D01*
X181013339Y-117412758D01*
X180499697Y-117624990D01*
X180106371Y-118017630D01*
X180026605Y-118209727D01*
X179972397Y-118078857D01*
X179730213Y-118009392D01*
X178929605Y-118810000D01*
X178943748Y-118824143D01*
X178764143Y-119003748D01*
X178750000Y-118989605D01*
X178735858Y-119003748D01*
X178556253Y-118824143D01*
X178570395Y-118810000D01*
X178556253Y-118795858D01*
X178735858Y-118616253D01*
X178750000Y-118630395D01*
X179550608Y-117829787D01*
X179485413Y-117602489D01*
X181427902Y-115660000D01*
X184469008Y-115660000D01*
X184741246Y-116067433D01*
X184894748Y-116170000D01*
X184741246Y-116272567D01*
X184383354Y-116808190D01*
X184257679Y-117440000D01*
X184383354Y-118071810D01*
X184741246Y-118607433D01*
X185276869Y-118965325D01*
X185440000Y-118997774D01*
X185440000Y-121852560D01*
X185400000Y-121852560D01*
X185164683Y-121896838D01*
X184948559Y-122035910D01*
X184803569Y-122248110D01*
X184752560Y-122500000D01*
X184752560Y-124100000D01*
X184796838Y-124335317D01*
X184850456Y-124418642D01*
X184537299Y-124731799D01*
X184372552Y-124978361D01*
X184314700Y-125269200D01*
X184314700Y-125882698D01*
X181942018Y-128255380D01*
X181919010Y-128199697D01*
X181526370Y-127806371D01*
X181318488Y-127720051D01*
X181524303Y-127635010D01*
X181917629Y-127242370D01*
X182130757Y-126729100D01*
X182131242Y-126173339D01*
X181919010Y-125659697D01*
X181526370Y-125266371D01*
X181013100Y-125053243D01*
X180457339Y-125052758D01*
X179943697Y-125264990D01*
X179550371Y-125657630D01*
X179337243Y-126170900D01*
X179336758Y-126726661D01*
X179548990Y-127240303D01*
X179941630Y-127633629D01*
X180149512Y-127719949D01*
X179943697Y-127804990D01*
X179550371Y-128197630D01*
X179337243Y-128710900D01*
X179336758Y-129266661D01*
X179548990Y-129780303D01*
X179684174Y-129915724D01*
X179331798Y-130268100D01*
X148288202Y-130268100D01*
X145282701Y-127262599D01*
X145036139Y-127097852D01*
X144846437Y-127060118D01*
X144662811Y-126785302D01*
X144197264Y-126474233D01*
X143648113Y-126365000D01*
X143591887Y-126365000D01*
X143042736Y-126474233D01*
X142577189Y-126785302D01*
X142266120Y-127250849D01*
X142156887Y-127800000D01*
X142266120Y-128349151D01*
X142577189Y-128814698D01*
X142981703Y-129084986D01*
X142764866Y-129187611D01*
X142388959Y-129602577D01*
X142228096Y-129990961D01*
X142350085Y-130213000D01*
X143493000Y-130213000D01*
X143493000Y-130193000D01*
X143747000Y-130193000D01*
X143747000Y-130213000D01*
X144889915Y-130213000D01*
X145011904Y-129990961D01*
X144851041Y-129602577D01*
X144475134Y-129187611D01*
X144258297Y-129084986D01*
X144662811Y-128814698D01*
X144671777Y-128801279D01*
X147435999Y-131565501D01*
X147682561Y-131730248D01*
X147973400Y-131788100D01*
X178886600Y-131788100D01*
X178886600Y-135522600D01*
X178944452Y-135813439D01*
X179109199Y-136060001D01*
X179349817Y-136300619D01*
X179337243Y-136330900D01*
X179336758Y-136886661D01*
X179548990Y-137400303D01*
X179941630Y-137793629D01*
X180133727Y-137873395D01*
X180002857Y-137927603D01*
X179933392Y-138169787D01*
X180734000Y-138970395D01*
X181534608Y-138169787D01*
X181465143Y-137927603D01*
X181324682Y-137877491D01*
X181524303Y-137795010D01*
X181917629Y-137402370D01*
X182130757Y-136889100D01*
X182131242Y-136333339D01*
X181919010Y-135819697D01*
X181526370Y-135426371D01*
X181318488Y-135340051D01*
X181524303Y-135255010D01*
X181917629Y-134862370D01*
X182130757Y-134349100D01*
X182131242Y-133793339D01*
X181919010Y-133279697D01*
X181526370Y-132886371D01*
X181318488Y-132800051D01*
X181524303Y-132715010D01*
X181917629Y-132322370D01*
X182130757Y-131809100D01*
X182131242Y-131253339D01*
X181919010Y-130739697D01*
X181763294Y-130583708D01*
X185410611Y-126936391D01*
X185445995Y-127053864D01*
X185809448Y-127184503D01*
X185711608Y-127282173D01*
X185568962Y-127625701D01*
X185568638Y-127997667D01*
X185710683Y-128341443D01*
X185973473Y-128604692D01*
X186317001Y-128747338D01*
X186688967Y-128747662D01*
X187032743Y-128605617D01*
X187065918Y-128572500D01*
X187097398Y-128572500D01*
X192362299Y-133837401D01*
X192577560Y-133981233D01*
X192577560Y-134175000D01*
X192621838Y-134410317D01*
X192760910Y-134626441D01*
X192973110Y-134771431D01*
X193225000Y-134822440D01*
X194975000Y-134822440D01*
X195210317Y-134778162D01*
X195426441Y-134639090D01*
X195571431Y-134426890D01*
X195622440Y-134175000D01*
X195622440Y-132425000D01*
X195578162Y-132189683D01*
X195439090Y-131973559D01*
X195226890Y-131828569D01*
X195210324Y-131825214D01*
X195379370Y-131656463D01*
X195609738Y-131101675D01*
X195610262Y-130500960D01*
X195380862Y-129945771D01*
X194956463Y-129520630D01*
X194401675Y-129290262D01*
X193800960Y-129289738D01*
X193245771Y-129519138D01*
X192820630Y-129943537D01*
X192590262Y-130498325D01*
X192589738Y-131099040D01*
X192819138Y-131654229D01*
X192987717Y-131823103D01*
X192773559Y-131960910D01*
X192717483Y-132042981D01*
X187949601Y-127275099D01*
X187703039Y-127110352D01*
X187412200Y-127052500D01*
X187066263Y-127052500D01*
X187034127Y-127020308D01*
X186971896Y-126994467D01*
X187028139Y-126807745D01*
X186200000Y-125979605D01*
X186185858Y-125993748D01*
X186006253Y-125814143D01*
X186020395Y-125800000D01*
X186379605Y-125800000D01*
X187207745Y-126628139D01*
X187453864Y-126554005D01*
X187646965Y-126016777D01*
X187619778Y-125446546D01*
X187453864Y-125045995D01*
X187207745Y-124971861D01*
X186379605Y-125800000D01*
X186020395Y-125800000D01*
X186006253Y-125785858D01*
X186185858Y-125606252D01*
X186200000Y-125620395D01*
X187028139Y-124792255D01*
X187013855Y-124744833D01*
X187235317Y-124703162D01*
X187451441Y-124564090D01*
X187596431Y-124351890D01*
X187647440Y-124100000D01*
X187647440Y-123225000D01*
X192577560Y-123225000D01*
X192577560Y-124975000D01*
X192621838Y-125210317D01*
X192760910Y-125426441D01*
X192973110Y-125571431D01*
X193225000Y-125622440D01*
X194975000Y-125622440D01*
X195210317Y-125578162D01*
X195426441Y-125439090D01*
X195571431Y-125226890D01*
X195622440Y-124975000D01*
X195622440Y-123225000D01*
X195578162Y-122989683D01*
X195439090Y-122773559D01*
X195226890Y-122628569D01*
X195210324Y-122625214D01*
X195379370Y-122456463D01*
X195609738Y-121901675D01*
X195610262Y-121300960D01*
X195380862Y-120745771D01*
X194956463Y-120320630D01*
X194933531Y-120311108D01*
X194982455Y-120162060D01*
X194100000Y-119279605D01*
X193217545Y-120162060D01*
X193266318Y-120310648D01*
X193245771Y-120319138D01*
X192820630Y-120743537D01*
X192590262Y-121298325D01*
X192589738Y-121899040D01*
X192819138Y-122454229D01*
X192987717Y-122623103D01*
X192773559Y-122760910D01*
X192628569Y-122973110D01*
X192577560Y-123225000D01*
X187647440Y-123225000D01*
X187647440Y-122500000D01*
X187603162Y-122264683D01*
X187464090Y-122048559D01*
X187251890Y-121903569D01*
X187000000Y-121852560D01*
X186960000Y-121852560D01*
X186960000Y-118997774D01*
X187123131Y-118965325D01*
X187272819Y-118865306D01*
X192578410Y-118865306D01*
X192604421Y-119465458D01*
X192784047Y-119899116D01*
X193037940Y-119982455D01*
X193920395Y-119100000D01*
X194279605Y-119100000D01*
X195162060Y-119982455D01*
X195415953Y-119899116D01*
X195621590Y-119334694D01*
X195595579Y-118734542D01*
X195415953Y-118300884D01*
X195162060Y-118217545D01*
X194279605Y-119100000D01*
X193920395Y-119100000D01*
X193037940Y-118217545D01*
X192784047Y-118300884D01*
X192578410Y-118865306D01*
X187272819Y-118865306D01*
X187658754Y-118607433D01*
X188016646Y-118071810D01*
X188142321Y-117440000D01*
X188034718Y-116899040D01*
X192589738Y-116899040D01*
X192819138Y-117454229D01*
X193243537Y-117879370D01*
X193266469Y-117888892D01*
X193217545Y-118037940D01*
X194100000Y-118920395D01*
X194982455Y-118037940D01*
X194933682Y-117889352D01*
X194954229Y-117880862D01*
X195379370Y-117456463D01*
X195609738Y-116901675D01*
X195610262Y-116300960D01*
X195380862Y-115745771D01*
X194956463Y-115320630D01*
X194401675Y-115090262D01*
X193800960Y-115089738D01*
X193245771Y-115319138D01*
X192820630Y-115743537D01*
X192590262Y-116298325D01*
X192589738Y-116899040D01*
X188034718Y-116899040D01*
X188016646Y-116808190D01*
X187658754Y-116272567D01*
X187505252Y-116170000D01*
X187658754Y-116067433D01*
X188016646Y-115531810D01*
X188142321Y-114900000D01*
X188016646Y-114268190D01*
X187658754Y-113732567D01*
X187505252Y-113630000D01*
X187658754Y-113527433D01*
X188016646Y-112991810D01*
X188142321Y-112360000D01*
X188016646Y-111728190D01*
X187658754Y-111192567D01*
X187123131Y-110834675D01*
X186491321Y-110709000D01*
X185908679Y-110709000D01*
X185276869Y-110834675D01*
X184741246Y-111192567D01*
X184383354Y-111728190D01*
X184257679Y-112360000D01*
X184383354Y-112991810D01*
X184741246Y-113527433D01*
X184894748Y-113630000D01*
X184741246Y-113732567D01*
X184469008Y-114140000D01*
X181113100Y-114140000D01*
X180822260Y-114197852D01*
X180575699Y-114362599D01*
X177157013Y-117781285D01*
X177002370Y-117626371D01*
X176489100Y-117413243D01*
X175933339Y-117412758D01*
X175900945Y-117426143D01*
X174390001Y-115915199D01*
X174143439Y-115750452D01*
X173852600Y-115692600D01*
X164367402Y-115692600D01*
X160813256Y-112138454D01*
X160834750Y-112086691D01*
X160835248Y-111515813D01*
X160617243Y-110988200D01*
X160213923Y-110584176D01*
X160132069Y-110550187D01*
X160211800Y-110517243D01*
X160615824Y-110113923D01*
X160834750Y-109586691D01*
X160835248Y-109015813D01*
X160617243Y-108488200D01*
X160420686Y-108291300D01*
X165196400Y-108291300D01*
X165368040Y-108257158D01*
X163819381Y-109805817D01*
X163789100Y-109793243D01*
X163233339Y-109792758D01*
X162719697Y-110004990D01*
X162326371Y-110397630D01*
X162113243Y-110910900D01*
X162112758Y-111466661D01*
X162324990Y-111980303D01*
X162717630Y-112373629D01*
X163230900Y-112586757D01*
X163786661Y-112587242D01*
X164300303Y-112375010D01*
X164693629Y-111982370D01*
X164779949Y-111774488D01*
X164864990Y-111980303D01*
X165257630Y-112373629D01*
X165770900Y-112586757D01*
X166326661Y-112587242D01*
X166840303Y-112375010D01*
X167045457Y-112170213D01*
X167789392Y-112170213D01*
X167858857Y-112412397D01*
X168382302Y-112599144D01*
X168937368Y-112571362D01*
X169321143Y-112412397D01*
X169390608Y-112170213D01*
X168590000Y-111369605D01*
X167789392Y-112170213D01*
X167045457Y-112170213D01*
X167233629Y-111982370D01*
X167313395Y-111790273D01*
X167367603Y-111921143D01*
X167609787Y-111990608D01*
X168410395Y-111190000D01*
X167609787Y-110389392D01*
X167367603Y-110458857D01*
X167317491Y-110599318D01*
X167235010Y-110399697D01*
X167045432Y-110209787D01*
X167789392Y-110209787D01*
X168590000Y-111010395D01*
X169390608Y-110209787D01*
X169321143Y-109967603D01*
X168797698Y-109780856D01*
X168242632Y-109808638D01*
X167858857Y-109967603D01*
X167789392Y-110209787D01*
X167045432Y-110209787D01*
X166842370Y-110006371D01*
X166329100Y-109793243D01*
X165981862Y-109792940D01*
X167587802Y-108187000D01*
X177163300Y-108187000D01*
X177454139Y-108129148D01*
X177700701Y-107964401D01*
X180957357Y-104707745D01*
X181771861Y-104707745D01*
X181845995Y-104953864D01*
X182383223Y-105146965D01*
X182953454Y-105119778D01*
X183354005Y-104953864D01*
X183428139Y-104707745D01*
X182600000Y-103879605D01*
X181771861Y-104707745D01*
X180957357Y-104707745D01*
X181306584Y-104358518D01*
X181346136Y-104454005D01*
X181592255Y-104528139D01*
X182420395Y-103700000D01*
X182406252Y-103685858D01*
X182585858Y-103506252D01*
X182600000Y-103520395D01*
X182614142Y-103506252D01*
X182793748Y-103685858D01*
X182779605Y-103700000D01*
X183607745Y-104528139D01*
X183853864Y-104454005D01*
X184046965Y-103916777D01*
X184019778Y-103346546D01*
X183853864Y-102945995D01*
X183607747Y-102871861D01*
X183659708Y-102819900D01*
X190849298Y-102819900D01*
X182687182Y-110982016D01*
X182687242Y-110913339D01*
X182475010Y-110399697D01*
X182082370Y-110006371D01*
X181569100Y-109793243D01*
X181013339Y-109792758D01*
X180499697Y-110004990D01*
X180106371Y-110397630D01*
X180026605Y-110589727D01*
X179972397Y-110458857D01*
X179730213Y-110389392D01*
X178929605Y-111190000D01*
X178943748Y-111204143D01*
X178764143Y-111383748D01*
X178750000Y-111369605D01*
X178735858Y-111383748D01*
X178556253Y-111204143D01*
X178570395Y-111190000D01*
X177769787Y-110389392D01*
X177527603Y-110458857D01*
X177477491Y-110599318D01*
X177395010Y-110399697D01*
X177205432Y-110209787D01*
X177949392Y-110209787D01*
X178750000Y-111010395D01*
X179550608Y-110209787D01*
X179481143Y-109967603D01*
X178957698Y-109780856D01*
X178402632Y-109808638D01*
X178018857Y-109967603D01*
X177949392Y-110209787D01*
X177205432Y-110209787D01*
X177002370Y-110006371D01*
X176489100Y-109793243D01*
X175933339Y-109792758D01*
X175419697Y-110004990D01*
X175026371Y-110397630D01*
X174940051Y-110605512D01*
X174855010Y-110399697D01*
X174462370Y-110006371D01*
X173949100Y-109793243D01*
X173393339Y-109792758D01*
X172879697Y-110004990D01*
X172486371Y-110397630D01*
X172400051Y-110605512D01*
X172315010Y-110399697D01*
X171922370Y-110006371D01*
X171409100Y-109793243D01*
X170853339Y-109792758D01*
X170339697Y-110004990D01*
X169946371Y-110397630D01*
X169866605Y-110589727D01*
X169812397Y-110458857D01*
X169570213Y-110389392D01*
X168769605Y-111190000D01*
X169570213Y-111990608D01*
X169812397Y-111921143D01*
X169862509Y-111780682D01*
X169944990Y-111980303D01*
X170337630Y-112373629D01*
X170850900Y-112586757D01*
X171406661Y-112587242D01*
X171439055Y-112573857D01*
X171695699Y-112830501D01*
X171942261Y-112995248D01*
X172233100Y-113053100D01*
X182450900Y-113053100D01*
X182741739Y-112995248D01*
X182988301Y-112830501D01*
X185533052Y-110285750D01*
X192590000Y-110285750D01*
X192590000Y-111001309D01*
X192686673Y-111234698D01*
X192865301Y-111413327D01*
X193098690Y-111510000D01*
X193814250Y-111510000D01*
X193973000Y-111351250D01*
X193973000Y-110127000D01*
X194227000Y-110127000D01*
X194227000Y-111351250D01*
X194385750Y-111510000D01*
X195101310Y-111510000D01*
X195334699Y-111413327D01*
X195513327Y-111234698D01*
X195610000Y-111001309D01*
X195610000Y-110285750D01*
X195451250Y-110127000D01*
X194227000Y-110127000D01*
X193973000Y-110127000D01*
X192748750Y-110127000D01*
X192590000Y-110285750D01*
X185533052Y-110285750D01*
X188019762Y-107799040D01*
X192589738Y-107799040D01*
X192819138Y-108354229D01*
X192996802Y-108532203D01*
X192865301Y-108586673D01*
X192686673Y-108765302D01*
X192590000Y-108998691D01*
X192590000Y-109714250D01*
X192748750Y-109873000D01*
X193973000Y-109873000D01*
X193973000Y-109853000D01*
X194227000Y-109853000D01*
X194227000Y-109873000D01*
X195451250Y-109873000D01*
X195610000Y-109714250D01*
X195610000Y-108998691D01*
X195513327Y-108765302D01*
X195334699Y-108586673D01*
X195203286Y-108532240D01*
X195379370Y-108356463D01*
X195609738Y-107801675D01*
X195610262Y-107200960D01*
X195380862Y-106645771D01*
X194956463Y-106220630D01*
X194401675Y-105990262D01*
X193800960Y-105989738D01*
X193245771Y-106219138D01*
X192820630Y-106643537D01*
X192590262Y-107198325D01*
X192589738Y-107799040D01*
X188019762Y-107799040D01*
X191874302Y-103944500D01*
X194570000Y-103944500D01*
X194860839Y-103886648D01*
X195107401Y-103721901D01*
X196824501Y-102004801D01*
X196989248Y-101758239D01*
X197047100Y-101467400D01*
X197047100Y-80787400D01*
X196989248Y-80496561D01*
X196989248Y-80496560D01*
X196824501Y-80249999D01*
X195357776Y-78783274D01*
X195426441Y-78739090D01*
X195571431Y-78526890D01*
X195622440Y-78275000D01*
X195622440Y-76525000D01*
X195578162Y-76289683D01*
X195439090Y-76073559D01*
X195226890Y-75928569D01*
X195210324Y-75925214D01*
X195379370Y-75756463D01*
X195609738Y-75201675D01*
X195610262Y-74600960D01*
X195380862Y-74045771D01*
X194956463Y-73620630D01*
X194401675Y-73390262D01*
X193800960Y-73389738D01*
X193245771Y-73619138D01*
X192820630Y-74043537D01*
X192590262Y-74598325D01*
X192589738Y-75199040D01*
X192629625Y-75295573D01*
X192362199Y-75562999D01*
X192197452Y-75809561D01*
X192139600Y-76100400D01*
X192139600Y-80223900D01*
X192197452Y-80514739D01*
X192362199Y-80761301D01*
X194190976Y-82590078D01*
X193800960Y-82589738D01*
X193245771Y-82819138D01*
X192820630Y-83243537D01*
X192590262Y-83798325D01*
X192589738Y-84399040D01*
X192819138Y-84954229D01*
X193214536Y-85350318D01*
X192820630Y-85743537D01*
X192590262Y-86298325D01*
X192589738Y-86899040D01*
X192819138Y-87454229D01*
X193243537Y-87879370D01*
X193266469Y-87888892D01*
X193217545Y-88037940D01*
X194100000Y-88920395D01*
X194114143Y-88906253D01*
X194293748Y-89085858D01*
X194279605Y-89100000D01*
X194293748Y-89114143D01*
X194114143Y-89293748D01*
X194100000Y-89279605D01*
X194085858Y-89293748D01*
X193906253Y-89114143D01*
X193920395Y-89100000D01*
X193037940Y-88217545D01*
X192784047Y-88300884D01*
X192578410Y-88865306D01*
X192604421Y-89465458D01*
X192784047Y-89899116D01*
X193037938Y-89982454D01*
X192923306Y-90097086D01*
X192964356Y-90138136D01*
X192773559Y-90260910D01*
X192628569Y-90473110D01*
X192577560Y-90725000D01*
X192577560Y-90840000D01*
X174560117Y-90840000D01*
X174676757Y-90559100D01*
X174677242Y-90003339D01*
X174465010Y-89489697D01*
X174072370Y-89096371D01*
X173559100Y-88883243D01*
X173003339Y-88882758D01*
X172489697Y-89094990D01*
X172096371Y-89487630D01*
X172010051Y-89695512D01*
X171925010Y-89489697D01*
X171532370Y-89096371D01*
X171019100Y-88883243D01*
X170463339Y-88882758D01*
X169949697Y-89094990D01*
X169556371Y-89487630D01*
X169470051Y-89695512D01*
X169385010Y-89489697D01*
X168992370Y-89096371D01*
X168479100Y-88883243D01*
X167923339Y-88882758D01*
X167409697Y-89094990D01*
X167016371Y-89487630D01*
X166936605Y-89679727D01*
X166882397Y-89548857D01*
X166640213Y-89479392D01*
X165839605Y-90280000D01*
X165853748Y-90294143D01*
X165674143Y-90473748D01*
X165660000Y-90459605D01*
X165645858Y-90473748D01*
X165466253Y-90294143D01*
X165480395Y-90280000D01*
X164679787Y-89479392D01*
X164437603Y-89548857D01*
X164387491Y-89689318D01*
X164305010Y-89489697D01*
X164115432Y-89299787D01*
X164859392Y-89299787D01*
X165660000Y-90100395D01*
X166460608Y-89299787D01*
X166391143Y-89057603D01*
X165867698Y-88870856D01*
X165312632Y-88898638D01*
X164928857Y-89057603D01*
X164859392Y-89299787D01*
X164115432Y-89299787D01*
X163912370Y-89096371D01*
X163399100Y-88883243D01*
X162843339Y-88882758D01*
X162329697Y-89094990D01*
X161936371Y-89487630D01*
X161850051Y-89695512D01*
X161765010Y-89489697D01*
X161372370Y-89096371D01*
X160859100Y-88883243D01*
X160303339Y-88882758D01*
X159789697Y-89094990D01*
X159396371Y-89487630D01*
X159310051Y-89695512D01*
X159225010Y-89489697D01*
X158832370Y-89096371D01*
X158319100Y-88883243D01*
X157763339Y-88882758D01*
X157249697Y-89094990D01*
X156856371Y-89487630D01*
X156770051Y-89695512D01*
X156685010Y-89489697D01*
X156292370Y-89096371D01*
X155779100Y-88883243D01*
X155223339Y-88882758D01*
X154709697Y-89094990D01*
X154316371Y-89487630D01*
X154230051Y-89695512D01*
X154145010Y-89489697D01*
X153752370Y-89096371D01*
X153239100Y-88883243D01*
X152683339Y-88882758D01*
X152169697Y-89094990D01*
X151776371Y-89487630D01*
X151690051Y-89695512D01*
X151605010Y-89489697D01*
X151212370Y-89096371D01*
X150699100Y-88883243D01*
X150143339Y-88882758D01*
X149629697Y-89094990D01*
X149236371Y-89487630D01*
X149150051Y-89695512D01*
X149065010Y-89489697D01*
X148672370Y-89096371D01*
X148159100Y-88883243D01*
X147603339Y-88882758D01*
X147089697Y-89094990D01*
X146696371Y-89487630D01*
X146610051Y-89695512D01*
X146525010Y-89489697D01*
X146132370Y-89096371D01*
X145619100Y-88883243D01*
X145271862Y-88882940D01*
X146448702Y-87706100D01*
X148711600Y-87706100D01*
X149002439Y-87648248D01*
X149074647Y-87600000D01*
X176952560Y-87600000D01*
X176952560Y-89200000D01*
X176996838Y-89435317D01*
X177135910Y-89651441D01*
X177348110Y-89796431D01*
X177600000Y-89847440D01*
X179200000Y-89847440D01*
X179435317Y-89803162D01*
X179651441Y-89664090D01*
X179677074Y-89626576D01*
X180138699Y-90088201D01*
X180385261Y-90252948D01*
X180676100Y-90310800D01*
X183623900Y-90310800D01*
X183914739Y-90252948D01*
X184161301Y-90088201D01*
X185121091Y-89128411D01*
X185135910Y-89151441D01*
X185348110Y-89296431D01*
X185600000Y-89347440D01*
X187200000Y-89347440D01*
X187435317Y-89303162D01*
X187651441Y-89164090D01*
X187796431Y-88951890D01*
X187805370Y-88907745D01*
X188071861Y-88907745D01*
X188145995Y-89153864D01*
X188683223Y-89346965D01*
X189253454Y-89319778D01*
X189654005Y-89153864D01*
X189728139Y-88907745D01*
X188900000Y-88079605D01*
X188071861Y-88907745D01*
X187805370Y-88907745D01*
X187844646Y-88713799D01*
X187892255Y-88728139D01*
X188720395Y-87900000D01*
X189079605Y-87900000D01*
X189907745Y-88728139D01*
X190153864Y-88654005D01*
X190346965Y-88116777D01*
X190319778Y-87546546D01*
X190153864Y-87145995D01*
X189907745Y-87071861D01*
X189079605Y-87900000D01*
X188720395Y-87900000D01*
X187892255Y-87071861D01*
X187844833Y-87086145D01*
X187808351Y-86892255D01*
X188071861Y-86892255D01*
X188900000Y-87720395D01*
X189728139Y-86892255D01*
X189654005Y-86646136D01*
X189116777Y-86453035D01*
X188546546Y-86480222D01*
X188145995Y-86646136D01*
X188071861Y-86892255D01*
X187808351Y-86892255D01*
X187803162Y-86864683D01*
X187664090Y-86648559D01*
X187451890Y-86503569D01*
X187200000Y-86452560D01*
X185600000Y-86452560D01*
X185364683Y-86496838D01*
X185148559Y-86635910D01*
X185003569Y-86848110D01*
X184952560Y-87100000D01*
X184952560Y-87218767D01*
X184737299Y-87362599D01*
X183639509Y-88460389D01*
X183619778Y-88046546D01*
X183453864Y-87645995D01*
X183207745Y-87571861D01*
X182379605Y-88400000D01*
X182393748Y-88414143D01*
X182214143Y-88593748D01*
X182200000Y-88579605D01*
X182185858Y-88593748D01*
X182006253Y-88414143D01*
X182020395Y-88400000D01*
X181192255Y-87571861D01*
X180946136Y-87645995D01*
X180753035Y-88183223D01*
X180771544Y-88571442D01*
X180062701Y-87862599D01*
X179847440Y-87718767D01*
X179847440Y-87600000D01*
X179808351Y-87392255D01*
X181371861Y-87392255D01*
X182200000Y-88220395D01*
X183028139Y-87392255D01*
X182954005Y-87146136D01*
X182416777Y-86953035D01*
X181846546Y-86980222D01*
X181445995Y-87146136D01*
X181371861Y-87392255D01*
X179808351Y-87392255D01*
X179803162Y-87364683D01*
X179664090Y-87148559D01*
X179451890Y-87003569D01*
X179200000Y-86952560D01*
X177600000Y-86952560D01*
X177364683Y-86996838D01*
X177148559Y-87135910D01*
X177003569Y-87348110D01*
X176952560Y-87600000D01*
X149074647Y-87600000D01*
X149249001Y-87483501D01*
X150202637Y-86529865D01*
X150357630Y-86685129D01*
X150870900Y-86898257D01*
X151426661Y-86898742D01*
X151940303Y-86686510D01*
X152333629Y-86293870D01*
X152419949Y-86085988D01*
X152504990Y-86291803D01*
X152897630Y-86685129D01*
X153410900Y-86898257D01*
X153966661Y-86898742D01*
X154480303Y-86686510D01*
X154873629Y-86293870D01*
X154959949Y-86085988D01*
X155044990Y-86291803D01*
X155437630Y-86685129D01*
X155950900Y-86898257D01*
X156506661Y-86898742D01*
X157020303Y-86686510D01*
X157413629Y-86293870D01*
X157499949Y-86085988D01*
X157584990Y-86291803D01*
X157977630Y-86685129D01*
X158490900Y-86898257D01*
X159046661Y-86898742D01*
X159560303Y-86686510D01*
X159953629Y-86293870D01*
X160039949Y-86085988D01*
X160124990Y-86291803D01*
X160517630Y-86685129D01*
X161030900Y-86898257D01*
X161586661Y-86898742D01*
X162100303Y-86686510D01*
X162493629Y-86293870D01*
X162579949Y-86085988D01*
X162664990Y-86291803D01*
X163057630Y-86685129D01*
X163570900Y-86898257D01*
X164126661Y-86898742D01*
X164640303Y-86686510D01*
X165033629Y-86293870D01*
X165119949Y-86085988D01*
X165204990Y-86291803D01*
X165597630Y-86685129D01*
X166110900Y-86898257D01*
X166666661Y-86898742D01*
X167180303Y-86686510D01*
X167385457Y-86481713D01*
X168129392Y-86481713D01*
X168198857Y-86723897D01*
X168722302Y-86910644D01*
X169277368Y-86882862D01*
X169661143Y-86723897D01*
X169730608Y-86481713D01*
X170669392Y-86481713D01*
X170738857Y-86723897D01*
X171262302Y-86910644D01*
X171817368Y-86882862D01*
X172201143Y-86723897D01*
X172270608Y-86481713D01*
X171470000Y-85681105D01*
X170669392Y-86481713D01*
X169730608Y-86481713D01*
X168930000Y-85681105D01*
X168129392Y-86481713D01*
X167385457Y-86481713D01*
X167573629Y-86293870D01*
X167653395Y-86101773D01*
X167707603Y-86232643D01*
X167949787Y-86302108D01*
X168750395Y-85501500D01*
X169109605Y-85501500D01*
X169910213Y-86302108D01*
X170152397Y-86232643D01*
X170196453Y-86109156D01*
X170247603Y-86232643D01*
X170489787Y-86302108D01*
X171290395Y-85501500D01*
X171649605Y-85501500D01*
X172450213Y-86302108D01*
X172692397Y-86232643D01*
X172742509Y-86092182D01*
X172824990Y-86291803D01*
X173217630Y-86685129D01*
X173730900Y-86898257D01*
X174286661Y-86898742D01*
X174800303Y-86686510D01*
X175193629Y-86293870D01*
X175406757Y-85780600D01*
X175407242Y-85224839D01*
X175195010Y-84711197D01*
X174802370Y-84317871D01*
X174289100Y-84104743D01*
X173733339Y-84104258D01*
X173219697Y-84316490D01*
X172826371Y-84709130D01*
X172746605Y-84901227D01*
X172692397Y-84770357D01*
X172450213Y-84700892D01*
X171649605Y-85501500D01*
X171290395Y-85501500D01*
X170489787Y-84700892D01*
X170247603Y-84770357D01*
X170203547Y-84893844D01*
X170152397Y-84770357D01*
X169910213Y-84700892D01*
X169109605Y-85501500D01*
X168750395Y-85501500D01*
X167949787Y-84700892D01*
X167707603Y-84770357D01*
X167657491Y-84910818D01*
X167575010Y-84711197D01*
X167385432Y-84521287D01*
X168129392Y-84521287D01*
X168930000Y-85321895D01*
X169730608Y-84521287D01*
X170669392Y-84521287D01*
X171470000Y-85321895D01*
X172270608Y-84521287D01*
X172201143Y-84279103D01*
X171677698Y-84092356D01*
X171122632Y-84120138D01*
X170738857Y-84279103D01*
X170669392Y-84521287D01*
X169730608Y-84521287D01*
X169661143Y-84279103D01*
X169137698Y-84092356D01*
X168582632Y-84120138D01*
X168198857Y-84279103D01*
X168129392Y-84521287D01*
X167385432Y-84521287D01*
X167182370Y-84317871D01*
X166669100Y-84104743D01*
X166113339Y-84104258D01*
X165599697Y-84316490D01*
X165206371Y-84709130D01*
X165120051Y-84917012D01*
X165035010Y-84711197D01*
X164642370Y-84317871D01*
X164129100Y-84104743D01*
X163573339Y-84104258D01*
X163059697Y-84316490D01*
X162666371Y-84709130D01*
X162580051Y-84917012D01*
X162495010Y-84711197D01*
X162102370Y-84317871D01*
X161589100Y-84104743D01*
X161033339Y-84104258D01*
X160519697Y-84316490D01*
X160126371Y-84709130D01*
X160040051Y-84917012D01*
X159955010Y-84711197D01*
X159562370Y-84317871D01*
X159049100Y-84104743D01*
X158493339Y-84104258D01*
X157979697Y-84316490D01*
X157586371Y-84709130D01*
X157500051Y-84917012D01*
X157415010Y-84711197D01*
X157022370Y-84317871D01*
X156509100Y-84104743D01*
X155953339Y-84104258D01*
X155439697Y-84316490D01*
X155046371Y-84709130D01*
X154960051Y-84917012D01*
X154875010Y-84711197D01*
X154482370Y-84317871D01*
X153969100Y-84104743D01*
X153413339Y-84104258D01*
X152899697Y-84316490D01*
X152506371Y-84709130D01*
X152420051Y-84917012D01*
X152335010Y-84711197D01*
X151942370Y-84317871D01*
X151854442Y-84281360D01*
X153243915Y-82891887D01*
X179565000Y-82891887D01*
X179565000Y-82948113D01*
X179674233Y-83497264D01*
X179985302Y-83962811D01*
X180450849Y-84273880D01*
X181000000Y-84383113D01*
X181549151Y-84273880D01*
X182014698Y-83962811D01*
X182325767Y-83497264D01*
X182435000Y-82948113D01*
X182435000Y-82891887D01*
X182325767Y-82342736D01*
X182014698Y-81877189D01*
X181549151Y-81566120D01*
X181000000Y-81456887D01*
X180450849Y-81566120D01*
X179985302Y-81877189D01*
X179674233Y-82342736D01*
X179565000Y-82891887D01*
X153243915Y-82891887D01*
X155851615Y-80284187D01*
X182964752Y-80284187D01*
X183182757Y-80811800D01*
X183586077Y-81215824D01*
X184113309Y-81434750D01*
X184684187Y-81435248D01*
X185211800Y-81217243D01*
X185615824Y-80813923D01*
X185834750Y-80286691D01*
X185835248Y-79715813D01*
X185617243Y-79188200D01*
X185213923Y-78784176D01*
X184686691Y-78565250D01*
X184115813Y-78564752D01*
X183588200Y-78782757D01*
X183184176Y-79186077D01*
X182965250Y-79713309D01*
X182964752Y-80284187D01*
X155851615Y-80284187D01*
X160075802Y-76060000D01*
X179761354Y-76060000D01*
X179782757Y-76111800D01*
X180186077Y-76515824D01*
X180713309Y-76734750D01*
X181284187Y-76735248D01*
X181811800Y-76517243D01*
X182215824Y-76113923D01*
X182434750Y-75586691D01*
X182435248Y-75015813D01*
X182217243Y-74488200D01*
X181881464Y-74151835D01*
X182014698Y-74062811D01*
X182325767Y-73597264D01*
X182435000Y-73048113D01*
X182435000Y-72991887D01*
X182325767Y-72442736D01*
X182265064Y-72351887D01*
X182965000Y-72351887D01*
X182965000Y-72408113D01*
X183074233Y-72957264D01*
X183385302Y-73422811D01*
X183850849Y-73733880D01*
X184400000Y-73843113D01*
X184949151Y-73733880D01*
X185414698Y-73422811D01*
X185615679Y-73122022D01*
X185816139Y-73082148D01*
X186062701Y-72917401D01*
X186227448Y-72670839D01*
X186285300Y-72380000D01*
X186285300Y-72289802D01*
X188737401Y-69837701D01*
X188881233Y-69622440D01*
X189075000Y-69622440D01*
X189310317Y-69578162D01*
X189526441Y-69439090D01*
X189671431Y-69226890D01*
X189722440Y-68975000D01*
X189722440Y-67500000D01*
X192390000Y-67500000D01*
X192565838Y-68383999D01*
X193066583Y-69133417D01*
X193816001Y-69634162D01*
X194700000Y-69810000D01*
X195583999Y-69634162D01*
X196333417Y-69133417D01*
X196834162Y-68383999D01*
X197010000Y-67500000D01*
X196834162Y-66616001D01*
X196333417Y-65866583D01*
X195583999Y-65365838D01*
X194700000Y-65190000D01*
X193816001Y-65365838D01*
X193066583Y-65866583D01*
X192565838Y-66616001D01*
X192390000Y-67500000D01*
X189722440Y-67500000D01*
X189722440Y-67225000D01*
X189678162Y-66989683D01*
X189539090Y-66773559D01*
X189326890Y-66628569D01*
X189075000Y-66577560D01*
X187325000Y-66577560D01*
X187089683Y-66621838D01*
X186873559Y-66760910D01*
X186728569Y-66973110D01*
X186725214Y-66989676D01*
X186556463Y-66820630D01*
X186001675Y-66590262D01*
X185400960Y-66589738D01*
X184845771Y-66819138D01*
X184420630Y-67243537D01*
X184190262Y-67798325D01*
X184189738Y-68399040D01*
X184419138Y-68954229D01*
X184843537Y-69379370D01*
X185398325Y-69609738D01*
X185999040Y-69610262D01*
X186554229Y-69380862D01*
X186723103Y-69212283D01*
X186860910Y-69426441D01*
X186942981Y-69482517D01*
X185219042Y-71206456D01*
X184949151Y-71026120D01*
X184400000Y-70916887D01*
X183850849Y-71026120D01*
X183385302Y-71337189D01*
X183074233Y-71802736D01*
X182965000Y-72351887D01*
X182265064Y-72351887D01*
X182014698Y-71977189D01*
X181549151Y-71666120D01*
X181000000Y-71556887D01*
X180450849Y-71666120D01*
X179985302Y-71977189D01*
X179784321Y-72277978D01*
X179583861Y-72317852D01*
X179337299Y-72482599D01*
X179084067Y-72735831D01*
X179025767Y-72442736D01*
X178714698Y-71977189D01*
X178249151Y-71666120D01*
X177700000Y-71556887D01*
X177150849Y-71666120D01*
X176685302Y-71977189D01*
X176374233Y-72442736D01*
X176265000Y-72991887D01*
X176265000Y-73048113D01*
X176332071Y-73385300D01*
X116654700Y-73385300D01*
X116363861Y-73443152D01*
X116117299Y-73607899D01*
X115052401Y-74672797D01*
X114985010Y-74509697D01*
X114592370Y-74116371D01*
X114079100Y-73903243D01*
X113523339Y-73902758D01*
X113490945Y-73916143D01*
X113094504Y-73519702D01*
X113520900Y-73696757D01*
X114076661Y-73697242D01*
X114590303Y-73485010D01*
X114983629Y-73092370D01*
X115196757Y-72579100D01*
X115197242Y-72023339D01*
X114985010Y-71509697D01*
X114592370Y-71116371D01*
X114079100Y-70903243D01*
X113523339Y-70902758D01*
X113009697Y-71114990D01*
X112616371Y-71507630D01*
X112602930Y-71540000D01*
X97435102Y-71540000D01*
X98098441Y-70876661D01*
X136202758Y-70876661D01*
X136414990Y-71390303D01*
X136807630Y-71783629D01*
X137320900Y-71996757D01*
X137876661Y-71997242D01*
X138390303Y-71785010D01*
X138783629Y-71392370D01*
X138996757Y-70879100D01*
X138997242Y-70323339D01*
X138785010Y-69809697D01*
X138392370Y-69416371D01*
X137879100Y-69203243D01*
X137323339Y-69202758D01*
X136809697Y-69414990D01*
X136416371Y-69807630D01*
X136203243Y-70320900D01*
X136202758Y-70876661D01*
X98098441Y-70876661D01*
X98589702Y-70385400D01*
X112909572Y-70385400D01*
X113007630Y-70483629D01*
X113520900Y-70696757D01*
X114076661Y-70697242D01*
X114590303Y-70485010D01*
X114983629Y-70092370D01*
X115196757Y-69579100D01*
X115197242Y-69023339D01*
X114985010Y-68509697D01*
X114592370Y-68116371D01*
X114079100Y-67903243D01*
X113523339Y-67902758D01*
X113009697Y-68114990D01*
X112616371Y-68507630D01*
X112467812Y-68865400D01*
X111322440Y-68865400D01*
X111322440Y-67876661D01*
X136202758Y-67876661D01*
X136414990Y-68390303D01*
X136807630Y-68783629D01*
X137320900Y-68996757D01*
X137876661Y-68997242D01*
X138390303Y-68785010D01*
X138783629Y-68392370D01*
X138996757Y-67879100D01*
X138997242Y-67323339D01*
X138785010Y-66809697D01*
X138392370Y-66416371D01*
X137879100Y-66203243D01*
X137323339Y-66202758D01*
X136809697Y-66414990D01*
X136416371Y-66807630D01*
X136203243Y-67320900D01*
X136202758Y-67876661D01*
X111322440Y-67876661D01*
X111322440Y-67425000D01*
X111278162Y-67189683D01*
X111139090Y-66973559D01*
X110926890Y-66828569D01*
X110675000Y-66777560D01*
X108925000Y-66777560D01*
X108689683Y-66821838D01*
X108473559Y-66960910D01*
X108328569Y-67173110D01*
X108325214Y-67189676D01*
X108156463Y-67020630D01*
X107601675Y-66790262D01*
X107000960Y-66789738D01*
X106445771Y-67019138D01*
X106020630Y-67443537D01*
X105790262Y-67998325D01*
X105789738Y-68599040D01*
X105899796Y-68865400D01*
X102622440Y-68865400D01*
X102622440Y-67425000D01*
X102578162Y-67189683D01*
X102439090Y-66973559D01*
X102226890Y-66828569D01*
X101975000Y-66777560D01*
X100225000Y-66777560D01*
X99989683Y-66821838D01*
X99773559Y-66960910D01*
X99628569Y-67173110D01*
X99625214Y-67189676D01*
X99456463Y-67020630D01*
X98901675Y-66790262D01*
X98300960Y-66789738D01*
X97745771Y-67019138D01*
X97320630Y-67443537D01*
X97090262Y-67998325D01*
X97089738Y-68599040D01*
X97319138Y-69154229D01*
X97495050Y-69330448D01*
X93883274Y-72942224D01*
X93839090Y-72873559D01*
X93626890Y-72728569D01*
X93375000Y-72677560D01*
X91625000Y-72677560D01*
X91389683Y-72721838D01*
X91173559Y-72860910D01*
X91028569Y-73073110D01*
X90977560Y-73325000D01*
X89010000Y-73325000D01*
X89010000Y-67700000D01*
X89390000Y-67700000D01*
X89565838Y-68583999D01*
X90066583Y-69333417D01*
X90816001Y-69834162D01*
X91700000Y-70010000D01*
X92583999Y-69834162D01*
X93333417Y-69333417D01*
X93834162Y-68583999D01*
X94010000Y-67700000D01*
X93834162Y-66816001D01*
X93333417Y-66066583D01*
X92583999Y-65565838D01*
X91700000Y-65390000D01*
X90816001Y-65565838D01*
X90066583Y-66066583D01*
X89565838Y-66816001D01*
X89390000Y-67700000D01*
X89010000Y-67700000D01*
X89010000Y-64810000D01*
X149023698Y-64810000D01*
X148919381Y-64914317D01*
G36*
X142577189Y-133894698D02*
X142959275Y-134150000D01*
X142577189Y-134405302D01*
X142393563Y-134680118D01*
X142256165Y-134707448D01*
X142203860Y-134717852D01*
X141957299Y-134882599D01*
X141016398Y-135823500D01*
X137369347Y-135823500D01*
X137391904Y-135769039D01*
X137269915Y-135547000D01*
X136127000Y-135547000D01*
X136127000Y-135567000D01*
X135873000Y-135567000D01*
X135873000Y-135547000D01*
X134730085Y-135547000D01*
X134652885Y-135687516D01*
X134292370Y-135326371D01*
X134084488Y-135240051D01*
X134290303Y-135155010D01*
X134680694Y-134765300D01*
X134734696Y-134765300D01*
X134608096Y-135070961D01*
X134730085Y-135293000D01*
X135873000Y-135293000D01*
X135873000Y-135273000D01*
X136127000Y-135273000D01*
X136127000Y-135293000D01*
X137269915Y-135293000D01*
X137391904Y-135070961D01*
X137265304Y-134765300D01*
X141369400Y-134765300D01*
X141660239Y-134707448D01*
X141906801Y-134542701D01*
X142568223Y-133881279D01*
X142577189Y-133894698D01*
X142577189Y-133894698D01*
G37*
X142577189Y-133894698D02*
X142959275Y-134150000D01*
X142577189Y-134405302D01*
X142393563Y-134680118D01*
X142256165Y-134707448D01*
X142203860Y-134717852D01*
X141957299Y-134882599D01*
X141016398Y-135823500D01*
X137369347Y-135823500D01*
X137391904Y-135769039D01*
X137269915Y-135547000D01*
X136127000Y-135547000D01*
X136127000Y-135567000D01*
X135873000Y-135567000D01*
X135873000Y-135547000D01*
X134730085Y-135547000D01*
X134652885Y-135687516D01*
X134292370Y-135326371D01*
X134084488Y-135240051D01*
X134290303Y-135155010D01*
X134680694Y-134765300D01*
X134734696Y-134765300D01*
X134608096Y-135070961D01*
X134730085Y-135293000D01*
X135873000Y-135293000D01*
X135873000Y-135273000D01*
X136127000Y-135273000D01*
X136127000Y-135293000D01*
X137269915Y-135293000D01*
X137391904Y-135070961D01*
X137265304Y-134765300D01*
X141369400Y-134765300D01*
X141660239Y-134707448D01*
X141906801Y-134542701D01*
X142568223Y-133881279D01*
X142577189Y-133894698D01*
G36*
X158182757Y-110111800D02*
X158586077Y-110515824D01*
X158667931Y-110549813D01*
X158588200Y-110582757D01*
X158184176Y-110986077D01*
X157965250Y-111513309D01*
X157964752Y-112084187D01*
X158182757Y-112611800D01*
X158586077Y-113015824D01*
X159113309Y-113234750D01*
X159684187Y-113235248D01*
X159738149Y-113212951D01*
X163487498Y-116962300D01*
X160391737Y-116962300D01*
X160213923Y-116784176D01*
X159686691Y-116565250D01*
X159115813Y-116564752D01*
X158588200Y-116782757D01*
X158184176Y-117186077D01*
X157965250Y-117713309D01*
X157964752Y-118284187D01*
X158182757Y-118811800D01*
X158586077Y-119215824D01*
X158667931Y-119249813D01*
X158588200Y-119282757D01*
X158184176Y-119686077D01*
X158161785Y-119740000D01*
X157935000Y-119740000D01*
X157935000Y-118985750D01*
X157776250Y-118827000D01*
X156327000Y-118827000D01*
X156327000Y-118847000D01*
X156073000Y-118847000D01*
X156073000Y-118827000D01*
X154623750Y-118827000D01*
X154465000Y-118985750D01*
X154465000Y-119740000D01*
X152566328Y-119740000D01*
X152580608Y-119690213D01*
X151780000Y-118889605D01*
X150979392Y-119690213D01*
X150993672Y-119740000D01*
X150185584Y-119740000D01*
X150423629Y-119502370D01*
X150503395Y-119310273D01*
X150557603Y-119441143D01*
X150799787Y-119510608D01*
X151600395Y-118710000D01*
X151959605Y-118710000D01*
X152760213Y-119510608D01*
X153002397Y-119441143D01*
X153189144Y-118917698D01*
X153161362Y-118362632D01*
X153002397Y-117978857D01*
X152760213Y-117909392D01*
X151959605Y-118710000D01*
X151600395Y-118710000D01*
X151586253Y-118695858D01*
X151765858Y-118516253D01*
X151780000Y-118530395D01*
X152580608Y-117729787D01*
X152511143Y-117487603D01*
X152472149Y-117473691D01*
X154465000Y-117473691D01*
X154465000Y-118414250D01*
X154623750Y-118573000D01*
X156073000Y-118573000D01*
X156073000Y-117123750D01*
X156327000Y-117123750D01*
X156327000Y-118573000D01*
X157776250Y-118573000D01*
X157935000Y-118414250D01*
X157935000Y-117473691D01*
X157838327Y-117240302D01*
X157659699Y-117061673D01*
X157426310Y-116965000D01*
X156485750Y-116965000D01*
X156327000Y-117123750D01*
X156073000Y-117123750D01*
X155914250Y-116965000D01*
X154973690Y-116965000D01*
X154740301Y-117061673D01*
X154561673Y-117240302D01*
X154465000Y-117473691D01*
X152472149Y-117473691D01*
X151987698Y-117300856D01*
X151432632Y-117328638D01*
X151104500Y-117464555D01*
X151104500Y-112322158D01*
X151500900Y-112486757D01*
X152056661Y-112487242D01*
X152570303Y-112275010D01*
X152963629Y-111882370D01*
X152977070Y-111850000D01*
X154645213Y-111850000D01*
X154973170Y-112340821D01*
X155536044Y-112716922D01*
X156200000Y-112848991D01*
X156863956Y-112716922D01*
X157426830Y-112340821D01*
X157802931Y-111777947D01*
X157935000Y-111113991D01*
X157935000Y-111046009D01*
X157802931Y-110382053D01*
X157587742Y-110060000D01*
X158161354Y-110060000D01*
X158182757Y-110111800D01*
X158182757Y-110111800D01*
G37*
X158182757Y-110111800D02*
X158586077Y-110515824D01*
X158667931Y-110549813D01*
X158588200Y-110582757D01*
X158184176Y-110986077D01*
X157965250Y-111513309D01*
X157964752Y-112084187D01*
X158182757Y-112611800D01*
X158586077Y-113015824D01*
X159113309Y-113234750D01*
X159684187Y-113235248D01*
X159738149Y-113212951D01*
X163487498Y-116962300D01*
X160391737Y-116962300D01*
X160213923Y-116784176D01*
X159686691Y-116565250D01*
X159115813Y-116564752D01*
X158588200Y-116782757D01*
X158184176Y-117186077D01*
X157965250Y-117713309D01*
X157964752Y-118284187D01*
X158182757Y-118811800D01*
X158586077Y-119215824D01*
X158667931Y-119249813D01*
X158588200Y-119282757D01*
X158184176Y-119686077D01*
X158161785Y-119740000D01*
X157935000Y-119740000D01*
X157935000Y-118985750D01*
X157776250Y-118827000D01*
X156327000Y-118827000D01*
X156327000Y-118847000D01*
X156073000Y-118847000D01*
X156073000Y-118827000D01*
X154623750Y-118827000D01*
X154465000Y-118985750D01*
X154465000Y-119740000D01*
X152566328Y-119740000D01*
X152580608Y-119690213D01*
X151780000Y-118889605D01*
X150979392Y-119690213D01*
X150993672Y-119740000D01*
X150185584Y-119740000D01*
X150423629Y-119502370D01*
X150503395Y-119310273D01*
X150557603Y-119441143D01*
X150799787Y-119510608D01*
X151600395Y-118710000D01*
X151959605Y-118710000D01*
X152760213Y-119510608D01*
X153002397Y-119441143D01*
X153189144Y-118917698D01*
X153161362Y-118362632D01*
X153002397Y-117978857D01*
X152760213Y-117909392D01*
X151959605Y-118710000D01*
X151600395Y-118710000D01*
X151586253Y-118695858D01*
X151765858Y-118516253D01*
X151780000Y-118530395D01*
X152580608Y-117729787D01*
X152511143Y-117487603D01*
X152472149Y-117473691D01*
X154465000Y-117473691D01*
X154465000Y-118414250D01*
X154623750Y-118573000D01*
X156073000Y-118573000D01*
X156073000Y-117123750D01*
X156327000Y-117123750D01*
X156327000Y-118573000D01*
X157776250Y-118573000D01*
X157935000Y-118414250D01*
X157935000Y-117473691D01*
X157838327Y-117240302D01*
X157659699Y-117061673D01*
X157426310Y-116965000D01*
X156485750Y-116965000D01*
X156327000Y-117123750D01*
X156073000Y-117123750D01*
X155914250Y-116965000D01*
X154973690Y-116965000D01*
X154740301Y-117061673D01*
X154561673Y-117240302D01*
X154465000Y-117473691D01*
X152472149Y-117473691D01*
X151987698Y-117300856D01*
X151432632Y-117328638D01*
X151104500Y-117464555D01*
X151104500Y-112322158D01*
X151500900Y-112486757D01*
X152056661Y-112487242D01*
X152570303Y-112275010D01*
X152963629Y-111882370D01*
X152977070Y-111850000D01*
X154645213Y-111850000D01*
X154973170Y-112340821D01*
X155536044Y-112716922D01*
X156200000Y-112848991D01*
X156863956Y-112716922D01*
X157426830Y-112340821D01*
X157802931Y-111777947D01*
X157935000Y-111113991D01*
X157935000Y-111046009D01*
X157802931Y-110382053D01*
X157587742Y-110060000D01*
X158161354Y-110060000D01*
X158182757Y-110111800D01*
G36*
X192577560Y-101299900D02*
X182530400Y-101299900D01*
X182239561Y-101357752D01*
X181992999Y-101522499D01*
X180247440Y-103268058D01*
X180247440Y-102900000D01*
X180203162Y-102664683D01*
X180064090Y-102448559D01*
X179851890Y-102303569D01*
X179600000Y-102252560D01*
X178000000Y-102252560D01*
X177764683Y-102296838D01*
X177548559Y-102435910D01*
X177403569Y-102648110D01*
X177352560Y-102900000D01*
X177352560Y-104500000D01*
X177396838Y-104735317D01*
X177535910Y-104951441D01*
X177748110Y-105096431D01*
X178000000Y-105147440D01*
X178368058Y-105147440D01*
X176848498Y-106667000D01*
X174108379Y-106667000D01*
X174463629Y-106312370D01*
X174676757Y-105799100D01*
X174677242Y-105243339D01*
X174465010Y-104729697D01*
X174072370Y-104336371D01*
X173559100Y-104123243D01*
X173003339Y-104122758D01*
X172489697Y-104334990D01*
X172096371Y-104727630D01*
X172016605Y-104919727D01*
X171962397Y-104788857D01*
X171720213Y-104719392D01*
X170919605Y-105520000D01*
X171720213Y-106320608D01*
X171962397Y-106251143D01*
X172012509Y-106110682D01*
X172094990Y-106310303D01*
X172451065Y-106667000D01*
X171492769Y-106667000D01*
X171540608Y-106500213D01*
X170740000Y-105699605D01*
X169939392Y-106500213D01*
X169987231Y-106667000D01*
X169028379Y-106667000D01*
X169383629Y-106312370D01*
X169463395Y-106120273D01*
X169517603Y-106251143D01*
X169759787Y-106320608D01*
X170560395Y-105520000D01*
X169759787Y-104719392D01*
X169517603Y-104788857D01*
X169467491Y-104929318D01*
X169385010Y-104729697D01*
X169195432Y-104539787D01*
X169939392Y-104539787D01*
X170740000Y-105340395D01*
X171540608Y-104539787D01*
X171471143Y-104297603D01*
X170947698Y-104110856D01*
X170392632Y-104138638D01*
X170008857Y-104297603D01*
X169939392Y-104539787D01*
X169195432Y-104539787D01*
X168992370Y-104336371D01*
X168905078Y-104300124D01*
X172845602Y-100359600D01*
X192577560Y-100359600D01*
X192577560Y-101299900D01*
X192577560Y-101299900D01*
G37*
X192577560Y-101299900D02*
X182530400Y-101299900D01*
X182239561Y-101357752D01*
X181992999Y-101522499D01*
X180247440Y-103268058D01*
X180247440Y-102900000D01*
X180203162Y-102664683D01*
X180064090Y-102448559D01*
X179851890Y-102303569D01*
X179600000Y-102252560D01*
X178000000Y-102252560D01*
X177764683Y-102296838D01*
X177548559Y-102435910D01*
X177403569Y-102648110D01*
X177352560Y-102900000D01*
X177352560Y-104500000D01*
X177396838Y-104735317D01*
X177535910Y-104951441D01*
X177748110Y-105096431D01*
X178000000Y-105147440D01*
X178368058Y-105147440D01*
X176848498Y-106667000D01*
X174108379Y-106667000D01*
X174463629Y-106312370D01*
X174676757Y-105799100D01*
X174677242Y-105243339D01*
X174465010Y-104729697D01*
X174072370Y-104336371D01*
X173559100Y-104123243D01*
X173003339Y-104122758D01*
X172489697Y-104334990D01*
X172096371Y-104727630D01*
X172016605Y-104919727D01*
X171962397Y-104788857D01*
X171720213Y-104719392D01*
X170919605Y-105520000D01*
X171720213Y-106320608D01*
X171962397Y-106251143D01*
X172012509Y-106110682D01*
X172094990Y-106310303D01*
X172451065Y-106667000D01*
X171492769Y-106667000D01*
X171540608Y-106500213D01*
X170740000Y-105699605D01*
X169939392Y-106500213D01*
X169987231Y-106667000D01*
X169028379Y-106667000D01*
X169383629Y-106312370D01*
X169463395Y-106120273D01*
X169517603Y-106251143D01*
X169759787Y-106320608D01*
X170560395Y-105520000D01*
X169759787Y-104719392D01*
X169517603Y-104788857D01*
X169467491Y-104929318D01*
X169385010Y-104729697D01*
X169195432Y-104539787D01*
X169939392Y-104539787D01*
X170740000Y-105340395D01*
X171540608Y-104539787D01*
X171471143Y-104297603D01*
X170947698Y-104110856D01*
X170392632Y-104138638D01*
X170008857Y-104297603D01*
X169939392Y-104539787D01*
X169195432Y-104539787D01*
X168992370Y-104336371D01*
X168905078Y-104300124D01*
X172845602Y-100359600D01*
X192577560Y-100359600D01*
X192577560Y-101299900D01*
M02*
