M48
;DRILL file {KiCad 4.0.6+dfsg1-1} date Wed Nov 15 17:46:17 2017
;FORMAT={-:-/ absolute / inch / decimal}
FMAT,2
INCH,TZ
T1C0.016
T2C0.030
T3C0.031
T4C0.035
T5C0.039
T6C0.043
T7C0.045
%
G90
G05
M72
T1
X4.5739Y-3.7709
X6.9834Y-3.1303
T2
X3.5004Y-2.9248
X3.5004Y-3.0248
X3.5004Y-3.1248
X3.5004Y-3.2248
X3.9543Y-4.6108
X4.0543Y-4.6108
X4.2543Y-4.6108
X4.3543Y-4.6108
T3
X2.6634Y-3.5697
X2.6634Y-3.7797
X2.6634Y-4.4697
X2.7634Y-3.5697
X3.0634Y-3.5697
X3.1634Y-3.5697
X3.1634Y-3.7797
X3.1634Y-4.4697
X3.4252Y-4.2008
X3.4354Y-3.5154
X3.4354Y-3.8154
X3.4953Y-4.4449
X3.5Y-4.6142
X3.5031Y-4.7913
X3.5236Y-4.2008
X3.7953Y-4.4449
X3.8Y-4.6142
X3.8031Y-4.7913
X4.1063Y-4.0898
X4.1063Y-4.3898
X4.2063Y-4.0898
X4.2063Y-4.3898
X4.3063Y-4.0898
X4.3063Y-4.3898
X4.4063Y-4.0898
X4.4063Y-4.3898
X4.6354Y-3.5154
X4.6354Y-3.8154
X4.8346Y-3.3976
X4.8858Y-4.3386
X4.8898Y-4.0827
X4.8937Y-3.8071
X4.9134Y-4.5906
X4.9646Y-4.3386
X4.9685Y-4.0827
X4.9724Y-3.8071
X4.9843Y-4.8508
X4.9843Y-4.9508
X4.9843Y-5.0508
X4.9843Y-5.1508
X4.9843Y-5.2508
X4.9843Y-5.3508
X4.9843Y-5.4508
X4.9843Y-5.5508
X4.9921Y-4.5906
X5.1102Y-3.815
X5.1346Y-3.3976
X5.1535Y-4.5906
X5.2087Y-3.815
X5.2205Y-5.4488
X5.2205Y-5.5472
X5.252Y-4.5906
X5.3306Y-1.9012
X5.3306Y-2.0012
X5.3306Y-2.1012
X5.3306Y-2.2012
X5.3306Y-2.3012
X5.3306Y-2.4012
X5.3306Y-2.5012
X5.3306Y-2.6012
X5.3306Y-2.7012
X5.3306Y-2.8012
X5.3306Y-2.9012
X5.3306Y-3.0012
X5.3306Y-3.1012
X5.3306Y-3.2012
X5.3386Y-3.8071
X5.4016Y-4.5945
X5.437Y-3.8071
X5.5Y-4.5945
X6.0867Y-1.9012
X6.0867Y-2.0012
X6.0867Y-2.1012
X6.0867Y-2.2012
X6.0867Y-2.3012
X6.0867Y-2.4012
X6.0867Y-2.5012
X6.0867Y-2.6012
X6.0867Y-2.7012
X6.0867Y-2.8012
X6.0867Y-2.9012
X6.0867Y-3.0012
X6.0867Y-3.1012
X6.0867Y-3.2012
X6.2283Y-3.4331
X6.2283Y-3.5315
X6.2402Y-3.1811
X6.2992Y-2.6772
X6.2992Y-2.9772
X6.3386Y-3.1811
X6.4409Y-4.0354
X6.4748Y-2.0803
X6.4748Y-2.1803
X6.4748Y-2.2803
X6.4748Y-2.3803
X6.4748Y-2.4803
X6.4748Y-2.5803
X6.4748Y-2.6803
X6.4748Y-2.7803
X6.4748Y-2.8803
X6.4748Y-2.9803
X6.4748Y-3.0803
X6.4748Y-3.1803
X6.4748Y-3.2803
X6.4748Y-3.3803
X6.4748Y-3.4803
X6.5394Y-4.0354
X6.7008Y-4.0394
X6.7992Y-4.0394
X6.8084Y-4.9508
X6.8084Y-5.0508
X6.8084Y-5.1508
X6.8084Y-5.2508
X6.8084Y-5.3508
X6.8084Y-5.4508
X6.9409Y-4.0394
X6.9756Y-5.2598
X7.0394Y-4.0394
X7.0748Y-2.0803
X7.0748Y-2.1803
X7.0748Y-2.2803
X7.0748Y-2.3803
X7.0748Y-2.4803
X7.0748Y-2.5803
X7.0748Y-2.6803
X7.0748Y-2.7803
X7.0748Y-2.8803
X7.0748Y-2.9803
X7.0748Y-3.0803
X7.0748Y-3.1803
X7.0748Y-3.2803
X7.0748Y-3.3803
X7.0748Y-3.4803
X7.0772Y-3.7835
X7.0945Y-4.4606
X7.0945Y-4.5591
X7.2283Y-4.0315
X7.2425Y-2.1559
X7.2425Y-2.4559
X7.248Y-3.4961
X7.2756Y-5.2598
X7.3268Y-4.0315
X7.3465Y-3.4961
X7.3701Y-3.0268
X7.3701Y-3.3268
X7.374Y-2.5906
X7.374Y-2.8906
X7.3772Y-3.7835
X7.3858Y-2.1567
X7.3858Y-2.4567
T4
X2.4134Y-3.2283
X2.4134Y-3.3268
X2.4213Y-3.7835
X2.4213Y-3.8819
X2.626Y-2.9488
X2.7244Y-2.9488
X2.7323Y-4.7677
X2.8228Y-2.9488
X2.8307Y-4.7677
X2.9213Y-2.9488
X3.0945Y-4.7677
X3.1929Y-4.7677
X3.2008Y-2.9409
X3.2913Y-4.7677
X3.2992Y-2.9409
X6.6654Y-3.811
X6.7638Y-3.811
X6.8622Y-3.811
X7.2362Y-5.5118
X7.2835Y-1.8661
X7.3346Y-5.5118
X7.3819Y-1.8661
X7.6024Y-2.3189
X7.6024Y-2.4173
X7.6181Y-3.9764
X7.6732Y-3.0551
X7.6732Y-3.1535
X7.6732Y-3.252
X7.6732Y-3.3504
X7.6732Y-4.2677
X7.6732Y-4.3661
X7.6732Y-4.4646
X7.6732Y-4.563
X7.6772Y-3.622
X7.6772Y-3.7205
X7.689Y-5.0472
X7.689Y-5.1457
X7.7181Y-3.9764
T5
X5.2213Y-4.0587
X5.2213Y-4.3587
X5.3213Y-4.0587
X5.3213Y-4.3587
X5.4213Y-4.0587
X5.4213Y-4.3587
X5.5213Y-4.0587
X5.5213Y-4.3587
X5.6213Y-4.0587
X5.6213Y-4.3587
X6.1067Y-4.2791
X6.1067Y-4.5791
X6.2067Y-4.2791
X6.2067Y-4.5791
X6.3067Y-4.2791
X6.3067Y-4.5791
X6.4067Y-4.2791
X6.4067Y-4.5791
X6.5067Y-4.2791
X6.5067Y-4.5791
X6.6067Y-4.2791
X6.6067Y-4.5791
X6.7067Y-4.2791
X6.7067Y-4.5791
X6.8067Y-4.2791
X6.8067Y-4.5791
T6
X5.8583Y-4.0425
X5.8583Y-4.3425
T7
X6.126Y-3.8094
X6.126Y-3.9094
X6.126Y-4.0094
T0
M30
