M48
;DRILL file {KiCad 4.0.6+dfsg1-1} date Mon Feb 19 16:16:49 2018
;FORMAT={-:-/ absolute / metric / decimal}
FMAT,2
METRIC,TZ
T1C0.400
T2C0.762
T3C0.800
T4C0.900
T5C1.000
T6C1.100
T7C1.143
%
G90
G05
M71
T1
X146.279Y-101.129
X171.149Y-98.695
T2
X106.83Y-121.27
X114.Y-69.95
X114.Y-72.95
X114.Y-75.95
X114.Y-78.95
X119.53Y-121.27
X137.8Y-68.25
X137.8Y-71.25
X137.8Y-77.65
X137.8Y-80.65
T3
X91.17Y-105.145
X91.17Y-107.99
X91.17Y-115.61
X91.17Y-118.455
X92.46Y-89.89
X92.46Y-97.51
X96.38Y-122.7
X96.38Y-126.1
X96.38Y-129.5
X96.504Y-105.45
X96.504Y-118.15
X99.Y-134.1
X101.5Y-134.1
X104.Y-122.7
X104.Y-126.1
X104.Y-129.5
X104.4Y-75.4
X104.4Y-83.02
X108.1Y-75.4
X108.1Y-83.02
X114.03Y-105.45
X114.03Y-118.15
X121.6Y-107.
X122.94Y-89.89
X122.94Y-97.51
X123.4Y-111.6
X123.4Y-117.5
X124.1Y-107.
X125.4Y-111.6
X125.4Y-117.5
X126.4Y-107.
X129.Y-111.6
X129.3Y-117.5
X131.3Y-117.5
X131.5Y-111.6
X134.02Y-107.
X135.1Y-111.6
X135.1Y-117.5
X136.Y-127.8
X136.Y-130.34
X136.Y-132.88
X136.Y-135.42
X137.1Y-111.6
X137.1Y-117.5
X137.8Y-139.6
X137.8Y-142.1
X143.62Y-127.8
X143.62Y-130.34
X143.62Y-132.88
X143.62Y-135.42
X159.4Y-109.3
X159.4Y-111.8
X159.4Y-118.
X159.4Y-120.5
X177.7Y-65.4
X177.7Y-73.02
X181.Y-65.4
X181.Y-73.02
X181.Y-75.3
X181.Y-82.92
X183.4Y-103.7
X183.45Y-92.15
X184.4Y-72.38
X184.4Y-80.
X186.2Y-123.3
X186.2Y-125.8
X186.4Y-84.45
X187.2Y-103.7
X187.25Y-92.15
X188.9Y-84.45
T4
X92.2Y-125.3
X92.2Y-127.8
X92.2Y-130.3
X92.2Y-132.8
X92.5Y-74.2
X92.5Y-76.7
X92.5Y-79.2
X92.5Y-81.7
X194.1Y-84.1
X194.1Y-86.6
X194.1Y-89.1
X194.1Y-91.6
X194.1Y-116.6
X194.1Y-119.1
X194.1Y-121.6
X194.1Y-124.1
T5
X98.6Y-68.3
X99.7Y-139.9
X101.1Y-68.3
X102.2Y-139.9
X107.3Y-68.3
X109.8Y-68.3
X133.5Y-123.81
X133.5Y-126.35
X133.5Y-128.89
X133.5Y-131.43
X133.5Y-133.97
X133.5Y-136.51
X133.5Y-139.05
X133.5Y-141.59
X136.05Y-91.6
X136.05Y-104.2
X140.99Y-66.298
X140.99Y-85.501
X141.07Y-90.28
X141.07Y-105.52
X141.62Y-111.09
X141.62Y-118.71
X143.53Y-66.298
X143.53Y-85.501
X143.61Y-90.28
X143.61Y-105.52
X144.16Y-111.09
X144.16Y-118.71
X146.07Y-66.298
X146.07Y-85.501
X146.15Y-90.28
X146.15Y-105.52
X146.7Y-111.09
X146.7Y-118.71
X148.61Y-66.298
X148.61Y-85.501
X148.69Y-90.28
X148.69Y-105.52
X149.24Y-111.09
X149.24Y-118.71
X151.15Y-66.298
X151.15Y-85.501
X151.23Y-90.28
X151.23Y-105.52
X151.78Y-111.09
X151.78Y-118.71
X153.69Y-66.298
X153.69Y-85.501
X153.77Y-90.28
X153.77Y-105.52
X156.23Y-66.298
X156.23Y-85.501
X156.31Y-90.28
X156.31Y-105.52
X158.77Y-66.298
X158.77Y-85.501
X158.85Y-90.28
X158.85Y-105.52
X161.31Y-66.298
X161.31Y-85.501
X161.39Y-90.28
X161.39Y-105.52
X163.51Y-111.19
X163.51Y-118.81
X163.85Y-66.298
X163.85Y-85.501
X163.93Y-90.28
X163.93Y-105.52
X166.05Y-111.19
X166.05Y-118.81
X166.39Y-66.298
X166.39Y-85.501
X166.47Y-90.28
X166.47Y-105.52
X168.59Y-111.19
X168.59Y-118.81
X168.93Y-66.298
X168.93Y-85.501
X169.01Y-90.28
X169.01Y-105.52
X171.13Y-111.19
X171.13Y-118.81
X171.47Y-66.298
X171.47Y-85.501
X171.55Y-90.28
X171.55Y-105.52
X173.67Y-111.19
X173.67Y-118.81
X174.01Y-66.298
X174.01Y-85.501
X174.09Y-90.28
X174.09Y-105.52
X176.21Y-111.19
X176.21Y-118.81
X176.63Y-90.28
X176.63Y-105.52
X178.75Y-111.19
X178.75Y-118.81
X180.734Y-126.45
X180.734Y-128.99
X180.734Y-131.53
X180.734Y-134.07
X180.734Y-136.61
X180.734Y-139.15
X181.29Y-111.19
X181.29Y-118.81
X185.7Y-68.1
X185.9Y-139.6
X188.2Y-68.1
X188.4Y-139.6
X194.1Y-74.9
X194.1Y-77.4
X194.1Y-98.3
X194.1Y-100.8
X194.1Y-107.5
X194.1Y-110.
X194.1Y-130.8
X194.1Y-133.3
T6
X156.2Y-111.05
X156.2Y-118.67
T7
X186.2Y-112.36
X186.2Y-114.9
X186.2Y-117.44
T0
M30
