G04 #@! TF.FileFunction,Legend,Top*
%FSLAX46Y46*%
G04 Gerber Fmt 4.6, Leading zero omitted, Abs format (unit mm)*
G04 Created by KiCad (PCBNEW 4.0.6+dfsg1-1) date Wed Nov 15 17:46:22 2017*
%MOMM*%
%LPD*%
G01*
G04 APERTURE LIST*
%ADD10C,0.100000*%
%ADD11C,0.300000*%
%ADD12C,0.120000*%
%ADD13C,0.150000*%
%ADD14C,0.125000*%
G04 APERTURE END LIST*
D10*
D11*
X100208036Y-46878571D02*
X100395536Y-45378571D01*
X101065179Y-46878571D01*
X101252679Y-45378571D01*
X102252679Y-45378571D02*
X102538393Y-45378571D01*
X102672322Y-45450000D01*
X102797322Y-45592857D01*
X102833036Y-45878571D01*
X102770536Y-46378571D01*
X102663393Y-46664286D01*
X102502679Y-46807143D01*
X102350893Y-46878571D01*
X102065179Y-46878571D01*
X101931250Y-46807143D01*
X101806250Y-46664286D01*
X101770536Y-46378571D01*
X101833036Y-45878571D01*
X101940179Y-45592857D01*
X102100893Y-45450000D01*
X102252679Y-45378571D01*
X103350894Y-46878571D02*
X103538394Y-45378571D01*
X104208037Y-46878571D02*
X103672322Y-46021429D01*
X104395537Y-45378571D02*
X103431251Y-46235714D01*
X105324108Y-45378571D02*
X105609822Y-45378571D01*
X105743751Y-45450000D01*
X105868751Y-45592857D01*
X105904465Y-45878571D01*
X105841965Y-46378571D01*
X105734822Y-46664286D01*
X105574108Y-46807143D01*
X105422322Y-46878571D01*
X105136608Y-46878571D01*
X105002679Y-46807143D01*
X104877679Y-46664286D01*
X104841965Y-46378571D01*
X104904465Y-45878571D01*
X105011608Y-45592857D01*
X105172322Y-45450000D01*
X105324108Y-45378571D01*
X107663393Y-45521429D02*
X107743751Y-45450000D01*
X107895537Y-45378571D01*
X108252680Y-45378571D01*
X108386608Y-45450000D01*
X108449108Y-45521429D01*
X108502679Y-45664286D01*
X108484822Y-45807143D01*
X108386608Y-46021429D01*
X107422323Y-46878571D01*
X108350894Y-46878571D01*
X109011608Y-46735714D02*
X109074107Y-46807143D01*
X108993751Y-46878571D01*
X108931250Y-46807143D01*
X109011608Y-46735714D01*
X108993751Y-46878571D01*
X110181251Y-45378571D02*
X110324108Y-45378571D01*
X110458036Y-45450000D01*
X110520536Y-45521429D01*
X110574108Y-45664286D01*
X110609822Y-45950000D01*
X110565179Y-46307143D01*
X110458037Y-46592857D01*
X110368751Y-46735714D01*
X110288393Y-46807143D01*
X110136608Y-46878571D01*
X109993751Y-46878571D01*
X109859822Y-46807143D01*
X109797322Y-46735714D01*
X109743751Y-46592857D01*
X109708036Y-46307143D01*
X109752679Y-45950000D01*
X109859822Y-45664286D01*
X109949107Y-45521429D01*
X110029465Y-45450000D01*
X110181251Y-45378571D01*
D12*
X147520000Y-109150000D02*
X147390000Y-109150000D01*
X147390000Y-109150000D02*
X147390000Y-103830000D01*
X147390000Y-103830000D02*
X147520000Y-103830000D01*
X150080000Y-109150000D02*
X150210000Y-109150000D01*
X150210000Y-109150000D02*
X150210000Y-103830000D01*
X150210000Y-103830000D02*
X150080000Y-103830000D01*
X147390000Y-108310000D02*
X150210000Y-108310000D01*
X85853137Y-107681400D02*
G75*
G03X90647436Y-107680000I2396863J981400D01*
G01*
X85853137Y-105718600D02*
G75*
G02X90647436Y-105720000I2396863J-981400D01*
G01*
X85853137Y-105718600D02*
G75*
G03X85852564Y-107680000I2396863J-981400D01*
G01*
X88250000Y-109250000D02*
X88250000Y-104150000D01*
X88210000Y-109250000D02*
X88210000Y-104150000D01*
X88170000Y-109249000D02*
X88170000Y-104151000D01*
X88130000Y-109248000D02*
X88130000Y-104152000D01*
X88090000Y-109246000D02*
X88090000Y-104154000D01*
X88050000Y-109243000D02*
X88050000Y-104157000D01*
X88010000Y-109239000D02*
X88010000Y-104161000D01*
X87970000Y-109235000D02*
X87970000Y-107680000D01*
X87970000Y-105720000D02*
X87970000Y-104165000D01*
X87930000Y-109231000D02*
X87930000Y-107680000D01*
X87930000Y-105720000D02*
X87930000Y-104169000D01*
X87890000Y-109225000D02*
X87890000Y-107680000D01*
X87890000Y-105720000D02*
X87890000Y-104175000D01*
X87850000Y-109219000D02*
X87850000Y-107680000D01*
X87850000Y-105720000D02*
X87850000Y-104181000D01*
X87810000Y-109213000D02*
X87810000Y-107680000D01*
X87810000Y-105720000D02*
X87810000Y-104187000D01*
X87770000Y-109206000D02*
X87770000Y-107680000D01*
X87770000Y-105720000D02*
X87770000Y-104194000D01*
X87730000Y-109198000D02*
X87730000Y-107680000D01*
X87730000Y-105720000D02*
X87730000Y-104202000D01*
X87690000Y-109189000D02*
X87690000Y-107680000D01*
X87690000Y-105720000D02*
X87690000Y-104211000D01*
X87650000Y-109180000D02*
X87650000Y-107680000D01*
X87650000Y-105720000D02*
X87650000Y-104220000D01*
X87610000Y-109170000D02*
X87610000Y-107680000D01*
X87610000Y-105720000D02*
X87610000Y-104230000D01*
X87570000Y-109160000D02*
X87570000Y-107680000D01*
X87570000Y-105720000D02*
X87570000Y-104240000D01*
X87529000Y-109148000D02*
X87529000Y-107680000D01*
X87529000Y-105720000D02*
X87529000Y-104252000D01*
X87489000Y-109136000D02*
X87489000Y-107680000D01*
X87489000Y-105720000D02*
X87489000Y-104264000D01*
X87449000Y-109124000D02*
X87449000Y-107680000D01*
X87449000Y-105720000D02*
X87449000Y-104276000D01*
X87409000Y-109110000D02*
X87409000Y-107680000D01*
X87409000Y-105720000D02*
X87409000Y-104290000D01*
X87369000Y-109096000D02*
X87369000Y-107680000D01*
X87369000Y-105720000D02*
X87369000Y-104304000D01*
X87329000Y-109082000D02*
X87329000Y-107680000D01*
X87329000Y-105720000D02*
X87329000Y-104318000D01*
X87289000Y-109066000D02*
X87289000Y-107680000D01*
X87289000Y-105720000D02*
X87289000Y-104334000D01*
X87249000Y-109050000D02*
X87249000Y-107680000D01*
X87249000Y-105720000D02*
X87249000Y-104350000D01*
X87209000Y-109033000D02*
X87209000Y-107680000D01*
X87209000Y-105720000D02*
X87209000Y-104367000D01*
X87169000Y-109015000D02*
X87169000Y-107680000D01*
X87169000Y-105720000D02*
X87169000Y-104385000D01*
X87129000Y-108996000D02*
X87129000Y-107680000D01*
X87129000Y-105720000D02*
X87129000Y-104404000D01*
X87089000Y-108976000D02*
X87089000Y-107680000D01*
X87089000Y-105720000D02*
X87089000Y-104424000D01*
X87049000Y-108956000D02*
X87049000Y-107680000D01*
X87049000Y-105720000D02*
X87049000Y-104444000D01*
X87009000Y-108934000D02*
X87009000Y-107680000D01*
X87009000Y-105720000D02*
X87009000Y-104466000D01*
X86969000Y-108912000D02*
X86969000Y-107680000D01*
X86969000Y-105720000D02*
X86969000Y-104488000D01*
X86929000Y-108889000D02*
X86929000Y-107680000D01*
X86929000Y-105720000D02*
X86929000Y-104511000D01*
X86889000Y-108865000D02*
X86889000Y-107680000D01*
X86889000Y-105720000D02*
X86889000Y-104535000D01*
X86849000Y-108840000D02*
X86849000Y-107680000D01*
X86849000Y-105720000D02*
X86849000Y-104560000D01*
X86809000Y-108813000D02*
X86809000Y-107680000D01*
X86809000Y-105720000D02*
X86809000Y-104587000D01*
X86769000Y-108786000D02*
X86769000Y-107680000D01*
X86769000Y-105720000D02*
X86769000Y-104614000D01*
X86729000Y-108758000D02*
X86729000Y-107680000D01*
X86729000Y-105720000D02*
X86729000Y-104642000D01*
X86689000Y-108728000D02*
X86689000Y-107680000D01*
X86689000Y-105720000D02*
X86689000Y-104672000D01*
X86649000Y-108697000D02*
X86649000Y-107680000D01*
X86649000Y-105720000D02*
X86649000Y-104703000D01*
X86609000Y-108665000D02*
X86609000Y-107680000D01*
X86609000Y-105720000D02*
X86609000Y-104735000D01*
X86569000Y-108632000D02*
X86569000Y-107680000D01*
X86569000Y-105720000D02*
X86569000Y-104768000D01*
X86529000Y-108597000D02*
X86529000Y-107680000D01*
X86529000Y-105720000D02*
X86529000Y-104803000D01*
X86489000Y-108561000D02*
X86489000Y-107680000D01*
X86489000Y-105720000D02*
X86489000Y-104839000D01*
X86449000Y-108523000D02*
X86449000Y-107680000D01*
X86449000Y-105720000D02*
X86449000Y-104877000D01*
X86409000Y-108483000D02*
X86409000Y-107680000D01*
X86409000Y-105720000D02*
X86409000Y-104917000D01*
X86369000Y-108442000D02*
X86369000Y-107680000D01*
X86369000Y-105720000D02*
X86369000Y-104958000D01*
X86329000Y-108399000D02*
X86329000Y-107680000D01*
X86329000Y-105720000D02*
X86329000Y-105001000D01*
X86289000Y-108354000D02*
X86289000Y-107680000D01*
X86289000Y-105720000D02*
X86289000Y-105046000D01*
X86249000Y-108306000D02*
X86249000Y-107680000D01*
X86249000Y-105720000D02*
X86249000Y-105094000D01*
X86209000Y-108256000D02*
X86209000Y-107680000D01*
X86209000Y-105720000D02*
X86209000Y-105144000D01*
X86169000Y-108204000D02*
X86169000Y-107680000D01*
X86169000Y-105720000D02*
X86169000Y-105196000D01*
X86129000Y-108148000D02*
X86129000Y-107680000D01*
X86129000Y-105720000D02*
X86129000Y-105252000D01*
X86089000Y-108090000D02*
X86089000Y-107680000D01*
X86089000Y-105720000D02*
X86089000Y-105310000D01*
X86049000Y-108027000D02*
X86049000Y-107680000D01*
X86049000Y-105720000D02*
X86049000Y-105373000D01*
X86009000Y-107961000D02*
X86009000Y-105439000D01*
X85969000Y-107889000D02*
X85969000Y-105511000D01*
X85929000Y-107812000D02*
X85929000Y-105588000D01*
X85889000Y-107728000D02*
X85889000Y-105672000D01*
X85849000Y-107634000D02*
X85849000Y-105766000D01*
X85809000Y-107529000D02*
X85809000Y-105871000D01*
X85769000Y-107407000D02*
X85769000Y-105993000D01*
X85729000Y-107259000D02*
X85729000Y-106141000D01*
X85689000Y-107054000D02*
X85689000Y-106346000D01*
X91700000Y-106700000D02*
X90500000Y-106700000D01*
X91100000Y-107350000D02*
X91100000Y-106050000D01*
X179946863Y-101618600D02*
G75*
G03X175152564Y-101620000I-2396863J-981400D01*
G01*
X179946863Y-103581400D02*
G75*
G02X175152564Y-103580000I-2396863J981400D01*
G01*
X179946863Y-103581400D02*
G75*
G03X179947436Y-101620000I-2396863J981400D01*
G01*
X177550000Y-100050000D02*
X177550000Y-105150000D01*
X177590000Y-100050000D02*
X177590000Y-105150000D01*
X177630000Y-100051000D02*
X177630000Y-105149000D01*
X177670000Y-100052000D02*
X177670000Y-105148000D01*
X177710000Y-100054000D02*
X177710000Y-105146000D01*
X177750000Y-100057000D02*
X177750000Y-105143000D01*
X177790000Y-100061000D02*
X177790000Y-105139000D01*
X177830000Y-100065000D02*
X177830000Y-101620000D01*
X177830000Y-103580000D02*
X177830000Y-105135000D01*
X177870000Y-100069000D02*
X177870000Y-101620000D01*
X177870000Y-103580000D02*
X177870000Y-105131000D01*
X177910000Y-100075000D02*
X177910000Y-101620000D01*
X177910000Y-103580000D02*
X177910000Y-105125000D01*
X177950000Y-100081000D02*
X177950000Y-101620000D01*
X177950000Y-103580000D02*
X177950000Y-105119000D01*
X177990000Y-100087000D02*
X177990000Y-101620000D01*
X177990000Y-103580000D02*
X177990000Y-105113000D01*
X178030000Y-100094000D02*
X178030000Y-101620000D01*
X178030000Y-103580000D02*
X178030000Y-105106000D01*
X178070000Y-100102000D02*
X178070000Y-101620000D01*
X178070000Y-103580000D02*
X178070000Y-105098000D01*
X178110000Y-100111000D02*
X178110000Y-101620000D01*
X178110000Y-103580000D02*
X178110000Y-105089000D01*
X178150000Y-100120000D02*
X178150000Y-101620000D01*
X178150000Y-103580000D02*
X178150000Y-105080000D01*
X178190000Y-100130000D02*
X178190000Y-101620000D01*
X178190000Y-103580000D02*
X178190000Y-105070000D01*
X178230000Y-100140000D02*
X178230000Y-101620000D01*
X178230000Y-103580000D02*
X178230000Y-105060000D01*
X178271000Y-100152000D02*
X178271000Y-101620000D01*
X178271000Y-103580000D02*
X178271000Y-105048000D01*
X178311000Y-100164000D02*
X178311000Y-101620000D01*
X178311000Y-103580000D02*
X178311000Y-105036000D01*
X178351000Y-100176000D02*
X178351000Y-101620000D01*
X178351000Y-103580000D02*
X178351000Y-105024000D01*
X178391000Y-100190000D02*
X178391000Y-101620000D01*
X178391000Y-103580000D02*
X178391000Y-105010000D01*
X178431000Y-100204000D02*
X178431000Y-101620000D01*
X178431000Y-103580000D02*
X178431000Y-104996000D01*
X178471000Y-100218000D02*
X178471000Y-101620000D01*
X178471000Y-103580000D02*
X178471000Y-104982000D01*
X178511000Y-100234000D02*
X178511000Y-101620000D01*
X178511000Y-103580000D02*
X178511000Y-104966000D01*
X178551000Y-100250000D02*
X178551000Y-101620000D01*
X178551000Y-103580000D02*
X178551000Y-104950000D01*
X178591000Y-100267000D02*
X178591000Y-101620000D01*
X178591000Y-103580000D02*
X178591000Y-104933000D01*
X178631000Y-100285000D02*
X178631000Y-101620000D01*
X178631000Y-103580000D02*
X178631000Y-104915000D01*
X178671000Y-100304000D02*
X178671000Y-101620000D01*
X178671000Y-103580000D02*
X178671000Y-104896000D01*
X178711000Y-100324000D02*
X178711000Y-101620000D01*
X178711000Y-103580000D02*
X178711000Y-104876000D01*
X178751000Y-100344000D02*
X178751000Y-101620000D01*
X178751000Y-103580000D02*
X178751000Y-104856000D01*
X178791000Y-100366000D02*
X178791000Y-101620000D01*
X178791000Y-103580000D02*
X178791000Y-104834000D01*
X178831000Y-100388000D02*
X178831000Y-101620000D01*
X178831000Y-103580000D02*
X178831000Y-104812000D01*
X178871000Y-100411000D02*
X178871000Y-101620000D01*
X178871000Y-103580000D02*
X178871000Y-104789000D01*
X178911000Y-100435000D02*
X178911000Y-101620000D01*
X178911000Y-103580000D02*
X178911000Y-104765000D01*
X178951000Y-100460000D02*
X178951000Y-101620000D01*
X178951000Y-103580000D02*
X178951000Y-104740000D01*
X178991000Y-100487000D02*
X178991000Y-101620000D01*
X178991000Y-103580000D02*
X178991000Y-104713000D01*
X179031000Y-100514000D02*
X179031000Y-101620000D01*
X179031000Y-103580000D02*
X179031000Y-104686000D01*
X179071000Y-100542000D02*
X179071000Y-101620000D01*
X179071000Y-103580000D02*
X179071000Y-104658000D01*
X179111000Y-100572000D02*
X179111000Y-101620000D01*
X179111000Y-103580000D02*
X179111000Y-104628000D01*
X179151000Y-100603000D02*
X179151000Y-101620000D01*
X179151000Y-103580000D02*
X179151000Y-104597000D01*
X179191000Y-100635000D02*
X179191000Y-101620000D01*
X179191000Y-103580000D02*
X179191000Y-104565000D01*
X179231000Y-100668000D02*
X179231000Y-101620000D01*
X179231000Y-103580000D02*
X179231000Y-104532000D01*
X179271000Y-100703000D02*
X179271000Y-101620000D01*
X179271000Y-103580000D02*
X179271000Y-104497000D01*
X179311000Y-100739000D02*
X179311000Y-101620000D01*
X179311000Y-103580000D02*
X179311000Y-104461000D01*
X179351000Y-100777000D02*
X179351000Y-101620000D01*
X179351000Y-103580000D02*
X179351000Y-104423000D01*
X179391000Y-100817000D02*
X179391000Y-101620000D01*
X179391000Y-103580000D02*
X179391000Y-104383000D01*
X179431000Y-100858000D02*
X179431000Y-101620000D01*
X179431000Y-103580000D02*
X179431000Y-104342000D01*
X179471000Y-100901000D02*
X179471000Y-101620000D01*
X179471000Y-103580000D02*
X179471000Y-104299000D01*
X179511000Y-100946000D02*
X179511000Y-101620000D01*
X179511000Y-103580000D02*
X179511000Y-104254000D01*
X179551000Y-100994000D02*
X179551000Y-101620000D01*
X179551000Y-103580000D02*
X179551000Y-104206000D01*
X179591000Y-101044000D02*
X179591000Y-101620000D01*
X179591000Y-103580000D02*
X179591000Y-104156000D01*
X179631000Y-101096000D02*
X179631000Y-101620000D01*
X179631000Y-103580000D02*
X179631000Y-104104000D01*
X179671000Y-101152000D02*
X179671000Y-101620000D01*
X179671000Y-103580000D02*
X179671000Y-104048000D01*
X179711000Y-101210000D02*
X179711000Y-101620000D01*
X179711000Y-103580000D02*
X179711000Y-103990000D01*
X179751000Y-101273000D02*
X179751000Y-101620000D01*
X179751000Y-103580000D02*
X179751000Y-103927000D01*
X179791000Y-101339000D02*
X179791000Y-103861000D01*
X179831000Y-101411000D02*
X179831000Y-103789000D01*
X179871000Y-101488000D02*
X179871000Y-103712000D01*
X179911000Y-101572000D02*
X179911000Y-103628000D01*
X179951000Y-101666000D02*
X179951000Y-103534000D01*
X179991000Y-101771000D02*
X179991000Y-103429000D01*
X180031000Y-101893000D02*
X180031000Y-103307000D01*
X180071000Y-102041000D02*
X180071000Y-103159000D01*
X180111000Y-102246000D02*
X180111000Y-102954000D01*
X174100000Y-102600000D02*
X175300000Y-102600000D01*
X174700000Y-101950000D02*
X174700000Y-103250000D01*
X167246863Y-101518600D02*
G75*
G03X162452564Y-101520000I-2396863J-981400D01*
G01*
X167246863Y-103481400D02*
G75*
G02X162452564Y-103480000I-2396863J981400D01*
G01*
X167246863Y-103481400D02*
G75*
G03X167247436Y-101520000I-2396863J981400D01*
G01*
X164850000Y-99950000D02*
X164850000Y-105050000D01*
X164890000Y-99950000D02*
X164890000Y-105050000D01*
X164930000Y-99951000D02*
X164930000Y-105049000D01*
X164970000Y-99952000D02*
X164970000Y-105048000D01*
X165010000Y-99954000D02*
X165010000Y-105046000D01*
X165050000Y-99957000D02*
X165050000Y-105043000D01*
X165090000Y-99961000D02*
X165090000Y-105039000D01*
X165130000Y-99965000D02*
X165130000Y-101520000D01*
X165130000Y-103480000D02*
X165130000Y-105035000D01*
X165170000Y-99969000D02*
X165170000Y-101520000D01*
X165170000Y-103480000D02*
X165170000Y-105031000D01*
X165210000Y-99975000D02*
X165210000Y-101520000D01*
X165210000Y-103480000D02*
X165210000Y-105025000D01*
X165250000Y-99981000D02*
X165250000Y-101520000D01*
X165250000Y-103480000D02*
X165250000Y-105019000D01*
X165290000Y-99987000D02*
X165290000Y-101520000D01*
X165290000Y-103480000D02*
X165290000Y-105013000D01*
X165330000Y-99994000D02*
X165330000Y-101520000D01*
X165330000Y-103480000D02*
X165330000Y-105006000D01*
X165370000Y-100002000D02*
X165370000Y-101520000D01*
X165370000Y-103480000D02*
X165370000Y-104998000D01*
X165410000Y-100011000D02*
X165410000Y-101520000D01*
X165410000Y-103480000D02*
X165410000Y-104989000D01*
X165450000Y-100020000D02*
X165450000Y-101520000D01*
X165450000Y-103480000D02*
X165450000Y-104980000D01*
X165490000Y-100030000D02*
X165490000Y-101520000D01*
X165490000Y-103480000D02*
X165490000Y-104970000D01*
X165530000Y-100040000D02*
X165530000Y-101520000D01*
X165530000Y-103480000D02*
X165530000Y-104960000D01*
X165571000Y-100052000D02*
X165571000Y-101520000D01*
X165571000Y-103480000D02*
X165571000Y-104948000D01*
X165611000Y-100064000D02*
X165611000Y-101520000D01*
X165611000Y-103480000D02*
X165611000Y-104936000D01*
X165651000Y-100076000D02*
X165651000Y-101520000D01*
X165651000Y-103480000D02*
X165651000Y-104924000D01*
X165691000Y-100090000D02*
X165691000Y-101520000D01*
X165691000Y-103480000D02*
X165691000Y-104910000D01*
X165731000Y-100104000D02*
X165731000Y-101520000D01*
X165731000Y-103480000D02*
X165731000Y-104896000D01*
X165771000Y-100118000D02*
X165771000Y-101520000D01*
X165771000Y-103480000D02*
X165771000Y-104882000D01*
X165811000Y-100134000D02*
X165811000Y-101520000D01*
X165811000Y-103480000D02*
X165811000Y-104866000D01*
X165851000Y-100150000D02*
X165851000Y-101520000D01*
X165851000Y-103480000D02*
X165851000Y-104850000D01*
X165891000Y-100167000D02*
X165891000Y-101520000D01*
X165891000Y-103480000D02*
X165891000Y-104833000D01*
X165931000Y-100185000D02*
X165931000Y-101520000D01*
X165931000Y-103480000D02*
X165931000Y-104815000D01*
X165971000Y-100204000D02*
X165971000Y-101520000D01*
X165971000Y-103480000D02*
X165971000Y-104796000D01*
X166011000Y-100224000D02*
X166011000Y-101520000D01*
X166011000Y-103480000D02*
X166011000Y-104776000D01*
X166051000Y-100244000D02*
X166051000Y-101520000D01*
X166051000Y-103480000D02*
X166051000Y-104756000D01*
X166091000Y-100266000D02*
X166091000Y-101520000D01*
X166091000Y-103480000D02*
X166091000Y-104734000D01*
X166131000Y-100288000D02*
X166131000Y-101520000D01*
X166131000Y-103480000D02*
X166131000Y-104712000D01*
X166171000Y-100311000D02*
X166171000Y-101520000D01*
X166171000Y-103480000D02*
X166171000Y-104689000D01*
X166211000Y-100335000D02*
X166211000Y-101520000D01*
X166211000Y-103480000D02*
X166211000Y-104665000D01*
X166251000Y-100360000D02*
X166251000Y-101520000D01*
X166251000Y-103480000D02*
X166251000Y-104640000D01*
X166291000Y-100387000D02*
X166291000Y-101520000D01*
X166291000Y-103480000D02*
X166291000Y-104613000D01*
X166331000Y-100414000D02*
X166331000Y-101520000D01*
X166331000Y-103480000D02*
X166331000Y-104586000D01*
X166371000Y-100442000D02*
X166371000Y-101520000D01*
X166371000Y-103480000D02*
X166371000Y-104558000D01*
X166411000Y-100472000D02*
X166411000Y-101520000D01*
X166411000Y-103480000D02*
X166411000Y-104528000D01*
X166451000Y-100503000D02*
X166451000Y-101520000D01*
X166451000Y-103480000D02*
X166451000Y-104497000D01*
X166491000Y-100535000D02*
X166491000Y-101520000D01*
X166491000Y-103480000D02*
X166491000Y-104465000D01*
X166531000Y-100568000D02*
X166531000Y-101520000D01*
X166531000Y-103480000D02*
X166531000Y-104432000D01*
X166571000Y-100603000D02*
X166571000Y-101520000D01*
X166571000Y-103480000D02*
X166571000Y-104397000D01*
X166611000Y-100639000D02*
X166611000Y-101520000D01*
X166611000Y-103480000D02*
X166611000Y-104361000D01*
X166651000Y-100677000D02*
X166651000Y-101520000D01*
X166651000Y-103480000D02*
X166651000Y-104323000D01*
X166691000Y-100717000D02*
X166691000Y-101520000D01*
X166691000Y-103480000D02*
X166691000Y-104283000D01*
X166731000Y-100758000D02*
X166731000Y-101520000D01*
X166731000Y-103480000D02*
X166731000Y-104242000D01*
X166771000Y-100801000D02*
X166771000Y-101520000D01*
X166771000Y-103480000D02*
X166771000Y-104199000D01*
X166811000Y-100846000D02*
X166811000Y-101520000D01*
X166811000Y-103480000D02*
X166811000Y-104154000D01*
X166851000Y-100894000D02*
X166851000Y-101520000D01*
X166851000Y-103480000D02*
X166851000Y-104106000D01*
X166891000Y-100944000D02*
X166891000Y-101520000D01*
X166891000Y-103480000D02*
X166891000Y-104056000D01*
X166931000Y-100996000D02*
X166931000Y-101520000D01*
X166931000Y-103480000D02*
X166931000Y-104004000D01*
X166971000Y-101052000D02*
X166971000Y-101520000D01*
X166971000Y-103480000D02*
X166971000Y-103948000D01*
X167011000Y-101110000D02*
X167011000Y-101520000D01*
X167011000Y-103480000D02*
X167011000Y-103890000D01*
X167051000Y-101173000D02*
X167051000Y-101520000D01*
X167051000Y-103480000D02*
X167051000Y-103827000D01*
X167091000Y-101239000D02*
X167091000Y-103761000D01*
X167131000Y-101311000D02*
X167131000Y-103689000D01*
X167171000Y-101388000D02*
X167171000Y-103612000D01*
X167211000Y-101472000D02*
X167211000Y-103528000D01*
X167251000Y-101566000D02*
X167251000Y-103434000D01*
X167291000Y-101671000D02*
X167291000Y-103329000D01*
X167331000Y-101793000D02*
X167331000Y-103207000D01*
X167371000Y-101941000D02*
X167371000Y-103059000D01*
X167411000Y-102146000D02*
X167411000Y-102854000D01*
X161400000Y-102500000D02*
X162600000Y-102500000D01*
X162000000Y-101850000D02*
X162000000Y-103150000D01*
X173575210Y-101620672D02*
G75*
G03X169325100Y-101620000I-2125210J-979328D01*
G01*
X173575210Y-103579328D02*
G75*
G02X169325100Y-103580000I-2125210J979328D01*
G01*
X173575210Y-103579328D02*
G75*
G03X173574900Y-101620000I-2125210J979328D01*
G01*
X168000000Y-102600000D02*
X169200000Y-102600000D01*
X168600000Y-101950000D02*
X168600000Y-103250000D01*
X184290000Y-114550000D02*
G75*
G03X184290000Y-114550000I-4090000J0D01*
G01*
X176150000Y-114550000D02*
X184250000Y-114550000D01*
X176150000Y-114510000D02*
X184250000Y-114510000D01*
X176150000Y-114470000D02*
X184250000Y-114470000D01*
X176151000Y-114430000D02*
X184249000Y-114430000D01*
X176153000Y-114390000D02*
X184247000Y-114390000D01*
X176154000Y-114350000D02*
X184246000Y-114350000D01*
X176157000Y-114310000D02*
X184243000Y-114310000D01*
X176159000Y-114270000D02*
X179220000Y-114270000D01*
X181180000Y-114270000D02*
X184241000Y-114270000D01*
X176162000Y-114230000D02*
X179220000Y-114230000D01*
X181180000Y-114230000D02*
X184238000Y-114230000D01*
X176165000Y-114190000D02*
X179220000Y-114190000D01*
X181180000Y-114190000D02*
X184235000Y-114190000D01*
X176169000Y-114150000D02*
X179220000Y-114150000D01*
X181180000Y-114150000D02*
X184231000Y-114150000D01*
X176173000Y-114110000D02*
X179220000Y-114110000D01*
X181180000Y-114110000D02*
X184227000Y-114110000D01*
X176178000Y-114070000D02*
X179220000Y-114070000D01*
X181180000Y-114070000D02*
X184222000Y-114070000D01*
X176183000Y-114030000D02*
X179220000Y-114030000D01*
X181180000Y-114030000D02*
X184217000Y-114030000D01*
X176188000Y-113990000D02*
X179220000Y-113990000D01*
X181180000Y-113990000D02*
X184212000Y-113990000D01*
X176194000Y-113950000D02*
X179220000Y-113950000D01*
X181180000Y-113950000D02*
X184206000Y-113950000D01*
X176200000Y-113910000D02*
X179220000Y-113910000D01*
X181180000Y-113910000D02*
X184200000Y-113910000D01*
X176206000Y-113870000D02*
X179220000Y-113870000D01*
X181180000Y-113870000D02*
X184194000Y-113870000D01*
X176213000Y-113829000D02*
X179220000Y-113829000D01*
X181180000Y-113829000D02*
X184187000Y-113829000D01*
X176221000Y-113789000D02*
X179220000Y-113789000D01*
X181180000Y-113789000D02*
X184179000Y-113789000D01*
X176229000Y-113749000D02*
X179220000Y-113749000D01*
X181180000Y-113749000D02*
X184171000Y-113749000D01*
X176237000Y-113709000D02*
X179220000Y-113709000D01*
X181180000Y-113709000D02*
X184163000Y-113709000D01*
X176245000Y-113669000D02*
X179220000Y-113669000D01*
X181180000Y-113669000D02*
X184155000Y-113669000D01*
X176254000Y-113629000D02*
X179220000Y-113629000D01*
X181180000Y-113629000D02*
X184146000Y-113629000D01*
X176264000Y-113589000D02*
X179220000Y-113589000D01*
X181180000Y-113589000D02*
X184136000Y-113589000D01*
X176274000Y-113549000D02*
X179220000Y-113549000D01*
X181180000Y-113549000D02*
X184126000Y-113549000D01*
X176284000Y-113509000D02*
X179220000Y-113509000D01*
X181180000Y-113509000D02*
X184116000Y-113509000D01*
X176295000Y-113469000D02*
X179220000Y-113469000D01*
X181180000Y-113469000D02*
X184105000Y-113469000D01*
X176306000Y-113429000D02*
X179220000Y-113429000D01*
X181180000Y-113429000D02*
X184094000Y-113429000D01*
X176317000Y-113389000D02*
X179220000Y-113389000D01*
X181180000Y-113389000D02*
X184083000Y-113389000D01*
X176330000Y-113349000D02*
X179220000Y-113349000D01*
X181180000Y-113349000D02*
X184070000Y-113349000D01*
X176342000Y-113309000D02*
X179220000Y-113309000D01*
X181180000Y-113309000D02*
X184058000Y-113309000D01*
X176355000Y-113269000D02*
X179220000Y-113269000D01*
X181180000Y-113269000D02*
X184045000Y-113269000D01*
X176368000Y-113229000D02*
X179220000Y-113229000D01*
X181180000Y-113229000D02*
X184032000Y-113229000D01*
X176382000Y-113189000D02*
X179220000Y-113189000D01*
X181180000Y-113189000D02*
X184018000Y-113189000D01*
X176397000Y-113149000D02*
X179220000Y-113149000D01*
X181180000Y-113149000D02*
X184003000Y-113149000D01*
X176411000Y-113109000D02*
X179220000Y-113109000D01*
X181180000Y-113109000D02*
X183989000Y-113109000D01*
X176427000Y-113069000D02*
X179220000Y-113069000D01*
X181180000Y-113069000D02*
X183973000Y-113069000D01*
X176442000Y-113029000D02*
X179220000Y-113029000D01*
X181180000Y-113029000D02*
X183958000Y-113029000D01*
X176459000Y-112989000D02*
X179220000Y-112989000D01*
X181180000Y-112989000D02*
X183941000Y-112989000D01*
X176475000Y-112949000D02*
X179220000Y-112949000D01*
X181180000Y-112949000D02*
X183925000Y-112949000D01*
X176493000Y-112909000D02*
X179220000Y-112909000D01*
X181180000Y-112909000D02*
X183907000Y-112909000D01*
X176510000Y-112869000D02*
X179220000Y-112869000D01*
X181180000Y-112869000D02*
X183890000Y-112869000D01*
X176529000Y-112829000D02*
X179220000Y-112829000D01*
X181180000Y-112829000D02*
X183871000Y-112829000D01*
X176548000Y-112789000D02*
X179220000Y-112789000D01*
X181180000Y-112789000D02*
X183852000Y-112789000D01*
X176567000Y-112749000D02*
X179220000Y-112749000D01*
X181180000Y-112749000D02*
X183833000Y-112749000D01*
X176587000Y-112709000D02*
X179220000Y-112709000D01*
X181180000Y-112709000D02*
X183813000Y-112709000D01*
X176607000Y-112669000D02*
X179220000Y-112669000D01*
X181180000Y-112669000D02*
X183793000Y-112669000D01*
X176628000Y-112629000D02*
X179220000Y-112629000D01*
X181180000Y-112629000D02*
X183772000Y-112629000D01*
X176650000Y-112589000D02*
X179220000Y-112589000D01*
X181180000Y-112589000D02*
X183750000Y-112589000D01*
X176672000Y-112549000D02*
X179220000Y-112549000D01*
X181180000Y-112549000D02*
X183728000Y-112549000D01*
X176695000Y-112509000D02*
X179220000Y-112509000D01*
X181180000Y-112509000D02*
X183705000Y-112509000D01*
X176718000Y-112469000D02*
X179220000Y-112469000D01*
X181180000Y-112469000D02*
X183682000Y-112469000D01*
X176742000Y-112429000D02*
X179220000Y-112429000D01*
X181180000Y-112429000D02*
X183658000Y-112429000D01*
X176766000Y-112389000D02*
X179220000Y-112389000D01*
X181180000Y-112389000D02*
X183634000Y-112389000D01*
X176792000Y-112349000D02*
X179220000Y-112349000D01*
X181180000Y-112349000D02*
X183608000Y-112349000D01*
X176817000Y-112309000D02*
X183583000Y-112309000D01*
X176844000Y-112269000D02*
X183556000Y-112269000D01*
X176871000Y-112229000D02*
X183529000Y-112229000D01*
X176899000Y-112189000D02*
X183501000Y-112189000D01*
X176928000Y-112149000D02*
X183472000Y-112149000D01*
X176957000Y-112109000D02*
X183443000Y-112109000D01*
X176987000Y-112069000D02*
X183413000Y-112069000D01*
X177018000Y-112029000D02*
X183382000Y-112029000D01*
X177050000Y-111989000D02*
X183350000Y-111989000D01*
X177082000Y-111949000D02*
X183318000Y-111949000D01*
X177116000Y-111909000D02*
X183284000Y-111909000D01*
X177150000Y-111869000D02*
X183250000Y-111869000D01*
X177185000Y-111829000D02*
X183215000Y-111829000D01*
X177221000Y-111789000D02*
X183179000Y-111789000D01*
X177258000Y-111749000D02*
X183142000Y-111749000D01*
X177296000Y-111709000D02*
X183104000Y-111709000D01*
X177335000Y-111669000D02*
X183065000Y-111669000D01*
X177376000Y-111629000D02*
X183024000Y-111629000D01*
X177417000Y-111589000D02*
X182983000Y-111589000D01*
X177460000Y-111549000D02*
X182940000Y-111549000D01*
X177503000Y-111509000D02*
X182897000Y-111509000D01*
X177548000Y-111469000D02*
X182852000Y-111469000D01*
X177595000Y-111429000D02*
X182805000Y-111429000D01*
X177643000Y-111389000D02*
X182757000Y-111389000D01*
X177692000Y-111349000D02*
X182708000Y-111349000D01*
X177743000Y-111309000D02*
X182657000Y-111309000D01*
X177796000Y-111269000D02*
X182604000Y-111269000D01*
X177851000Y-111229000D02*
X182549000Y-111229000D01*
X177907000Y-111189000D02*
X182493000Y-111189000D01*
X177966000Y-111149000D02*
X182434000Y-111149000D01*
X178027000Y-111109000D02*
X182373000Y-111109000D01*
X178091000Y-111069000D02*
X182309000Y-111069000D01*
X178157000Y-111029000D02*
X182243000Y-111029000D01*
X178226000Y-110989000D02*
X182174000Y-110989000D01*
X178298000Y-110949000D02*
X182102000Y-110949000D01*
X178374000Y-110909000D02*
X182026000Y-110909000D01*
X178455000Y-110869000D02*
X181945000Y-110869000D01*
X178540000Y-110829000D02*
X181860000Y-110829000D01*
X178630000Y-110789000D02*
X181770000Y-110789000D01*
X178727000Y-110749000D02*
X181673000Y-110749000D01*
X178831000Y-110709000D02*
X181569000Y-110709000D01*
X178946000Y-110669000D02*
X181454000Y-110669000D01*
X179073000Y-110629000D02*
X181327000Y-110629000D01*
X179217000Y-110589000D02*
X181183000Y-110589000D01*
X179386000Y-110549000D02*
X181014000Y-110549000D01*
X179602000Y-110509000D02*
X180798000Y-110509000D01*
X179954000Y-110469000D02*
X180446000Y-110469000D01*
X180200000Y-118000000D02*
X180200000Y-116800000D01*
X179550000Y-117400000D02*
X180850000Y-117400000D01*
X162290000Y-88450000D02*
G75*
G03X162290000Y-88450000I-4090000J0D01*
G01*
X154150000Y-88450000D02*
X162250000Y-88450000D01*
X154150000Y-88410000D02*
X162250000Y-88410000D01*
X154150000Y-88370000D02*
X162250000Y-88370000D01*
X154151000Y-88330000D02*
X162249000Y-88330000D01*
X154153000Y-88290000D02*
X162247000Y-88290000D01*
X154154000Y-88250000D02*
X162246000Y-88250000D01*
X154157000Y-88210000D02*
X162243000Y-88210000D01*
X154159000Y-88170000D02*
X157220000Y-88170000D01*
X159180000Y-88170000D02*
X162241000Y-88170000D01*
X154162000Y-88130000D02*
X157220000Y-88130000D01*
X159180000Y-88130000D02*
X162238000Y-88130000D01*
X154165000Y-88090000D02*
X157220000Y-88090000D01*
X159180000Y-88090000D02*
X162235000Y-88090000D01*
X154169000Y-88050000D02*
X157220000Y-88050000D01*
X159180000Y-88050000D02*
X162231000Y-88050000D01*
X154173000Y-88010000D02*
X157220000Y-88010000D01*
X159180000Y-88010000D02*
X162227000Y-88010000D01*
X154178000Y-87970000D02*
X157220000Y-87970000D01*
X159180000Y-87970000D02*
X162222000Y-87970000D01*
X154183000Y-87930000D02*
X157220000Y-87930000D01*
X159180000Y-87930000D02*
X162217000Y-87930000D01*
X154188000Y-87890000D02*
X157220000Y-87890000D01*
X159180000Y-87890000D02*
X162212000Y-87890000D01*
X154194000Y-87850000D02*
X157220000Y-87850000D01*
X159180000Y-87850000D02*
X162206000Y-87850000D01*
X154200000Y-87810000D02*
X157220000Y-87810000D01*
X159180000Y-87810000D02*
X162200000Y-87810000D01*
X154206000Y-87770000D02*
X157220000Y-87770000D01*
X159180000Y-87770000D02*
X162194000Y-87770000D01*
X154213000Y-87729000D02*
X157220000Y-87729000D01*
X159180000Y-87729000D02*
X162187000Y-87729000D01*
X154221000Y-87689000D02*
X157220000Y-87689000D01*
X159180000Y-87689000D02*
X162179000Y-87689000D01*
X154229000Y-87649000D02*
X157220000Y-87649000D01*
X159180000Y-87649000D02*
X162171000Y-87649000D01*
X154237000Y-87609000D02*
X157220000Y-87609000D01*
X159180000Y-87609000D02*
X162163000Y-87609000D01*
X154245000Y-87569000D02*
X157220000Y-87569000D01*
X159180000Y-87569000D02*
X162155000Y-87569000D01*
X154254000Y-87529000D02*
X157220000Y-87529000D01*
X159180000Y-87529000D02*
X162146000Y-87529000D01*
X154264000Y-87489000D02*
X157220000Y-87489000D01*
X159180000Y-87489000D02*
X162136000Y-87489000D01*
X154274000Y-87449000D02*
X157220000Y-87449000D01*
X159180000Y-87449000D02*
X162126000Y-87449000D01*
X154284000Y-87409000D02*
X157220000Y-87409000D01*
X159180000Y-87409000D02*
X162116000Y-87409000D01*
X154295000Y-87369000D02*
X157220000Y-87369000D01*
X159180000Y-87369000D02*
X162105000Y-87369000D01*
X154306000Y-87329000D02*
X157220000Y-87329000D01*
X159180000Y-87329000D02*
X162094000Y-87329000D01*
X154317000Y-87289000D02*
X157220000Y-87289000D01*
X159180000Y-87289000D02*
X162083000Y-87289000D01*
X154330000Y-87249000D02*
X157220000Y-87249000D01*
X159180000Y-87249000D02*
X162070000Y-87249000D01*
X154342000Y-87209000D02*
X157220000Y-87209000D01*
X159180000Y-87209000D02*
X162058000Y-87209000D01*
X154355000Y-87169000D02*
X157220000Y-87169000D01*
X159180000Y-87169000D02*
X162045000Y-87169000D01*
X154368000Y-87129000D02*
X157220000Y-87129000D01*
X159180000Y-87129000D02*
X162032000Y-87129000D01*
X154382000Y-87089000D02*
X157220000Y-87089000D01*
X159180000Y-87089000D02*
X162018000Y-87089000D01*
X154397000Y-87049000D02*
X157220000Y-87049000D01*
X159180000Y-87049000D02*
X162003000Y-87049000D01*
X154411000Y-87009000D02*
X157220000Y-87009000D01*
X159180000Y-87009000D02*
X161989000Y-87009000D01*
X154427000Y-86969000D02*
X157220000Y-86969000D01*
X159180000Y-86969000D02*
X161973000Y-86969000D01*
X154442000Y-86929000D02*
X157220000Y-86929000D01*
X159180000Y-86929000D02*
X161958000Y-86929000D01*
X154459000Y-86889000D02*
X157220000Y-86889000D01*
X159180000Y-86889000D02*
X161941000Y-86889000D01*
X154475000Y-86849000D02*
X157220000Y-86849000D01*
X159180000Y-86849000D02*
X161925000Y-86849000D01*
X154493000Y-86809000D02*
X157220000Y-86809000D01*
X159180000Y-86809000D02*
X161907000Y-86809000D01*
X154510000Y-86769000D02*
X157220000Y-86769000D01*
X159180000Y-86769000D02*
X161890000Y-86769000D01*
X154529000Y-86729000D02*
X157220000Y-86729000D01*
X159180000Y-86729000D02*
X161871000Y-86729000D01*
X154548000Y-86689000D02*
X157220000Y-86689000D01*
X159180000Y-86689000D02*
X161852000Y-86689000D01*
X154567000Y-86649000D02*
X157220000Y-86649000D01*
X159180000Y-86649000D02*
X161833000Y-86649000D01*
X154587000Y-86609000D02*
X157220000Y-86609000D01*
X159180000Y-86609000D02*
X161813000Y-86609000D01*
X154607000Y-86569000D02*
X157220000Y-86569000D01*
X159180000Y-86569000D02*
X161793000Y-86569000D01*
X154628000Y-86529000D02*
X157220000Y-86529000D01*
X159180000Y-86529000D02*
X161772000Y-86529000D01*
X154650000Y-86489000D02*
X157220000Y-86489000D01*
X159180000Y-86489000D02*
X161750000Y-86489000D01*
X154672000Y-86449000D02*
X157220000Y-86449000D01*
X159180000Y-86449000D02*
X161728000Y-86449000D01*
X154695000Y-86409000D02*
X157220000Y-86409000D01*
X159180000Y-86409000D02*
X161705000Y-86409000D01*
X154718000Y-86369000D02*
X157220000Y-86369000D01*
X159180000Y-86369000D02*
X161682000Y-86369000D01*
X154742000Y-86329000D02*
X157220000Y-86329000D01*
X159180000Y-86329000D02*
X161658000Y-86329000D01*
X154766000Y-86289000D02*
X157220000Y-86289000D01*
X159180000Y-86289000D02*
X161634000Y-86289000D01*
X154792000Y-86249000D02*
X157220000Y-86249000D01*
X159180000Y-86249000D02*
X161608000Y-86249000D01*
X154817000Y-86209000D02*
X161583000Y-86209000D01*
X154844000Y-86169000D02*
X161556000Y-86169000D01*
X154871000Y-86129000D02*
X161529000Y-86129000D01*
X154899000Y-86089000D02*
X161501000Y-86089000D01*
X154928000Y-86049000D02*
X161472000Y-86049000D01*
X154957000Y-86009000D02*
X161443000Y-86009000D01*
X154987000Y-85969000D02*
X161413000Y-85969000D01*
X155018000Y-85929000D02*
X161382000Y-85929000D01*
X155050000Y-85889000D02*
X161350000Y-85889000D01*
X155082000Y-85849000D02*
X161318000Y-85849000D01*
X155116000Y-85809000D02*
X161284000Y-85809000D01*
X155150000Y-85769000D02*
X161250000Y-85769000D01*
X155185000Y-85729000D02*
X161215000Y-85729000D01*
X155221000Y-85689000D02*
X161179000Y-85689000D01*
X155258000Y-85649000D02*
X161142000Y-85649000D01*
X155296000Y-85609000D02*
X161104000Y-85609000D01*
X155335000Y-85569000D02*
X161065000Y-85569000D01*
X155376000Y-85529000D02*
X161024000Y-85529000D01*
X155417000Y-85489000D02*
X160983000Y-85489000D01*
X155460000Y-85449000D02*
X160940000Y-85449000D01*
X155503000Y-85409000D02*
X160897000Y-85409000D01*
X155548000Y-85369000D02*
X160852000Y-85369000D01*
X155595000Y-85329000D02*
X160805000Y-85329000D01*
X155643000Y-85289000D02*
X160757000Y-85289000D01*
X155692000Y-85249000D02*
X160708000Y-85249000D01*
X155743000Y-85209000D02*
X160657000Y-85209000D01*
X155796000Y-85169000D02*
X160604000Y-85169000D01*
X155851000Y-85129000D02*
X160549000Y-85129000D01*
X155907000Y-85089000D02*
X160493000Y-85089000D01*
X155966000Y-85049000D02*
X160434000Y-85049000D01*
X156027000Y-85009000D02*
X160373000Y-85009000D01*
X156091000Y-84969000D02*
X160309000Y-84969000D01*
X156157000Y-84929000D02*
X160243000Y-84929000D01*
X156226000Y-84889000D02*
X160174000Y-84889000D01*
X156298000Y-84849000D02*
X160102000Y-84849000D01*
X156374000Y-84809000D02*
X160026000Y-84809000D01*
X156455000Y-84769000D02*
X159945000Y-84769000D01*
X156540000Y-84729000D02*
X159860000Y-84729000D01*
X156630000Y-84689000D02*
X159770000Y-84689000D01*
X156727000Y-84649000D02*
X159673000Y-84649000D01*
X156831000Y-84609000D02*
X159569000Y-84609000D01*
X156946000Y-84569000D02*
X159454000Y-84569000D01*
X157073000Y-84529000D02*
X159327000Y-84529000D01*
X157217000Y-84489000D02*
X159183000Y-84489000D01*
X157386000Y-84449000D02*
X159014000Y-84449000D01*
X157602000Y-84409000D02*
X158798000Y-84409000D01*
X157954000Y-84369000D02*
X158446000Y-84369000D01*
X158200000Y-91900000D02*
X158200000Y-90700000D01*
X157550000Y-91300000D02*
X158850000Y-91300000D01*
X128924790Y-97879328D02*
G75*
G03X133174900Y-97880000I2125210J979328D01*
G01*
X128924790Y-95920672D02*
G75*
G02X133174900Y-95920000I2125210J-979328D01*
G01*
X128924790Y-95920672D02*
G75*
G03X128925100Y-97880000I2125210J-979328D01*
G01*
X134500000Y-96900000D02*
X133300000Y-96900000D01*
X133900000Y-97550000D02*
X133900000Y-96250000D01*
X136324790Y-117679328D02*
G75*
G03X140574900Y-117680000I2125210J979328D01*
G01*
X136324790Y-115720672D02*
G75*
G02X140574900Y-115720000I2125210J-979328D01*
G01*
X136324790Y-115720672D02*
G75*
G03X136325100Y-117680000I2125210J-979328D01*
G01*
X141900000Y-116700000D02*
X140700000Y-116700000D01*
X141300000Y-117350000D02*
X141300000Y-116050000D01*
X131618600Y-137253137D02*
G75*
G03X131620000Y-142047436I981400J-2396863D01*
G01*
X133581400Y-137253137D02*
G75*
G02X133580000Y-142047436I-981400J-2396863D01*
G01*
X133581400Y-137253137D02*
G75*
G03X131620000Y-137252564I-981400J-2396863D01*
G01*
X130050000Y-139650000D02*
X135150000Y-139650000D01*
X130050000Y-139610000D02*
X135150000Y-139610000D01*
X130051000Y-139570000D02*
X135149000Y-139570000D01*
X130052000Y-139530000D02*
X135148000Y-139530000D01*
X130054000Y-139490000D02*
X135146000Y-139490000D01*
X130057000Y-139450000D02*
X135143000Y-139450000D01*
X130061000Y-139410000D02*
X135139000Y-139410000D01*
X130065000Y-139370000D02*
X131620000Y-139370000D01*
X133580000Y-139370000D02*
X135135000Y-139370000D01*
X130069000Y-139330000D02*
X131620000Y-139330000D01*
X133580000Y-139330000D02*
X135131000Y-139330000D01*
X130075000Y-139290000D02*
X131620000Y-139290000D01*
X133580000Y-139290000D02*
X135125000Y-139290000D01*
X130081000Y-139250000D02*
X131620000Y-139250000D01*
X133580000Y-139250000D02*
X135119000Y-139250000D01*
X130087000Y-139210000D02*
X131620000Y-139210000D01*
X133580000Y-139210000D02*
X135113000Y-139210000D01*
X130094000Y-139170000D02*
X131620000Y-139170000D01*
X133580000Y-139170000D02*
X135106000Y-139170000D01*
X130102000Y-139130000D02*
X131620000Y-139130000D01*
X133580000Y-139130000D02*
X135098000Y-139130000D01*
X130111000Y-139090000D02*
X131620000Y-139090000D01*
X133580000Y-139090000D02*
X135089000Y-139090000D01*
X130120000Y-139050000D02*
X131620000Y-139050000D01*
X133580000Y-139050000D02*
X135080000Y-139050000D01*
X130130000Y-139010000D02*
X131620000Y-139010000D01*
X133580000Y-139010000D02*
X135070000Y-139010000D01*
X130140000Y-138970000D02*
X131620000Y-138970000D01*
X133580000Y-138970000D02*
X135060000Y-138970000D01*
X130152000Y-138929000D02*
X131620000Y-138929000D01*
X133580000Y-138929000D02*
X135048000Y-138929000D01*
X130164000Y-138889000D02*
X131620000Y-138889000D01*
X133580000Y-138889000D02*
X135036000Y-138889000D01*
X130176000Y-138849000D02*
X131620000Y-138849000D01*
X133580000Y-138849000D02*
X135024000Y-138849000D01*
X130190000Y-138809000D02*
X131620000Y-138809000D01*
X133580000Y-138809000D02*
X135010000Y-138809000D01*
X130204000Y-138769000D02*
X131620000Y-138769000D01*
X133580000Y-138769000D02*
X134996000Y-138769000D01*
X130218000Y-138729000D02*
X131620000Y-138729000D01*
X133580000Y-138729000D02*
X134982000Y-138729000D01*
X130234000Y-138689000D02*
X131620000Y-138689000D01*
X133580000Y-138689000D02*
X134966000Y-138689000D01*
X130250000Y-138649000D02*
X131620000Y-138649000D01*
X133580000Y-138649000D02*
X134950000Y-138649000D01*
X130267000Y-138609000D02*
X131620000Y-138609000D01*
X133580000Y-138609000D02*
X134933000Y-138609000D01*
X130285000Y-138569000D02*
X131620000Y-138569000D01*
X133580000Y-138569000D02*
X134915000Y-138569000D01*
X130304000Y-138529000D02*
X131620000Y-138529000D01*
X133580000Y-138529000D02*
X134896000Y-138529000D01*
X130324000Y-138489000D02*
X131620000Y-138489000D01*
X133580000Y-138489000D02*
X134876000Y-138489000D01*
X130344000Y-138449000D02*
X131620000Y-138449000D01*
X133580000Y-138449000D02*
X134856000Y-138449000D01*
X130366000Y-138409000D02*
X131620000Y-138409000D01*
X133580000Y-138409000D02*
X134834000Y-138409000D01*
X130388000Y-138369000D02*
X131620000Y-138369000D01*
X133580000Y-138369000D02*
X134812000Y-138369000D01*
X130411000Y-138329000D02*
X131620000Y-138329000D01*
X133580000Y-138329000D02*
X134789000Y-138329000D01*
X130435000Y-138289000D02*
X131620000Y-138289000D01*
X133580000Y-138289000D02*
X134765000Y-138289000D01*
X130460000Y-138249000D02*
X131620000Y-138249000D01*
X133580000Y-138249000D02*
X134740000Y-138249000D01*
X130487000Y-138209000D02*
X131620000Y-138209000D01*
X133580000Y-138209000D02*
X134713000Y-138209000D01*
X130514000Y-138169000D02*
X131620000Y-138169000D01*
X133580000Y-138169000D02*
X134686000Y-138169000D01*
X130542000Y-138129000D02*
X131620000Y-138129000D01*
X133580000Y-138129000D02*
X134658000Y-138129000D01*
X130572000Y-138089000D02*
X131620000Y-138089000D01*
X133580000Y-138089000D02*
X134628000Y-138089000D01*
X130603000Y-138049000D02*
X131620000Y-138049000D01*
X133580000Y-138049000D02*
X134597000Y-138049000D01*
X130635000Y-138009000D02*
X131620000Y-138009000D01*
X133580000Y-138009000D02*
X134565000Y-138009000D01*
X130668000Y-137969000D02*
X131620000Y-137969000D01*
X133580000Y-137969000D02*
X134532000Y-137969000D01*
X130703000Y-137929000D02*
X131620000Y-137929000D01*
X133580000Y-137929000D02*
X134497000Y-137929000D01*
X130739000Y-137889000D02*
X131620000Y-137889000D01*
X133580000Y-137889000D02*
X134461000Y-137889000D01*
X130777000Y-137849000D02*
X131620000Y-137849000D01*
X133580000Y-137849000D02*
X134423000Y-137849000D01*
X130817000Y-137809000D02*
X131620000Y-137809000D01*
X133580000Y-137809000D02*
X134383000Y-137809000D01*
X130858000Y-137769000D02*
X131620000Y-137769000D01*
X133580000Y-137769000D02*
X134342000Y-137769000D01*
X130901000Y-137729000D02*
X131620000Y-137729000D01*
X133580000Y-137729000D02*
X134299000Y-137729000D01*
X130946000Y-137689000D02*
X131620000Y-137689000D01*
X133580000Y-137689000D02*
X134254000Y-137689000D01*
X130994000Y-137649000D02*
X131620000Y-137649000D01*
X133580000Y-137649000D02*
X134206000Y-137649000D01*
X131044000Y-137609000D02*
X131620000Y-137609000D01*
X133580000Y-137609000D02*
X134156000Y-137609000D01*
X131096000Y-137569000D02*
X131620000Y-137569000D01*
X133580000Y-137569000D02*
X134104000Y-137569000D01*
X131152000Y-137529000D02*
X131620000Y-137529000D01*
X133580000Y-137529000D02*
X134048000Y-137529000D01*
X131210000Y-137489000D02*
X131620000Y-137489000D01*
X133580000Y-137489000D02*
X133990000Y-137489000D01*
X131273000Y-137449000D02*
X131620000Y-137449000D01*
X133580000Y-137449000D02*
X133927000Y-137449000D01*
X131339000Y-137409000D02*
X133861000Y-137409000D01*
X131411000Y-137369000D02*
X133789000Y-137369000D01*
X131488000Y-137329000D02*
X133712000Y-137329000D01*
X131572000Y-137289000D02*
X133628000Y-137289000D01*
X131666000Y-137249000D02*
X133534000Y-137249000D01*
X131771000Y-137209000D02*
X133429000Y-137209000D01*
X131893000Y-137169000D02*
X133307000Y-137169000D01*
X132041000Y-137129000D02*
X133159000Y-137129000D01*
X132246000Y-137089000D02*
X132954000Y-137089000D01*
X132600000Y-143100000D02*
X132600000Y-141900000D01*
X131950000Y-142500000D02*
X133250000Y-142500000D01*
X127596863Y-102718600D02*
G75*
G03X122802564Y-102720000I-2396863J-981400D01*
G01*
X127596863Y-104681400D02*
G75*
G02X122802564Y-104680000I-2396863J981400D01*
G01*
X127596863Y-104681400D02*
G75*
G03X127597436Y-102720000I-2396863J981400D01*
G01*
X125200000Y-101150000D02*
X125200000Y-106250000D01*
X125240000Y-101150000D02*
X125240000Y-102720000D01*
X125240000Y-104680000D02*
X125240000Y-106250000D01*
X125280000Y-101151000D02*
X125280000Y-102720000D01*
X125280000Y-104680000D02*
X125280000Y-106249000D01*
X125320000Y-101152000D02*
X125320000Y-102720000D01*
X125320000Y-104680000D02*
X125320000Y-106248000D01*
X125360000Y-101154000D02*
X125360000Y-102720000D01*
X125360000Y-104680000D02*
X125360000Y-106246000D01*
X125400000Y-101157000D02*
X125400000Y-102720000D01*
X125400000Y-104680000D02*
X125400000Y-106243000D01*
X125440000Y-101161000D02*
X125440000Y-102720000D01*
X125440000Y-104680000D02*
X125440000Y-106239000D01*
X125480000Y-101165000D02*
X125480000Y-102720000D01*
X125480000Y-104680000D02*
X125480000Y-106235000D01*
X125520000Y-101169000D02*
X125520000Y-102720000D01*
X125520000Y-104680000D02*
X125520000Y-106231000D01*
X125560000Y-101175000D02*
X125560000Y-102720000D01*
X125560000Y-104680000D02*
X125560000Y-106225000D01*
X125600000Y-101181000D02*
X125600000Y-102720000D01*
X125600000Y-104680000D02*
X125600000Y-106219000D01*
X125640000Y-101187000D02*
X125640000Y-102720000D01*
X125640000Y-104680000D02*
X125640000Y-106213000D01*
X125680000Y-101194000D02*
X125680000Y-102720000D01*
X125680000Y-104680000D02*
X125680000Y-106206000D01*
X125720000Y-101202000D02*
X125720000Y-102720000D01*
X125720000Y-104680000D02*
X125720000Y-106198000D01*
X125760000Y-101211000D02*
X125760000Y-102720000D01*
X125760000Y-104680000D02*
X125760000Y-106189000D01*
X125800000Y-101220000D02*
X125800000Y-102720000D01*
X125800000Y-104680000D02*
X125800000Y-106180000D01*
X125840000Y-101230000D02*
X125840000Y-102720000D01*
X125840000Y-104680000D02*
X125840000Y-106170000D01*
X125880000Y-101240000D02*
X125880000Y-102720000D01*
X125880000Y-104680000D02*
X125880000Y-106160000D01*
X125921000Y-101252000D02*
X125921000Y-102720000D01*
X125921000Y-104680000D02*
X125921000Y-106148000D01*
X125961000Y-101264000D02*
X125961000Y-102720000D01*
X125961000Y-104680000D02*
X125961000Y-106136000D01*
X126001000Y-101276000D02*
X126001000Y-102720000D01*
X126001000Y-104680000D02*
X126001000Y-106124000D01*
X126041000Y-101290000D02*
X126041000Y-102720000D01*
X126041000Y-104680000D02*
X126041000Y-106110000D01*
X126081000Y-101304000D02*
X126081000Y-102720000D01*
X126081000Y-104680000D02*
X126081000Y-106096000D01*
X126121000Y-101318000D02*
X126121000Y-102720000D01*
X126121000Y-104680000D02*
X126121000Y-106082000D01*
X126161000Y-101334000D02*
X126161000Y-102720000D01*
X126161000Y-104680000D02*
X126161000Y-106066000D01*
X126201000Y-101350000D02*
X126201000Y-102720000D01*
X126201000Y-104680000D02*
X126201000Y-106050000D01*
X126241000Y-101367000D02*
X126241000Y-102720000D01*
X126241000Y-104680000D02*
X126241000Y-106033000D01*
X126281000Y-101385000D02*
X126281000Y-102720000D01*
X126281000Y-104680000D02*
X126281000Y-106015000D01*
X126321000Y-101404000D02*
X126321000Y-102720000D01*
X126321000Y-104680000D02*
X126321000Y-105996000D01*
X126361000Y-101424000D02*
X126361000Y-102720000D01*
X126361000Y-104680000D02*
X126361000Y-105976000D01*
X126401000Y-101444000D02*
X126401000Y-102720000D01*
X126401000Y-104680000D02*
X126401000Y-105956000D01*
X126441000Y-101466000D02*
X126441000Y-102720000D01*
X126441000Y-104680000D02*
X126441000Y-105934000D01*
X126481000Y-101488000D02*
X126481000Y-102720000D01*
X126481000Y-104680000D02*
X126481000Y-105912000D01*
X126521000Y-101511000D02*
X126521000Y-102720000D01*
X126521000Y-104680000D02*
X126521000Y-105889000D01*
X126561000Y-101535000D02*
X126561000Y-102720000D01*
X126561000Y-104680000D02*
X126561000Y-105865000D01*
X126601000Y-101560000D02*
X126601000Y-102720000D01*
X126601000Y-104680000D02*
X126601000Y-105840000D01*
X126641000Y-101587000D02*
X126641000Y-102720000D01*
X126641000Y-104680000D02*
X126641000Y-105813000D01*
X126681000Y-101614000D02*
X126681000Y-102720000D01*
X126681000Y-104680000D02*
X126681000Y-105786000D01*
X126721000Y-101642000D02*
X126721000Y-102720000D01*
X126721000Y-104680000D02*
X126721000Y-105758000D01*
X126761000Y-101672000D02*
X126761000Y-102720000D01*
X126761000Y-104680000D02*
X126761000Y-105728000D01*
X126801000Y-101703000D02*
X126801000Y-102720000D01*
X126801000Y-104680000D02*
X126801000Y-105697000D01*
X126841000Y-101735000D02*
X126841000Y-102720000D01*
X126841000Y-104680000D02*
X126841000Y-105665000D01*
X126881000Y-101768000D02*
X126881000Y-102720000D01*
X126881000Y-104680000D02*
X126881000Y-105632000D01*
X126921000Y-101803000D02*
X126921000Y-102720000D01*
X126921000Y-104680000D02*
X126921000Y-105597000D01*
X126961000Y-101839000D02*
X126961000Y-102720000D01*
X126961000Y-104680000D02*
X126961000Y-105561000D01*
X127001000Y-101877000D02*
X127001000Y-102720000D01*
X127001000Y-104680000D02*
X127001000Y-105523000D01*
X127041000Y-101917000D02*
X127041000Y-102720000D01*
X127041000Y-104680000D02*
X127041000Y-105483000D01*
X127081000Y-101958000D02*
X127081000Y-102720000D01*
X127081000Y-104680000D02*
X127081000Y-105442000D01*
X127121000Y-102001000D02*
X127121000Y-102720000D01*
X127121000Y-104680000D02*
X127121000Y-105399000D01*
X127161000Y-102046000D02*
X127161000Y-102720000D01*
X127161000Y-104680000D02*
X127161000Y-105354000D01*
X127201000Y-102094000D02*
X127201000Y-105306000D01*
X127241000Y-102144000D02*
X127241000Y-105256000D01*
X127281000Y-102196000D02*
X127281000Y-105204000D01*
X127321000Y-102252000D02*
X127321000Y-105148000D01*
X127361000Y-102310000D02*
X127361000Y-105090000D01*
X127401000Y-102373000D02*
X127401000Y-105027000D01*
X127441000Y-102439000D02*
X127441000Y-104961000D01*
X127481000Y-102511000D02*
X127481000Y-104889000D01*
X127521000Y-102588000D02*
X127521000Y-104812000D01*
X127561000Y-102672000D02*
X127561000Y-104728000D01*
X127601000Y-102766000D02*
X127601000Y-104634000D01*
X127641000Y-102871000D02*
X127641000Y-104529000D01*
X127681000Y-102993000D02*
X127681000Y-104407000D01*
X127721000Y-103141000D02*
X127721000Y-104259000D01*
X127761000Y-103346000D02*
X127761000Y-104054000D01*
X122000000Y-103700000D02*
X123200000Y-103700000D01*
X122600000Y-103050000D02*
X122600000Y-104350000D01*
X127496863Y-109218600D02*
G75*
G03X122702564Y-109220000I-2396863J-981400D01*
G01*
X127496863Y-111181400D02*
G75*
G02X122702564Y-111180000I-2396863J981400D01*
G01*
X127496863Y-111181400D02*
G75*
G03X127497436Y-109220000I-2396863J981400D01*
G01*
X125100000Y-107650000D02*
X125100000Y-112750000D01*
X125140000Y-107650000D02*
X125140000Y-109220000D01*
X125140000Y-111180000D02*
X125140000Y-112750000D01*
X125180000Y-107651000D02*
X125180000Y-109220000D01*
X125180000Y-111180000D02*
X125180000Y-112749000D01*
X125220000Y-107652000D02*
X125220000Y-109220000D01*
X125220000Y-111180000D02*
X125220000Y-112748000D01*
X125260000Y-107654000D02*
X125260000Y-109220000D01*
X125260000Y-111180000D02*
X125260000Y-112746000D01*
X125300000Y-107657000D02*
X125300000Y-109220000D01*
X125300000Y-111180000D02*
X125300000Y-112743000D01*
X125340000Y-107661000D02*
X125340000Y-109220000D01*
X125340000Y-111180000D02*
X125340000Y-112739000D01*
X125380000Y-107665000D02*
X125380000Y-109220000D01*
X125380000Y-111180000D02*
X125380000Y-112735000D01*
X125420000Y-107669000D02*
X125420000Y-109220000D01*
X125420000Y-111180000D02*
X125420000Y-112731000D01*
X125460000Y-107675000D02*
X125460000Y-109220000D01*
X125460000Y-111180000D02*
X125460000Y-112725000D01*
X125500000Y-107681000D02*
X125500000Y-109220000D01*
X125500000Y-111180000D02*
X125500000Y-112719000D01*
X125540000Y-107687000D02*
X125540000Y-109220000D01*
X125540000Y-111180000D02*
X125540000Y-112713000D01*
X125580000Y-107694000D02*
X125580000Y-109220000D01*
X125580000Y-111180000D02*
X125580000Y-112706000D01*
X125620000Y-107702000D02*
X125620000Y-109220000D01*
X125620000Y-111180000D02*
X125620000Y-112698000D01*
X125660000Y-107711000D02*
X125660000Y-109220000D01*
X125660000Y-111180000D02*
X125660000Y-112689000D01*
X125700000Y-107720000D02*
X125700000Y-109220000D01*
X125700000Y-111180000D02*
X125700000Y-112680000D01*
X125740000Y-107730000D02*
X125740000Y-109220000D01*
X125740000Y-111180000D02*
X125740000Y-112670000D01*
X125780000Y-107740000D02*
X125780000Y-109220000D01*
X125780000Y-111180000D02*
X125780000Y-112660000D01*
X125821000Y-107752000D02*
X125821000Y-109220000D01*
X125821000Y-111180000D02*
X125821000Y-112648000D01*
X125861000Y-107764000D02*
X125861000Y-109220000D01*
X125861000Y-111180000D02*
X125861000Y-112636000D01*
X125901000Y-107776000D02*
X125901000Y-109220000D01*
X125901000Y-111180000D02*
X125901000Y-112624000D01*
X125941000Y-107790000D02*
X125941000Y-109220000D01*
X125941000Y-111180000D02*
X125941000Y-112610000D01*
X125981000Y-107804000D02*
X125981000Y-109220000D01*
X125981000Y-111180000D02*
X125981000Y-112596000D01*
X126021000Y-107818000D02*
X126021000Y-109220000D01*
X126021000Y-111180000D02*
X126021000Y-112582000D01*
X126061000Y-107834000D02*
X126061000Y-109220000D01*
X126061000Y-111180000D02*
X126061000Y-112566000D01*
X126101000Y-107850000D02*
X126101000Y-109220000D01*
X126101000Y-111180000D02*
X126101000Y-112550000D01*
X126141000Y-107867000D02*
X126141000Y-109220000D01*
X126141000Y-111180000D02*
X126141000Y-112533000D01*
X126181000Y-107885000D02*
X126181000Y-109220000D01*
X126181000Y-111180000D02*
X126181000Y-112515000D01*
X126221000Y-107904000D02*
X126221000Y-109220000D01*
X126221000Y-111180000D02*
X126221000Y-112496000D01*
X126261000Y-107924000D02*
X126261000Y-109220000D01*
X126261000Y-111180000D02*
X126261000Y-112476000D01*
X126301000Y-107944000D02*
X126301000Y-109220000D01*
X126301000Y-111180000D02*
X126301000Y-112456000D01*
X126341000Y-107966000D02*
X126341000Y-109220000D01*
X126341000Y-111180000D02*
X126341000Y-112434000D01*
X126381000Y-107988000D02*
X126381000Y-109220000D01*
X126381000Y-111180000D02*
X126381000Y-112412000D01*
X126421000Y-108011000D02*
X126421000Y-109220000D01*
X126421000Y-111180000D02*
X126421000Y-112389000D01*
X126461000Y-108035000D02*
X126461000Y-109220000D01*
X126461000Y-111180000D02*
X126461000Y-112365000D01*
X126501000Y-108060000D02*
X126501000Y-109220000D01*
X126501000Y-111180000D02*
X126501000Y-112340000D01*
X126541000Y-108087000D02*
X126541000Y-109220000D01*
X126541000Y-111180000D02*
X126541000Y-112313000D01*
X126581000Y-108114000D02*
X126581000Y-109220000D01*
X126581000Y-111180000D02*
X126581000Y-112286000D01*
X126621000Y-108142000D02*
X126621000Y-109220000D01*
X126621000Y-111180000D02*
X126621000Y-112258000D01*
X126661000Y-108172000D02*
X126661000Y-109220000D01*
X126661000Y-111180000D02*
X126661000Y-112228000D01*
X126701000Y-108203000D02*
X126701000Y-109220000D01*
X126701000Y-111180000D02*
X126701000Y-112197000D01*
X126741000Y-108235000D02*
X126741000Y-109220000D01*
X126741000Y-111180000D02*
X126741000Y-112165000D01*
X126781000Y-108268000D02*
X126781000Y-109220000D01*
X126781000Y-111180000D02*
X126781000Y-112132000D01*
X126821000Y-108303000D02*
X126821000Y-109220000D01*
X126821000Y-111180000D02*
X126821000Y-112097000D01*
X126861000Y-108339000D02*
X126861000Y-109220000D01*
X126861000Y-111180000D02*
X126861000Y-112061000D01*
X126901000Y-108377000D02*
X126901000Y-109220000D01*
X126901000Y-111180000D02*
X126901000Y-112023000D01*
X126941000Y-108417000D02*
X126941000Y-109220000D01*
X126941000Y-111180000D02*
X126941000Y-111983000D01*
X126981000Y-108458000D02*
X126981000Y-109220000D01*
X126981000Y-111180000D02*
X126981000Y-111942000D01*
X127021000Y-108501000D02*
X127021000Y-109220000D01*
X127021000Y-111180000D02*
X127021000Y-111899000D01*
X127061000Y-108546000D02*
X127061000Y-109220000D01*
X127061000Y-111180000D02*
X127061000Y-111854000D01*
X127101000Y-108594000D02*
X127101000Y-111806000D01*
X127141000Y-108644000D02*
X127141000Y-111756000D01*
X127181000Y-108696000D02*
X127181000Y-111704000D01*
X127221000Y-108752000D02*
X127221000Y-111648000D01*
X127261000Y-108810000D02*
X127261000Y-111590000D01*
X127301000Y-108873000D02*
X127301000Y-111527000D01*
X127341000Y-108939000D02*
X127341000Y-111461000D01*
X127381000Y-109011000D02*
X127381000Y-111389000D01*
X127421000Y-109088000D02*
X127421000Y-111312000D01*
X127461000Y-109172000D02*
X127461000Y-111228000D01*
X127501000Y-109266000D02*
X127501000Y-111134000D01*
X127541000Y-109371000D02*
X127541000Y-111029000D01*
X127581000Y-109493000D02*
X127581000Y-110907000D01*
X127621000Y-109641000D02*
X127621000Y-110759000D01*
X127661000Y-109846000D02*
X127661000Y-110554000D01*
X121900000Y-110200000D02*
X123100000Y-110200000D01*
X122500000Y-109550000D02*
X122500000Y-110850000D01*
X187475210Y-87820672D02*
G75*
G03X183225100Y-87820000I-2125210J-979328D01*
G01*
X187475210Y-89779328D02*
G75*
G02X183225100Y-89780000I-2125210J979328D01*
G01*
X187475210Y-89779328D02*
G75*
G03X187474900Y-87820000I-2125210J979328D01*
G01*
X181900000Y-88800000D02*
X183100000Y-88800000D01*
X182500000Y-88150000D02*
X182500000Y-89450000D01*
X139246863Y-95718600D02*
G75*
G03X134452564Y-95720000I-2396863J-981400D01*
G01*
X139246863Y-97681400D02*
G75*
G02X134452564Y-97680000I-2396863J981400D01*
G01*
X139246863Y-97681400D02*
G75*
G03X139247436Y-95720000I-2396863J981400D01*
G01*
X136850000Y-94150000D02*
X136850000Y-99250000D01*
X136890000Y-94150000D02*
X136890000Y-99250000D01*
X136930000Y-94151000D02*
X136930000Y-99249000D01*
X136970000Y-94152000D02*
X136970000Y-99248000D01*
X137010000Y-94154000D02*
X137010000Y-99246000D01*
X137050000Y-94157000D02*
X137050000Y-99243000D01*
X137090000Y-94161000D02*
X137090000Y-99239000D01*
X137130000Y-94165000D02*
X137130000Y-95720000D01*
X137130000Y-97680000D02*
X137130000Y-99235000D01*
X137170000Y-94169000D02*
X137170000Y-95720000D01*
X137170000Y-97680000D02*
X137170000Y-99231000D01*
X137210000Y-94175000D02*
X137210000Y-95720000D01*
X137210000Y-97680000D02*
X137210000Y-99225000D01*
X137250000Y-94181000D02*
X137250000Y-95720000D01*
X137250000Y-97680000D02*
X137250000Y-99219000D01*
X137290000Y-94187000D02*
X137290000Y-95720000D01*
X137290000Y-97680000D02*
X137290000Y-99213000D01*
X137330000Y-94194000D02*
X137330000Y-95720000D01*
X137330000Y-97680000D02*
X137330000Y-99206000D01*
X137370000Y-94202000D02*
X137370000Y-95720000D01*
X137370000Y-97680000D02*
X137370000Y-99198000D01*
X137410000Y-94211000D02*
X137410000Y-95720000D01*
X137410000Y-97680000D02*
X137410000Y-99189000D01*
X137450000Y-94220000D02*
X137450000Y-95720000D01*
X137450000Y-97680000D02*
X137450000Y-99180000D01*
X137490000Y-94230000D02*
X137490000Y-95720000D01*
X137490000Y-97680000D02*
X137490000Y-99170000D01*
X137530000Y-94240000D02*
X137530000Y-95720000D01*
X137530000Y-97680000D02*
X137530000Y-99160000D01*
X137571000Y-94252000D02*
X137571000Y-95720000D01*
X137571000Y-97680000D02*
X137571000Y-99148000D01*
X137611000Y-94264000D02*
X137611000Y-95720000D01*
X137611000Y-97680000D02*
X137611000Y-99136000D01*
X137651000Y-94276000D02*
X137651000Y-95720000D01*
X137651000Y-97680000D02*
X137651000Y-99124000D01*
X137691000Y-94290000D02*
X137691000Y-95720000D01*
X137691000Y-97680000D02*
X137691000Y-99110000D01*
X137731000Y-94304000D02*
X137731000Y-95720000D01*
X137731000Y-97680000D02*
X137731000Y-99096000D01*
X137771000Y-94318000D02*
X137771000Y-95720000D01*
X137771000Y-97680000D02*
X137771000Y-99082000D01*
X137811000Y-94334000D02*
X137811000Y-95720000D01*
X137811000Y-97680000D02*
X137811000Y-99066000D01*
X137851000Y-94350000D02*
X137851000Y-95720000D01*
X137851000Y-97680000D02*
X137851000Y-99050000D01*
X137891000Y-94367000D02*
X137891000Y-95720000D01*
X137891000Y-97680000D02*
X137891000Y-99033000D01*
X137931000Y-94385000D02*
X137931000Y-95720000D01*
X137931000Y-97680000D02*
X137931000Y-99015000D01*
X137971000Y-94404000D02*
X137971000Y-95720000D01*
X137971000Y-97680000D02*
X137971000Y-98996000D01*
X138011000Y-94424000D02*
X138011000Y-95720000D01*
X138011000Y-97680000D02*
X138011000Y-98976000D01*
X138051000Y-94444000D02*
X138051000Y-95720000D01*
X138051000Y-97680000D02*
X138051000Y-98956000D01*
X138091000Y-94466000D02*
X138091000Y-95720000D01*
X138091000Y-97680000D02*
X138091000Y-98934000D01*
X138131000Y-94488000D02*
X138131000Y-95720000D01*
X138131000Y-97680000D02*
X138131000Y-98912000D01*
X138171000Y-94511000D02*
X138171000Y-95720000D01*
X138171000Y-97680000D02*
X138171000Y-98889000D01*
X138211000Y-94535000D02*
X138211000Y-95720000D01*
X138211000Y-97680000D02*
X138211000Y-98865000D01*
X138251000Y-94560000D02*
X138251000Y-95720000D01*
X138251000Y-97680000D02*
X138251000Y-98840000D01*
X138291000Y-94587000D02*
X138291000Y-95720000D01*
X138291000Y-97680000D02*
X138291000Y-98813000D01*
X138331000Y-94614000D02*
X138331000Y-95720000D01*
X138331000Y-97680000D02*
X138331000Y-98786000D01*
X138371000Y-94642000D02*
X138371000Y-95720000D01*
X138371000Y-97680000D02*
X138371000Y-98758000D01*
X138411000Y-94672000D02*
X138411000Y-95720000D01*
X138411000Y-97680000D02*
X138411000Y-98728000D01*
X138451000Y-94703000D02*
X138451000Y-95720000D01*
X138451000Y-97680000D02*
X138451000Y-98697000D01*
X138491000Y-94735000D02*
X138491000Y-95720000D01*
X138491000Y-97680000D02*
X138491000Y-98665000D01*
X138531000Y-94768000D02*
X138531000Y-95720000D01*
X138531000Y-97680000D02*
X138531000Y-98632000D01*
X138571000Y-94803000D02*
X138571000Y-95720000D01*
X138571000Y-97680000D02*
X138571000Y-98597000D01*
X138611000Y-94839000D02*
X138611000Y-95720000D01*
X138611000Y-97680000D02*
X138611000Y-98561000D01*
X138651000Y-94877000D02*
X138651000Y-95720000D01*
X138651000Y-97680000D02*
X138651000Y-98523000D01*
X138691000Y-94917000D02*
X138691000Y-95720000D01*
X138691000Y-97680000D02*
X138691000Y-98483000D01*
X138731000Y-94958000D02*
X138731000Y-95720000D01*
X138731000Y-97680000D02*
X138731000Y-98442000D01*
X138771000Y-95001000D02*
X138771000Y-95720000D01*
X138771000Y-97680000D02*
X138771000Y-98399000D01*
X138811000Y-95046000D02*
X138811000Y-95720000D01*
X138811000Y-97680000D02*
X138811000Y-98354000D01*
X138851000Y-95094000D02*
X138851000Y-95720000D01*
X138851000Y-97680000D02*
X138851000Y-98306000D01*
X138891000Y-95144000D02*
X138891000Y-95720000D01*
X138891000Y-97680000D02*
X138891000Y-98256000D01*
X138931000Y-95196000D02*
X138931000Y-95720000D01*
X138931000Y-97680000D02*
X138931000Y-98204000D01*
X138971000Y-95252000D02*
X138971000Y-95720000D01*
X138971000Y-97680000D02*
X138971000Y-98148000D01*
X139011000Y-95310000D02*
X139011000Y-95720000D01*
X139011000Y-97680000D02*
X139011000Y-98090000D01*
X139051000Y-95373000D02*
X139051000Y-95720000D01*
X139051000Y-97680000D02*
X139051000Y-98027000D01*
X139091000Y-95439000D02*
X139091000Y-97961000D01*
X139131000Y-95511000D02*
X139131000Y-97889000D01*
X139171000Y-95588000D02*
X139171000Y-97812000D01*
X139211000Y-95672000D02*
X139211000Y-97728000D01*
X139251000Y-95766000D02*
X139251000Y-97634000D01*
X139291000Y-95871000D02*
X139291000Y-97529000D01*
X139331000Y-95993000D02*
X139331000Y-97407000D01*
X139371000Y-96141000D02*
X139371000Y-97259000D01*
X139411000Y-96346000D02*
X139411000Y-97054000D01*
X133400000Y-96700000D02*
X134600000Y-96700000D01*
X134000000Y-96050000D02*
X134000000Y-97350000D01*
X134546863Y-115618600D02*
G75*
G03X129752564Y-115620000I-2396863J-981400D01*
G01*
X134546863Y-117581400D02*
G75*
G02X129752564Y-117580000I-2396863J981400D01*
G01*
X134546863Y-117581400D02*
G75*
G03X134547436Y-115620000I-2396863J981400D01*
G01*
X132150000Y-114050000D02*
X132150000Y-119150000D01*
X132190000Y-114050000D02*
X132190000Y-119150000D01*
X132230000Y-114051000D02*
X132230000Y-119149000D01*
X132270000Y-114052000D02*
X132270000Y-119148000D01*
X132310000Y-114054000D02*
X132310000Y-119146000D01*
X132350000Y-114057000D02*
X132350000Y-119143000D01*
X132390000Y-114061000D02*
X132390000Y-119139000D01*
X132430000Y-114065000D02*
X132430000Y-115620000D01*
X132430000Y-117580000D02*
X132430000Y-119135000D01*
X132470000Y-114069000D02*
X132470000Y-115620000D01*
X132470000Y-117580000D02*
X132470000Y-119131000D01*
X132510000Y-114075000D02*
X132510000Y-115620000D01*
X132510000Y-117580000D02*
X132510000Y-119125000D01*
X132550000Y-114081000D02*
X132550000Y-115620000D01*
X132550000Y-117580000D02*
X132550000Y-119119000D01*
X132590000Y-114087000D02*
X132590000Y-115620000D01*
X132590000Y-117580000D02*
X132590000Y-119113000D01*
X132630000Y-114094000D02*
X132630000Y-115620000D01*
X132630000Y-117580000D02*
X132630000Y-119106000D01*
X132670000Y-114102000D02*
X132670000Y-115620000D01*
X132670000Y-117580000D02*
X132670000Y-119098000D01*
X132710000Y-114111000D02*
X132710000Y-115620000D01*
X132710000Y-117580000D02*
X132710000Y-119089000D01*
X132750000Y-114120000D02*
X132750000Y-115620000D01*
X132750000Y-117580000D02*
X132750000Y-119080000D01*
X132790000Y-114130000D02*
X132790000Y-115620000D01*
X132790000Y-117580000D02*
X132790000Y-119070000D01*
X132830000Y-114140000D02*
X132830000Y-115620000D01*
X132830000Y-117580000D02*
X132830000Y-119060000D01*
X132871000Y-114152000D02*
X132871000Y-115620000D01*
X132871000Y-117580000D02*
X132871000Y-119048000D01*
X132911000Y-114164000D02*
X132911000Y-115620000D01*
X132911000Y-117580000D02*
X132911000Y-119036000D01*
X132951000Y-114176000D02*
X132951000Y-115620000D01*
X132951000Y-117580000D02*
X132951000Y-119024000D01*
X132991000Y-114190000D02*
X132991000Y-115620000D01*
X132991000Y-117580000D02*
X132991000Y-119010000D01*
X133031000Y-114204000D02*
X133031000Y-115620000D01*
X133031000Y-117580000D02*
X133031000Y-118996000D01*
X133071000Y-114218000D02*
X133071000Y-115620000D01*
X133071000Y-117580000D02*
X133071000Y-118982000D01*
X133111000Y-114234000D02*
X133111000Y-115620000D01*
X133111000Y-117580000D02*
X133111000Y-118966000D01*
X133151000Y-114250000D02*
X133151000Y-115620000D01*
X133151000Y-117580000D02*
X133151000Y-118950000D01*
X133191000Y-114267000D02*
X133191000Y-115620000D01*
X133191000Y-117580000D02*
X133191000Y-118933000D01*
X133231000Y-114285000D02*
X133231000Y-115620000D01*
X133231000Y-117580000D02*
X133231000Y-118915000D01*
X133271000Y-114304000D02*
X133271000Y-115620000D01*
X133271000Y-117580000D02*
X133271000Y-118896000D01*
X133311000Y-114324000D02*
X133311000Y-115620000D01*
X133311000Y-117580000D02*
X133311000Y-118876000D01*
X133351000Y-114344000D02*
X133351000Y-115620000D01*
X133351000Y-117580000D02*
X133351000Y-118856000D01*
X133391000Y-114366000D02*
X133391000Y-115620000D01*
X133391000Y-117580000D02*
X133391000Y-118834000D01*
X133431000Y-114388000D02*
X133431000Y-115620000D01*
X133431000Y-117580000D02*
X133431000Y-118812000D01*
X133471000Y-114411000D02*
X133471000Y-115620000D01*
X133471000Y-117580000D02*
X133471000Y-118789000D01*
X133511000Y-114435000D02*
X133511000Y-115620000D01*
X133511000Y-117580000D02*
X133511000Y-118765000D01*
X133551000Y-114460000D02*
X133551000Y-115620000D01*
X133551000Y-117580000D02*
X133551000Y-118740000D01*
X133591000Y-114487000D02*
X133591000Y-115620000D01*
X133591000Y-117580000D02*
X133591000Y-118713000D01*
X133631000Y-114514000D02*
X133631000Y-115620000D01*
X133631000Y-117580000D02*
X133631000Y-118686000D01*
X133671000Y-114542000D02*
X133671000Y-115620000D01*
X133671000Y-117580000D02*
X133671000Y-118658000D01*
X133711000Y-114572000D02*
X133711000Y-115620000D01*
X133711000Y-117580000D02*
X133711000Y-118628000D01*
X133751000Y-114603000D02*
X133751000Y-115620000D01*
X133751000Y-117580000D02*
X133751000Y-118597000D01*
X133791000Y-114635000D02*
X133791000Y-115620000D01*
X133791000Y-117580000D02*
X133791000Y-118565000D01*
X133831000Y-114668000D02*
X133831000Y-115620000D01*
X133831000Y-117580000D02*
X133831000Y-118532000D01*
X133871000Y-114703000D02*
X133871000Y-115620000D01*
X133871000Y-117580000D02*
X133871000Y-118497000D01*
X133911000Y-114739000D02*
X133911000Y-115620000D01*
X133911000Y-117580000D02*
X133911000Y-118461000D01*
X133951000Y-114777000D02*
X133951000Y-115620000D01*
X133951000Y-117580000D02*
X133951000Y-118423000D01*
X133991000Y-114817000D02*
X133991000Y-115620000D01*
X133991000Y-117580000D02*
X133991000Y-118383000D01*
X134031000Y-114858000D02*
X134031000Y-115620000D01*
X134031000Y-117580000D02*
X134031000Y-118342000D01*
X134071000Y-114901000D02*
X134071000Y-115620000D01*
X134071000Y-117580000D02*
X134071000Y-118299000D01*
X134111000Y-114946000D02*
X134111000Y-115620000D01*
X134111000Y-117580000D02*
X134111000Y-118254000D01*
X134151000Y-114994000D02*
X134151000Y-115620000D01*
X134151000Y-117580000D02*
X134151000Y-118206000D01*
X134191000Y-115044000D02*
X134191000Y-115620000D01*
X134191000Y-117580000D02*
X134191000Y-118156000D01*
X134231000Y-115096000D02*
X134231000Y-115620000D01*
X134231000Y-117580000D02*
X134231000Y-118104000D01*
X134271000Y-115152000D02*
X134271000Y-115620000D01*
X134271000Y-117580000D02*
X134271000Y-118048000D01*
X134311000Y-115210000D02*
X134311000Y-115620000D01*
X134311000Y-117580000D02*
X134311000Y-117990000D01*
X134351000Y-115273000D02*
X134351000Y-115620000D01*
X134351000Y-117580000D02*
X134351000Y-117927000D01*
X134391000Y-115339000D02*
X134391000Y-117861000D01*
X134431000Y-115411000D02*
X134431000Y-117789000D01*
X134471000Y-115488000D02*
X134471000Y-117712000D01*
X134511000Y-115572000D02*
X134511000Y-117628000D01*
X134551000Y-115666000D02*
X134551000Y-117534000D01*
X134591000Y-115771000D02*
X134591000Y-117429000D01*
X134631000Y-115893000D02*
X134631000Y-117307000D01*
X134671000Y-116041000D02*
X134671000Y-117159000D01*
X134711000Y-116246000D02*
X134711000Y-116954000D01*
X128700000Y-116600000D02*
X129900000Y-116600000D01*
X129300000Y-115950000D02*
X129300000Y-117250000D01*
X157353137Y-81781400D02*
G75*
G03X162147436Y-81780000I2396863J981400D01*
G01*
X157353137Y-79818600D02*
G75*
G02X162147436Y-79820000I2396863J-981400D01*
G01*
X157353137Y-79818600D02*
G75*
G03X157352564Y-81780000I2396863J-981400D01*
G01*
X159750000Y-83350000D02*
X159750000Y-78250000D01*
X159710000Y-83350000D02*
X159710000Y-78250000D01*
X159670000Y-83349000D02*
X159670000Y-78251000D01*
X159630000Y-83348000D02*
X159630000Y-78252000D01*
X159590000Y-83346000D02*
X159590000Y-78254000D01*
X159550000Y-83343000D02*
X159550000Y-78257000D01*
X159510000Y-83339000D02*
X159510000Y-78261000D01*
X159470000Y-83335000D02*
X159470000Y-81780000D01*
X159470000Y-79820000D02*
X159470000Y-78265000D01*
X159430000Y-83331000D02*
X159430000Y-81780000D01*
X159430000Y-79820000D02*
X159430000Y-78269000D01*
X159390000Y-83325000D02*
X159390000Y-81780000D01*
X159390000Y-79820000D02*
X159390000Y-78275000D01*
X159350000Y-83319000D02*
X159350000Y-81780000D01*
X159350000Y-79820000D02*
X159350000Y-78281000D01*
X159310000Y-83313000D02*
X159310000Y-81780000D01*
X159310000Y-79820000D02*
X159310000Y-78287000D01*
X159270000Y-83306000D02*
X159270000Y-81780000D01*
X159270000Y-79820000D02*
X159270000Y-78294000D01*
X159230000Y-83298000D02*
X159230000Y-81780000D01*
X159230000Y-79820000D02*
X159230000Y-78302000D01*
X159190000Y-83289000D02*
X159190000Y-81780000D01*
X159190000Y-79820000D02*
X159190000Y-78311000D01*
X159150000Y-83280000D02*
X159150000Y-81780000D01*
X159150000Y-79820000D02*
X159150000Y-78320000D01*
X159110000Y-83270000D02*
X159110000Y-81780000D01*
X159110000Y-79820000D02*
X159110000Y-78330000D01*
X159070000Y-83260000D02*
X159070000Y-81780000D01*
X159070000Y-79820000D02*
X159070000Y-78340000D01*
X159029000Y-83248000D02*
X159029000Y-81780000D01*
X159029000Y-79820000D02*
X159029000Y-78352000D01*
X158989000Y-83236000D02*
X158989000Y-81780000D01*
X158989000Y-79820000D02*
X158989000Y-78364000D01*
X158949000Y-83224000D02*
X158949000Y-81780000D01*
X158949000Y-79820000D02*
X158949000Y-78376000D01*
X158909000Y-83210000D02*
X158909000Y-81780000D01*
X158909000Y-79820000D02*
X158909000Y-78390000D01*
X158869000Y-83196000D02*
X158869000Y-81780000D01*
X158869000Y-79820000D02*
X158869000Y-78404000D01*
X158829000Y-83182000D02*
X158829000Y-81780000D01*
X158829000Y-79820000D02*
X158829000Y-78418000D01*
X158789000Y-83166000D02*
X158789000Y-81780000D01*
X158789000Y-79820000D02*
X158789000Y-78434000D01*
X158749000Y-83150000D02*
X158749000Y-81780000D01*
X158749000Y-79820000D02*
X158749000Y-78450000D01*
X158709000Y-83133000D02*
X158709000Y-81780000D01*
X158709000Y-79820000D02*
X158709000Y-78467000D01*
X158669000Y-83115000D02*
X158669000Y-81780000D01*
X158669000Y-79820000D02*
X158669000Y-78485000D01*
X158629000Y-83096000D02*
X158629000Y-81780000D01*
X158629000Y-79820000D02*
X158629000Y-78504000D01*
X158589000Y-83076000D02*
X158589000Y-81780000D01*
X158589000Y-79820000D02*
X158589000Y-78524000D01*
X158549000Y-83056000D02*
X158549000Y-81780000D01*
X158549000Y-79820000D02*
X158549000Y-78544000D01*
X158509000Y-83034000D02*
X158509000Y-81780000D01*
X158509000Y-79820000D02*
X158509000Y-78566000D01*
X158469000Y-83012000D02*
X158469000Y-81780000D01*
X158469000Y-79820000D02*
X158469000Y-78588000D01*
X158429000Y-82989000D02*
X158429000Y-81780000D01*
X158429000Y-79820000D02*
X158429000Y-78611000D01*
X158389000Y-82965000D02*
X158389000Y-81780000D01*
X158389000Y-79820000D02*
X158389000Y-78635000D01*
X158349000Y-82940000D02*
X158349000Y-81780000D01*
X158349000Y-79820000D02*
X158349000Y-78660000D01*
X158309000Y-82913000D02*
X158309000Y-81780000D01*
X158309000Y-79820000D02*
X158309000Y-78687000D01*
X158269000Y-82886000D02*
X158269000Y-81780000D01*
X158269000Y-79820000D02*
X158269000Y-78714000D01*
X158229000Y-82858000D02*
X158229000Y-81780000D01*
X158229000Y-79820000D02*
X158229000Y-78742000D01*
X158189000Y-82828000D02*
X158189000Y-81780000D01*
X158189000Y-79820000D02*
X158189000Y-78772000D01*
X158149000Y-82797000D02*
X158149000Y-81780000D01*
X158149000Y-79820000D02*
X158149000Y-78803000D01*
X158109000Y-82765000D02*
X158109000Y-81780000D01*
X158109000Y-79820000D02*
X158109000Y-78835000D01*
X158069000Y-82732000D02*
X158069000Y-81780000D01*
X158069000Y-79820000D02*
X158069000Y-78868000D01*
X158029000Y-82697000D02*
X158029000Y-81780000D01*
X158029000Y-79820000D02*
X158029000Y-78903000D01*
X157989000Y-82661000D02*
X157989000Y-81780000D01*
X157989000Y-79820000D02*
X157989000Y-78939000D01*
X157949000Y-82623000D02*
X157949000Y-81780000D01*
X157949000Y-79820000D02*
X157949000Y-78977000D01*
X157909000Y-82583000D02*
X157909000Y-81780000D01*
X157909000Y-79820000D02*
X157909000Y-79017000D01*
X157869000Y-82542000D02*
X157869000Y-81780000D01*
X157869000Y-79820000D02*
X157869000Y-79058000D01*
X157829000Y-82499000D02*
X157829000Y-81780000D01*
X157829000Y-79820000D02*
X157829000Y-79101000D01*
X157789000Y-82454000D02*
X157789000Y-81780000D01*
X157789000Y-79820000D02*
X157789000Y-79146000D01*
X157749000Y-82406000D02*
X157749000Y-81780000D01*
X157749000Y-79820000D02*
X157749000Y-79194000D01*
X157709000Y-82356000D02*
X157709000Y-81780000D01*
X157709000Y-79820000D02*
X157709000Y-79244000D01*
X157669000Y-82304000D02*
X157669000Y-81780000D01*
X157669000Y-79820000D02*
X157669000Y-79296000D01*
X157629000Y-82248000D02*
X157629000Y-81780000D01*
X157629000Y-79820000D02*
X157629000Y-79352000D01*
X157589000Y-82190000D02*
X157589000Y-81780000D01*
X157589000Y-79820000D02*
X157589000Y-79410000D01*
X157549000Y-82127000D02*
X157549000Y-81780000D01*
X157549000Y-79820000D02*
X157549000Y-79473000D01*
X157509000Y-82061000D02*
X157509000Y-79539000D01*
X157469000Y-81989000D02*
X157469000Y-79611000D01*
X157429000Y-81912000D02*
X157429000Y-79688000D01*
X157389000Y-81828000D02*
X157389000Y-79772000D01*
X157349000Y-81734000D02*
X157349000Y-79866000D01*
X157309000Y-81629000D02*
X157309000Y-79971000D01*
X157269000Y-81507000D02*
X157269000Y-80093000D01*
X157229000Y-81359000D02*
X157229000Y-80241000D01*
X157189000Y-81154000D02*
X157189000Y-80446000D01*
X163200000Y-80800000D02*
X162000000Y-80800000D01*
X162600000Y-81450000D02*
X162600000Y-80150000D01*
X187246863Y-101418600D02*
G75*
G03X182452564Y-101420000I-2396863J-981400D01*
G01*
X187246863Y-103381400D02*
G75*
G02X182452564Y-103380000I-2396863J981400D01*
G01*
X187246863Y-103381400D02*
G75*
G03X187247436Y-101420000I-2396863J981400D01*
G01*
X184850000Y-99850000D02*
X184850000Y-104950000D01*
X184890000Y-99850000D02*
X184890000Y-104950000D01*
X184930000Y-99851000D02*
X184930000Y-104949000D01*
X184970000Y-99852000D02*
X184970000Y-104948000D01*
X185010000Y-99854000D02*
X185010000Y-104946000D01*
X185050000Y-99857000D02*
X185050000Y-104943000D01*
X185090000Y-99861000D02*
X185090000Y-104939000D01*
X185130000Y-99865000D02*
X185130000Y-101420000D01*
X185130000Y-103380000D02*
X185130000Y-104935000D01*
X185170000Y-99869000D02*
X185170000Y-101420000D01*
X185170000Y-103380000D02*
X185170000Y-104931000D01*
X185210000Y-99875000D02*
X185210000Y-101420000D01*
X185210000Y-103380000D02*
X185210000Y-104925000D01*
X185250000Y-99881000D02*
X185250000Y-101420000D01*
X185250000Y-103380000D02*
X185250000Y-104919000D01*
X185290000Y-99887000D02*
X185290000Y-101420000D01*
X185290000Y-103380000D02*
X185290000Y-104913000D01*
X185330000Y-99894000D02*
X185330000Y-101420000D01*
X185330000Y-103380000D02*
X185330000Y-104906000D01*
X185370000Y-99902000D02*
X185370000Y-101420000D01*
X185370000Y-103380000D02*
X185370000Y-104898000D01*
X185410000Y-99911000D02*
X185410000Y-101420000D01*
X185410000Y-103380000D02*
X185410000Y-104889000D01*
X185450000Y-99920000D02*
X185450000Y-101420000D01*
X185450000Y-103380000D02*
X185450000Y-104880000D01*
X185490000Y-99930000D02*
X185490000Y-101420000D01*
X185490000Y-103380000D02*
X185490000Y-104870000D01*
X185530000Y-99940000D02*
X185530000Y-101420000D01*
X185530000Y-103380000D02*
X185530000Y-104860000D01*
X185571000Y-99952000D02*
X185571000Y-101420000D01*
X185571000Y-103380000D02*
X185571000Y-104848000D01*
X185611000Y-99964000D02*
X185611000Y-101420000D01*
X185611000Y-103380000D02*
X185611000Y-104836000D01*
X185651000Y-99976000D02*
X185651000Y-101420000D01*
X185651000Y-103380000D02*
X185651000Y-104824000D01*
X185691000Y-99990000D02*
X185691000Y-101420000D01*
X185691000Y-103380000D02*
X185691000Y-104810000D01*
X185731000Y-100004000D02*
X185731000Y-101420000D01*
X185731000Y-103380000D02*
X185731000Y-104796000D01*
X185771000Y-100018000D02*
X185771000Y-101420000D01*
X185771000Y-103380000D02*
X185771000Y-104782000D01*
X185811000Y-100034000D02*
X185811000Y-101420000D01*
X185811000Y-103380000D02*
X185811000Y-104766000D01*
X185851000Y-100050000D02*
X185851000Y-101420000D01*
X185851000Y-103380000D02*
X185851000Y-104750000D01*
X185891000Y-100067000D02*
X185891000Y-101420000D01*
X185891000Y-103380000D02*
X185891000Y-104733000D01*
X185931000Y-100085000D02*
X185931000Y-101420000D01*
X185931000Y-103380000D02*
X185931000Y-104715000D01*
X185971000Y-100104000D02*
X185971000Y-101420000D01*
X185971000Y-103380000D02*
X185971000Y-104696000D01*
X186011000Y-100124000D02*
X186011000Y-101420000D01*
X186011000Y-103380000D02*
X186011000Y-104676000D01*
X186051000Y-100144000D02*
X186051000Y-101420000D01*
X186051000Y-103380000D02*
X186051000Y-104656000D01*
X186091000Y-100166000D02*
X186091000Y-101420000D01*
X186091000Y-103380000D02*
X186091000Y-104634000D01*
X186131000Y-100188000D02*
X186131000Y-101420000D01*
X186131000Y-103380000D02*
X186131000Y-104612000D01*
X186171000Y-100211000D02*
X186171000Y-101420000D01*
X186171000Y-103380000D02*
X186171000Y-104589000D01*
X186211000Y-100235000D02*
X186211000Y-101420000D01*
X186211000Y-103380000D02*
X186211000Y-104565000D01*
X186251000Y-100260000D02*
X186251000Y-101420000D01*
X186251000Y-103380000D02*
X186251000Y-104540000D01*
X186291000Y-100287000D02*
X186291000Y-101420000D01*
X186291000Y-103380000D02*
X186291000Y-104513000D01*
X186331000Y-100314000D02*
X186331000Y-101420000D01*
X186331000Y-103380000D02*
X186331000Y-104486000D01*
X186371000Y-100342000D02*
X186371000Y-101420000D01*
X186371000Y-103380000D02*
X186371000Y-104458000D01*
X186411000Y-100372000D02*
X186411000Y-101420000D01*
X186411000Y-103380000D02*
X186411000Y-104428000D01*
X186451000Y-100403000D02*
X186451000Y-101420000D01*
X186451000Y-103380000D02*
X186451000Y-104397000D01*
X186491000Y-100435000D02*
X186491000Y-101420000D01*
X186491000Y-103380000D02*
X186491000Y-104365000D01*
X186531000Y-100468000D02*
X186531000Y-101420000D01*
X186531000Y-103380000D02*
X186531000Y-104332000D01*
X186571000Y-100503000D02*
X186571000Y-101420000D01*
X186571000Y-103380000D02*
X186571000Y-104297000D01*
X186611000Y-100539000D02*
X186611000Y-101420000D01*
X186611000Y-103380000D02*
X186611000Y-104261000D01*
X186651000Y-100577000D02*
X186651000Y-101420000D01*
X186651000Y-103380000D02*
X186651000Y-104223000D01*
X186691000Y-100617000D02*
X186691000Y-101420000D01*
X186691000Y-103380000D02*
X186691000Y-104183000D01*
X186731000Y-100658000D02*
X186731000Y-101420000D01*
X186731000Y-103380000D02*
X186731000Y-104142000D01*
X186771000Y-100701000D02*
X186771000Y-101420000D01*
X186771000Y-103380000D02*
X186771000Y-104099000D01*
X186811000Y-100746000D02*
X186811000Y-101420000D01*
X186811000Y-103380000D02*
X186811000Y-104054000D01*
X186851000Y-100794000D02*
X186851000Y-101420000D01*
X186851000Y-103380000D02*
X186851000Y-104006000D01*
X186891000Y-100844000D02*
X186891000Y-101420000D01*
X186891000Y-103380000D02*
X186891000Y-103956000D01*
X186931000Y-100896000D02*
X186931000Y-101420000D01*
X186931000Y-103380000D02*
X186931000Y-103904000D01*
X186971000Y-100952000D02*
X186971000Y-101420000D01*
X186971000Y-103380000D02*
X186971000Y-103848000D01*
X187011000Y-101010000D02*
X187011000Y-101420000D01*
X187011000Y-103380000D02*
X187011000Y-103790000D01*
X187051000Y-101073000D02*
X187051000Y-101420000D01*
X187051000Y-103380000D02*
X187051000Y-103727000D01*
X187091000Y-101139000D02*
X187091000Y-103661000D01*
X187131000Y-101211000D02*
X187131000Y-103589000D01*
X187171000Y-101288000D02*
X187171000Y-103512000D01*
X187211000Y-101372000D02*
X187211000Y-103428000D01*
X187251000Y-101466000D02*
X187251000Y-103334000D01*
X187291000Y-101571000D02*
X187291000Y-103229000D01*
X187331000Y-101693000D02*
X187331000Y-103107000D01*
X187371000Y-101841000D02*
X187371000Y-102959000D01*
X187411000Y-102046000D02*
X187411000Y-102754000D01*
X181400000Y-102400000D02*
X182600000Y-102400000D01*
X182000000Y-101750000D02*
X182000000Y-103050000D01*
X128196863Y-115618600D02*
G75*
G03X123402564Y-115620000I-2396863J-981400D01*
G01*
X128196863Y-117581400D02*
G75*
G02X123402564Y-117580000I-2396863J981400D01*
G01*
X128196863Y-117581400D02*
G75*
G03X128197436Y-115620000I-2396863J981400D01*
G01*
X125800000Y-114050000D02*
X125800000Y-119150000D01*
X125840000Y-114050000D02*
X125840000Y-115620000D01*
X125840000Y-117580000D02*
X125840000Y-119150000D01*
X125880000Y-114051000D02*
X125880000Y-115620000D01*
X125880000Y-117580000D02*
X125880000Y-119149000D01*
X125920000Y-114052000D02*
X125920000Y-115620000D01*
X125920000Y-117580000D02*
X125920000Y-119148000D01*
X125960000Y-114054000D02*
X125960000Y-115620000D01*
X125960000Y-117580000D02*
X125960000Y-119146000D01*
X126000000Y-114057000D02*
X126000000Y-115620000D01*
X126000000Y-117580000D02*
X126000000Y-119143000D01*
X126040000Y-114061000D02*
X126040000Y-115620000D01*
X126040000Y-117580000D02*
X126040000Y-119139000D01*
X126080000Y-114065000D02*
X126080000Y-115620000D01*
X126080000Y-117580000D02*
X126080000Y-119135000D01*
X126120000Y-114069000D02*
X126120000Y-115620000D01*
X126120000Y-117580000D02*
X126120000Y-119131000D01*
X126160000Y-114075000D02*
X126160000Y-115620000D01*
X126160000Y-117580000D02*
X126160000Y-119125000D01*
X126200000Y-114081000D02*
X126200000Y-115620000D01*
X126200000Y-117580000D02*
X126200000Y-119119000D01*
X126240000Y-114087000D02*
X126240000Y-115620000D01*
X126240000Y-117580000D02*
X126240000Y-119113000D01*
X126280000Y-114094000D02*
X126280000Y-115620000D01*
X126280000Y-117580000D02*
X126280000Y-119106000D01*
X126320000Y-114102000D02*
X126320000Y-115620000D01*
X126320000Y-117580000D02*
X126320000Y-119098000D01*
X126360000Y-114111000D02*
X126360000Y-115620000D01*
X126360000Y-117580000D02*
X126360000Y-119089000D01*
X126400000Y-114120000D02*
X126400000Y-115620000D01*
X126400000Y-117580000D02*
X126400000Y-119080000D01*
X126440000Y-114130000D02*
X126440000Y-115620000D01*
X126440000Y-117580000D02*
X126440000Y-119070000D01*
X126480000Y-114140000D02*
X126480000Y-115620000D01*
X126480000Y-117580000D02*
X126480000Y-119060000D01*
X126521000Y-114152000D02*
X126521000Y-115620000D01*
X126521000Y-117580000D02*
X126521000Y-119048000D01*
X126561000Y-114164000D02*
X126561000Y-115620000D01*
X126561000Y-117580000D02*
X126561000Y-119036000D01*
X126601000Y-114176000D02*
X126601000Y-115620000D01*
X126601000Y-117580000D02*
X126601000Y-119024000D01*
X126641000Y-114190000D02*
X126641000Y-115620000D01*
X126641000Y-117580000D02*
X126641000Y-119010000D01*
X126681000Y-114204000D02*
X126681000Y-115620000D01*
X126681000Y-117580000D02*
X126681000Y-118996000D01*
X126721000Y-114218000D02*
X126721000Y-115620000D01*
X126721000Y-117580000D02*
X126721000Y-118982000D01*
X126761000Y-114234000D02*
X126761000Y-115620000D01*
X126761000Y-117580000D02*
X126761000Y-118966000D01*
X126801000Y-114250000D02*
X126801000Y-115620000D01*
X126801000Y-117580000D02*
X126801000Y-118950000D01*
X126841000Y-114267000D02*
X126841000Y-115620000D01*
X126841000Y-117580000D02*
X126841000Y-118933000D01*
X126881000Y-114285000D02*
X126881000Y-115620000D01*
X126881000Y-117580000D02*
X126881000Y-118915000D01*
X126921000Y-114304000D02*
X126921000Y-115620000D01*
X126921000Y-117580000D02*
X126921000Y-118896000D01*
X126961000Y-114324000D02*
X126961000Y-115620000D01*
X126961000Y-117580000D02*
X126961000Y-118876000D01*
X127001000Y-114344000D02*
X127001000Y-115620000D01*
X127001000Y-117580000D02*
X127001000Y-118856000D01*
X127041000Y-114366000D02*
X127041000Y-115620000D01*
X127041000Y-117580000D02*
X127041000Y-118834000D01*
X127081000Y-114388000D02*
X127081000Y-115620000D01*
X127081000Y-117580000D02*
X127081000Y-118812000D01*
X127121000Y-114411000D02*
X127121000Y-115620000D01*
X127121000Y-117580000D02*
X127121000Y-118789000D01*
X127161000Y-114435000D02*
X127161000Y-115620000D01*
X127161000Y-117580000D02*
X127161000Y-118765000D01*
X127201000Y-114460000D02*
X127201000Y-115620000D01*
X127201000Y-117580000D02*
X127201000Y-118740000D01*
X127241000Y-114487000D02*
X127241000Y-115620000D01*
X127241000Y-117580000D02*
X127241000Y-118713000D01*
X127281000Y-114514000D02*
X127281000Y-115620000D01*
X127281000Y-117580000D02*
X127281000Y-118686000D01*
X127321000Y-114542000D02*
X127321000Y-115620000D01*
X127321000Y-117580000D02*
X127321000Y-118658000D01*
X127361000Y-114572000D02*
X127361000Y-115620000D01*
X127361000Y-117580000D02*
X127361000Y-118628000D01*
X127401000Y-114603000D02*
X127401000Y-115620000D01*
X127401000Y-117580000D02*
X127401000Y-118597000D01*
X127441000Y-114635000D02*
X127441000Y-115620000D01*
X127441000Y-117580000D02*
X127441000Y-118565000D01*
X127481000Y-114668000D02*
X127481000Y-115620000D01*
X127481000Y-117580000D02*
X127481000Y-118532000D01*
X127521000Y-114703000D02*
X127521000Y-115620000D01*
X127521000Y-117580000D02*
X127521000Y-118497000D01*
X127561000Y-114739000D02*
X127561000Y-115620000D01*
X127561000Y-117580000D02*
X127561000Y-118461000D01*
X127601000Y-114777000D02*
X127601000Y-115620000D01*
X127601000Y-117580000D02*
X127601000Y-118423000D01*
X127641000Y-114817000D02*
X127641000Y-115620000D01*
X127641000Y-117580000D02*
X127641000Y-118383000D01*
X127681000Y-114858000D02*
X127681000Y-115620000D01*
X127681000Y-117580000D02*
X127681000Y-118342000D01*
X127721000Y-114901000D02*
X127721000Y-115620000D01*
X127721000Y-117580000D02*
X127721000Y-118299000D01*
X127761000Y-114946000D02*
X127761000Y-115620000D01*
X127761000Y-117580000D02*
X127761000Y-118254000D01*
X127801000Y-114994000D02*
X127801000Y-118206000D01*
X127841000Y-115044000D02*
X127841000Y-118156000D01*
X127881000Y-115096000D02*
X127881000Y-118104000D01*
X127921000Y-115152000D02*
X127921000Y-118048000D01*
X127961000Y-115210000D02*
X127961000Y-117990000D01*
X128001000Y-115273000D02*
X128001000Y-117927000D01*
X128041000Y-115339000D02*
X128041000Y-117861000D01*
X128081000Y-115411000D02*
X128081000Y-117789000D01*
X128121000Y-115488000D02*
X128121000Y-117712000D01*
X128161000Y-115572000D02*
X128161000Y-117628000D01*
X128201000Y-115666000D02*
X128201000Y-117534000D01*
X128241000Y-115771000D02*
X128241000Y-117429000D01*
X128281000Y-115893000D02*
X128281000Y-117307000D01*
X128321000Y-116041000D02*
X128321000Y-117159000D01*
X128361000Y-116246000D02*
X128361000Y-116954000D01*
X122600000Y-116600000D02*
X123800000Y-116600000D01*
X123200000Y-115950000D02*
X123200000Y-117250000D01*
X127696863Y-95718600D02*
G75*
G03X122902564Y-95720000I-2396863J-981400D01*
G01*
X127696863Y-97681400D02*
G75*
G02X122902564Y-97680000I-2396863J981400D01*
G01*
X127696863Y-97681400D02*
G75*
G03X127697436Y-95720000I-2396863J981400D01*
G01*
X125300000Y-94150000D02*
X125300000Y-99250000D01*
X125340000Y-94150000D02*
X125340000Y-95720000D01*
X125340000Y-97680000D02*
X125340000Y-99250000D01*
X125380000Y-94151000D02*
X125380000Y-95720000D01*
X125380000Y-97680000D02*
X125380000Y-99249000D01*
X125420000Y-94152000D02*
X125420000Y-95720000D01*
X125420000Y-97680000D02*
X125420000Y-99248000D01*
X125460000Y-94154000D02*
X125460000Y-95720000D01*
X125460000Y-97680000D02*
X125460000Y-99246000D01*
X125500000Y-94157000D02*
X125500000Y-95720000D01*
X125500000Y-97680000D02*
X125500000Y-99243000D01*
X125540000Y-94161000D02*
X125540000Y-95720000D01*
X125540000Y-97680000D02*
X125540000Y-99239000D01*
X125580000Y-94165000D02*
X125580000Y-95720000D01*
X125580000Y-97680000D02*
X125580000Y-99235000D01*
X125620000Y-94169000D02*
X125620000Y-95720000D01*
X125620000Y-97680000D02*
X125620000Y-99231000D01*
X125660000Y-94175000D02*
X125660000Y-95720000D01*
X125660000Y-97680000D02*
X125660000Y-99225000D01*
X125700000Y-94181000D02*
X125700000Y-95720000D01*
X125700000Y-97680000D02*
X125700000Y-99219000D01*
X125740000Y-94187000D02*
X125740000Y-95720000D01*
X125740000Y-97680000D02*
X125740000Y-99213000D01*
X125780000Y-94194000D02*
X125780000Y-95720000D01*
X125780000Y-97680000D02*
X125780000Y-99206000D01*
X125820000Y-94202000D02*
X125820000Y-95720000D01*
X125820000Y-97680000D02*
X125820000Y-99198000D01*
X125860000Y-94211000D02*
X125860000Y-95720000D01*
X125860000Y-97680000D02*
X125860000Y-99189000D01*
X125900000Y-94220000D02*
X125900000Y-95720000D01*
X125900000Y-97680000D02*
X125900000Y-99180000D01*
X125940000Y-94230000D02*
X125940000Y-95720000D01*
X125940000Y-97680000D02*
X125940000Y-99170000D01*
X125980000Y-94240000D02*
X125980000Y-95720000D01*
X125980000Y-97680000D02*
X125980000Y-99160000D01*
X126021000Y-94252000D02*
X126021000Y-95720000D01*
X126021000Y-97680000D02*
X126021000Y-99148000D01*
X126061000Y-94264000D02*
X126061000Y-95720000D01*
X126061000Y-97680000D02*
X126061000Y-99136000D01*
X126101000Y-94276000D02*
X126101000Y-95720000D01*
X126101000Y-97680000D02*
X126101000Y-99124000D01*
X126141000Y-94290000D02*
X126141000Y-95720000D01*
X126141000Y-97680000D02*
X126141000Y-99110000D01*
X126181000Y-94304000D02*
X126181000Y-95720000D01*
X126181000Y-97680000D02*
X126181000Y-99096000D01*
X126221000Y-94318000D02*
X126221000Y-95720000D01*
X126221000Y-97680000D02*
X126221000Y-99082000D01*
X126261000Y-94334000D02*
X126261000Y-95720000D01*
X126261000Y-97680000D02*
X126261000Y-99066000D01*
X126301000Y-94350000D02*
X126301000Y-95720000D01*
X126301000Y-97680000D02*
X126301000Y-99050000D01*
X126341000Y-94367000D02*
X126341000Y-95720000D01*
X126341000Y-97680000D02*
X126341000Y-99033000D01*
X126381000Y-94385000D02*
X126381000Y-95720000D01*
X126381000Y-97680000D02*
X126381000Y-99015000D01*
X126421000Y-94404000D02*
X126421000Y-95720000D01*
X126421000Y-97680000D02*
X126421000Y-98996000D01*
X126461000Y-94424000D02*
X126461000Y-95720000D01*
X126461000Y-97680000D02*
X126461000Y-98976000D01*
X126501000Y-94444000D02*
X126501000Y-95720000D01*
X126501000Y-97680000D02*
X126501000Y-98956000D01*
X126541000Y-94466000D02*
X126541000Y-95720000D01*
X126541000Y-97680000D02*
X126541000Y-98934000D01*
X126581000Y-94488000D02*
X126581000Y-95720000D01*
X126581000Y-97680000D02*
X126581000Y-98912000D01*
X126621000Y-94511000D02*
X126621000Y-95720000D01*
X126621000Y-97680000D02*
X126621000Y-98889000D01*
X126661000Y-94535000D02*
X126661000Y-95720000D01*
X126661000Y-97680000D02*
X126661000Y-98865000D01*
X126701000Y-94560000D02*
X126701000Y-95720000D01*
X126701000Y-97680000D02*
X126701000Y-98840000D01*
X126741000Y-94587000D02*
X126741000Y-95720000D01*
X126741000Y-97680000D02*
X126741000Y-98813000D01*
X126781000Y-94614000D02*
X126781000Y-95720000D01*
X126781000Y-97680000D02*
X126781000Y-98786000D01*
X126821000Y-94642000D02*
X126821000Y-95720000D01*
X126821000Y-97680000D02*
X126821000Y-98758000D01*
X126861000Y-94672000D02*
X126861000Y-95720000D01*
X126861000Y-97680000D02*
X126861000Y-98728000D01*
X126901000Y-94703000D02*
X126901000Y-95720000D01*
X126901000Y-97680000D02*
X126901000Y-98697000D01*
X126941000Y-94735000D02*
X126941000Y-95720000D01*
X126941000Y-97680000D02*
X126941000Y-98665000D01*
X126981000Y-94768000D02*
X126981000Y-95720000D01*
X126981000Y-97680000D02*
X126981000Y-98632000D01*
X127021000Y-94803000D02*
X127021000Y-95720000D01*
X127021000Y-97680000D02*
X127021000Y-98597000D01*
X127061000Y-94839000D02*
X127061000Y-95720000D01*
X127061000Y-97680000D02*
X127061000Y-98561000D01*
X127101000Y-94877000D02*
X127101000Y-95720000D01*
X127101000Y-97680000D02*
X127101000Y-98523000D01*
X127141000Y-94917000D02*
X127141000Y-95720000D01*
X127141000Y-97680000D02*
X127141000Y-98483000D01*
X127181000Y-94958000D02*
X127181000Y-95720000D01*
X127181000Y-97680000D02*
X127181000Y-98442000D01*
X127221000Y-95001000D02*
X127221000Y-95720000D01*
X127221000Y-97680000D02*
X127221000Y-98399000D01*
X127261000Y-95046000D02*
X127261000Y-95720000D01*
X127261000Y-97680000D02*
X127261000Y-98354000D01*
X127301000Y-95094000D02*
X127301000Y-98306000D01*
X127341000Y-95144000D02*
X127341000Y-98256000D01*
X127381000Y-95196000D02*
X127381000Y-98204000D01*
X127421000Y-95252000D02*
X127421000Y-98148000D01*
X127461000Y-95310000D02*
X127461000Y-98090000D01*
X127501000Y-95373000D02*
X127501000Y-98027000D01*
X127541000Y-95439000D02*
X127541000Y-97961000D01*
X127581000Y-95511000D02*
X127581000Y-97889000D01*
X127621000Y-95588000D02*
X127621000Y-97812000D01*
X127661000Y-95672000D02*
X127661000Y-97728000D01*
X127701000Y-95766000D02*
X127701000Y-97634000D01*
X127741000Y-95871000D02*
X127741000Y-97529000D01*
X127781000Y-95993000D02*
X127781000Y-97407000D01*
X127821000Y-96141000D02*
X127821000Y-97259000D01*
X127861000Y-96346000D02*
X127861000Y-97054000D01*
X122100000Y-96700000D02*
X123300000Y-96700000D01*
X122700000Y-96050000D02*
X122700000Y-97350000D01*
X197013242Y-99919276D02*
G75*
G03X192710000Y-99601251I-2243242J-1080724D01*
G01*
X197013242Y-102080724D02*
G75*
G02X192710000Y-102398749I-2243242J1080724D01*
G01*
X196452713Y-99919039D02*
G75*
G03X193086670Y-99920000I-1682713J-1080961D01*
G01*
X196452713Y-102080961D02*
G75*
G02X193086670Y-102080000I-1682713J1080961D01*
G01*
X192710000Y-99601000D02*
X192710000Y-99920000D01*
X192710000Y-102080000D02*
X192710000Y-102399000D01*
X59550000Y-87150000D02*
X63650000Y-87150000D01*
X63650000Y-87150000D02*
X63650000Y-79350000D01*
X63650000Y-79350000D02*
X59550000Y-79350000D01*
X59550000Y-79350000D02*
X59550000Y-87150000D01*
X61300000Y-87150000D02*
X61300000Y-86650000D01*
X61300000Y-86650000D02*
X60050000Y-86650000D01*
X60050000Y-86650000D02*
X60050000Y-79850000D01*
X60050000Y-79850000D02*
X61300000Y-79850000D01*
X61300000Y-79850000D02*
X61300000Y-79350000D01*
X62150000Y-87150000D02*
X62150000Y-86150000D01*
X62150000Y-86150000D02*
X63650000Y-86150000D01*
X62150000Y-79350000D02*
X62150000Y-80350000D01*
X62150000Y-80350000D02*
X63650000Y-80350000D01*
X61450000Y-87450000D02*
X63950000Y-87450000D01*
X63950000Y-87450000D02*
X63950000Y-84950000D01*
X74550000Y-122850000D02*
X74550000Y-118750000D01*
X74550000Y-118750000D02*
X66750000Y-118750000D01*
X66750000Y-118750000D02*
X66750000Y-122850000D01*
X66750000Y-122850000D02*
X74550000Y-122850000D01*
X74550000Y-121100000D02*
X74050000Y-121100000D01*
X74050000Y-121100000D02*
X74050000Y-122350000D01*
X74050000Y-122350000D02*
X67250000Y-122350000D01*
X67250000Y-122350000D02*
X67250000Y-121100000D01*
X67250000Y-121100000D02*
X66750000Y-121100000D01*
X74550000Y-120250000D02*
X73550000Y-120250000D01*
X73550000Y-120250000D02*
X73550000Y-118750000D01*
X66750000Y-120250000D02*
X67750000Y-120250000D01*
X67750000Y-120250000D02*
X67750000Y-118750000D01*
X74850000Y-120950000D02*
X74850000Y-118450000D01*
X74850000Y-118450000D02*
X72350000Y-118450000D01*
X176950000Y-98550000D02*
X176950000Y-94450000D01*
X176950000Y-94450000D02*
X166650000Y-94450000D01*
X166650000Y-94450000D02*
X166650000Y-98550000D01*
X166650000Y-98550000D02*
X176950000Y-98550000D01*
X176950000Y-96800000D02*
X176450000Y-96800000D01*
X176450000Y-96800000D02*
X176450000Y-98050000D01*
X176450000Y-98050000D02*
X167150000Y-98050000D01*
X167150000Y-98050000D02*
X167150000Y-96800000D01*
X167150000Y-96800000D02*
X166650000Y-96800000D01*
X176950000Y-95950000D02*
X175950000Y-95950000D01*
X175950000Y-95950000D02*
X175950000Y-94450000D01*
X166650000Y-95950000D02*
X167650000Y-95950000D01*
X167650000Y-95950000D02*
X167650000Y-94450000D01*
X177250000Y-96650000D02*
X177250000Y-94150000D01*
X177250000Y-94150000D02*
X174750000Y-94150000D01*
X196750000Y-89350000D02*
X192650000Y-89350000D01*
X192650000Y-89350000D02*
X192650000Y-97150000D01*
X192650000Y-97150000D02*
X196750000Y-97150000D01*
X196750000Y-97150000D02*
X196750000Y-89350000D01*
X195000000Y-89350000D02*
X195000000Y-89850000D01*
X195000000Y-89850000D02*
X196250000Y-89850000D01*
X196250000Y-89850000D02*
X196250000Y-96650000D01*
X196250000Y-96650000D02*
X195000000Y-96650000D01*
X195000000Y-96650000D02*
X195000000Y-97150000D01*
X194150000Y-89350000D02*
X194150000Y-90350000D01*
X194150000Y-90350000D02*
X192650000Y-90350000D01*
X194150000Y-97150000D02*
X194150000Y-96150000D01*
X194150000Y-96150000D02*
X192650000Y-96150000D01*
X194850000Y-89050000D02*
X192350000Y-89050000D01*
X192350000Y-89050000D02*
X192350000Y-91550000D01*
X182350000Y-45650000D02*
X182350000Y-49750000D01*
X182350000Y-49750000D02*
X190150000Y-49750000D01*
X190150000Y-49750000D02*
X190150000Y-45650000D01*
X190150000Y-45650000D02*
X182350000Y-45650000D01*
X182350000Y-47400000D02*
X182850000Y-47400000D01*
X182850000Y-47400000D02*
X182850000Y-46150000D01*
X182850000Y-46150000D02*
X189650000Y-46150000D01*
X189650000Y-46150000D02*
X189650000Y-47400000D01*
X189650000Y-47400000D02*
X190150000Y-47400000D01*
X182350000Y-48250000D02*
X183350000Y-48250000D01*
X183350000Y-48250000D02*
X183350000Y-49750000D01*
X190150000Y-48250000D02*
X189150000Y-48250000D01*
X189150000Y-48250000D02*
X189150000Y-49750000D01*
X182050000Y-47550000D02*
X182050000Y-50050000D01*
X182050000Y-50050000D02*
X184550000Y-50050000D01*
X188950000Y-141750000D02*
X188950000Y-137650000D01*
X188950000Y-137650000D02*
X181150000Y-137650000D01*
X181150000Y-137650000D02*
X181150000Y-141750000D01*
X181150000Y-141750000D02*
X188950000Y-141750000D01*
X188950000Y-140000000D02*
X188450000Y-140000000D01*
X188450000Y-140000000D02*
X188450000Y-141250000D01*
X188450000Y-141250000D02*
X181650000Y-141250000D01*
X181650000Y-141250000D02*
X181650000Y-140000000D01*
X181650000Y-140000000D02*
X181150000Y-140000000D01*
X188950000Y-139150000D02*
X187950000Y-139150000D01*
X187950000Y-139150000D02*
X187950000Y-137650000D01*
X181150000Y-139150000D02*
X182150000Y-139150000D01*
X182150000Y-139150000D02*
X182150000Y-137650000D01*
X189250000Y-139850000D02*
X189250000Y-137350000D01*
X189250000Y-137350000D02*
X186750000Y-137350000D01*
X59750000Y-101250000D02*
X63850000Y-101250000D01*
X63850000Y-101250000D02*
X63850000Y-93450000D01*
X63850000Y-93450000D02*
X59750000Y-93450000D01*
X59750000Y-93450000D02*
X59750000Y-101250000D01*
X61500000Y-101250000D02*
X61500000Y-100750000D01*
X61500000Y-100750000D02*
X60250000Y-100750000D01*
X60250000Y-100750000D02*
X60250000Y-93950000D01*
X60250000Y-93950000D02*
X61500000Y-93950000D01*
X61500000Y-93950000D02*
X61500000Y-93450000D01*
X62350000Y-101250000D02*
X62350000Y-100250000D01*
X62350000Y-100250000D02*
X63850000Y-100250000D01*
X62350000Y-93450000D02*
X62350000Y-94450000D01*
X62350000Y-94450000D02*
X63850000Y-94450000D01*
X61650000Y-101550000D02*
X64150000Y-101550000D01*
X64150000Y-101550000D02*
X64150000Y-99050000D01*
X86250000Y-122850000D02*
X86250000Y-118750000D01*
X86250000Y-118750000D02*
X75950000Y-118750000D01*
X75950000Y-118750000D02*
X75950000Y-122850000D01*
X75950000Y-122850000D02*
X86250000Y-122850000D01*
X86250000Y-121100000D02*
X85750000Y-121100000D01*
X85750000Y-121100000D02*
X85750000Y-122350000D01*
X85750000Y-122350000D02*
X76450000Y-122350000D01*
X76450000Y-122350000D02*
X76450000Y-121100000D01*
X76450000Y-121100000D02*
X75950000Y-121100000D01*
X86250000Y-120250000D02*
X85250000Y-120250000D01*
X85250000Y-120250000D02*
X85250000Y-118750000D01*
X75950000Y-120250000D02*
X76950000Y-120250000D01*
X76950000Y-120250000D02*
X76950000Y-118750000D01*
X86550000Y-120950000D02*
X86550000Y-118450000D01*
X86550000Y-118450000D02*
X84050000Y-118450000D01*
X191350000Y-64050000D02*
X195450000Y-64050000D01*
X195450000Y-64050000D02*
X195450000Y-56250000D01*
X195450000Y-56250000D02*
X191350000Y-56250000D01*
X191350000Y-56250000D02*
X191350000Y-64050000D01*
X193100000Y-64050000D02*
X193100000Y-63550000D01*
X193100000Y-63550000D02*
X191850000Y-63550000D01*
X191850000Y-63550000D02*
X191850000Y-56750000D01*
X191850000Y-56750000D02*
X193100000Y-56750000D01*
X193100000Y-56750000D02*
X193100000Y-56250000D01*
X193950000Y-64050000D02*
X193950000Y-63050000D01*
X193950000Y-63050000D02*
X195450000Y-63050000D01*
X193950000Y-56250000D02*
X193950000Y-57250000D01*
X193950000Y-57250000D02*
X195450000Y-57250000D01*
X193250000Y-64350000D02*
X195750000Y-64350000D01*
X195750000Y-64350000D02*
X195750000Y-61850000D01*
X197050000Y-125550000D02*
X192950000Y-125550000D01*
X192950000Y-125550000D02*
X192950000Y-133350000D01*
X192950000Y-133350000D02*
X197050000Y-133350000D01*
X197050000Y-133350000D02*
X197050000Y-125550000D01*
X195300000Y-125550000D02*
X195300000Y-126050000D01*
X195300000Y-126050000D02*
X196550000Y-126050000D01*
X196550000Y-126050000D02*
X196550000Y-132850000D01*
X196550000Y-132850000D02*
X195300000Y-132850000D01*
X195300000Y-132850000D02*
X195300000Y-133350000D01*
X194450000Y-125550000D02*
X194450000Y-126550000D01*
X194450000Y-126550000D02*
X192950000Y-126550000D01*
X194450000Y-133350000D02*
X194450000Y-132350000D01*
X194450000Y-132350000D02*
X192950000Y-132350000D01*
X195150000Y-125250000D02*
X192650000Y-125250000D01*
X192650000Y-125250000D02*
X192650000Y-127750000D01*
X196650000Y-74950000D02*
X192550000Y-74950000D01*
X192550000Y-74950000D02*
X192550000Y-87750000D01*
X192550000Y-87750000D02*
X196650000Y-87750000D01*
X196650000Y-87750000D02*
X196650000Y-74950000D01*
X194900000Y-74950000D02*
X194900000Y-75450000D01*
X194900000Y-75450000D02*
X196150000Y-75450000D01*
X196150000Y-75450000D02*
X196150000Y-87250000D01*
X196150000Y-87250000D02*
X194900000Y-87250000D01*
X194900000Y-87250000D02*
X194900000Y-87750000D01*
X194050000Y-74950000D02*
X194050000Y-75950000D01*
X194050000Y-75950000D02*
X192550000Y-75950000D01*
X194050000Y-87750000D02*
X194050000Y-86750000D01*
X194050000Y-86750000D02*
X192550000Y-86750000D01*
X194750000Y-74650000D02*
X192250000Y-74650000D01*
X192250000Y-74650000D02*
X192250000Y-77150000D01*
X196650000Y-105750000D02*
X192550000Y-105750000D01*
X192550000Y-105750000D02*
X192550000Y-118550000D01*
X192550000Y-118550000D02*
X196650000Y-118550000D01*
X196650000Y-118550000D02*
X196650000Y-105750000D01*
X194900000Y-105750000D02*
X194900000Y-106250000D01*
X194900000Y-106250000D02*
X196150000Y-106250000D01*
X196150000Y-106250000D02*
X196150000Y-118050000D01*
X196150000Y-118050000D02*
X194900000Y-118050000D01*
X194900000Y-118050000D02*
X194900000Y-118550000D01*
X194050000Y-105750000D02*
X194050000Y-106750000D01*
X194050000Y-106750000D02*
X192550000Y-106750000D01*
X194050000Y-118550000D02*
X194050000Y-117550000D01*
X194050000Y-117550000D02*
X192550000Y-117550000D01*
X194750000Y-105450000D02*
X192250000Y-105450000D01*
X192250000Y-105450000D02*
X192250000Y-107950000D01*
X78650000Y-72950000D02*
X78650000Y-77050000D01*
X78650000Y-77050000D02*
X86450000Y-77050000D01*
X86450000Y-77050000D02*
X86450000Y-72950000D01*
X86450000Y-72950000D02*
X78650000Y-72950000D01*
X78650000Y-74700000D02*
X79150000Y-74700000D01*
X79150000Y-74700000D02*
X79150000Y-73450000D01*
X79150000Y-73450000D02*
X85950000Y-73450000D01*
X85950000Y-73450000D02*
X85950000Y-74700000D01*
X85950000Y-74700000D02*
X86450000Y-74700000D01*
X78650000Y-75550000D02*
X79650000Y-75550000D01*
X79650000Y-75550000D02*
X79650000Y-77050000D01*
X86450000Y-75550000D02*
X85450000Y-75550000D01*
X85450000Y-75550000D02*
X85450000Y-77050000D01*
X78350000Y-74850000D02*
X78350000Y-77350000D01*
X78350000Y-77350000D02*
X80850000Y-77350000D01*
D13*
X157251000Y-104126000D02*
X153822000Y-104126000D01*
X157251000Y-94474000D02*
X153822000Y-94474000D01*
X158394000Y-104634000D02*
X158394000Y-93966000D01*
X157378000Y-101078000D02*
X158648000Y-101078000D01*
X157378000Y-97522000D02*
X158648000Y-97522000D01*
X157251000Y-93966000D02*
X157251000Y-104634000D01*
X153822000Y-104634000D02*
X153822000Y-93966000D01*
X158648000Y-93966000D02*
X153822000Y-93966000D01*
X158648000Y-104634000D02*
X153822000Y-104634000D01*
X158648000Y-104634000D02*
X158648000Y-93966000D01*
D12*
X186620000Y-61800000D02*
X186290000Y-61800000D01*
X186290000Y-61800000D02*
X186290000Y-55380000D01*
X186290000Y-55380000D02*
X186620000Y-55380000D01*
X188580000Y-61800000D02*
X188910000Y-61800000D01*
X188910000Y-61800000D02*
X188910000Y-55380000D01*
X188910000Y-55380000D02*
X188580000Y-55380000D01*
X184940000Y-55360000D02*
X185270000Y-55360000D01*
X185270000Y-55360000D02*
X185270000Y-61780000D01*
X185270000Y-61780000D02*
X184940000Y-61780000D01*
X182980000Y-55360000D02*
X182650000Y-55360000D01*
X182650000Y-55360000D02*
X182650000Y-61780000D01*
X182650000Y-61780000D02*
X182980000Y-61780000D01*
X184200000Y-134580000D02*
X184200000Y-134910000D01*
X184200000Y-134910000D02*
X177780000Y-134910000D01*
X177780000Y-134910000D02*
X177780000Y-134580000D01*
X184200000Y-132620000D02*
X184200000Y-132290000D01*
X184200000Y-132290000D02*
X177780000Y-132290000D01*
X177780000Y-132290000D02*
X177780000Y-132620000D01*
X96000000Y-122680000D02*
X96000000Y-123010000D01*
X96000000Y-123010000D02*
X89580000Y-123010000D01*
X89580000Y-123010000D02*
X89580000Y-122680000D01*
X96000000Y-120720000D02*
X96000000Y-120390000D01*
X96000000Y-120390000D02*
X89580000Y-120390000D01*
X89580000Y-120390000D02*
X89580000Y-120720000D01*
X95800000Y-113880000D02*
X95800000Y-114210000D01*
X95800000Y-114210000D02*
X89380000Y-114210000D01*
X89380000Y-114210000D02*
X89380000Y-113880000D01*
X95800000Y-111920000D02*
X95800000Y-111590000D01*
X95800000Y-111590000D02*
X89380000Y-111590000D01*
X89380000Y-111590000D02*
X89380000Y-111920000D01*
X89500000Y-116220000D02*
X89500000Y-115890000D01*
X89500000Y-115890000D02*
X95920000Y-115890000D01*
X95920000Y-115890000D02*
X95920000Y-116220000D01*
X89500000Y-118180000D02*
X89500000Y-118510000D01*
X89500000Y-118510000D02*
X95920000Y-118510000D01*
X95920000Y-118510000D02*
X95920000Y-118180000D01*
X123400000Y-85320000D02*
X123400000Y-84990000D01*
X123400000Y-84990000D02*
X129820000Y-84990000D01*
X129820000Y-84990000D02*
X129820000Y-85320000D01*
X123400000Y-87280000D02*
X123400000Y-87610000D01*
X123400000Y-87610000D02*
X129820000Y-87610000D01*
X129820000Y-87610000D02*
X129820000Y-87280000D01*
X180360000Y-95120000D02*
X180360000Y-94790000D01*
X180360000Y-94790000D02*
X186780000Y-94790000D01*
X186780000Y-94790000D02*
X186780000Y-95120000D01*
X180360000Y-97080000D02*
X180360000Y-97410000D01*
X180360000Y-97410000D02*
X186780000Y-97410000D01*
X186780000Y-97410000D02*
X186780000Y-97080000D01*
X160980000Y-68600000D02*
X161310000Y-68600000D01*
X161310000Y-68600000D02*
X161310000Y-75020000D01*
X161310000Y-75020000D02*
X160980000Y-75020000D01*
X159020000Y-68600000D02*
X158690000Y-68600000D01*
X158690000Y-68600000D02*
X158690000Y-75020000D01*
X158690000Y-75020000D02*
X159020000Y-75020000D01*
X188280000Y-66400000D02*
X188610000Y-66400000D01*
X188610000Y-66400000D02*
X188610000Y-72820000D01*
X188610000Y-72820000D02*
X188280000Y-72820000D01*
X186320000Y-66400000D02*
X185990000Y-66400000D01*
X185990000Y-66400000D02*
X185990000Y-72820000D01*
X185990000Y-72820000D02*
X186320000Y-72820000D01*
X186220000Y-83900000D02*
X185890000Y-83900000D01*
X185890000Y-83900000D02*
X185890000Y-77480000D01*
X185890000Y-77480000D02*
X186220000Y-77480000D01*
X188180000Y-83900000D02*
X188510000Y-83900000D01*
X188510000Y-83900000D02*
X188510000Y-77480000D01*
X188510000Y-77480000D02*
X188180000Y-77480000D01*
D13*
X175430000Y-118850000D02*
X175430000Y-106150000D01*
X175430000Y-106150000D02*
X152570000Y-106150000D01*
X152570000Y-106150000D02*
X152570000Y-118850000D01*
X152570000Y-118850000D02*
X175430000Y-118850000D01*
D12*
X178430000Y-87130000D02*
X178430000Y-89670000D01*
X178430000Y-89670000D02*
X181100000Y-89670000D01*
X181100000Y-87130000D02*
X181100000Y-48900000D01*
X181100000Y-92340000D02*
X181100000Y-89670000D01*
X165730000Y-89670000D02*
X163060000Y-89670000D01*
X165730000Y-89670000D02*
X165730000Y-51570000D01*
X165730000Y-51570000D02*
X163060000Y-51570000D01*
X178430000Y-87130000D02*
X181100000Y-87130000D01*
X178430000Y-87130000D02*
X178430000Y-51570000D01*
X178430000Y-51570000D02*
X181100000Y-51570000D01*
X181100000Y-48900000D02*
X163060000Y-48900000D01*
X163060000Y-48900000D02*
X163060000Y-92340000D01*
X163060000Y-92340000D02*
X181100000Y-92340000D01*
D13*
X130080000Y-113250000D02*
X130080000Y-100550000D01*
X130080000Y-100550000D02*
X145320000Y-100550000D01*
X145320000Y-100550000D02*
X145320000Y-113250000D01*
X145320000Y-113250000D02*
X130080000Y-113250000D01*
D12*
X102910000Y-106690000D02*
G75*
G02X102910000Y-108690000I0J-1000000D01*
G01*
X102910000Y-108690000D02*
X102910000Y-110460000D01*
X102910000Y-110460000D02*
X113310000Y-110460000D01*
X113310000Y-110460000D02*
X113310000Y-104920000D01*
X113310000Y-104920000D02*
X102910000Y-104920000D01*
X102910000Y-104920000D02*
X102910000Y-106690000D01*
D13*
X87894000Y-47874000D02*
X87894000Y-82926000D01*
X87894000Y-82926000D02*
X132852000Y-82926000D01*
X132852000Y-82926000D02*
X132852000Y-47874000D01*
X132852000Y-47874000D02*
X87894000Y-47874000D01*
D12*
X64050000Y-73150000D02*
X64050000Y-77250000D01*
X64050000Y-77250000D02*
X76850000Y-77250000D01*
X76850000Y-77250000D02*
X76850000Y-73150000D01*
X76850000Y-73150000D02*
X64050000Y-73150000D01*
X64050000Y-74900000D02*
X64550000Y-74900000D01*
X64550000Y-74900000D02*
X64550000Y-73650000D01*
X64550000Y-73650000D02*
X76350000Y-73650000D01*
X76350000Y-73650000D02*
X76350000Y-74900000D01*
X76350000Y-74900000D02*
X76850000Y-74900000D01*
X64050000Y-75750000D02*
X65050000Y-75750000D01*
X65050000Y-75750000D02*
X65050000Y-77250000D01*
X76850000Y-75750000D02*
X75850000Y-75750000D01*
X75850000Y-75750000D02*
X75850000Y-77250000D01*
X63750000Y-75050000D02*
X63750000Y-77550000D01*
X63750000Y-77550000D02*
X66250000Y-77550000D01*
D13*
X139500000Y-96500000D02*
X150500000Y-96500000D01*
X150500000Y-89700000D02*
X149200000Y-88400000D01*
X150500000Y-91200000D02*
X149200000Y-91200000D01*
X150500000Y-91200000D02*
X150500000Y-89700000D01*
X150500000Y-92300000D02*
X149200000Y-92300000D01*
X150500000Y-98400000D02*
X150500000Y-92300000D01*
X149200000Y-91200000D02*
X149200000Y-92300000D01*
X149200000Y-88400000D02*
X149200000Y-83400000D01*
X145000000Y-83400000D02*
X149200000Y-83400000D01*
X145000000Y-83400000D02*
X139500000Y-83400000D01*
X139500000Y-83400000D02*
X139500000Y-98400000D01*
X139500000Y-98400000D02*
X150500000Y-98400000D01*
X133468400Y-46359600D02*
X156531600Y-46359600D01*
X133468400Y-83088000D02*
X133468400Y-46359600D01*
X156531600Y-83088000D02*
X156531600Y-46359600D01*
X140936000Y-51592000D02*
X149064000Y-51592000D01*
X137380000Y-67594000D02*
X137380000Y-82834000D01*
X137380000Y-82834000D02*
X152620000Y-82834000D01*
X152620000Y-82834000D02*
X152620000Y-67594000D01*
X152620000Y-67594000D02*
X137380000Y-67594000D01*
X140936000Y-51592000D02*
X140936000Y-46512000D01*
X140936000Y-46512000D02*
X149064000Y-46512000D01*
X149064000Y-46512000D02*
X149064000Y-51592000D01*
X133468400Y-83088000D02*
X156531600Y-83088000D01*
X106236420Y-124480000D02*
G75*
G03X106236420Y-124480000I-718420J0D01*
G01*
X101156420Y-129560000D02*
G75*
G03X101156420Y-129560000I-718420J0D01*
G01*
X103696420Y-129560000D02*
G75*
G03X103696420Y-129560000I-718420J0D01*
G01*
X108776420Y-129560000D02*
G75*
G03X108776420Y-129560000I-718420J0D01*
G01*
X111316420Y-129560000D02*
G75*
G03X111316420Y-129560000I-718420J0D01*
G01*
X103740000Y-118130000D02*
X109074000Y-118130000D01*
X103740000Y-120162000D02*
X103740000Y-118130000D01*
X109074000Y-120162000D02*
X109074000Y-118130000D01*
X110852000Y-120162000D02*
X110852000Y-121178000D01*
X101962000Y-120162000D02*
X101962000Y-121178000D01*
X110852000Y-120162000D02*
X101962000Y-120162000D01*
X127870000Y-143276000D02*
X127870000Y-121178000D01*
X127870000Y-121178000D02*
X98406000Y-121178000D01*
X98406000Y-121178000D02*
X98406000Y-143276000D01*
X98406000Y-143276000D02*
X127870000Y-143276000D01*
X163659939Y-132227000D02*
G75*
G03X163659939Y-132227000I-10537939J0D01*
G01*
X174966000Y-143276000D02*
X174966000Y-121178000D01*
X136866000Y-143276000D02*
X136866000Y-121178000D01*
X136866000Y-143276000D02*
X174966000Y-143276000D01*
X136866000Y-121178000D02*
X174966000Y-121178000D01*
X65110000Y-93972000D02*
X82890000Y-93972000D01*
X65110000Y-116070000D02*
X82890000Y-116070000D01*
X65110000Y-88130000D02*
X82890000Y-88130000D01*
X65110000Y-116070000D02*
X65110000Y-88130000D01*
X82890000Y-88130000D02*
X82890000Y-116070000D01*
X121550000Y-101990000D02*
X121550000Y-84210000D01*
X83450000Y-101990000D02*
X83450000Y-84210000D01*
X121550000Y-101990000D02*
X83450000Y-101990000D01*
X83450000Y-84210000D02*
X121550000Y-84210000D01*
X146842381Y-107204285D02*
X146842381Y-107775714D01*
X146842381Y-107490000D02*
X145842381Y-107490000D01*
X145985238Y-107585238D01*
X146080476Y-107680476D01*
X146128095Y-107775714D01*
X146842381Y-106775714D02*
X145842381Y-106775714D01*
X146842381Y-106204285D01*
X145842381Y-106204285D01*
X146842381Y-105204285D02*
X146842381Y-105775714D01*
X146842381Y-105490000D02*
X145842381Y-105490000D01*
X145985238Y-105585238D01*
X146080476Y-105680476D01*
X146128095Y-105775714D01*
X88083334Y-110617143D02*
X88035715Y-110664762D01*
X87892858Y-110712381D01*
X87797620Y-110712381D01*
X87654762Y-110664762D01*
X87559524Y-110569524D01*
X87511905Y-110474286D01*
X87464286Y-110283810D01*
X87464286Y-110140952D01*
X87511905Y-109950476D01*
X87559524Y-109855238D01*
X87654762Y-109760000D01*
X87797620Y-109712381D01*
X87892858Y-109712381D01*
X88035715Y-109760000D01*
X88083334Y-109807619D01*
X89035715Y-110712381D02*
X88464286Y-110712381D01*
X88750000Y-110712381D02*
X88750000Y-109712381D01*
X88654762Y-109855238D01*
X88559524Y-109950476D01*
X88464286Y-109998095D01*
X177383334Y-99397143D02*
X177335715Y-99444762D01*
X177192858Y-99492381D01*
X177097620Y-99492381D01*
X176954762Y-99444762D01*
X176859524Y-99349524D01*
X176811905Y-99254286D01*
X176764286Y-99063810D01*
X176764286Y-98920952D01*
X176811905Y-98730476D01*
X176859524Y-98635238D01*
X176954762Y-98540000D01*
X177097620Y-98492381D01*
X177192858Y-98492381D01*
X177335715Y-98540000D01*
X177383334Y-98587619D01*
X177764286Y-98587619D02*
X177811905Y-98540000D01*
X177907143Y-98492381D01*
X178145239Y-98492381D01*
X178240477Y-98540000D01*
X178288096Y-98587619D01*
X178335715Y-98682857D01*
X178335715Y-98778095D01*
X178288096Y-98920952D01*
X177716667Y-99492381D01*
X178335715Y-99492381D01*
X166333334Y-106557143D02*
X166285715Y-106604762D01*
X166142858Y-106652381D01*
X166047620Y-106652381D01*
X165904762Y-106604762D01*
X165809524Y-106509524D01*
X165761905Y-106414286D01*
X165714286Y-106223810D01*
X165714286Y-106080952D01*
X165761905Y-105890476D01*
X165809524Y-105795238D01*
X165904762Y-105700000D01*
X166047620Y-105652381D01*
X166142858Y-105652381D01*
X166285715Y-105700000D01*
X166333334Y-105747619D01*
X166666667Y-105652381D02*
X167285715Y-105652381D01*
X166952381Y-106033333D01*
X167095239Y-106033333D01*
X167190477Y-106080952D01*
X167238096Y-106128571D01*
X167285715Y-106223810D01*
X167285715Y-106461905D01*
X167238096Y-106557143D01*
X167190477Y-106604762D01*
X167095239Y-106652381D01*
X166809524Y-106652381D01*
X166714286Y-106604762D01*
X166666667Y-106557143D01*
X172433334Y-106357143D02*
X172385715Y-106404762D01*
X172242858Y-106452381D01*
X172147620Y-106452381D01*
X172004762Y-106404762D01*
X171909524Y-106309524D01*
X171861905Y-106214286D01*
X171814286Y-106023810D01*
X171814286Y-105880952D01*
X171861905Y-105690476D01*
X171909524Y-105595238D01*
X172004762Y-105500000D01*
X172147620Y-105452381D01*
X172242858Y-105452381D01*
X172385715Y-105500000D01*
X172433334Y-105547619D01*
X173290477Y-105785714D02*
X173290477Y-106452381D01*
X173052381Y-105404762D02*
X172814286Y-106119048D01*
X173433334Y-106119048D01*
X185857143Y-112066666D02*
X185904762Y-112114285D01*
X185952381Y-112257142D01*
X185952381Y-112352380D01*
X185904762Y-112495238D01*
X185809524Y-112590476D01*
X185714286Y-112638095D01*
X185523810Y-112685714D01*
X185380952Y-112685714D01*
X185190476Y-112638095D01*
X185095238Y-112590476D01*
X185000000Y-112495238D01*
X184952381Y-112352380D01*
X184952381Y-112257142D01*
X185000000Y-112114285D01*
X185047619Y-112066666D01*
X184952381Y-111161904D02*
X184952381Y-111638095D01*
X185428571Y-111685714D01*
X185380952Y-111638095D01*
X185333333Y-111542857D01*
X185333333Y-111304761D01*
X185380952Y-111209523D01*
X185428571Y-111161904D01*
X185523810Y-111114285D01*
X185761905Y-111114285D01*
X185857143Y-111161904D01*
X185904762Y-111209523D01*
X185952381Y-111304761D01*
X185952381Y-111542857D01*
X185904762Y-111638095D01*
X185857143Y-111685714D01*
X153497143Y-88616666D02*
X153544762Y-88664285D01*
X153592381Y-88807142D01*
X153592381Y-88902380D01*
X153544762Y-89045238D01*
X153449524Y-89140476D01*
X153354286Y-89188095D01*
X153163810Y-89235714D01*
X153020952Y-89235714D01*
X152830476Y-89188095D01*
X152735238Y-89140476D01*
X152640000Y-89045238D01*
X152592381Y-88902380D01*
X152592381Y-88807142D01*
X152640000Y-88664285D01*
X152687619Y-88616666D01*
X152592381Y-87759523D02*
X152592381Y-87950000D01*
X152640000Y-88045238D01*
X152687619Y-88092857D01*
X152830476Y-88188095D01*
X153020952Y-88235714D01*
X153401905Y-88235714D01*
X153497143Y-88188095D01*
X153544762Y-88140476D01*
X153592381Y-88045238D01*
X153592381Y-87854761D01*
X153544762Y-87759523D01*
X153497143Y-87711904D01*
X153401905Y-87664285D01*
X153163810Y-87664285D01*
X153068571Y-87711904D01*
X153020952Y-87759523D01*
X152973333Y-87854761D01*
X152973333Y-88045238D01*
X153020952Y-88140476D01*
X153068571Y-88188095D01*
X153163810Y-88235714D01*
X130633334Y-93957143D02*
X130585715Y-94004762D01*
X130442858Y-94052381D01*
X130347620Y-94052381D01*
X130204762Y-94004762D01*
X130109524Y-93909524D01*
X130061905Y-93814286D01*
X130014286Y-93623810D01*
X130014286Y-93480952D01*
X130061905Y-93290476D01*
X130109524Y-93195238D01*
X130204762Y-93100000D01*
X130347620Y-93052381D01*
X130442858Y-93052381D01*
X130585715Y-93100000D01*
X130633334Y-93147619D01*
X130966667Y-93052381D02*
X131633334Y-93052381D01*
X131204762Y-94052381D01*
X138283334Y-120367143D02*
X138235715Y-120414762D01*
X138092858Y-120462381D01*
X137997620Y-120462381D01*
X137854762Y-120414762D01*
X137759524Y-120319524D01*
X137711905Y-120224286D01*
X137664286Y-120033810D01*
X137664286Y-119890952D01*
X137711905Y-119700476D01*
X137759524Y-119605238D01*
X137854762Y-119510000D01*
X137997620Y-119462381D01*
X138092858Y-119462381D01*
X138235715Y-119510000D01*
X138283334Y-119557619D01*
X138854762Y-119890952D02*
X138759524Y-119843333D01*
X138711905Y-119795714D01*
X138664286Y-119700476D01*
X138664286Y-119652857D01*
X138711905Y-119557619D01*
X138759524Y-119510000D01*
X138854762Y-119462381D01*
X139045239Y-119462381D01*
X139140477Y-119510000D01*
X139188096Y-119557619D01*
X139235715Y-119652857D01*
X139235715Y-119700476D01*
X139188096Y-119795714D01*
X139140477Y-119843333D01*
X139045239Y-119890952D01*
X138854762Y-119890952D01*
X138759524Y-119938571D01*
X138711905Y-119986190D01*
X138664286Y-120081429D01*
X138664286Y-120271905D01*
X138711905Y-120367143D01*
X138759524Y-120414762D01*
X138854762Y-120462381D01*
X139045239Y-120462381D01*
X139140477Y-120414762D01*
X139188096Y-120367143D01*
X139235715Y-120271905D01*
X139235715Y-120081429D01*
X139188096Y-119986190D01*
X139140477Y-119938571D01*
X139045239Y-119890952D01*
X129397143Y-139816666D02*
X129444762Y-139864285D01*
X129492381Y-140007142D01*
X129492381Y-140102380D01*
X129444762Y-140245238D01*
X129349524Y-140340476D01*
X129254286Y-140388095D01*
X129063810Y-140435714D01*
X128920952Y-140435714D01*
X128730476Y-140388095D01*
X128635238Y-140340476D01*
X128540000Y-140245238D01*
X128492381Y-140102380D01*
X128492381Y-140007142D01*
X128540000Y-139864285D01*
X128587619Y-139816666D01*
X129492381Y-139340476D02*
X129492381Y-139150000D01*
X129444762Y-139054761D01*
X129397143Y-139007142D01*
X129254286Y-138911904D01*
X129063810Y-138864285D01*
X128682857Y-138864285D01*
X128587619Y-138911904D01*
X128540000Y-138959523D01*
X128492381Y-139054761D01*
X128492381Y-139245238D01*
X128540000Y-139340476D01*
X128587619Y-139388095D01*
X128682857Y-139435714D01*
X128920952Y-139435714D01*
X129016190Y-139388095D01*
X129063810Y-139340476D01*
X129111429Y-139245238D01*
X129111429Y-139054761D01*
X129063810Y-138959523D01*
X129016190Y-138911904D01*
X128920952Y-138864285D01*
X121857143Y-104642857D02*
X121904762Y-104690476D01*
X121952381Y-104833333D01*
X121952381Y-104928571D01*
X121904762Y-105071429D01*
X121809524Y-105166667D01*
X121714286Y-105214286D01*
X121523810Y-105261905D01*
X121380952Y-105261905D01*
X121190476Y-105214286D01*
X121095238Y-105166667D01*
X121000000Y-105071429D01*
X120952381Y-104928571D01*
X120952381Y-104833333D01*
X121000000Y-104690476D01*
X121047619Y-104642857D01*
X121952381Y-103690476D02*
X121952381Y-104261905D01*
X121952381Y-103976191D02*
X120952381Y-103976191D01*
X121095238Y-104071429D01*
X121190476Y-104166667D01*
X121238095Y-104261905D01*
X120952381Y-103071429D02*
X120952381Y-102976190D01*
X121000000Y-102880952D01*
X121047619Y-102833333D01*
X121142857Y-102785714D01*
X121333333Y-102738095D01*
X121571429Y-102738095D01*
X121761905Y-102785714D01*
X121857143Y-102833333D01*
X121904762Y-102880952D01*
X121952381Y-102976190D01*
X121952381Y-103071429D01*
X121904762Y-103166667D01*
X121857143Y-103214286D01*
X121761905Y-103261905D01*
X121571429Y-103309524D01*
X121333333Y-103309524D01*
X121142857Y-103261905D01*
X121047619Y-103214286D01*
X121000000Y-103166667D01*
X120952381Y-103071429D01*
X121857143Y-112142857D02*
X121904762Y-112190476D01*
X121952381Y-112333333D01*
X121952381Y-112428571D01*
X121904762Y-112571429D01*
X121809524Y-112666667D01*
X121714286Y-112714286D01*
X121523810Y-112761905D01*
X121380952Y-112761905D01*
X121190476Y-112714286D01*
X121095238Y-112666667D01*
X121000000Y-112571429D01*
X120952381Y-112428571D01*
X120952381Y-112333333D01*
X121000000Y-112190476D01*
X121047619Y-112142857D01*
X121952381Y-111190476D02*
X121952381Y-111761905D01*
X121952381Y-111476191D02*
X120952381Y-111476191D01*
X121095238Y-111571429D01*
X121190476Y-111666667D01*
X121238095Y-111761905D01*
X121952381Y-110238095D02*
X121952381Y-110809524D01*
X121952381Y-110523810D02*
X120952381Y-110523810D01*
X121095238Y-110619048D01*
X121190476Y-110714286D01*
X121238095Y-110809524D01*
X184707143Y-85847143D02*
X184659524Y-85894762D01*
X184516667Y-85942381D01*
X184421429Y-85942381D01*
X184278571Y-85894762D01*
X184183333Y-85799524D01*
X184135714Y-85704286D01*
X184088095Y-85513810D01*
X184088095Y-85370952D01*
X184135714Y-85180476D01*
X184183333Y-85085238D01*
X184278571Y-84990000D01*
X184421429Y-84942381D01*
X184516667Y-84942381D01*
X184659524Y-84990000D01*
X184707143Y-85037619D01*
X185659524Y-85942381D02*
X185088095Y-85942381D01*
X185373809Y-85942381D02*
X185373809Y-84942381D01*
X185278571Y-85085238D01*
X185183333Y-85180476D01*
X185088095Y-85228095D01*
X186040476Y-85037619D02*
X186088095Y-84990000D01*
X186183333Y-84942381D01*
X186421429Y-84942381D01*
X186516667Y-84990000D01*
X186564286Y-85037619D01*
X186611905Y-85132857D01*
X186611905Y-85228095D01*
X186564286Y-85370952D01*
X185992857Y-85942381D01*
X186611905Y-85942381D01*
X136207143Y-93497143D02*
X136159524Y-93544762D01*
X136016667Y-93592381D01*
X135921429Y-93592381D01*
X135778571Y-93544762D01*
X135683333Y-93449524D01*
X135635714Y-93354286D01*
X135588095Y-93163810D01*
X135588095Y-93020952D01*
X135635714Y-92830476D01*
X135683333Y-92735238D01*
X135778571Y-92640000D01*
X135921429Y-92592381D01*
X136016667Y-92592381D01*
X136159524Y-92640000D01*
X136207143Y-92687619D01*
X137159524Y-93592381D02*
X136588095Y-93592381D01*
X136873809Y-93592381D02*
X136873809Y-92592381D01*
X136778571Y-92735238D01*
X136683333Y-92830476D01*
X136588095Y-92878095D01*
X137492857Y-92592381D02*
X138111905Y-92592381D01*
X137778571Y-92973333D01*
X137921429Y-92973333D01*
X138016667Y-93020952D01*
X138064286Y-93068571D01*
X138111905Y-93163810D01*
X138111905Y-93401905D01*
X138064286Y-93497143D01*
X138016667Y-93544762D01*
X137921429Y-93592381D01*
X137635714Y-93592381D01*
X137540476Y-93544762D01*
X137492857Y-93497143D01*
X130957143Y-120457143D02*
X130909524Y-120504762D01*
X130766667Y-120552381D01*
X130671429Y-120552381D01*
X130528571Y-120504762D01*
X130433333Y-120409524D01*
X130385714Y-120314286D01*
X130338095Y-120123810D01*
X130338095Y-119980952D01*
X130385714Y-119790476D01*
X130433333Y-119695238D01*
X130528571Y-119600000D01*
X130671429Y-119552381D01*
X130766667Y-119552381D01*
X130909524Y-119600000D01*
X130957143Y-119647619D01*
X131909524Y-120552381D02*
X131338095Y-120552381D01*
X131623809Y-120552381D02*
X131623809Y-119552381D01*
X131528571Y-119695238D01*
X131433333Y-119790476D01*
X131338095Y-119838095D01*
X132766667Y-119885714D02*
X132766667Y-120552381D01*
X132528571Y-119504762D02*
X132290476Y-120219048D01*
X132909524Y-120219048D01*
X159107143Y-84717143D02*
X159059524Y-84764762D01*
X158916667Y-84812381D01*
X158821429Y-84812381D01*
X158678571Y-84764762D01*
X158583333Y-84669524D01*
X158535714Y-84574286D01*
X158488095Y-84383810D01*
X158488095Y-84240952D01*
X158535714Y-84050476D01*
X158583333Y-83955238D01*
X158678571Y-83860000D01*
X158821429Y-83812381D01*
X158916667Y-83812381D01*
X159059524Y-83860000D01*
X159107143Y-83907619D01*
X160059524Y-84812381D02*
X159488095Y-84812381D01*
X159773809Y-84812381D02*
X159773809Y-83812381D01*
X159678571Y-83955238D01*
X159583333Y-84050476D01*
X159488095Y-84098095D01*
X160964286Y-83812381D02*
X160488095Y-83812381D01*
X160440476Y-84288571D01*
X160488095Y-84240952D01*
X160583333Y-84193333D01*
X160821429Y-84193333D01*
X160916667Y-84240952D01*
X160964286Y-84288571D01*
X161011905Y-84383810D01*
X161011905Y-84621905D01*
X160964286Y-84717143D01*
X160916667Y-84764762D01*
X160821429Y-84812381D01*
X160583333Y-84812381D01*
X160488095Y-84764762D01*
X160440476Y-84717143D01*
X186257143Y-105857143D02*
X186209524Y-105904762D01*
X186066667Y-105952381D01*
X185971429Y-105952381D01*
X185828571Y-105904762D01*
X185733333Y-105809524D01*
X185685714Y-105714286D01*
X185638095Y-105523810D01*
X185638095Y-105380952D01*
X185685714Y-105190476D01*
X185733333Y-105095238D01*
X185828571Y-105000000D01*
X185971429Y-104952381D01*
X186066667Y-104952381D01*
X186209524Y-105000000D01*
X186257143Y-105047619D01*
X187209524Y-105952381D02*
X186638095Y-105952381D01*
X186923809Y-105952381D02*
X186923809Y-104952381D01*
X186828571Y-105095238D01*
X186733333Y-105190476D01*
X186638095Y-105238095D01*
X188066667Y-104952381D02*
X187876190Y-104952381D01*
X187780952Y-105000000D01*
X187733333Y-105047619D01*
X187638095Y-105190476D01*
X187590476Y-105380952D01*
X187590476Y-105761905D01*
X187638095Y-105857143D01*
X187685714Y-105904762D01*
X187780952Y-105952381D01*
X187971429Y-105952381D01*
X188066667Y-105904762D01*
X188114286Y-105857143D01*
X188161905Y-105761905D01*
X188161905Y-105523810D01*
X188114286Y-105428571D01*
X188066667Y-105380952D01*
X187971429Y-105333333D01*
X187780952Y-105333333D01*
X187685714Y-105380952D01*
X187638095Y-105428571D01*
X187590476Y-105523810D01*
X125557143Y-120457143D02*
X125509524Y-120504762D01*
X125366667Y-120552381D01*
X125271429Y-120552381D01*
X125128571Y-120504762D01*
X125033333Y-120409524D01*
X124985714Y-120314286D01*
X124938095Y-120123810D01*
X124938095Y-119980952D01*
X124985714Y-119790476D01*
X125033333Y-119695238D01*
X125128571Y-119600000D01*
X125271429Y-119552381D01*
X125366667Y-119552381D01*
X125509524Y-119600000D01*
X125557143Y-119647619D01*
X126509524Y-120552381D02*
X125938095Y-120552381D01*
X126223809Y-120552381D02*
X126223809Y-119552381D01*
X126128571Y-119695238D01*
X126033333Y-119790476D01*
X125938095Y-119838095D01*
X126842857Y-119552381D02*
X127509524Y-119552381D01*
X127080952Y-120552381D01*
X124457143Y-93457143D02*
X124409524Y-93504762D01*
X124266667Y-93552381D01*
X124171429Y-93552381D01*
X124028571Y-93504762D01*
X123933333Y-93409524D01*
X123885714Y-93314286D01*
X123838095Y-93123810D01*
X123838095Y-92980952D01*
X123885714Y-92790476D01*
X123933333Y-92695238D01*
X124028571Y-92600000D01*
X124171429Y-92552381D01*
X124266667Y-92552381D01*
X124409524Y-92600000D01*
X124457143Y-92647619D01*
X125409524Y-93552381D02*
X124838095Y-93552381D01*
X125123809Y-93552381D02*
X125123809Y-92552381D01*
X125028571Y-92695238D01*
X124933333Y-92790476D01*
X124838095Y-92838095D01*
X125980952Y-92980952D02*
X125885714Y-92933333D01*
X125838095Y-92885714D01*
X125790476Y-92790476D01*
X125790476Y-92742857D01*
X125838095Y-92647619D01*
X125885714Y-92600000D01*
X125980952Y-92552381D01*
X126171429Y-92552381D01*
X126266667Y-92600000D01*
X126314286Y-92647619D01*
X126361905Y-92742857D01*
X126361905Y-92790476D01*
X126314286Y-92885714D01*
X126266667Y-92933333D01*
X126171429Y-92980952D01*
X125980952Y-92980952D01*
X125885714Y-93028571D01*
X125838095Y-93076190D01*
X125790476Y-93171429D01*
X125790476Y-93361905D01*
X125838095Y-93457143D01*
X125885714Y-93504762D01*
X125980952Y-93552381D01*
X126171429Y-93552381D01*
X126266667Y-93504762D01*
X126314286Y-93457143D01*
X126361905Y-93361905D01*
X126361905Y-93171429D01*
X126314286Y-93076190D01*
X126266667Y-93028571D01*
X126171429Y-92980952D01*
X194661905Y-105052381D02*
X194661905Y-104052381D01*
X194900000Y-104052381D01*
X195042858Y-104100000D01*
X195138096Y-104195238D01*
X195185715Y-104290476D01*
X195233334Y-104480952D01*
X195233334Y-104623810D01*
X195185715Y-104814286D01*
X195138096Y-104909524D01*
X195042858Y-105004762D01*
X194900000Y-105052381D01*
X194661905Y-105052381D01*
X196185715Y-105052381D02*
X195614286Y-105052381D01*
X195900000Y-105052381D02*
X195900000Y-104052381D01*
X195804762Y-104195238D01*
X195709524Y-104290476D01*
X195614286Y-104338095D01*
X61061905Y-88852381D02*
X61061905Y-87852381D01*
X61442858Y-87852381D01*
X61538096Y-87900000D01*
X61585715Y-87947619D01*
X61633334Y-88042857D01*
X61633334Y-88185714D01*
X61585715Y-88280952D01*
X61538096Y-88328571D01*
X61442858Y-88376190D01*
X61061905Y-88376190D01*
X62585715Y-88852381D02*
X62014286Y-88852381D01*
X62300000Y-88852381D02*
X62300000Y-87852381D01*
X62204762Y-87995238D01*
X62109524Y-88090476D01*
X62014286Y-88138095D01*
X64361905Y-121252381D02*
X64361905Y-120252381D01*
X64742858Y-120252381D01*
X64838096Y-120300000D01*
X64885715Y-120347619D01*
X64933334Y-120442857D01*
X64933334Y-120585714D01*
X64885715Y-120680952D01*
X64838096Y-120728571D01*
X64742858Y-120776190D01*
X64361905Y-120776190D01*
X65314286Y-120347619D02*
X65361905Y-120300000D01*
X65457143Y-120252381D01*
X65695239Y-120252381D01*
X65790477Y-120300000D01*
X65838096Y-120347619D01*
X65885715Y-120442857D01*
X65885715Y-120538095D01*
X65838096Y-120680952D01*
X65266667Y-121252381D01*
X65885715Y-121252381D01*
X178852381Y-97438095D02*
X177852381Y-97438095D01*
X177852381Y-97057142D01*
X177900000Y-96961904D01*
X177947619Y-96914285D01*
X178042857Y-96866666D01*
X178185714Y-96866666D01*
X178280952Y-96914285D01*
X178328571Y-96961904D01*
X178376190Y-97057142D01*
X178376190Y-97438095D01*
X177852381Y-96533333D02*
X177852381Y-95914285D01*
X178233333Y-96247619D01*
X178233333Y-96104761D01*
X178280952Y-96009523D01*
X178328571Y-95961904D01*
X178423810Y-95914285D01*
X178661905Y-95914285D01*
X178757143Y-95961904D01*
X178804762Y-96009523D01*
X178852381Y-96104761D01*
X178852381Y-96390476D01*
X178804762Y-96485714D01*
X178757143Y-96533333D01*
X195261905Y-98452381D02*
X195261905Y-97452381D01*
X195642858Y-97452381D01*
X195738096Y-97500000D01*
X195785715Y-97547619D01*
X195833334Y-97642857D01*
X195833334Y-97785714D01*
X195785715Y-97880952D01*
X195738096Y-97928571D01*
X195642858Y-97976190D01*
X195261905Y-97976190D01*
X196690477Y-97785714D02*
X196690477Y-98452381D01*
X196452381Y-97404762D02*
X196214286Y-98119048D01*
X196833334Y-98119048D01*
X185361905Y-51452381D02*
X185361905Y-50452381D01*
X185742858Y-50452381D01*
X185838096Y-50500000D01*
X185885715Y-50547619D01*
X185933334Y-50642857D01*
X185933334Y-50785714D01*
X185885715Y-50880952D01*
X185838096Y-50928571D01*
X185742858Y-50976190D01*
X185361905Y-50976190D01*
X186838096Y-50452381D02*
X186361905Y-50452381D01*
X186314286Y-50928571D01*
X186361905Y-50880952D01*
X186457143Y-50833333D01*
X186695239Y-50833333D01*
X186790477Y-50880952D01*
X186838096Y-50928571D01*
X186885715Y-51023810D01*
X186885715Y-51261905D01*
X186838096Y-51357143D01*
X186790477Y-51404762D01*
X186695239Y-51452381D01*
X186457143Y-51452381D01*
X186361905Y-51404762D01*
X186314286Y-51357143D01*
X184311905Y-143452381D02*
X184311905Y-142452381D01*
X184692858Y-142452381D01*
X184788096Y-142500000D01*
X184835715Y-142547619D01*
X184883334Y-142642857D01*
X184883334Y-142785714D01*
X184835715Y-142880952D01*
X184788096Y-142928571D01*
X184692858Y-142976190D01*
X184311905Y-142976190D01*
X185740477Y-142452381D02*
X185550000Y-142452381D01*
X185454762Y-142500000D01*
X185407143Y-142547619D01*
X185311905Y-142690476D01*
X185264286Y-142880952D01*
X185264286Y-143261905D01*
X185311905Y-143357143D01*
X185359524Y-143404762D01*
X185454762Y-143452381D01*
X185645239Y-143452381D01*
X185740477Y-143404762D01*
X185788096Y-143357143D01*
X185835715Y-143261905D01*
X185835715Y-143023810D01*
X185788096Y-142928571D01*
X185740477Y-142880952D01*
X185645239Y-142833333D01*
X185454762Y-142833333D01*
X185359524Y-142880952D01*
X185311905Y-142928571D01*
X185264286Y-143023810D01*
X60861905Y-103052381D02*
X60861905Y-102052381D01*
X61242858Y-102052381D01*
X61338096Y-102100000D01*
X61385715Y-102147619D01*
X61433334Y-102242857D01*
X61433334Y-102385714D01*
X61385715Y-102480952D01*
X61338096Y-102528571D01*
X61242858Y-102576190D01*
X60861905Y-102576190D01*
X61766667Y-102052381D02*
X62433334Y-102052381D01*
X62004762Y-103052381D01*
X81461905Y-117952381D02*
X81461905Y-116952381D01*
X81842858Y-116952381D01*
X81938096Y-117000000D01*
X81985715Y-117047619D01*
X82033334Y-117142857D01*
X82033334Y-117285714D01*
X81985715Y-117380952D01*
X81938096Y-117428571D01*
X81842858Y-117476190D01*
X81461905Y-117476190D01*
X82604762Y-117380952D02*
X82509524Y-117333333D01*
X82461905Y-117285714D01*
X82414286Y-117190476D01*
X82414286Y-117142857D01*
X82461905Y-117047619D01*
X82509524Y-117000000D01*
X82604762Y-116952381D01*
X82795239Y-116952381D01*
X82890477Y-117000000D01*
X82938096Y-117047619D01*
X82985715Y-117142857D01*
X82985715Y-117190476D01*
X82938096Y-117285714D01*
X82890477Y-117333333D01*
X82795239Y-117380952D01*
X82604762Y-117380952D01*
X82509524Y-117428571D01*
X82461905Y-117476190D01*
X82414286Y-117571429D01*
X82414286Y-117761905D01*
X82461905Y-117857143D01*
X82509524Y-117904762D01*
X82604762Y-117952381D01*
X82795239Y-117952381D01*
X82890477Y-117904762D01*
X82938096Y-117857143D01*
X82985715Y-117761905D01*
X82985715Y-117571429D01*
X82938096Y-117476190D01*
X82890477Y-117428571D01*
X82795239Y-117380952D01*
X190552381Y-61364286D02*
X189552381Y-61364286D01*
X189552381Y-60983333D01*
X189600000Y-60888095D01*
X189647619Y-60840476D01*
X189742857Y-60792857D01*
X189885714Y-60792857D01*
X189980952Y-60840476D01*
X190028571Y-60888095D01*
X190076190Y-60983333D01*
X190076190Y-61364286D01*
X190552381Y-59840476D02*
X190552381Y-60411905D01*
X190552381Y-60126191D02*
X189552381Y-60126191D01*
X189695238Y-60221429D01*
X189790476Y-60316667D01*
X189838095Y-60411905D01*
X189552381Y-59221429D02*
X189552381Y-59126190D01*
X189600000Y-59030952D01*
X189647619Y-58983333D01*
X189742857Y-58935714D01*
X189933333Y-58888095D01*
X190171429Y-58888095D01*
X190361905Y-58935714D01*
X190457143Y-58983333D01*
X190504762Y-59030952D01*
X190552381Y-59126190D01*
X190552381Y-59221429D01*
X190504762Y-59316667D01*
X190457143Y-59364286D01*
X190361905Y-59411905D01*
X190171429Y-59459524D01*
X189933333Y-59459524D01*
X189742857Y-59411905D01*
X189647619Y-59364286D01*
X189600000Y-59316667D01*
X189552381Y-59221429D01*
X193985714Y-135452381D02*
X193985714Y-134452381D01*
X194366667Y-134452381D01*
X194461905Y-134500000D01*
X194509524Y-134547619D01*
X194557143Y-134642857D01*
X194557143Y-134785714D01*
X194509524Y-134880952D01*
X194461905Y-134928571D01*
X194366667Y-134976190D01*
X193985714Y-134976190D01*
X195509524Y-135452381D02*
X194938095Y-135452381D01*
X195223809Y-135452381D02*
X195223809Y-134452381D01*
X195128571Y-134595238D01*
X195033333Y-134690476D01*
X194938095Y-134738095D01*
X196461905Y-135452381D02*
X195890476Y-135452381D01*
X196176190Y-135452381D02*
X196176190Y-134452381D01*
X196080952Y-134595238D01*
X195985714Y-134690476D01*
X195890476Y-134738095D01*
X193285714Y-88852381D02*
X193285714Y-87852381D01*
X193666667Y-87852381D01*
X193761905Y-87900000D01*
X193809524Y-87947619D01*
X193857143Y-88042857D01*
X193857143Y-88185714D01*
X193809524Y-88280952D01*
X193761905Y-88328571D01*
X193666667Y-88376190D01*
X193285714Y-88376190D01*
X194809524Y-88852381D02*
X194238095Y-88852381D01*
X194523809Y-88852381D02*
X194523809Y-87852381D01*
X194428571Y-87995238D01*
X194333333Y-88090476D01*
X194238095Y-88138095D01*
X195190476Y-87947619D02*
X195238095Y-87900000D01*
X195333333Y-87852381D01*
X195571429Y-87852381D01*
X195666667Y-87900000D01*
X195714286Y-87947619D01*
X195761905Y-88042857D01*
X195761905Y-88138095D01*
X195714286Y-88280952D01*
X195142857Y-88852381D01*
X195761905Y-88852381D01*
X193385714Y-120352381D02*
X193385714Y-119352381D01*
X193766667Y-119352381D01*
X193861905Y-119400000D01*
X193909524Y-119447619D01*
X193957143Y-119542857D01*
X193957143Y-119685714D01*
X193909524Y-119780952D01*
X193861905Y-119828571D01*
X193766667Y-119876190D01*
X193385714Y-119876190D01*
X194909524Y-120352381D02*
X194338095Y-120352381D01*
X194623809Y-120352381D02*
X194623809Y-119352381D01*
X194528571Y-119495238D01*
X194433333Y-119590476D01*
X194338095Y-119638095D01*
X195242857Y-119352381D02*
X195861905Y-119352381D01*
X195528571Y-119733333D01*
X195671429Y-119733333D01*
X195766667Y-119780952D01*
X195814286Y-119828571D01*
X195861905Y-119923810D01*
X195861905Y-120161905D01*
X195814286Y-120257143D01*
X195766667Y-120304762D01*
X195671429Y-120352381D01*
X195385714Y-120352381D01*
X195290476Y-120304762D01*
X195242857Y-120257143D01*
X87085714Y-71552381D02*
X87085714Y-70552381D01*
X87466667Y-70552381D01*
X87561905Y-70600000D01*
X87609524Y-70647619D01*
X87657143Y-70742857D01*
X87657143Y-70885714D01*
X87609524Y-70980952D01*
X87561905Y-71028571D01*
X87466667Y-71076190D01*
X87085714Y-71076190D01*
X88609524Y-71552381D02*
X88038095Y-71552381D01*
X88323809Y-71552381D02*
X88323809Y-70552381D01*
X88228571Y-70695238D01*
X88133333Y-70790476D01*
X88038095Y-70838095D01*
X89466667Y-70885714D02*
X89466667Y-71552381D01*
X89228571Y-70504762D02*
X88990476Y-71219048D01*
X89609524Y-71219048D01*
X155504762Y-93747619D02*
X155409524Y-93700000D01*
X155314286Y-93604762D01*
X155171429Y-93461905D01*
X155076190Y-93414286D01*
X154980952Y-93414286D01*
X155028571Y-93652381D02*
X154933333Y-93604762D01*
X154838095Y-93509524D01*
X154790476Y-93319048D01*
X154790476Y-92985714D01*
X154838095Y-92795238D01*
X154933333Y-92700000D01*
X155028571Y-92652381D01*
X155219048Y-92652381D01*
X155314286Y-92700000D01*
X155409524Y-92795238D01*
X155457143Y-92985714D01*
X155457143Y-93319048D01*
X155409524Y-93509524D01*
X155314286Y-93604762D01*
X155219048Y-93652381D01*
X155028571Y-93652381D01*
X156409524Y-93652381D02*
X155838095Y-93652381D01*
X156123809Y-93652381D02*
X156123809Y-92652381D01*
X156028571Y-92795238D01*
X155933333Y-92890476D01*
X155838095Y-92938095D01*
X188052381Y-56966666D02*
X187576190Y-57300000D01*
X188052381Y-57538095D02*
X187052381Y-57538095D01*
X187052381Y-57157142D01*
X187100000Y-57061904D01*
X187147619Y-57014285D01*
X187242857Y-56966666D01*
X187385714Y-56966666D01*
X187480952Y-57014285D01*
X187528571Y-57061904D01*
X187576190Y-57157142D01*
X187576190Y-57538095D01*
X188052381Y-56014285D02*
X188052381Y-56585714D01*
X188052381Y-56300000D02*
X187052381Y-56300000D01*
X187195238Y-56395238D01*
X187290476Y-56490476D01*
X187338095Y-56585714D01*
X184412381Y-56926666D02*
X183936190Y-57260000D01*
X184412381Y-57498095D02*
X183412381Y-57498095D01*
X183412381Y-57117142D01*
X183460000Y-57021904D01*
X183507619Y-56974285D01*
X183602857Y-56926666D01*
X183745714Y-56926666D01*
X183840952Y-56974285D01*
X183888571Y-57021904D01*
X183936190Y-57117142D01*
X183936190Y-57498095D01*
X183507619Y-56545714D02*
X183460000Y-56498095D01*
X183412381Y-56402857D01*
X183412381Y-56164761D01*
X183460000Y-56069523D01*
X183507619Y-56021904D01*
X183602857Y-55974285D01*
X183698095Y-55974285D01*
X183840952Y-56021904D01*
X184412381Y-56593333D01*
X184412381Y-55974285D01*
X179233334Y-133852381D02*
X178900000Y-133376190D01*
X178661905Y-133852381D02*
X178661905Y-132852381D01*
X179042858Y-132852381D01*
X179138096Y-132900000D01*
X179185715Y-132947619D01*
X179233334Y-133042857D01*
X179233334Y-133185714D01*
X179185715Y-133280952D01*
X179138096Y-133328571D01*
X179042858Y-133376190D01*
X178661905Y-133376190D01*
X179566667Y-132852381D02*
X180185715Y-132852381D01*
X179852381Y-133233333D01*
X179995239Y-133233333D01*
X180090477Y-133280952D01*
X180138096Y-133328571D01*
X180185715Y-133423810D01*
X180185715Y-133661905D01*
X180138096Y-133757143D01*
X180090477Y-133804762D01*
X179995239Y-133852381D01*
X179709524Y-133852381D01*
X179614286Y-133804762D01*
X179566667Y-133757143D01*
X94033334Y-122052381D02*
X93700000Y-121576190D01*
X93461905Y-122052381D02*
X93461905Y-121052381D01*
X93842858Y-121052381D01*
X93938096Y-121100000D01*
X93985715Y-121147619D01*
X94033334Y-121242857D01*
X94033334Y-121385714D01*
X93985715Y-121480952D01*
X93938096Y-121528571D01*
X93842858Y-121576190D01*
X93461905Y-121576190D01*
X94890477Y-121385714D02*
X94890477Y-122052381D01*
X94652381Y-121004762D02*
X94414286Y-121719048D01*
X95033334Y-121719048D01*
X94133334Y-113352381D02*
X93800000Y-112876190D01*
X93561905Y-113352381D02*
X93561905Y-112352381D01*
X93942858Y-112352381D01*
X94038096Y-112400000D01*
X94085715Y-112447619D01*
X94133334Y-112542857D01*
X94133334Y-112685714D01*
X94085715Y-112780952D01*
X94038096Y-112828571D01*
X93942858Y-112876190D01*
X93561905Y-112876190D01*
X95038096Y-112352381D02*
X94561905Y-112352381D01*
X94514286Y-112828571D01*
X94561905Y-112780952D01*
X94657143Y-112733333D01*
X94895239Y-112733333D01*
X94990477Y-112780952D01*
X95038096Y-112828571D01*
X95085715Y-112923810D01*
X95085715Y-113161905D01*
X95038096Y-113257143D01*
X94990477Y-113304762D01*
X94895239Y-113352381D01*
X94657143Y-113352381D01*
X94561905Y-113304762D01*
X94514286Y-113257143D01*
X93533334Y-117652381D02*
X93200000Y-117176190D01*
X92961905Y-117652381D02*
X92961905Y-116652381D01*
X93342858Y-116652381D01*
X93438096Y-116700000D01*
X93485715Y-116747619D01*
X93533334Y-116842857D01*
X93533334Y-116985714D01*
X93485715Y-117080952D01*
X93438096Y-117128571D01*
X93342858Y-117176190D01*
X92961905Y-117176190D01*
X94390477Y-116652381D02*
X94200000Y-116652381D01*
X94104762Y-116700000D01*
X94057143Y-116747619D01*
X93961905Y-116890476D01*
X93914286Y-117080952D01*
X93914286Y-117461905D01*
X93961905Y-117557143D01*
X94009524Y-117604762D01*
X94104762Y-117652381D01*
X94295239Y-117652381D01*
X94390477Y-117604762D01*
X94438096Y-117557143D01*
X94485715Y-117461905D01*
X94485715Y-117223810D01*
X94438096Y-117128571D01*
X94390477Y-117080952D01*
X94295239Y-117033333D01*
X94104762Y-117033333D01*
X94009524Y-117080952D01*
X93961905Y-117128571D01*
X93914286Y-117223810D01*
X126443334Y-84442381D02*
X126110000Y-83966190D01*
X125871905Y-84442381D02*
X125871905Y-83442381D01*
X126252858Y-83442381D01*
X126348096Y-83490000D01*
X126395715Y-83537619D01*
X126443334Y-83632857D01*
X126443334Y-83775714D01*
X126395715Y-83870952D01*
X126348096Y-83918571D01*
X126252858Y-83966190D01*
X125871905Y-83966190D01*
X126776667Y-83442381D02*
X127443334Y-83442381D01*
X127014762Y-84442381D01*
X185612381Y-96366666D02*
X185136190Y-96700000D01*
X185612381Y-96938095D02*
X184612381Y-96938095D01*
X184612381Y-96557142D01*
X184660000Y-96461904D01*
X184707619Y-96414285D01*
X184802857Y-96366666D01*
X184945714Y-96366666D01*
X185040952Y-96414285D01*
X185088571Y-96461904D01*
X185136190Y-96557142D01*
X185136190Y-96938095D01*
X185040952Y-95795238D02*
X184993333Y-95890476D01*
X184945714Y-95938095D01*
X184850476Y-95985714D01*
X184802857Y-95985714D01*
X184707619Y-95938095D01*
X184660000Y-95890476D01*
X184612381Y-95795238D01*
X184612381Y-95604761D01*
X184660000Y-95509523D01*
X184707619Y-95461904D01*
X184802857Y-95414285D01*
X184850476Y-95414285D01*
X184945714Y-95461904D01*
X184993333Y-95509523D01*
X185040952Y-95604761D01*
X185040952Y-95795238D01*
X185088571Y-95890476D01*
X185136190Y-95938095D01*
X185231429Y-95985714D01*
X185421905Y-95985714D01*
X185517143Y-95938095D01*
X185564762Y-95890476D01*
X185612381Y-95795238D01*
X185612381Y-95604761D01*
X185564762Y-95509523D01*
X185517143Y-95461904D01*
X185421905Y-95414285D01*
X185231429Y-95414285D01*
X185136190Y-95461904D01*
X185088571Y-95509523D01*
X185040952Y-95604761D01*
X162762381Y-71976666D02*
X162286190Y-72310000D01*
X162762381Y-72548095D02*
X161762381Y-72548095D01*
X161762381Y-72167142D01*
X161810000Y-72071904D01*
X161857619Y-72024285D01*
X161952857Y-71976666D01*
X162095714Y-71976666D01*
X162190952Y-72024285D01*
X162238571Y-72071904D01*
X162286190Y-72167142D01*
X162286190Y-72548095D01*
X162762381Y-71500476D02*
X162762381Y-71310000D01*
X162714762Y-71214761D01*
X162667143Y-71167142D01*
X162524286Y-71071904D01*
X162333810Y-71024285D01*
X161952857Y-71024285D01*
X161857619Y-71071904D01*
X161810000Y-71119523D01*
X161762381Y-71214761D01*
X161762381Y-71405238D01*
X161810000Y-71500476D01*
X161857619Y-71548095D01*
X161952857Y-71595714D01*
X162190952Y-71595714D01*
X162286190Y-71548095D01*
X162333810Y-71500476D01*
X162381429Y-71405238D01*
X162381429Y-71214761D01*
X162333810Y-71119523D01*
X162286190Y-71071904D01*
X162190952Y-71024285D01*
X187752381Y-68742857D02*
X187276190Y-69076191D01*
X187752381Y-69314286D02*
X186752381Y-69314286D01*
X186752381Y-68933333D01*
X186800000Y-68838095D01*
X186847619Y-68790476D01*
X186942857Y-68742857D01*
X187085714Y-68742857D01*
X187180952Y-68790476D01*
X187228571Y-68838095D01*
X187276190Y-68933333D01*
X187276190Y-69314286D01*
X187752381Y-67790476D02*
X187752381Y-68361905D01*
X187752381Y-68076191D02*
X186752381Y-68076191D01*
X186895238Y-68171429D01*
X186990476Y-68266667D01*
X187038095Y-68361905D01*
X186752381Y-67171429D02*
X186752381Y-67076190D01*
X186800000Y-66980952D01*
X186847619Y-66933333D01*
X186942857Y-66885714D01*
X187133333Y-66838095D01*
X187371429Y-66838095D01*
X187561905Y-66885714D01*
X187657143Y-66933333D01*
X187704762Y-66980952D01*
X187752381Y-67076190D01*
X187752381Y-67171429D01*
X187704762Y-67266667D01*
X187657143Y-67314286D01*
X187561905Y-67361905D01*
X187371429Y-67409524D01*
X187133333Y-67409524D01*
X186942857Y-67361905D01*
X186847619Y-67314286D01*
X186800000Y-67266667D01*
X186752381Y-67171429D01*
X187652381Y-79642857D02*
X187176190Y-79976191D01*
X187652381Y-80214286D02*
X186652381Y-80214286D01*
X186652381Y-79833333D01*
X186700000Y-79738095D01*
X186747619Y-79690476D01*
X186842857Y-79642857D01*
X186985714Y-79642857D01*
X187080952Y-79690476D01*
X187128571Y-79738095D01*
X187176190Y-79833333D01*
X187176190Y-80214286D01*
X187652381Y-78690476D02*
X187652381Y-79261905D01*
X187652381Y-78976191D02*
X186652381Y-78976191D01*
X186795238Y-79071429D01*
X186890476Y-79166667D01*
X186938095Y-79261905D01*
X187652381Y-77738095D02*
X187652381Y-78309524D01*
X187652381Y-78023810D02*
X186652381Y-78023810D01*
X186795238Y-78119048D01*
X186890476Y-78214286D01*
X186938095Y-78309524D01*
X172342381Y-113261905D02*
X173151905Y-113261905D01*
X173247143Y-113214286D01*
X173294762Y-113166667D01*
X173342381Y-113071429D01*
X173342381Y-112880952D01*
X173294762Y-112785714D01*
X173247143Y-112738095D01*
X173151905Y-112690476D01*
X172342381Y-112690476D01*
X172342381Y-112309524D02*
X172342381Y-111690476D01*
X172723333Y-112023810D01*
X172723333Y-111880952D01*
X172770952Y-111785714D01*
X172818571Y-111738095D01*
X172913810Y-111690476D01*
X173151905Y-111690476D01*
X173247143Y-111738095D01*
X173294762Y-111785714D01*
X173342381Y-111880952D01*
X173342381Y-112166667D01*
X173294762Y-112261905D01*
X173247143Y-112309524D01*
X172038095Y-89952381D02*
X172038095Y-90761905D01*
X172085714Y-90857143D01*
X172133333Y-90904762D01*
X172228571Y-90952381D01*
X172419048Y-90952381D01*
X172514286Y-90904762D01*
X172561905Y-90857143D01*
X172609524Y-90761905D01*
X172609524Y-89952381D01*
X173561905Y-89952381D02*
X173085714Y-89952381D01*
X173038095Y-90428571D01*
X173085714Y-90380952D01*
X173180952Y-90333333D01*
X173419048Y-90333333D01*
X173514286Y-90380952D01*
X173561905Y-90428571D01*
X173609524Y-90523810D01*
X173609524Y-90761905D01*
X173561905Y-90857143D01*
X173514286Y-90904762D01*
X173419048Y-90952381D01*
X173180952Y-90952381D01*
X173085714Y-90904762D01*
X173038095Y-90857143D01*
X140962381Y-107661905D02*
X141771905Y-107661905D01*
X141867143Y-107614286D01*
X141914762Y-107566667D01*
X141962381Y-107471429D01*
X141962381Y-107280952D01*
X141914762Y-107185714D01*
X141867143Y-107138095D01*
X141771905Y-107090476D01*
X140962381Y-107090476D01*
X140962381Y-106709524D02*
X140962381Y-106042857D01*
X141962381Y-106471429D01*
X101362381Y-108451905D02*
X102171905Y-108451905D01*
X102267143Y-108404286D01*
X102314762Y-108356667D01*
X102362381Y-108261429D01*
X102362381Y-108070952D01*
X102314762Y-107975714D01*
X102267143Y-107928095D01*
X102171905Y-107880476D01*
X101362381Y-107880476D01*
X101790952Y-107261429D02*
X101743333Y-107356667D01*
X101695714Y-107404286D01*
X101600476Y-107451905D01*
X101552857Y-107451905D01*
X101457619Y-107404286D01*
X101410000Y-107356667D01*
X101362381Y-107261429D01*
X101362381Y-107070952D01*
X101410000Y-106975714D01*
X101457619Y-106928095D01*
X101552857Y-106880476D01*
X101600476Y-106880476D01*
X101695714Y-106928095D01*
X101743333Y-106975714D01*
X101790952Y-107070952D01*
X101790952Y-107261429D01*
X101838571Y-107356667D01*
X101886190Y-107404286D01*
X101981429Y-107451905D01*
X102171905Y-107451905D01*
X102267143Y-107404286D01*
X102314762Y-107356667D01*
X102362381Y-107261429D01*
X102362381Y-107070952D01*
X102314762Y-106975714D01*
X102267143Y-106928095D01*
X102171905Y-106880476D01*
X101981429Y-106880476D01*
X101886190Y-106928095D01*
X101838571Y-106975714D01*
X101790952Y-107070952D01*
X109944476Y-66868381D02*
X109944476Y-65868381D01*
X110277810Y-66582667D01*
X110611143Y-65868381D01*
X110611143Y-66868381D01*
X110992095Y-65868381D02*
X111611143Y-65868381D01*
X111277809Y-66249333D01*
X111420667Y-66249333D01*
X111515905Y-66296952D01*
X111563524Y-66344571D01*
X111611143Y-66439810D01*
X111611143Y-66677905D01*
X111563524Y-66773143D01*
X111515905Y-66820762D01*
X111420667Y-66868381D01*
X111134952Y-66868381D01*
X111039714Y-66820762D01*
X110992095Y-66773143D01*
X61661905Y-73352381D02*
X61661905Y-72352381D01*
X62042858Y-72352381D01*
X62138096Y-72400000D01*
X62185715Y-72447619D01*
X62233334Y-72542857D01*
X62233334Y-72685714D01*
X62185715Y-72780952D01*
X62138096Y-72828571D01*
X62042858Y-72876190D01*
X61661905Y-72876190D01*
X62709524Y-73352381D02*
X62900000Y-73352381D01*
X62995239Y-73304762D01*
X63042858Y-73257143D01*
X63138096Y-73114286D01*
X63185715Y-72923810D01*
X63185715Y-72542857D01*
X63138096Y-72447619D01*
X63090477Y-72400000D01*
X62995239Y-72352381D01*
X62804762Y-72352381D01*
X62709524Y-72400000D01*
X62661905Y-72447619D01*
X62614286Y-72542857D01*
X62614286Y-72780952D01*
X62661905Y-72876190D01*
X62709524Y-72923810D01*
X62804762Y-72971429D01*
X62995239Y-72971429D01*
X63090477Y-72923810D01*
X63138096Y-72876190D01*
X63185715Y-72780952D01*
X144444476Y-63728381D02*
X144444476Y-62728381D01*
X144777810Y-63442667D01*
X145111143Y-62728381D01*
X145111143Y-63728381D01*
X145539714Y-62823619D02*
X145587333Y-62776000D01*
X145682571Y-62728381D01*
X145920667Y-62728381D01*
X146015905Y-62776000D01*
X146063524Y-62823619D01*
X146111143Y-62918857D01*
X146111143Y-63014095D01*
X146063524Y-63156952D01*
X145492095Y-63728381D01*
X146111143Y-63728381D01*
X143814285Y-78004762D02*
X143957142Y-78052381D01*
X144195238Y-78052381D01*
X144290476Y-78004762D01*
X144338095Y-77957143D01*
X144385714Y-77861905D01*
X144385714Y-77766667D01*
X144338095Y-77671429D01*
X144290476Y-77623810D01*
X144195238Y-77576190D01*
X144004761Y-77528571D01*
X143909523Y-77480952D01*
X143861904Y-77433333D01*
X143814285Y-77338095D01*
X143814285Y-77242857D01*
X143861904Y-77147619D01*
X143909523Y-77100000D01*
X144004761Y-77052381D01*
X144242857Y-77052381D01*
X144385714Y-77100000D01*
X144957142Y-78052381D02*
X144861904Y-78004762D01*
X144814285Y-77909524D01*
X144814285Y-77052381D01*
X145480952Y-78052381D02*
X145385714Y-78004762D01*
X145338095Y-77957143D01*
X145290476Y-77861905D01*
X145290476Y-77576190D01*
X145338095Y-77480952D01*
X145385714Y-77433333D01*
X145480952Y-77385714D01*
X145623810Y-77385714D01*
X145719048Y-77433333D01*
X145766667Y-77480952D01*
X145814286Y-77576190D01*
X145814286Y-77861905D01*
X145766667Y-77957143D01*
X145719048Y-78004762D01*
X145623810Y-78052381D01*
X145480952Y-78052381D01*
X146100000Y-77385714D02*
X146480952Y-77385714D01*
X146242857Y-77052381D02*
X146242857Y-77909524D01*
X146290476Y-78004762D01*
X146385714Y-78052381D01*
X146480952Y-78052381D01*
X139785714Y-74904381D02*
X139785714Y-73904381D01*
X140119048Y-74618667D01*
X140452381Y-73904381D01*
X140452381Y-74904381D01*
X140928571Y-74904381D02*
X140928571Y-74237714D01*
X140928571Y-73904381D02*
X140880952Y-73952000D01*
X140928571Y-73999619D01*
X140976190Y-73952000D01*
X140928571Y-73904381D01*
X140928571Y-73999619D01*
X141833333Y-74856762D02*
X141738095Y-74904381D01*
X141547618Y-74904381D01*
X141452380Y-74856762D01*
X141404761Y-74809143D01*
X141357142Y-74713905D01*
X141357142Y-74428190D01*
X141404761Y-74332952D01*
X141452380Y-74285333D01*
X141547618Y-74237714D01*
X141738095Y-74237714D01*
X141833333Y-74285333D01*
X142261904Y-74904381D02*
X142261904Y-74237714D01*
X142261904Y-74428190D02*
X142309523Y-74332952D01*
X142357142Y-74285333D01*
X142452380Y-74237714D01*
X142547619Y-74237714D01*
X143023809Y-74904381D02*
X142928571Y-74856762D01*
X142880952Y-74809143D01*
X142833333Y-74713905D01*
X142833333Y-74428190D01*
X142880952Y-74332952D01*
X142928571Y-74285333D01*
X143023809Y-74237714D01*
X143166667Y-74237714D01*
X143261905Y-74285333D01*
X143309524Y-74332952D01*
X143357143Y-74428190D01*
X143357143Y-74713905D01*
X143309524Y-74809143D01*
X143261905Y-74856762D01*
X143166667Y-74904381D01*
X143023809Y-74904381D01*
X144500000Y-74856762D02*
X144642857Y-74904381D01*
X144880953Y-74904381D01*
X144976191Y-74856762D01*
X145023810Y-74809143D01*
X145071429Y-74713905D01*
X145071429Y-74618667D01*
X145023810Y-74523429D01*
X144976191Y-74475810D01*
X144880953Y-74428190D01*
X144690476Y-74380571D01*
X144595238Y-74332952D01*
X144547619Y-74285333D01*
X144500000Y-74190095D01*
X144500000Y-74094857D01*
X144547619Y-73999619D01*
X144595238Y-73952000D01*
X144690476Y-73904381D01*
X144928572Y-73904381D01*
X145071429Y-73952000D01*
X145500000Y-74904381D02*
X145500000Y-73904381D01*
X145738095Y-73904381D01*
X145880953Y-73952000D01*
X145976191Y-74047238D01*
X146023810Y-74142476D01*
X146071429Y-74332952D01*
X146071429Y-74475810D01*
X146023810Y-74666286D01*
X145976191Y-74761524D01*
X145880953Y-74856762D01*
X145738095Y-74904381D01*
X145500000Y-74904381D01*
X147833334Y-74809143D02*
X147785715Y-74856762D01*
X147642858Y-74904381D01*
X147547620Y-74904381D01*
X147404762Y-74856762D01*
X147309524Y-74761524D01*
X147261905Y-74666286D01*
X147214286Y-74475810D01*
X147214286Y-74332952D01*
X147261905Y-74142476D01*
X147309524Y-74047238D01*
X147404762Y-73952000D01*
X147547620Y-73904381D01*
X147642858Y-73904381D01*
X147785715Y-73952000D01*
X147833334Y-73999619D01*
X148690477Y-74904381D02*
X148690477Y-74380571D01*
X148642858Y-74285333D01*
X148547620Y-74237714D01*
X148357143Y-74237714D01*
X148261905Y-74285333D01*
X148690477Y-74856762D02*
X148595239Y-74904381D01*
X148357143Y-74904381D01*
X148261905Y-74856762D01*
X148214286Y-74761524D01*
X148214286Y-74666286D01*
X148261905Y-74571048D01*
X148357143Y-74523429D01*
X148595239Y-74523429D01*
X148690477Y-74475810D01*
X149166667Y-74904381D02*
X149166667Y-74237714D01*
X149166667Y-74428190D02*
X149214286Y-74332952D01*
X149261905Y-74285333D01*
X149357143Y-74237714D01*
X149452382Y-74237714D01*
X150214287Y-74904381D02*
X150214287Y-73904381D01*
X150214287Y-74856762D02*
X150119049Y-74904381D01*
X149928572Y-74904381D01*
X149833334Y-74856762D01*
X149785715Y-74809143D01*
X149738096Y-74713905D01*
X149738096Y-74428190D01*
X149785715Y-74332952D01*
X149833334Y-74285333D01*
X149928572Y-74237714D01*
X150119049Y-74237714D01*
X150214287Y-74285333D01*
X141809523Y-48758381D02*
X141809523Y-49567905D01*
X141857142Y-49663143D01*
X141904761Y-49710762D01*
X141999999Y-49758381D01*
X142190476Y-49758381D01*
X142285714Y-49710762D01*
X142333333Y-49663143D01*
X142380952Y-49567905D01*
X142380952Y-48758381D01*
X142809523Y-49710762D02*
X142952380Y-49758381D01*
X143190476Y-49758381D01*
X143285714Y-49710762D01*
X143333333Y-49663143D01*
X143380952Y-49567905D01*
X143380952Y-49472667D01*
X143333333Y-49377429D01*
X143285714Y-49329810D01*
X143190476Y-49282190D01*
X142999999Y-49234571D01*
X142904761Y-49186952D01*
X142857142Y-49139333D01*
X142809523Y-49044095D01*
X142809523Y-48948857D01*
X142857142Y-48853619D01*
X142904761Y-48806000D01*
X142999999Y-48758381D01*
X143238095Y-48758381D01*
X143380952Y-48806000D01*
X144142857Y-49234571D02*
X144285714Y-49282190D01*
X144333333Y-49329810D01*
X144380952Y-49425048D01*
X144380952Y-49567905D01*
X144333333Y-49663143D01*
X144285714Y-49710762D01*
X144190476Y-49758381D01*
X143809523Y-49758381D01*
X143809523Y-48758381D01*
X144142857Y-48758381D01*
X144238095Y-48806000D01*
X144285714Y-48853619D01*
X144333333Y-48948857D01*
X144333333Y-49044095D01*
X144285714Y-49139333D01*
X144238095Y-49186952D01*
X144142857Y-49234571D01*
X143809523Y-49234571D01*
X145571428Y-49758381D02*
X145571428Y-48758381D01*
X145952381Y-48758381D01*
X146047619Y-48806000D01*
X146095238Y-48853619D01*
X146142857Y-48948857D01*
X146142857Y-49091714D01*
X146095238Y-49186952D01*
X146047619Y-49234571D01*
X145952381Y-49282190D01*
X145571428Y-49282190D01*
X146714285Y-49758381D02*
X146619047Y-49710762D01*
X146571428Y-49663143D01*
X146523809Y-49567905D01*
X146523809Y-49282190D01*
X146571428Y-49186952D01*
X146619047Y-49139333D01*
X146714285Y-49091714D01*
X146857143Y-49091714D01*
X146952381Y-49139333D01*
X147000000Y-49186952D01*
X147047619Y-49282190D01*
X147047619Y-49567905D01*
X147000000Y-49663143D01*
X146952381Y-49710762D01*
X146857143Y-49758381D01*
X146714285Y-49758381D01*
X147476190Y-49758381D02*
X147476190Y-49091714D01*
X147476190Y-49282190D02*
X147523809Y-49186952D01*
X147571428Y-49139333D01*
X147666666Y-49091714D01*
X147761905Y-49091714D01*
X147952381Y-49091714D02*
X148333333Y-49091714D01*
X148095238Y-48758381D02*
X148095238Y-49615524D01*
X148142857Y-49710762D01*
X148238095Y-49758381D01*
X148333333Y-49758381D01*
X113138095Y-130282381D02*
X113138095Y-131091905D01*
X113185714Y-131187143D01*
X113233333Y-131234762D01*
X113328571Y-131282381D01*
X113519048Y-131282381D01*
X113614286Y-131234762D01*
X113661905Y-131187143D01*
X113709524Y-131091905D01*
X113709524Y-130282381D01*
X114614286Y-130615714D02*
X114614286Y-131282381D01*
X114376190Y-130234762D02*
X114138095Y-130949048D01*
X114757143Y-130949048D01*
D14*
X110494762Y-129786190D02*
X110209048Y-129786190D01*
X110351905Y-129786190D02*
X110351905Y-129286190D01*
X110304286Y-129357619D01*
X110256667Y-129405238D01*
X110209048Y-129429048D01*
X110804286Y-129286190D02*
X110851905Y-129286190D01*
X110899524Y-129310000D01*
X110923333Y-129333810D01*
X110947143Y-129381429D01*
X110970952Y-129476667D01*
X110970952Y-129595714D01*
X110947143Y-129690952D01*
X110923333Y-129738571D01*
X110899524Y-129762381D01*
X110851905Y-129786190D01*
X110804286Y-129786190D01*
X110756667Y-129762381D01*
X110732857Y-129738571D01*
X110709048Y-129690952D01*
X110685238Y-129595714D01*
X110685238Y-129476667D01*
X110709048Y-129381429D01*
X110732857Y-129333810D01*
X110756667Y-129310000D01*
X110804286Y-129286190D01*
X107954762Y-129786190D02*
X107669048Y-129786190D01*
X107811905Y-129786190D02*
X107811905Y-129286190D01*
X107764286Y-129357619D01*
X107716667Y-129405238D01*
X107669048Y-129429048D01*
X108264286Y-129286190D02*
X108311905Y-129286190D01*
X108359524Y-129310000D01*
X108383333Y-129333810D01*
X108407143Y-129381429D01*
X108430952Y-129476667D01*
X108430952Y-129595714D01*
X108407143Y-129690952D01*
X108383333Y-129738571D01*
X108359524Y-129762381D01*
X108311905Y-129786190D01*
X108264286Y-129786190D01*
X108216667Y-129762381D01*
X108192857Y-129738571D01*
X108169048Y-129690952D01*
X108145238Y-129595714D01*
X108145238Y-129476667D01*
X108169048Y-129381429D01*
X108192857Y-129333810D01*
X108216667Y-129310000D01*
X108264286Y-129286190D01*
X102884762Y-129726190D02*
X102980000Y-129726190D01*
X103027619Y-129702381D01*
X103051429Y-129678571D01*
X103099048Y-129607143D01*
X103122857Y-129511905D01*
X103122857Y-129321429D01*
X103099048Y-129273810D01*
X103075238Y-129250000D01*
X103027619Y-129226190D01*
X102932381Y-129226190D01*
X102884762Y-129250000D01*
X102860953Y-129273810D01*
X102837143Y-129321429D01*
X102837143Y-129440476D01*
X102860953Y-129488095D01*
X102884762Y-129511905D01*
X102932381Y-129535714D01*
X103027619Y-129535714D01*
X103075238Y-129511905D01*
X103099048Y-129488095D01*
X103122857Y-129440476D01*
X100342762Y-129786190D02*
X100438000Y-129786190D01*
X100485619Y-129762381D01*
X100509429Y-129738571D01*
X100557048Y-129667143D01*
X100580857Y-129571905D01*
X100580857Y-129381429D01*
X100557048Y-129333810D01*
X100533238Y-129310000D01*
X100485619Y-129286190D01*
X100390381Y-129286190D01*
X100342762Y-129310000D01*
X100318953Y-129333810D01*
X100295143Y-129381429D01*
X100295143Y-129500476D01*
X100318953Y-129548095D01*
X100342762Y-129571905D01*
X100390381Y-129595714D01*
X100485619Y-129595714D01*
X100533238Y-129571905D01*
X100557048Y-129548095D01*
X100580857Y-129500476D01*
D10*
X105127524Y-124546667D02*
X105318001Y-124546667D01*
X105089429Y-124660952D02*
X105222763Y-124260952D01*
X105356096Y-124660952D01*
X105489429Y-124394286D02*
X105489429Y-124660952D01*
X105489429Y-124432381D02*
X105508477Y-124413333D01*
X105546572Y-124394286D01*
X105603715Y-124394286D01*
X105641810Y-124413333D01*
X105660858Y-124451429D01*
X105660858Y-124660952D01*
X105794191Y-124394286D02*
X105946572Y-124394286D01*
X105851334Y-124260952D02*
X105851334Y-124603810D01*
X105870382Y-124641905D01*
X105908477Y-124660952D01*
X105946572Y-124660952D01*
D13*
X139993476Y-123154381D02*
X139993476Y-122154381D01*
X140326810Y-122868667D01*
X140660143Y-122154381D01*
X140660143Y-123154381D01*
X141660143Y-123154381D02*
X141088714Y-123154381D01*
X141374428Y-123154381D02*
X141374428Y-122154381D01*
X141279190Y-122297238D01*
X141183952Y-122392476D01*
X141088714Y-122440095D01*
X152995095Y-130972857D02*
X154518905Y-130972857D01*
X153757000Y-131734762D02*
X153757000Y-130210952D01*
X151407762Y-133473143D02*
X151360143Y-133520762D01*
X151217286Y-133568381D01*
X151122048Y-133568381D01*
X150979190Y-133520762D01*
X150883952Y-133425524D01*
X150836333Y-133330286D01*
X150788714Y-133139810D01*
X150788714Y-132996952D01*
X150836333Y-132806476D01*
X150883952Y-132711238D01*
X150979190Y-132616000D01*
X151122048Y-132568381D01*
X151217286Y-132568381D01*
X151360143Y-132616000D01*
X151407762Y-132663619D01*
X152407762Y-133568381D02*
X152074428Y-133092190D01*
X151836333Y-133568381D02*
X151836333Y-132568381D01*
X152217286Y-132568381D01*
X152312524Y-132616000D01*
X152360143Y-132663619D01*
X152407762Y-132758857D01*
X152407762Y-132901714D01*
X152360143Y-132996952D01*
X152312524Y-133044571D01*
X152217286Y-133092190D01*
X151836333Y-133092190D01*
X152788714Y-132663619D02*
X152836333Y-132616000D01*
X152931571Y-132568381D01*
X153169667Y-132568381D01*
X153264905Y-132616000D01*
X153312524Y-132663619D01*
X153360143Y-132758857D01*
X153360143Y-132854095D01*
X153312524Y-132996952D01*
X152741095Y-133568381D01*
X153360143Y-133568381D01*
X153979190Y-132568381D02*
X154074429Y-132568381D01*
X154169667Y-132616000D01*
X154217286Y-132663619D01*
X154264905Y-132758857D01*
X154312524Y-132949333D01*
X154312524Y-133187429D01*
X154264905Y-133377905D01*
X154217286Y-133473143D01*
X154169667Y-133520762D01*
X154074429Y-133568381D01*
X153979190Y-133568381D01*
X153883952Y-133520762D01*
X153836333Y-133473143D01*
X153788714Y-133377905D01*
X153741095Y-133187429D01*
X153741095Y-132949333D01*
X153788714Y-132758857D01*
X153836333Y-132663619D01*
X153883952Y-132616000D01*
X153979190Y-132568381D01*
X154645857Y-132568381D02*
X155264905Y-132568381D01*
X154931571Y-132949333D01*
X155074429Y-132949333D01*
X155169667Y-132996952D01*
X155217286Y-133044571D01*
X155264905Y-133139810D01*
X155264905Y-133377905D01*
X155217286Y-133473143D01*
X155169667Y-133520762D01*
X155074429Y-133568381D01*
X154788714Y-133568381D01*
X154693476Y-133520762D01*
X154645857Y-133473143D01*
X155645857Y-132663619D02*
X155693476Y-132616000D01*
X155788714Y-132568381D01*
X156026810Y-132568381D01*
X156122048Y-132616000D01*
X156169667Y-132663619D01*
X156217286Y-132758857D01*
X156217286Y-132854095D01*
X156169667Y-132996952D01*
X155598238Y-133568381D01*
X156217286Y-133568381D01*
X169211476Y-125202381D02*
X169830524Y-125202381D01*
X169497190Y-125583333D01*
X169640048Y-125583333D01*
X169735286Y-125630952D01*
X169782905Y-125678571D01*
X169830524Y-125773810D01*
X169830524Y-126011905D01*
X169782905Y-126107143D01*
X169735286Y-126154762D01*
X169640048Y-126202381D01*
X169354333Y-126202381D01*
X169259095Y-126154762D01*
X169211476Y-126107143D01*
X170211476Y-125297619D02*
X170259095Y-125250000D01*
X170354333Y-125202381D01*
X170592429Y-125202381D01*
X170687667Y-125250000D01*
X170735286Y-125297619D01*
X170782905Y-125392857D01*
X170782905Y-125488095D01*
X170735286Y-125630952D01*
X170163857Y-126202381D01*
X170782905Y-126202381D01*
X171211476Y-126202381D02*
X171211476Y-125202381D01*
X171782905Y-126202381D02*
X171354333Y-125630952D01*
X171782905Y-125202381D02*
X171211476Y-125773810D01*
X169140048Y-128694762D02*
X169282905Y-128742381D01*
X169521001Y-128742381D01*
X169616239Y-128694762D01*
X169663858Y-128647143D01*
X169711477Y-128551905D01*
X169711477Y-128456667D01*
X169663858Y-128361429D01*
X169616239Y-128313810D01*
X169521001Y-128266190D01*
X169330524Y-128218571D01*
X169235286Y-128170952D01*
X169187667Y-128123333D01*
X169140048Y-128028095D01*
X169140048Y-127932857D01*
X169187667Y-127837619D01*
X169235286Y-127790000D01*
X169330524Y-127742381D01*
X169568620Y-127742381D01*
X169711477Y-127790000D01*
X170806715Y-128837619D02*
X170711477Y-128790000D01*
X170616239Y-128694762D01*
X170473382Y-128551905D01*
X170378143Y-128504286D01*
X170282905Y-128504286D01*
X170330524Y-128742381D02*
X170235286Y-128694762D01*
X170140048Y-128599524D01*
X170092429Y-128409048D01*
X170092429Y-128075714D01*
X170140048Y-127885238D01*
X170235286Y-127790000D01*
X170330524Y-127742381D01*
X170521001Y-127742381D01*
X170616239Y-127790000D01*
X170711477Y-127885238D01*
X170759096Y-128075714D01*
X170759096Y-128409048D01*
X170711477Y-128599524D01*
X170616239Y-128694762D01*
X170521001Y-128742381D01*
X170330524Y-128742381D01*
X171092429Y-127742381D02*
X171330524Y-128742381D01*
X171521001Y-128028095D01*
X171711477Y-128742381D01*
X171949572Y-127742381D01*
X169457524Y-131234762D02*
X169600381Y-131282381D01*
X169838477Y-131282381D01*
X169933715Y-131234762D01*
X169981334Y-131187143D01*
X170028953Y-131091905D01*
X170028953Y-130996667D01*
X169981334Y-130901429D01*
X169933715Y-130853810D01*
X169838477Y-130806190D01*
X169648000Y-130758571D01*
X169552762Y-130710952D01*
X169505143Y-130663333D01*
X169457524Y-130568095D01*
X169457524Y-130472857D01*
X169505143Y-130377619D01*
X169552762Y-130330000D01*
X169648000Y-130282381D01*
X169886096Y-130282381D01*
X170028953Y-130330000D01*
X171028953Y-131187143D02*
X170981334Y-131234762D01*
X170838477Y-131282381D01*
X170743239Y-131282381D01*
X170600381Y-131234762D01*
X170505143Y-131139524D01*
X170457524Y-131044286D01*
X170409905Y-130853810D01*
X170409905Y-130710952D01*
X170457524Y-130520476D01*
X170505143Y-130425238D01*
X170600381Y-130330000D01*
X170743239Y-130282381D01*
X170838477Y-130282381D01*
X170981334Y-130330000D01*
X171028953Y-130377619D01*
X171933715Y-131282381D02*
X171457524Y-131282381D01*
X171457524Y-130282381D01*
X169433714Y-133901762D02*
X169576571Y-133949381D01*
X169814667Y-133949381D01*
X169909905Y-133901762D01*
X169957524Y-133854143D01*
X170005143Y-133758905D01*
X170005143Y-133663667D01*
X169957524Y-133568429D01*
X169909905Y-133520810D01*
X169814667Y-133473190D01*
X169624190Y-133425571D01*
X169528952Y-133377952D01*
X169481333Y-133330333D01*
X169433714Y-133235095D01*
X169433714Y-133139857D01*
X169481333Y-133044619D01*
X169528952Y-132997000D01*
X169624190Y-132949381D01*
X169862286Y-132949381D01*
X170005143Y-132997000D01*
X170433714Y-133949381D02*
X170433714Y-132949381D01*
X170671809Y-132949381D01*
X170814667Y-132997000D01*
X170909905Y-133092238D01*
X170957524Y-133187476D01*
X171005143Y-133377952D01*
X171005143Y-133520810D01*
X170957524Y-133711286D01*
X170909905Y-133806524D01*
X170814667Y-133901762D01*
X170671809Y-133949381D01*
X170433714Y-133949381D01*
X171386095Y-133663667D02*
X171862286Y-133663667D01*
X171290857Y-133949381D02*
X171624190Y-132949381D01*
X171957524Y-133949381D01*
X169187667Y-135362381D02*
X169521000Y-136362381D01*
X169854334Y-135362381D01*
X170759096Y-136267143D02*
X170711477Y-136314762D01*
X170568620Y-136362381D01*
X170473382Y-136362381D01*
X170330524Y-136314762D01*
X170235286Y-136219524D01*
X170187667Y-136124286D01*
X170140048Y-135933810D01*
X170140048Y-135790952D01*
X170187667Y-135600476D01*
X170235286Y-135505238D01*
X170330524Y-135410000D01*
X170473382Y-135362381D01*
X170568620Y-135362381D01*
X170711477Y-135410000D01*
X170759096Y-135457619D01*
X171759096Y-136267143D02*
X171711477Y-136314762D01*
X171568620Y-136362381D01*
X171473382Y-136362381D01*
X171330524Y-136314762D01*
X171235286Y-136219524D01*
X171187667Y-136124286D01*
X171140048Y-135933810D01*
X171140048Y-135790952D01*
X171187667Y-135600476D01*
X171235286Y-135505238D01*
X171330524Y-135410000D01*
X171473382Y-135362381D01*
X171568620Y-135362381D01*
X171711477Y-135410000D01*
X171759096Y-135457619D01*
X169759096Y-137950000D02*
X169663858Y-137902381D01*
X169521001Y-137902381D01*
X169378143Y-137950000D01*
X169282905Y-138045238D01*
X169235286Y-138140476D01*
X169187667Y-138330952D01*
X169187667Y-138473810D01*
X169235286Y-138664286D01*
X169282905Y-138759524D01*
X169378143Y-138854762D01*
X169521001Y-138902381D01*
X169616239Y-138902381D01*
X169759096Y-138854762D01*
X169806715Y-138807143D01*
X169806715Y-138473810D01*
X169616239Y-138473810D01*
X170235286Y-138902381D02*
X170235286Y-137902381D01*
X170806715Y-138902381D01*
X170806715Y-137902381D01*
X171282905Y-138902381D02*
X171282905Y-137902381D01*
X171521000Y-137902381D01*
X171663858Y-137950000D01*
X171759096Y-138045238D01*
X171806715Y-138140476D01*
X171854334Y-138330952D01*
X171854334Y-138473810D01*
X171806715Y-138664286D01*
X171759096Y-138759524D01*
X171663858Y-138854762D01*
X171521000Y-138902381D01*
X171282905Y-138902381D01*
X78532381Y-102861905D02*
X79341905Y-102861905D01*
X79437143Y-102814286D01*
X79484762Y-102766667D01*
X79532381Y-102671429D01*
X79532381Y-102480952D01*
X79484762Y-102385714D01*
X79437143Y-102338095D01*
X79341905Y-102290476D01*
X78532381Y-102290476D01*
X78627619Y-101861905D02*
X78580000Y-101814286D01*
X78532381Y-101719048D01*
X78532381Y-101480952D01*
X78580000Y-101385714D01*
X78627619Y-101338095D01*
X78722857Y-101290476D01*
X78818095Y-101290476D01*
X78960952Y-101338095D01*
X79532381Y-101909524D01*
X79532381Y-101290476D01*
X101738095Y-88742381D02*
X101738095Y-89551905D01*
X101785714Y-89647143D01*
X101833333Y-89694762D01*
X101928571Y-89742381D01*
X102119048Y-89742381D01*
X102214286Y-89694762D01*
X102261905Y-89647143D01*
X102309524Y-89551905D01*
X102309524Y-88742381D01*
X103309524Y-89742381D02*
X102738095Y-89742381D01*
X103023809Y-89742381D02*
X103023809Y-88742381D01*
X102928571Y-88885238D01*
X102833333Y-88980476D01*
X102738095Y-89028095D01*
M02*
