G04 #@! TF.FileFunction,Copper,L2,Bot,Signal*
%FSLAX46Y46*%
G04 Gerber Fmt 4.6, Leading zero omitted, Abs format (unit mm)*
G04 Created by KiCad (PCBNEW 4.0.6+dfsg1-1) date Sat Jan 27 22:44:56 2018*
%MOMM*%
%LPD*%
G01*
G04 APERTURE LIST*
%ADD10C,0.100000*%
%ADD11R,2.200000X2.200000*%
%ADD12O,2.200000X2.200000*%
%ADD13R,1.600000X1.600000*%
%ADD14C,1.600000*%
%ADD15O,2.540000X2.032000*%
%ADD16O,1.600000X1.600000*%
%ADD17R,1.750000X1.750000*%
%ADD18C,1.750000*%
%ADD19C,1.524000*%
%ADD20C,0.600000*%
%ADD21C,0.250000*%
%ADD22C,0.254000*%
G04 APERTURE END LIST*
D10*
D11*
X156200000Y-118700000D03*
D12*
X156200000Y-111080000D03*
D13*
X101500000Y-134100000D03*
D14*
X99000000Y-134100000D03*
D13*
X186200000Y-123300000D03*
D14*
X186200000Y-125800000D03*
D15*
X186200000Y-114900000D03*
X186200000Y-117440000D03*
X186200000Y-112360000D03*
D14*
X184400000Y-80000000D03*
D16*
X184400000Y-72380000D03*
D14*
X181000000Y-65400000D03*
D16*
X181000000Y-73020000D03*
D14*
X104400000Y-75400000D03*
D16*
X104400000Y-83020000D03*
D14*
X104000000Y-129500000D03*
D16*
X96380000Y-129500000D03*
D14*
X104000000Y-126100000D03*
D16*
X96380000Y-126100000D03*
D14*
X104000000Y-122700000D03*
D16*
X96380000Y-122700000D03*
D14*
X108100000Y-75400000D03*
D16*
X108100000Y-83020000D03*
D14*
X181000000Y-75300000D03*
D16*
X181000000Y-82920000D03*
D14*
X177700000Y-65400000D03*
D16*
X177700000Y-73020000D03*
D17*
X92200000Y-125300000D03*
D18*
X92200000Y-127800000D03*
X92200000Y-130300000D03*
X92200000Y-132800000D03*
D17*
X185900000Y-139600000D03*
D18*
X188400000Y-139600000D03*
D17*
X109800000Y-68300000D03*
D18*
X107300000Y-68300000D03*
D17*
X194100000Y-110000000D03*
D18*
X194100000Y-107500000D03*
D19*
X173670000Y-111190000D03*
X176210000Y-111190000D03*
X178750000Y-111190000D03*
X181290000Y-111190000D03*
X171130000Y-111190000D03*
X168590000Y-111190000D03*
X166050000Y-111190000D03*
X163510000Y-111190000D03*
X181290000Y-118810000D03*
X178750000Y-118810000D03*
X176210000Y-118810000D03*
X173670000Y-118810000D03*
X171130000Y-118810000D03*
X168590000Y-118810000D03*
X166050000Y-118810000D03*
X163510000Y-118810000D03*
D17*
X194100000Y-100800000D03*
D18*
X194100000Y-98300000D03*
D14*
X126400000Y-107000000D03*
D16*
X134020000Y-107000000D03*
D13*
X136000000Y-127800000D03*
D16*
X143620000Y-135420000D03*
X136000000Y-130340000D03*
X143620000Y-132880000D03*
X136000000Y-132880000D03*
X143620000Y-130340000D03*
X136000000Y-135420000D03*
X143620000Y-127800000D03*
D19*
X146700000Y-111090000D03*
X149240000Y-111090000D03*
X151780000Y-111090000D03*
X144160000Y-111090000D03*
X141620000Y-111090000D03*
X146700000Y-118710000D03*
X149240000Y-118710000D03*
X151780000Y-118710000D03*
X144160000Y-118710000D03*
X141620000Y-118710000D03*
D17*
X188200000Y-68100000D03*
D18*
X185700000Y-68100000D03*
D17*
X99700000Y-139900000D03*
D18*
X102200000Y-139900000D03*
D17*
X101100000Y-68300000D03*
D18*
X98600000Y-68300000D03*
D17*
X194100000Y-77400000D03*
D18*
X194100000Y-74900000D03*
D17*
X194100000Y-91600000D03*
D18*
X194100000Y-89100000D03*
X194100000Y-86600000D03*
X194100000Y-84100000D03*
D13*
X123400000Y-111600000D03*
D14*
X125400000Y-111600000D03*
X159400000Y-111800000D03*
X159400000Y-109300000D03*
X124100000Y-107000000D03*
X121600000Y-107000000D03*
X159400000Y-118000000D03*
X159400000Y-120500000D03*
D17*
X92500000Y-74200000D03*
D18*
X92500000Y-76700000D03*
X92500000Y-79200000D03*
X92500000Y-81700000D03*
D17*
X194100000Y-124100000D03*
D18*
X194100000Y-121600000D03*
X194100000Y-119100000D03*
X194100000Y-116600000D03*
D13*
X178800000Y-103700000D03*
D14*
X182600000Y-103700000D03*
D13*
X178400000Y-88400000D03*
D14*
X182200000Y-88400000D03*
D13*
X137800000Y-139600000D03*
D14*
X137800000Y-142100000D03*
D13*
X123400000Y-117500000D03*
D14*
X125400000Y-117500000D03*
D13*
X186400000Y-87900000D03*
D14*
X188900000Y-87900000D03*
D13*
X129000000Y-111600000D03*
D14*
X131500000Y-111600000D03*
D13*
X135100000Y-117500000D03*
D14*
X137100000Y-117500000D03*
D13*
X135100000Y-111600000D03*
D14*
X137100000Y-111600000D03*
D13*
X129300000Y-117500000D03*
D14*
X131300000Y-117500000D03*
D17*
X194100000Y-133300000D03*
D18*
X194100000Y-130800000D03*
D19*
X113800000Y-78300000D03*
X113800000Y-75300000D03*
X113800000Y-72300000D03*
X113800000Y-69300000D03*
X137600000Y-67600000D03*
X137600000Y-70600000D03*
X137600000Y-77000000D03*
X137600000Y-80000000D03*
X122940000Y-97510000D03*
X122940000Y-89890000D03*
X92460000Y-97510000D03*
X92460000Y-89890000D03*
X91170000Y-115610000D03*
X91170000Y-107990000D03*
X91170000Y-105450000D03*
X91170000Y-118150000D03*
X114030000Y-105450000D03*
X114030000Y-118150000D03*
X96504000Y-118150000D03*
X96504000Y-105450000D03*
X140990000Y-66298500D03*
X143530000Y-66298500D03*
X146070000Y-66298500D03*
X148610000Y-66298500D03*
X151150000Y-66298500D03*
X153690000Y-66298500D03*
X156230000Y-66298500D03*
X158770000Y-66298500D03*
X174010000Y-66298500D03*
X171470000Y-66298500D03*
X168930000Y-66298500D03*
X166390000Y-66298500D03*
X163850000Y-66298500D03*
X161310000Y-66298500D03*
X161310000Y-85501500D03*
X163850000Y-85501500D03*
X166390000Y-85501500D03*
X168930000Y-85501500D03*
X171470000Y-85501500D03*
X174010000Y-85501500D03*
X158770000Y-85501500D03*
X156230000Y-85501500D03*
X153690000Y-85501500D03*
X151150000Y-85501500D03*
X148610000Y-85501500D03*
X146070000Y-85501500D03*
X143530000Y-85501500D03*
X140990000Y-85501500D03*
X180734000Y-134070000D03*
X180734000Y-136610000D03*
X180734000Y-139150000D03*
X180734000Y-131530000D03*
X180734000Y-128990000D03*
X180734000Y-126450000D03*
X106830000Y-121270000D03*
X119530000Y-121270000D03*
X133500000Y-141590000D03*
X133500000Y-139050000D03*
X133500000Y-136510000D03*
X133500000Y-133970000D03*
X133500000Y-131430000D03*
X133500000Y-128890000D03*
X133500000Y-126350000D03*
X133500000Y-123810000D03*
X158040000Y-90280000D03*
X160580000Y-90280000D03*
X163120000Y-90280000D03*
X165660000Y-90280000D03*
X168200000Y-90280000D03*
X170740000Y-90280000D03*
X173280000Y-90280000D03*
X155500000Y-90280000D03*
X152960000Y-90280000D03*
X150420000Y-90280000D03*
X147880000Y-90280000D03*
X145340000Y-90280000D03*
X142800000Y-90280000D03*
X140260000Y-90280000D03*
X137720000Y-90280000D03*
X137720000Y-105520000D03*
X140260000Y-105520000D03*
X142800000Y-105520000D03*
X145340000Y-105520000D03*
X147880000Y-105520000D03*
X150420000Y-105520000D03*
X152960000Y-105520000D03*
X155500000Y-105520000D03*
X158040000Y-105520000D03*
X160580000Y-105520000D03*
X163120000Y-105520000D03*
X165660000Y-105520000D03*
X168200000Y-105520000D03*
X170740000Y-105520000D03*
X173280000Y-105520000D03*
X132700000Y-101700000D03*
X132700000Y-94100000D03*
D20*
X127709600Y-117083200D03*
X131177200Y-103889900D03*
X186503800Y-127812500D03*
X115537100Y-99989800D03*
X135315700Y-95738200D03*
D21*
X151780000Y-91640000D02*
X151780000Y-111090000D01*
X150420000Y-90280000D02*
X151780000Y-91640000D01*
X168930000Y-87010000D02*
X168930000Y-85501500D01*
X165660000Y-90280000D02*
X168930000Y-87010000D01*
X182600000Y-88800000D02*
X182200000Y-88400000D01*
X182600000Y-103700000D02*
X182600000Y-88800000D01*
X99000000Y-127700000D02*
X104000000Y-122700000D01*
X99000000Y-134100000D02*
X99000000Y-127700000D01*
X104000000Y-118280000D02*
X104000000Y-122700000D01*
X91170000Y-105450000D02*
X104000000Y-118280000D01*
X137800000Y-139600000D02*
X136674700Y-139600000D01*
X134812400Y-137737600D02*
X136674700Y-139600000D01*
X136000000Y-136550000D02*
X134812400Y-137737600D01*
X136000000Y-135420000D02*
X136000000Y-136550000D01*
X134812400Y-137737600D02*
X133500000Y-139050000D01*
X136000000Y-135420000D02*
X136000000Y-134294700D01*
X136000000Y-130340000D02*
X136000000Y-132880000D01*
X136000000Y-132880000D02*
X136000000Y-134294700D01*
X143620000Y-130340000D02*
X143620000Y-129214700D01*
X143824300Y-129214700D02*
X143620000Y-129214700D01*
X151780000Y-121259000D02*
X143824300Y-129214700D01*
X151780000Y-118710000D02*
X151780000Y-121259000D01*
X157625300Y-118165500D02*
X157625300Y-118700000D01*
X159194200Y-116596600D02*
X157625300Y-118165500D01*
X163183400Y-116596600D02*
X159194200Y-116596600D01*
X168590000Y-111190000D02*
X163183400Y-116596600D01*
X156200000Y-118700000D02*
X157625300Y-118700000D01*
X171470000Y-85501500D02*
X171470000Y-66298500D01*
X178750000Y-111190000D02*
X178750000Y-118810000D01*
X179210000Y-118810000D02*
X186200000Y-125800000D01*
X178750000Y-118810000D02*
X179210000Y-118810000D01*
X176600000Y-109040000D02*
X178750000Y-111190000D01*
X170740000Y-109040000D02*
X176600000Y-109040000D01*
X170740000Y-105520000D02*
X170740000Y-109040000D01*
X170740000Y-109040000D02*
X168590000Y-111190000D01*
X104000000Y-130474700D02*
X101500000Y-132974700D01*
X104000000Y-129500000D02*
X104000000Y-130474700D01*
X101500000Y-134100000D02*
X101500000Y-132974700D01*
X188544000Y-86600000D02*
X194100000Y-86600000D01*
X187525300Y-87618700D02*
X188544000Y-86600000D01*
X187525300Y-87900000D02*
X187525300Y-87618700D01*
X186400000Y-87900000D02*
X187525300Y-87900000D01*
X178400000Y-88400000D02*
X178400000Y-89525300D01*
X177274700Y-87274700D02*
X177274700Y-88400000D01*
X174755800Y-84755700D02*
X177274700Y-87274700D01*
X178831800Y-80679700D02*
X174755800Y-84755700D01*
X178831800Y-71120300D02*
X178831800Y-80679700D01*
X174010000Y-66298500D02*
X178831800Y-71120300D01*
X174755800Y-84755700D02*
X174010000Y-85501500D01*
X178400000Y-88400000D02*
X177274700Y-88400000D01*
X170770600Y-100409400D02*
X177709400Y-100409400D01*
X165660000Y-105520000D02*
X170770600Y-100409400D01*
X177709400Y-90215900D02*
X178400000Y-89525300D01*
X177709400Y-100409400D02*
X177709400Y-90215900D01*
X192861100Y-115361100D02*
X194100000Y-116600000D01*
X188278900Y-115361100D02*
X192861100Y-115361100D01*
X188278900Y-110978900D02*
X188278900Y-115361100D01*
X177709400Y-100409400D02*
X188278900Y-110978900D01*
X188278900Y-115361100D02*
X186200000Y-117440000D01*
X132397300Y-140487300D02*
X133500000Y-141590000D01*
X132397300Y-125849800D02*
X132397300Y-140487300D01*
X133167100Y-125080000D02*
X132397300Y-125849800D01*
X133776900Y-125080000D02*
X133167100Y-125080000D01*
X136892100Y-121964800D02*
X133776900Y-125080000D01*
X136892100Y-119508100D02*
X136892100Y-121964800D01*
X143003000Y-113397200D02*
X136892100Y-119508100D01*
X143003000Y-109408900D02*
X143003000Y-113397200D01*
X146512400Y-105899500D02*
X143003000Y-109408900D01*
X146512400Y-105094300D02*
X146512400Y-105899500D01*
X145829100Y-104411000D02*
X146512400Y-105094300D01*
X141369000Y-104411000D02*
X145829100Y-104411000D01*
X140260000Y-105520000D02*
X141369000Y-104411000D01*
X126525400Y-118625400D02*
X125400000Y-117500000D01*
X130293900Y-118625400D02*
X126525400Y-118625400D01*
X131300000Y-117619300D02*
X130293900Y-118625400D01*
X131300000Y-117500000D02*
X131300000Y-117619300D01*
X129000000Y-107960400D02*
X129000000Y-111600000D01*
X134240100Y-102720300D02*
X129000000Y-107960400D01*
X134240100Y-75577300D02*
X134240100Y-102720300D01*
X139361100Y-70456300D02*
X134240100Y-75577300D01*
X139361100Y-66375700D02*
X139361100Y-70456300D01*
X140525800Y-65211000D02*
X139361100Y-66375700D01*
X142442500Y-65211000D02*
X140525800Y-65211000D01*
X143530000Y-66298500D02*
X142442500Y-65211000D01*
X131500000Y-110645300D02*
X134020000Y-108125300D01*
X131500000Y-111600000D02*
X131500000Y-110645300D01*
X134020000Y-107000000D02*
X134020000Y-108125300D01*
X103500600Y-67099700D02*
X102300300Y-68300000D01*
X110818700Y-67099700D02*
X103500600Y-67099700D01*
X111015800Y-67296800D02*
X110818700Y-67099700D01*
X111015800Y-71103400D02*
X111015800Y-67296800D01*
X113712400Y-73800000D02*
X111015800Y-71103400D01*
X113855400Y-73800000D02*
X113712400Y-73800000D01*
X127709600Y-87654200D02*
X113855400Y-73800000D01*
X127709600Y-117083200D02*
X127709600Y-87654200D01*
X101100000Y-68300000D02*
X102300300Y-68300000D01*
X100259400Y-66640600D02*
X98600000Y-68300000D01*
X111015800Y-66640600D02*
X100259400Y-66640600D01*
X112487600Y-68112400D02*
X111015800Y-66640600D01*
X112487600Y-69575700D02*
X112487600Y-68112400D01*
X113711900Y-70800000D02*
X112487600Y-69575700D01*
X113854800Y-70800000D02*
X113711900Y-70800000D01*
X131177200Y-88122400D02*
X113854800Y-70800000D01*
X131177200Y-103889900D02*
X131177200Y-88122400D01*
X184007700Y-87053000D02*
X181000000Y-84045300D01*
X184007700Y-97407700D02*
X184007700Y-87053000D01*
X194100000Y-107500000D02*
X184007700Y-97407700D01*
X181000000Y-82920000D02*
X181000000Y-84045300D01*
X182929700Y-134070000D02*
X192899700Y-124100000D01*
X180734000Y-134070000D02*
X182929700Y-134070000D01*
X194100000Y-124100000D02*
X192899700Y-124100000D01*
X143620000Y-134070000D02*
X180734000Y-134070000D01*
X143620000Y-134070000D02*
X143620000Y-135420000D01*
X153951100Y-107068900D02*
X155500000Y-105520000D01*
X153951100Y-121656900D02*
X153951100Y-107068900D01*
X143853300Y-131754700D02*
X153951100Y-121656900D01*
X143153800Y-131754700D02*
X143853300Y-131754700D01*
X142494700Y-132413800D02*
X143153800Y-131754700D01*
X142494700Y-133346200D02*
X142494700Y-132413800D01*
X143218500Y-134070000D02*
X142494700Y-133346200D01*
X143620000Y-134070000D02*
X143218500Y-134070000D01*
X143620000Y-132880000D02*
X144745300Y-132880000D01*
X154771400Y-108788600D02*
X154771400Y-131366000D01*
X158040000Y-105520000D02*
X154771400Y-108788600D01*
X146259300Y-131366000D02*
X154771400Y-131366000D01*
X144745300Y-132880000D02*
X146259300Y-131366000D01*
X180570000Y-131366000D02*
X180734000Y-131530000D01*
X154771400Y-131366000D02*
X180570000Y-131366000D01*
X184170000Y-131530000D02*
X194100000Y-121600000D01*
X180734000Y-131530000D02*
X184170000Y-131530000D01*
X147166900Y-65201600D02*
X146070000Y-66298500D01*
X154194500Y-65201600D02*
X147166900Y-65201600D01*
X154960000Y-65967100D02*
X154194500Y-65201600D01*
X154960000Y-66752700D02*
X154960000Y-65967100D01*
X160040000Y-71832700D02*
X154960000Y-66752700D01*
X160040000Y-87200000D02*
X160040000Y-71832700D01*
X163120000Y-90280000D02*
X160040000Y-87200000D01*
X181000000Y-67854700D02*
X184400000Y-71254700D01*
X181000000Y-65400000D02*
X181000000Y-67854700D01*
X184400000Y-72380000D02*
X184400000Y-71254700D01*
X195354000Y-97046000D02*
X194100000Y-98300000D01*
X195354000Y-76437700D02*
X195354000Y-97046000D01*
X195116000Y-76199700D02*
X195354000Y-76437700D01*
X193665100Y-76199700D02*
X195116000Y-76199700D01*
X185700000Y-68234600D02*
X193665100Y-76199700D01*
X185700000Y-68100000D02*
X185700000Y-68234600D01*
X196221100Y-100421100D02*
X194100000Y-98300000D01*
X196221100Y-133423600D02*
X196221100Y-100421100D01*
X190044700Y-139600000D02*
X196221100Y-133423600D01*
X188400000Y-139600000D02*
X190044700Y-139600000D01*
X110491600Y-139900000D02*
X102200000Y-139900000D01*
X144871600Y-105520000D02*
X110491600Y-139900000D01*
X145340000Y-105520000D02*
X144871600Y-105520000D01*
X185900000Y-139600000D02*
X185900000Y-138399700D01*
X181000000Y-73020000D02*
X181000000Y-74145300D01*
X180437300Y-74145300D02*
X181000000Y-74145300D01*
X179874700Y-74707900D02*
X180437300Y-74145300D01*
X179874700Y-77504100D02*
X179874700Y-74707900D01*
X184821800Y-82451200D02*
X179874700Y-77504100D01*
X184821800Y-95276100D02*
X184821800Y-82451200D01*
X195770700Y-106225000D02*
X184821800Y-95276100D01*
X195770700Y-130878700D02*
X195770700Y-106225000D01*
X194580700Y-132068700D02*
X195770700Y-130878700D01*
X192231000Y-132068700D02*
X194580700Y-132068700D01*
X185900000Y-138399700D02*
X192231000Y-132068700D01*
X176656500Y-104411800D02*
X184604700Y-112360000D01*
X167770200Y-104411800D02*
X176656500Y-104411800D01*
X166930000Y-105252000D02*
X167770200Y-104411800D01*
X166930000Y-105860400D02*
X166930000Y-105252000D01*
X166172400Y-106618000D02*
X166930000Y-105860400D01*
X165195700Y-106618000D02*
X166172400Y-106618000D01*
X164390000Y-105812300D02*
X165195700Y-106618000D01*
X164390000Y-104075400D02*
X164390000Y-105812300D01*
X156770000Y-96455400D02*
X164390000Y-104075400D01*
X156770000Y-90002600D02*
X156770000Y-96455400D01*
X155946600Y-89179200D02*
X156770000Y-90002600D01*
X154060800Y-89179200D02*
X155946600Y-89179200D01*
X152960000Y-90280000D02*
X154060800Y-89179200D01*
X186200000Y-112360000D02*
X184604700Y-112360000D01*
X172740000Y-79105300D02*
X177700000Y-74145300D01*
X172740000Y-85840200D02*
X172740000Y-79105300D01*
X170619600Y-87960600D02*
X172740000Y-85840200D01*
X168964200Y-87960600D02*
X170619600Y-87960600D01*
X166930000Y-89994800D02*
X168964200Y-87960600D01*
X166930000Y-90574500D02*
X166930000Y-89994800D01*
X166105800Y-91398700D02*
X166930000Y-90574500D01*
X161698700Y-91398700D02*
X166105800Y-91398700D01*
X160580000Y-90280000D02*
X161698700Y-91398700D01*
X177700000Y-73020000D02*
X177700000Y-74145300D01*
X133500000Y-127887900D02*
X133500000Y-128890000D01*
X139696400Y-121691500D02*
X133500000Y-127887900D01*
X139696400Y-119060800D02*
X139696400Y-121691500D01*
X141600500Y-117156700D02*
X139696400Y-119060800D01*
X147283600Y-117156700D02*
X141600500Y-117156700D01*
X153343400Y-111096900D02*
X147283600Y-117156700D01*
X153343400Y-106674500D02*
X153343400Y-111096900D01*
X154389300Y-105628600D02*
X153343400Y-106674500D01*
X154389300Y-91390700D02*
X154389300Y-105628600D01*
X155500000Y-90280000D02*
X154389300Y-91390700D01*
X95254700Y-128350600D02*
X96380000Y-127225300D01*
X95254700Y-129745300D02*
X95254700Y-128350600D01*
X92200000Y-132800000D02*
X95254700Y-129745300D01*
X96380000Y-126100000D02*
X96380000Y-127225300D01*
X96380000Y-122700000D02*
X96380000Y-126100000D01*
X186208600Y-127812500D02*
X186503800Y-127812500D01*
X177480000Y-119083900D02*
X186208600Y-127812500D01*
X177480000Y-115000000D02*
X177480000Y-119083900D01*
X173670000Y-111190000D02*
X177480000Y-115000000D01*
X195300400Y-129599600D02*
X194100000Y-130800000D01*
X195300400Y-121088300D02*
X195300400Y-129599600D01*
X194562100Y-120350000D02*
X195300400Y-121088300D01*
X186948300Y-120350000D02*
X194562100Y-120350000D01*
X181290000Y-114691700D02*
X186948300Y-120350000D01*
X181290000Y-111190000D02*
X181290000Y-114691700D01*
X146070000Y-85470000D02*
X137600000Y-77000000D01*
X146070000Y-85501500D02*
X146070000Y-85470000D01*
X149880000Y-70108500D02*
X153690000Y-66298500D01*
X149880000Y-85955700D02*
X149880000Y-70108500D01*
X149316300Y-86519400D02*
X149880000Y-85955700D01*
X149316300Y-104083700D02*
X149316300Y-86519400D01*
X147880000Y-105520000D02*
X149316300Y-104083700D01*
X108674700Y-69500300D02*
X109800000Y-69500300D01*
X96504000Y-81671000D02*
X108674700Y-69500300D01*
X96504000Y-105450000D02*
X96504000Y-81671000D01*
X109800000Y-68300000D02*
X109800000Y-69500300D01*
X115537100Y-97292900D02*
X115537100Y-99989800D01*
X122940000Y-89890000D02*
X115537100Y-97292900D01*
X132700000Y-72500000D02*
X137600000Y-67600000D01*
X132700000Y-94100000D02*
X132700000Y-72500000D01*
X133789800Y-100610200D02*
X132700000Y-101700000D01*
X133789800Y-74410200D02*
X133789800Y-100610200D01*
X137600000Y-70600000D02*
X133789800Y-74410200D01*
X91170000Y-118150000D02*
X91170000Y-115610000D01*
X90077200Y-114517200D02*
X91170000Y-115610000D01*
X90077200Y-96536200D02*
X90077200Y-114517200D01*
X94548100Y-92065300D02*
X90077200Y-96536200D01*
X94548100Y-81051900D02*
X94548100Y-92065300D01*
X107300000Y-68300000D02*
X94548100Y-81051900D01*
X187828500Y-113271500D02*
X186200000Y-114900000D01*
X187828500Y-111603200D02*
X187828500Y-113271500D01*
X179925300Y-103700000D02*
X187828500Y-111603200D01*
X178800000Y-103700000D02*
X179925300Y-103700000D01*
X140260000Y-90793900D02*
X135315700Y-95738200D01*
X140260000Y-90280000D02*
X140260000Y-90793900D01*
X125249500Y-108150500D02*
X126400000Y-107000000D01*
X122750500Y-108150500D02*
X125249500Y-108150500D01*
X121600000Y-107000000D02*
X122750500Y-108150500D01*
X129300000Y-117500000D02*
X129300000Y-116374700D01*
X140990000Y-71889700D02*
X140990000Y-66298500D01*
X134690400Y-78189300D02*
X140990000Y-71889700D01*
X134690400Y-104570000D02*
X134690400Y-78189300D01*
X130174500Y-109085900D02*
X134690400Y-104570000D01*
X130174500Y-115500200D02*
X130174500Y-109085900D01*
X129300000Y-116374700D02*
X130174500Y-115500200D01*
X114899200Y-76399200D02*
X113800000Y-75300000D01*
X114899200Y-104580800D02*
X114899200Y-76399200D01*
X114030000Y-105450000D02*
X114899200Y-104580800D01*
X109225300Y-82874700D02*
X109225300Y-83020000D01*
X113800000Y-78300000D02*
X109225300Y-82874700D01*
X108100000Y-83020000D02*
X109225300Y-83020000D01*
X109225300Y-113345300D02*
X109225300Y-83020000D01*
X114030000Y-118150000D02*
X109225300Y-113345300D01*
X185272200Y-80872200D02*
X184400000Y-80000000D01*
X185272200Y-91222000D02*
X185272200Y-80872200D01*
X193649900Y-99599700D02*
X185272200Y-91222000D01*
X194100000Y-99599700D02*
X193649900Y-99599700D01*
X194100000Y-100800000D02*
X194100000Y-99599700D01*
D22*
G36*
X138823699Y-65838299D02*
X138658952Y-66084861D01*
X138601100Y-66375700D01*
X138601100Y-66625466D01*
X138392370Y-66416371D01*
X137879100Y-66203243D01*
X137323339Y-66202758D01*
X136809697Y-66414990D01*
X136416371Y-66807630D01*
X136203243Y-67320900D01*
X136202758Y-67876661D01*
X136216143Y-67909055D01*
X132162599Y-71962599D01*
X131997852Y-72209161D01*
X131940000Y-72500000D01*
X131940000Y-92902469D01*
X131937200Y-92903626D01*
X131937200Y-88122400D01*
X131879348Y-87831561D01*
X131714601Y-87584999D01*
X114602468Y-70472866D01*
X114983629Y-70092370D01*
X115196757Y-69579100D01*
X115197242Y-69023339D01*
X114985010Y-68509697D01*
X114592370Y-68116371D01*
X114079100Y-67903243D01*
X113523339Y-67902758D01*
X113230008Y-68023960D01*
X113189748Y-67821561D01*
X113025001Y-67574999D01*
X111553201Y-66103199D01*
X111306639Y-65938452D01*
X111015800Y-65880600D01*
X100259400Y-65880600D01*
X99968561Y-65938452D01*
X99721999Y-66103199D01*
X98995837Y-66829361D01*
X98901675Y-66790262D01*
X98300960Y-66789738D01*
X97745771Y-67019138D01*
X97320630Y-67443537D01*
X97090262Y-67998325D01*
X97089738Y-68599040D01*
X97319138Y-69154229D01*
X97743537Y-69579370D01*
X98298325Y-69809738D01*
X98899040Y-69810262D01*
X99454229Y-69580862D01*
X99623103Y-69412283D01*
X99760910Y-69626441D01*
X99973110Y-69771431D01*
X100225000Y-69822440D01*
X101975000Y-69822440D01*
X102210317Y-69778162D01*
X102426441Y-69639090D01*
X102571431Y-69426890D01*
X102622440Y-69175000D01*
X102622440Y-68981233D01*
X102837701Y-68837401D01*
X103815402Y-67859700D01*
X105847824Y-67859700D01*
X105790262Y-67998325D01*
X105789738Y-68599040D01*
X105829625Y-68695573D01*
X94010699Y-80514499D01*
X93845952Y-80761061D01*
X93813426Y-80924581D01*
X93780862Y-80845771D01*
X93385464Y-80449682D01*
X93779370Y-80056463D01*
X94009738Y-79501675D01*
X94010262Y-78900960D01*
X93780862Y-78345771D01*
X93385464Y-77949682D01*
X93779370Y-77556463D01*
X94009738Y-77001675D01*
X94010262Y-76400960D01*
X93780862Y-75845771D01*
X93612283Y-75676897D01*
X93826441Y-75539090D01*
X93971431Y-75326890D01*
X94022440Y-75075000D01*
X94022440Y-73325000D01*
X93978162Y-73089683D01*
X93839090Y-72873559D01*
X93626890Y-72728569D01*
X93375000Y-72677560D01*
X91625000Y-72677560D01*
X91389683Y-72721838D01*
X91173559Y-72860910D01*
X91028569Y-73073110D01*
X90977560Y-73325000D01*
X90977560Y-75075000D01*
X91021838Y-75310317D01*
X91160910Y-75526441D01*
X91373110Y-75671431D01*
X91389676Y-75674786D01*
X91220630Y-75843537D01*
X90990262Y-76398325D01*
X90989738Y-76999040D01*
X91219138Y-77554229D01*
X91614536Y-77950318D01*
X91220630Y-78343537D01*
X90990262Y-78898325D01*
X90989738Y-79499040D01*
X91219138Y-80054229D01*
X91614536Y-80450318D01*
X91220630Y-80843537D01*
X90990262Y-81398325D01*
X90989738Y-81999040D01*
X91219138Y-82554229D01*
X91643537Y-82979370D01*
X92198325Y-83209738D01*
X92799040Y-83210262D01*
X93354229Y-82980862D01*
X93779370Y-82556463D01*
X93788100Y-82535439D01*
X93788100Y-89446002D01*
X93645010Y-89099697D01*
X93252370Y-88706371D01*
X92739100Y-88493243D01*
X92183339Y-88492758D01*
X91669697Y-88704990D01*
X91276371Y-89097630D01*
X91063243Y-89610900D01*
X91062758Y-90166661D01*
X91274990Y-90680303D01*
X91667630Y-91073629D01*
X92180900Y-91286757D01*
X92736661Y-91287242D01*
X93250303Y-91075010D01*
X93643629Y-90682370D01*
X93788100Y-90334445D01*
X93788100Y-91750498D01*
X89539799Y-95998799D01*
X89375052Y-96245361D01*
X89317200Y-96536200D01*
X89317200Y-114517200D01*
X89375052Y-114808039D01*
X89539799Y-115054601D01*
X89785817Y-115300619D01*
X89773243Y-115330900D01*
X89772758Y-115886661D01*
X89984990Y-116400303D01*
X90377630Y-116793629D01*
X90410000Y-116807070D01*
X90410000Y-116952469D01*
X90379697Y-116964990D01*
X89986371Y-117357630D01*
X89773243Y-117870900D01*
X89772758Y-118426661D01*
X89984990Y-118940303D01*
X90377630Y-119333629D01*
X90890900Y-119546757D01*
X91446661Y-119547242D01*
X91960303Y-119335010D01*
X92353629Y-118942370D01*
X92566757Y-118429100D01*
X92566759Y-118426661D01*
X95106758Y-118426661D01*
X95318990Y-118940303D01*
X95711630Y-119333629D01*
X96224900Y-119546757D01*
X96780661Y-119547242D01*
X97294303Y-119335010D01*
X97687629Y-118942370D01*
X97900757Y-118429100D01*
X97901242Y-117873339D01*
X97689010Y-117359697D01*
X97296370Y-116966371D01*
X96783100Y-116753243D01*
X96227339Y-116752758D01*
X95713697Y-116964990D01*
X95320371Y-117357630D01*
X95107243Y-117870900D01*
X95106758Y-118426661D01*
X92566759Y-118426661D01*
X92567242Y-117873339D01*
X92355010Y-117359697D01*
X91962370Y-116966371D01*
X91930000Y-116952930D01*
X91930000Y-116807531D01*
X91960303Y-116795010D01*
X92353629Y-116402370D01*
X92566757Y-115889100D01*
X92567242Y-115333339D01*
X92355010Y-114819697D01*
X91962370Y-114426371D01*
X91449100Y-114213243D01*
X90893339Y-114212758D01*
X90860945Y-114226143D01*
X90837200Y-114202398D01*
X90837200Y-109364459D01*
X90890900Y-109386757D01*
X91446661Y-109387242D01*
X91960303Y-109175010D01*
X92353629Y-108782370D01*
X92566757Y-108269100D01*
X92567242Y-107713339D01*
X92355010Y-107199697D01*
X91962370Y-106806371D01*
X91770273Y-106726605D01*
X91901143Y-106672397D01*
X91970608Y-106430213D01*
X91170000Y-105629605D01*
X91155858Y-105643748D01*
X90976253Y-105464143D01*
X90990395Y-105450000D01*
X91349605Y-105450000D01*
X92150213Y-106250608D01*
X92392397Y-106181143D01*
X92579144Y-105657698D01*
X92551362Y-105102632D01*
X92392397Y-104718857D01*
X92150213Y-104649392D01*
X91349605Y-105450000D01*
X90990395Y-105450000D01*
X90976253Y-105435858D01*
X91155858Y-105256253D01*
X91170000Y-105270395D01*
X91970608Y-104469787D01*
X91901143Y-104227603D01*
X91377698Y-104040856D01*
X90837200Y-104067909D01*
X90837200Y-98490213D01*
X91659392Y-98490213D01*
X91728857Y-98732397D01*
X92252302Y-98919144D01*
X92807368Y-98891362D01*
X93191143Y-98732397D01*
X93260608Y-98490213D01*
X92460000Y-97689605D01*
X91659392Y-98490213D01*
X90837200Y-98490213D01*
X90837200Y-97302302D01*
X91050856Y-97302302D01*
X91078638Y-97857368D01*
X91237603Y-98241143D01*
X91479787Y-98310608D01*
X92280395Y-97510000D01*
X92639605Y-97510000D01*
X93440213Y-98310608D01*
X93682397Y-98241143D01*
X93869144Y-97717698D01*
X93841362Y-97162632D01*
X93682397Y-96778857D01*
X93440213Y-96709392D01*
X92639605Y-97510000D01*
X92280395Y-97510000D01*
X91479787Y-96709392D01*
X91237603Y-96778857D01*
X91050856Y-97302302D01*
X90837200Y-97302302D01*
X90837200Y-96851002D01*
X91158415Y-96529787D01*
X91659392Y-96529787D01*
X92460000Y-97330395D01*
X93260608Y-96529787D01*
X93191143Y-96287603D01*
X92667698Y-96100856D01*
X92112632Y-96128638D01*
X91728857Y-96287603D01*
X91659392Y-96529787D01*
X91158415Y-96529787D01*
X95085501Y-92602701D01*
X95250248Y-92356140D01*
X95259846Y-92307886D01*
X95308100Y-92065300D01*
X95308100Y-81366702D01*
X106904163Y-69770639D01*
X106998325Y-69809738D01*
X107290205Y-69809993D01*
X95966599Y-81133599D01*
X95801852Y-81380161D01*
X95744000Y-81671000D01*
X95744000Y-104252469D01*
X95713697Y-104264990D01*
X95320371Y-104657630D01*
X95107243Y-105170900D01*
X95106758Y-105726661D01*
X95318990Y-106240303D01*
X95711630Y-106633629D01*
X96224900Y-106846757D01*
X96780661Y-106847242D01*
X97294303Y-106635010D01*
X97687629Y-106242370D01*
X97900757Y-105729100D01*
X97901242Y-105173339D01*
X97689010Y-104659697D01*
X97296370Y-104266371D01*
X97264000Y-104252930D01*
X97264000Y-83369041D01*
X103008086Y-83369041D01*
X103247611Y-83875134D01*
X103662577Y-84251041D01*
X104050961Y-84411904D01*
X104273000Y-84289915D01*
X104273000Y-83147000D01*
X104527000Y-83147000D01*
X104527000Y-84289915D01*
X104749039Y-84411904D01*
X105137423Y-84251041D01*
X105552389Y-83875134D01*
X105791914Y-83369041D01*
X105670629Y-83147000D01*
X104527000Y-83147000D01*
X104273000Y-83147000D01*
X103129371Y-83147000D01*
X103008086Y-83369041D01*
X97264000Y-83369041D01*
X97264000Y-82670959D01*
X103008086Y-82670959D01*
X103129371Y-82893000D01*
X104273000Y-82893000D01*
X104273000Y-81750085D01*
X104527000Y-81750085D01*
X104527000Y-82893000D01*
X105670629Y-82893000D01*
X105791914Y-82670959D01*
X105552389Y-82164866D01*
X105137423Y-81788959D01*
X104749039Y-81628096D01*
X104527000Y-81750085D01*
X104273000Y-81750085D01*
X104050961Y-81628096D01*
X103662577Y-81788959D01*
X103247611Y-82164866D01*
X103008086Y-82670959D01*
X97264000Y-82670959D01*
X97264000Y-81985802D01*
X103140433Y-76109369D01*
X103182757Y-76211800D01*
X103586077Y-76615824D01*
X104113309Y-76834750D01*
X104684187Y-76835248D01*
X105211800Y-76617243D01*
X105615824Y-76213923D01*
X105834750Y-75686691D01*
X105834752Y-75684187D01*
X106664752Y-75684187D01*
X106882757Y-76211800D01*
X107286077Y-76615824D01*
X107813309Y-76834750D01*
X108384187Y-76835248D01*
X108911800Y-76617243D01*
X109315824Y-76213923D01*
X109534750Y-75686691D01*
X109535248Y-75115813D01*
X109317243Y-74588200D01*
X108913923Y-74184176D01*
X108386691Y-73965250D01*
X107815813Y-73964752D01*
X107288200Y-74182757D01*
X106884176Y-74586077D01*
X106665250Y-75113309D01*
X106664752Y-75684187D01*
X105834752Y-75684187D01*
X105835248Y-75115813D01*
X105617243Y-74588200D01*
X105213923Y-74184176D01*
X105109137Y-74140665D01*
X108989502Y-70260300D01*
X109800000Y-70260300D01*
X110090839Y-70202448D01*
X110255800Y-70092225D01*
X110255800Y-71103400D01*
X110313652Y-71394239D01*
X110478399Y-71640801D01*
X112981118Y-74143520D01*
X112616371Y-74507630D01*
X112403243Y-75020900D01*
X112402758Y-75576661D01*
X112614990Y-76090303D01*
X113007630Y-76483629D01*
X113520900Y-76696757D01*
X114076661Y-76697242D01*
X114109055Y-76683857D01*
X114139200Y-76714002D01*
X114139200Y-76928199D01*
X114079100Y-76903243D01*
X113523339Y-76902758D01*
X113009697Y-77114990D01*
X112616371Y-77507630D01*
X112403243Y-78020900D01*
X112402758Y-78576661D01*
X112416143Y-78609055D01*
X109074721Y-81950477D01*
X108649151Y-81666120D01*
X108100000Y-81556887D01*
X107550849Y-81666120D01*
X107085302Y-81977189D01*
X106774233Y-82442736D01*
X106665000Y-82991887D01*
X106665000Y-83048113D01*
X106774233Y-83597264D01*
X107085302Y-84062811D01*
X107550849Y-84373880D01*
X108100000Y-84483113D01*
X108465300Y-84410450D01*
X108465300Y-113345300D01*
X108523152Y-113636139D01*
X108687899Y-113882701D01*
X112645817Y-117840619D01*
X112633243Y-117870900D01*
X112632758Y-118426661D01*
X112844990Y-118940303D01*
X113237630Y-119333629D01*
X113750900Y-119546757D01*
X114306661Y-119547242D01*
X114820303Y-119335010D01*
X115213629Y-118942370D01*
X115426757Y-118429100D01*
X115427242Y-117873339D01*
X115215010Y-117359697D01*
X114822370Y-116966371D01*
X114309100Y-116753243D01*
X113753339Y-116752758D01*
X113720945Y-116766143D01*
X109985300Y-113030498D01*
X109985300Y-110800000D01*
X121952560Y-110800000D01*
X121952560Y-112400000D01*
X121996838Y-112635317D01*
X122135910Y-112851441D01*
X122348110Y-112996431D01*
X122600000Y-113047440D01*
X124200000Y-113047440D01*
X124435317Y-113003162D01*
X124651441Y-112864090D01*
X124662685Y-112847634D01*
X125113309Y-113034750D01*
X125684187Y-113035248D01*
X126211800Y-112817243D01*
X126615824Y-112413923D01*
X126834750Y-111886691D01*
X126835248Y-111315813D01*
X126617243Y-110788200D01*
X126213923Y-110384176D01*
X125686691Y-110165250D01*
X125115813Y-110164752D01*
X124665534Y-110350803D01*
X124664090Y-110348559D01*
X124451890Y-110203569D01*
X124200000Y-110152560D01*
X122600000Y-110152560D01*
X122364683Y-110196838D01*
X122148559Y-110335910D01*
X122003569Y-110548110D01*
X121952560Y-110800000D01*
X109985300Y-110800000D01*
X109985300Y-83189502D01*
X113490619Y-79684183D01*
X113520900Y-79696757D01*
X114076661Y-79697242D01*
X114139200Y-79671401D01*
X114139200Y-104053095D01*
X113753339Y-104052758D01*
X113239697Y-104264990D01*
X112846371Y-104657630D01*
X112633243Y-105170900D01*
X112632758Y-105726661D01*
X112844990Y-106240303D01*
X113237630Y-106633629D01*
X113750900Y-106846757D01*
X114306661Y-106847242D01*
X114820303Y-106635010D01*
X115213629Y-106242370D01*
X115426757Y-105729100D01*
X115427242Y-105173339D01*
X115413857Y-105140945D01*
X115436601Y-105118201D01*
X115601348Y-104871640D01*
X115612047Y-104817852D01*
X115659200Y-104580800D01*
X115659200Y-100924907D01*
X115722267Y-100924962D01*
X116066043Y-100782917D01*
X116329292Y-100520127D01*
X116471938Y-100176599D01*
X116472262Y-99804633D01*
X116330217Y-99460857D01*
X116297100Y-99427682D01*
X116297100Y-98490213D01*
X122139392Y-98490213D01*
X122208857Y-98732397D01*
X122732302Y-98919144D01*
X123287368Y-98891362D01*
X123671143Y-98732397D01*
X123740608Y-98490213D01*
X122940000Y-97689605D01*
X122139392Y-98490213D01*
X116297100Y-98490213D01*
X116297100Y-97607702D01*
X116602500Y-97302302D01*
X121530856Y-97302302D01*
X121558638Y-97857368D01*
X121717603Y-98241143D01*
X121959787Y-98310608D01*
X122760395Y-97510000D01*
X123119605Y-97510000D01*
X123920213Y-98310608D01*
X124162397Y-98241143D01*
X124349144Y-97717698D01*
X124321362Y-97162632D01*
X124162397Y-96778857D01*
X123920213Y-96709392D01*
X123119605Y-97510000D01*
X122760395Y-97510000D01*
X121959787Y-96709392D01*
X121717603Y-96778857D01*
X121530856Y-97302302D01*
X116602500Y-97302302D01*
X117375015Y-96529787D01*
X122139392Y-96529787D01*
X122940000Y-97330395D01*
X123740608Y-96529787D01*
X123671143Y-96287603D01*
X123147698Y-96100856D01*
X122592632Y-96128638D01*
X122208857Y-96287603D01*
X122139392Y-96529787D01*
X117375015Y-96529787D01*
X122630619Y-91274183D01*
X122660900Y-91286757D01*
X123216661Y-91287242D01*
X123730303Y-91075010D01*
X124123629Y-90682370D01*
X124336757Y-90169100D01*
X124337242Y-89613339D01*
X124125010Y-89099697D01*
X123732370Y-88706371D01*
X123219100Y-88493243D01*
X122663339Y-88492758D01*
X122149697Y-88704990D01*
X121756371Y-89097630D01*
X121543243Y-89610900D01*
X121542758Y-90166661D01*
X121556143Y-90199055D01*
X115659200Y-96095998D01*
X115659200Y-76678602D01*
X126949600Y-87969002D01*
X126949600Y-105674419D01*
X126686691Y-105565250D01*
X126115813Y-105564752D01*
X125588200Y-105782757D01*
X125249764Y-106120603D01*
X124913923Y-105784176D01*
X124386691Y-105565250D01*
X123815813Y-105564752D01*
X123288200Y-105782757D01*
X122884176Y-106186077D01*
X122850187Y-106267931D01*
X122817243Y-106188200D01*
X122413923Y-105784176D01*
X121886691Y-105565250D01*
X121315813Y-105564752D01*
X120788200Y-105782757D01*
X120384176Y-106186077D01*
X120165250Y-106713309D01*
X120164752Y-107284187D01*
X120382757Y-107811800D01*
X120786077Y-108215824D01*
X121313309Y-108434750D01*
X121884187Y-108435248D01*
X121938149Y-108412951D01*
X122213099Y-108687901D01*
X122459661Y-108852648D01*
X122750500Y-108910500D01*
X125249500Y-108910500D01*
X125540339Y-108852648D01*
X125786901Y-108687901D01*
X126061546Y-108413256D01*
X126113309Y-108434750D01*
X126684187Y-108435248D01*
X126949600Y-108325582D01*
X126949600Y-116520737D01*
X126917408Y-116552873D01*
X126774762Y-116896401D01*
X126774612Y-117069062D01*
X126617243Y-116688200D01*
X126213923Y-116284176D01*
X125686691Y-116065250D01*
X125115813Y-116064752D01*
X124665534Y-116250803D01*
X124664090Y-116248559D01*
X124451890Y-116103569D01*
X124200000Y-116052560D01*
X122600000Y-116052560D01*
X122364683Y-116096838D01*
X122148559Y-116235910D01*
X122003569Y-116448110D01*
X121952560Y-116700000D01*
X121952560Y-118300000D01*
X121996838Y-118535317D01*
X122135910Y-118751441D01*
X122348110Y-118896431D01*
X122600000Y-118947440D01*
X124200000Y-118947440D01*
X124435317Y-118903162D01*
X124651441Y-118764090D01*
X124662685Y-118747634D01*
X125113309Y-118934750D01*
X125684187Y-118935248D01*
X125738149Y-118912951D01*
X125987999Y-119162801D01*
X126234561Y-119327548D01*
X126525400Y-119385400D01*
X129931398Y-119385400D01*
X110176798Y-139140000D01*
X103519797Y-139140000D01*
X103480862Y-139045771D01*
X103056463Y-138620630D01*
X102501675Y-138390262D01*
X101900960Y-138389738D01*
X101345771Y-138619138D01*
X101167797Y-138796802D01*
X101113327Y-138665301D01*
X100934698Y-138486673D01*
X100701309Y-138390000D01*
X99985750Y-138390000D01*
X99827000Y-138548750D01*
X99827000Y-139773000D01*
X99847000Y-139773000D01*
X99847000Y-140027000D01*
X99827000Y-140027000D01*
X99827000Y-141251250D01*
X99985750Y-141410000D01*
X100701309Y-141410000D01*
X100934698Y-141313327D01*
X101113327Y-141134699D01*
X101167760Y-141003286D01*
X101343537Y-141179370D01*
X101898325Y-141409738D01*
X102499040Y-141410262D01*
X103054229Y-141180862D01*
X103479370Y-140756463D01*
X103519425Y-140660000D01*
X110491600Y-140660000D01*
X110782439Y-140602148D01*
X111029001Y-140437401D01*
X133652560Y-117813842D01*
X133652560Y-118300000D01*
X133696838Y-118535317D01*
X133835910Y-118751441D01*
X134048110Y-118896431D01*
X134300000Y-118947440D01*
X135900000Y-118947440D01*
X136135317Y-118903162D01*
X136351441Y-118764090D01*
X136362685Y-118747634D01*
X136514659Y-118810739D01*
X136354699Y-118970699D01*
X136189952Y-119217261D01*
X136132100Y-119508100D01*
X136132100Y-121649998D01*
X134707638Y-123074460D01*
X134685010Y-123019697D01*
X134292370Y-122626371D01*
X133779100Y-122413243D01*
X133223339Y-122412758D01*
X132709697Y-122624990D01*
X132316371Y-123017630D01*
X132103243Y-123530900D01*
X132102758Y-124086661D01*
X132314990Y-124600303D01*
X132443380Y-124728918D01*
X131859899Y-125312399D01*
X131695152Y-125558961D01*
X131637300Y-125849800D01*
X131637300Y-140487300D01*
X131695152Y-140778139D01*
X131859899Y-141024701D01*
X132115817Y-141280619D01*
X132103243Y-141310900D01*
X132102758Y-141866661D01*
X132314990Y-142380303D01*
X132707630Y-142773629D01*
X133220900Y-142986757D01*
X133776661Y-142987242D01*
X134290303Y-142775010D01*
X134683629Y-142382370D01*
X134896757Y-141869100D01*
X134897242Y-141313339D01*
X134685010Y-140799697D01*
X134292370Y-140406371D01*
X134100273Y-140326605D01*
X134231143Y-140272397D01*
X134300608Y-140030213D01*
X133500000Y-139229605D01*
X133485858Y-139243748D01*
X133306253Y-139064143D01*
X133320395Y-139050000D01*
X133679605Y-139050000D01*
X134480213Y-139850608D01*
X134722397Y-139781143D01*
X134909144Y-139257698D01*
X134881362Y-138702632D01*
X134869375Y-138673691D01*
X136365000Y-138673691D01*
X136365000Y-139314250D01*
X136523750Y-139473000D01*
X137673000Y-139473000D01*
X137673000Y-138323750D01*
X137927000Y-138323750D01*
X137927000Y-139473000D01*
X139076250Y-139473000D01*
X139235000Y-139314250D01*
X139235000Y-138942302D01*
X179324856Y-138942302D01*
X179352638Y-139497368D01*
X179511603Y-139881143D01*
X179753787Y-139950608D01*
X180554395Y-139150000D01*
X180913605Y-139150000D01*
X181714213Y-139950608D01*
X181956397Y-139881143D01*
X182143144Y-139357698D01*
X182115362Y-138802632D01*
X181956397Y-138418857D01*
X181714213Y-138349392D01*
X180913605Y-139150000D01*
X180554395Y-139150000D01*
X179753787Y-138349392D01*
X179511603Y-138418857D01*
X179324856Y-138942302D01*
X139235000Y-138942302D01*
X139235000Y-138673691D01*
X139138327Y-138440302D01*
X138959699Y-138261673D01*
X138726310Y-138165000D01*
X138085750Y-138165000D01*
X137927000Y-138323750D01*
X137673000Y-138323750D01*
X137514250Y-138165000D01*
X136873690Y-138165000D01*
X136640301Y-138261673D01*
X136461673Y-138440302D01*
X136365000Y-138673691D01*
X134869375Y-138673691D01*
X134722397Y-138318857D01*
X134480213Y-138249392D01*
X133679605Y-139050000D01*
X133320395Y-139050000D01*
X133306253Y-139035858D01*
X133485858Y-138856253D01*
X133500000Y-138870395D01*
X134300608Y-138069787D01*
X134231143Y-137827603D01*
X134090682Y-137777491D01*
X134290303Y-137695010D01*
X134683629Y-137302370D01*
X134896757Y-136789100D01*
X134897185Y-136298972D01*
X135144866Y-136572389D01*
X135650959Y-136811914D01*
X135873000Y-136690629D01*
X135873000Y-135547000D01*
X136127000Y-135547000D01*
X136127000Y-136690629D01*
X136349041Y-136811914D01*
X136855134Y-136572389D01*
X137231041Y-136157423D01*
X137391904Y-135769039D01*
X137269915Y-135547000D01*
X136127000Y-135547000D01*
X135873000Y-135547000D01*
X134730085Y-135547000D01*
X134652885Y-135687516D01*
X134292370Y-135326371D01*
X134084488Y-135240051D01*
X134290303Y-135155010D01*
X134683629Y-134762370D01*
X134896757Y-134249100D01*
X134897185Y-133758972D01*
X135144866Y-134032389D01*
X135393367Y-134150000D01*
X135144866Y-134267611D01*
X134768959Y-134682577D01*
X134608096Y-135070961D01*
X134730085Y-135293000D01*
X135873000Y-135293000D01*
X135873000Y-133007000D01*
X136127000Y-133007000D01*
X136127000Y-135293000D01*
X137269915Y-135293000D01*
X137391904Y-135070961D01*
X137231041Y-134682577D01*
X136855134Y-134267611D01*
X136606633Y-134150000D01*
X136855134Y-134032389D01*
X137231041Y-133617423D01*
X137391904Y-133229039D01*
X137269915Y-133007000D01*
X136127000Y-133007000D01*
X135873000Y-133007000D01*
X134730085Y-133007000D01*
X134652885Y-133147516D01*
X134292370Y-132786371D01*
X134084488Y-132700051D01*
X134290303Y-132615010D01*
X134683629Y-132222370D01*
X134896757Y-131709100D01*
X134897185Y-131218972D01*
X135144866Y-131492389D01*
X135393367Y-131610000D01*
X135144866Y-131727611D01*
X134768959Y-132142577D01*
X134608096Y-132530961D01*
X134730085Y-132753000D01*
X135873000Y-132753000D01*
X135873000Y-130467000D01*
X136127000Y-130467000D01*
X136127000Y-132753000D01*
X137269915Y-132753000D01*
X137391904Y-132530961D01*
X137231041Y-132142577D01*
X136855134Y-131727611D01*
X136606633Y-131610000D01*
X136855134Y-131492389D01*
X137231041Y-131077423D01*
X137391904Y-130689039D01*
X137269915Y-130467000D01*
X136127000Y-130467000D01*
X135873000Y-130467000D01*
X134730085Y-130467000D01*
X134652885Y-130607516D01*
X134292370Y-130246371D01*
X134084488Y-130160051D01*
X134290303Y-130075010D01*
X134683629Y-129682370D01*
X134896757Y-129169100D01*
X134896763Y-129161714D01*
X135073691Y-129235000D01*
X135101938Y-129235000D01*
X134768959Y-129602577D01*
X134608096Y-129990961D01*
X134730085Y-130213000D01*
X135873000Y-130213000D01*
X135873000Y-127927000D01*
X136127000Y-127927000D01*
X136127000Y-130213000D01*
X137269915Y-130213000D01*
X137391904Y-129990961D01*
X137231041Y-129602577D01*
X136898062Y-129235000D01*
X136926309Y-129235000D01*
X137159698Y-129138327D01*
X137338327Y-128959699D01*
X137435000Y-128726310D01*
X137435000Y-128085750D01*
X137276250Y-127927000D01*
X136127000Y-127927000D01*
X135873000Y-127927000D01*
X135853000Y-127927000D01*
X135853000Y-127673000D01*
X135873000Y-127673000D01*
X135873000Y-127653000D01*
X136127000Y-127653000D01*
X136127000Y-127673000D01*
X137276250Y-127673000D01*
X137435000Y-127514250D01*
X137435000Y-126873690D01*
X137338327Y-126640301D01*
X137159698Y-126461673D01*
X136926309Y-126365000D01*
X136285750Y-126365000D01*
X136127002Y-126523748D01*
X136127002Y-126365000D01*
X136097702Y-126365000D01*
X140233801Y-122228901D01*
X140398548Y-121982339D01*
X140456400Y-121691500D01*
X140456400Y-119521750D01*
X140827630Y-119893629D01*
X141340900Y-120106757D01*
X141896661Y-120107242D01*
X142410303Y-119895010D01*
X142803629Y-119502370D01*
X142889949Y-119294488D01*
X142974990Y-119500303D01*
X143367630Y-119893629D01*
X143880900Y-120106757D01*
X144436661Y-120107242D01*
X144950303Y-119895010D01*
X145343629Y-119502370D01*
X145429949Y-119294488D01*
X145514990Y-119500303D01*
X145907630Y-119893629D01*
X146420900Y-120106757D01*
X146976661Y-120107242D01*
X147490303Y-119895010D01*
X147883629Y-119502370D01*
X147969949Y-119294488D01*
X148054990Y-119500303D01*
X148447630Y-119893629D01*
X148960900Y-120106757D01*
X149516661Y-120107242D01*
X150030303Y-119895010D01*
X150235457Y-119690213D01*
X150979392Y-119690213D01*
X151048857Y-119932397D01*
X151572302Y-120119144D01*
X152127368Y-120091362D01*
X152511143Y-119932397D01*
X152580608Y-119690213D01*
X151780000Y-118889605D01*
X150979392Y-119690213D01*
X150235457Y-119690213D01*
X150423629Y-119502370D01*
X150503395Y-119310273D01*
X150557603Y-119441143D01*
X150799787Y-119510608D01*
X151600395Y-118710000D01*
X151959605Y-118710000D01*
X152760213Y-119510608D01*
X153002397Y-119441143D01*
X153189144Y-118917698D01*
X153161362Y-118362632D01*
X153002397Y-117978857D01*
X152760213Y-117909392D01*
X151959605Y-118710000D01*
X151600395Y-118710000D01*
X150799787Y-117909392D01*
X150557603Y-117978857D01*
X150507491Y-118119318D01*
X150425010Y-117919697D01*
X150235432Y-117729787D01*
X150979392Y-117729787D01*
X151780000Y-118530395D01*
X152580608Y-117729787D01*
X152511143Y-117487603D01*
X151987698Y-117300856D01*
X151432632Y-117328638D01*
X151048857Y-117487603D01*
X150979392Y-117729787D01*
X150235432Y-117729787D01*
X150032370Y-117526371D01*
X149519100Y-117313243D01*
X148963339Y-117312758D01*
X148449697Y-117524990D01*
X148056371Y-117917630D01*
X147970051Y-118125512D01*
X147885010Y-117919697D01*
X147724305Y-117758711D01*
X147821001Y-117694101D01*
X153191100Y-112324002D01*
X153191100Y-121342098D01*
X144874348Y-129658850D01*
X144851041Y-129602577D01*
X144475134Y-129187611D01*
X144258297Y-129084986D01*
X144662811Y-128814698D01*
X144973880Y-128349151D01*
X145083113Y-127800000D01*
X144973880Y-127250849D01*
X144662811Y-126785302D01*
X144197264Y-126474233D01*
X143648113Y-126365000D01*
X143591887Y-126365000D01*
X143042736Y-126474233D01*
X142577189Y-126785302D01*
X142266120Y-127250849D01*
X142156887Y-127800000D01*
X142266120Y-128349151D01*
X142577189Y-128814698D01*
X142981703Y-129084986D01*
X142764866Y-129187611D01*
X142388959Y-129602577D01*
X142228096Y-129990961D01*
X142350085Y-130213000D01*
X143493000Y-130213000D01*
X143493000Y-130193000D01*
X143747000Y-130193000D01*
X143747000Y-130213000D01*
X143767000Y-130213000D01*
X143767000Y-130467000D01*
X143747000Y-130467000D01*
X143747000Y-130487000D01*
X143493000Y-130487000D01*
X143493000Y-130467000D01*
X142350085Y-130467000D01*
X142228096Y-130689039D01*
X142388959Y-131077423D01*
X142563547Y-131270151D01*
X141957299Y-131876399D01*
X141792552Y-132122961D01*
X141734700Y-132413800D01*
X141734700Y-133346200D01*
X141792552Y-133637039D01*
X141957299Y-133883601D01*
X142537860Y-134464162D01*
X142266120Y-134870849D01*
X142156887Y-135420000D01*
X142266120Y-135969151D01*
X142577189Y-136434698D01*
X143042736Y-136745767D01*
X143591887Y-136855000D01*
X143648113Y-136855000D01*
X144197264Y-136745767D01*
X144662811Y-136434698D01*
X144973880Y-135969151D01*
X145083113Y-135420000D01*
X144973880Y-134870849D01*
X144946586Y-134830000D01*
X179536469Y-134830000D01*
X179548990Y-134860303D01*
X179941630Y-135253629D01*
X180149512Y-135339949D01*
X179943697Y-135424990D01*
X179550371Y-135817630D01*
X179337243Y-136330900D01*
X179336758Y-136886661D01*
X179548990Y-137400303D01*
X179941630Y-137793629D01*
X180133727Y-137873395D01*
X180002857Y-137927603D01*
X179933392Y-138169787D01*
X180734000Y-138970395D01*
X181534608Y-138169787D01*
X181465143Y-137927603D01*
X181324682Y-137877491D01*
X181524303Y-137795010D01*
X181917629Y-137402370D01*
X182130757Y-136889100D01*
X182131242Y-136333339D01*
X181919010Y-135819697D01*
X181526370Y-135426371D01*
X181318488Y-135340051D01*
X181524303Y-135255010D01*
X181917629Y-134862370D01*
X181931070Y-134830000D01*
X182929700Y-134830000D01*
X183220539Y-134772148D01*
X183467101Y-134607401D01*
X192716726Y-125357776D01*
X192760910Y-125426441D01*
X192973110Y-125571431D01*
X193225000Y-125622440D01*
X194540400Y-125622440D01*
X194540400Y-129284798D01*
X194495837Y-129329361D01*
X194401675Y-129290262D01*
X193800960Y-129289738D01*
X193245771Y-129519138D01*
X192820630Y-129943537D01*
X192590262Y-130498325D01*
X192589738Y-131099040D01*
X192676368Y-131308700D01*
X192231000Y-131308700D01*
X191940161Y-131366552D01*
X191693599Y-131531299D01*
X185362599Y-137862299D01*
X185218767Y-138077560D01*
X185025000Y-138077560D01*
X184789683Y-138121838D01*
X184573559Y-138260910D01*
X184428569Y-138473110D01*
X184377560Y-138725000D01*
X184377560Y-140475000D01*
X184421838Y-140710317D01*
X184560910Y-140926441D01*
X184773110Y-141071431D01*
X185025000Y-141122440D01*
X186775000Y-141122440D01*
X187010317Y-141078162D01*
X187226441Y-140939090D01*
X187371431Y-140726890D01*
X187374786Y-140710324D01*
X187543537Y-140879370D01*
X188098325Y-141109738D01*
X188699040Y-141110262D01*
X189254229Y-140880862D01*
X189635756Y-140500000D01*
X192490000Y-140500000D01*
X192665838Y-141383999D01*
X193166583Y-142133417D01*
X193916001Y-142634162D01*
X194800000Y-142810000D01*
X195683999Y-142634162D01*
X196433417Y-142133417D01*
X196934162Y-141383999D01*
X197110000Y-140500000D01*
X196934162Y-139616001D01*
X196433417Y-138866583D01*
X195683999Y-138365838D01*
X194800000Y-138190000D01*
X193916001Y-138365838D01*
X193166583Y-138866583D01*
X192665838Y-139616001D01*
X192490000Y-140500000D01*
X189635756Y-140500000D01*
X189679370Y-140456463D01*
X189719425Y-140360000D01*
X190044700Y-140360000D01*
X190335539Y-140302148D01*
X190582101Y-140137401D01*
X196758501Y-133961001D01*
X196923248Y-133714439D01*
X196981100Y-133423600D01*
X196981100Y-100421100D01*
X196923248Y-100130261D01*
X196923248Y-100130260D01*
X196758501Y-99883699D01*
X195570639Y-98695837D01*
X195609738Y-98601675D01*
X195610262Y-98000960D01*
X195570375Y-97904427D01*
X195891401Y-97583401D01*
X196056148Y-97336839D01*
X196114000Y-97046000D01*
X196114000Y-76437700D01*
X196056148Y-76146861D01*
X195891401Y-75900299D01*
X195653401Y-75662299D01*
X195469495Y-75539417D01*
X195609738Y-75201675D01*
X195610262Y-74600960D01*
X195380862Y-74045771D01*
X194956463Y-73620630D01*
X194401675Y-73390262D01*
X193800960Y-73389738D01*
X193245771Y-73619138D01*
X192820630Y-74043537D01*
X192751125Y-74210923D01*
X188162642Y-69622440D01*
X189075000Y-69622440D01*
X189310317Y-69578162D01*
X189526441Y-69439090D01*
X189671431Y-69226890D01*
X189722440Y-68975000D01*
X189722440Y-67500000D01*
X192390000Y-67500000D01*
X192565838Y-68383999D01*
X193066583Y-69133417D01*
X193816001Y-69634162D01*
X194700000Y-69810000D01*
X195583999Y-69634162D01*
X196333417Y-69133417D01*
X196834162Y-68383999D01*
X197010000Y-67500000D01*
X196834162Y-66616001D01*
X196333417Y-65866583D01*
X195583999Y-65365838D01*
X194700000Y-65190000D01*
X193816001Y-65365838D01*
X193066583Y-65866583D01*
X192565838Y-66616001D01*
X192390000Y-67500000D01*
X189722440Y-67500000D01*
X189722440Y-67225000D01*
X189678162Y-66989683D01*
X189539090Y-66773559D01*
X189326890Y-66628569D01*
X189075000Y-66577560D01*
X187325000Y-66577560D01*
X187089683Y-66621838D01*
X186873559Y-66760910D01*
X186728569Y-66973110D01*
X186725214Y-66989676D01*
X186556463Y-66820630D01*
X186001675Y-66590262D01*
X185400960Y-66589738D01*
X184845771Y-66819138D01*
X184420630Y-67243537D01*
X184190262Y-67798325D01*
X184189738Y-68399040D01*
X184419138Y-68954229D01*
X184843537Y-69379370D01*
X185398325Y-69609738D01*
X185999040Y-69610262D01*
X186000328Y-69609730D01*
X192642833Y-76252235D01*
X192628569Y-76273110D01*
X192577560Y-76525000D01*
X192577560Y-78275000D01*
X192621838Y-78510317D01*
X192760910Y-78726441D01*
X192973110Y-78871431D01*
X193225000Y-78922440D01*
X194594000Y-78922440D01*
X194594000Y-82670122D01*
X194401675Y-82590262D01*
X193800960Y-82589738D01*
X193245771Y-82819138D01*
X192820630Y-83243537D01*
X192590262Y-83798325D01*
X192589738Y-84399040D01*
X192819138Y-84954229D01*
X193214536Y-85350318D01*
X192820630Y-85743537D01*
X192780575Y-85840000D01*
X188544000Y-85840000D01*
X188253160Y-85897852D01*
X188006599Y-86062599D01*
X187519460Y-86549738D01*
X187451890Y-86503569D01*
X187200000Y-86452560D01*
X186032200Y-86452560D01*
X186032200Y-80872200D01*
X185974348Y-80581361D01*
X185812791Y-80339574D01*
X185834750Y-80286691D01*
X185835248Y-79715813D01*
X185617243Y-79188200D01*
X185213923Y-78784176D01*
X184686691Y-78565250D01*
X184115813Y-78564752D01*
X183588200Y-78782757D01*
X183184176Y-79186077D01*
X183022012Y-79576610D01*
X180634700Y-77189298D01*
X180634700Y-76702109D01*
X180713309Y-76734750D01*
X181284187Y-76735248D01*
X181811800Y-76517243D01*
X182215824Y-76113923D01*
X182434750Y-75586691D01*
X182435248Y-75015813D01*
X182217243Y-74488200D01*
X181881464Y-74151835D01*
X182014698Y-74062811D01*
X182325767Y-73597264D01*
X182435000Y-73048113D01*
X182435000Y-72991887D01*
X182325767Y-72442736D01*
X182014698Y-71977189D01*
X181549151Y-71666120D01*
X181000000Y-71556887D01*
X180450849Y-71666120D01*
X179985302Y-71977189D01*
X179674233Y-72442736D01*
X179591800Y-72857154D01*
X179591800Y-71120300D01*
X179533948Y-70829461D01*
X179369201Y-70582899D01*
X175394183Y-66607881D01*
X175406757Y-66577600D01*
X175407242Y-66021839D01*
X175195010Y-65508197D01*
X174802370Y-65114871D01*
X174289100Y-64901743D01*
X173733339Y-64901258D01*
X173219697Y-65113490D01*
X172826371Y-65506130D01*
X172746605Y-65698227D01*
X172692397Y-65567357D01*
X172450213Y-65497892D01*
X171649605Y-66298500D01*
X172450213Y-67099108D01*
X172692397Y-67029643D01*
X172742509Y-66889182D01*
X172824990Y-67088803D01*
X173217630Y-67482129D01*
X173730900Y-67695257D01*
X174286661Y-67695742D01*
X174319055Y-67682357D01*
X178071800Y-71435102D01*
X178071800Y-71630843D01*
X177700000Y-71556887D01*
X177150849Y-71666120D01*
X176685302Y-71977189D01*
X176374233Y-72442736D01*
X176265000Y-72991887D01*
X176265000Y-73048113D01*
X176374233Y-73597264D01*
X176685302Y-74062811D01*
X176698721Y-74071777D01*
X172202599Y-78567899D01*
X172037852Y-78814461D01*
X171980000Y-79105300D01*
X171980000Y-84200207D01*
X171677698Y-84092356D01*
X171122632Y-84120138D01*
X170738857Y-84279103D01*
X170669392Y-84521287D01*
X171470000Y-85321895D01*
X171484143Y-85307753D01*
X171663748Y-85487358D01*
X171649605Y-85501500D01*
X171663748Y-85515643D01*
X171484143Y-85695248D01*
X171470000Y-85681105D01*
X170669392Y-86481713D01*
X170738857Y-86723897D01*
X170770288Y-86735110D01*
X170304798Y-87200600D01*
X168964200Y-87200600D01*
X168673360Y-87258452D01*
X168426799Y-87423199D01*
X166620421Y-89229577D01*
X166575618Y-89184774D01*
X166460607Y-89299785D01*
X166391143Y-89057603D01*
X165867698Y-88870856D01*
X165312632Y-88898638D01*
X164928857Y-89057603D01*
X164859392Y-89299787D01*
X165660000Y-90100395D01*
X165674143Y-90086253D01*
X165853748Y-90265858D01*
X165839605Y-90280000D01*
X165853748Y-90294143D01*
X165674143Y-90473748D01*
X165660000Y-90459605D01*
X165645858Y-90473748D01*
X165466253Y-90294143D01*
X165480395Y-90280000D01*
X164679787Y-89479392D01*
X164437603Y-89548857D01*
X164387491Y-89689318D01*
X164305010Y-89489697D01*
X163912370Y-89096371D01*
X163399100Y-88883243D01*
X162843339Y-88882758D01*
X162810945Y-88896143D01*
X160800000Y-86885198D01*
X160800000Y-86802379D01*
X161030900Y-86898257D01*
X161586661Y-86898742D01*
X162100303Y-86686510D01*
X162493629Y-86293870D01*
X162579949Y-86085988D01*
X162664990Y-86291803D01*
X163057630Y-86685129D01*
X163570900Y-86898257D01*
X164126661Y-86898742D01*
X164640303Y-86686510D01*
X165033629Y-86293870D01*
X165119949Y-86085988D01*
X165204990Y-86291803D01*
X165597630Y-86685129D01*
X166110900Y-86898257D01*
X166666661Y-86898742D01*
X167180303Y-86686510D01*
X167385457Y-86481713D01*
X168129392Y-86481713D01*
X168198857Y-86723897D01*
X168722302Y-86910644D01*
X169277368Y-86882862D01*
X169661143Y-86723897D01*
X169730608Y-86481713D01*
X168930000Y-85681105D01*
X168129392Y-86481713D01*
X167385457Y-86481713D01*
X167573629Y-86293870D01*
X167653395Y-86101773D01*
X167707603Y-86232643D01*
X167949787Y-86302108D01*
X168750395Y-85501500D01*
X169109605Y-85501500D01*
X169910213Y-86302108D01*
X170152397Y-86232643D01*
X170196453Y-86109156D01*
X170247603Y-86232643D01*
X170489787Y-86302108D01*
X171290395Y-85501500D01*
X170489787Y-84700892D01*
X170247603Y-84770357D01*
X170203547Y-84893844D01*
X170152397Y-84770357D01*
X169910213Y-84700892D01*
X169109605Y-85501500D01*
X168750395Y-85501500D01*
X167949787Y-84700892D01*
X167707603Y-84770357D01*
X167657491Y-84910818D01*
X167575010Y-84711197D01*
X167385432Y-84521287D01*
X168129392Y-84521287D01*
X168930000Y-85321895D01*
X169730608Y-84521287D01*
X169661143Y-84279103D01*
X169137698Y-84092356D01*
X168582632Y-84120138D01*
X168198857Y-84279103D01*
X168129392Y-84521287D01*
X167385432Y-84521287D01*
X167182370Y-84317871D01*
X166669100Y-84104743D01*
X166113339Y-84104258D01*
X165599697Y-84316490D01*
X165206371Y-84709130D01*
X165120051Y-84917012D01*
X165035010Y-84711197D01*
X164642370Y-84317871D01*
X164129100Y-84104743D01*
X163573339Y-84104258D01*
X163059697Y-84316490D01*
X162666371Y-84709130D01*
X162580051Y-84917012D01*
X162495010Y-84711197D01*
X162102370Y-84317871D01*
X161589100Y-84104743D01*
X161033339Y-84104258D01*
X160800000Y-84200671D01*
X160800000Y-71832700D01*
X160742148Y-71541861D01*
X160577401Y-71295299D01*
X156840079Y-67557977D01*
X157020303Y-67483510D01*
X157413629Y-67090870D01*
X157499949Y-66882988D01*
X157584990Y-67088803D01*
X157977630Y-67482129D01*
X158490900Y-67695257D01*
X159046661Y-67695742D01*
X159560303Y-67483510D01*
X159953629Y-67090870D01*
X160039949Y-66882988D01*
X160124990Y-67088803D01*
X160517630Y-67482129D01*
X161030900Y-67695257D01*
X161586661Y-67695742D01*
X162100303Y-67483510D01*
X162493629Y-67090870D01*
X162579949Y-66882988D01*
X162664990Y-67088803D01*
X163057630Y-67482129D01*
X163570900Y-67695257D01*
X164126661Y-67695742D01*
X164640303Y-67483510D01*
X165033629Y-67090870D01*
X165119949Y-66882988D01*
X165204990Y-67088803D01*
X165597630Y-67482129D01*
X166110900Y-67695257D01*
X166666661Y-67695742D01*
X167180303Y-67483510D01*
X167385457Y-67278713D01*
X168129392Y-67278713D01*
X168198857Y-67520897D01*
X168722302Y-67707644D01*
X169277368Y-67679862D01*
X169661143Y-67520897D01*
X169730608Y-67278713D01*
X170669392Y-67278713D01*
X170738857Y-67520897D01*
X171262302Y-67707644D01*
X171817368Y-67679862D01*
X172201143Y-67520897D01*
X172270608Y-67278713D01*
X171470000Y-66478105D01*
X170669392Y-67278713D01*
X169730608Y-67278713D01*
X168930000Y-66478105D01*
X168129392Y-67278713D01*
X167385457Y-67278713D01*
X167573629Y-67090870D01*
X167653395Y-66898773D01*
X167707603Y-67029643D01*
X167949787Y-67099108D01*
X168750395Y-66298500D01*
X169109605Y-66298500D01*
X169910213Y-67099108D01*
X170152397Y-67029643D01*
X170196453Y-66906156D01*
X170247603Y-67029643D01*
X170489787Y-67099108D01*
X171290395Y-66298500D01*
X170489787Y-65497892D01*
X170247603Y-65567357D01*
X170203547Y-65690844D01*
X170152397Y-65567357D01*
X169910213Y-65497892D01*
X169109605Y-66298500D01*
X168750395Y-66298500D01*
X167949787Y-65497892D01*
X167707603Y-65567357D01*
X167657491Y-65707818D01*
X167575010Y-65508197D01*
X167385432Y-65318287D01*
X168129392Y-65318287D01*
X168930000Y-66118895D01*
X169730608Y-65318287D01*
X170669392Y-65318287D01*
X171470000Y-66118895D01*
X172270608Y-65318287D01*
X172201143Y-65076103D01*
X171677698Y-64889356D01*
X171122632Y-64917138D01*
X170738857Y-65076103D01*
X170669392Y-65318287D01*
X169730608Y-65318287D01*
X169661143Y-65076103D01*
X169137698Y-64889356D01*
X168582632Y-64917138D01*
X168198857Y-65076103D01*
X168129392Y-65318287D01*
X167385432Y-65318287D01*
X167182370Y-65114871D01*
X166669100Y-64901743D01*
X166113339Y-64901258D01*
X165599697Y-65113490D01*
X165206371Y-65506130D01*
X165120051Y-65714012D01*
X165035010Y-65508197D01*
X164642370Y-65114871D01*
X164129100Y-64901743D01*
X163573339Y-64901258D01*
X163059697Y-65113490D01*
X162666371Y-65506130D01*
X162580051Y-65714012D01*
X162495010Y-65508197D01*
X162102370Y-65114871D01*
X161589100Y-64901743D01*
X161033339Y-64901258D01*
X160519697Y-65113490D01*
X160126371Y-65506130D01*
X160040051Y-65714012D01*
X159955010Y-65508197D01*
X159562370Y-65114871D01*
X159049100Y-64901743D01*
X158493339Y-64901258D01*
X157979697Y-65113490D01*
X157586371Y-65506130D01*
X157500051Y-65714012D01*
X157415010Y-65508197D01*
X157022370Y-65114871D01*
X156509100Y-64901743D01*
X155953339Y-64901258D01*
X155439697Y-65113490D01*
X155310332Y-65242630D01*
X154877702Y-64810000D01*
X176391195Y-64810000D01*
X176265250Y-65113309D01*
X176264752Y-65684187D01*
X176482757Y-66211800D01*
X176886077Y-66615824D01*
X177413309Y-66834750D01*
X177984187Y-66835248D01*
X178511800Y-66617243D01*
X178915824Y-66213923D01*
X179134750Y-65686691D01*
X179135248Y-65115813D01*
X179008889Y-64810000D01*
X179691195Y-64810000D01*
X179565250Y-65113309D01*
X179564752Y-65684187D01*
X179782757Y-66211800D01*
X180186077Y-66615824D01*
X180240000Y-66638215D01*
X180240000Y-67854700D01*
X180297852Y-68145539D01*
X180462599Y-68392101D01*
X183398721Y-71328223D01*
X183385302Y-71337189D01*
X183074233Y-71802736D01*
X182965000Y-72351887D01*
X182965000Y-72408113D01*
X183074233Y-72957264D01*
X183385302Y-73422811D01*
X183850849Y-73733880D01*
X184400000Y-73843113D01*
X184949151Y-73733880D01*
X185414698Y-73422811D01*
X185725767Y-72957264D01*
X185835000Y-72408113D01*
X185835000Y-72351887D01*
X185725767Y-71802736D01*
X185414698Y-71337189D01*
X185139882Y-71153563D01*
X185102148Y-70963861D01*
X184937401Y-70717299D01*
X181760000Y-67539898D01*
X181760000Y-66638646D01*
X181811800Y-66617243D01*
X182215824Y-66213923D01*
X182434750Y-65686691D01*
X182435248Y-65115813D01*
X182308889Y-64810000D01*
X197590000Y-64810000D01*
X197590000Y-143390000D01*
X138435714Y-143390000D01*
X138611800Y-143317243D01*
X139015824Y-142913923D01*
X139234750Y-142386691D01*
X139235248Y-141815813D01*
X139017243Y-141288200D01*
X138753317Y-141023813D01*
X138959699Y-140938327D01*
X139138327Y-140759698D01*
X139235000Y-140526309D01*
X139235000Y-140130213D01*
X179933392Y-140130213D01*
X180002857Y-140372397D01*
X180526302Y-140559144D01*
X181081368Y-140531362D01*
X181465143Y-140372397D01*
X181534608Y-140130213D01*
X180734000Y-139329605D01*
X179933392Y-140130213D01*
X139235000Y-140130213D01*
X139235000Y-139885750D01*
X139076250Y-139727000D01*
X137927000Y-139727000D01*
X137927000Y-139747000D01*
X137673000Y-139747000D01*
X137673000Y-139727000D01*
X136523750Y-139727000D01*
X136365000Y-139885750D01*
X136365000Y-140526309D01*
X136461673Y-140759698D01*
X136640301Y-140938327D01*
X136846835Y-141023876D01*
X136584176Y-141286077D01*
X136365250Y-141813309D01*
X136364752Y-142384187D01*
X136582757Y-142911800D01*
X136986077Y-143315824D01*
X137164713Y-143390000D01*
X89010000Y-143390000D01*
X89010000Y-140600000D01*
X89590000Y-140600000D01*
X89765838Y-141483999D01*
X90266583Y-142233417D01*
X91016001Y-142734162D01*
X91900000Y-142910000D01*
X92783999Y-142734162D01*
X93533417Y-142233417D01*
X94034162Y-141483999D01*
X94210000Y-140600000D01*
X94127601Y-140185750D01*
X98190000Y-140185750D01*
X98190000Y-140901310D01*
X98286673Y-141134699D01*
X98465302Y-141313327D01*
X98698691Y-141410000D01*
X99414250Y-141410000D01*
X99573000Y-141251250D01*
X99573000Y-140027000D01*
X98348750Y-140027000D01*
X98190000Y-140185750D01*
X94127601Y-140185750D01*
X94034162Y-139716001D01*
X93533417Y-138966583D01*
X93431808Y-138898690D01*
X98190000Y-138898690D01*
X98190000Y-139614250D01*
X98348750Y-139773000D01*
X99573000Y-139773000D01*
X99573000Y-138548750D01*
X99414250Y-138390000D01*
X98698691Y-138390000D01*
X98465302Y-138486673D01*
X98286673Y-138665301D01*
X98190000Y-138898690D01*
X93431808Y-138898690D01*
X92783999Y-138465838D01*
X91900000Y-138290000D01*
X91016001Y-138465838D01*
X90266583Y-138966583D01*
X89765838Y-139716001D01*
X89590000Y-140600000D01*
X89010000Y-140600000D01*
X89010000Y-135107745D01*
X98171861Y-135107745D01*
X98245995Y-135353864D01*
X98783223Y-135546965D01*
X99353454Y-135519778D01*
X99754005Y-135353864D01*
X99828139Y-135107745D01*
X99000000Y-134279605D01*
X98171861Y-135107745D01*
X89010000Y-135107745D01*
X89010000Y-124425000D01*
X90677560Y-124425000D01*
X90677560Y-126175000D01*
X90721838Y-126410317D01*
X90860910Y-126626441D01*
X91073110Y-126771431D01*
X91089676Y-126774786D01*
X90920630Y-126943537D01*
X90690262Y-127498325D01*
X90689738Y-128099040D01*
X90919138Y-128654229D01*
X91314536Y-129050318D01*
X90920630Y-129443537D01*
X90690262Y-129998325D01*
X90689738Y-130599040D01*
X90919138Y-131154229D01*
X91314536Y-131550318D01*
X90920630Y-131943537D01*
X90690262Y-132498325D01*
X90689738Y-133099040D01*
X90919138Y-133654229D01*
X91343537Y-134079370D01*
X91898325Y-134309738D01*
X92499040Y-134310262D01*
X93054229Y-134080862D01*
X93252213Y-133883223D01*
X97553035Y-133883223D01*
X97580222Y-134453454D01*
X97746136Y-134854005D01*
X97992255Y-134928139D01*
X98820395Y-134100000D01*
X99179605Y-134100000D01*
X100007745Y-134928139D01*
X100055167Y-134913855D01*
X100096838Y-135135317D01*
X100235910Y-135351441D01*
X100448110Y-135496431D01*
X100700000Y-135547440D01*
X102300000Y-135547440D01*
X102535317Y-135503162D01*
X102751441Y-135364090D01*
X102896431Y-135151890D01*
X102947440Y-134900000D01*
X102947440Y-133300000D01*
X102903162Y-133064683D01*
X102764090Y-132848559D01*
X102726576Y-132822926D01*
X104537401Y-131012101D01*
X104702148Y-130765539D01*
X104702796Y-130762283D01*
X104811800Y-130717243D01*
X105215824Y-130313923D01*
X105434750Y-129786691D01*
X105435248Y-129215813D01*
X105217243Y-128688200D01*
X104813923Y-128284176D01*
X104286691Y-128065250D01*
X103715813Y-128064752D01*
X103188200Y-128282757D01*
X102784176Y-128686077D01*
X102565250Y-129213309D01*
X102564752Y-129784187D01*
X102782757Y-130311800D01*
X102935294Y-130464604D01*
X100962599Y-132437299D01*
X100818767Y-132652560D01*
X100700000Y-132652560D01*
X100464683Y-132696838D01*
X100248559Y-132835910D01*
X100103569Y-133048110D01*
X100055354Y-133286201D01*
X100007745Y-133271861D01*
X99179605Y-134100000D01*
X98820395Y-134100000D01*
X97992255Y-133271861D01*
X97746136Y-133345995D01*
X97553035Y-133883223D01*
X93252213Y-133883223D01*
X93479370Y-133656463D01*
X93709738Y-133101675D01*
X93709746Y-133092255D01*
X98171861Y-133092255D01*
X99000000Y-133920395D01*
X99828139Y-133092255D01*
X99754005Y-132846136D01*
X99216777Y-132653035D01*
X98646546Y-132680222D01*
X98245995Y-132846136D01*
X98171861Y-133092255D01*
X93709746Y-133092255D01*
X93710262Y-132500960D01*
X93670375Y-132404427D01*
X95470817Y-130603985D01*
X95802736Y-130825767D01*
X96351887Y-130935000D01*
X96408113Y-130935000D01*
X96957264Y-130825767D01*
X97422811Y-130514698D01*
X97733880Y-130049151D01*
X97843113Y-129500000D01*
X97733880Y-128950849D01*
X97422811Y-128485302D01*
X96957264Y-128174233D01*
X96580760Y-128099342D01*
X96917401Y-127762701D01*
X97082148Y-127516139D01*
X97122022Y-127315679D01*
X97422811Y-127114698D01*
X97733880Y-126649151D01*
X97786584Y-126384187D01*
X102564752Y-126384187D01*
X102782757Y-126911800D01*
X103186077Y-127315824D01*
X103713309Y-127534750D01*
X104284187Y-127535248D01*
X104811800Y-127317243D01*
X105215824Y-126913923D01*
X105434750Y-126386691D01*
X105435248Y-125815813D01*
X105217243Y-125288200D01*
X104813923Y-124884176D01*
X104286691Y-124665250D01*
X103715813Y-124664752D01*
X103188200Y-124882757D01*
X102784176Y-125286077D01*
X102565250Y-125813309D01*
X102564752Y-126384187D01*
X97786584Y-126384187D01*
X97843113Y-126100000D01*
X97733880Y-125550849D01*
X97422811Y-125085302D01*
X97140000Y-124896333D01*
X97140000Y-123903667D01*
X97422811Y-123714698D01*
X97427456Y-123707745D01*
X103171861Y-123707745D01*
X103245995Y-123953864D01*
X103783223Y-124146965D01*
X104353454Y-124119778D01*
X104754005Y-123953864D01*
X104828139Y-123707745D01*
X104000000Y-122879605D01*
X103171861Y-123707745D01*
X97427456Y-123707745D01*
X97733880Y-123249151D01*
X97843113Y-122700000D01*
X97799994Y-122483223D01*
X102553035Y-122483223D01*
X102580222Y-123053454D01*
X102746136Y-123454005D01*
X102992255Y-123528139D01*
X103820395Y-122700000D01*
X104179605Y-122700000D01*
X105007745Y-123528139D01*
X105253864Y-123454005D01*
X105446965Y-122916777D01*
X105419778Y-122346546D01*
X105253864Y-121945995D01*
X105007745Y-121871861D01*
X104179605Y-122700000D01*
X103820395Y-122700000D01*
X102992255Y-121871861D01*
X102746136Y-121945995D01*
X102553035Y-122483223D01*
X97799994Y-122483223D01*
X97733880Y-122150849D01*
X97427457Y-121692255D01*
X103171861Y-121692255D01*
X104000000Y-122520395D01*
X104828139Y-121692255D01*
X104784285Y-121546661D01*
X105432758Y-121546661D01*
X105644990Y-122060303D01*
X106037630Y-122453629D01*
X106550900Y-122666757D01*
X107106661Y-122667242D01*
X107620303Y-122455010D01*
X108013629Y-122062370D01*
X108226757Y-121549100D01*
X108226759Y-121546661D01*
X118132758Y-121546661D01*
X118344990Y-122060303D01*
X118737630Y-122453629D01*
X119250900Y-122666757D01*
X119806661Y-122667242D01*
X120320303Y-122455010D01*
X120713629Y-122062370D01*
X120926757Y-121549100D01*
X120927242Y-120993339D01*
X120715010Y-120479697D01*
X120322370Y-120086371D01*
X119809100Y-119873243D01*
X119253339Y-119872758D01*
X118739697Y-120084990D01*
X118346371Y-120477630D01*
X118133243Y-120990900D01*
X118132758Y-121546661D01*
X108226759Y-121546661D01*
X108227242Y-120993339D01*
X108015010Y-120479697D01*
X107622370Y-120086371D01*
X107109100Y-119873243D01*
X106553339Y-119872758D01*
X106039697Y-120084990D01*
X105646371Y-120477630D01*
X105433243Y-120990900D01*
X105432758Y-121546661D01*
X104784285Y-121546661D01*
X104754005Y-121446136D01*
X104216777Y-121253035D01*
X103646546Y-121280222D01*
X103245995Y-121446136D01*
X103171861Y-121692255D01*
X97427457Y-121692255D01*
X97422811Y-121685302D01*
X96957264Y-121374233D01*
X96408113Y-121265000D01*
X96351887Y-121265000D01*
X95802736Y-121374233D01*
X95337189Y-121685302D01*
X95026120Y-122150849D01*
X94916887Y-122700000D01*
X95026120Y-123249151D01*
X95337189Y-123714698D01*
X95620000Y-123903667D01*
X95620000Y-124896333D01*
X95337189Y-125085302D01*
X95026120Y-125550849D01*
X94916887Y-126100000D01*
X95026120Y-126649151D01*
X95337189Y-127114698D01*
X95384313Y-127146185D01*
X94717299Y-127813199D01*
X94552552Y-128059761D01*
X94494700Y-128350600D01*
X94494700Y-129430498D01*
X93710075Y-130215123D01*
X93710262Y-130000960D01*
X93480862Y-129445771D01*
X93085464Y-129049682D01*
X93479370Y-128656463D01*
X93709738Y-128101675D01*
X93710262Y-127500960D01*
X93480862Y-126945771D01*
X93312283Y-126776897D01*
X93526441Y-126639090D01*
X93671431Y-126426890D01*
X93722440Y-126175000D01*
X93722440Y-124425000D01*
X93678162Y-124189683D01*
X93539090Y-123973559D01*
X93326890Y-123828569D01*
X93075000Y-123777560D01*
X91325000Y-123777560D01*
X91089683Y-123821838D01*
X90873559Y-123960910D01*
X90728569Y-124173110D01*
X90677560Y-124425000D01*
X89010000Y-124425000D01*
X89010000Y-67700000D01*
X89390000Y-67700000D01*
X89565838Y-68583999D01*
X90066583Y-69333417D01*
X90816001Y-69834162D01*
X91700000Y-70010000D01*
X92583999Y-69834162D01*
X93333417Y-69333417D01*
X93834162Y-68583999D01*
X94010000Y-67700000D01*
X93834162Y-66816001D01*
X93333417Y-66066583D01*
X92583999Y-65565838D01*
X91700000Y-65390000D01*
X90816001Y-65565838D01*
X90066583Y-66066583D01*
X89565838Y-66816001D01*
X89390000Y-67700000D01*
X89010000Y-67700000D01*
X89010000Y-64810000D01*
X139851998Y-64810000D01*
X138823699Y-65838299D01*
X138823699Y-65838299D01*
G37*
X138823699Y-65838299D02*
X138658952Y-66084861D01*
X138601100Y-66375700D01*
X138601100Y-66625466D01*
X138392370Y-66416371D01*
X137879100Y-66203243D01*
X137323339Y-66202758D01*
X136809697Y-66414990D01*
X136416371Y-66807630D01*
X136203243Y-67320900D01*
X136202758Y-67876661D01*
X136216143Y-67909055D01*
X132162599Y-71962599D01*
X131997852Y-72209161D01*
X131940000Y-72500000D01*
X131940000Y-92902469D01*
X131937200Y-92903626D01*
X131937200Y-88122400D01*
X131879348Y-87831561D01*
X131714601Y-87584999D01*
X114602468Y-70472866D01*
X114983629Y-70092370D01*
X115196757Y-69579100D01*
X115197242Y-69023339D01*
X114985010Y-68509697D01*
X114592370Y-68116371D01*
X114079100Y-67903243D01*
X113523339Y-67902758D01*
X113230008Y-68023960D01*
X113189748Y-67821561D01*
X113025001Y-67574999D01*
X111553201Y-66103199D01*
X111306639Y-65938452D01*
X111015800Y-65880600D01*
X100259400Y-65880600D01*
X99968561Y-65938452D01*
X99721999Y-66103199D01*
X98995837Y-66829361D01*
X98901675Y-66790262D01*
X98300960Y-66789738D01*
X97745771Y-67019138D01*
X97320630Y-67443537D01*
X97090262Y-67998325D01*
X97089738Y-68599040D01*
X97319138Y-69154229D01*
X97743537Y-69579370D01*
X98298325Y-69809738D01*
X98899040Y-69810262D01*
X99454229Y-69580862D01*
X99623103Y-69412283D01*
X99760910Y-69626441D01*
X99973110Y-69771431D01*
X100225000Y-69822440D01*
X101975000Y-69822440D01*
X102210317Y-69778162D01*
X102426441Y-69639090D01*
X102571431Y-69426890D01*
X102622440Y-69175000D01*
X102622440Y-68981233D01*
X102837701Y-68837401D01*
X103815402Y-67859700D01*
X105847824Y-67859700D01*
X105790262Y-67998325D01*
X105789738Y-68599040D01*
X105829625Y-68695573D01*
X94010699Y-80514499D01*
X93845952Y-80761061D01*
X93813426Y-80924581D01*
X93780862Y-80845771D01*
X93385464Y-80449682D01*
X93779370Y-80056463D01*
X94009738Y-79501675D01*
X94010262Y-78900960D01*
X93780862Y-78345771D01*
X93385464Y-77949682D01*
X93779370Y-77556463D01*
X94009738Y-77001675D01*
X94010262Y-76400960D01*
X93780862Y-75845771D01*
X93612283Y-75676897D01*
X93826441Y-75539090D01*
X93971431Y-75326890D01*
X94022440Y-75075000D01*
X94022440Y-73325000D01*
X93978162Y-73089683D01*
X93839090Y-72873559D01*
X93626890Y-72728569D01*
X93375000Y-72677560D01*
X91625000Y-72677560D01*
X91389683Y-72721838D01*
X91173559Y-72860910D01*
X91028569Y-73073110D01*
X90977560Y-73325000D01*
X90977560Y-75075000D01*
X91021838Y-75310317D01*
X91160910Y-75526441D01*
X91373110Y-75671431D01*
X91389676Y-75674786D01*
X91220630Y-75843537D01*
X90990262Y-76398325D01*
X90989738Y-76999040D01*
X91219138Y-77554229D01*
X91614536Y-77950318D01*
X91220630Y-78343537D01*
X90990262Y-78898325D01*
X90989738Y-79499040D01*
X91219138Y-80054229D01*
X91614536Y-80450318D01*
X91220630Y-80843537D01*
X90990262Y-81398325D01*
X90989738Y-81999040D01*
X91219138Y-82554229D01*
X91643537Y-82979370D01*
X92198325Y-83209738D01*
X92799040Y-83210262D01*
X93354229Y-82980862D01*
X93779370Y-82556463D01*
X93788100Y-82535439D01*
X93788100Y-89446002D01*
X93645010Y-89099697D01*
X93252370Y-88706371D01*
X92739100Y-88493243D01*
X92183339Y-88492758D01*
X91669697Y-88704990D01*
X91276371Y-89097630D01*
X91063243Y-89610900D01*
X91062758Y-90166661D01*
X91274990Y-90680303D01*
X91667630Y-91073629D01*
X92180900Y-91286757D01*
X92736661Y-91287242D01*
X93250303Y-91075010D01*
X93643629Y-90682370D01*
X93788100Y-90334445D01*
X93788100Y-91750498D01*
X89539799Y-95998799D01*
X89375052Y-96245361D01*
X89317200Y-96536200D01*
X89317200Y-114517200D01*
X89375052Y-114808039D01*
X89539799Y-115054601D01*
X89785817Y-115300619D01*
X89773243Y-115330900D01*
X89772758Y-115886661D01*
X89984990Y-116400303D01*
X90377630Y-116793629D01*
X90410000Y-116807070D01*
X90410000Y-116952469D01*
X90379697Y-116964990D01*
X89986371Y-117357630D01*
X89773243Y-117870900D01*
X89772758Y-118426661D01*
X89984990Y-118940303D01*
X90377630Y-119333629D01*
X90890900Y-119546757D01*
X91446661Y-119547242D01*
X91960303Y-119335010D01*
X92353629Y-118942370D01*
X92566757Y-118429100D01*
X92566759Y-118426661D01*
X95106758Y-118426661D01*
X95318990Y-118940303D01*
X95711630Y-119333629D01*
X96224900Y-119546757D01*
X96780661Y-119547242D01*
X97294303Y-119335010D01*
X97687629Y-118942370D01*
X97900757Y-118429100D01*
X97901242Y-117873339D01*
X97689010Y-117359697D01*
X97296370Y-116966371D01*
X96783100Y-116753243D01*
X96227339Y-116752758D01*
X95713697Y-116964990D01*
X95320371Y-117357630D01*
X95107243Y-117870900D01*
X95106758Y-118426661D01*
X92566759Y-118426661D01*
X92567242Y-117873339D01*
X92355010Y-117359697D01*
X91962370Y-116966371D01*
X91930000Y-116952930D01*
X91930000Y-116807531D01*
X91960303Y-116795010D01*
X92353629Y-116402370D01*
X92566757Y-115889100D01*
X92567242Y-115333339D01*
X92355010Y-114819697D01*
X91962370Y-114426371D01*
X91449100Y-114213243D01*
X90893339Y-114212758D01*
X90860945Y-114226143D01*
X90837200Y-114202398D01*
X90837200Y-109364459D01*
X90890900Y-109386757D01*
X91446661Y-109387242D01*
X91960303Y-109175010D01*
X92353629Y-108782370D01*
X92566757Y-108269100D01*
X92567242Y-107713339D01*
X92355010Y-107199697D01*
X91962370Y-106806371D01*
X91770273Y-106726605D01*
X91901143Y-106672397D01*
X91970608Y-106430213D01*
X91170000Y-105629605D01*
X91155858Y-105643748D01*
X90976253Y-105464143D01*
X90990395Y-105450000D01*
X91349605Y-105450000D01*
X92150213Y-106250608D01*
X92392397Y-106181143D01*
X92579144Y-105657698D01*
X92551362Y-105102632D01*
X92392397Y-104718857D01*
X92150213Y-104649392D01*
X91349605Y-105450000D01*
X90990395Y-105450000D01*
X90976253Y-105435858D01*
X91155858Y-105256253D01*
X91170000Y-105270395D01*
X91970608Y-104469787D01*
X91901143Y-104227603D01*
X91377698Y-104040856D01*
X90837200Y-104067909D01*
X90837200Y-98490213D01*
X91659392Y-98490213D01*
X91728857Y-98732397D01*
X92252302Y-98919144D01*
X92807368Y-98891362D01*
X93191143Y-98732397D01*
X93260608Y-98490213D01*
X92460000Y-97689605D01*
X91659392Y-98490213D01*
X90837200Y-98490213D01*
X90837200Y-97302302D01*
X91050856Y-97302302D01*
X91078638Y-97857368D01*
X91237603Y-98241143D01*
X91479787Y-98310608D01*
X92280395Y-97510000D01*
X92639605Y-97510000D01*
X93440213Y-98310608D01*
X93682397Y-98241143D01*
X93869144Y-97717698D01*
X93841362Y-97162632D01*
X93682397Y-96778857D01*
X93440213Y-96709392D01*
X92639605Y-97510000D01*
X92280395Y-97510000D01*
X91479787Y-96709392D01*
X91237603Y-96778857D01*
X91050856Y-97302302D01*
X90837200Y-97302302D01*
X90837200Y-96851002D01*
X91158415Y-96529787D01*
X91659392Y-96529787D01*
X92460000Y-97330395D01*
X93260608Y-96529787D01*
X93191143Y-96287603D01*
X92667698Y-96100856D01*
X92112632Y-96128638D01*
X91728857Y-96287603D01*
X91659392Y-96529787D01*
X91158415Y-96529787D01*
X95085501Y-92602701D01*
X95250248Y-92356140D01*
X95259846Y-92307886D01*
X95308100Y-92065300D01*
X95308100Y-81366702D01*
X106904163Y-69770639D01*
X106998325Y-69809738D01*
X107290205Y-69809993D01*
X95966599Y-81133599D01*
X95801852Y-81380161D01*
X95744000Y-81671000D01*
X95744000Y-104252469D01*
X95713697Y-104264990D01*
X95320371Y-104657630D01*
X95107243Y-105170900D01*
X95106758Y-105726661D01*
X95318990Y-106240303D01*
X95711630Y-106633629D01*
X96224900Y-106846757D01*
X96780661Y-106847242D01*
X97294303Y-106635010D01*
X97687629Y-106242370D01*
X97900757Y-105729100D01*
X97901242Y-105173339D01*
X97689010Y-104659697D01*
X97296370Y-104266371D01*
X97264000Y-104252930D01*
X97264000Y-83369041D01*
X103008086Y-83369041D01*
X103247611Y-83875134D01*
X103662577Y-84251041D01*
X104050961Y-84411904D01*
X104273000Y-84289915D01*
X104273000Y-83147000D01*
X104527000Y-83147000D01*
X104527000Y-84289915D01*
X104749039Y-84411904D01*
X105137423Y-84251041D01*
X105552389Y-83875134D01*
X105791914Y-83369041D01*
X105670629Y-83147000D01*
X104527000Y-83147000D01*
X104273000Y-83147000D01*
X103129371Y-83147000D01*
X103008086Y-83369041D01*
X97264000Y-83369041D01*
X97264000Y-82670959D01*
X103008086Y-82670959D01*
X103129371Y-82893000D01*
X104273000Y-82893000D01*
X104273000Y-81750085D01*
X104527000Y-81750085D01*
X104527000Y-82893000D01*
X105670629Y-82893000D01*
X105791914Y-82670959D01*
X105552389Y-82164866D01*
X105137423Y-81788959D01*
X104749039Y-81628096D01*
X104527000Y-81750085D01*
X104273000Y-81750085D01*
X104050961Y-81628096D01*
X103662577Y-81788959D01*
X103247611Y-82164866D01*
X103008086Y-82670959D01*
X97264000Y-82670959D01*
X97264000Y-81985802D01*
X103140433Y-76109369D01*
X103182757Y-76211800D01*
X103586077Y-76615824D01*
X104113309Y-76834750D01*
X104684187Y-76835248D01*
X105211800Y-76617243D01*
X105615824Y-76213923D01*
X105834750Y-75686691D01*
X105834752Y-75684187D01*
X106664752Y-75684187D01*
X106882757Y-76211800D01*
X107286077Y-76615824D01*
X107813309Y-76834750D01*
X108384187Y-76835248D01*
X108911800Y-76617243D01*
X109315824Y-76213923D01*
X109534750Y-75686691D01*
X109535248Y-75115813D01*
X109317243Y-74588200D01*
X108913923Y-74184176D01*
X108386691Y-73965250D01*
X107815813Y-73964752D01*
X107288200Y-74182757D01*
X106884176Y-74586077D01*
X106665250Y-75113309D01*
X106664752Y-75684187D01*
X105834752Y-75684187D01*
X105835248Y-75115813D01*
X105617243Y-74588200D01*
X105213923Y-74184176D01*
X105109137Y-74140665D01*
X108989502Y-70260300D01*
X109800000Y-70260300D01*
X110090839Y-70202448D01*
X110255800Y-70092225D01*
X110255800Y-71103400D01*
X110313652Y-71394239D01*
X110478399Y-71640801D01*
X112981118Y-74143520D01*
X112616371Y-74507630D01*
X112403243Y-75020900D01*
X112402758Y-75576661D01*
X112614990Y-76090303D01*
X113007630Y-76483629D01*
X113520900Y-76696757D01*
X114076661Y-76697242D01*
X114109055Y-76683857D01*
X114139200Y-76714002D01*
X114139200Y-76928199D01*
X114079100Y-76903243D01*
X113523339Y-76902758D01*
X113009697Y-77114990D01*
X112616371Y-77507630D01*
X112403243Y-78020900D01*
X112402758Y-78576661D01*
X112416143Y-78609055D01*
X109074721Y-81950477D01*
X108649151Y-81666120D01*
X108100000Y-81556887D01*
X107550849Y-81666120D01*
X107085302Y-81977189D01*
X106774233Y-82442736D01*
X106665000Y-82991887D01*
X106665000Y-83048113D01*
X106774233Y-83597264D01*
X107085302Y-84062811D01*
X107550849Y-84373880D01*
X108100000Y-84483113D01*
X108465300Y-84410450D01*
X108465300Y-113345300D01*
X108523152Y-113636139D01*
X108687899Y-113882701D01*
X112645817Y-117840619D01*
X112633243Y-117870900D01*
X112632758Y-118426661D01*
X112844990Y-118940303D01*
X113237630Y-119333629D01*
X113750900Y-119546757D01*
X114306661Y-119547242D01*
X114820303Y-119335010D01*
X115213629Y-118942370D01*
X115426757Y-118429100D01*
X115427242Y-117873339D01*
X115215010Y-117359697D01*
X114822370Y-116966371D01*
X114309100Y-116753243D01*
X113753339Y-116752758D01*
X113720945Y-116766143D01*
X109985300Y-113030498D01*
X109985300Y-110800000D01*
X121952560Y-110800000D01*
X121952560Y-112400000D01*
X121996838Y-112635317D01*
X122135910Y-112851441D01*
X122348110Y-112996431D01*
X122600000Y-113047440D01*
X124200000Y-113047440D01*
X124435317Y-113003162D01*
X124651441Y-112864090D01*
X124662685Y-112847634D01*
X125113309Y-113034750D01*
X125684187Y-113035248D01*
X126211800Y-112817243D01*
X126615824Y-112413923D01*
X126834750Y-111886691D01*
X126835248Y-111315813D01*
X126617243Y-110788200D01*
X126213923Y-110384176D01*
X125686691Y-110165250D01*
X125115813Y-110164752D01*
X124665534Y-110350803D01*
X124664090Y-110348559D01*
X124451890Y-110203569D01*
X124200000Y-110152560D01*
X122600000Y-110152560D01*
X122364683Y-110196838D01*
X122148559Y-110335910D01*
X122003569Y-110548110D01*
X121952560Y-110800000D01*
X109985300Y-110800000D01*
X109985300Y-83189502D01*
X113490619Y-79684183D01*
X113520900Y-79696757D01*
X114076661Y-79697242D01*
X114139200Y-79671401D01*
X114139200Y-104053095D01*
X113753339Y-104052758D01*
X113239697Y-104264990D01*
X112846371Y-104657630D01*
X112633243Y-105170900D01*
X112632758Y-105726661D01*
X112844990Y-106240303D01*
X113237630Y-106633629D01*
X113750900Y-106846757D01*
X114306661Y-106847242D01*
X114820303Y-106635010D01*
X115213629Y-106242370D01*
X115426757Y-105729100D01*
X115427242Y-105173339D01*
X115413857Y-105140945D01*
X115436601Y-105118201D01*
X115601348Y-104871640D01*
X115612047Y-104817852D01*
X115659200Y-104580800D01*
X115659200Y-100924907D01*
X115722267Y-100924962D01*
X116066043Y-100782917D01*
X116329292Y-100520127D01*
X116471938Y-100176599D01*
X116472262Y-99804633D01*
X116330217Y-99460857D01*
X116297100Y-99427682D01*
X116297100Y-98490213D01*
X122139392Y-98490213D01*
X122208857Y-98732397D01*
X122732302Y-98919144D01*
X123287368Y-98891362D01*
X123671143Y-98732397D01*
X123740608Y-98490213D01*
X122940000Y-97689605D01*
X122139392Y-98490213D01*
X116297100Y-98490213D01*
X116297100Y-97607702D01*
X116602500Y-97302302D01*
X121530856Y-97302302D01*
X121558638Y-97857368D01*
X121717603Y-98241143D01*
X121959787Y-98310608D01*
X122760395Y-97510000D01*
X123119605Y-97510000D01*
X123920213Y-98310608D01*
X124162397Y-98241143D01*
X124349144Y-97717698D01*
X124321362Y-97162632D01*
X124162397Y-96778857D01*
X123920213Y-96709392D01*
X123119605Y-97510000D01*
X122760395Y-97510000D01*
X121959787Y-96709392D01*
X121717603Y-96778857D01*
X121530856Y-97302302D01*
X116602500Y-97302302D01*
X117375015Y-96529787D01*
X122139392Y-96529787D01*
X122940000Y-97330395D01*
X123740608Y-96529787D01*
X123671143Y-96287603D01*
X123147698Y-96100856D01*
X122592632Y-96128638D01*
X122208857Y-96287603D01*
X122139392Y-96529787D01*
X117375015Y-96529787D01*
X122630619Y-91274183D01*
X122660900Y-91286757D01*
X123216661Y-91287242D01*
X123730303Y-91075010D01*
X124123629Y-90682370D01*
X124336757Y-90169100D01*
X124337242Y-89613339D01*
X124125010Y-89099697D01*
X123732370Y-88706371D01*
X123219100Y-88493243D01*
X122663339Y-88492758D01*
X122149697Y-88704990D01*
X121756371Y-89097630D01*
X121543243Y-89610900D01*
X121542758Y-90166661D01*
X121556143Y-90199055D01*
X115659200Y-96095998D01*
X115659200Y-76678602D01*
X126949600Y-87969002D01*
X126949600Y-105674419D01*
X126686691Y-105565250D01*
X126115813Y-105564752D01*
X125588200Y-105782757D01*
X125249764Y-106120603D01*
X124913923Y-105784176D01*
X124386691Y-105565250D01*
X123815813Y-105564752D01*
X123288200Y-105782757D01*
X122884176Y-106186077D01*
X122850187Y-106267931D01*
X122817243Y-106188200D01*
X122413923Y-105784176D01*
X121886691Y-105565250D01*
X121315813Y-105564752D01*
X120788200Y-105782757D01*
X120384176Y-106186077D01*
X120165250Y-106713309D01*
X120164752Y-107284187D01*
X120382757Y-107811800D01*
X120786077Y-108215824D01*
X121313309Y-108434750D01*
X121884187Y-108435248D01*
X121938149Y-108412951D01*
X122213099Y-108687901D01*
X122459661Y-108852648D01*
X122750500Y-108910500D01*
X125249500Y-108910500D01*
X125540339Y-108852648D01*
X125786901Y-108687901D01*
X126061546Y-108413256D01*
X126113309Y-108434750D01*
X126684187Y-108435248D01*
X126949600Y-108325582D01*
X126949600Y-116520737D01*
X126917408Y-116552873D01*
X126774762Y-116896401D01*
X126774612Y-117069062D01*
X126617243Y-116688200D01*
X126213923Y-116284176D01*
X125686691Y-116065250D01*
X125115813Y-116064752D01*
X124665534Y-116250803D01*
X124664090Y-116248559D01*
X124451890Y-116103569D01*
X124200000Y-116052560D01*
X122600000Y-116052560D01*
X122364683Y-116096838D01*
X122148559Y-116235910D01*
X122003569Y-116448110D01*
X121952560Y-116700000D01*
X121952560Y-118300000D01*
X121996838Y-118535317D01*
X122135910Y-118751441D01*
X122348110Y-118896431D01*
X122600000Y-118947440D01*
X124200000Y-118947440D01*
X124435317Y-118903162D01*
X124651441Y-118764090D01*
X124662685Y-118747634D01*
X125113309Y-118934750D01*
X125684187Y-118935248D01*
X125738149Y-118912951D01*
X125987999Y-119162801D01*
X126234561Y-119327548D01*
X126525400Y-119385400D01*
X129931398Y-119385400D01*
X110176798Y-139140000D01*
X103519797Y-139140000D01*
X103480862Y-139045771D01*
X103056463Y-138620630D01*
X102501675Y-138390262D01*
X101900960Y-138389738D01*
X101345771Y-138619138D01*
X101167797Y-138796802D01*
X101113327Y-138665301D01*
X100934698Y-138486673D01*
X100701309Y-138390000D01*
X99985750Y-138390000D01*
X99827000Y-138548750D01*
X99827000Y-139773000D01*
X99847000Y-139773000D01*
X99847000Y-140027000D01*
X99827000Y-140027000D01*
X99827000Y-141251250D01*
X99985750Y-141410000D01*
X100701309Y-141410000D01*
X100934698Y-141313327D01*
X101113327Y-141134699D01*
X101167760Y-141003286D01*
X101343537Y-141179370D01*
X101898325Y-141409738D01*
X102499040Y-141410262D01*
X103054229Y-141180862D01*
X103479370Y-140756463D01*
X103519425Y-140660000D01*
X110491600Y-140660000D01*
X110782439Y-140602148D01*
X111029001Y-140437401D01*
X133652560Y-117813842D01*
X133652560Y-118300000D01*
X133696838Y-118535317D01*
X133835910Y-118751441D01*
X134048110Y-118896431D01*
X134300000Y-118947440D01*
X135900000Y-118947440D01*
X136135317Y-118903162D01*
X136351441Y-118764090D01*
X136362685Y-118747634D01*
X136514659Y-118810739D01*
X136354699Y-118970699D01*
X136189952Y-119217261D01*
X136132100Y-119508100D01*
X136132100Y-121649998D01*
X134707638Y-123074460D01*
X134685010Y-123019697D01*
X134292370Y-122626371D01*
X133779100Y-122413243D01*
X133223339Y-122412758D01*
X132709697Y-122624990D01*
X132316371Y-123017630D01*
X132103243Y-123530900D01*
X132102758Y-124086661D01*
X132314990Y-124600303D01*
X132443380Y-124728918D01*
X131859899Y-125312399D01*
X131695152Y-125558961D01*
X131637300Y-125849800D01*
X131637300Y-140487300D01*
X131695152Y-140778139D01*
X131859899Y-141024701D01*
X132115817Y-141280619D01*
X132103243Y-141310900D01*
X132102758Y-141866661D01*
X132314990Y-142380303D01*
X132707630Y-142773629D01*
X133220900Y-142986757D01*
X133776661Y-142987242D01*
X134290303Y-142775010D01*
X134683629Y-142382370D01*
X134896757Y-141869100D01*
X134897242Y-141313339D01*
X134685010Y-140799697D01*
X134292370Y-140406371D01*
X134100273Y-140326605D01*
X134231143Y-140272397D01*
X134300608Y-140030213D01*
X133500000Y-139229605D01*
X133485858Y-139243748D01*
X133306253Y-139064143D01*
X133320395Y-139050000D01*
X133679605Y-139050000D01*
X134480213Y-139850608D01*
X134722397Y-139781143D01*
X134909144Y-139257698D01*
X134881362Y-138702632D01*
X134869375Y-138673691D01*
X136365000Y-138673691D01*
X136365000Y-139314250D01*
X136523750Y-139473000D01*
X137673000Y-139473000D01*
X137673000Y-138323750D01*
X137927000Y-138323750D01*
X137927000Y-139473000D01*
X139076250Y-139473000D01*
X139235000Y-139314250D01*
X139235000Y-138942302D01*
X179324856Y-138942302D01*
X179352638Y-139497368D01*
X179511603Y-139881143D01*
X179753787Y-139950608D01*
X180554395Y-139150000D01*
X180913605Y-139150000D01*
X181714213Y-139950608D01*
X181956397Y-139881143D01*
X182143144Y-139357698D01*
X182115362Y-138802632D01*
X181956397Y-138418857D01*
X181714213Y-138349392D01*
X180913605Y-139150000D01*
X180554395Y-139150000D01*
X179753787Y-138349392D01*
X179511603Y-138418857D01*
X179324856Y-138942302D01*
X139235000Y-138942302D01*
X139235000Y-138673691D01*
X139138327Y-138440302D01*
X138959699Y-138261673D01*
X138726310Y-138165000D01*
X138085750Y-138165000D01*
X137927000Y-138323750D01*
X137673000Y-138323750D01*
X137514250Y-138165000D01*
X136873690Y-138165000D01*
X136640301Y-138261673D01*
X136461673Y-138440302D01*
X136365000Y-138673691D01*
X134869375Y-138673691D01*
X134722397Y-138318857D01*
X134480213Y-138249392D01*
X133679605Y-139050000D01*
X133320395Y-139050000D01*
X133306253Y-139035858D01*
X133485858Y-138856253D01*
X133500000Y-138870395D01*
X134300608Y-138069787D01*
X134231143Y-137827603D01*
X134090682Y-137777491D01*
X134290303Y-137695010D01*
X134683629Y-137302370D01*
X134896757Y-136789100D01*
X134897185Y-136298972D01*
X135144866Y-136572389D01*
X135650959Y-136811914D01*
X135873000Y-136690629D01*
X135873000Y-135547000D01*
X136127000Y-135547000D01*
X136127000Y-136690629D01*
X136349041Y-136811914D01*
X136855134Y-136572389D01*
X137231041Y-136157423D01*
X137391904Y-135769039D01*
X137269915Y-135547000D01*
X136127000Y-135547000D01*
X135873000Y-135547000D01*
X134730085Y-135547000D01*
X134652885Y-135687516D01*
X134292370Y-135326371D01*
X134084488Y-135240051D01*
X134290303Y-135155010D01*
X134683629Y-134762370D01*
X134896757Y-134249100D01*
X134897185Y-133758972D01*
X135144866Y-134032389D01*
X135393367Y-134150000D01*
X135144866Y-134267611D01*
X134768959Y-134682577D01*
X134608096Y-135070961D01*
X134730085Y-135293000D01*
X135873000Y-135293000D01*
X135873000Y-133007000D01*
X136127000Y-133007000D01*
X136127000Y-135293000D01*
X137269915Y-135293000D01*
X137391904Y-135070961D01*
X137231041Y-134682577D01*
X136855134Y-134267611D01*
X136606633Y-134150000D01*
X136855134Y-134032389D01*
X137231041Y-133617423D01*
X137391904Y-133229039D01*
X137269915Y-133007000D01*
X136127000Y-133007000D01*
X135873000Y-133007000D01*
X134730085Y-133007000D01*
X134652885Y-133147516D01*
X134292370Y-132786371D01*
X134084488Y-132700051D01*
X134290303Y-132615010D01*
X134683629Y-132222370D01*
X134896757Y-131709100D01*
X134897185Y-131218972D01*
X135144866Y-131492389D01*
X135393367Y-131610000D01*
X135144866Y-131727611D01*
X134768959Y-132142577D01*
X134608096Y-132530961D01*
X134730085Y-132753000D01*
X135873000Y-132753000D01*
X135873000Y-130467000D01*
X136127000Y-130467000D01*
X136127000Y-132753000D01*
X137269915Y-132753000D01*
X137391904Y-132530961D01*
X137231041Y-132142577D01*
X136855134Y-131727611D01*
X136606633Y-131610000D01*
X136855134Y-131492389D01*
X137231041Y-131077423D01*
X137391904Y-130689039D01*
X137269915Y-130467000D01*
X136127000Y-130467000D01*
X135873000Y-130467000D01*
X134730085Y-130467000D01*
X134652885Y-130607516D01*
X134292370Y-130246371D01*
X134084488Y-130160051D01*
X134290303Y-130075010D01*
X134683629Y-129682370D01*
X134896757Y-129169100D01*
X134896763Y-129161714D01*
X135073691Y-129235000D01*
X135101938Y-129235000D01*
X134768959Y-129602577D01*
X134608096Y-129990961D01*
X134730085Y-130213000D01*
X135873000Y-130213000D01*
X135873000Y-127927000D01*
X136127000Y-127927000D01*
X136127000Y-130213000D01*
X137269915Y-130213000D01*
X137391904Y-129990961D01*
X137231041Y-129602577D01*
X136898062Y-129235000D01*
X136926309Y-129235000D01*
X137159698Y-129138327D01*
X137338327Y-128959699D01*
X137435000Y-128726310D01*
X137435000Y-128085750D01*
X137276250Y-127927000D01*
X136127000Y-127927000D01*
X135873000Y-127927000D01*
X135853000Y-127927000D01*
X135853000Y-127673000D01*
X135873000Y-127673000D01*
X135873000Y-127653000D01*
X136127000Y-127653000D01*
X136127000Y-127673000D01*
X137276250Y-127673000D01*
X137435000Y-127514250D01*
X137435000Y-126873690D01*
X137338327Y-126640301D01*
X137159698Y-126461673D01*
X136926309Y-126365000D01*
X136285750Y-126365000D01*
X136127002Y-126523748D01*
X136127002Y-126365000D01*
X136097702Y-126365000D01*
X140233801Y-122228901D01*
X140398548Y-121982339D01*
X140456400Y-121691500D01*
X140456400Y-119521750D01*
X140827630Y-119893629D01*
X141340900Y-120106757D01*
X141896661Y-120107242D01*
X142410303Y-119895010D01*
X142803629Y-119502370D01*
X142889949Y-119294488D01*
X142974990Y-119500303D01*
X143367630Y-119893629D01*
X143880900Y-120106757D01*
X144436661Y-120107242D01*
X144950303Y-119895010D01*
X145343629Y-119502370D01*
X145429949Y-119294488D01*
X145514990Y-119500303D01*
X145907630Y-119893629D01*
X146420900Y-120106757D01*
X146976661Y-120107242D01*
X147490303Y-119895010D01*
X147883629Y-119502370D01*
X147969949Y-119294488D01*
X148054990Y-119500303D01*
X148447630Y-119893629D01*
X148960900Y-120106757D01*
X149516661Y-120107242D01*
X150030303Y-119895010D01*
X150235457Y-119690213D01*
X150979392Y-119690213D01*
X151048857Y-119932397D01*
X151572302Y-120119144D01*
X152127368Y-120091362D01*
X152511143Y-119932397D01*
X152580608Y-119690213D01*
X151780000Y-118889605D01*
X150979392Y-119690213D01*
X150235457Y-119690213D01*
X150423629Y-119502370D01*
X150503395Y-119310273D01*
X150557603Y-119441143D01*
X150799787Y-119510608D01*
X151600395Y-118710000D01*
X151959605Y-118710000D01*
X152760213Y-119510608D01*
X153002397Y-119441143D01*
X153189144Y-118917698D01*
X153161362Y-118362632D01*
X153002397Y-117978857D01*
X152760213Y-117909392D01*
X151959605Y-118710000D01*
X151600395Y-118710000D01*
X150799787Y-117909392D01*
X150557603Y-117978857D01*
X150507491Y-118119318D01*
X150425010Y-117919697D01*
X150235432Y-117729787D01*
X150979392Y-117729787D01*
X151780000Y-118530395D01*
X152580608Y-117729787D01*
X152511143Y-117487603D01*
X151987698Y-117300856D01*
X151432632Y-117328638D01*
X151048857Y-117487603D01*
X150979392Y-117729787D01*
X150235432Y-117729787D01*
X150032370Y-117526371D01*
X149519100Y-117313243D01*
X148963339Y-117312758D01*
X148449697Y-117524990D01*
X148056371Y-117917630D01*
X147970051Y-118125512D01*
X147885010Y-117919697D01*
X147724305Y-117758711D01*
X147821001Y-117694101D01*
X153191100Y-112324002D01*
X153191100Y-121342098D01*
X144874348Y-129658850D01*
X144851041Y-129602577D01*
X144475134Y-129187611D01*
X144258297Y-129084986D01*
X144662811Y-128814698D01*
X144973880Y-128349151D01*
X145083113Y-127800000D01*
X144973880Y-127250849D01*
X144662811Y-126785302D01*
X144197264Y-126474233D01*
X143648113Y-126365000D01*
X143591887Y-126365000D01*
X143042736Y-126474233D01*
X142577189Y-126785302D01*
X142266120Y-127250849D01*
X142156887Y-127800000D01*
X142266120Y-128349151D01*
X142577189Y-128814698D01*
X142981703Y-129084986D01*
X142764866Y-129187611D01*
X142388959Y-129602577D01*
X142228096Y-129990961D01*
X142350085Y-130213000D01*
X143493000Y-130213000D01*
X143493000Y-130193000D01*
X143747000Y-130193000D01*
X143747000Y-130213000D01*
X143767000Y-130213000D01*
X143767000Y-130467000D01*
X143747000Y-130467000D01*
X143747000Y-130487000D01*
X143493000Y-130487000D01*
X143493000Y-130467000D01*
X142350085Y-130467000D01*
X142228096Y-130689039D01*
X142388959Y-131077423D01*
X142563547Y-131270151D01*
X141957299Y-131876399D01*
X141792552Y-132122961D01*
X141734700Y-132413800D01*
X141734700Y-133346200D01*
X141792552Y-133637039D01*
X141957299Y-133883601D01*
X142537860Y-134464162D01*
X142266120Y-134870849D01*
X142156887Y-135420000D01*
X142266120Y-135969151D01*
X142577189Y-136434698D01*
X143042736Y-136745767D01*
X143591887Y-136855000D01*
X143648113Y-136855000D01*
X144197264Y-136745767D01*
X144662811Y-136434698D01*
X144973880Y-135969151D01*
X145083113Y-135420000D01*
X144973880Y-134870849D01*
X144946586Y-134830000D01*
X179536469Y-134830000D01*
X179548990Y-134860303D01*
X179941630Y-135253629D01*
X180149512Y-135339949D01*
X179943697Y-135424990D01*
X179550371Y-135817630D01*
X179337243Y-136330900D01*
X179336758Y-136886661D01*
X179548990Y-137400303D01*
X179941630Y-137793629D01*
X180133727Y-137873395D01*
X180002857Y-137927603D01*
X179933392Y-138169787D01*
X180734000Y-138970395D01*
X181534608Y-138169787D01*
X181465143Y-137927603D01*
X181324682Y-137877491D01*
X181524303Y-137795010D01*
X181917629Y-137402370D01*
X182130757Y-136889100D01*
X182131242Y-136333339D01*
X181919010Y-135819697D01*
X181526370Y-135426371D01*
X181318488Y-135340051D01*
X181524303Y-135255010D01*
X181917629Y-134862370D01*
X181931070Y-134830000D01*
X182929700Y-134830000D01*
X183220539Y-134772148D01*
X183467101Y-134607401D01*
X192716726Y-125357776D01*
X192760910Y-125426441D01*
X192973110Y-125571431D01*
X193225000Y-125622440D01*
X194540400Y-125622440D01*
X194540400Y-129284798D01*
X194495837Y-129329361D01*
X194401675Y-129290262D01*
X193800960Y-129289738D01*
X193245771Y-129519138D01*
X192820630Y-129943537D01*
X192590262Y-130498325D01*
X192589738Y-131099040D01*
X192676368Y-131308700D01*
X192231000Y-131308700D01*
X191940161Y-131366552D01*
X191693599Y-131531299D01*
X185362599Y-137862299D01*
X185218767Y-138077560D01*
X185025000Y-138077560D01*
X184789683Y-138121838D01*
X184573559Y-138260910D01*
X184428569Y-138473110D01*
X184377560Y-138725000D01*
X184377560Y-140475000D01*
X184421838Y-140710317D01*
X184560910Y-140926441D01*
X184773110Y-141071431D01*
X185025000Y-141122440D01*
X186775000Y-141122440D01*
X187010317Y-141078162D01*
X187226441Y-140939090D01*
X187371431Y-140726890D01*
X187374786Y-140710324D01*
X187543537Y-140879370D01*
X188098325Y-141109738D01*
X188699040Y-141110262D01*
X189254229Y-140880862D01*
X189635756Y-140500000D01*
X192490000Y-140500000D01*
X192665838Y-141383999D01*
X193166583Y-142133417D01*
X193916001Y-142634162D01*
X194800000Y-142810000D01*
X195683999Y-142634162D01*
X196433417Y-142133417D01*
X196934162Y-141383999D01*
X197110000Y-140500000D01*
X196934162Y-139616001D01*
X196433417Y-138866583D01*
X195683999Y-138365838D01*
X194800000Y-138190000D01*
X193916001Y-138365838D01*
X193166583Y-138866583D01*
X192665838Y-139616001D01*
X192490000Y-140500000D01*
X189635756Y-140500000D01*
X189679370Y-140456463D01*
X189719425Y-140360000D01*
X190044700Y-140360000D01*
X190335539Y-140302148D01*
X190582101Y-140137401D01*
X196758501Y-133961001D01*
X196923248Y-133714439D01*
X196981100Y-133423600D01*
X196981100Y-100421100D01*
X196923248Y-100130261D01*
X196923248Y-100130260D01*
X196758501Y-99883699D01*
X195570639Y-98695837D01*
X195609738Y-98601675D01*
X195610262Y-98000960D01*
X195570375Y-97904427D01*
X195891401Y-97583401D01*
X196056148Y-97336839D01*
X196114000Y-97046000D01*
X196114000Y-76437700D01*
X196056148Y-76146861D01*
X195891401Y-75900299D01*
X195653401Y-75662299D01*
X195469495Y-75539417D01*
X195609738Y-75201675D01*
X195610262Y-74600960D01*
X195380862Y-74045771D01*
X194956463Y-73620630D01*
X194401675Y-73390262D01*
X193800960Y-73389738D01*
X193245771Y-73619138D01*
X192820630Y-74043537D01*
X192751125Y-74210923D01*
X188162642Y-69622440D01*
X189075000Y-69622440D01*
X189310317Y-69578162D01*
X189526441Y-69439090D01*
X189671431Y-69226890D01*
X189722440Y-68975000D01*
X189722440Y-67500000D01*
X192390000Y-67500000D01*
X192565838Y-68383999D01*
X193066583Y-69133417D01*
X193816001Y-69634162D01*
X194700000Y-69810000D01*
X195583999Y-69634162D01*
X196333417Y-69133417D01*
X196834162Y-68383999D01*
X197010000Y-67500000D01*
X196834162Y-66616001D01*
X196333417Y-65866583D01*
X195583999Y-65365838D01*
X194700000Y-65190000D01*
X193816001Y-65365838D01*
X193066583Y-65866583D01*
X192565838Y-66616001D01*
X192390000Y-67500000D01*
X189722440Y-67500000D01*
X189722440Y-67225000D01*
X189678162Y-66989683D01*
X189539090Y-66773559D01*
X189326890Y-66628569D01*
X189075000Y-66577560D01*
X187325000Y-66577560D01*
X187089683Y-66621838D01*
X186873559Y-66760910D01*
X186728569Y-66973110D01*
X186725214Y-66989676D01*
X186556463Y-66820630D01*
X186001675Y-66590262D01*
X185400960Y-66589738D01*
X184845771Y-66819138D01*
X184420630Y-67243537D01*
X184190262Y-67798325D01*
X184189738Y-68399040D01*
X184419138Y-68954229D01*
X184843537Y-69379370D01*
X185398325Y-69609738D01*
X185999040Y-69610262D01*
X186000328Y-69609730D01*
X192642833Y-76252235D01*
X192628569Y-76273110D01*
X192577560Y-76525000D01*
X192577560Y-78275000D01*
X192621838Y-78510317D01*
X192760910Y-78726441D01*
X192973110Y-78871431D01*
X193225000Y-78922440D01*
X194594000Y-78922440D01*
X194594000Y-82670122D01*
X194401675Y-82590262D01*
X193800960Y-82589738D01*
X193245771Y-82819138D01*
X192820630Y-83243537D01*
X192590262Y-83798325D01*
X192589738Y-84399040D01*
X192819138Y-84954229D01*
X193214536Y-85350318D01*
X192820630Y-85743537D01*
X192780575Y-85840000D01*
X188544000Y-85840000D01*
X188253160Y-85897852D01*
X188006599Y-86062599D01*
X187519460Y-86549738D01*
X187451890Y-86503569D01*
X187200000Y-86452560D01*
X186032200Y-86452560D01*
X186032200Y-80872200D01*
X185974348Y-80581361D01*
X185812791Y-80339574D01*
X185834750Y-80286691D01*
X185835248Y-79715813D01*
X185617243Y-79188200D01*
X185213923Y-78784176D01*
X184686691Y-78565250D01*
X184115813Y-78564752D01*
X183588200Y-78782757D01*
X183184176Y-79186077D01*
X183022012Y-79576610D01*
X180634700Y-77189298D01*
X180634700Y-76702109D01*
X180713309Y-76734750D01*
X181284187Y-76735248D01*
X181811800Y-76517243D01*
X182215824Y-76113923D01*
X182434750Y-75586691D01*
X182435248Y-75015813D01*
X182217243Y-74488200D01*
X181881464Y-74151835D01*
X182014698Y-74062811D01*
X182325767Y-73597264D01*
X182435000Y-73048113D01*
X182435000Y-72991887D01*
X182325767Y-72442736D01*
X182014698Y-71977189D01*
X181549151Y-71666120D01*
X181000000Y-71556887D01*
X180450849Y-71666120D01*
X179985302Y-71977189D01*
X179674233Y-72442736D01*
X179591800Y-72857154D01*
X179591800Y-71120300D01*
X179533948Y-70829461D01*
X179369201Y-70582899D01*
X175394183Y-66607881D01*
X175406757Y-66577600D01*
X175407242Y-66021839D01*
X175195010Y-65508197D01*
X174802370Y-65114871D01*
X174289100Y-64901743D01*
X173733339Y-64901258D01*
X173219697Y-65113490D01*
X172826371Y-65506130D01*
X172746605Y-65698227D01*
X172692397Y-65567357D01*
X172450213Y-65497892D01*
X171649605Y-66298500D01*
X172450213Y-67099108D01*
X172692397Y-67029643D01*
X172742509Y-66889182D01*
X172824990Y-67088803D01*
X173217630Y-67482129D01*
X173730900Y-67695257D01*
X174286661Y-67695742D01*
X174319055Y-67682357D01*
X178071800Y-71435102D01*
X178071800Y-71630843D01*
X177700000Y-71556887D01*
X177150849Y-71666120D01*
X176685302Y-71977189D01*
X176374233Y-72442736D01*
X176265000Y-72991887D01*
X176265000Y-73048113D01*
X176374233Y-73597264D01*
X176685302Y-74062811D01*
X176698721Y-74071777D01*
X172202599Y-78567899D01*
X172037852Y-78814461D01*
X171980000Y-79105300D01*
X171980000Y-84200207D01*
X171677698Y-84092356D01*
X171122632Y-84120138D01*
X170738857Y-84279103D01*
X170669392Y-84521287D01*
X171470000Y-85321895D01*
X171484143Y-85307753D01*
X171663748Y-85487358D01*
X171649605Y-85501500D01*
X171663748Y-85515643D01*
X171484143Y-85695248D01*
X171470000Y-85681105D01*
X170669392Y-86481713D01*
X170738857Y-86723897D01*
X170770288Y-86735110D01*
X170304798Y-87200600D01*
X168964200Y-87200600D01*
X168673360Y-87258452D01*
X168426799Y-87423199D01*
X166620421Y-89229577D01*
X166575618Y-89184774D01*
X166460607Y-89299785D01*
X166391143Y-89057603D01*
X165867698Y-88870856D01*
X165312632Y-88898638D01*
X164928857Y-89057603D01*
X164859392Y-89299787D01*
X165660000Y-90100395D01*
X165674143Y-90086253D01*
X165853748Y-90265858D01*
X165839605Y-90280000D01*
X165853748Y-90294143D01*
X165674143Y-90473748D01*
X165660000Y-90459605D01*
X165645858Y-90473748D01*
X165466253Y-90294143D01*
X165480395Y-90280000D01*
X164679787Y-89479392D01*
X164437603Y-89548857D01*
X164387491Y-89689318D01*
X164305010Y-89489697D01*
X163912370Y-89096371D01*
X163399100Y-88883243D01*
X162843339Y-88882758D01*
X162810945Y-88896143D01*
X160800000Y-86885198D01*
X160800000Y-86802379D01*
X161030900Y-86898257D01*
X161586661Y-86898742D01*
X162100303Y-86686510D01*
X162493629Y-86293870D01*
X162579949Y-86085988D01*
X162664990Y-86291803D01*
X163057630Y-86685129D01*
X163570900Y-86898257D01*
X164126661Y-86898742D01*
X164640303Y-86686510D01*
X165033629Y-86293870D01*
X165119949Y-86085988D01*
X165204990Y-86291803D01*
X165597630Y-86685129D01*
X166110900Y-86898257D01*
X166666661Y-86898742D01*
X167180303Y-86686510D01*
X167385457Y-86481713D01*
X168129392Y-86481713D01*
X168198857Y-86723897D01*
X168722302Y-86910644D01*
X169277368Y-86882862D01*
X169661143Y-86723897D01*
X169730608Y-86481713D01*
X168930000Y-85681105D01*
X168129392Y-86481713D01*
X167385457Y-86481713D01*
X167573629Y-86293870D01*
X167653395Y-86101773D01*
X167707603Y-86232643D01*
X167949787Y-86302108D01*
X168750395Y-85501500D01*
X169109605Y-85501500D01*
X169910213Y-86302108D01*
X170152397Y-86232643D01*
X170196453Y-86109156D01*
X170247603Y-86232643D01*
X170489787Y-86302108D01*
X171290395Y-85501500D01*
X170489787Y-84700892D01*
X170247603Y-84770357D01*
X170203547Y-84893844D01*
X170152397Y-84770357D01*
X169910213Y-84700892D01*
X169109605Y-85501500D01*
X168750395Y-85501500D01*
X167949787Y-84700892D01*
X167707603Y-84770357D01*
X167657491Y-84910818D01*
X167575010Y-84711197D01*
X167385432Y-84521287D01*
X168129392Y-84521287D01*
X168930000Y-85321895D01*
X169730608Y-84521287D01*
X169661143Y-84279103D01*
X169137698Y-84092356D01*
X168582632Y-84120138D01*
X168198857Y-84279103D01*
X168129392Y-84521287D01*
X167385432Y-84521287D01*
X167182370Y-84317871D01*
X166669100Y-84104743D01*
X166113339Y-84104258D01*
X165599697Y-84316490D01*
X165206371Y-84709130D01*
X165120051Y-84917012D01*
X165035010Y-84711197D01*
X164642370Y-84317871D01*
X164129100Y-84104743D01*
X163573339Y-84104258D01*
X163059697Y-84316490D01*
X162666371Y-84709130D01*
X162580051Y-84917012D01*
X162495010Y-84711197D01*
X162102370Y-84317871D01*
X161589100Y-84104743D01*
X161033339Y-84104258D01*
X160800000Y-84200671D01*
X160800000Y-71832700D01*
X160742148Y-71541861D01*
X160577401Y-71295299D01*
X156840079Y-67557977D01*
X157020303Y-67483510D01*
X157413629Y-67090870D01*
X157499949Y-66882988D01*
X157584990Y-67088803D01*
X157977630Y-67482129D01*
X158490900Y-67695257D01*
X159046661Y-67695742D01*
X159560303Y-67483510D01*
X159953629Y-67090870D01*
X160039949Y-66882988D01*
X160124990Y-67088803D01*
X160517630Y-67482129D01*
X161030900Y-67695257D01*
X161586661Y-67695742D01*
X162100303Y-67483510D01*
X162493629Y-67090870D01*
X162579949Y-66882988D01*
X162664990Y-67088803D01*
X163057630Y-67482129D01*
X163570900Y-67695257D01*
X164126661Y-67695742D01*
X164640303Y-67483510D01*
X165033629Y-67090870D01*
X165119949Y-66882988D01*
X165204990Y-67088803D01*
X165597630Y-67482129D01*
X166110900Y-67695257D01*
X166666661Y-67695742D01*
X167180303Y-67483510D01*
X167385457Y-67278713D01*
X168129392Y-67278713D01*
X168198857Y-67520897D01*
X168722302Y-67707644D01*
X169277368Y-67679862D01*
X169661143Y-67520897D01*
X169730608Y-67278713D01*
X170669392Y-67278713D01*
X170738857Y-67520897D01*
X171262302Y-67707644D01*
X171817368Y-67679862D01*
X172201143Y-67520897D01*
X172270608Y-67278713D01*
X171470000Y-66478105D01*
X170669392Y-67278713D01*
X169730608Y-67278713D01*
X168930000Y-66478105D01*
X168129392Y-67278713D01*
X167385457Y-67278713D01*
X167573629Y-67090870D01*
X167653395Y-66898773D01*
X167707603Y-67029643D01*
X167949787Y-67099108D01*
X168750395Y-66298500D01*
X169109605Y-66298500D01*
X169910213Y-67099108D01*
X170152397Y-67029643D01*
X170196453Y-66906156D01*
X170247603Y-67029643D01*
X170489787Y-67099108D01*
X171290395Y-66298500D01*
X170489787Y-65497892D01*
X170247603Y-65567357D01*
X170203547Y-65690844D01*
X170152397Y-65567357D01*
X169910213Y-65497892D01*
X169109605Y-66298500D01*
X168750395Y-66298500D01*
X167949787Y-65497892D01*
X167707603Y-65567357D01*
X167657491Y-65707818D01*
X167575010Y-65508197D01*
X167385432Y-65318287D01*
X168129392Y-65318287D01*
X168930000Y-66118895D01*
X169730608Y-65318287D01*
X170669392Y-65318287D01*
X171470000Y-66118895D01*
X172270608Y-65318287D01*
X172201143Y-65076103D01*
X171677698Y-64889356D01*
X171122632Y-64917138D01*
X170738857Y-65076103D01*
X170669392Y-65318287D01*
X169730608Y-65318287D01*
X169661143Y-65076103D01*
X169137698Y-64889356D01*
X168582632Y-64917138D01*
X168198857Y-65076103D01*
X168129392Y-65318287D01*
X167385432Y-65318287D01*
X167182370Y-65114871D01*
X166669100Y-64901743D01*
X166113339Y-64901258D01*
X165599697Y-65113490D01*
X165206371Y-65506130D01*
X165120051Y-65714012D01*
X165035010Y-65508197D01*
X164642370Y-65114871D01*
X164129100Y-64901743D01*
X163573339Y-64901258D01*
X163059697Y-65113490D01*
X162666371Y-65506130D01*
X162580051Y-65714012D01*
X162495010Y-65508197D01*
X162102370Y-65114871D01*
X161589100Y-64901743D01*
X161033339Y-64901258D01*
X160519697Y-65113490D01*
X160126371Y-65506130D01*
X160040051Y-65714012D01*
X159955010Y-65508197D01*
X159562370Y-65114871D01*
X159049100Y-64901743D01*
X158493339Y-64901258D01*
X157979697Y-65113490D01*
X157586371Y-65506130D01*
X157500051Y-65714012D01*
X157415010Y-65508197D01*
X157022370Y-65114871D01*
X156509100Y-64901743D01*
X155953339Y-64901258D01*
X155439697Y-65113490D01*
X155310332Y-65242630D01*
X154877702Y-64810000D01*
X176391195Y-64810000D01*
X176265250Y-65113309D01*
X176264752Y-65684187D01*
X176482757Y-66211800D01*
X176886077Y-66615824D01*
X177413309Y-66834750D01*
X177984187Y-66835248D01*
X178511800Y-66617243D01*
X178915824Y-66213923D01*
X179134750Y-65686691D01*
X179135248Y-65115813D01*
X179008889Y-64810000D01*
X179691195Y-64810000D01*
X179565250Y-65113309D01*
X179564752Y-65684187D01*
X179782757Y-66211800D01*
X180186077Y-66615824D01*
X180240000Y-66638215D01*
X180240000Y-67854700D01*
X180297852Y-68145539D01*
X180462599Y-68392101D01*
X183398721Y-71328223D01*
X183385302Y-71337189D01*
X183074233Y-71802736D01*
X182965000Y-72351887D01*
X182965000Y-72408113D01*
X183074233Y-72957264D01*
X183385302Y-73422811D01*
X183850849Y-73733880D01*
X184400000Y-73843113D01*
X184949151Y-73733880D01*
X185414698Y-73422811D01*
X185725767Y-72957264D01*
X185835000Y-72408113D01*
X185835000Y-72351887D01*
X185725767Y-71802736D01*
X185414698Y-71337189D01*
X185139882Y-71153563D01*
X185102148Y-70963861D01*
X184937401Y-70717299D01*
X181760000Y-67539898D01*
X181760000Y-66638646D01*
X181811800Y-66617243D01*
X182215824Y-66213923D01*
X182434750Y-65686691D01*
X182435248Y-65115813D01*
X182308889Y-64810000D01*
X197590000Y-64810000D01*
X197590000Y-143390000D01*
X138435714Y-143390000D01*
X138611800Y-143317243D01*
X139015824Y-142913923D01*
X139234750Y-142386691D01*
X139235248Y-141815813D01*
X139017243Y-141288200D01*
X138753317Y-141023813D01*
X138959699Y-140938327D01*
X139138327Y-140759698D01*
X139235000Y-140526309D01*
X139235000Y-140130213D01*
X179933392Y-140130213D01*
X180002857Y-140372397D01*
X180526302Y-140559144D01*
X181081368Y-140531362D01*
X181465143Y-140372397D01*
X181534608Y-140130213D01*
X180734000Y-139329605D01*
X179933392Y-140130213D01*
X139235000Y-140130213D01*
X139235000Y-139885750D01*
X139076250Y-139727000D01*
X137927000Y-139727000D01*
X137927000Y-139747000D01*
X137673000Y-139747000D01*
X137673000Y-139727000D01*
X136523750Y-139727000D01*
X136365000Y-139885750D01*
X136365000Y-140526309D01*
X136461673Y-140759698D01*
X136640301Y-140938327D01*
X136846835Y-141023876D01*
X136584176Y-141286077D01*
X136365250Y-141813309D01*
X136364752Y-142384187D01*
X136582757Y-142911800D01*
X136986077Y-143315824D01*
X137164713Y-143390000D01*
X89010000Y-143390000D01*
X89010000Y-140600000D01*
X89590000Y-140600000D01*
X89765838Y-141483999D01*
X90266583Y-142233417D01*
X91016001Y-142734162D01*
X91900000Y-142910000D01*
X92783999Y-142734162D01*
X93533417Y-142233417D01*
X94034162Y-141483999D01*
X94210000Y-140600000D01*
X94127601Y-140185750D01*
X98190000Y-140185750D01*
X98190000Y-140901310D01*
X98286673Y-141134699D01*
X98465302Y-141313327D01*
X98698691Y-141410000D01*
X99414250Y-141410000D01*
X99573000Y-141251250D01*
X99573000Y-140027000D01*
X98348750Y-140027000D01*
X98190000Y-140185750D01*
X94127601Y-140185750D01*
X94034162Y-139716001D01*
X93533417Y-138966583D01*
X93431808Y-138898690D01*
X98190000Y-138898690D01*
X98190000Y-139614250D01*
X98348750Y-139773000D01*
X99573000Y-139773000D01*
X99573000Y-138548750D01*
X99414250Y-138390000D01*
X98698691Y-138390000D01*
X98465302Y-138486673D01*
X98286673Y-138665301D01*
X98190000Y-138898690D01*
X93431808Y-138898690D01*
X92783999Y-138465838D01*
X91900000Y-138290000D01*
X91016001Y-138465838D01*
X90266583Y-138966583D01*
X89765838Y-139716001D01*
X89590000Y-140600000D01*
X89010000Y-140600000D01*
X89010000Y-135107745D01*
X98171861Y-135107745D01*
X98245995Y-135353864D01*
X98783223Y-135546965D01*
X99353454Y-135519778D01*
X99754005Y-135353864D01*
X99828139Y-135107745D01*
X99000000Y-134279605D01*
X98171861Y-135107745D01*
X89010000Y-135107745D01*
X89010000Y-124425000D01*
X90677560Y-124425000D01*
X90677560Y-126175000D01*
X90721838Y-126410317D01*
X90860910Y-126626441D01*
X91073110Y-126771431D01*
X91089676Y-126774786D01*
X90920630Y-126943537D01*
X90690262Y-127498325D01*
X90689738Y-128099040D01*
X90919138Y-128654229D01*
X91314536Y-129050318D01*
X90920630Y-129443537D01*
X90690262Y-129998325D01*
X90689738Y-130599040D01*
X90919138Y-131154229D01*
X91314536Y-131550318D01*
X90920630Y-131943537D01*
X90690262Y-132498325D01*
X90689738Y-133099040D01*
X90919138Y-133654229D01*
X91343537Y-134079370D01*
X91898325Y-134309738D01*
X92499040Y-134310262D01*
X93054229Y-134080862D01*
X93252213Y-133883223D01*
X97553035Y-133883223D01*
X97580222Y-134453454D01*
X97746136Y-134854005D01*
X97992255Y-134928139D01*
X98820395Y-134100000D01*
X99179605Y-134100000D01*
X100007745Y-134928139D01*
X100055167Y-134913855D01*
X100096838Y-135135317D01*
X100235910Y-135351441D01*
X100448110Y-135496431D01*
X100700000Y-135547440D01*
X102300000Y-135547440D01*
X102535317Y-135503162D01*
X102751441Y-135364090D01*
X102896431Y-135151890D01*
X102947440Y-134900000D01*
X102947440Y-133300000D01*
X102903162Y-133064683D01*
X102764090Y-132848559D01*
X102726576Y-132822926D01*
X104537401Y-131012101D01*
X104702148Y-130765539D01*
X104702796Y-130762283D01*
X104811800Y-130717243D01*
X105215824Y-130313923D01*
X105434750Y-129786691D01*
X105435248Y-129215813D01*
X105217243Y-128688200D01*
X104813923Y-128284176D01*
X104286691Y-128065250D01*
X103715813Y-128064752D01*
X103188200Y-128282757D01*
X102784176Y-128686077D01*
X102565250Y-129213309D01*
X102564752Y-129784187D01*
X102782757Y-130311800D01*
X102935294Y-130464604D01*
X100962599Y-132437299D01*
X100818767Y-132652560D01*
X100700000Y-132652560D01*
X100464683Y-132696838D01*
X100248559Y-132835910D01*
X100103569Y-133048110D01*
X100055354Y-133286201D01*
X100007745Y-133271861D01*
X99179605Y-134100000D01*
X98820395Y-134100000D01*
X97992255Y-133271861D01*
X97746136Y-133345995D01*
X97553035Y-133883223D01*
X93252213Y-133883223D01*
X93479370Y-133656463D01*
X93709738Y-133101675D01*
X93709746Y-133092255D01*
X98171861Y-133092255D01*
X99000000Y-133920395D01*
X99828139Y-133092255D01*
X99754005Y-132846136D01*
X99216777Y-132653035D01*
X98646546Y-132680222D01*
X98245995Y-132846136D01*
X98171861Y-133092255D01*
X93709746Y-133092255D01*
X93710262Y-132500960D01*
X93670375Y-132404427D01*
X95470817Y-130603985D01*
X95802736Y-130825767D01*
X96351887Y-130935000D01*
X96408113Y-130935000D01*
X96957264Y-130825767D01*
X97422811Y-130514698D01*
X97733880Y-130049151D01*
X97843113Y-129500000D01*
X97733880Y-128950849D01*
X97422811Y-128485302D01*
X96957264Y-128174233D01*
X96580760Y-128099342D01*
X96917401Y-127762701D01*
X97082148Y-127516139D01*
X97122022Y-127315679D01*
X97422811Y-127114698D01*
X97733880Y-126649151D01*
X97786584Y-126384187D01*
X102564752Y-126384187D01*
X102782757Y-126911800D01*
X103186077Y-127315824D01*
X103713309Y-127534750D01*
X104284187Y-127535248D01*
X104811800Y-127317243D01*
X105215824Y-126913923D01*
X105434750Y-126386691D01*
X105435248Y-125815813D01*
X105217243Y-125288200D01*
X104813923Y-124884176D01*
X104286691Y-124665250D01*
X103715813Y-124664752D01*
X103188200Y-124882757D01*
X102784176Y-125286077D01*
X102565250Y-125813309D01*
X102564752Y-126384187D01*
X97786584Y-126384187D01*
X97843113Y-126100000D01*
X97733880Y-125550849D01*
X97422811Y-125085302D01*
X97140000Y-124896333D01*
X97140000Y-123903667D01*
X97422811Y-123714698D01*
X97427456Y-123707745D01*
X103171861Y-123707745D01*
X103245995Y-123953864D01*
X103783223Y-124146965D01*
X104353454Y-124119778D01*
X104754005Y-123953864D01*
X104828139Y-123707745D01*
X104000000Y-122879605D01*
X103171861Y-123707745D01*
X97427456Y-123707745D01*
X97733880Y-123249151D01*
X97843113Y-122700000D01*
X97799994Y-122483223D01*
X102553035Y-122483223D01*
X102580222Y-123053454D01*
X102746136Y-123454005D01*
X102992255Y-123528139D01*
X103820395Y-122700000D01*
X104179605Y-122700000D01*
X105007745Y-123528139D01*
X105253864Y-123454005D01*
X105446965Y-122916777D01*
X105419778Y-122346546D01*
X105253864Y-121945995D01*
X105007745Y-121871861D01*
X104179605Y-122700000D01*
X103820395Y-122700000D01*
X102992255Y-121871861D01*
X102746136Y-121945995D01*
X102553035Y-122483223D01*
X97799994Y-122483223D01*
X97733880Y-122150849D01*
X97427457Y-121692255D01*
X103171861Y-121692255D01*
X104000000Y-122520395D01*
X104828139Y-121692255D01*
X104784285Y-121546661D01*
X105432758Y-121546661D01*
X105644990Y-122060303D01*
X106037630Y-122453629D01*
X106550900Y-122666757D01*
X107106661Y-122667242D01*
X107620303Y-122455010D01*
X108013629Y-122062370D01*
X108226757Y-121549100D01*
X108226759Y-121546661D01*
X118132758Y-121546661D01*
X118344990Y-122060303D01*
X118737630Y-122453629D01*
X119250900Y-122666757D01*
X119806661Y-122667242D01*
X120320303Y-122455010D01*
X120713629Y-122062370D01*
X120926757Y-121549100D01*
X120927242Y-120993339D01*
X120715010Y-120479697D01*
X120322370Y-120086371D01*
X119809100Y-119873243D01*
X119253339Y-119872758D01*
X118739697Y-120084990D01*
X118346371Y-120477630D01*
X118133243Y-120990900D01*
X118132758Y-121546661D01*
X108226759Y-121546661D01*
X108227242Y-120993339D01*
X108015010Y-120479697D01*
X107622370Y-120086371D01*
X107109100Y-119873243D01*
X106553339Y-119872758D01*
X106039697Y-120084990D01*
X105646371Y-120477630D01*
X105433243Y-120990900D01*
X105432758Y-121546661D01*
X104784285Y-121546661D01*
X104754005Y-121446136D01*
X104216777Y-121253035D01*
X103646546Y-121280222D01*
X103245995Y-121446136D01*
X103171861Y-121692255D01*
X97427457Y-121692255D01*
X97422811Y-121685302D01*
X96957264Y-121374233D01*
X96408113Y-121265000D01*
X96351887Y-121265000D01*
X95802736Y-121374233D01*
X95337189Y-121685302D01*
X95026120Y-122150849D01*
X94916887Y-122700000D01*
X95026120Y-123249151D01*
X95337189Y-123714698D01*
X95620000Y-123903667D01*
X95620000Y-124896333D01*
X95337189Y-125085302D01*
X95026120Y-125550849D01*
X94916887Y-126100000D01*
X95026120Y-126649151D01*
X95337189Y-127114698D01*
X95384313Y-127146185D01*
X94717299Y-127813199D01*
X94552552Y-128059761D01*
X94494700Y-128350600D01*
X94494700Y-129430498D01*
X93710075Y-130215123D01*
X93710262Y-130000960D01*
X93480862Y-129445771D01*
X93085464Y-129049682D01*
X93479370Y-128656463D01*
X93709738Y-128101675D01*
X93710262Y-127500960D01*
X93480862Y-126945771D01*
X93312283Y-126776897D01*
X93526441Y-126639090D01*
X93671431Y-126426890D01*
X93722440Y-126175000D01*
X93722440Y-124425000D01*
X93678162Y-124189683D01*
X93539090Y-123973559D01*
X93326890Y-123828569D01*
X93075000Y-123777560D01*
X91325000Y-123777560D01*
X91089683Y-123821838D01*
X90873559Y-123960910D01*
X90728569Y-124173110D01*
X90677560Y-124425000D01*
X89010000Y-124425000D01*
X89010000Y-67700000D01*
X89390000Y-67700000D01*
X89565838Y-68583999D01*
X90066583Y-69333417D01*
X90816001Y-69834162D01*
X91700000Y-70010000D01*
X92583999Y-69834162D01*
X93333417Y-69333417D01*
X93834162Y-68583999D01*
X94010000Y-67700000D01*
X93834162Y-66816001D01*
X93333417Y-66066583D01*
X92583999Y-65565838D01*
X91700000Y-65390000D01*
X90816001Y-65565838D01*
X90066583Y-66066583D01*
X89565838Y-66816001D01*
X89390000Y-67700000D01*
X89010000Y-67700000D01*
X89010000Y-64810000D01*
X139851998Y-64810000D01*
X138823699Y-65838299D01*
G36*
X180977475Y-109807577D02*
X180499697Y-110004990D01*
X180106371Y-110397630D01*
X180026605Y-110589727D01*
X179972397Y-110458857D01*
X179730213Y-110389392D01*
X178929605Y-111190000D01*
X179730213Y-111990608D01*
X179972397Y-111921143D01*
X180022509Y-111780682D01*
X180104990Y-111980303D01*
X180497630Y-112373629D01*
X180530000Y-112387070D01*
X180530000Y-114691700D01*
X180587852Y-114982539D01*
X180752599Y-115229101D01*
X186410899Y-120887401D01*
X186657461Y-121052148D01*
X186948300Y-121110000D01*
X192668461Y-121110000D01*
X192590262Y-121298325D01*
X192589738Y-121899040D01*
X192629625Y-121995573D01*
X187309993Y-127315205D01*
X187296917Y-127283557D01*
X187034127Y-127020308D01*
X186971896Y-126994467D01*
X187028139Y-126807745D01*
X186200000Y-125979605D01*
X186185858Y-125993748D01*
X186006253Y-125814143D01*
X186020395Y-125800000D01*
X186379605Y-125800000D01*
X187207745Y-126628139D01*
X187453864Y-126554005D01*
X187646965Y-126016777D01*
X187619778Y-125446546D01*
X187453864Y-125045995D01*
X187207745Y-124971861D01*
X186379605Y-125800000D01*
X186020395Y-125800000D01*
X185192255Y-124971861D01*
X184946136Y-125045995D01*
X184832644Y-125361741D01*
X181970903Y-122500000D01*
X184752560Y-122500000D01*
X184752560Y-124100000D01*
X184796838Y-124335317D01*
X184935910Y-124551441D01*
X185148110Y-124696431D01*
X185386201Y-124744646D01*
X185371861Y-124792255D01*
X186200000Y-125620395D01*
X187028139Y-124792255D01*
X187013855Y-124744833D01*
X187235317Y-124703162D01*
X187451441Y-124564090D01*
X187596431Y-124351890D01*
X187647440Y-124100000D01*
X187647440Y-122500000D01*
X187603162Y-122264683D01*
X187464090Y-122048559D01*
X187251890Y-121903569D01*
X187000000Y-121852560D01*
X185400000Y-121852560D01*
X185164683Y-121896838D01*
X184948559Y-122035910D01*
X184803569Y-122248110D01*
X184752560Y-122500000D01*
X181970903Y-122500000D01*
X179486081Y-120015179D01*
X179550608Y-119790213D01*
X178750000Y-118989605D01*
X178735858Y-119003748D01*
X178556253Y-118824143D01*
X178570395Y-118810000D01*
X178929605Y-118810000D01*
X179730213Y-119610608D01*
X179972397Y-119541143D01*
X180022509Y-119400682D01*
X180104990Y-119600303D01*
X180497630Y-119993629D01*
X181010900Y-120206757D01*
X181566661Y-120207242D01*
X182080303Y-119995010D01*
X182473629Y-119602370D01*
X182686757Y-119089100D01*
X182687242Y-118533339D01*
X182475010Y-118019697D01*
X182082370Y-117626371D01*
X181569100Y-117413243D01*
X181013339Y-117412758D01*
X180499697Y-117624990D01*
X180106371Y-118017630D01*
X180026605Y-118209727D01*
X179972397Y-118078857D01*
X179730213Y-118009392D01*
X178929605Y-118810000D01*
X178570395Y-118810000D01*
X178556253Y-118795858D01*
X178735858Y-118616253D01*
X178750000Y-118630395D01*
X179550608Y-117829787D01*
X179481143Y-117587603D01*
X178957698Y-117400856D01*
X178402632Y-117428638D01*
X178240000Y-117496002D01*
X178240000Y-115000000D01*
X178182148Y-114709161D01*
X178017401Y-114462599D01*
X176141743Y-112586941D01*
X176486661Y-112587242D01*
X177000303Y-112375010D01*
X177205457Y-112170213D01*
X177949392Y-112170213D01*
X178018857Y-112412397D01*
X178542302Y-112599144D01*
X179097368Y-112571362D01*
X179481143Y-112412397D01*
X179550608Y-112170213D01*
X178750000Y-111369605D01*
X177949392Y-112170213D01*
X177205457Y-112170213D01*
X177393629Y-111982370D01*
X177473395Y-111790273D01*
X177527603Y-111921143D01*
X177769787Y-111990608D01*
X178570395Y-111190000D01*
X177769787Y-110389392D01*
X177527603Y-110458857D01*
X177477491Y-110599318D01*
X177395010Y-110399697D01*
X177205432Y-110209787D01*
X177949392Y-110209787D01*
X178750000Y-111010395D01*
X179550608Y-110209787D01*
X179481143Y-109967603D01*
X178957698Y-109780856D01*
X178402632Y-109808638D01*
X178018857Y-109967603D01*
X177949392Y-110209787D01*
X177205432Y-110209787D01*
X177002370Y-110006371D01*
X176489100Y-109793243D01*
X175933339Y-109792758D01*
X175419697Y-110004990D01*
X175026371Y-110397630D01*
X174940051Y-110605512D01*
X174855010Y-110399697D01*
X174462370Y-110006371D01*
X173949100Y-109793243D01*
X173393339Y-109792758D01*
X172879697Y-110004990D01*
X172486371Y-110397630D01*
X172400051Y-110605512D01*
X172315010Y-110399697D01*
X171922370Y-110006371D01*
X171409100Y-109793243D01*
X170853339Y-109792758D01*
X170339697Y-110004990D01*
X169946371Y-110397630D01*
X169866605Y-110589727D01*
X169812397Y-110458857D01*
X169570213Y-110389392D01*
X168769605Y-111190000D01*
X169570213Y-111990608D01*
X169812397Y-111921143D01*
X169862509Y-111780682D01*
X169944990Y-111980303D01*
X170337630Y-112373629D01*
X170850900Y-112586757D01*
X171406661Y-112587242D01*
X171920303Y-112375010D01*
X172313629Y-111982370D01*
X172399949Y-111774488D01*
X172484990Y-111980303D01*
X172877630Y-112373629D01*
X173390900Y-112586757D01*
X173946661Y-112587242D01*
X173979055Y-112573857D01*
X176720000Y-115314802D01*
X176720000Y-117509121D01*
X176489100Y-117413243D01*
X175933339Y-117412758D01*
X175419697Y-117624990D01*
X175026371Y-118017630D01*
X174940051Y-118225512D01*
X174855010Y-118019697D01*
X174462370Y-117626371D01*
X173949100Y-117413243D01*
X173393339Y-117412758D01*
X172879697Y-117624990D01*
X172486371Y-118017630D01*
X172400051Y-118225512D01*
X172315010Y-118019697D01*
X171922370Y-117626371D01*
X171409100Y-117413243D01*
X170853339Y-117412758D01*
X170339697Y-117624990D01*
X169946371Y-118017630D01*
X169860051Y-118225512D01*
X169775010Y-118019697D01*
X169382370Y-117626371D01*
X168869100Y-117413243D01*
X168313339Y-117412758D01*
X167799697Y-117624990D01*
X167406371Y-118017630D01*
X167320051Y-118225512D01*
X167235010Y-118019697D01*
X166842370Y-117626371D01*
X166329100Y-117413243D01*
X165773339Y-117412758D01*
X165259697Y-117624990D01*
X164866371Y-118017630D01*
X164780051Y-118225512D01*
X164695010Y-118019697D01*
X164302370Y-117626371D01*
X163789100Y-117413243D01*
X163233339Y-117412758D01*
X162719697Y-117624990D01*
X162326371Y-118017630D01*
X162113243Y-118530900D01*
X162112758Y-119086661D01*
X162324990Y-119600303D01*
X162717630Y-119993629D01*
X163230900Y-120206757D01*
X163786661Y-120207242D01*
X164300303Y-119995010D01*
X164693629Y-119602370D01*
X164779949Y-119394488D01*
X164864990Y-119600303D01*
X165257630Y-119993629D01*
X165770900Y-120206757D01*
X166326661Y-120207242D01*
X166840303Y-119995010D01*
X167233629Y-119602370D01*
X167319949Y-119394488D01*
X167404990Y-119600303D01*
X167797630Y-119993629D01*
X168310900Y-120206757D01*
X168866661Y-120207242D01*
X169380303Y-119995010D01*
X169773629Y-119602370D01*
X169859949Y-119394488D01*
X169944990Y-119600303D01*
X170337630Y-119993629D01*
X170850900Y-120206757D01*
X171406661Y-120207242D01*
X171920303Y-119995010D01*
X172313629Y-119602370D01*
X172399949Y-119394488D01*
X172484990Y-119600303D01*
X172877630Y-119993629D01*
X173390900Y-120206757D01*
X173946661Y-120207242D01*
X174460303Y-119995010D01*
X174853629Y-119602370D01*
X174939949Y-119394488D01*
X175024990Y-119600303D01*
X175417630Y-119993629D01*
X175930900Y-120206757D01*
X176486661Y-120207242D01*
X177000303Y-119995010D01*
X177158443Y-119837145D01*
X185671199Y-128349902D01*
X185784043Y-128425301D01*
X185815130Y-128446072D01*
X185973473Y-128604692D01*
X186006706Y-128618492D01*
X183855198Y-130770000D01*
X181931531Y-130770000D01*
X181919010Y-130739697D01*
X181526370Y-130346371D01*
X181318488Y-130260051D01*
X181524303Y-130175010D01*
X181917629Y-129782370D01*
X182130757Y-129269100D01*
X182131242Y-128713339D01*
X181919010Y-128199697D01*
X181526370Y-127806371D01*
X181318488Y-127720051D01*
X181524303Y-127635010D01*
X181917629Y-127242370D01*
X182130757Y-126729100D01*
X182131242Y-126173339D01*
X181919010Y-125659697D01*
X181526370Y-125266371D01*
X181013100Y-125053243D01*
X180457339Y-125052758D01*
X179943697Y-125264990D01*
X179550371Y-125657630D01*
X179337243Y-126170900D01*
X179336758Y-126726661D01*
X179548990Y-127240303D01*
X179941630Y-127633629D01*
X180149512Y-127719949D01*
X179943697Y-127804990D01*
X179550371Y-128197630D01*
X179337243Y-128710900D01*
X179336758Y-129266661D01*
X179548990Y-129780303D01*
X179941630Y-130173629D01*
X180149512Y-130259949D01*
X179943697Y-130344990D01*
X179682231Y-130606000D01*
X155531400Y-130606000D01*
X155531400Y-120435000D01*
X155914250Y-120435000D01*
X156073000Y-120276250D01*
X156073000Y-118827000D01*
X156327000Y-118827000D01*
X156327000Y-120276250D01*
X156485750Y-120435000D01*
X157426310Y-120435000D01*
X157659699Y-120338327D01*
X157838327Y-120159698D01*
X157935000Y-119926309D01*
X157935000Y-118985750D01*
X157776250Y-118827000D01*
X156327000Y-118827000D01*
X156073000Y-118827000D01*
X156053000Y-118827000D01*
X156053000Y-118573000D01*
X156073000Y-118573000D01*
X156073000Y-117123750D01*
X156327000Y-117123750D01*
X156327000Y-118573000D01*
X157776250Y-118573000D01*
X157935000Y-118414250D01*
X157935000Y-118284187D01*
X157964752Y-118284187D01*
X158182757Y-118811800D01*
X158586077Y-119215824D01*
X158667931Y-119249813D01*
X158588200Y-119282757D01*
X158184176Y-119686077D01*
X157965250Y-120213309D01*
X157964752Y-120784187D01*
X158182757Y-121311800D01*
X158586077Y-121715824D01*
X159113309Y-121934750D01*
X159684187Y-121935248D01*
X160211800Y-121717243D01*
X160615824Y-121313923D01*
X160834750Y-120786691D01*
X160835248Y-120215813D01*
X160617243Y-119688200D01*
X160213923Y-119284176D01*
X160132069Y-119250187D01*
X160211800Y-119217243D01*
X160615824Y-118813923D01*
X160834750Y-118286691D01*
X160835248Y-117715813D01*
X160617243Y-117188200D01*
X160213923Y-116784176D01*
X159686691Y-116565250D01*
X159115813Y-116564752D01*
X158588200Y-116782757D01*
X158184176Y-117186077D01*
X157965250Y-117713309D01*
X157964752Y-118284187D01*
X157935000Y-118284187D01*
X157935000Y-117473691D01*
X157838327Y-117240302D01*
X157659699Y-117061673D01*
X157426310Y-116965000D01*
X156485750Y-116965000D01*
X156327000Y-117123750D01*
X156073000Y-117123750D01*
X155914250Y-116965000D01*
X155531400Y-116965000D01*
X155531400Y-112713819D01*
X155536044Y-112716922D01*
X156200000Y-112848991D01*
X156863956Y-112716922D01*
X157426830Y-112340821D01*
X157802931Y-111777947D01*
X157935000Y-111113991D01*
X157935000Y-111046009D01*
X157802931Y-110382053D01*
X157426830Y-109819179D01*
X157075141Y-109584187D01*
X157964752Y-109584187D01*
X158182757Y-110111800D01*
X158586077Y-110515824D01*
X158667931Y-110549813D01*
X158588200Y-110582757D01*
X158184176Y-110986077D01*
X157965250Y-111513309D01*
X157964752Y-112084187D01*
X158182757Y-112611800D01*
X158586077Y-113015824D01*
X159113309Y-113234750D01*
X159684187Y-113235248D01*
X160211800Y-113017243D01*
X160615824Y-112613923D01*
X160834750Y-112086691D01*
X160835248Y-111515813D01*
X160814939Y-111466661D01*
X162112758Y-111466661D01*
X162324990Y-111980303D01*
X162717630Y-112373629D01*
X163230900Y-112586757D01*
X163786661Y-112587242D01*
X164300303Y-112375010D01*
X164693629Y-111982370D01*
X164779949Y-111774488D01*
X164864990Y-111980303D01*
X165257630Y-112373629D01*
X165770900Y-112586757D01*
X166326661Y-112587242D01*
X166840303Y-112375010D01*
X167045457Y-112170213D01*
X167789392Y-112170213D01*
X167858857Y-112412397D01*
X168382302Y-112599144D01*
X168937368Y-112571362D01*
X169321143Y-112412397D01*
X169390608Y-112170213D01*
X168590000Y-111369605D01*
X167789392Y-112170213D01*
X167045457Y-112170213D01*
X167233629Y-111982370D01*
X167313395Y-111790273D01*
X167367603Y-111921143D01*
X167609787Y-111990608D01*
X168410395Y-111190000D01*
X167609787Y-110389392D01*
X167367603Y-110458857D01*
X167317491Y-110599318D01*
X167235010Y-110399697D01*
X167045432Y-110209787D01*
X167789392Y-110209787D01*
X168590000Y-111010395D01*
X169390608Y-110209787D01*
X169321143Y-109967603D01*
X168797698Y-109780856D01*
X168242632Y-109808638D01*
X167858857Y-109967603D01*
X167789392Y-110209787D01*
X167045432Y-110209787D01*
X166842370Y-110006371D01*
X166329100Y-109793243D01*
X165773339Y-109792758D01*
X165259697Y-110004990D01*
X164866371Y-110397630D01*
X164780051Y-110605512D01*
X164695010Y-110399697D01*
X164302370Y-110006371D01*
X163789100Y-109793243D01*
X163233339Y-109792758D01*
X162719697Y-110004990D01*
X162326371Y-110397630D01*
X162113243Y-110910900D01*
X162112758Y-111466661D01*
X160814939Y-111466661D01*
X160617243Y-110988200D01*
X160213923Y-110584176D01*
X160132069Y-110550187D01*
X160211800Y-110517243D01*
X160615824Y-110113923D01*
X160834750Y-109586691D01*
X160835248Y-109015813D01*
X160617243Y-108488200D01*
X160213923Y-108084176D01*
X159686691Y-107865250D01*
X159115813Y-107864752D01*
X158588200Y-108082757D01*
X158184176Y-108486077D01*
X157965250Y-109013309D01*
X157964752Y-109584187D01*
X157075141Y-109584187D01*
X156863956Y-109443078D01*
X156200000Y-109311009D01*
X155536044Y-109443078D01*
X155531400Y-109446181D01*
X155531400Y-109103402D01*
X157730619Y-106904183D01*
X157760900Y-106916757D01*
X158316661Y-106917242D01*
X158830303Y-106705010D01*
X159223629Y-106312370D01*
X159309949Y-106104488D01*
X159394990Y-106310303D01*
X159787630Y-106703629D01*
X160300900Y-106916757D01*
X160856661Y-106917242D01*
X161370303Y-106705010D01*
X161763629Y-106312370D01*
X161849949Y-106104488D01*
X161934990Y-106310303D01*
X162327630Y-106703629D01*
X162840900Y-106916757D01*
X163396661Y-106917242D01*
X163910303Y-106705010D01*
X164059235Y-106556337D01*
X164658299Y-107155401D01*
X164904861Y-107320148D01*
X165195700Y-107378000D01*
X166172400Y-107378000D01*
X166463239Y-107320148D01*
X166709801Y-107155401D01*
X167284709Y-106580493D01*
X167407630Y-106703629D01*
X167920900Y-106916757D01*
X168476661Y-106917242D01*
X168990303Y-106705010D01*
X169195457Y-106500213D01*
X169939392Y-106500213D01*
X170008857Y-106742397D01*
X170532302Y-106929144D01*
X171087368Y-106901362D01*
X171471143Y-106742397D01*
X171540608Y-106500213D01*
X170740000Y-105699605D01*
X169939392Y-106500213D01*
X169195457Y-106500213D01*
X169383629Y-106312370D01*
X169463395Y-106120273D01*
X169517603Y-106251143D01*
X169759787Y-106320608D01*
X170560395Y-105520000D01*
X170546253Y-105505858D01*
X170725858Y-105326253D01*
X170740000Y-105340395D01*
X170754143Y-105326253D01*
X170933748Y-105505858D01*
X170919605Y-105520000D01*
X171720213Y-106320608D01*
X171962397Y-106251143D01*
X172012509Y-106110682D01*
X172094990Y-106310303D01*
X172487630Y-106703629D01*
X173000900Y-106916757D01*
X173556661Y-106917242D01*
X174070303Y-106705010D01*
X174463629Y-106312370D01*
X174676757Y-105799100D01*
X174677242Y-105243339D01*
X174647683Y-105171800D01*
X176341698Y-105171800D01*
X180977475Y-109807577D01*
X180977475Y-109807577D01*
G37*
X180977475Y-109807577D02*
X180499697Y-110004990D01*
X180106371Y-110397630D01*
X180026605Y-110589727D01*
X179972397Y-110458857D01*
X179730213Y-110389392D01*
X178929605Y-111190000D01*
X179730213Y-111990608D01*
X179972397Y-111921143D01*
X180022509Y-111780682D01*
X180104990Y-111980303D01*
X180497630Y-112373629D01*
X180530000Y-112387070D01*
X180530000Y-114691700D01*
X180587852Y-114982539D01*
X180752599Y-115229101D01*
X186410899Y-120887401D01*
X186657461Y-121052148D01*
X186948300Y-121110000D01*
X192668461Y-121110000D01*
X192590262Y-121298325D01*
X192589738Y-121899040D01*
X192629625Y-121995573D01*
X187309993Y-127315205D01*
X187296917Y-127283557D01*
X187034127Y-127020308D01*
X186971896Y-126994467D01*
X187028139Y-126807745D01*
X186200000Y-125979605D01*
X186185858Y-125993748D01*
X186006253Y-125814143D01*
X186020395Y-125800000D01*
X186379605Y-125800000D01*
X187207745Y-126628139D01*
X187453864Y-126554005D01*
X187646965Y-126016777D01*
X187619778Y-125446546D01*
X187453864Y-125045995D01*
X187207745Y-124971861D01*
X186379605Y-125800000D01*
X186020395Y-125800000D01*
X185192255Y-124971861D01*
X184946136Y-125045995D01*
X184832644Y-125361741D01*
X181970903Y-122500000D01*
X184752560Y-122500000D01*
X184752560Y-124100000D01*
X184796838Y-124335317D01*
X184935910Y-124551441D01*
X185148110Y-124696431D01*
X185386201Y-124744646D01*
X185371861Y-124792255D01*
X186200000Y-125620395D01*
X187028139Y-124792255D01*
X187013855Y-124744833D01*
X187235317Y-124703162D01*
X187451441Y-124564090D01*
X187596431Y-124351890D01*
X187647440Y-124100000D01*
X187647440Y-122500000D01*
X187603162Y-122264683D01*
X187464090Y-122048559D01*
X187251890Y-121903569D01*
X187000000Y-121852560D01*
X185400000Y-121852560D01*
X185164683Y-121896838D01*
X184948559Y-122035910D01*
X184803569Y-122248110D01*
X184752560Y-122500000D01*
X181970903Y-122500000D01*
X179486081Y-120015179D01*
X179550608Y-119790213D01*
X178750000Y-118989605D01*
X178735858Y-119003748D01*
X178556253Y-118824143D01*
X178570395Y-118810000D01*
X178929605Y-118810000D01*
X179730213Y-119610608D01*
X179972397Y-119541143D01*
X180022509Y-119400682D01*
X180104990Y-119600303D01*
X180497630Y-119993629D01*
X181010900Y-120206757D01*
X181566661Y-120207242D01*
X182080303Y-119995010D01*
X182473629Y-119602370D01*
X182686757Y-119089100D01*
X182687242Y-118533339D01*
X182475010Y-118019697D01*
X182082370Y-117626371D01*
X181569100Y-117413243D01*
X181013339Y-117412758D01*
X180499697Y-117624990D01*
X180106371Y-118017630D01*
X180026605Y-118209727D01*
X179972397Y-118078857D01*
X179730213Y-118009392D01*
X178929605Y-118810000D01*
X178570395Y-118810000D01*
X178556253Y-118795858D01*
X178735858Y-118616253D01*
X178750000Y-118630395D01*
X179550608Y-117829787D01*
X179481143Y-117587603D01*
X178957698Y-117400856D01*
X178402632Y-117428638D01*
X178240000Y-117496002D01*
X178240000Y-115000000D01*
X178182148Y-114709161D01*
X178017401Y-114462599D01*
X176141743Y-112586941D01*
X176486661Y-112587242D01*
X177000303Y-112375010D01*
X177205457Y-112170213D01*
X177949392Y-112170213D01*
X178018857Y-112412397D01*
X178542302Y-112599144D01*
X179097368Y-112571362D01*
X179481143Y-112412397D01*
X179550608Y-112170213D01*
X178750000Y-111369605D01*
X177949392Y-112170213D01*
X177205457Y-112170213D01*
X177393629Y-111982370D01*
X177473395Y-111790273D01*
X177527603Y-111921143D01*
X177769787Y-111990608D01*
X178570395Y-111190000D01*
X177769787Y-110389392D01*
X177527603Y-110458857D01*
X177477491Y-110599318D01*
X177395010Y-110399697D01*
X177205432Y-110209787D01*
X177949392Y-110209787D01*
X178750000Y-111010395D01*
X179550608Y-110209787D01*
X179481143Y-109967603D01*
X178957698Y-109780856D01*
X178402632Y-109808638D01*
X178018857Y-109967603D01*
X177949392Y-110209787D01*
X177205432Y-110209787D01*
X177002370Y-110006371D01*
X176489100Y-109793243D01*
X175933339Y-109792758D01*
X175419697Y-110004990D01*
X175026371Y-110397630D01*
X174940051Y-110605512D01*
X174855010Y-110399697D01*
X174462370Y-110006371D01*
X173949100Y-109793243D01*
X173393339Y-109792758D01*
X172879697Y-110004990D01*
X172486371Y-110397630D01*
X172400051Y-110605512D01*
X172315010Y-110399697D01*
X171922370Y-110006371D01*
X171409100Y-109793243D01*
X170853339Y-109792758D01*
X170339697Y-110004990D01*
X169946371Y-110397630D01*
X169866605Y-110589727D01*
X169812397Y-110458857D01*
X169570213Y-110389392D01*
X168769605Y-111190000D01*
X169570213Y-111990608D01*
X169812397Y-111921143D01*
X169862509Y-111780682D01*
X169944990Y-111980303D01*
X170337630Y-112373629D01*
X170850900Y-112586757D01*
X171406661Y-112587242D01*
X171920303Y-112375010D01*
X172313629Y-111982370D01*
X172399949Y-111774488D01*
X172484990Y-111980303D01*
X172877630Y-112373629D01*
X173390900Y-112586757D01*
X173946661Y-112587242D01*
X173979055Y-112573857D01*
X176720000Y-115314802D01*
X176720000Y-117509121D01*
X176489100Y-117413243D01*
X175933339Y-117412758D01*
X175419697Y-117624990D01*
X175026371Y-118017630D01*
X174940051Y-118225512D01*
X174855010Y-118019697D01*
X174462370Y-117626371D01*
X173949100Y-117413243D01*
X173393339Y-117412758D01*
X172879697Y-117624990D01*
X172486371Y-118017630D01*
X172400051Y-118225512D01*
X172315010Y-118019697D01*
X171922370Y-117626371D01*
X171409100Y-117413243D01*
X170853339Y-117412758D01*
X170339697Y-117624990D01*
X169946371Y-118017630D01*
X169860051Y-118225512D01*
X169775010Y-118019697D01*
X169382370Y-117626371D01*
X168869100Y-117413243D01*
X168313339Y-117412758D01*
X167799697Y-117624990D01*
X167406371Y-118017630D01*
X167320051Y-118225512D01*
X167235010Y-118019697D01*
X166842370Y-117626371D01*
X166329100Y-117413243D01*
X165773339Y-117412758D01*
X165259697Y-117624990D01*
X164866371Y-118017630D01*
X164780051Y-118225512D01*
X164695010Y-118019697D01*
X164302370Y-117626371D01*
X163789100Y-117413243D01*
X163233339Y-117412758D01*
X162719697Y-117624990D01*
X162326371Y-118017630D01*
X162113243Y-118530900D01*
X162112758Y-119086661D01*
X162324990Y-119600303D01*
X162717630Y-119993629D01*
X163230900Y-120206757D01*
X163786661Y-120207242D01*
X164300303Y-119995010D01*
X164693629Y-119602370D01*
X164779949Y-119394488D01*
X164864990Y-119600303D01*
X165257630Y-119993629D01*
X165770900Y-120206757D01*
X166326661Y-120207242D01*
X166840303Y-119995010D01*
X167233629Y-119602370D01*
X167319949Y-119394488D01*
X167404990Y-119600303D01*
X167797630Y-119993629D01*
X168310900Y-120206757D01*
X168866661Y-120207242D01*
X169380303Y-119995010D01*
X169773629Y-119602370D01*
X169859949Y-119394488D01*
X169944990Y-119600303D01*
X170337630Y-119993629D01*
X170850900Y-120206757D01*
X171406661Y-120207242D01*
X171920303Y-119995010D01*
X172313629Y-119602370D01*
X172399949Y-119394488D01*
X172484990Y-119600303D01*
X172877630Y-119993629D01*
X173390900Y-120206757D01*
X173946661Y-120207242D01*
X174460303Y-119995010D01*
X174853629Y-119602370D01*
X174939949Y-119394488D01*
X175024990Y-119600303D01*
X175417630Y-119993629D01*
X175930900Y-120206757D01*
X176486661Y-120207242D01*
X177000303Y-119995010D01*
X177158443Y-119837145D01*
X185671199Y-128349902D01*
X185784043Y-128425301D01*
X185815130Y-128446072D01*
X185973473Y-128604692D01*
X186006706Y-128618492D01*
X183855198Y-130770000D01*
X181931531Y-130770000D01*
X181919010Y-130739697D01*
X181526370Y-130346371D01*
X181318488Y-130260051D01*
X181524303Y-130175010D01*
X181917629Y-129782370D01*
X182130757Y-129269100D01*
X182131242Y-128713339D01*
X181919010Y-128199697D01*
X181526370Y-127806371D01*
X181318488Y-127720051D01*
X181524303Y-127635010D01*
X181917629Y-127242370D01*
X182130757Y-126729100D01*
X182131242Y-126173339D01*
X181919010Y-125659697D01*
X181526370Y-125266371D01*
X181013100Y-125053243D01*
X180457339Y-125052758D01*
X179943697Y-125264990D01*
X179550371Y-125657630D01*
X179337243Y-126170900D01*
X179336758Y-126726661D01*
X179548990Y-127240303D01*
X179941630Y-127633629D01*
X180149512Y-127719949D01*
X179943697Y-127804990D01*
X179550371Y-128197630D01*
X179337243Y-128710900D01*
X179336758Y-129266661D01*
X179548990Y-129780303D01*
X179941630Y-130173629D01*
X180149512Y-130259949D01*
X179943697Y-130344990D01*
X179682231Y-130606000D01*
X155531400Y-130606000D01*
X155531400Y-120435000D01*
X155914250Y-120435000D01*
X156073000Y-120276250D01*
X156073000Y-118827000D01*
X156327000Y-118827000D01*
X156327000Y-120276250D01*
X156485750Y-120435000D01*
X157426310Y-120435000D01*
X157659699Y-120338327D01*
X157838327Y-120159698D01*
X157935000Y-119926309D01*
X157935000Y-118985750D01*
X157776250Y-118827000D01*
X156327000Y-118827000D01*
X156073000Y-118827000D01*
X156053000Y-118827000D01*
X156053000Y-118573000D01*
X156073000Y-118573000D01*
X156073000Y-117123750D01*
X156327000Y-117123750D01*
X156327000Y-118573000D01*
X157776250Y-118573000D01*
X157935000Y-118414250D01*
X157935000Y-118284187D01*
X157964752Y-118284187D01*
X158182757Y-118811800D01*
X158586077Y-119215824D01*
X158667931Y-119249813D01*
X158588200Y-119282757D01*
X158184176Y-119686077D01*
X157965250Y-120213309D01*
X157964752Y-120784187D01*
X158182757Y-121311800D01*
X158586077Y-121715824D01*
X159113309Y-121934750D01*
X159684187Y-121935248D01*
X160211800Y-121717243D01*
X160615824Y-121313923D01*
X160834750Y-120786691D01*
X160835248Y-120215813D01*
X160617243Y-119688200D01*
X160213923Y-119284176D01*
X160132069Y-119250187D01*
X160211800Y-119217243D01*
X160615824Y-118813923D01*
X160834750Y-118286691D01*
X160835248Y-117715813D01*
X160617243Y-117188200D01*
X160213923Y-116784176D01*
X159686691Y-116565250D01*
X159115813Y-116564752D01*
X158588200Y-116782757D01*
X158184176Y-117186077D01*
X157965250Y-117713309D01*
X157964752Y-118284187D01*
X157935000Y-118284187D01*
X157935000Y-117473691D01*
X157838327Y-117240302D01*
X157659699Y-117061673D01*
X157426310Y-116965000D01*
X156485750Y-116965000D01*
X156327000Y-117123750D01*
X156073000Y-117123750D01*
X155914250Y-116965000D01*
X155531400Y-116965000D01*
X155531400Y-112713819D01*
X155536044Y-112716922D01*
X156200000Y-112848991D01*
X156863956Y-112716922D01*
X157426830Y-112340821D01*
X157802931Y-111777947D01*
X157935000Y-111113991D01*
X157935000Y-111046009D01*
X157802931Y-110382053D01*
X157426830Y-109819179D01*
X157075141Y-109584187D01*
X157964752Y-109584187D01*
X158182757Y-110111800D01*
X158586077Y-110515824D01*
X158667931Y-110549813D01*
X158588200Y-110582757D01*
X158184176Y-110986077D01*
X157965250Y-111513309D01*
X157964752Y-112084187D01*
X158182757Y-112611800D01*
X158586077Y-113015824D01*
X159113309Y-113234750D01*
X159684187Y-113235248D01*
X160211800Y-113017243D01*
X160615824Y-112613923D01*
X160834750Y-112086691D01*
X160835248Y-111515813D01*
X160814939Y-111466661D01*
X162112758Y-111466661D01*
X162324990Y-111980303D01*
X162717630Y-112373629D01*
X163230900Y-112586757D01*
X163786661Y-112587242D01*
X164300303Y-112375010D01*
X164693629Y-111982370D01*
X164779949Y-111774488D01*
X164864990Y-111980303D01*
X165257630Y-112373629D01*
X165770900Y-112586757D01*
X166326661Y-112587242D01*
X166840303Y-112375010D01*
X167045457Y-112170213D01*
X167789392Y-112170213D01*
X167858857Y-112412397D01*
X168382302Y-112599144D01*
X168937368Y-112571362D01*
X169321143Y-112412397D01*
X169390608Y-112170213D01*
X168590000Y-111369605D01*
X167789392Y-112170213D01*
X167045457Y-112170213D01*
X167233629Y-111982370D01*
X167313395Y-111790273D01*
X167367603Y-111921143D01*
X167609787Y-111990608D01*
X168410395Y-111190000D01*
X167609787Y-110389392D01*
X167367603Y-110458857D01*
X167317491Y-110599318D01*
X167235010Y-110399697D01*
X167045432Y-110209787D01*
X167789392Y-110209787D01*
X168590000Y-111010395D01*
X169390608Y-110209787D01*
X169321143Y-109967603D01*
X168797698Y-109780856D01*
X168242632Y-109808638D01*
X167858857Y-109967603D01*
X167789392Y-110209787D01*
X167045432Y-110209787D01*
X166842370Y-110006371D01*
X166329100Y-109793243D01*
X165773339Y-109792758D01*
X165259697Y-110004990D01*
X164866371Y-110397630D01*
X164780051Y-110605512D01*
X164695010Y-110399697D01*
X164302370Y-110006371D01*
X163789100Y-109793243D01*
X163233339Y-109792758D01*
X162719697Y-110004990D01*
X162326371Y-110397630D01*
X162113243Y-110910900D01*
X162112758Y-111466661D01*
X160814939Y-111466661D01*
X160617243Y-110988200D01*
X160213923Y-110584176D01*
X160132069Y-110550187D01*
X160211800Y-110517243D01*
X160615824Y-110113923D01*
X160834750Y-109586691D01*
X160835248Y-109015813D01*
X160617243Y-108488200D01*
X160213923Y-108084176D01*
X159686691Y-107865250D01*
X159115813Y-107864752D01*
X158588200Y-108082757D01*
X158184176Y-108486077D01*
X157965250Y-109013309D01*
X157964752Y-109584187D01*
X157075141Y-109584187D01*
X156863956Y-109443078D01*
X156200000Y-109311009D01*
X155536044Y-109443078D01*
X155531400Y-109446181D01*
X155531400Y-109103402D01*
X157730619Y-106904183D01*
X157760900Y-106916757D01*
X158316661Y-106917242D01*
X158830303Y-106705010D01*
X159223629Y-106312370D01*
X159309949Y-106104488D01*
X159394990Y-106310303D01*
X159787630Y-106703629D01*
X160300900Y-106916757D01*
X160856661Y-106917242D01*
X161370303Y-106705010D01*
X161763629Y-106312370D01*
X161849949Y-106104488D01*
X161934990Y-106310303D01*
X162327630Y-106703629D01*
X162840900Y-106916757D01*
X163396661Y-106917242D01*
X163910303Y-106705010D01*
X164059235Y-106556337D01*
X164658299Y-107155401D01*
X164904861Y-107320148D01*
X165195700Y-107378000D01*
X166172400Y-107378000D01*
X166463239Y-107320148D01*
X166709801Y-107155401D01*
X167284709Y-106580493D01*
X167407630Y-106703629D01*
X167920900Y-106916757D01*
X168476661Y-106917242D01*
X168990303Y-106705010D01*
X169195457Y-106500213D01*
X169939392Y-106500213D01*
X170008857Y-106742397D01*
X170532302Y-106929144D01*
X171087368Y-106901362D01*
X171471143Y-106742397D01*
X171540608Y-106500213D01*
X170740000Y-105699605D01*
X169939392Y-106500213D01*
X169195457Y-106500213D01*
X169383629Y-106312370D01*
X169463395Y-106120273D01*
X169517603Y-106251143D01*
X169759787Y-106320608D01*
X170560395Y-105520000D01*
X170546253Y-105505858D01*
X170725858Y-105326253D01*
X170740000Y-105340395D01*
X170754143Y-105326253D01*
X170933748Y-105505858D01*
X170919605Y-105520000D01*
X171720213Y-106320608D01*
X171962397Y-106251143D01*
X172012509Y-106110682D01*
X172094990Y-106310303D01*
X172487630Y-106703629D01*
X173000900Y-106916757D01*
X173556661Y-106917242D01*
X174070303Y-106705010D01*
X174463629Y-106312370D01*
X174676757Y-105799100D01*
X174677242Y-105243339D01*
X174647683Y-105171800D01*
X176341698Y-105171800D01*
X180977475Y-109807577D01*
G36*
X192629361Y-116204163D02*
X192590262Y-116298325D01*
X192589738Y-116899040D01*
X192819138Y-117454229D01*
X193243537Y-117879370D01*
X193266469Y-117888892D01*
X193217545Y-118037940D01*
X194100000Y-118920395D01*
X194114143Y-118906253D01*
X194293748Y-119085858D01*
X194279605Y-119100000D01*
X194293748Y-119114143D01*
X194114143Y-119293748D01*
X194100000Y-119279605D01*
X194085858Y-119293748D01*
X193906253Y-119114143D01*
X193920395Y-119100000D01*
X193037940Y-118217545D01*
X192784047Y-118300884D01*
X192578410Y-118865306D01*
X192604421Y-119465458D01*
X192656008Y-119590000D01*
X187263102Y-119590000D01*
X186718845Y-119045743D01*
X187123131Y-118965325D01*
X187658754Y-118607433D01*
X188016646Y-118071810D01*
X188142321Y-117440000D01*
X188016646Y-116808190D01*
X187972573Y-116742229D01*
X188593702Y-116121100D01*
X192546298Y-116121100D01*
X192629361Y-116204163D01*
X192629361Y-116204163D01*
G37*
X192629361Y-116204163D02*
X192590262Y-116298325D01*
X192589738Y-116899040D01*
X192819138Y-117454229D01*
X193243537Y-117879370D01*
X193266469Y-117888892D01*
X193217545Y-118037940D01*
X194100000Y-118920395D01*
X194114143Y-118906253D01*
X194293748Y-119085858D01*
X194279605Y-119100000D01*
X194293748Y-119114143D01*
X194114143Y-119293748D01*
X194100000Y-119279605D01*
X194085858Y-119293748D01*
X193906253Y-119114143D01*
X193920395Y-119100000D01*
X193037940Y-118217545D01*
X192784047Y-118300884D01*
X192578410Y-118865306D01*
X192604421Y-119465458D01*
X192656008Y-119590000D01*
X187263102Y-119590000D01*
X186718845Y-119045743D01*
X187123131Y-118965325D01*
X187658754Y-118607433D01*
X188016646Y-118071810D01*
X188142321Y-117440000D01*
X188016646Y-116808190D01*
X187972573Y-116742229D01*
X188593702Y-116121100D01*
X192546298Y-116121100D01*
X192629361Y-116204163D01*
G36*
X184061800Y-82766002D02*
X184061800Y-86032298D01*
X182001279Y-83971777D01*
X182014698Y-83962811D01*
X182325767Y-83497264D01*
X182435000Y-82948113D01*
X182435000Y-82891887D01*
X182325767Y-82342736D01*
X182014698Y-81877189D01*
X181549151Y-81566120D01*
X181000000Y-81456887D01*
X180450849Y-81566120D01*
X179985302Y-81877189D01*
X179674233Y-82342736D01*
X179565000Y-82891887D01*
X179565000Y-82948113D01*
X179674233Y-83497264D01*
X179985302Y-83962811D01*
X180260118Y-84146437D01*
X180297852Y-84336139D01*
X180462599Y-84582701D01*
X183247700Y-87367802D01*
X183247700Y-87583896D01*
X183207745Y-87571861D01*
X182379605Y-88400000D01*
X183207745Y-89228139D01*
X183247700Y-89216104D01*
X183247700Y-97407700D01*
X183305552Y-97698539D01*
X183470299Y-97945101D01*
X192629361Y-107104163D01*
X192590262Y-107198325D01*
X192589738Y-107799040D01*
X192819138Y-108354229D01*
X192996802Y-108532203D01*
X192865301Y-108586673D01*
X192686673Y-108765302D01*
X192590000Y-108998691D01*
X192590000Y-109714250D01*
X192748750Y-109873000D01*
X193973000Y-109873000D01*
X193973000Y-109853000D01*
X194227000Y-109853000D01*
X194227000Y-109873000D01*
X194247000Y-109873000D01*
X194247000Y-110127000D01*
X194227000Y-110127000D01*
X194227000Y-111351250D01*
X194385750Y-111510000D01*
X195010700Y-111510000D01*
X195010700Y-115374962D01*
X194956463Y-115320630D01*
X194401675Y-115090262D01*
X193800960Y-115089738D01*
X193704427Y-115129625D01*
X193398501Y-114823699D01*
X193151939Y-114658952D01*
X192861100Y-114601100D01*
X189038900Y-114601100D01*
X189038900Y-110978900D01*
X189005968Y-110813339D01*
X188981048Y-110688060D01*
X188816301Y-110441499D01*
X188660552Y-110285750D01*
X192590000Y-110285750D01*
X192590000Y-111001309D01*
X192686673Y-111234698D01*
X192865301Y-111413327D01*
X193098690Y-111510000D01*
X193814250Y-111510000D01*
X193973000Y-111351250D01*
X193973000Y-110127000D01*
X192748750Y-110127000D01*
X192590000Y-110285750D01*
X188660552Y-110285750D01*
X183336088Y-104961286D01*
X183354005Y-104953864D01*
X183428139Y-104707745D01*
X182600000Y-103879605D01*
X182585858Y-103893748D01*
X182406252Y-103714142D01*
X182420395Y-103700000D01*
X182779605Y-103700000D01*
X183607745Y-104528139D01*
X183853864Y-104454005D01*
X184046965Y-103916777D01*
X184019778Y-103346546D01*
X183853864Y-102945995D01*
X183607745Y-102871861D01*
X182779605Y-103700000D01*
X182420395Y-103700000D01*
X181592255Y-102871861D01*
X181346136Y-102945995D01*
X181339436Y-102964634D01*
X181067057Y-102692255D01*
X181771861Y-102692255D01*
X182600000Y-103520395D01*
X183428139Y-102692255D01*
X183354005Y-102446136D01*
X182816777Y-102253035D01*
X182246546Y-102280222D01*
X181845995Y-102446136D01*
X181771861Y-102692255D01*
X181067057Y-102692255D01*
X178469400Y-100094598D01*
X178469400Y-90530702D01*
X178937401Y-90062701D01*
X179081233Y-89847440D01*
X179200000Y-89847440D01*
X179435317Y-89803162D01*
X179651441Y-89664090D01*
X179796431Y-89451890D01*
X179805370Y-89407745D01*
X181371861Y-89407745D01*
X181445995Y-89653864D01*
X181983223Y-89846965D01*
X182553454Y-89819778D01*
X182954005Y-89653864D01*
X183028139Y-89407745D01*
X182200000Y-88579605D01*
X181371861Y-89407745D01*
X179805370Y-89407745D01*
X179847440Y-89200000D01*
X179847440Y-88183223D01*
X180753035Y-88183223D01*
X180780222Y-88753454D01*
X180946136Y-89154005D01*
X181192255Y-89228139D01*
X182020395Y-88400000D01*
X181192255Y-87571861D01*
X180946136Y-87645995D01*
X180753035Y-88183223D01*
X179847440Y-88183223D01*
X179847440Y-87600000D01*
X179808351Y-87392255D01*
X181371861Y-87392255D01*
X182200000Y-88220395D01*
X183028139Y-87392255D01*
X182954005Y-87146136D01*
X182416777Y-86953035D01*
X181846546Y-86980222D01*
X181445995Y-87146136D01*
X181371861Y-87392255D01*
X179808351Y-87392255D01*
X179803162Y-87364683D01*
X179664090Y-87148559D01*
X179451890Y-87003569D01*
X179200000Y-86952560D01*
X177955933Y-86952560D01*
X177897216Y-86864683D01*
X177812112Y-86737309D01*
X175830591Y-84755711D01*
X179369201Y-81217101D01*
X179533948Y-80970540D01*
X179569799Y-80790303D01*
X179591800Y-80679700D01*
X179591800Y-78296002D01*
X184061800Y-82766002D01*
X184061800Y-82766002D01*
G37*
X184061800Y-82766002D02*
X184061800Y-86032298D01*
X182001279Y-83971777D01*
X182014698Y-83962811D01*
X182325767Y-83497264D01*
X182435000Y-82948113D01*
X182435000Y-82891887D01*
X182325767Y-82342736D01*
X182014698Y-81877189D01*
X181549151Y-81566120D01*
X181000000Y-81456887D01*
X180450849Y-81566120D01*
X179985302Y-81877189D01*
X179674233Y-82342736D01*
X179565000Y-82891887D01*
X179565000Y-82948113D01*
X179674233Y-83497264D01*
X179985302Y-83962811D01*
X180260118Y-84146437D01*
X180297852Y-84336139D01*
X180462599Y-84582701D01*
X183247700Y-87367802D01*
X183247700Y-87583896D01*
X183207745Y-87571861D01*
X182379605Y-88400000D01*
X183207745Y-89228139D01*
X183247700Y-89216104D01*
X183247700Y-97407700D01*
X183305552Y-97698539D01*
X183470299Y-97945101D01*
X192629361Y-107104163D01*
X192590262Y-107198325D01*
X192589738Y-107799040D01*
X192819138Y-108354229D01*
X192996802Y-108532203D01*
X192865301Y-108586673D01*
X192686673Y-108765302D01*
X192590000Y-108998691D01*
X192590000Y-109714250D01*
X192748750Y-109873000D01*
X193973000Y-109873000D01*
X193973000Y-109853000D01*
X194227000Y-109853000D01*
X194227000Y-109873000D01*
X194247000Y-109873000D01*
X194247000Y-110127000D01*
X194227000Y-110127000D01*
X194227000Y-111351250D01*
X194385750Y-111510000D01*
X195010700Y-111510000D01*
X195010700Y-115374962D01*
X194956463Y-115320630D01*
X194401675Y-115090262D01*
X193800960Y-115089738D01*
X193704427Y-115129625D01*
X193398501Y-114823699D01*
X193151939Y-114658952D01*
X192861100Y-114601100D01*
X189038900Y-114601100D01*
X189038900Y-110978900D01*
X189005968Y-110813339D01*
X188981048Y-110688060D01*
X188816301Y-110441499D01*
X188660552Y-110285750D01*
X192590000Y-110285750D01*
X192590000Y-111001309D01*
X192686673Y-111234698D01*
X192865301Y-111413327D01*
X193098690Y-111510000D01*
X193814250Y-111510000D01*
X193973000Y-111351250D01*
X193973000Y-110127000D01*
X192748750Y-110127000D01*
X192590000Y-110285750D01*
X188660552Y-110285750D01*
X183336088Y-104961286D01*
X183354005Y-104953864D01*
X183428139Y-104707745D01*
X182600000Y-103879605D01*
X182585858Y-103893748D01*
X182406252Y-103714142D01*
X182420395Y-103700000D01*
X182779605Y-103700000D01*
X183607745Y-104528139D01*
X183853864Y-104454005D01*
X184046965Y-103916777D01*
X184019778Y-103346546D01*
X183853864Y-102945995D01*
X183607745Y-102871861D01*
X182779605Y-103700000D01*
X182420395Y-103700000D01*
X181592255Y-102871861D01*
X181346136Y-102945995D01*
X181339436Y-102964634D01*
X181067057Y-102692255D01*
X181771861Y-102692255D01*
X182600000Y-103520395D01*
X183428139Y-102692255D01*
X183354005Y-102446136D01*
X182816777Y-102253035D01*
X182246546Y-102280222D01*
X181845995Y-102446136D01*
X181771861Y-102692255D01*
X181067057Y-102692255D01*
X178469400Y-100094598D01*
X178469400Y-90530702D01*
X178937401Y-90062701D01*
X179081233Y-89847440D01*
X179200000Y-89847440D01*
X179435317Y-89803162D01*
X179651441Y-89664090D01*
X179796431Y-89451890D01*
X179805370Y-89407745D01*
X181371861Y-89407745D01*
X181445995Y-89653864D01*
X181983223Y-89846965D01*
X182553454Y-89819778D01*
X182954005Y-89653864D01*
X183028139Y-89407745D01*
X182200000Y-88579605D01*
X181371861Y-89407745D01*
X179805370Y-89407745D01*
X179847440Y-89200000D01*
X179847440Y-88183223D01*
X180753035Y-88183223D01*
X180780222Y-88753454D01*
X180946136Y-89154005D01*
X181192255Y-89228139D01*
X182020395Y-88400000D01*
X181192255Y-87571861D01*
X180946136Y-87645995D01*
X180753035Y-88183223D01*
X179847440Y-88183223D01*
X179847440Y-87600000D01*
X179808351Y-87392255D01*
X181371861Y-87392255D01*
X182200000Y-88220395D01*
X183028139Y-87392255D01*
X182954005Y-87146136D01*
X182416777Y-86953035D01*
X181846546Y-86980222D01*
X181445995Y-87146136D01*
X181371861Y-87392255D01*
X179808351Y-87392255D01*
X179803162Y-87364683D01*
X179664090Y-87148559D01*
X179451890Y-87003569D01*
X179200000Y-86952560D01*
X177955933Y-86952560D01*
X177897216Y-86864683D01*
X177812112Y-86737309D01*
X175830591Y-84755711D01*
X179369201Y-81217101D01*
X179533948Y-80970540D01*
X179569799Y-80790303D01*
X179591800Y-80679700D01*
X179591800Y-78296002D01*
X184061800Y-82766002D01*
G36*
X192819138Y-87454229D02*
X193243537Y-87879370D01*
X193266469Y-87888892D01*
X193217545Y-88037940D01*
X194100000Y-88920395D01*
X194114143Y-88906253D01*
X194293748Y-89085858D01*
X194279605Y-89100000D01*
X194293748Y-89114143D01*
X194114143Y-89293748D01*
X194100000Y-89279605D01*
X194085858Y-89293748D01*
X193906253Y-89114143D01*
X193920395Y-89100000D01*
X193037940Y-88217545D01*
X192784047Y-88300884D01*
X192578410Y-88865306D01*
X192604421Y-89465458D01*
X192784047Y-89899116D01*
X193037938Y-89982454D01*
X192923306Y-90097086D01*
X192964356Y-90138136D01*
X192773559Y-90260910D01*
X192628569Y-90473110D01*
X192577560Y-90725000D01*
X192577560Y-92475000D01*
X192621838Y-92710317D01*
X192760910Y-92926441D01*
X192973110Y-93071431D01*
X193225000Y-93122440D01*
X194594000Y-93122440D01*
X194594000Y-96731198D01*
X194495837Y-96829361D01*
X194401675Y-96790262D01*
X193800960Y-96789738D01*
X193245771Y-97019138D01*
X192820630Y-97443537D01*
X192746665Y-97621663D01*
X186032200Y-90907198D01*
X186032200Y-89347440D01*
X187200000Y-89347440D01*
X187435317Y-89303162D01*
X187651441Y-89164090D01*
X187796431Y-88951890D01*
X187805370Y-88907745D01*
X188071861Y-88907745D01*
X188145995Y-89153864D01*
X188683223Y-89346965D01*
X189253454Y-89319778D01*
X189654005Y-89153864D01*
X189728139Y-88907745D01*
X188900000Y-88079605D01*
X188071861Y-88907745D01*
X187805370Y-88907745D01*
X187844646Y-88713799D01*
X187892255Y-88728139D01*
X188720395Y-87900000D01*
X188706252Y-87885858D01*
X188885858Y-87706252D01*
X188900000Y-87720395D01*
X188914143Y-87706253D01*
X189093748Y-87885858D01*
X189079605Y-87900000D01*
X189907745Y-88728139D01*
X190153864Y-88654005D01*
X190346965Y-88116777D01*
X190319778Y-87546546D01*
X190242508Y-87360000D01*
X192780203Y-87360000D01*
X192819138Y-87454229D01*
X192819138Y-87454229D01*
G37*
X192819138Y-87454229D02*
X193243537Y-87879370D01*
X193266469Y-87888892D01*
X193217545Y-88037940D01*
X194100000Y-88920395D01*
X194114143Y-88906253D01*
X194293748Y-89085858D01*
X194279605Y-89100000D01*
X194293748Y-89114143D01*
X194114143Y-89293748D01*
X194100000Y-89279605D01*
X194085858Y-89293748D01*
X193906253Y-89114143D01*
X193920395Y-89100000D01*
X193037940Y-88217545D01*
X192784047Y-88300884D01*
X192578410Y-88865306D01*
X192604421Y-89465458D01*
X192784047Y-89899116D01*
X193037938Y-89982454D01*
X192923306Y-90097086D01*
X192964356Y-90138136D01*
X192773559Y-90260910D01*
X192628569Y-90473110D01*
X192577560Y-90725000D01*
X192577560Y-92475000D01*
X192621838Y-92710317D01*
X192760910Y-92926441D01*
X192973110Y-93071431D01*
X193225000Y-93122440D01*
X194594000Y-93122440D01*
X194594000Y-96731198D01*
X194495837Y-96829361D01*
X194401675Y-96790262D01*
X193800960Y-96789738D01*
X193245771Y-97019138D01*
X192820630Y-97443537D01*
X192746665Y-97621663D01*
X186032200Y-90907198D01*
X186032200Y-89347440D01*
X187200000Y-89347440D01*
X187435317Y-89303162D01*
X187651441Y-89164090D01*
X187796431Y-88951890D01*
X187805370Y-88907745D01*
X188071861Y-88907745D01*
X188145995Y-89153864D01*
X188683223Y-89346965D01*
X189253454Y-89319778D01*
X189654005Y-89153864D01*
X189728139Y-88907745D01*
X188900000Y-88079605D01*
X188071861Y-88907745D01*
X187805370Y-88907745D01*
X187844646Y-88713799D01*
X187892255Y-88728139D01*
X188720395Y-87900000D01*
X188706252Y-87885858D01*
X188885858Y-87706252D01*
X188900000Y-87720395D01*
X188914143Y-87706253D01*
X189093748Y-87885858D01*
X189079605Y-87900000D01*
X189907745Y-88728139D01*
X190153864Y-88654005D01*
X190346965Y-88116777D01*
X190319778Y-87546546D01*
X190242508Y-87360000D01*
X192780203Y-87360000D01*
X192819138Y-87454229D01*
M02*
