G04 #@! TF.FileFunction,Copper,L1,Top,Signal*
%FSLAX46Y46*%
G04 Gerber Fmt 4.6, Leading zero omitted, Abs format (unit mm)*
G04 Created by KiCad (PCBNEW 4.0.6+dfsg1-1) date Sat Feb 24 17:26:48 2018*
%MOMM*%
%LPD*%
G01*
G04 APERTURE LIST*
%ADD10C,0.100000*%
%ADD11R,1.600000X1.600000*%
%ADD12C,1.600000*%
%ADD13O,2.540000X2.032000*%
%ADD14O,1.600000X1.600000*%
%ADD15R,1.750000X1.750000*%
%ADD16C,1.750000*%
%ADD17C,1.524000*%
%ADD18R,2.200000X2.200000*%
%ADD19O,2.200000X2.200000*%
%ADD20C,0.600000*%
%ADD21C,0.250000*%
%ADD22C,0.254000*%
G04 APERTURE END LIST*
D10*
D11*
X101500000Y-134100000D03*
D12*
X99000000Y-134100000D03*
D11*
X186200000Y-123300000D03*
D12*
X186200000Y-125800000D03*
D13*
X186200000Y-114900000D03*
X186200000Y-117440000D03*
X186200000Y-112360000D03*
D12*
X184400000Y-80000000D03*
D14*
X184400000Y-72380000D03*
D12*
X181000000Y-65400000D03*
D14*
X181000000Y-73020000D03*
D12*
X104400000Y-75400000D03*
D14*
X104400000Y-83020000D03*
D12*
X104000000Y-129500000D03*
D14*
X96380000Y-129500000D03*
D12*
X104000000Y-126100000D03*
D14*
X96380000Y-126100000D03*
D12*
X104000000Y-122700000D03*
D14*
X96380000Y-122700000D03*
D12*
X108100000Y-75400000D03*
D14*
X108100000Y-83020000D03*
D12*
X181000000Y-75300000D03*
D14*
X181000000Y-82920000D03*
D12*
X177700000Y-65400000D03*
D14*
X177700000Y-73020000D03*
D15*
X92200000Y-125300000D03*
D16*
X92200000Y-127800000D03*
X92200000Y-130300000D03*
X92200000Y-132800000D03*
D15*
X185900000Y-139600000D03*
D16*
X188400000Y-139600000D03*
D15*
X109800000Y-68300000D03*
D16*
X107300000Y-68300000D03*
D15*
X194100000Y-110000000D03*
D16*
X194100000Y-107500000D03*
D17*
X173670000Y-111190000D03*
X176210000Y-111190000D03*
X178750000Y-111190000D03*
X181290000Y-111190000D03*
X171130000Y-111190000D03*
X168590000Y-111190000D03*
X166050000Y-111190000D03*
X163510000Y-111190000D03*
X181290000Y-118810000D03*
X178750000Y-118810000D03*
X176210000Y-118810000D03*
X173670000Y-118810000D03*
X171130000Y-118810000D03*
X168590000Y-118810000D03*
X166050000Y-118810000D03*
X163510000Y-118810000D03*
D15*
X194100000Y-100800000D03*
D16*
X194100000Y-98300000D03*
D12*
X126400000Y-107000000D03*
D14*
X134020000Y-107000000D03*
D11*
X136000000Y-127800000D03*
D14*
X143620000Y-135420000D03*
X136000000Y-130340000D03*
X143620000Y-132880000D03*
X136000000Y-132880000D03*
X143620000Y-130340000D03*
X136000000Y-135420000D03*
X143620000Y-127800000D03*
D17*
X146700000Y-111090000D03*
X149240000Y-111090000D03*
X151780000Y-111090000D03*
X144160000Y-111090000D03*
X141620000Y-111090000D03*
X146700000Y-118710000D03*
X149240000Y-118710000D03*
X151780000Y-118710000D03*
X144160000Y-118710000D03*
X141620000Y-118710000D03*
D15*
X188200000Y-68100000D03*
D16*
X185700000Y-68100000D03*
D15*
X99700000Y-139900000D03*
D16*
X102200000Y-139900000D03*
D15*
X101100000Y-68300000D03*
D16*
X98600000Y-68300000D03*
D15*
X194100000Y-77400000D03*
D16*
X194100000Y-74900000D03*
D15*
X194100000Y-91600000D03*
D16*
X194100000Y-89100000D03*
X194100000Y-86600000D03*
X194100000Y-84100000D03*
D11*
X123400000Y-111600000D03*
D12*
X125400000Y-111600000D03*
X159400000Y-111800000D03*
X159400000Y-109300000D03*
X124100000Y-107000000D03*
X121600000Y-107000000D03*
X159400000Y-118000000D03*
X159400000Y-120500000D03*
D15*
X92500000Y-74200000D03*
D16*
X92500000Y-76700000D03*
X92500000Y-79200000D03*
X92500000Y-81700000D03*
D15*
X194100000Y-124100000D03*
D16*
X194100000Y-121600000D03*
X194100000Y-119100000D03*
X194100000Y-116600000D03*
D11*
X183400000Y-103700000D03*
D12*
X187200000Y-103700000D03*
D11*
X183450000Y-92150000D03*
D12*
X187250000Y-92150000D03*
D11*
X137800000Y-139600000D03*
D12*
X137800000Y-142100000D03*
D11*
X123400000Y-117500000D03*
D12*
X125400000Y-117500000D03*
D11*
X186400000Y-84450000D03*
D12*
X188900000Y-84450000D03*
D11*
X129000000Y-111600000D03*
D12*
X131500000Y-111600000D03*
D11*
X135100000Y-117500000D03*
D12*
X137100000Y-117500000D03*
D11*
X135100000Y-111600000D03*
D12*
X137100000Y-111600000D03*
D11*
X129300000Y-117500000D03*
D12*
X131300000Y-117500000D03*
D15*
X194100000Y-133300000D03*
D16*
X194100000Y-130800000D03*
D17*
X122940000Y-97510000D03*
X122940000Y-89890000D03*
X92460000Y-97510000D03*
X92460000Y-89890000D03*
X140990000Y-66298500D03*
X143530000Y-66298500D03*
X146070000Y-66298500D03*
X148610000Y-66298500D03*
X151150000Y-66298500D03*
X153690000Y-66298500D03*
X156230000Y-66298500D03*
X158770000Y-66298500D03*
X174010000Y-66298500D03*
X171470000Y-66298500D03*
X168930000Y-66298500D03*
X166390000Y-66298500D03*
X163850000Y-66298500D03*
X161310000Y-66298500D03*
X161310000Y-85501500D03*
X163850000Y-85501500D03*
X166390000Y-85501500D03*
X168930000Y-85501500D03*
X171470000Y-85501500D03*
X174010000Y-85501500D03*
X158770000Y-85501500D03*
X156230000Y-85501500D03*
X153690000Y-85501500D03*
X151150000Y-85501500D03*
X148610000Y-85501500D03*
X146070000Y-85501500D03*
X143530000Y-85501500D03*
X140990000Y-85501500D03*
X180734000Y-134070000D03*
X180734000Y-136610000D03*
X180734000Y-139150000D03*
X180734000Y-131530000D03*
X180734000Y-128990000D03*
X180734000Y-126450000D03*
X106830000Y-121270000D03*
X119530000Y-121270000D03*
X133500000Y-141590000D03*
X133500000Y-139050000D03*
X133500000Y-136510000D03*
X133500000Y-133970000D03*
X133500000Y-131430000D03*
X133500000Y-128890000D03*
X133500000Y-126350000D03*
X133500000Y-123810000D03*
X91170000Y-115610000D03*
X91170000Y-107990000D03*
X91170000Y-105145200D03*
X91170000Y-118454800D03*
X114030000Y-105450000D03*
X114030000Y-118150000D03*
X96504000Y-118150000D03*
X96504000Y-105450000D03*
X161390000Y-90280000D03*
X163930000Y-90280000D03*
X166470000Y-90280000D03*
X169010000Y-90280000D03*
X171550000Y-90280000D03*
X174090000Y-90280000D03*
X176630000Y-90280000D03*
X158850000Y-90280000D03*
X156310000Y-90280000D03*
X153770000Y-90280000D03*
X151230000Y-90280000D03*
X148690000Y-90280000D03*
X146150000Y-90280000D03*
X143610000Y-90280000D03*
X141070000Y-90280000D03*
X141070000Y-105520000D03*
X143610000Y-105520000D03*
X146150000Y-105520000D03*
X148690000Y-105520000D03*
X151230000Y-105520000D03*
X153770000Y-105520000D03*
X156310000Y-105520000D03*
X158850000Y-105520000D03*
X161390000Y-105520000D03*
X163930000Y-105520000D03*
X166470000Y-105520000D03*
X169010000Y-105520000D03*
X171550000Y-105520000D03*
X174090000Y-105520000D03*
X176630000Y-105520000D03*
X136050000Y-104200000D03*
X136050000Y-91600000D03*
X114000000Y-78950000D03*
X114000000Y-75950000D03*
X114000000Y-72950000D03*
X114000000Y-69950000D03*
X137800000Y-68250000D03*
X137800000Y-71250000D03*
X137800000Y-77650000D03*
X137800000Y-80650000D03*
D18*
X156200000Y-111050000D03*
D19*
X156200000Y-118670000D03*
D20*
X171148900Y-98694800D03*
X146278800Y-101129200D03*
D21*
X151820000Y-111050000D02*
X151780000Y-111090000D01*
X156200000Y-111050000D02*
X151820000Y-111050000D01*
X168930000Y-66298500D02*
X171470000Y-66298500D01*
X143620000Y-130340000D02*
X136000000Y-130340000D01*
X100900300Y-140350200D02*
X100900300Y-139900000D01*
X101650400Y-141100300D02*
X100900300Y-140350200D01*
X131449700Y-141100300D02*
X101650400Y-141100300D01*
X133500000Y-139050000D02*
X131449700Y-141100300D01*
X99700000Y-139900000D02*
X100900300Y-139900000D01*
X186200000Y-133684000D02*
X186200000Y-125800000D01*
X180734000Y-139150000D02*
X186200000Y-133684000D01*
X187400000Y-125800000D02*
X194100000Y-119100000D01*
X186200000Y-125800000D02*
X187400000Y-125800000D01*
X192899700Y-109399700D02*
X187200000Y-103700000D01*
X192899700Y-110000000D02*
X192899700Y-109399700D01*
X194100000Y-110000000D02*
X192899700Y-110000000D01*
X191050000Y-92150000D02*
X194100000Y-89100000D01*
X187250000Y-92150000D02*
X191050000Y-92150000D01*
X111000000Y-85570000D02*
X104400000Y-85570000D01*
X122940000Y-97510000D02*
X111000000Y-85570000D01*
X92460000Y-97510000D02*
X104400000Y-85570000D01*
X104400000Y-85570000D02*
X104400000Y-83020000D01*
X172561300Y-86592800D02*
X171470000Y-85501500D01*
X186757200Y-86592800D02*
X172561300Y-86592800D01*
X188900000Y-84450000D02*
X186757200Y-86592800D01*
X90075600Y-106239600D02*
X91170000Y-105145200D01*
X90075600Y-108775600D02*
X90075600Y-106239600D01*
X104000000Y-122700000D02*
X90075600Y-108775600D01*
X92460000Y-103855200D02*
X92460000Y-97510000D01*
X91170000Y-105145200D02*
X92460000Y-103855200D01*
X151820000Y-118670000D02*
X156200000Y-118670000D01*
X151780000Y-118710000D02*
X151820000Y-118670000D01*
X163131300Y-116648700D02*
X168590000Y-111190000D01*
X159112100Y-116648700D02*
X163131300Y-116648700D01*
X157625300Y-118135500D02*
X159112100Y-116648700D01*
X157625300Y-118670000D02*
X157625300Y-118135500D01*
X156200000Y-118670000D02*
X157625300Y-118670000D01*
X179720900Y-120379100D02*
X181290000Y-118810000D01*
X167619100Y-120379100D02*
X179720900Y-120379100D01*
X166050000Y-118810000D02*
X167619100Y-120379100D01*
X108420000Y-125080000D02*
X104000000Y-129500000D01*
X159780000Y-125080000D02*
X108420000Y-125080000D01*
X166050000Y-118810000D02*
X159780000Y-125080000D01*
X94874700Y-132974700D02*
X92200000Y-130300000D01*
X99530800Y-132974700D02*
X94874700Y-132974700D01*
X100374700Y-133818600D02*
X99530800Y-132974700D01*
X100374700Y-134100000D02*
X100374700Y-133818600D01*
X101500000Y-134100000D02*
X100374700Y-134100000D01*
X175061500Y-84450000D02*
X186400000Y-84450000D01*
X174010000Y-85501500D02*
X175061500Y-84450000D01*
X188635300Y-116600000D02*
X187795300Y-117440000D01*
X194100000Y-116600000D02*
X188635300Y-116600000D01*
X191130100Y-86600000D02*
X194100000Y-86600000D01*
X185580100Y-92150000D02*
X191130100Y-86600000D01*
X183450000Y-92150000D02*
X185580100Y-92150000D01*
X183450000Y-92150000D02*
X182324700Y-92150000D01*
X182324700Y-92205300D02*
X169010000Y-105520000D01*
X182324700Y-92150000D02*
X182324700Y-92205300D01*
X123841200Y-89890000D02*
X122940000Y-89890000D01*
X141029100Y-107077900D02*
X123841200Y-89890000D01*
X167452100Y-107077900D02*
X141029100Y-107077900D01*
X169010000Y-105520000D02*
X167452100Y-107077900D01*
X186200000Y-123300000D02*
X186200000Y-124425300D01*
X143620000Y-127800000D02*
X144745300Y-127800000D01*
X181865500Y-135478500D02*
X180734000Y-136610000D01*
X181865500Y-127800000D02*
X181865500Y-135478500D01*
X185240200Y-124425300D02*
X181865500Y-127800000D01*
X186200000Y-124425300D02*
X185240200Y-124425300D01*
X181865500Y-127800000D02*
X144745300Y-127800000D01*
X186200000Y-117440000D02*
X186997700Y-117440000D01*
X186997700Y-117440000D02*
X187795300Y-117440000D01*
X186997700Y-121377000D02*
X186200000Y-122174700D01*
X186997700Y-117440000D02*
X186997700Y-121377000D01*
X186200000Y-123300000D02*
X186200000Y-122174700D01*
X159677700Y-117722300D02*
X159400000Y-118000000D01*
X170042300Y-117722300D02*
X159677700Y-117722300D01*
X171130000Y-118810000D02*
X170042300Y-117722300D01*
X148490000Y-109300000D02*
X146700000Y-111090000D01*
X159400000Y-109300000D02*
X148490000Y-109300000D01*
X112604700Y-121270000D02*
X122274700Y-111600000D01*
X106830000Y-121270000D02*
X112604700Y-121270000D01*
X123400000Y-111600000D02*
X122274700Y-111600000D01*
X148490000Y-120500000D02*
X146700000Y-118710000D01*
X159400000Y-120500000D02*
X148490000Y-120500000D01*
X147603000Y-112727000D02*
X149240000Y-111090000D01*
X134095700Y-112727000D02*
X147603000Y-112727000D01*
X133459300Y-112090600D02*
X134095700Y-112727000D01*
X133459300Y-111945400D02*
X133459300Y-112090600D01*
X131914400Y-110400500D02*
X133459300Y-111945400D01*
X131035500Y-110400500D02*
X131914400Y-110400500D01*
X130369200Y-111066800D02*
X131035500Y-110400500D01*
X130369200Y-114389000D02*
X130369200Y-111066800D01*
X131300000Y-115319800D02*
X130369200Y-114389000D01*
X131300000Y-117500000D02*
X131300000Y-115319800D01*
X128511000Y-114389000D02*
X125400000Y-117500000D01*
X130369200Y-114389000D02*
X128511000Y-114389000D01*
X144086000Y-113556000D02*
X149240000Y-118710000D01*
X133456000Y-113556000D02*
X144086000Y-113556000D01*
X131500000Y-111600000D02*
X133456000Y-113556000D01*
X142950000Y-117500000D02*
X144160000Y-118710000D01*
X137100000Y-117500000D02*
X142950000Y-117500000D01*
X179384000Y-135420000D02*
X143620000Y-135420000D01*
X180734000Y-134070000D02*
X179384000Y-135420000D01*
X133573500Y-136583500D02*
X133500000Y-136510000D01*
X141331200Y-136583500D02*
X133573500Y-136583500D01*
X142494700Y-135420000D02*
X141331200Y-136583500D01*
X143620000Y-135420000D02*
X142494700Y-135420000D01*
X133590000Y-134060000D02*
X133500000Y-133970000D01*
X141314700Y-134060000D02*
X133590000Y-134060000D01*
X142494700Y-132880000D02*
X141314700Y-134060000D01*
X143620000Y-132880000D02*
X142494700Y-132880000D01*
X177493000Y-65193000D02*
X177700000Y-65400000D01*
X149715500Y-65193000D02*
X177493000Y-65193000D01*
X148610000Y-66298500D02*
X149715500Y-65193000D01*
X185525300Y-71975000D02*
X185525300Y-72380000D01*
X188200000Y-69300300D02*
X185525300Y-71975000D01*
X188200000Y-68100000D02*
X188200000Y-69300300D01*
X184400000Y-72380000D02*
X185525300Y-72380000D01*
X105654700Y-74145300D02*
X104400000Y-75400000D01*
X178749400Y-74145300D02*
X105654700Y-74145300D01*
X179874700Y-73020000D02*
X178749400Y-74145300D01*
X181000000Y-73020000D02*
X179874700Y-73020000D01*
X185305000Y-76199700D02*
X182125300Y-73020000D01*
X195120100Y-76199700D02*
X185305000Y-76199700D01*
X196238300Y-77317900D02*
X195120100Y-76199700D01*
X196238300Y-133400700D02*
X196238300Y-77317900D01*
X191239300Y-138399700D02*
X196238300Y-133400700D01*
X187850400Y-138399700D02*
X191239300Y-138399700D01*
X187100300Y-139149800D02*
X187850400Y-138399700D01*
X187100300Y-139600000D02*
X187100300Y-139149800D01*
X185900000Y-139600000D02*
X187100300Y-139600000D01*
X181000000Y-73020000D02*
X182125300Y-73020000D01*
X194100000Y-91600000D02*
X194100000Y-90399700D01*
X194550200Y-90399700D02*
X194100000Y-90399700D01*
X195300300Y-89649600D02*
X194550200Y-90399700D01*
X195300300Y-83554400D02*
X195300300Y-89649600D01*
X194640100Y-82894200D02*
X195300300Y-83554400D01*
X192047400Y-82894200D02*
X194640100Y-82894200D01*
X187448500Y-87493100D02*
X192047400Y-82894200D01*
X149930400Y-87493100D02*
X187448500Y-87493100D01*
X147420000Y-90003500D02*
X149930400Y-87493100D01*
X147420000Y-90597800D02*
X147420000Y-90003500D01*
X146641000Y-91376800D02*
X147420000Y-90597800D01*
X142166800Y-91376800D02*
X146641000Y-91376800D01*
X141070000Y-90280000D02*
X142166800Y-91376800D01*
X191478500Y-84100000D02*
X194100000Y-84100000D01*
X186470700Y-89107800D02*
X191478500Y-84100000D01*
X183882900Y-89107800D02*
X186470700Y-89107800D01*
X167740000Y-105250700D02*
X183882900Y-89107800D01*
X167740000Y-105789000D02*
X167740000Y-105250700D01*
X166901500Y-106627500D02*
X167740000Y-105789000D01*
X142177500Y-106627500D02*
X166901500Y-106627500D01*
X141070000Y-105520000D02*
X142177500Y-106627500D01*
X168215000Y-98694800D02*
X171148900Y-98694800D01*
X160120000Y-90599800D02*
X168215000Y-98694800D01*
X160120000Y-90002600D02*
X160120000Y-90599800D01*
X159296600Y-89179200D02*
X160120000Y-90002600D01*
X157410800Y-89179200D02*
X159296600Y-89179200D01*
X156310000Y-90280000D02*
X157410800Y-89179200D01*
X108653000Y-74847000D02*
X108100000Y-75400000D01*
X116723200Y-74847000D02*
X108653000Y-74847000D01*
X144440800Y-102564600D02*
X116723200Y-74847000D01*
X163514600Y-102564600D02*
X144440800Y-102564600D01*
X166470000Y-105520000D02*
X163514600Y-102564600D01*
X162351500Y-75300000D02*
X181000000Y-75300000D01*
X152420000Y-85231500D02*
X162351500Y-75300000D01*
X152420000Y-85775900D02*
X152420000Y-85231500D01*
X151335800Y-86860100D02*
X152420000Y-85775900D01*
X149569900Y-86860100D02*
X151335800Y-86860100D01*
X146150000Y-90280000D02*
X149569900Y-86860100D01*
X148000800Y-101129200D02*
X146278800Y-101129200D01*
X158850000Y-90280000D02*
X148000800Y-101129200D01*
X175678600Y-106641400D02*
X171130000Y-111190000D01*
X178398500Y-106641400D02*
X175678600Y-106641400D01*
X192006100Y-93033800D02*
X178398500Y-106641400D01*
X194954400Y-93033800D02*
X192006100Y-93033800D01*
X195779900Y-92208300D02*
X194954400Y-93033800D01*
X195779900Y-80280200D02*
X195779900Y-92208300D01*
X194100000Y-78600300D02*
X195779900Y-80280200D01*
X194100000Y-77400000D02*
X194100000Y-78600300D01*
X194550200Y-132099700D02*
X194100000Y-132099700D01*
X195300300Y-131349600D02*
X194550200Y-132099700D01*
X195300300Y-116071300D02*
X195300300Y-131349600D01*
X189308100Y-110079100D02*
X195300300Y-116071300D01*
X174780900Y-110079100D02*
X189308100Y-110079100D01*
X173670000Y-111190000D02*
X174780900Y-110079100D01*
X194100000Y-133300000D02*
X194100000Y-132099700D01*
X93964000Y-107990000D02*
X91170000Y-107990000D01*
X96504000Y-105450000D02*
X93964000Y-107990000D01*
X100457300Y-81892700D02*
X92460000Y-89890000D01*
X105210500Y-81892700D02*
X100457300Y-81892700D01*
X108437400Y-85119600D02*
X105210500Y-81892700D01*
X121965700Y-85119600D02*
X108437400Y-85119600D01*
X141278700Y-104432600D02*
X121965700Y-85119600D01*
X162842600Y-104432600D02*
X141278700Y-104432600D01*
X163930000Y-105520000D02*
X162842600Y-104432600D01*
X174761400Y-119901400D02*
X173670000Y-118810000D01*
X176680400Y-119901400D02*
X174761400Y-119901400D01*
X177480000Y-119101800D02*
X176680400Y-119901400D01*
X177480000Y-118533100D02*
X177480000Y-119101800D01*
X181113100Y-114900000D02*
X177480000Y-118533100D01*
X186200000Y-114900000D02*
X181113100Y-114900000D01*
X169860000Y-112460000D02*
X176210000Y-118810000D01*
X169860000Y-110893600D02*
X169860000Y-112460000D01*
X169055000Y-110088600D02*
X169860000Y-110893600D01*
X161111400Y-110088600D02*
X169055000Y-110088600D01*
X159400000Y-111800000D02*
X161111400Y-110088600D01*
X143061100Y-112188900D02*
X144160000Y-111090000D01*
X137688900Y-112188900D02*
X143061100Y-112188900D01*
X137100000Y-111600000D02*
X137688900Y-112188900D01*
X113250000Y-76700000D02*
X92500000Y-76700000D01*
X114000000Y-75950000D02*
X113250000Y-76700000D01*
X94950300Y-72950000D02*
X93700300Y-74200000D01*
X114000000Y-72950000D02*
X94950300Y-72950000D01*
X92500000Y-74200000D02*
X93700300Y-74200000D01*
X92824900Y-81375100D02*
X92500000Y-81700000D01*
X105329800Y-81375100D02*
X92824900Y-81375100D01*
X106974700Y-83020000D02*
X105329800Y-81375100D01*
X108100000Y-83020000D02*
X106974700Y-83020000D01*
X92750000Y-78950000D02*
X92500000Y-79200000D01*
X114000000Y-78950000D02*
X92750000Y-78950000D01*
X100600000Y-129500000D02*
X96380000Y-129500000D01*
X104000000Y-126100000D02*
X100600000Y-129500000D01*
D22*
G36*
X148919381Y-64914317D02*
X148889100Y-64901743D01*
X148333339Y-64901258D01*
X147819697Y-65113490D01*
X147426371Y-65506130D01*
X147340051Y-65714012D01*
X147255010Y-65508197D01*
X146862370Y-65114871D01*
X146349100Y-64901743D01*
X145793339Y-64901258D01*
X145279697Y-65113490D01*
X144886371Y-65506130D01*
X144800051Y-65714012D01*
X144715010Y-65508197D01*
X144322370Y-65114871D01*
X143809100Y-64901743D01*
X143253339Y-64901258D01*
X142739697Y-65113490D01*
X142346371Y-65506130D01*
X142260051Y-65714012D01*
X142175010Y-65508197D01*
X141782370Y-65114871D01*
X141269100Y-64901743D01*
X140713339Y-64901258D01*
X140199697Y-65113490D01*
X139806371Y-65506130D01*
X139593243Y-66019400D01*
X139592758Y-66575161D01*
X139804990Y-67088803D01*
X140197630Y-67482129D01*
X140710900Y-67695257D01*
X141266661Y-67695742D01*
X141780303Y-67483510D01*
X142173629Y-67090870D01*
X142259949Y-66882988D01*
X142344990Y-67088803D01*
X142737630Y-67482129D01*
X143250900Y-67695257D01*
X143806661Y-67695742D01*
X144320303Y-67483510D01*
X144713629Y-67090870D01*
X144799949Y-66882988D01*
X144884990Y-67088803D01*
X145277630Y-67482129D01*
X145790900Y-67695257D01*
X146346661Y-67695742D01*
X146860303Y-67483510D01*
X147253629Y-67090870D01*
X147339949Y-66882988D01*
X147424990Y-67088803D01*
X147817630Y-67482129D01*
X148330900Y-67695257D01*
X148886661Y-67695742D01*
X149400303Y-67483510D01*
X149793629Y-67090870D01*
X149879949Y-66882988D01*
X149964990Y-67088803D01*
X150357630Y-67482129D01*
X150870900Y-67695257D01*
X151426661Y-67695742D01*
X151940303Y-67483510D01*
X152333629Y-67090870D01*
X152419949Y-66882988D01*
X152504990Y-67088803D01*
X152897630Y-67482129D01*
X153410900Y-67695257D01*
X153966661Y-67695742D01*
X154480303Y-67483510D01*
X154873629Y-67090870D01*
X154959949Y-66882988D01*
X155044990Y-67088803D01*
X155437630Y-67482129D01*
X155950900Y-67695257D01*
X156506661Y-67695742D01*
X157020303Y-67483510D01*
X157413629Y-67090870D01*
X157499949Y-66882988D01*
X157584990Y-67088803D01*
X157977630Y-67482129D01*
X158490900Y-67695257D01*
X159046661Y-67695742D01*
X159560303Y-67483510D01*
X159953629Y-67090870D01*
X160039949Y-66882988D01*
X160124990Y-67088803D01*
X160517630Y-67482129D01*
X161030900Y-67695257D01*
X161586661Y-67695742D01*
X162100303Y-67483510D01*
X162493629Y-67090870D01*
X162579949Y-66882988D01*
X162664990Y-67088803D01*
X163057630Y-67482129D01*
X163570900Y-67695257D01*
X164126661Y-67695742D01*
X164640303Y-67483510D01*
X165033629Y-67090870D01*
X165119949Y-66882988D01*
X165204990Y-67088803D01*
X165597630Y-67482129D01*
X166110900Y-67695257D01*
X166666661Y-67695742D01*
X167180303Y-67483510D01*
X167385457Y-67278713D01*
X168129392Y-67278713D01*
X168198857Y-67520897D01*
X168722302Y-67707644D01*
X169277368Y-67679862D01*
X169661143Y-67520897D01*
X169730608Y-67278713D01*
X170669392Y-67278713D01*
X170738857Y-67520897D01*
X171262302Y-67707644D01*
X171817368Y-67679862D01*
X172201143Y-67520897D01*
X172270608Y-67278713D01*
X171470000Y-66478105D01*
X170669392Y-67278713D01*
X169730608Y-67278713D01*
X168930000Y-66478105D01*
X168129392Y-67278713D01*
X167385457Y-67278713D01*
X167573629Y-67090870D01*
X167653395Y-66898773D01*
X167707603Y-67029643D01*
X167949787Y-67099108D01*
X168750395Y-66298500D01*
X168736253Y-66284358D01*
X168915858Y-66104753D01*
X168930000Y-66118895D01*
X168944143Y-66104753D01*
X169123748Y-66284358D01*
X169109605Y-66298500D01*
X169910213Y-67099108D01*
X170152397Y-67029643D01*
X170196453Y-66906156D01*
X170247603Y-67029643D01*
X170489787Y-67099108D01*
X171290395Y-66298500D01*
X171276253Y-66284358D01*
X171455858Y-66104753D01*
X171470000Y-66118895D01*
X171484143Y-66104753D01*
X171663748Y-66284358D01*
X171649605Y-66298500D01*
X172450213Y-67099108D01*
X172692397Y-67029643D01*
X172742509Y-66889182D01*
X172824990Y-67088803D01*
X173217630Y-67482129D01*
X173730900Y-67695257D01*
X174286661Y-67695742D01*
X174800303Y-67483510D01*
X175193629Y-67090870D01*
X175406757Y-66577600D01*
X175407242Y-66021839D01*
X175378798Y-65953000D01*
X176375823Y-65953000D01*
X176482757Y-66211800D01*
X176886077Y-66615824D01*
X177413309Y-66834750D01*
X177984187Y-66835248D01*
X178511800Y-66617243D01*
X178915824Y-66213923D01*
X179134750Y-65686691D01*
X179135248Y-65115813D01*
X179008889Y-64810000D01*
X179691195Y-64810000D01*
X179565250Y-65113309D01*
X179564752Y-65684187D01*
X179782757Y-66211800D01*
X180186077Y-66615824D01*
X180713309Y-66834750D01*
X181284187Y-66835248D01*
X181811800Y-66617243D01*
X182215824Y-66213923D01*
X182434750Y-65686691D01*
X182435248Y-65115813D01*
X182308889Y-64810000D01*
X197590000Y-64810000D01*
X197590000Y-143390000D01*
X138435714Y-143390000D01*
X138611800Y-143317243D01*
X139015824Y-142913923D01*
X139234750Y-142386691D01*
X139235248Y-141815813D01*
X139017243Y-141288200D01*
X138753317Y-141023813D01*
X138959699Y-140938327D01*
X139138327Y-140759698D01*
X139235000Y-140526309D01*
X139235000Y-140130213D01*
X179933392Y-140130213D01*
X180002857Y-140372397D01*
X180526302Y-140559144D01*
X181081368Y-140531362D01*
X181465143Y-140372397D01*
X181534608Y-140130213D01*
X180734000Y-139329605D01*
X179933392Y-140130213D01*
X139235000Y-140130213D01*
X139235000Y-139885750D01*
X139076250Y-139727000D01*
X137927000Y-139727000D01*
X137927000Y-139747000D01*
X137673000Y-139747000D01*
X137673000Y-139727000D01*
X136523750Y-139727000D01*
X136365000Y-139885750D01*
X136365000Y-140526309D01*
X136461673Y-140759698D01*
X136640301Y-140938327D01*
X136846835Y-141023876D01*
X136584176Y-141286077D01*
X136365250Y-141813309D01*
X136364752Y-142384187D01*
X136582757Y-142911800D01*
X136986077Y-143315824D01*
X137164713Y-143390000D01*
X89010000Y-143390000D01*
X89010000Y-140500000D01*
X89590000Y-140500000D01*
X89765838Y-141383999D01*
X90266583Y-142133417D01*
X91016001Y-142634162D01*
X91900000Y-142810000D01*
X92783999Y-142634162D01*
X93533417Y-142133417D01*
X93711657Y-141866661D01*
X132102758Y-141866661D01*
X132314990Y-142380303D01*
X132707630Y-142773629D01*
X133220900Y-142986757D01*
X133776661Y-142987242D01*
X134290303Y-142775010D01*
X134683629Y-142382370D01*
X134896757Y-141869100D01*
X134897242Y-141313339D01*
X134685010Y-140799697D01*
X134292370Y-140406371D01*
X134100273Y-140326605D01*
X134231143Y-140272397D01*
X134300608Y-140030213D01*
X133500000Y-139229605D01*
X132699392Y-140030213D01*
X132768857Y-140272397D01*
X132909318Y-140322509D01*
X132709697Y-140404990D01*
X132316371Y-140797630D01*
X132103243Y-141310900D01*
X132102758Y-141866661D01*
X93711657Y-141866661D01*
X94034162Y-141383999D01*
X94210000Y-140500000D01*
X94147492Y-140185750D01*
X98190000Y-140185750D01*
X98190000Y-140901310D01*
X98286673Y-141134699D01*
X98465302Y-141313327D01*
X98698691Y-141410000D01*
X99414250Y-141410000D01*
X99573000Y-141251250D01*
X99573000Y-140027000D01*
X98348750Y-140027000D01*
X98190000Y-140185750D01*
X94147492Y-140185750D01*
X94034162Y-139616001D01*
X93554871Y-138898690D01*
X98190000Y-138898690D01*
X98190000Y-139614250D01*
X98348750Y-139773000D01*
X99573000Y-139773000D01*
X99573000Y-138548750D01*
X99827000Y-138548750D01*
X99827000Y-139773000D01*
X99847000Y-139773000D01*
X99847000Y-140027000D01*
X99827000Y-140027000D01*
X99827000Y-141251250D01*
X99985750Y-141410000D01*
X100701309Y-141410000D01*
X100934698Y-141313327D01*
X101113327Y-141134699D01*
X101167760Y-141003286D01*
X101343537Y-141179370D01*
X101898325Y-141409738D01*
X102499040Y-141410262D01*
X103054229Y-141180862D01*
X103479370Y-140756463D01*
X103709738Y-140201675D01*
X103710262Y-139600960D01*
X103480862Y-139045771D01*
X103277749Y-138842302D01*
X132090856Y-138842302D01*
X132118638Y-139397368D01*
X132277603Y-139781143D01*
X132519787Y-139850608D01*
X133320395Y-139050000D01*
X133679605Y-139050000D01*
X134480213Y-139850608D01*
X134722397Y-139781143D01*
X134909144Y-139257698D01*
X134881362Y-138702632D01*
X134869375Y-138673691D01*
X136365000Y-138673691D01*
X136365000Y-139314250D01*
X136523750Y-139473000D01*
X137673000Y-139473000D01*
X137673000Y-138323750D01*
X137927000Y-138323750D01*
X137927000Y-139473000D01*
X139076250Y-139473000D01*
X139235000Y-139314250D01*
X139235000Y-138942302D01*
X179324856Y-138942302D01*
X179352638Y-139497368D01*
X179511603Y-139881143D01*
X179753787Y-139950608D01*
X180554395Y-139150000D01*
X180913605Y-139150000D01*
X181714213Y-139950608D01*
X181956397Y-139881143D01*
X182143144Y-139357698D01*
X182115362Y-138802632D01*
X181956397Y-138418857D01*
X181714213Y-138349392D01*
X180913605Y-139150000D01*
X180554395Y-139150000D01*
X179753787Y-138349392D01*
X179511603Y-138418857D01*
X179324856Y-138942302D01*
X139235000Y-138942302D01*
X139235000Y-138673691D01*
X139138327Y-138440302D01*
X138959699Y-138261673D01*
X138726310Y-138165000D01*
X138085750Y-138165000D01*
X137927000Y-138323750D01*
X137673000Y-138323750D01*
X137514250Y-138165000D01*
X136873690Y-138165000D01*
X136640301Y-138261673D01*
X136461673Y-138440302D01*
X136365000Y-138673691D01*
X134869375Y-138673691D01*
X134722397Y-138318857D01*
X134480213Y-138249392D01*
X133679605Y-139050000D01*
X133320395Y-139050000D01*
X132519787Y-138249392D01*
X132277603Y-138318857D01*
X132090856Y-138842302D01*
X103277749Y-138842302D01*
X103056463Y-138620630D01*
X102501675Y-138390262D01*
X101900960Y-138389738D01*
X101345771Y-138619138D01*
X101167797Y-138796802D01*
X101113327Y-138665301D01*
X100934698Y-138486673D01*
X100701309Y-138390000D01*
X99985750Y-138390000D01*
X99827000Y-138548750D01*
X99573000Y-138548750D01*
X99414250Y-138390000D01*
X98698691Y-138390000D01*
X98465302Y-138486673D01*
X98286673Y-138665301D01*
X98190000Y-138898690D01*
X93554871Y-138898690D01*
X93533417Y-138866583D01*
X92783999Y-138365838D01*
X91900000Y-138190000D01*
X91016001Y-138365838D01*
X90266583Y-138866583D01*
X89765838Y-139616001D01*
X89590000Y-140500000D01*
X89010000Y-140500000D01*
X89010000Y-135107745D01*
X98171861Y-135107745D01*
X98245995Y-135353864D01*
X98783223Y-135546965D01*
X99353454Y-135519778D01*
X99754005Y-135353864D01*
X99828139Y-135107745D01*
X99000000Y-134279605D01*
X98171861Y-135107745D01*
X89010000Y-135107745D01*
X89010000Y-124425000D01*
X90677560Y-124425000D01*
X90677560Y-126175000D01*
X90721838Y-126410317D01*
X90860910Y-126626441D01*
X91073110Y-126771431D01*
X91089676Y-126774786D01*
X90920630Y-126943537D01*
X90690262Y-127498325D01*
X90689738Y-128099040D01*
X90919138Y-128654229D01*
X91314536Y-129050318D01*
X90920630Y-129443537D01*
X90690262Y-129998325D01*
X90689738Y-130599040D01*
X90919138Y-131154229D01*
X91314536Y-131550318D01*
X90920630Y-131943537D01*
X90690262Y-132498325D01*
X90689738Y-133099040D01*
X90919138Y-133654229D01*
X91343537Y-134079370D01*
X91898325Y-134309738D01*
X92499040Y-134310262D01*
X93054229Y-134080862D01*
X93479370Y-133656463D01*
X93709738Y-133101675D01*
X93709927Y-132884729D01*
X94337299Y-133512101D01*
X94583861Y-133676848D01*
X94874700Y-133734700D01*
X97606420Y-133734700D01*
X97553035Y-133883223D01*
X97580222Y-134453454D01*
X97746136Y-134854005D01*
X97992255Y-134928139D01*
X98820395Y-134100000D01*
X98806253Y-134085858D01*
X98985858Y-133906253D01*
X99000000Y-133920395D01*
X99014143Y-133906253D01*
X99193748Y-134085858D01*
X99179605Y-134100000D01*
X100007745Y-134928139D01*
X100055167Y-134913855D01*
X100096838Y-135135317D01*
X100235910Y-135351441D01*
X100448110Y-135496431D01*
X100700000Y-135547440D01*
X102300000Y-135547440D01*
X102535317Y-135503162D01*
X102751441Y-135364090D01*
X102896431Y-135151890D01*
X102947440Y-134900000D01*
X102947440Y-133300000D01*
X102903162Y-133064683D01*
X102764090Y-132848559D01*
X102551890Y-132703569D01*
X102300000Y-132652560D01*
X100700000Y-132652560D01*
X100464683Y-132696838D01*
X100381358Y-132750456D01*
X100068201Y-132437299D01*
X99821639Y-132272552D01*
X99530800Y-132214700D01*
X95189502Y-132214700D01*
X93670639Y-130695837D01*
X93709738Y-130601675D01*
X93710262Y-130000960D01*
X93503270Y-129500000D01*
X94916887Y-129500000D01*
X95026120Y-130049151D01*
X95337189Y-130514698D01*
X95802736Y-130825767D01*
X96351887Y-130935000D01*
X96408113Y-130935000D01*
X96957264Y-130825767D01*
X97422811Y-130514698D01*
X97592995Y-130260000D01*
X100600000Y-130260000D01*
X100890839Y-130202148D01*
X101137401Y-130037401D01*
X103661546Y-127513256D01*
X103713309Y-127534750D01*
X104284187Y-127535248D01*
X104811800Y-127317243D01*
X105215824Y-126913923D01*
X105434750Y-126386691D01*
X105435248Y-125815813D01*
X105217243Y-125288200D01*
X104813923Y-124884176D01*
X104286691Y-124665250D01*
X103715813Y-124664752D01*
X103188200Y-124882757D01*
X102784176Y-125286077D01*
X102565250Y-125813309D01*
X102564752Y-126384187D01*
X102587049Y-126438149D01*
X100285198Y-128740000D01*
X97592995Y-128740000D01*
X97422811Y-128485302D01*
X96957264Y-128174233D01*
X96408113Y-128065000D01*
X96351887Y-128065000D01*
X95802736Y-128174233D01*
X95337189Y-128485302D01*
X95026120Y-128950849D01*
X94916887Y-129500000D01*
X93503270Y-129500000D01*
X93480862Y-129445771D01*
X93085464Y-129049682D01*
X93479370Y-128656463D01*
X93709738Y-128101675D01*
X93710262Y-127500960D01*
X93480862Y-126945771D01*
X93312283Y-126776897D01*
X93526441Y-126639090D01*
X93671431Y-126426890D01*
X93722440Y-126175000D01*
X93722440Y-126100000D01*
X94916887Y-126100000D01*
X95026120Y-126649151D01*
X95337189Y-127114698D01*
X95802736Y-127425767D01*
X96351887Y-127535000D01*
X96408113Y-127535000D01*
X96957264Y-127425767D01*
X97422811Y-127114698D01*
X97733880Y-126649151D01*
X97843113Y-126100000D01*
X97733880Y-125550849D01*
X97422811Y-125085302D01*
X96957264Y-124774233D01*
X96408113Y-124665000D01*
X96351887Y-124665000D01*
X95802736Y-124774233D01*
X95337189Y-125085302D01*
X95026120Y-125550849D01*
X94916887Y-126100000D01*
X93722440Y-126100000D01*
X93722440Y-124425000D01*
X93678162Y-124189683D01*
X93539090Y-123973559D01*
X93326890Y-123828569D01*
X93075000Y-123777560D01*
X91325000Y-123777560D01*
X91089683Y-123821838D01*
X90873559Y-123960910D01*
X90728569Y-124173110D01*
X90677560Y-124425000D01*
X89010000Y-124425000D01*
X89010000Y-122700000D01*
X94916887Y-122700000D01*
X95026120Y-123249151D01*
X95337189Y-123714698D01*
X95802736Y-124025767D01*
X96351887Y-124135000D01*
X96408113Y-124135000D01*
X96957264Y-124025767D01*
X97422811Y-123714698D01*
X97427456Y-123707745D01*
X103171861Y-123707745D01*
X103245995Y-123953864D01*
X103783223Y-124146965D01*
X104353454Y-124119778D01*
X104754005Y-123953864D01*
X104828139Y-123707745D01*
X104000000Y-122879605D01*
X103171861Y-123707745D01*
X97427456Y-123707745D01*
X97733880Y-123249151D01*
X97843113Y-122700000D01*
X97799994Y-122483223D01*
X102553035Y-122483223D01*
X102580222Y-123053454D01*
X102746136Y-123454005D01*
X102992255Y-123528139D01*
X103820395Y-122700000D01*
X104179605Y-122700000D01*
X105007745Y-123528139D01*
X105253864Y-123454005D01*
X105446965Y-122916777D01*
X105419778Y-122346546D01*
X105253864Y-121945995D01*
X105007745Y-121871861D01*
X104179605Y-122700000D01*
X103820395Y-122700000D01*
X102992255Y-121871861D01*
X102746136Y-121945995D01*
X102553035Y-122483223D01*
X97799994Y-122483223D01*
X97733880Y-122150849D01*
X97427457Y-121692255D01*
X103171861Y-121692255D01*
X104000000Y-122520395D01*
X104828139Y-121692255D01*
X104784285Y-121546661D01*
X105432758Y-121546661D01*
X105644990Y-122060303D01*
X106037630Y-122453629D01*
X106550900Y-122666757D01*
X107106661Y-122667242D01*
X107620303Y-122455010D01*
X108013629Y-122062370D01*
X108027070Y-122030000D01*
X112604700Y-122030000D01*
X112895539Y-121972148D01*
X113142101Y-121807401D01*
X113402841Y-121546661D01*
X118132758Y-121546661D01*
X118344990Y-122060303D01*
X118737630Y-122453629D01*
X119250900Y-122666757D01*
X119806661Y-122667242D01*
X120320303Y-122455010D01*
X120713629Y-122062370D01*
X120926757Y-121549100D01*
X120927242Y-120993339D01*
X120715010Y-120479697D01*
X120322370Y-120086371D01*
X119809100Y-119873243D01*
X119253339Y-119872758D01*
X118739697Y-120084990D01*
X118346371Y-120477630D01*
X118133243Y-120990900D01*
X118132758Y-121546661D01*
X113402841Y-121546661D01*
X122121091Y-112828411D01*
X122135910Y-112851441D01*
X122348110Y-112996431D01*
X122600000Y-113047440D01*
X124200000Y-113047440D01*
X124435317Y-113003162D01*
X124651441Y-112864090D01*
X124662685Y-112847634D01*
X125113309Y-113034750D01*
X125684187Y-113035248D01*
X126211800Y-112817243D01*
X126615824Y-112413923D01*
X126834750Y-111886691D01*
X126835248Y-111315813D01*
X126617243Y-110788200D01*
X126213923Y-110384176D01*
X125686691Y-110165250D01*
X125115813Y-110164752D01*
X124665534Y-110350803D01*
X124664090Y-110348559D01*
X124451890Y-110203569D01*
X124200000Y-110152560D01*
X122600000Y-110152560D01*
X122364683Y-110196838D01*
X122148559Y-110335910D01*
X122003569Y-110548110D01*
X121952560Y-110800000D01*
X121952560Y-110918767D01*
X121737299Y-111062599D01*
X115280852Y-117519046D01*
X115215010Y-117359697D01*
X114822370Y-116966371D01*
X114309100Y-116753243D01*
X113753339Y-116752758D01*
X113239697Y-116964990D01*
X112846371Y-117357630D01*
X112633243Y-117870900D01*
X112632758Y-118426661D01*
X112844990Y-118940303D01*
X113237630Y-119333629D01*
X113399185Y-119400713D01*
X112289898Y-120510000D01*
X108027531Y-120510000D01*
X108015010Y-120479697D01*
X107622370Y-120086371D01*
X107109100Y-119873243D01*
X106553339Y-119872758D01*
X106039697Y-120084990D01*
X105646371Y-120477630D01*
X105433243Y-120990900D01*
X105432758Y-121546661D01*
X104784285Y-121546661D01*
X104754005Y-121446136D01*
X104216777Y-121253035D01*
X103646546Y-121280222D01*
X103245995Y-121446136D01*
X103171861Y-121692255D01*
X97427457Y-121692255D01*
X97422811Y-121685302D01*
X96957264Y-121374233D01*
X96408113Y-121265000D01*
X96351887Y-121265000D01*
X95802736Y-121374233D01*
X95337189Y-121685302D01*
X95026120Y-122150849D01*
X94916887Y-122700000D01*
X89010000Y-122700000D01*
X89010000Y-118731461D01*
X89772758Y-118731461D01*
X89984990Y-119245103D01*
X90377630Y-119638429D01*
X90890900Y-119851557D01*
X91446661Y-119852042D01*
X91960303Y-119639810D01*
X92353629Y-119247170D01*
X92566757Y-118733900D01*
X92567025Y-118426661D01*
X95106758Y-118426661D01*
X95318990Y-118940303D01*
X95711630Y-119333629D01*
X96224900Y-119546757D01*
X96780661Y-119547242D01*
X97294303Y-119335010D01*
X97687629Y-118942370D01*
X97900757Y-118429100D01*
X97901242Y-117873339D01*
X97689010Y-117359697D01*
X97296370Y-116966371D01*
X96783100Y-116753243D01*
X96227339Y-116752758D01*
X95713697Y-116964990D01*
X95320371Y-117357630D01*
X95107243Y-117870900D01*
X95106758Y-118426661D01*
X92567025Y-118426661D01*
X92567242Y-118178139D01*
X92355010Y-117664497D01*
X91962370Y-117271171D01*
X91449100Y-117058043D01*
X90893339Y-117057558D01*
X90379697Y-117269790D01*
X89986371Y-117662430D01*
X89773243Y-118175700D01*
X89772758Y-118731461D01*
X89010000Y-118731461D01*
X89010000Y-115886661D01*
X89772758Y-115886661D01*
X89984990Y-116400303D01*
X90377630Y-116793629D01*
X90890900Y-117006757D01*
X91446661Y-117007242D01*
X91960303Y-116795010D01*
X92353629Y-116402370D01*
X92566757Y-115889100D01*
X92567242Y-115333339D01*
X92355010Y-114819697D01*
X91962370Y-114426371D01*
X91449100Y-114213243D01*
X90893339Y-114212758D01*
X90379697Y-114424990D01*
X89986371Y-114817630D01*
X89773243Y-115330900D01*
X89772758Y-115886661D01*
X89010000Y-115886661D01*
X89010000Y-108266661D01*
X89772758Y-108266661D01*
X89984990Y-108780303D01*
X90377630Y-109173629D01*
X90890900Y-109386757D01*
X91446661Y-109387242D01*
X91960303Y-109175010D01*
X92353629Y-108782370D01*
X92367070Y-108750000D01*
X93964000Y-108750000D01*
X94254839Y-108692148D01*
X94501401Y-108527401D01*
X95744615Y-107284187D01*
X120164752Y-107284187D01*
X120382757Y-107811800D01*
X120786077Y-108215824D01*
X121313309Y-108434750D01*
X121884187Y-108435248D01*
X122411800Y-108217243D01*
X122815824Y-107813923D01*
X122849813Y-107732069D01*
X122882757Y-107811800D01*
X123286077Y-108215824D01*
X123813309Y-108434750D01*
X124384187Y-108435248D01*
X124911800Y-108217243D01*
X125250236Y-107879397D01*
X125586077Y-108215824D01*
X126113309Y-108434750D01*
X126684187Y-108435248D01*
X127211800Y-108217243D01*
X127615824Y-107813923D01*
X127834750Y-107286691D01*
X127835000Y-107000000D01*
X132556887Y-107000000D01*
X132666120Y-107549151D01*
X132977189Y-108014698D01*
X133442736Y-108325767D01*
X133991887Y-108435000D01*
X134048113Y-108435000D01*
X134597264Y-108325767D01*
X135062811Y-108014698D01*
X135373880Y-107549151D01*
X135483113Y-107000000D01*
X135373880Y-106450849D01*
X135062811Y-105985302D01*
X134597264Y-105674233D01*
X134048113Y-105565000D01*
X133991887Y-105565000D01*
X133442736Y-105674233D01*
X132977189Y-105985302D01*
X132666120Y-106450849D01*
X132556887Y-107000000D01*
X127835000Y-107000000D01*
X127835248Y-106715813D01*
X127617243Y-106188200D01*
X127213923Y-105784176D01*
X126686691Y-105565250D01*
X126115813Y-105564752D01*
X125588200Y-105782757D01*
X125249764Y-106120603D01*
X124913923Y-105784176D01*
X124386691Y-105565250D01*
X123815813Y-105564752D01*
X123288200Y-105782757D01*
X122884176Y-106186077D01*
X122850187Y-106267931D01*
X122817243Y-106188200D01*
X122413923Y-105784176D01*
X121886691Y-105565250D01*
X121315813Y-105564752D01*
X120788200Y-105782757D01*
X120384176Y-106186077D01*
X120165250Y-106713309D01*
X120164752Y-107284187D01*
X95744615Y-107284187D01*
X96194619Y-106834183D01*
X96224900Y-106846757D01*
X96780661Y-106847242D01*
X97294303Y-106635010D01*
X97687629Y-106242370D01*
X97900757Y-105729100D01*
X97900759Y-105726661D01*
X112632758Y-105726661D01*
X112844990Y-106240303D01*
X113237630Y-106633629D01*
X113750900Y-106846757D01*
X114306661Y-106847242D01*
X114820303Y-106635010D01*
X115213629Y-106242370D01*
X115426757Y-105729100D01*
X115427242Y-105173339D01*
X115215010Y-104659697D01*
X114822370Y-104266371D01*
X114309100Y-104053243D01*
X113753339Y-104052758D01*
X113239697Y-104264990D01*
X112846371Y-104657630D01*
X112633243Y-105170900D01*
X112632758Y-105726661D01*
X97900759Y-105726661D01*
X97901242Y-105173339D01*
X97689010Y-104659697D01*
X97296370Y-104266371D01*
X96783100Y-104053243D01*
X96227339Y-104052758D01*
X95713697Y-104264990D01*
X95320371Y-104657630D01*
X95107243Y-105170900D01*
X95106758Y-105726661D01*
X95120143Y-105759055D01*
X93649198Y-107230000D01*
X92367531Y-107230000D01*
X92355010Y-107199697D01*
X91962370Y-106806371D01*
X91449100Y-106593243D01*
X90893339Y-106592758D01*
X90379697Y-106804990D01*
X89986371Y-107197630D01*
X89773243Y-107710900D01*
X89772758Y-108266661D01*
X89010000Y-108266661D01*
X89010000Y-106125413D01*
X90369392Y-106125413D01*
X90438857Y-106367597D01*
X90962302Y-106554344D01*
X91517368Y-106526562D01*
X91901143Y-106367597D01*
X91970608Y-106125413D01*
X91170000Y-105324805D01*
X90369392Y-106125413D01*
X89010000Y-106125413D01*
X89010000Y-104937502D01*
X89760856Y-104937502D01*
X89788638Y-105492568D01*
X89947603Y-105876343D01*
X90189787Y-105945808D01*
X90990395Y-105145200D01*
X91349605Y-105145200D01*
X92150213Y-105945808D01*
X92392397Y-105876343D01*
X92579144Y-105352898D01*
X92551362Y-104797832D01*
X92392397Y-104414057D01*
X92150213Y-104344592D01*
X91349605Y-105145200D01*
X90990395Y-105145200D01*
X90189787Y-104344592D01*
X89947603Y-104414057D01*
X89760856Y-104937502D01*
X89010000Y-104937502D01*
X89010000Y-104164987D01*
X90369392Y-104164987D01*
X91170000Y-104965595D01*
X91970608Y-104164987D01*
X91901143Y-103922803D01*
X91377698Y-103736056D01*
X90822632Y-103763838D01*
X90438857Y-103922803D01*
X90369392Y-104164987D01*
X89010000Y-104164987D01*
X89010000Y-98490213D01*
X91659392Y-98490213D01*
X91728857Y-98732397D01*
X92252302Y-98919144D01*
X92807368Y-98891362D01*
X93191143Y-98732397D01*
X93260608Y-98490213D01*
X122139392Y-98490213D01*
X122208857Y-98732397D01*
X122732302Y-98919144D01*
X123287368Y-98891362D01*
X123671143Y-98732397D01*
X123740608Y-98490213D01*
X122940000Y-97689605D01*
X122139392Y-98490213D01*
X93260608Y-98490213D01*
X92460000Y-97689605D01*
X91659392Y-98490213D01*
X89010000Y-98490213D01*
X89010000Y-97302302D01*
X91050856Y-97302302D01*
X91078638Y-97857368D01*
X91237603Y-98241143D01*
X91479787Y-98310608D01*
X92280395Y-97510000D01*
X92639605Y-97510000D01*
X93440213Y-98310608D01*
X93682397Y-98241143D01*
X93869144Y-97717698D01*
X93848353Y-97302302D01*
X121530856Y-97302302D01*
X121558638Y-97857368D01*
X121717603Y-98241143D01*
X121959787Y-98310608D01*
X122760395Y-97510000D01*
X123119605Y-97510000D01*
X123920213Y-98310608D01*
X124162397Y-98241143D01*
X124349144Y-97717698D01*
X124321362Y-97162632D01*
X124162397Y-96778857D01*
X123920213Y-96709392D01*
X123119605Y-97510000D01*
X122760395Y-97510000D01*
X121959787Y-96709392D01*
X121717603Y-96778857D01*
X121530856Y-97302302D01*
X93848353Y-97302302D01*
X93841362Y-97162632D01*
X93682397Y-96778857D01*
X93440213Y-96709392D01*
X92639605Y-97510000D01*
X92280395Y-97510000D01*
X91479787Y-96709392D01*
X91237603Y-96778857D01*
X91050856Y-97302302D01*
X89010000Y-97302302D01*
X89010000Y-96529787D01*
X91659392Y-96529787D01*
X92460000Y-97330395D01*
X93260608Y-96529787D01*
X122139392Y-96529787D01*
X122940000Y-97330395D01*
X123740608Y-96529787D01*
X123671143Y-96287603D01*
X123147698Y-96100856D01*
X122592632Y-96128638D01*
X122208857Y-96287603D01*
X122139392Y-96529787D01*
X93260608Y-96529787D01*
X93191143Y-96287603D01*
X92667698Y-96100856D01*
X92112632Y-96128638D01*
X91728857Y-96287603D01*
X91659392Y-96529787D01*
X89010000Y-96529787D01*
X89010000Y-73325000D01*
X90977560Y-73325000D01*
X90977560Y-75075000D01*
X91021838Y-75310317D01*
X91160910Y-75526441D01*
X91373110Y-75671431D01*
X91389676Y-75674786D01*
X91220630Y-75843537D01*
X90990262Y-76398325D01*
X90989738Y-76999040D01*
X91219138Y-77554229D01*
X91614536Y-77950318D01*
X91220630Y-78343537D01*
X90990262Y-78898325D01*
X90989738Y-79499040D01*
X91219138Y-80054229D01*
X91614536Y-80450318D01*
X91220630Y-80843537D01*
X90990262Y-81398325D01*
X90989738Y-81999040D01*
X91219138Y-82554229D01*
X91643537Y-82979370D01*
X92198325Y-83209738D01*
X92799040Y-83210262D01*
X93354229Y-82980862D01*
X93779370Y-82556463D01*
X93954335Y-82135100D01*
X99140098Y-82135100D01*
X92769381Y-88505817D01*
X92739100Y-88493243D01*
X92183339Y-88492758D01*
X91669697Y-88704990D01*
X91276371Y-89097630D01*
X91063243Y-89610900D01*
X91062758Y-90166661D01*
X91274990Y-90680303D01*
X91667630Y-91073629D01*
X92180900Y-91286757D01*
X92736661Y-91287242D01*
X93250303Y-91075010D01*
X93643629Y-90682370D01*
X93856757Y-90169100D01*
X93857242Y-89613339D01*
X93843857Y-89580945D01*
X100055761Y-83369041D01*
X103008086Y-83369041D01*
X103247611Y-83875134D01*
X103662577Y-84251041D01*
X104050961Y-84411904D01*
X104273000Y-84289915D01*
X104273000Y-83147000D01*
X103129371Y-83147000D01*
X103008086Y-83369041D01*
X100055761Y-83369041D01*
X100772102Y-82652700D01*
X103016728Y-82652700D01*
X103008086Y-82670959D01*
X103129371Y-82893000D01*
X104273000Y-82893000D01*
X104273000Y-82873000D01*
X104527000Y-82873000D01*
X104527000Y-82893000D01*
X104547000Y-82893000D01*
X104547000Y-83147000D01*
X104527000Y-83147000D01*
X104527000Y-84289915D01*
X104749039Y-84411904D01*
X105137423Y-84251041D01*
X105552389Y-83875134D01*
X105734130Y-83491132D01*
X107899999Y-85657001D01*
X108146561Y-85821748D01*
X108437400Y-85879600D01*
X121650898Y-85879600D01*
X140192917Y-104421619D01*
X139886371Y-104727630D01*
X139847425Y-104821423D01*
X124378601Y-89352599D01*
X124172646Y-89214984D01*
X124125010Y-89099697D01*
X123732370Y-88706371D01*
X123219100Y-88493243D01*
X122663339Y-88492758D01*
X122149697Y-88704990D01*
X121756371Y-89097630D01*
X121543243Y-89610900D01*
X121542758Y-90166661D01*
X121754990Y-90680303D01*
X122147630Y-91073629D01*
X122660900Y-91286757D01*
X123216661Y-91287242D01*
X123730303Y-91075010D01*
X123840952Y-90964554D01*
X135706693Y-102830295D01*
X135259697Y-103014990D01*
X134866371Y-103407630D01*
X134653243Y-103920900D01*
X134652758Y-104476661D01*
X134864990Y-104990303D01*
X135257630Y-105383629D01*
X135770900Y-105596757D01*
X136326661Y-105597242D01*
X136840303Y-105385010D01*
X137233629Y-104992370D01*
X137419981Y-104543583D01*
X140491699Y-107615301D01*
X140738260Y-107780048D01*
X141029100Y-107837900D01*
X167452100Y-107837900D01*
X167742939Y-107780048D01*
X167989501Y-107615301D01*
X168700619Y-106904183D01*
X168730900Y-106916757D01*
X169286661Y-106917242D01*
X169800303Y-106705010D01*
X170193629Y-106312370D01*
X170279949Y-106104488D01*
X170364990Y-106310303D01*
X170757630Y-106703629D01*
X171270900Y-106916757D01*
X171826661Y-106917242D01*
X172340303Y-106705010D01*
X172733629Y-106312370D01*
X172813395Y-106120273D01*
X172867603Y-106251143D01*
X173109787Y-106320608D01*
X173910395Y-105520000D01*
X173109787Y-104719392D01*
X172867603Y-104788857D01*
X172817491Y-104929318D01*
X172735010Y-104729697D01*
X172545432Y-104539787D01*
X173289392Y-104539787D01*
X174090000Y-105340395D01*
X174890608Y-104539787D01*
X174821143Y-104297603D01*
X174297698Y-104110856D01*
X173742632Y-104138638D01*
X173358857Y-104297603D01*
X173289392Y-104539787D01*
X172545432Y-104539787D01*
X172342370Y-104336371D01*
X171829100Y-104123243D01*
X171481862Y-104122940D01*
X182196277Y-93408525D01*
X182398110Y-93546431D01*
X182650000Y-93597440D01*
X184250000Y-93597440D01*
X184485317Y-93553162D01*
X184701441Y-93414090D01*
X184846431Y-93201890D01*
X184855370Y-93157745D01*
X186421861Y-93157745D01*
X186495995Y-93403864D01*
X187033223Y-93596965D01*
X187603454Y-93569778D01*
X188004005Y-93403864D01*
X188078139Y-93157745D01*
X187250000Y-92329605D01*
X186421861Y-93157745D01*
X184855370Y-93157745D01*
X184897440Y-92950000D01*
X184897440Y-92910000D01*
X185580100Y-92910000D01*
X185870939Y-92852148D01*
X185952173Y-92797869D01*
X185996136Y-92904005D01*
X186242255Y-92978139D01*
X187070395Y-92150000D01*
X187429605Y-92150000D01*
X188257745Y-92978139D01*
X188503864Y-92904005D01*
X188696965Y-92366777D01*
X188669778Y-91796546D01*
X188503864Y-91395995D01*
X188257745Y-91321861D01*
X187429605Y-92150000D01*
X187070395Y-92150000D01*
X187056252Y-92135858D01*
X187235858Y-91956252D01*
X187250000Y-91970395D01*
X188078139Y-91142255D01*
X188004005Y-90896136D01*
X187933947Y-90870955D01*
X191444902Y-87360000D01*
X192780203Y-87360000D01*
X192819138Y-87454229D01*
X193243537Y-87879370D01*
X193266469Y-87888892D01*
X193217545Y-88037940D01*
X194100000Y-88920395D01*
X194114143Y-88906253D01*
X194293748Y-89085858D01*
X194279605Y-89100000D01*
X194293748Y-89114143D01*
X194114143Y-89293748D01*
X194100000Y-89279605D01*
X194085858Y-89293748D01*
X193906253Y-89114143D01*
X193920395Y-89100000D01*
X193037940Y-88217545D01*
X192784047Y-88300884D01*
X192578410Y-88865306D01*
X192604421Y-89465458D01*
X192784047Y-89899116D01*
X193037938Y-89982454D01*
X192923306Y-90097086D01*
X192964356Y-90138136D01*
X192773559Y-90260910D01*
X192628569Y-90473110D01*
X192577560Y-90725000D01*
X192577560Y-92273800D01*
X192006100Y-92273800D01*
X191763514Y-92322054D01*
X191715260Y-92331652D01*
X191468699Y-92496399D01*
X178083698Y-105881400D01*
X177992583Y-105881400D01*
X178026757Y-105799100D01*
X178027242Y-105243339D01*
X177815010Y-104729697D01*
X177422370Y-104336371D01*
X176909100Y-104123243D01*
X176353339Y-104122758D01*
X175839697Y-104334990D01*
X175446371Y-104727630D01*
X175366605Y-104919727D01*
X175312397Y-104788857D01*
X175070213Y-104719392D01*
X174269605Y-105520000D01*
X174283748Y-105534143D01*
X174104143Y-105713748D01*
X174090000Y-105699605D01*
X173289392Y-106500213D01*
X173358857Y-106742397D01*
X173882302Y-106929144D01*
X174338908Y-106906290D01*
X171439381Y-109805817D01*
X171409100Y-109793243D01*
X170853339Y-109792758D01*
X170339697Y-110004990D01*
X170192816Y-110151614D01*
X169592401Y-109551199D01*
X169345839Y-109386452D01*
X169055000Y-109328600D01*
X161111400Y-109328600D01*
X160834927Y-109383594D01*
X160835248Y-109015813D01*
X160617243Y-108488200D01*
X160213923Y-108084176D01*
X159686691Y-107865250D01*
X159115813Y-107864752D01*
X158588200Y-108082757D01*
X158184176Y-108486077D01*
X158161785Y-108540000D01*
X148490000Y-108540000D01*
X148199160Y-108597852D01*
X147952599Y-108762599D01*
X147009381Y-109705817D01*
X146979100Y-109693243D01*
X146423339Y-109692758D01*
X145909697Y-109904990D01*
X145516371Y-110297630D01*
X145430051Y-110505512D01*
X145345010Y-110299697D01*
X144952370Y-109906371D01*
X144439100Y-109693243D01*
X143883339Y-109692758D01*
X143369697Y-109904990D01*
X142976371Y-110297630D01*
X142890051Y-110505512D01*
X142805010Y-110299697D01*
X142412370Y-109906371D01*
X141899100Y-109693243D01*
X141343339Y-109692758D01*
X140829697Y-109904990D01*
X140436371Y-110297630D01*
X140223243Y-110810900D01*
X140222758Y-111366661D01*
X140248475Y-111428900D01*
X138535149Y-111428900D01*
X138535248Y-111315813D01*
X138317243Y-110788200D01*
X137913923Y-110384176D01*
X137386691Y-110165250D01*
X136815813Y-110164752D01*
X136365534Y-110350803D01*
X136364090Y-110348559D01*
X136151890Y-110203569D01*
X135900000Y-110152560D01*
X134300000Y-110152560D01*
X134064683Y-110196838D01*
X133848559Y-110335910D01*
X133703569Y-110548110D01*
X133652560Y-110800000D01*
X133652560Y-111063858D01*
X132451801Y-109863099D01*
X132205239Y-109698352D01*
X131914400Y-109640500D01*
X131035500Y-109640500D01*
X130744661Y-109698352D01*
X130744659Y-109698353D01*
X130744660Y-109698353D01*
X130498098Y-109863099D01*
X130114707Y-110246490D01*
X130051890Y-110203569D01*
X129800000Y-110152560D01*
X128200000Y-110152560D01*
X127964683Y-110196838D01*
X127748559Y-110335910D01*
X127603569Y-110548110D01*
X127552560Y-110800000D01*
X127552560Y-112400000D01*
X127596838Y-112635317D01*
X127735910Y-112851441D01*
X127948110Y-112996431D01*
X128200000Y-113047440D01*
X129609200Y-113047440D01*
X129609200Y-113629000D01*
X128511000Y-113629000D01*
X128220160Y-113686852D01*
X127973599Y-113851599D01*
X125738454Y-116086744D01*
X125686691Y-116065250D01*
X125115813Y-116064752D01*
X124665534Y-116250803D01*
X124664090Y-116248559D01*
X124451890Y-116103569D01*
X124200000Y-116052560D01*
X122600000Y-116052560D01*
X122364683Y-116096838D01*
X122148559Y-116235910D01*
X122003569Y-116448110D01*
X121952560Y-116700000D01*
X121952560Y-118300000D01*
X121996838Y-118535317D01*
X122135910Y-118751441D01*
X122348110Y-118896431D01*
X122600000Y-118947440D01*
X124200000Y-118947440D01*
X124435317Y-118903162D01*
X124651441Y-118764090D01*
X124662685Y-118747634D01*
X125113309Y-118934750D01*
X125684187Y-118935248D01*
X126211800Y-118717243D01*
X126615824Y-118313923D01*
X126834750Y-117786691D01*
X126835248Y-117215813D01*
X126812951Y-117161851D01*
X128825802Y-115149000D01*
X130054398Y-115149000D01*
X130540000Y-115634602D01*
X130540000Y-116232099D01*
X130351890Y-116103569D01*
X130100000Y-116052560D01*
X128500000Y-116052560D01*
X128264683Y-116096838D01*
X128048559Y-116235910D01*
X127903569Y-116448110D01*
X127852560Y-116700000D01*
X127852560Y-118300000D01*
X127896838Y-118535317D01*
X128035910Y-118751441D01*
X128248110Y-118896431D01*
X128500000Y-118947440D01*
X130100000Y-118947440D01*
X130335317Y-118903162D01*
X130551441Y-118764090D01*
X130562685Y-118747634D01*
X131013309Y-118934750D01*
X131584187Y-118935248D01*
X132111800Y-118717243D01*
X132515824Y-118313923D01*
X132734750Y-117786691D01*
X132735248Y-117215813D01*
X132517243Y-116688200D01*
X132113923Y-116284176D01*
X132060000Y-116261785D01*
X132060000Y-115319800D01*
X132002148Y-115028961D01*
X131837401Y-114782399D01*
X131129200Y-114074198D01*
X131129200Y-112999825D01*
X131213309Y-113034750D01*
X131784187Y-113035248D01*
X131838149Y-113012951D01*
X132918599Y-114093401D01*
X133165161Y-114258148D01*
X133456000Y-114316000D01*
X143771198Y-114316000D01*
X146768257Y-117313059D01*
X146423339Y-117312758D01*
X145909697Y-117524990D01*
X145516371Y-117917630D01*
X145430051Y-118125512D01*
X145345010Y-117919697D01*
X144952370Y-117526371D01*
X144439100Y-117313243D01*
X143883339Y-117312758D01*
X143850945Y-117326143D01*
X143487401Y-116962599D01*
X143240839Y-116797852D01*
X142950000Y-116740000D01*
X138338646Y-116740000D01*
X138317243Y-116688200D01*
X137913923Y-116284176D01*
X137386691Y-116065250D01*
X136815813Y-116064752D01*
X136365534Y-116250803D01*
X136364090Y-116248559D01*
X136151890Y-116103569D01*
X135900000Y-116052560D01*
X134300000Y-116052560D01*
X134064683Y-116096838D01*
X133848559Y-116235910D01*
X133703569Y-116448110D01*
X133652560Y-116700000D01*
X133652560Y-118300000D01*
X133696838Y-118535317D01*
X133835910Y-118751441D01*
X134048110Y-118896431D01*
X134300000Y-118947440D01*
X135900000Y-118947440D01*
X136135317Y-118903162D01*
X136351441Y-118764090D01*
X136362685Y-118747634D01*
X136813309Y-118934750D01*
X137384187Y-118935248D01*
X137911800Y-118717243D01*
X138315824Y-118313923D01*
X138338215Y-118260000D01*
X140294207Y-118260000D01*
X140223243Y-118430900D01*
X140222758Y-118986661D01*
X140434990Y-119500303D01*
X140827630Y-119893629D01*
X141340900Y-120106757D01*
X141896661Y-120107242D01*
X142410303Y-119895010D01*
X142803629Y-119502370D01*
X142889949Y-119294488D01*
X142974990Y-119500303D01*
X143367630Y-119893629D01*
X143880900Y-120106757D01*
X144436661Y-120107242D01*
X144950303Y-119895010D01*
X145343629Y-119502370D01*
X145429949Y-119294488D01*
X145514990Y-119500303D01*
X145907630Y-119893629D01*
X146420900Y-120106757D01*
X146976661Y-120107242D01*
X147009055Y-120093857D01*
X147952599Y-121037401D01*
X148199160Y-121202148D01*
X148490000Y-121260000D01*
X158161354Y-121260000D01*
X158182757Y-121311800D01*
X158586077Y-121715824D01*
X159113309Y-121934750D01*
X159684187Y-121935248D01*
X160211800Y-121717243D01*
X160615824Y-121313923D01*
X160834750Y-120786691D01*
X160835248Y-120215813D01*
X160617243Y-119688200D01*
X160213923Y-119284176D01*
X160132069Y-119250187D01*
X160211800Y-119217243D01*
X160615824Y-118813923D01*
X160753526Y-118482300D01*
X162133423Y-118482300D01*
X162113243Y-118530900D01*
X162112758Y-119086661D01*
X162324990Y-119600303D01*
X162717630Y-119993629D01*
X163230900Y-120206757D01*
X163578138Y-120207060D01*
X159465198Y-124320000D01*
X134800879Y-124320000D01*
X134896757Y-124089100D01*
X134897242Y-123533339D01*
X134685010Y-123019697D01*
X134292370Y-122626371D01*
X133779100Y-122413243D01*
X133223339Y-122412758D01*
X132709697Y-122624990D01*
X132316371Y-123017630D01*
X132103243Y-123530900D01*
X132102758Y-124086661D01*
X132199171Y-124320000D01*
X108420000Y-124320000D01*
X108129161Y-124377852D01*
X107882599Y-124542599D01*
X104338454Y-128086744D01*
X104286691Y-128065250D01*
X103715813Y-128064752D01*
X103188200Y-128282757D01*
X102784176Y-128686077D01*
X102565250Y-129213309D01*
X102564752Y-129784187D01*
X102782757Y-130311800D01*
X103186077Y-130715824D01*
X103713309Y-130934750D01*
X104284187Y-130935248D01*
X104811800Y-130717243D01*
X105215824Y-130313923D01*
X105434750Y-129786691D01*
X105435248Y-129215813D01*
X105412951Y-129161851D01*
X108734802Y-125840000D01*
X132199121Y-125840000D01*
X132103243Y-126070900D01*
X132102758Y-126626661D01*
X132314990Y-127140303D01*
X132707630Y-127533629D01*
X132915512Y-127619949D01*
X132709697Y-127704990D01*
X132316371Y-128097630D01*
X132103243Y-128610900D01*
X132102758Y-129166661D01*
X132314990Y-129680303D01*
X132707630Y-130073629D01*
X132915512Y-130159949D01*
X132709697Y-130244990D01*
X132316371Y-130637630D01*
X132103243Y-131150900D01*
X132102758Y-131706661D01*
X132314990Y-132220303D01*
X132707630Y-132613629D01*
X132915512Y-132699949D01*
X132709697Y-132784990D01*
X132316371Y-133177630D01*
X132103243Y-133690900D01*
X132102758Y-134246661D01*
X132314990Y-134760303D01*
X132707630Y-135153629D01*
X132915512Y-135239949D01*
X132709697Y-135324990D01*
X132316371Y-135717630D01*
X132103243Y-136230900D01*
X132102758Y-136786661D01*
X132314990Y-137300303D01*
X132707630Y-137693629D01*
X132899727Y-137773395D01*
X132768857Y-137827603D01*
X132699392Y-138069787D01*
X133500000Y-138870395D01*
X134300608Y-138069787D01*
X134231143Y-137827603D01*
X134090682Y-137777491D01*
X134290303Y-137695010D01*
X134642427Y-137343500D01*
X141331200Y-137343500D01*
X141622039Y-137285648D01*
X141868601Y-137120901D01*
X142568223Y-136421279D01*
X142577189Y-136434698D01*
X143042736Y-136745767D01*
X143591887Y-136855000D01*
X143648113Y-136855000D01*
X144197264Y-136745767D01*
X144662811Y-136434698D01*
X144832995Y-136180000D01*
X179384000Y-136180000D01*
X179401334Y-136176552D01*
X179337243Y-136330900D01*
X179336758Y-136886661D01*
X179548990Y-137400303D01*
X179941630Y-137793629D01*
X180133727Y-137873395D01*
X180002857Y-137927603D01*
X179933392Y-138169787D01*
X180734000Y-138970395D01*
X181534608Y-138169787D01*
X181465143Y-137927603D01*
X181324682Y-137877491D01*
X181524303Y-137795010D01*
X181917629Y-137402370D01*
X182130757Y-136889100D01*
X182131242Y-136333339D01*
X182117857Y-136300945D01*
X182402901Y-136015901D01*
X182567648Y-135769339D01*
X182625500Y-135478500D01*
X182625500Y-128114802D01*
X183932557Y-126807745D01*
X185371861Y-126807745D01*
X185445995Y-127053864D01*
X185983223Y-127246965D01*
X186553454Y-127219778D01*
X186954005Y-127053864D01*
X187028139Y-126807745D01*
X186200000Y-125979605D01*
X185371861Y-126807745D01*
X183932557Y-126807745D01*
X184771422Y-125968881D01*
X184780222Y-126153454D01*
X184946136Y-126554005D01*
X185192255Y-126628139D01*
X186020395Y-125800000D01*
X186379605Y-125800000D01*
X187207745Y-126628139D01*
X187453864Y-126554005D01*
X187646965Y-126016777D01*
X187619778Y-125446546D01*
X187453864Y-125045995D01*
X187207745Y-124971861D01*
X186379605Y-125800000D01*
X186020395Y-125800000D01*
X186006253Y-125785858D01*
X186185858Y-125606252D01*
X186200000Y-125620395D01*
X187028139Y-124792255D01*
X187013855Y-124744833D01*
X187235317Y-124703162D01*
X187451441Y-124564090D01*
X187596431Y-124351890D01*
X187647440Y-124100000D01*
X187647440Y-122500000D01*
X187603162Y-122264683D01*
X187464090Y-122048559D01*
X187426576Y-122022926D01*
X187535101Y-121914401D01*
X187699848Y-121667839D01*
X187757700Y-121377000D01*
X187757700Y-118865306D01*
X192578410Y-118865306D01*
X192604421Y-119465458D01*
X192784047Y-119899116D01*
X193037940Y-119982455D01*
X193920395Y-119100000D01*
X193037940Y-118217545D01*
X192784047Y-118300884D01*
X192578410Y-118865306D01*
X187757700Y-118865306D01*
X187757700Y-118459350D01*
X187951791Y-118168872D01*
X188086139Y-118142148D01*
X188332701Y-117977401D01*
X188950102Y-117360000D01*
X192780203Y-117360000D01*
X192819138Y-117454229D01*
X193243537Y-117879370D01*
X193266469Y-117888892D01*
X193217545Y-118037940D01*
X194100000Y-118920395D01*
X194114143Y-118906253D01*
X194293748Y-119085858D01*
X194279605Y-119100000D01*
X194293748Y-119114143D01*
X194114143Y-119293748D01*
X194100000Y-119279605D01*
X193217545Y-120162060D01*
X193266318Y-120310648D01*
X193245771Y-120319138D01*
X192820630Y-120743537D01*
X192590262Y-121298325D01*
X192589738Y-121899040D01*
X192819138Y-122454229D01*
X192987717Y-122623103D01*
X192773559Y-122760910D01*
X192628569Y-122973110D01*
X192577560Y-123225000D01*
X192577560Y-124975000D01*
X192621838Y-125210317D01*
X192760910Y-125426441D01*
X192973110Y-125571431D01*
X193225000Y-125622440D01*
X194540300Y-125622440D01*
X194540300Y-129347824D01*
X194401675Y-129290262D01*
X193800960Y-129289738D01*
X193245771Y-129519138D01*
X192820630Y-129943537D01*
X192590262Y-130498325D01*
X192589738Y-131099040D01*
X192819138Y-131654229D01*
X192987717Y-131823103D01*
X192773559Y-131960910D01*
X192628569Y-132173110D01*
X192577560Y-132425000D01*
X192577560Y-134175000D01*
X192621838Y-134410317D01*
X192760910Y-134626441D01*
X192973110Y-134771431D01*
X193225000Y-134822440D01*
X193741758Y-134822440D01*
X190924498Y-137639700D01*
X187850400Y-137639700D01*
X187559561Y-137697552D01*
X187312999Y-137862299D01*
X187038676Y-138136622D01*
X187026890Y-138128569D01*
X186775000Y-138077560D01*
X185025000Y-138077560D01*
X184789683Y-138121838D01*
X184573559Y-138260910D01*
X184428569Y-138473110D01*
X184377560Y-138725000D01*
X184377560Y-140475000D01*
X184421838Y-140710317D01*
X184560910Y-140926441D01*
X184773110Y-141071431D01*
X185025000Y-141122440D01*
X186775000Y-141122440D01*
X187010317Y-141078162D01*
X187226441Y-140939090D01*
X187371431Y-140726890D01*
X187374786Y-140710324D01*
X187543537Y-140879370D01*
X188098325Y-141109738D01*
X188699040Y-141110262D01*
X189254229Y-140880862D01*
X189635756Y-140500000D01*
X192490000Y-140500000D01*
X192665838Y-141383999D01*
X193166583Y-142133417D01*
X193916001Y-142634162D01*
X194800000Y-142810000D01*
X195683999Y-142634162D01*
X196433417Y-142133417D01*
X196934162Y-141383999D01*
X197110000Y-140500000D01*
X196934162Y-139616001D01*
X196433417Y-138866583D01*
X195683999Y-138365838D01*
X194800000Y-138190000D01*
X193916001Y-138365838D01*
X193166583Y-138866583D01*
X192665838Y-139616001D01*
X192490000Y-140500000D01*
X189635756Y-140500000D01*
X189679370Y-140456463D01*
X189909738Y-139901675D01*
X189910262Y-139300960D01*
X189851894Y-139159700D01*
X191239300Y-139159700D01*
X191530139Y-139101848D01*
X191776701Y-138937101D01*
X196775701Y-133938101D01*
X196940448Y-133691539D01*
X196998300Y-133400700D01*
X196998300Y-77317900D01*
X196940448Y-77027061D01*
X196775701Y-76780499D01*
X195657501Y-75662299D01*
X195470386Y-75537273D01*
X195609738Y-75201675D01*
X195610262Y-74600960D01*
X195380862Y-74045771D01*
X194956463Y-73620630D01*
X194401675Y-73390262D01*
X193800960Y-73389738D01*
X193245771Y-73619138D01*
X192820630Y-74043537D01*
X192590262Y-74598325D01*
X192589738Y-75199040D01*
X192689177Y-75439700D01*
X185619802Y-75439700D01*
X183929658Y-73749556D01*
X184400000Y-73843113D01*
X184949151Y-73733880D01*
X185414698Y-73422811D01*
X185615679Y-73122022D01*
X185816139Y-73082148D01*
X186062701Y-72917401D01*
X186227448Y-72670839D01*
X186285300Y-72380000D01*
X186285300Y-72289802D01*
X188737401Y-69837701D01*
X188881233Y-69622440D01*
X189075000Y-69622440D01*
X189310317Y-69578162D01*
X189526441Y-69439090D01*
X189671431Y-69226890D01*
X189722440Y-68975000D01*
X189722440Y-67700000D01*
X192390000Y-67700000D01*
X192565838Y-68583999D01*
X193066583Y-69333417D01*
X193816001Y-69834162D01*
X194700000Y-70010000D01*
X195583999Y-69834162D01*
X196333417Y-69333417D01*
X196834162Y-68583999D01*
X197010000Y-67700000D01*
X196834162Y-66816001D01*
X196333417Y-66066583D01*
X195583999Y-65565838D01*
X194700000Y-65390000D01*
X193816001Y-65565838D01*
X193066583Y-66066583D01*
X192565838Y-66816001D01*
X192390000Y-67700000D01*
X189722440Y-67700000D01*
X189722440Y-67225000D01*
X189678162Y-66989683D01*
X189539090Y-66773559D01*
X189326890Y-66628569D01*
X189075000Y-66577560D01*
X187325000Y-66577560D01*
X187089683Y-66621838D01*
X186873559Y-66760910D01*
X186728569Y-66973110D01*
X186725214Y-66989676D01*
X186556463Y-66820630D01*
X186001675Y-66590262D01*
X185400960Y-66589738D01*
X184845771Y-66819138D01*
X184420630Y-67243537D01*
X184190262Y-67798325D01*
X184189738Y-68399040D01*
X184419138Y-68954229D01*
X184843537Y-69379370D01*
X185398325Y-69609738D01*
X185999040Y-69610262D01*
X186554229Y-69380862D01*
X186723103Y-69212283D01*
X186860910Y-69426441D01*
X186942981Y-69482517D01*
X185219042Y-71206456D01*
X184949151Y-71026120D01*
X184400000Y-70916887D01*
X183850849Y-71026120D01*
X183385302Y-71337189D01*
X183074233Y-71802736D01*
X182965000Y-72351887D01*
X182965000Y-72408113D01*
X183058557Y-72878455D01*
X182662701Y-72482599D01*
X182416139Y-72317852D01*
X182215679Y-72277978D01*
X182014698Y-71977189D01*
X181549151Y-71666120D01*
X181000000Y-71556887D01*
X180450849Y-71666120D01*
X179985302Y-71977189D01*
X179784321Y-72277978D01*
X179583861Y-72317852D01*
X179337299Y-72482599D01*
X179084067Y-72735831D01*
X179025767Y-72442736D01*
X178714698Y-71977189D01*
X178249151Y-71666120D01*
X177700000Y-71556887D01*
X177150849Y-71666120D01*
X176685302Y-71977189D01*
X176374233Y-72442736D01*
X176265000Y-72991887D01*
X176265000Y-73048113D01*
X176332071Y-73385300D01*
X115331897Y-73385300D01*
X115396757Y-73229100D01*
X115397242Y-72673339D01*
X115185010Y-72159697D01*
X114792370Y-71766371D01*
X114279100Y-71553243D01*
X113723339Y-71552758D01*
X113209697Y-71764990D01*
X112816371Y-72157630D01*
X112802930Y-72190000D01*
X94950300Y-72190000D01*
X94659461Y-72247852D01*
X94412899Y-72412599D01*
X93883274Y-72942224D01*
X93839090Y-72873559D01*
X93626890Y-72728569D01*
X93375000Y-72677560D01*
X91625000Y-72677560D01*
X91389683Y-72721838D01*
X91173559Y-72860910D01*
X91028569Y-73073110D01*
X90977560Y-73325000D01*
X89010000Y-73325000D01*
X89010000Y-71526661D01*
X136402758Y-71526661D01*
X136614990Y-72040303D01*
X137007630Y-72433629D01*
X137520900Y-72646757D01*
X138076661Y-72647242D01*
X138590303Y-72435010D01*
X138983629Y-72042370D01*
X139196757Y-71529100D01*
X139197242Y-70973339D01*
X138985010Y-70459697D01*
X138592370Y-70066371D01*
X138079100Y-69853243D01*
X137523339Y-69852758D01*
X137009697Y-70064990D01*
X136616371Y-70457630D01*
X136403243Y-70970900D01*
X136402758Y-71526661D01*
X89010000Y-71526661D01*
X89010000Y-70226661D01*
X112602758Y-70226661D01*
X112814990Y-70740303D01*
X113207630Y-71133629D01*
X113720900Y-71346757D01*
X114276661Y-71347242D01*
X114790303Y-71135010D01*
X115183629Y-70742370D01*
X115396757Y-70229100D01*
X115397242Y-69673339D01*
X115185010Y-69159697D01*
X114792370Y-68766371D01*
X114279100Y-68553243D01*
X113723339Y-68552758D01*
X113209697Y-68764990D01*
X112816371Y-69157630D01*
X112603243Y-69670900D01*
X112602758Y-70226661D01*
X89010000Y-70226661D01*
X89010000Y-67700000D01*
X89590000Y-67700000D01*
X89765838Y-68583999D01*
X90266583Y-69333417D01*
X91016001Y-69834162D01*
X91900000Y-70010000D01*
X92783999Y-69834162D01*
X93533417Y-69333417D01*
X94024111Y-68599040D01*
X97089738Y-68599040D01*
X97319138Y-69154229D01*
X97743537Y-69579370D01*
X98298325Y-69809738D01*
X98899040Y-69810262D01*
X99454229Y-69580862D01*
X99623103Y-69412283D01*
X99760910Y-69626441D01*
X99973110Y-69771431D01*
X100225000Y-69822440D01*
X101975000Y-69822440D01*
X102210317Y-69778162D01*
X102426441Y-69639090D01*
X102571431Y-69426890D01*
X102622440Y-69175000D01*
X102622440Y-68599040D01*
X105789738Y-68599040D01*
X106019138Y-69154229D01*
X106443537Y-69579370D01*
X106998325Y-69809738D01*
X107599040Y-69810262D01*
X108154229Y-69580862D01*
X108323103Y-69412283D01*
X108460910Y-69626441D01*
X108673110Y-69771431D01*
X108925000Y-69822440D01*
X110675000Y-69822440D01*
X110910317Y-69778162D01*
X111126441Y-69639090D01*
X111271431Y-69426890D01*
X111322440Y-69175000D01*
X111322440Y-68526661D01*
X136402758Y-68526661D01*
X136614990Y-69040303D01*
X137007630Y-69433629D01*
X137520900Y-69646757D01*
X138076661Y-69647242D01*
X138590303Y-69435010D01*
X138983629Y-69042370D01*
X139196757Y-68529100D01*
X139197242Y-67973339D01*
X138985010Y-67459697D01*
X138592370Y-67066371D01*
X138079100Y-66853243D01*
X137523339Y-66852758D01*
X137009697Y-67064990D01*
X136616371Y-67457630D01*
X136403243Y-67970900D01*
X136402758Y-68526661D01*
X111322440Y-68526661D01*
X111322440Y-67425000D01*
X111278162Y-67189683D01*
X111139090Y-66973559D01*
X110926890Y-66828569D01*
X110675000Y-66777560D01*
X108925000Y-66777560D01*
X108689683Y-66821838D01*
X108473559Y-66960910D01*
X108328569Y-67173110D01*
X108325214Y-67189676D01*
X108156463Y-67020630D01*
X107601675Y-66790262D01*
X107000960Y-66789738D01*
X106445771Y-67019138D01*
X106020630Y-67443537D01*
X105790262Y-67998325D01*
X105789738Y-68599040D01*
X102622440Y-68599040D01*
X102622440Y-67425000D01*
X102578162Y-67189683D01*
X102439090Y-66973559D01*
X102226890Y-66828569D01*
X101975000Y-66777560D01*
X100225000Y-66777560D01*
X99989683Y-66821838D01*
X99773559Y-66960910D01*
X99628569Y-67173110D01*
X99625214Y-67189676D01*
X99456463Y-67020630D01*
X98901675Y-66790262D01*
X98300960Y-66789738D01*
X97745771Y-67019138D01*
X97320630Y-67443537D01*
X97090262Y-67998325D01*
X97089738Y-68599040D01*
X94024111Y-68599040D01*
X94034162Y-68583999D01*
X94210000Y-67700000D01*
X94034162Y-66816001D01*
X93533417Y-66066583D01*
X92783999Y-65565838D01*
X91900000Y-65390000D01*
X91016001Y-65565838D01*
X90266583Y-66066583D01*
X89765838Y-66816001D01*
X89590000Y-67700000D01*
X89010000Y-67700000D01*
X89010000Y-64810000D01*
X149023698Y-64810000D01*
X148919381Y-64914317D01*
X148919381Y-64914317D01*
G37*
X148919381Y-64914317D02*
X148889100Y-64901743D01*
X148333339Y-64901258D01*
X147819697Y-65113490D01*
X147426371Y-65506130D01*
X147340051Y-65714012D01*
X147255010Y-65508197D01*
X146862370Y-65114871D01*
X146349100Y-64901743D01*
X145793339Y-64901258D01*
X145279697Y-65113490D01*
X144886371Y-65506130D01*
X144800051Y-65714012D01*
X144715010Y-65508197D01*
X144322370Y-65114871D01*
X143809100Y-64901743D01*
X143253339Y-64901258D01*
X142739697Y-65113490D01*
X142346371Y-65506130D01*
X142260051Y-65714012D01*
X142175010Y-65508197D01*
X141782370Y-65114871D01*
X141269100Y-64901743D01*
X140713339Y-64901258D01*
X140199697Y-65113490D01*
X139806371Y-65506130D01*
X139593243Y-66019400D01*
X139592758Y-66575161D01*
X139804990Y-67088803D01*
X140197630Y-67482129D01*
X140710900Y-67695257D01*
X141266661Y-67695742D01*
X141780303Y-67483510D01*
X142173629Y-67090870D01*
X142259949Y-66882988D01*
X142344990Y-67088803D01*
X142737630Y-67482129D01*
X143250900Y-67695257D01*
X143806661Y-67695742D01*
X144320303Y-67483510D01*
X144713629Y-67090870D01*
X144799949Y-66882988D01*
X144884990Y-67088803D01*
X145277630Y-67482129D01*
X145790900Y-67695257D01*
X146346661Y-67695742D01*
X146860303Y-67483510D01*
X147253629Y-67090870D01*
X147339949Y-66882988D01*
X147424990Y-67088803D01*
X147817630Y-67482129D01*
X148330900Y-67695257D01*
X148886661Y-67695742D01*
X149400303Y-67483510D01*
X149793629Y-67090870D01*
X149879949Y-66882988D01*
X149964990Y-67088803D01*
X150357630Y-67482129D01*
X150870900Y-67695257D01*
X151426661Y-67695742D01*
X151940303Y-67483510D01*
X152333629Y-67090870D01*
X152419949Y-66882988D01*
X152504990Y-67088803D01*
X152897630Y-67482129D01*
X153410900Y-67695257D01*
X153966661Y-67695742D01*
X154480303Y-67483510D01*
X154873629Y-67090870D01*
X154959949Y-66882988D01*
X155044990Y-67088803D01*
X155437630Y-67482129D01*
X155950900Y-67695257D01*
X156506661Y-67695742D01*
X157020303Y-67483510D01*
X157413629Y-67090870D01*
X157499949Y-66882988D01*
X157584990Y-67088803D01*
X157977630Y-67482129D01*
X158490900Y-67695257D01*
X159046661Y-67695742D01*
X159560303Y-67483510D01*
X159953629Y-67090870D01*
X160039949Y-66882988D01*
X160124990Y-67088803D01*
X160517630Y-67482129D01*
X161030900Y-67695257D01*
X161586661Y-67695742D01*
X162100303Y-67483510D01*
X162493629Y-67090870D01*
X162579949Y-66882988D01*
X162664990Y-67088803D01*
X163057630Y-67482129D01*
X163570900Y-67695257D01*
X164126661Y-67695742D01*
X164640303Y-67483510D01*
X165033629Y-67090870D01*
X165119949Y-66882988D01*
X165204990Y-67088803D01*
X165597630Y-67482129D01*
X166110900Y-67695257D01*
X166666661Y-67695742D01*
X167180303Y-67483510D01*
X167385457Y-67278713D01*
X168129392Y-67278713D01*
X168198857Y-67520897D01*
X168722302Y-67707644D01*
X169277368Y-67679862D01*
X169661143Y-67520897D01*
X169730608Y-67278713D01*
X170669392Y-67278713D01*
X170738857Y-67520897D01*
X171262302Y-67707644D01*
X171817368Y-67679862D01*
X172201143Y-67520897D01*
X172270608Y-67278713D01*
X171470000Y-66478105D01*
X170669392Y-67278713D01*
X169730608Y-67278713D01*
X168930000Y-66478105D01*
X168129392Y-67278713D01*
X167385457Y-67278713D01*
X167573629Y-67090870D01*
X167653395Y-66898773D01*
X167707603Y-67029643D01*
X167949787Y-67099108D01*
X168750395Y-66298500D01*
X168736253Y-66284358D01*
X168915858Y-66104753D01*
X168930000Y-66118895D01*
X168944143Y-66104753D01*
X169123748Y-66284358D01*
X169109605Y-66298500D01*
X169910213Y-67099108D01*
X170152397Y-67029643D01*
X170196453Y-66906156D01*
X170247603Y-67029643D01*
X170489787Y-67099108D01*
X171290395Y-66298500D01*
X171276253Y-66284358D01*
X171455858Y-66104753D01*
X171470000Y-66118895D01*
X171484143Y-66104753D01*
X171663748Y-66284358D01*
X171649605Y-66298500D01*
X172450213Y-67099108D01*
X172692397Y-67029643D01*
X172742509Y-66889182D01*
X172824990Y-67088803D01*
X173217630Y-67482129D01*
X173730900Y-67695257D01*
X174286661Y-67695742D01*
X174800303Y-67483510D01*
X175193629Y-67090870D01*
X175406757Y-66577600D01*
X175407242Y-66021839D01*
X175378798Y-65953000D01*
X176375823Y-65953000D01*
X176482757Y-66211800D01*
X176886077Y-66615824D01*
X177413309Y-66834750D01*
X177984187Y-66835248D01*
X178511800Y-66617243D01*
X178915824Y-66213923D01*
X179134750Y-65686691D01*
X179135248Y-65115813D01*
X179008889Y-64810000D01*
X179691195Y-64810000D01*
X179565250Y-65113309D01*
X179564752Y-65684187D01*
X179782757Y-66211800D01*
X180186077Y-66615824D01*
X180713309Y-66834750D01*
X181284187Y-66835248D01*
X181811800Y-66617243D01*
X182215824Y-66213923D01*
X182434750Y-65686691D01*
X182435248Y-65115813D01*
X182308889Y-64810000D01*
X197590000Y-64810000D01*
X197590000Y-143390000D01*
X138435714Y-143390000D01*
X138611800Y-143317243D01*
X139015824Y-142913923D01*
X139234750Y-142386691D01*
X139235248Y-141815813D01*
X139017243Y-141288200D01*
X138753317Y-141023813D01*
X138959699Y-140938327D01*
X139138327Y-140759698D01*
X139235000Y-140526309D01*
X139235000Y-140130213D01*
X179933392Y-140130213D01*
X180002857Y-140372397D01*
X180526302Y-140559144D01*
X181081368Y-140531362D01*
X181465143Y-140372397D01*
X181534608Y-140130213D01*
X180734000Y-139329605D01*
X179933392Y-140130213D01*
X139235000Y-140130213D01*
X139235000Y-139885750D01*
X139076250Y-139727000D01*
X137927000Y-139727000D01*
X137927000Y-139747000D01*
X137673000Y-139747000D01*
X137673000Y-139727000D01*
X136523750Y-139727000D01*
X136365000Y-139885750D01*
X136365000Y-140526309D01*
X136461673Y-140759698D01*
X136640301Y-140938327D01*
X136846835Y-141023876D01*
X136584176Y-141286077D01*
X136365250Y-141813309D01*
X136364752Y-142384187D01*
X136582757Y-142911800D01*
X136986077Y-143315824D01*
X137164713Y-143390000D01*
X89010000Y-143390000D01*
X89010000Y-140500000D01*
X89590000Y-140500000D01*
X89765838Y-141383999D01*
X90266583Y-142133417D01*
X91016001Y-142634162D01*
X91900000Y-142810000D01*
X92783999Y-142634162D01*
X93533417Y-142133417D01*
X93711657Y-141866661D01*
X132102758Y-141866661D01*
X132314990Y-142380303D01*
X132707630Y-142773629D01*
X133220900Y-142986757D01*
X133776661Y-142987242D01*
X134290303Y-142775010D01*
X134683629Y-142382370D01*
X134896757Y-141869100D01*
X134897242Y-141313339D01*
X134685010Y-140799697D01*
X134292370Y-140406371D01*
X134100273Y-140326605D01*
X134231143Y-140272397D01*
X134300608Y-140030213D01*
X133500000Y-139229605D01*
X132699392Y-140030213D01*
X132768857Y-140272397D01*
X132909318Y-140322509D01*
X132709697Y-140404990D01*
X132316371Y-140797630D01*
X132103243Y-141310900D01*
X132102758Y-141866661D01*
X93711657Y-141866661D01*
X94034162Y-141383999D01*
X94210000Y-140500000D01*
X94147492Y-140185750D01*
X98190000Y-140185750D01*
X98190000Y-140901310D01*
X98286673Y-141134699D01*
X98465302Y-141313327D01*
X98698691Y-141410000D01*
X99414250Y-141410000D01*
X99573000Y-141251250D01*
X99573000Y-140027000D01*
X98348750Y-140027000D01*
X98190000Y-140185750D01*
X94147492Y-140185750D01*
X94034162Y-139616001D01*
X93554871Y-138898690D01*
X98190000Y-138898690D01*
X98190000Y-139614250D01*
X98348750Y-139773000D01*
X99573000Y-139773000D01*
X99573000Y-138548750D01*
X99827000Y-138548750D01*
X99827000Y-139773000D01*
X99847000Y-139773000D01*
X99847000Y-140027000D01*
X99827000Y-140027000D01*
X99827000Y-141251250D01*
X99985750Y-141410000D01*
X100701309Y-141410000D01*
X100934698Y-141313327D01*
X101113327Y-141134699D01*
X101167760Y-141003286D01*
X101343537Y-141179370D01*
X101898325Y-141409738D01*
X102499040Y-141410262D01*
X103054229Y-141180862D01*
X103479370Y-140756463D01*
X103709738Y-140201675D01*
X103710262Y-139600960D01*
X103480862Y-139045771D01*
X103277749Y-138842302D01*
X132090856Y-138842302D01*
X132118638Y-139397368D01*
X132277603Y-139781143D01*
X132519787Y-139850608D01*
X133320395Y-139050000D01*
X133679605Y-139050000D01*
X134480213Y-139850608D01*
X134722397Y-139781143D01*
X134909144Y-139257698D01*
X134881362Y-138702632D01*
X134869375Y-138673691D01*
X136365000Y-138673691D01*
X136365000Y-139314250D01*
X136523750Y-139473000D01*
X137673000Y-139473000D01*
X137673000Y-138323750D01*
X137927000Y-138323750D01*
X137927000Y-139473000D01*
X139076250Y-139473000D01*
X139235000Y-139314250D01*
X139235000Y-138942302D01*
X179324856Y-138942302D01*
X179352638Y-139497368D01*
X179511603Y-139881143D01*
X179753787Y-139950608D01*
X180554395Y-139150000D01*
X180913605Y-139150000D01*
X181714213Y-139950608D01*
X181956397Y-139881143D01*
X182143144Y-139357698D01*
X182115362Y-138802632D01*
X181956397Y-138418857D01*
X181714213Y-138349392D01*
X180913605Y-139150000D01*
X180554395Y-139150000D01*
X179753787Y-138349392D01*
X179511603Y-138418857D01*
X179324856Y-138942302D01*
X139235000Y-138942302D01*
X139235000Y-138673691D01*
X139138327Y-138440302D01*
X138959699Y-138261673D01*
X138726310Y-138165000D01*
X138085750Y-138165000D01*
X137927000Y-138323750D01*
X137673000Y-138323750D01*
X137514250Y-138165000D01*
X136873690Y-138165000D01*
X136640301Y-138261673D01*
X136461673Y-138440302D01*
X136365000Y-138673691D01*
X134869375Y-138673691D01*
X134722397Y-138318857D01*
X134480213Y-138249392D01*
X133679605Y-139050000D01*
X133320395Y-139050000D01*
X132519787Y-138249392D01*
X132277603Y-138318857D01*
X132090856Y-138842302D01*
X103277749Y-138842302D01*
X103056463Y-138620630D01*
X102501675Y-138390262D01*
X101900960Y-138389738D01*
X101345771Y-138619138D01*
X101167797Y-138796802D01*
X101113327Y-138665301D01*
X100934698Y-138486673D01*
X100701309Y-138390000D01*
X99985750Y-138390000D01*
X99827000Y-138548750D01*
X99573000Y-138548750D01*
X99414250Y-138390000D01*
X98698691Y-138390000D01*
X98465302Y-138486673D01*
X98286673Y-138665301D01*
X98190000Y-138898690D01*
X93554871Y-138898690D01*
X93533417Y-138866583D01*
X92783999Y-138365838D01*
X91900000Y-138190000D01*
X91016001Y-138365838D01*
X90266583Y-138866583D01*
X89765838Y-139616001D01*
X89590000Y-140500000D01*
X89010000Y-140500000D01*
X89010000Y-135107745D01*
X98171861Y-135107745D01*
X98245995Y-135353864D01*
X98783223Y-135546965D01*
X99353454Y-135519778D01*
X99754005Y-135353864D01*
X99828139Y-135107745D01*
X99000000Y-134279605D01*
X98171861Y-135107745D01*
X89010000Y-135107745D01*
X89010000Y-124425000D01*
X90677560Y-124425000D01*
X90677560Y-126175000D01*
X90721838Y-126410317D01*
X90860910Y-126626441D01*
X91073110Y-126771431D01*
X91089676Y-126774786D01*
X90920630Y-126943537D01*
X90690262Y-127498325D01*
X90689738Y-128099040D01*
X90919138Y-128654229D01*
X91314536Y-129050318D01*
X90920630Y-129443537D01*
X90690262Y-129998325D01*
X90689738Y-130599040D01*
X90919138Y-131154229D01*
X91314536Y-131550318D01*
X90920630Y-131943537D01*
X90690262Y-132498325D01*
X90689738Y-133099040D01*
X90919138Y-133654229D01*
X91343537Y-134079370D01*
X91898325Y-134309738D01*
X92499040Y-134310262D01*
X93054229Y-134080862D01*
X93479370Y-133656463D01*
X93709738Y-133101675D01*
X93709927Y-132884729D01*
X94337299Y-133512101D01*
X94583861Y-133676848D01*
X94874700Y-133734700D01*
X97606420Y-133734700D01*
X97553035Y-133883223D01*
X97580222Y-134453454D01*
X97746136Y-134854005D01*
X97992255Y-134928139D01*
X98820395Y-134100000D01*
X98806253Y-134085858D01*
X98985858Y-133906253D01*
X99000000Y-133920395D01*
X99014143Y-133906253D01*
X99193748Y-134085858D01*
X99179605Y-134100000D01*
X100007745Y-134928139D01*
X100055167Y-134913855D01*
X100096838Y-135135317D01*
X100235910Y-135351441D01*
X100448110Y-135496431D01*
X100700000Y-135547440D01*
X102300000Y-135547440D01*
X102535317Y-135503162D01*
X102751441Y-135364090D01*
X102896431Y-135151890D01*
X102947440Y-134900000D01*
X102947440Y-133300000D01*
X102903162Y-133064683D01*
X102764090Y-132848559D01*
X102551890Y-132703569D01*
X102300000Y-132652560D01*
X100700000Y-132652560D01*
X100464683Y-132696838D01*
X100381358Y-132750456D01*
X100068201Y-132437299D01*
X99821639Y-132272552D01*
X99530800Y-132214700D01*
X95189502Y-132214700D01*
X93670639Y-130695837D01*
X93709738Y-130601675D01*
X93710262Y-130000960D01*
X93503270Y-129500000D01*
X94916887Y-129500000D01*
X95026120Y-130049151D01*
X95337189Y-130514698D01*
X95802736Y-130825767D01*
X96351887Y-130935000D01*
X96408113Y-130935000D01*
X96957264Y-130825767D01*
X97422811Y-130514698D01*
X97592995Y-130260000D01*
X100600000Y-130260000D01*
X100890839Y-130202148D01*
X101137401Y-130037401D01*
X103661546Y-127513256D01*
X103713309Y-127534750D01*
X104284187Y-127535248D01*
X104811800Y-127317243D01*
X105215824Y-126913923D01*
X105434750Y-126386691D01*
X105435248Y-125815813D01*
X105217243Y-125288200D01*
X104813923Y-124884176D01*
X104286691Y-124665250D01*
X103715813Y-124664752D01*
X103188200Y-124882757D01*
X102784176Y-125286077D01*
X102565250Y-125813309D01*
X102564752Y-126384187D01*
X102587049Y-126438149D01*
X100285198Y-128740000D01*
X97592995Y-128740000D01*
X97422811Y-128485302D01*
X96957264Y-128174233D01*
X96408113Y-128065000D01*
X96351887Y-128065000D01*
X95802736Y-128174233D01*
X95337189Y-128485302D01*
X95026120Y-128950849D01*
X94916887Y-129500000D01*
X93503270Y-129500000D01*
X93480862Y-129445771D01*
X93085464Y-129049682D01*
X93479370Y-128656463D01*
X93709738Y-128101675D01*
X93710262Y-127500960D01*
X93480862Y-126945771D01*
X93312283Y-126776897D01*
X93526441Y-126639090D01*
X93671431Y-126426890D01*
X93722440Y-126175000D01*
X93722440Y-126100000D01*
X94916887Y-126100000D01*
X95026120Y-126649151D01*
X95337189Y-127114698D01*
X95802736Y-127425767D01*
X96351887Y-127535000D01*
X96408113Y-127535000D01*
X96957264Y-127425767D01*
X97422811Y-127114698D01*
X97733880Y-126649151D01*
X97843113Y-126100000D01*
X97733880Y-125550849D01*
X97422811Y-125085302D01*
X96957264Y-124774233D01*
X96408113Y-124665000D01*
X96351887Y-124665000D01*
X95802736Y-124774233D01*
X95337189Y-125085302D01*
X95026120Y-125550849D01*
X94916887Y-126100000D01*
X93722440Y-126100000D01*
X93722440Y-124425000D01*
X93678162Y-124189683D01*
X93539090Y-123973559D01*
X93326890Y-123828569D01*
X93075000Y-123777560D01*
X91325000Y-123777560D01*
X91089683Y-123821838D01*
X90873559Y-123960910D01*
X90728569Y-124173110D01*
X90677560Y-124425000D01*
X89010000Y-124425000D01*
X89010000Y-122700000D01*
X94916887Y-122700000D01*
X95026120Y-123249151D01*
X95337189Y-123714698D01*
X95802736Y-124025767D01*
X96351887Y-124135000D01*
X96408113Y-124135000D01*
X96957264Y-124025767D01*
X97422811Y-123714698D01*
X97427456Y-123707745D01*
X103171861Y-123707745D01*
X103245995Y-123953864D01*
X103783223Y-124146965D01*
X104353454Y-124119778D01*
X104754005Y-123953864D01*
X104828139Y-123707745D01*
X104000000Y-122879605D01*
X103171861Y-123707745D01*
X97427456Y-123707745D01*
X97733880Y-123249151D01*
X97843113Y-122700000D01*
X97799994Y-122483223D01*
X102553035Y-122483223D01*
X102580222Y-123053454D01*
X102746136Y-123454005D01*
X102992255Y-123528139D01*
X103820395Y-122700000D01*
X104179605Y-122700000D01*
X105007745Y-123528139D01*
X105253864Y-123454005D01*
X105446965Y-122916777D01*
X105419778Y-122346546D01*
X105253864Y-121945995D01*
X105007745Y-121871861D01*
X104179605Y-122700000D01*
X103820395Y-122700000D01*
X102992255Y-121871861D01*
X102746136Y-121945995D01*
X102553035Y-122483223D01*
X97799994Y-122483223D01*
X97733880Y-122150849D01*
X97427457Y-121692255D01*
X103171861Y-121692255D01*
X104000000Y-122520395D01*
X104828139Y-121692255D01*
X104784285Y-121546661D01*
X105432758Y-121546661D01*
X105644990Y-122060303D01*
X106037630Y-122453629D01*
X106550900Y-122666757D01*
X107106661Y-122667242D01*
X107620303Y-122455010D01*
X108013629Y-122062370D01*
X108027070Y-122030000D01*
X112604700Y-122030000D01*
X112895539Y-121972148D01*
X113142101Y-121807401D01*
X113402841Y-121546661D01*
X118132758Y-121546661D01*
X118344990Y-122060303D01*
X118737630Y-122453629D01*
X119250900Y-122666757D01*
X119806661Y-122667242D01*
X120320303Y-122455010D01*
X120713629Y-122062370D01*
X120926757Y-121549100D01*
X120927242Y-120993339D01*
X120715010Y-120479697D01*
X120322370Y-120086371D01*
X119809100Y-119873243D01*
X119253339Y-119872758D01*
X118739697Y-120084990D01*
X118346371Y-120477630D01*
X118133243Y-120990900D01*
X118132758Y-121546661D01*
X113402841Y-121546661D01*
X122121091Y-112828411D01*
X122135910Y-112851441D01*
X122348110Y-112996431D01*
X122600000Y-113047440D01*
X124200000Y-113047440D01*
X124435317Y-113003162D01*
X124651441Y-112864090D01*
X124662685Y-112847634D01*
X125113309Y-113034750D01*
X125684187Y-113035248D01*
X126211800Y-112817243D01*
X126615824Y-112413923D01*
X126834750Y-111886691D01*
X126835248Y-111315813D01*
X126617243Y-110788200D01*
X126213923Y-110384176D01*
X125686691Y-110165250D01*
X125115813Y-110164752D01*
X124665534Y-110350803D01*
X124664090Y-110348559D01*
X124451890Y-110203569D01*
X124200000Y-110152560D01*
X122600000Y-110152560D01*
X122364683Y-110196838D01*
X122148559Y-110335910D01*
X122003569Y-110548110D01*
X121952560Y-110800000D01*
X121952560Y-110918767D01*
X121737299Y-111062599D01*
X115280852Y-117519046D01*
X115215010Y-117359697D01*
X114822370Y-116966371D01*
X114309100Y-116753243D01*
X113753339Y-116752758D01*
X113239697Y-116964990D01*
X112846371Y-117357630D01*
X112633243Y-117870900D01*
X112632758Y-118426661D01*
X112844990Y-118940303D01*
X113237630Y-119333629D01*
X113399185Y-119400713D01*
X112289898Y-120510000D01*
X108027531Y-120510000D01*
X108015010Y-120479697D01*
X107622370Y-120086371D01*
X107109100Y-119873243D01*
X106553339Y-119872758D01*
X106039697Y-120084990D01*
X105646371Y-120477630D01*
X105433243Y-120990900D01*
X105432758Y-121546661D01*
X104784285Y-121546661D01*
X104754005Y-121446136D01*
X104216777Y-121253035D01*
X103646546Y-121280222D01*
X103245995Y-121446136D01*
X103171861Y-121692255D01*
X97427457Y-121692255D01*
X97422811Y-121685302D01*
X96957264Y-121374233D01*
X96408113Y-121265000D01*
X96351887Y-121265000D01*
X95802736Y-121374233D01*
X95337189Y-121685302D01*
X95026120Y-122150849D01*
X94916887Y-122700000D01*
X89010000Y-122700000D01*
X89010000Y-118731461D01*
X89772758Y-118731461D01*
X89984990Y-119245103D01*
X90377630Y-119638429D01*
X90890900Y-119851557D01*
X91446661Y-119852042D01*
X91960303Y-119639810D01*
X92353629Y-119247170D01*
X92566757Y-118733900D01*
X92567025Y-118426661D01*
X95106758Y-118426661D01*
X95318990Y-118940303D01*
X95711630Y-119333629D01*
X96224900Y-119546757D01*
X96780661Y-119547242D01*
X97294303Y-119335010D01*
X97687629Y-118942370D01*
X97900757Y-118429100D01*
X97901242Y-117873339D01*
X97689010Y-117359697D01*
X97296370Y-116966371D01*
X96783100Y-116753243D01*
X96227339Y-116752758D01*
X95713697Y-116964990D01*
X95320371Y-117357630D01*
X95107243Y-117870900D01*
X95106758Y-118426661D01*
X92567025Y-118426661D01*
X92567242Y-118178139D01*
X92355010Y-117664497D01*
X91962370Y-117271171D01*
X91449100Y-117058043D01*
X90893339Y-117057558D01*
X90379697Y-117269790D01*
X89986371Y-117662430D01*
X89773243Y-118175700D01*
X89772758Y-118731461D01*
X89010000Y-118731461D01*
X89010000Y-115886661D01*
X89772758Y-115886661D01*
X89984990Y-116400303D01*
X90377630Y-116793629D01*
X90890900Y-117006757D01*
X91446661Y-117007242D01*
X91960303Y-116795010D01*
X92353629Y-116402370D01*
X92566757Y-115889100D01*
X92567242Y-115333339D01*
X92355010Y-114819697D01*
X91962370Y-114426371D01*
X91449100Y-114213243D01*
X90893339Y-114212758D01*
X90379697Y-114424990D01*
X89986371Y-114817630D01*
X89773243Y-115330900D01*
X89772758Y-115886661D01*
X89010000Y-115886661D01*
X89010000Y-108266661D01*
X89772758Y-108266661D01*
X89984990Y-108780303D01*
X90377630Y-109173629D01*
X90890900Y-109386757D01*
X91446661Y-109387242D01*
X91960303Y-109175010D01*
X92353629Y-108782370D01*
X92367070Y-108750000D01*
X93964000Y-108750000D01*
X94254839Y-108692148D01*
X94501401Y-108527401D01*
X95744615Y-107284187D01*
X120164752Y-107284187D01*
X120382757Y-107811800D01*
X120786077Y-108215824D01*
X121313309Y-108434750D01*
X121884187Y-108435248D01*
X122411800Y-108217243D01*
X122815824Y-107813923D01*
X122849813Y-107732069D01*
X122882757Y-107811800D01*
X123286077Y-108215824D01*
X123813309Y-108434750D01*
X124384187Y-108435248D01*
X124911800Y-108217243D01*
X125250236Y-107879397D01*
X125586077Y-108215824D01*
X126113309Y-108434750D01*
X126684187Y-108435248D01*
X127211800Y-108217243D01*
X127615824Y-107813923D01*
X127834750Y-107286691D01*
X127835000Y-107000000D01*
X132556887Y-107000000D01*
X132666120Y-107549151D01*
X132977189Y-108014698D01*
X133442736Y-108325767D01*
X133991887Y-108435000D01*
X134048113Y-108435000D01*
X134597264Y-108325767D01*
X135062811Y-108014698D01*
X135373880Y-107549151D01*
X135483113Y-107000000D01*
X135373880Y-106450849D01*
X135062811Y-105985302D01*
X134597264Y-105674233D01*
X134048113Y-105565000D01*
X133991887Y-105565000D01*
X133442736Y-105674233D01*
X132977189Y-105985302D01*
X132666120Y-106450849D01*
X132556887Y-107000000D01*
X127835000Y-107000000D01*
X127835248Y-106715813D01*
X127617243Y-106188200D01*
X127213923Y-105784176D01*
X126686691Y-105565250D01*
X126115813Y-105564752D01*
X125588200Y-105782757D01*
X125249764Y-106120603D01*
X124913923Y-105784176D01*
X124386691Y-105565250D01*
X123815813Y-105564752D01*
X123288200Y-105782757D01*
X122884176Y-106186077D01*
X122850187Y-106267931D01*
X122817243Y-106188200D01*
X122413923Y-105784176D01*
X121886691Y-105565250D01*
X121315813Y-105564752D01*
X120788200Y-105782757D01*
X120384176Y-106186077D01*
X120165250Y-106713309D01*
X120164752Y-107284187D01*
X95744615Y-107284187D01*
X96194619Y-106834183D01*
X96224900Y-106846757D01*
X96780661Y-106847242D01*
X97294303Y-106635010D01*
X97687629Y-106242370D01*
X97900757Y-105729100D01*
X97900759Y-105726661D01*
X112632758Y-105726661D01*
X112844990Y-106240303D01*
X113237630Y-106633629D01*
X113750900Y-106846757D01*
X114306661Y-106847242D01*
X114820303Y-106635010D01*
X115213629Y-106242370D01*
X115426757Y-105729100D01*
X115427242Y-105173339D01*
X115215010Y-104659697D01*
X114822370Y-104266371D01*
X114309100Y-104053243D01*
X113753339Y-104052758D01*
X113239697Y-104264990D01*
X112846371Y-104657630D01*
X112633243Y-105170900D01*
X112632758Y-105726661D01*
X97900759Y-105726661D01*
X97901242Y-105173339D01*
X97689010Y-104659697D01*
X97296370Y-104266371D01*
X96783100Y-104053243D01*
X96227339Y-104052758D01*
X95713697Y-104264990D01*
X95320371Y-104657630D01*
X95107243Y-105170900D01*
X95106758Y-105726661D01*
X95120143Y-105759055D01*
X93649198Y-107230000D01*
X92367531Y-107230000D01*
X92355010Y-107199697D01*
X91962370Y-106806371D01*
X91449100Y-106593243D01*
X90893339Y-106592758D01*
X90379697Y-106804990D01*
X89986371Y-107197630D01*
X89773243Y-107710900D01*
X89772758Y-108266661D01*
X89010000Y-108266661D01*
X89010000Y-106125413D01*
X90369392Y-106125413D01*
X90438857Y-106367597D01*
X90962302Y-106554344D01*
X91517368Y-106526562D01*
X91901143Y-106367597D01*
X91970608Y-106125413D01*
X91170000Y-105324805D01*
X90369392Y-106125413D01*
X89010000Y-106125413D01*
X89010000Y-104937502D01*
X89760856Y-104937502D01*
X89788638Y-105492568D01*
X89947603Y-105876343D01*
X90189787Y-105945808D01*
X90990395Y-105145200D01*
X91349605Y-105145200D01*
X92150213Y-105945808D01*
X92392397Y-105876343D01*
X92579144Y-105352898D01*
X92551362Y-104797832D01*
X92392397Y-104414057D01*
X92150213Y-104344592D01*
X91349605Y-105145200D01*
X90990395Y-105145200D01*
X90189787Y-104344592D01*
X89947603Y-104414057D01*
X89760856Y-104937502D01*
X89010000Y-104937502D01*
X89010000Y-104164987D01*
X90369392Y-104164987D01*
X91170000Y-104965595D01*
X91970608Y-104164987D01*
X91901143Y-103922803D01*
X91377698Y-103736056D01*
X90822632Y-103763838D01*
X90438857Y-103922803D01*
X90369392Y-104164987D01*
X89010000Y-104164987D01*
X89010000Y-98490213D01*
X91659392Y-98490213D01*
X91728857Y-98732397D01*
X92252302Y-98919144D01*
X92807368Y-98891362D01*
X93191143Y-98732397D01*
X93260608Y-98490213D01*
X122139392Y-98490213D01*
X122208857Y-98732397D01*
X122732302Y-98919144D01*
X123287368Y-98891362D01*
X123671143Y-98732397D01*
X123740608Y-98490213D01*
X122940000Y-97689605D01*
X122139392Y-98490213D01*
X93260608Y-98490213D01*
X92460000Y-97689605D01*
X91659392Y-98490213D01*
X89010000Y-98490213D01*
X89010000Y-97302302D01*
X91050856Y-97302302D01*
X91078638Y-97857368D01*
X91237603Y-98241143D01*
X91479787Y-98310608D01*
X92280395Y-97510000D01*
X92639605Y-97510000D01*
X93440213Y-98310608D01*
X93682397Y-98241143D01*
X93869144Y-97717698D01*
X93848353Y-97302302D01*
X121530856Y-97302302D01*
X121558638Y-97857368D01*
X121717603Y-98241143D01*
X121959787Y-98310608D01*
X122760395Y-97510000D01*
X123119605Y-97510000D01*
X123920213Y-98310608D01*
X124162397Y-98241143D01*
X124349144Y-97717698D01*
X124321362Y-97162632D01*
X124162397Y-96778857D01*
X123920213Y-96709392D01*
X123119605Y-97510000D01*
X122760395Y-97510000D01*
X121959787Y-96709392D01*
X121717603Y-96778857D01*
X121530856Y-97302302D01*
X93848353Y-97302302D01*
X93841362Y-97162632D01*
X93682397Y-96778857D01*
X93440213Y-96709392D01*
X92639605Y-97510000D01*
X92280395Y-97510000D01*
X91479787Y-96709392D01*
X91237603Y-96778857D01*
X91050856Y-97302302D01*
X89010000Y-97302302D01*
X89010000Y-96529787D01*
X91659392Y-96529787D01*
X92460000Y-97330395D01*
X93260608Y-96529787D01*
X122139392Y-96529787D01*
X122940000Y-97330395D01*
X123740608Y-96529787D01*
X123671143Y-96287603D01*
X123147698Y-96100856D01*
X122592632Y-96128638D01*
X122208857Y-96287603D01*
X122139392Y-96529787D01*
X93260608Y-96529787D01*
X93191143Y-96287603D01*
X92667698Y-96100856D01*
X92112632Y-96128638D01*
X91728857Y-96287603D01*
X91659392Y-96529787D01*
X89010000Y-96529787D01*
X89010000Y-73325000D01*
X90977560Y-73325000D01*
X90977560Y-75075000D01*
X91021838Y-75310317D01*
X91160910Y-75526441D01*
X91373110Y-75671431D01*
X91389676Y-75674786D01*
X91220630Y-75843537D01*
X90990262Y-76398325D01*
X90989738Y-76999040D01*
X91219138Y-77554229D01*
X91614536Y-77950318D01*
X91220630Y-78343537D01*
X90990262Y-78898325D01*
X90989738Y-79499040D01*
X91219138Y-80054229D01*
X91614536Y-80450318D01*
X91220630Y-80843537D01*
X90990262Y-81398325D01*
X90989738Y-81999040D01*
X91219138Y-82554229D01*
X91643537Y-82979370D01*
X92198325Y-83209738D01*
X92799040Y-83210262D01*
X93354229Y-82980862D01*
X93779370Y-82556463D01*
X93954335Y-82135100D01*
X99140098Y-82135100D01*
X92769381Y-88505817D01*
X92739100Y-88493243D01*
X92183339Y-88492758D01*
X91669697Y-88704990D01*
X91276371Y-89097630D01*
X91063243Y-89610900D01*
X91062758Y-90166661D01*
X91274990Y-90680303D01*
X91667630Y-91073629D01*
X92180900Y-91286757D01*
X92736661Y-91287242D01*
X93250303Y-91075010D01*
X93643629Y-90682370D01*
X93856757Y-90169100D01*
X93857242Y-89613339D01*
X93843857Y-89580945D01*
X100055761Y-83369041D01*
X103008086Y-83369041D01*
X103247611Y-83875134D01*
X103662577Y-84251041D01*
X104050961Y-84411904D01*
X104273000Y-84289915D01*
X104273000Y-83147000D01*
X103129371Y-83147000D01*
X103008086Y-83369041D01*
X100055761Y-83369041D01*
X100772102Y-82652700D01*
X103016728Y-82652700D01*
X103008086Y-82670959D01*
X103129371Y-82893000D01*
X104273000Y-82893000D01*
X104273000Y-82873000D01*
X104527000Y-82873000D01*
X104527000Y-82893000D01*
X104547000Y-82893000D01*
X104547000Y-83147000D01*
X104527000Y-83147000D01*
X104527000Y-84289915D01*
X104749039Y-84411904D01*
X105137423Y-84251041D01*
X105552389Y-83875134D01*
X105734130Y-83491132D01*
X107899999Y-85657001D01*
X108146561Y-85821748D01*
X108437400Y-85879600D01*
X121650898Y-85879600D01*
X140192917Y-104421619D01*
X139886371Y-104727630D01*
X139847425Y-104821423D01*
X124378601Y-89352599D01*
X124172646Y-89214984D01*
X124125010Y-89099697D01*
X123732370Y-88706371D01*
X123219100Y-88493243D01*
X122663339Y-88492758D01*
X122149697Y-88704990D01*
X121756371Y-89097630D01*
X121543243Y-89610900D01*
X121542758Y-90166661D01*
X121754990Y-90680303D01*
X122147630Y-91073629D01*
X122660900Y-91286757D01*
X123216661Y-91287242D01*
X123730303Y-91075010D01*
X123840952Y-90964554D01*
X135706693Y-102830295D01*
X135259697Y-103014990D01*
X134866371Y-103407630D01*
X134653243Y-103920900D01*
X134652758Y-104476661D01*
X134864990Y-104990303D01*
X135257630Y-105383629D01*
X135770900Y-105596757D01*
X136326661Y-105597242D01*
X136840303Y-105385010D01*
X137233629Y-104992370D01*
X137419981Y-104543583D01*
X140491699Y-107615301D01*
X140738260Y-107780048D01*
X141029100Y-107837900D01*
X167452100Y-107837900D01*
X167742939Y-107780048D01*
X167989501Y-107615301D01*
X168700619Y-106904183D01*
X168730900Y-106916757D01*
X169286661Y-106917242D01*
X169800303Y-106705010D01*
X170193629Y-106312370D01*
X170279949Y-106104488D01*
X170364990Y-106310303D01*
X170757630Y-106703629D01*
X171270900Y-106916757D01*
X171826661Y-106917242D01*
X172340303Y-106705010D01*
X172733629Y-106312370D01*
X172813395Y-106120273D01*
X172867603Y-106251143D01*
X173109787Y-106320608D01*
X173910395Y-105520000D01*
X173109787Y-104719392D01*
X172867603Y-104788857D01*
X172817491Y-104929318D01*
X172735010Y-104729697D01*
X172545432Y-104539787D01*
X173289392Y-104539787D01*
X174090000Y-105340395D01*
X174890608Y-104539787D01*
X174821143Y-104297603D01*
X174297698Y-104110856D01*
X173742632Y-104138638D01*
X173358857Y-104297603D01*
X173289392Y-104539787D01*
X172545432Y-104539787D01*
X172342370Y-104336371D01*
X171829100Y-104123243D01*
X171481862Y-104122940D01*
X182196277Y-93408525D01*
X182398110Y-93546431D01*
X182650000Y-93597440D01*
X184250000Y-93597440D01*
X184485317Y-93553162D01*
X184701441Y-93414090D01*
X184846431Y-93201890D01*
X184855370Y-93157745D01*
X186421861Y-93157745D01*
X186495995Y-93403864D01*
X187033223Y-93596965D01*
X187603454Y-93569778D01*
X188004005Y-93403864D01*
X188078139Y-93157745D01*
X187250000Y-92329605D01*
X186421861Y-93157745D01*
X184855370Y-93157745D01*
X184897440Y-92950000D01*
X184897440Y-92910000D01*
X185580100Y-92910000D01*
X185870939Y-92852148D01*
X185952173Y-92797869D01*
X185996136Y-92904005D01*
X186242255Y-92978139D01*
X187070395Y-92150000D01*
X187429605Y-92150000D01*
X188257745Y-92978139D01*
X188503864Y-92904005D01*
X188696965Y-92366777D01*
X188669778Y-91796546D01*
X188503864Y-91395995D01*
X188257745Y-91321861D01*
X187429605Y-92150000D01*
X187070395Y-92150000D01*
X187056252Y-92135858D01*
X187235858Y-91956252D01*
X187250000Y-91970395D01*
X188078139Y-91142255D01*
X188004005Y-90896136D01*
X187933947Y-90870955D01*
X191444902Y-87360000D01*
X192780203Y-87360000D01*
X192819138Y-87454229D01*
X193243537Y-87879370D01*
X193266469Y-87888892D01*
X193217545Y-88037940D01*
X194100000Y-88920395D01*
X194114143Y-88906253D01*
X194293748Y-89085858D01*
X194279605Y-89100000D01*
X194293748Y-89114143D01*
X194114143Y-89293748D01*
X194100000Y-89279605D01*
X194085858Y-89293748D01*
X193906253Y-89114143D01*
X193920395Y-89100000D01*
X193037940Y-88217545D01*
X192784047Y-88300884D01*
X192578410Y-88865306D01*
X192604421Y-89465458D01*
X192784047Y-89899116D01*
X193037938Y-89982454D01*
X192923306Y-90097086D01*
X192964356Y-90138136D01*
X192773559Y-90260910D01*
X192628569Y-90473110D01*
X192577560Y-90725000D01*
X192577560Y-92273800D01*
X192006100Y-92273800D01*
X191763514Y-92322054D01*
X191715260Y-92331652D01*
X191468699Y-92496399D01*
X178083698Y-105881400D01*
X177992583Y-105881400D01*
X178026757Y-105799100D01*
X178027242Y-105243339D01*
X177815010Y-104729697D01*
X177422370Y-104336371D01*
X176909100Y-104123243D01*
X176353339Y-104122758D01*
X175839697Y-104334990D01*
X175446371Y-104727630D01*
X175366605Y-104919727D01*
X175312397Y-104788857D01*
X175070213Y-104719392D01*
X174269605Y-105520000D01*
X174283748Y-105534143D01*
X174104143Y-105713748D01*
X174090000Y-105699605D01*
X173289392Y-106500213D01*
X173358857Y-106742397D01*
X173882302Y-106929144D01*
X174338908Y-106906290D01*
X171439381Y-109805817D01*
X171409100Y-109793243D01*
X170853339Y-109792758D01*
X170339697Y-110004990D01*
X170192816Y-110151614D01*
X169592401Y-109551199D01*
X169345839Y-109386452D01*
X169055000Y-109328600D01*
X161111400Y-109328600D01*
X160834927Y-109383594D01*
X160835248Y-109015813D01*
X160617243Y-108488200D01*
X160213923Y-108084176D01*
X159686691Y-107865250D01*
X159115813Y-107864752D01*
X158588200Y-108082757D01*
X158184176Y-108486077D01*
X158161785Y-108540000D01*
X148490000Y-108540000D01*
X148199160Y-108597852D01*
X147952599Y-108762599D01*
X147009381Y-109705817D01*
X146979100Y-109693243D01*
X146423339Y-109692758D01*
X145909697Y-109904990D01*
X145516371Y-110297630D01*
X145430051Y-110505512D01*
X145345010Y-110299697D01*
X144952370Y-109906371D01*
X144439100Y-109693243D01*
X143883339Y-109692758D01*
X143369697Y-109904990D01*
X142976371Y-110297630D01*
X142890051Y-110505512D01*
X142805010Y-110299697D01*
X142412370Y-109906371D01*
X141899100Y-109693243D01*
X141343339Y-109692758D01*
X140829697Y-109904990D01*
X140436371Y-110297630D01*
X140223243Y-110810900D01*
X140222758Y-111366661D01*
X140248475Y-111428900D01*
X138535149Y-111428900D01*
X138535248Y-111315813D01*
X138317243Y-110788200D01*
X137913923Y-110384176D01*
X137386691Y-110165250D01*
X136815813Y-110164752D01*
X136365534Y-110350803D01*
X136364090Y-110348559D01*
X136151890Y-110203569D01*
X135900000Y-110152560D01*
X134300000Y-110152560D01*
X134064683Y-110196838D01*
X133848559Y-110335910D01*
X133703569Y-110548110D01*
X133652560Y-110800000D01*
X133652560Y-111063858D01*
X132451801Y-109863099D01*
X132205239Y-109698352D01*
X131914400Y-109640500D01*
X131035500Y-109640500D01*
X130744661Y-109698352D01*
X130744659Y-109698353D01*
X130744660Y-109698353D01*
X130498098Y-109863099D01*
X130114707Y-110246490D01*
X130051890Y-110203569D01*
X129800000Y-110152560D01*
X128200000Y-110152560D01*
X127964683Y-110196838D01*
X127748559Y-110335910D01*
X127603569Y-110548110D01*
X127552560Y-110800000D01*
X127552560Y-112400000D01*
X127596838Y-112635317D01*
X127735910Y-112851441D01*
X127948110Y-112996431D01*
X128200000Y-113047440D01*
X129609200Y-113047440D01*
X129609200Y-113629000D01*
X128511000Y-113629000D01*
X128220160Y-113686852D01*
X127973599Y-113851599D01*
X125738454Y-116086744D01*
X125686691Y-116065250D01*
X125115813Y-116064752D01*
X124665534Y-116250803D01*
X124664090Y-116248559D01*
X124451890Y-116103569D01*
X124200000Y-116052560D01*
X122600000Y-116052560D01*
X122364683Y-116096838D01*
X122148559Y-116235910D01*
X122003569Y-116448110D01*
X121952560Y-116700000D01*
X121952560Y-118300000D01*
X121996838Y-118535317D01*
X122135910Y-118751441D01*
X122348110Y-118896431D01*
X122600000Y-118947440D01*
X124200000Y-118947440D01*
X124435317Y-118903162D01*
X124651441Y-118764090D01*
X124662685Y-118747634D01*
X125113309Y-118934750D01*
X125684187Y-118935248D01*
X126211800Y-118717243D01*
X126615824Y-118313923D01*
X126834750Y-117786691D01*
X126835248Y-117215813D01*
X126812951Y-117161851D01*
X128825802Y-115149000D01*
X130054398Y-115149000D01*
X130540000Y-115634602D01*
X130540000Y-116232099D01*
X130351890Y-116103569D01*
X130100000Y-116052560D01*
X128500000Y-116052560D01*
X128264683Y-116096838D01*
X128048559Y-116235910D01*
X127903569Y-116448110D01*
X127852560Y-116700000D01*
X127852560Y-118300000D01*
X127896838Y-118535317D01*
X128035910Y-118751441D01*
X128248110Y-118896431D01*
X128500000Y-118947440D01*
X130100000Y-118947440D01*
X130335317Y-118903162D01*
X130551441Y-118764090D01*
X130562685Y-118747634D01*
X131013309Y-118934750D01*
X131584187Y-118935248D01*
X132111800Y-118717243D01*
X132515824Y-118313923D01*
X132734750Y-117786691D01*
X132735248Y-117215813D01*
X132517243Y-116688200D01*
X132113923Y-116284176D01*
X132060000Y-116261785D01*
X132060000Y-115319800D01*
X132002148Y-115028961D01*
X131837401Y-114782399D01*
X131129200Y-114074198D01*
X131129200Y-112999825D01*
X131213309Y-113034750D01*
X131784187Y-113035248D01*
X131838149Y-113012951D01*
X132918599Y-114093401D01*
X133165161Y-114258148D01*
X133456000Y-114316000D01*
X143771198Y-114316000D01*
X146768257Y-117313059D01*
X146423339Y-117312758D01*
X145909697Y-117524990D01*
X145516371Y-117917630D01*
X145430051Y-118125512D01*
X145345010Y-117919697D01*
X144952370Y-117526371D01*
X144439100Y-117313243D01*
X143883339Y-117312758D01*
X143850945Y-117326143D01*
X143487401Y-116962599D01*
X143240839Y-116797852D01*
X142950000Y-116740000D01*
X138338646Y-116740000D01*
X138317243Y-116688200D01*
X137913923Y-116284176D01*
X137386691Y-116065250D01*
X136815813Y-116064752D01*
X136365534Y-116250803D01*
X136364090Y-116248559D01*
X136151890Y-116103569D01*
X135900000Y-116052560D01*
X134300000Y-116052560D01*
X134064683Y-116096838D01*
X133848559Y-116235910D01*
X133703569Y-116448110D01*
X133652560Y-116700000D01*
X133652560Y-118300000D01*
X133696838Y-118535317D01*
X133835910Y-118751441D01*
X134048110Y-118896431D01*
X134300000Y-118947440D01*
X135900000Y-118947440D01*
X136135317Y-118903162D01*
X136351441Y-118764090D01*
X136362685Y-118747634D01*
X136813309Y-118934750D01*
X137384187Y-118935248D01*
X137911800Y-118717243D01*
X138315824Y-118313923D01*
X138338215Y-118260000D01*
X140294207Y-118260000D01*
X140223243Y-118430900D01*
X140222758Y-118986661D01*
X140434990Y-119500303D01*
X140827630Y-119893629D01*
X141340900Y-120106757D01*
X141896661Y-120107242D01*
X142410303Y-119895010D01*
X142803629Y-119502370D01*
X142889949Y-119294488D01*
X142974990Y-119500303D01*
X143367630Y-119893629D01*
X143880900Y-120106757D01*
X144436661Y-120107242D01*
X144950303Y-119895010D01*
X145343629Y-119502370D01*
X145429949Y-119294488D01*
X145514990Y-119500303D01*
X145907630Y-119893629D01*
X146420900Y-120106757D01*
X146976661Y-120107242D01*
X147009055Y-120093857D01*
X147952599Y-121037401D01*
X148199160Y-121202148D01*
X148490000Y-121260000D01*
X158161354Y-121260000D01*
X158182757Y-121311800D01*
X158586077Y-121715824D01*
X159113309Y-121934750D01*
X159684187Y-121935248D01*
X160211800Y-121717243D01*
X160615824Y-121313923D01*
X160834750Y-120786691D01*
X160835248Y-120215813D01*
X160617243Y-119688200D01*
X160213923Y-119284176D01*
X160132069Y-119250187D01*
X160211800Y-119217243D01*
X160615824Y-118813923D01*
X160753526Y-118482300D01*
X162133423Y-118482300D01*
X162113243Y-118530900D01*
X162112758Y-119086661D01*
X162324990Y-119600303D01*
X162717630Y-119993629D01*
X163230900Y-120206757D01*
X163578138Y-120207060D01*
X159465198Y-124320000D01*
X134800879Y-124320000D01*
X134896757Y-124089100D01*
X134897242Y-123533339D01*
X134685010Y-123019697D01*
X134292370Y-122626371D01*
X133779100Y-122413243D01*
X133223339Y-122412758D01*
X132709697Y-122624990D01*
X132316371Y-123017630D01*
X132103243Y-123530900D01*
X132102758Y-124086661D01*
X132199171Y-124320000D01*
X108420000Y-124320000D01*
X108129161Y-124377852D01*
X107882599Y-124542599D01*
X104338454Y-128086744D01*
X104286691Y-128065250D01*
X103715813Y-128064752D01*
X103188200Y-128282757D01*
X102784176Y-128686077D01*
X102565250Y-129213309D01*
X102564752Y-129784187D01*
X102782757Y-130311800D01*
X103186077Y-130715824D01*
X103713309Y-130934750D01*
X104284187Y-130935248D01*
X104811800Y-130717243D01*
X105215824Y-130313923D01*
X105434750Y-129786691D01*
X105435248Y-129215813D01*
X105412951Y-129161851D01*
X108734802Y-125840000D01*
X132199121Y-125840000D01*
X132103243Y-126070900D01*
X132102758Y-126626661D01*
X132314990Y-127140303D01*
X132707630Y-127533629D01*
X132915512Y-127619949D01*
X132709697Y-127704990D01*
X132316371Y-128097630D01*
X132103243Y-128610900D01*
X132102758Y-129166661D01*
X132314990Y-129680303D01*
X132707630Y-130073629D01*
X132915512Y-130159949D01*
X132709697Y-130244990D01*
X132316371Y-130637630D01*
X132103243Y-131150900D01*
X132102758Y-131706661D01*
X132314990Y-132220303D01*
X132707630Y-132613629D01*
X132915512Y-132699949D01*
X132709697Y-132784990D01*
X132316371Y-133177630D01*
X132103243Y-133690900D01*
X132102758Y-134246661D01*
X132314990Y-134760303D01*
X132707630Y-135153629D01*
X132915512Y-135239949D01*
X132709697Y-135324990D01*
X132316371Y-135717630D01*
X132103243Y-136230900D01*
X132102758Y-136786661D01*
X132314990Y-137300303D01*
X132707630Y-137693629D01*
X132899727Y-137773395D01*
X132768857Y-137827603D01*
X132699392Y-138069787D01*
X133500000Y-138870395D01*
X134300608Y-138069787D01*
X134231143Y-137827603D01*
X134090682Y-137777491D01*
X134290303Y-137695010D01*
X134642427Y-137343500D01*
X141331200Y-137343500D01*
X141622039Y-137285648D01*
X141868601Y-137120901D01*
X142568223Y-136421279D01*
X142577189Y-136434698D01*
X143042736Y-136745767D01*
X143591887Y-136855000D01*
X143648113Y-136855000D01*
X144197264Y-136745767D01*
X144662811Y-136434698D01*
X144832995Y-136180000D01*
X179384000Y-136180000D01*
X179401334Y-136176552D01*
X179337243Y-136330900D01*
X179336758Y-136886661D01*
X179548990Y-137400303D01*
X179941630Y-137793629D01*
X180133727Y-137873395D01*
X180002857Y-137927603D01*
X179933392Y-138169787D01*
X180734000Y-138970395D01*
X181534608Y-138169787D01*
X181465143Y-137927603D01*
X181324682Y-137877491D01*
X181524303Y-137795010D01*
X181917629Y-137402370D01*
X182130757Y-136889100D01*
X182131242Y-136333339D01*
X182117857Y-136300945D01*
X182402901Y-136015901D01*
X182567648Y-135769339D01*
X182625500Y-135478500D01*
X182625500Y-128114802D01*
X183932557Y-126807745D01*
X185371861Y-126807745D01*
X185445995Y-127053864D01*
X185983223Y-127246965D01*
X186553454Y-127219778D01*
X186954005Y-127053864D01*
X187028139Y-126807745D01*
X186200000Y-125979605D01*
X185371861Y-126807745D01*
X183932557Y-126807745D01*
X184771422Y-125968881D01*
X184780222Y-126153454D01*
X184946136Y-126554005D01*
X185192255Y-126628139D01*
X186020395Y-125800000D01*
X186379605Y-125800000D01*
X187207745Y-126628139D01*
X187453864Y-126554005D01*
X187646965Y-126016777D01*
X187619778Y-125446546D01*
X187453864Y-125045995D01*
X187207745Y-124971861D01*
X186379605Y-125800000D01*
X186020395Y-125800000D01*
X186006253Y-125785858D01*
X186185858Y-125606252D01*
X186200000Y-125620395D01*
X187028139Y-124792255D01*
X187013855Y-124744833D01*
X187235317Y-124703162D01*
X187451441Y-124564090D01*
X187596431Y-124351890D01*
X187647440Y-124100000D01*
X187647440Y-122500000D01*
X187603162Y-122264683D01*
X187464090Y-122048559D01*
X187426576Y-122022926D01*
X187535101Y-121914401D01*
X187699848Y-121667839D01*
X187757700Y-121377000D01*
X187757700Y-118865306D01*
X192578410Y-118865306D01*
X192604421Y-119465458D01*
X192784047Y-119899116D01*
X193037940Y-119982455D01*
X193920395Y-119100000D01*
X193037940Y-118217545D01*
X192784047Y-118300884D01*
X192578410Y-118865306D01*
X187757700Y-118865306D01*
X187757700Y-118459350D01*
X187951791Y-118168872D01*
X188086139Y-118142148D01*
X188332701Y-117977401D01*
X188950102Y-117360000D01*
X192780203Y-117360000D01*
X192819138Y-117454229D01*
X193243537Y-117879370D01*
X193266469Y-117888892D01*
X193217545Y-118037940D01*
X194100000Y-118920395D01*
X194114143Y-118906253D01*
X194293748Y-119085858D01*
X194279605Y-119100000D01*
X194293748Y-119114143D01*
X194114143Y-119293748D01*
X194100000Y-119279605D01*
X193217545Y-120162060D01*
X193266318Y-120310648D01*
X193245771Y-120319138D01*
X192820630Y-120743537D01*
X192590262Y-121298325D01*
X192589738Y-121899040D01*
X192819138Y-122454229D01*
X192987717Y-122623103D01*
X192773559Y-122760910D01*
X192628569Y-122973110D01*
X192577560Y-123225000D01*
X192577560Y-124975000D01*
X192621838Y-125210317D01*
X192760910Y-125426441D01*
X192973110Y-125571431D01*
X193225000Y-125622440D01*
X194540300Y-125622440D01*
X194540300Y-129347824D01*
X194401675Y-129290262D01*
X193800960Y-129289738D01*
X193245771Y-129519138D01*
X192820630Y-129943537D01*
X192590262Y-130498325D01*
X192589738Y-131099040D01*
X192819138Y-131654229D01*
X192987717Y-131823103D01*
X192773559Y-131960910D01*
X192628569Y-132173110D01*
X192577560Y-132425000D01*
X192577560Y-134175000D01*
X192621838Y-134410317D01*
X192760910Y-134626441D01*
X192973110Y-134771431D01*
X193225000Y-134822440D01*
X193741758Y-134822440D01*
X190924498Y-137639700D01*
X187850400Y-137639700D01*
X187559561Y-137697552D01*
X187312999Y-137862299D01*
X187038676Y-138136622D01*
X187026890Y-138128569D01*
X186775000Y-138077560D01*
X185025000Y-138077560D01*
X184789683Y-138121838D01*
X184573559Y-138260910D01*
X184428569Y-138473110D01*
X184377560Y-138725000D01*
X184377560Y-140475000D01*
X184421838Y-140710317D01*
X184560910Y-140926441D01*
X184773110Y-141071431D01*
X185025000Y-141122440D01*
X186775000Y-141122440D01*
X187010317Y-141078162D01*
X187226441Y-140939090D01*
X187371431Y-140726890D01*
X187374786Y-140710324D01*
X187543537Y-140879370D01*
X188098325Y-141109738D01*
X188699040Y-141110262D01*
X189254229Y-140880862D01*
X189635756Y-140500000D01*
X192490000Y-140500000D01*
X192665838Y-141383999D01*
X193166583Y-142133417D01*
X193916001Y-142634162D01*
X194800000Y-142810000D01*
X195683999Y-142634162D01*
X196433417Y-142133417D01*
X196934162Y-141383999D01*
X197110000Y-140500000D01*
X196934162Y-139616001D01*
X196433417Y-138866583D01*
X195683999Y-138365838D01*
X194800000Y-138190000D01*
X193916001Y-138365838D01*
X193166583Y-138866583D01*
X192665838Y-139616001D01*
X192490000Y-140500000D01*
X189635756Y-140500000D01*
X189679370Y-140456463D01*
X189909738Y-139901675D01*
X189910262Y-139300960D01*
X189851894Y-139159700D01*
X191239300Y-139159700D01*
X191530139Y-139101848D01*
X191776701Y-138937101D01*
X196775701Y-133938101D01*
X196940448Y-133691539D01*
X196998300Y-133400700D01*
X196998300Y-77317900D01*
X196940448Y-77027061D01*
X196775701Y-76780499D01*
X195657501Y-75662299D01*
X195470386Y-75537273D01*
X195609738Y-75201675D01*
X195610262Y-74600960D01*
X195380862Y-74045771D01*
X194956463Y-73620630D01*
X194401675Y-73390262D01*
X193800960Y-73389738D01*
X193245771Y-73619138D01*
X192820630Y-74043537D01*
X192590262Y-74598325D01*
X192589738Y-75199040D01*
X192689177Y-75439700D01*
X185619802Y-75439700D01*
X183929658Y-73749556D01*
X184400000Y-73843113D01*
X184949151Y-73733880D01*
X185414698Y-73422811D01*
X185615679Y-73122022D01*
X185816139Y-73082148D01*
X186062701Y-72917401D01*
X186227448Y-72670839D01*
X186285300Y-72380000D01*
X186285300Y-72289802D01*
X188737401Y-69837701D01*
X188881233Y-69622440D01*
X189075000Y-69622440D01*
X189310317Y-69578162D01*
X189526441Y-69439090D01*
X189671431Y-69226890D01*
X189722440Y-68975000D01*
X189722440Y-67700000D01*
X192390000Y-67700000D01*
X192565838Y-68583999D01*
X193066583Y-69333417D01*
X193816001Y-69834162D01*
X194700000Y-70010000D01*
X195583999Y-69834162D01*
X196333417Y-69333417D01*
X196834162Y-68583999D01*
X197010000Y-67700000D01*
X196834162Y-66816001D01*
X196333417Y-66066583D01*
X195583999Y-65565838D01*
X194700000Y-65390000D01*
X193816001Y-65565838D01*
X193066583Y-66066583D01*
X192565838Y-66816001D01*
X192390000Y-67700000D01*
X189722440Y-67700000D01*
X189722440Y-67225000D01*
X189678162Y-66989683D01*
X189539090Y-66773559D01*
X189326890Y-66628569D01*
X189075000Y-66577560D01*
X187325000Y-66577560D01*
X187089683Y-66621838D01*
X186873559Y-66760910D01*
X186728569Y-66973110D01*
X186725214Y-66989676D01*
X186556463Y-66820630D01*
X186001675Y-66590262D01*
X185400960Y-66589738D01*
X184845771Y-66819138D01*
X184420630Y-67243537D01*
X184190262Y-67798325D01*
X184189738Y-68399040D01*
X184419138Y-68954229D01*
X184843537Y-69379370D01*
X185398325Y-69609738D01*
X185999040Y-69610262D01*
X186554229Y-69380862D01*
X186723103Y-69212283D01*
X186860910Y-69426441D01*
X186942981Y-69482517D01*
X185219042Y-71206456D01*
X184949151Y-71026120D01*
X184400000Y-70916887D01*
X183850849Y-71026120D01*
X183385302Y-71337189D01*
X183074233Y-71802736D01*
X182965000Y-72351887D01*
X182965000Y-72408113D01*
X183058557Y-72878455D01*
X182662701Y-72482599D01*
X182416139Y-72317852D01*
X182215679Y-72277978D01*
X182014698Y-71977189D01*
X181549151Y-71666120D01*
X181000000Y-71556887D01*
X180450849Y-71666120D01*
X179985302Y-71977189D01*
X179784321Y-72277978D01*
X179583861Y-72317852D01*
X179337299Y-72482599D01*
X179084067Y-72735831D01*
X179025767Y-72442736D01*
X178714698Y-71977189D01*
X178249151Y-71666120D01*
X177700000Y-71556887D01*
X177150849Y-71666120D01*
X176685302Y-71977189D01*
X176374233Y-72442736D01*
X176265000Y-72991887D01*
X176265000Y-73048113D01*
X176332071Y-73385300D01*
X115331897Y-73385300D01*
X115396757Y-73229100D01*
X115397242Y-72673339D01*
X115185010Y-72159697D01*
X114792370Y-71766371D01*
X114279100Y-71553243D01*
X113723339Y-71552758D01*
X113209697Y-71764990D01*
X112816371Y-72157630D01*
X112802930Y-72190000D01*
X94950300Y-72190000D01*
X94659461Y-72247852D01*
X94412899Y-72412599D01*
X93883274Y-72942224D01*
X93839090Y-72873559D01*
X93626890Y-72728569D01*
X93375000Y-72677560D01*
X91625000Y-72677560D01*
X91389683Y-72721838D01*
X91173559Y-72860910D01*
X91028569Y-73073110D01*
X90977560Y-73325000D01*
X89010000Y-73325000D01*
X89010000Y-71526661D01*
X136402758Y-71526661D01*
X136614990Y-72040303D01*
X137007630Y-72433629D01*
X137520900Y-72646757D01*
X138076661Y-72647242D01*
X138590303Y-72435010D01*
X138983629Y-72042370D01*
X139196757Y-71529100D01*
X139197242Y-70973339D01*
X138985010Y-70459697D01*
X138592370Y-70066371D01*
X138079100Y-69853243D01*
X137523339Y-69852758D01*
X137009697Y-70064990D01*
X136616371Y-70457630D01*
X136403243Y-70970900D01*
X136402758Y-71526661D01*
X89010000Y-71526661D01*
X89010000Y-70226661D01*
X112602758Y-70226661D01*
X112814990Y-70740303D01*
X113207630Y-71133629D01*
X113720900Y-71346757D01*
X114276661Y-71347242D01*
X114790303Y-71135010D01*
X115183629Y-70742370D01*
X115396757Y-70229100D01*
X115397242Y-69673339D01*
X115185010Y-69159697D01*
X114792370Y-68766371D01*
X114279100Y-68553243D01*
X113723339Y-68552758D01*
X113209697Y-68764990D01*
X112816371Y-69157630D01*
X112603243Y-69670900D01*
X112602758Y-70226661D01*
X89010000Y-70226661D01*
X89010000Y-67700000D01*
X89590000Y-67700000D01*
X89765838Y-68583999D01*
X90266583Y-69333417D01*
X91016001Y-69834162D01*
X91900000Y-70010000D01*
X92783999Y-69834162D01*
X93533417Y-69333417D01*
X94024111Y-68599040D01*
X97089738Y-68599040D01*
X97319138Y-69154229D01*
X97743537Y-69579370D01*
X98298325Y-69809738D01*
X98899040Y-69810262D01*
X99454229Y-69580862D01*
X99623103Y-69412283D01*
X99760910Y-69626441D01*
X99973110Y-69771431D01*
X100225000Y-69822440D01*
X101975000Y-69822440D01*
X102210317Y-69778162D01*
X102426441Y-69639090D01*
X102571431Y-69426890D01*
X102622440Y-69175000D01*
X102622440Y-68599040D01*
X105789738Y-68599040D01*
X106019138Y-69154229D01*
X106443537Y-69579370D01*
X106998325Y-69809738D01*
X107599040Y-69810262D01*
X108154229Y-69580862D01*
X108323103Y-69412283D01*
X108460910Y-69626441D01*
X108673110Y-69771431D01*
X108925000Y-69822440D01*
X110675000Y-69822440D01*
X110910317Y-69778162D01*
X111126441Y-69639090D01*
X111271431Y-69426890D01*
X111322440Y-69175000D01*
X111322440Y-68526661D01*
X136402758Y-68526661D01*
X136614990Y-69040303D01*
X137007630Y-69433629D01*
X137520900Y-69646757D01*
X138076661Y-69647242D01*
X138590303Y-69435010D01*
X138983629Y-69042370D01*
X139196757Y-68529100D01*
X139197242Y-67973339D01*
X138985010Y-67459697D01*
X138592370Y-67066371D01*
X138079100Y-66853243D01*
X137523339Y-66852758D01*
X137009697Y-67064990D01*
X136616371Y-67457630D01*
X136403243Y-67970900D01*
X136402758Y-68526661D01*
X111322440Y-68526661D01*
X111322440Y-67425000D01*
X111278162Y-67189683D01*
X111139090Y-66973559D01*
X110926890Y-66828569D01*
X110675000Y-66777560D01*
X108925000Y-66777560D01*
X108689683Y-66821838D01*
X108473559Y-66960910D01*
X108328569Y-67173110D01*
X108325214Y-67189676D01*
X108156463Y-67020630D01*
X107601675Y-66790262D01*
X107000960Y-66789738D01*
X106445771Y-67019138D01*
X106020630Y-67443537D01*
X105790262Y-67998325D01*
X105789738Y-68599040D01*
X102622440Y-68599040D01*
X102622440Y-67425000D01*
X102578162Y-67189683D01*
X102439090Y-66973559D01*
X102226890Y-66828569D01*
X101975000Y-66777560D01*
X100225000Y-66777560D01*
X99989683Y-66821838D01*
X99773559Y-66960910D01*
X99628569Y-67173110D01*
X99625214Y-67189676D01*
X99456463Y-67020630D01*
X98901675Y-66790262D01*
X98300960Y-66789738D01*
X97745771Y-67019138D01*
X97320630Y-67443537D01*
X97090262Y-67998325D01*
X97089738Y-68599040D01*
X94024111Y-68599040D01*
X94034162Y-68583999D01*
X94210000Y-67700000D01*
X94034162Y-66816001D01*
X93533417Y-66066583D01*
X92783999Y-65565838D01*
X91900000Y-65390000D01*
X91016001Y-65565838D01*
X90266583Y-66066583D01*
X89765838Y-66816001D01*
X89590000Y-67700000D01*
X89010000Y-67700000D01*
X89010000Y-64810000D01*
X149023698Y-64810000D01*
X148919381Y-64914317D01*
G36*
X142577189Y-133894698D02*
X142959275Y-134150000D01*
X142577189Y-134405302D01*
X142393563Y-134680118D01*
X142252114Y-134708254D01*
X142203860Y-134717852D01*
X141957299Y-134882599D01*
X141016398Y-135823500D01*
X137369347Y-135823500D01*
X137391904Y-135769039D01*
X137269915Y-135547000D01*
X136127000Y-135547000D01*
X136127000Y-135567000D01*
X135873000Y-135567000D01*
X135873000Y-135547000D01*
X134730085Y-135547000D01*
X134652885Y-135687516D01*
X134292370Y-135326371D01*
X134084488Y-135240051D01*
X134290303Y-135155010D01*
X134625898Y-134820000D01*
X134712040Y-134820000D01*
X134608096Y-135070961D01*
X134730085Y-135293000D01*
X135873000Y-135293000D01*
X135873000Y-135273000D01*
X136127000Y-135273000D01*
X136127000Y-135293000D01*
X137269915Y-135293000D01*
X137391904Y-135070961D01*
X137287960Y-134820000D01*
X141314700Y-134820000D01*
X141605539Y-134762148D01*
X141852101Y-134597401D01*
X142568223Y-133881279D01*
X142577189Y-133894698D01*
X142577189Y-133894698D01*
G37*
X142577189Y-133894698D02*
X142959275Y-134150000D01*
X142577189Y-134405302D01*
X142393563Y-134680118D01*
X142252114Y-134708254D01*
X142203860Y-134717852D01*
X141957299Y-134882599D01*
X141016398Y-135823500D01*
X137369347Y-135823500D01*
X137391904Y-135769039D01*
X137269915Y-135547000D01*
X136127000Y-135547000D01*
X136127000Y-135567000D01*
X135873000Y-135567000D01*
X135873000Y-135547000D01*
X134730085Y-135547000D01*
X134652885Y-135687516D01*
X134292370Y-135326371D01*
X134084488Y-135240051D01*
X134290303Y-135155010D01*
X134625898Y-134820000D01*
X134712040Y-134820000D01*
X134608096Y-135070961D01*
X134730085Y-135293000D01*
X135873000Y-135293000D01*
X135873000Y-135273000D01*
X136127000Y-135273000D01*
X136127000Y-135293000D01*
X137269915Y-135293000D01*
X137391904Y-135070961D01*
X137287960Y-134820000D01*
X141314700Y-134820000D01*
X141605539Y-134762148D01*
X141852101Y-134597401D01*
X142568223Y-133881279D01*
X142577189Y-133894698D01*
G36*
X184741246Y-116067433D02*
X184894748Y-116170000D01*
X184741246Y-116272567D01*
X184383354Y-116808190D01*
X184257679Y-117440000D01*
X184383354Y-118071810D01*
X184741246Y-118607433D01*
X185276869Y-118965325D01*
X185908679Y-119091000D01*
X186237700Y-119091000D01*
X186237700Y-121062198D01*
X185662599Y-121637299D01*
X185518767Y-121852560D01*
X185400000Y-121852560D01*
X185164683Y-121896838D01*
X184948559Y-122035910D01*
X184803569Y-122248110D01*
X184752560Y-122500000D01*
X184752560Y-123854649D01*
X184702799Y-123887898D01*
X182130992Y-126459706D01*
X182131242Y-126173339D01*
X181919010Y-125659697D01*
X181526370Y-125266371D01*
X181013100Y-125053243D01*
X180457339Y-125052758D01*
X179943697Y-125264990D01*
X179550371Y-125657630D01*
X179337243Y-126170900D01*
X179336758Y-126726661D01*
X179466227Y-127040000D01*
X144832995Y-127040000D01*
X144662811Y-126785302D01*
X144197264Y-126474233D01*
X143648113Y-126365000D01*
X143591887Y-126365000D01*
X143042736Y-126474233D01*
X142577189Y-126785302D01*
X142266120Y-127250849D01*
X142156887Y-127800000D01*
X142266120Y-128349151D01*
X142577189Y-128814698D01*
X142981703Y-129084986D01*
X142764866Y-129187611D01*
X142388959Y-129602577D01*
X142228096Y-129990961D01*
X142350085Y-130213000D01*
X143493000Y-130213000D01*
X143493000Y-130193000D01*
X143747000Y-130193000D01*
X143747000Y-130213000D01*
X144889915Y-130213000D01*
X145011904Y-129990961D01*
X144851041Y-129602577D01*
X144475134Y-129187611D01*
X144258297Y-129084986D01*
X144662811Y-128814698D01*
X144832995Y-128560000D01*
X179399902Y-128560000D01*
X179337243Y-128710900D01*
X179336758Y-129266661D01*
X179548990Y-129780303D01*
X179941630Y-130173629D01*
X180149512Y-130259949D01*
X179943697Y-130344990D01*
X179550371Y-130737630D01*
X179337243Y-131250900D01*
X179336758Y-131806661D01*
X179548990Y-132320303D01*
X179941630Y-132713629D01*
X180149512Y-132799949D01*
X179943697Y-132884990D01*
X179550371Y-133277630D01*
X179337243Y-133790900D01*
X179336758Y-134346661D01*
X179350143Y-134379055D01*
X179069198Y-134660000D01*
X144832995Y-134660000D01*
X144662811Y-134405302D01*
X144280725Y-134150000D01*
X144662811Y-133894698D01*
X144973880Y-133429151D01*
X145083113Y-132880000D01*
X144973880Y-132330849D01*
X144662811Y-131865302D01*
X144258297Y-131595014D01*
X144475134Y-131492389D01*
X144851041Y-131077423D01*
X145011904Y-130689039D01*
X144889915Y-130467000D01*
X143747000Y-130467000D01*
X143747000Y-130487000D01*
X143493000Y-130487000D01*
X143493000Y-130467000D01*
X142350085Y-130467000D01*
X142228096Y-130689039D01*
X142388959Y-131077423D01*
X142764866Y-131492389D01*
X142981703Y-131595014D01*
X142577189Y-131865302D01*
X142393563Y-132140118D01*
X142203861Y-132177852D01*
X141957299Y-132342599D01*
X140999898Y-133300000D01*
X137362513Y-133300000D01*
X137391904Y-133229039D01*
X137269915Y-133007000D01*
X136127000Y-133007000D01*
X136127000Y-133027000D01*
X135873000Y-133027000D01*
X135873000Y-133007000D01*
X134730085Y-133007000D01*
X134652885Y-133147516D01*
X134292370Y-132786371D01*
X134084488Y-132700051D01*
X134290303Y-132615010D01*
X134683629Y-132222370D01*
X134896757Y-131709100D01*
X134897185Y-131218972D01*
X135144866Y-131492389D01*
X135393367Y-131610000D01*
X135144866Y-131727611D01*
X134768959Y-132142577D01*
X134608096Y-132530961D01*
X134730085Y-132753000D01*
X135873000Y-132753000D01*
X135873000Y-130467000D01*
X136127000Y-130467000D01*
X136127000Y-132753000D01*
X137269915Y-132753000D01*
X137391904Y-132530961D01*
X137231041Y-132142577D01*
X136855134Y-131727611D01*
X136606633Y-131610000D01*
X136855134Y-131492389D01*
X137231041Y-131077423D01*
X137391904Y-130689039D01*
X137269915Y-130467000D01*
X136127000Y-130467000D01*
X135873000Y-130467000D01*
X134730085Y-130467000D01*
X134652885Y-130607516D01*
X134292370Y-130246371D01*
X134084488Y-130160051D01*
X134290303Y-130075010D01*
X134683629Y-129682370D01*
X134896757Y-129169100D01*
X134896763Y-129161714D01*
X135073691Y-129235000D01*
X135101938Y-129235000D01*
X134768959Y-129602577D01*
X134608096Y-129990961D01*
X134730085Y-130213000D01*
X135873000Y-130213000D01*
X135873000Y-127927000D01*
X136127000Y-127927000D01*
X136127000Y-130213000D01*
X137269915Y-130213000D01*
X137391904Y-129990961D01*
X137231041Y-129602577D01*
X136898062Y-129235000D01*
X136926309Y-129235000D01*
X137159698Y-129138327D01*
X137338327Y-128959699D01*
X137435000Y-128726310D01*
X137435000Y-128085750D01*
X137276250Y-127927000D01*
X136127000Y-127927000D01*
X135873000Y-127927000D01*
X134723750Y-127927000D01*
X134618090Y-128032660D01*
X134292370Y-127706371D01*
X134084488Y-127620051D01*
X134290303Y-127535010D01*
X134565000Y-127260792D01*
X134565000Y-127514250D01*
X134723750Y-127673000D01*
X135873000Y-127673000D01*
X135873000Y-126523750D01*
X136127000Y-126523750D01*
X136127000Y-127673000D01*
X137276250Y-127673000D01*
X137435000Y-127514250D01*
X137435000Y-126873690D01*
X137338327Y-126640301D01*
X137159698Y-126461673D01*
X136926309Y-126365000D01*
X136285750Y-126365000D01*
X136127000Y-126523750D01*
X135873000Y-126523750D01*
X135714250Y-126365000D01*
X135073691Y-126365000D01*
X134896924Y-126438220D01*
X134897242Y-126073339D01*
X134800829Y-125840000D01*
X159780000Y-125840000D01*
X160070839Y-125782148D01*
X160317401Y-125617401D01*
X165740619Y-120194183D01*
X165770900Y-120206757D01*
X166326661Y-120207242D01*
X166359055Y-120193857D01*
X167081699Y-120916502D01*
X167262639Y-121037401D01*
X167328261Y-121081248D01*
X167619100Y-121139100D01*
X179720900Y-121139100D01*
X180011739Y-121081248D01*
X180258301Y-120916501D01*
X180980619Y-120194183D01*
X181010900Y-120206757D01*
X181566661Y-120207242D01*
X182080303Y-119995010D01*
X182473629Y-119602370D01*
X182686757Y-119089100D01*
X182687242Y-118533339D01*
X182475010Y-118019697D01*
X182082370Y-117626371D01*
X181569100Y-117413243D01*
X181013339Y-117412758D01*
X180499697Y-117624990D01*
X180106371Y-118017630D01*
X180026605Y-118209727D01*
X179972397Y-118078857D01*
X179730213Y-118009392D01*
X178929605Y-118810000D01*
X178943748Y-118824143D01*
X178764143Y-119003748D01*
X178750000Y-118989605D01*
X178735858Y-119003748D01*
X178556253Y-118824143D01*
X178570395Y-118810000D01*
X178556253Y-118795858D01*
X178735858Y-118616253D01*
X178750000Y-118630395D01*
X179550608Y-117829787D01*
X179485413Y-117602489D01*
X181427902Y-115660000D01*
X184469008Y-115660000D01*
X184741246Y-116067433D01*
X184741246Y-116067433D01*
G37*
X184741246Y-116067433D02*
X184894748Y-116170000D01*
X184741246Y-116272567D01*
X184383354Y-116808190D01*
X184257679Y-117440000D01*
X184383354Y-118071810D01*
X184741246Y-118607433D01*
X185276869Y-118965325D01*
X185908679Y-119091000D01*
X186237700Y-119091000D01*
X186237700Y-121062198D01*
X185662599Y-121637299D01*
X185518767Y-121852560D01*
X185400000Y-121852560D01*
X185164683Y-121896838D01*
X184948559Y-122035910D01*
X184803569Y-122248110D01*
X184752560Y-122500000D01*
X184752560Y-123854649D01*
X184702799Y-123887898D01*
X182130992Y-126459706D01*
X182131242Y-126173339D01*
X181919010Y-125659697D01*
X181526370Y-125266371D01*
X181013100Y-125053243D01*
X180457339Y-125052758D01*
X179943697Y-125264990D01*
X179550371Y-125657630D01*
X179337243Y-126170900D01*
X179336758Y-126726661D01*
X179466227Y-127040000D01*
X144832995Y-127040000D01*
X144662811Y-126785302D01*
X144197264Y-126474233D01*
X143648113Y-126365000D01*
X143591887Y-126365000D01*
X143042736Y-126474233D01*
X142577189Y-126785302D01*
X142266120Y-127250849D01*
X142156887Y-127800000D01*
X142266120Y-128349151D01*
X142577189Y-128814698D01*
X142981703Y-129084986D01*
X142764866Y-129187611D01*
X142388959Y-129602577D01*
X142228096Y-129990961D01*
X142350085Y-130213000D01*
X143493000Y-130213000D01*
X143493000Y-130193000D01*
X143747000Y-130193000D01*
X143747000Y-130213000D01*
X144889915Y-130213000D01*
X145011904Y-129990961D01*
X144851041Y-129602577D01*
X144475134Y-129187611D01*
X144258297Y-129084986D01*
X144662811Y-128814698D01*
X144832995Y-128560000D01*
X179399902Y-128560000D01*
X179337243Y-128710900D01*
X179336758Y-129266661D01*
X179548990Y-129780303D01*
X179941630Y-130173629D01*
X180149512Y-130259949D01*
X179943697Y-130344990D01*
X179550371Y-130737630D01*
X179337243Y-131250900D01*
X179336758Y-131806661D01*
X179548990Y-132320303D01*
X179941630Y-132713629D01*
X180149512Y-132799949D01*
X179943697Y-132884990D01*
X179550371Y-133277630D01*
X179337243Y-133790900D01*
X179336758Y-134346661D01*
X179350143Y-134379055D01*
X179069198Y-134660000D01*
X144832995Y-134660000D01*
X144662811Y-134405302D01*
X144280725Y-134150000D01*
X144662811Y-133894698D01*
X144973880Y-133429151D01*
X145083113Y-132880000D01*
X144973880Y-132330849D01*
X144662811Y-131865302D01*
X144258297Y-131595014D01*
X144475134Y-131492389D01*
X144851041Y-131077423D01*
X145011904Y-130689039D01*
X144889915Y-130467000D01*
X143747000Y-130467000D01*
X143747000Y-130487000D01*
X143493000Y-130487000D01*
X143493000Y-130467000D01*
X142350085Y-130467000D01*
X142228096Y-130689039D01*
X142388959Y-131077423D01*
X142764866Y-131492389D01*
X142981703Y-131595014D01*
X142577189Y-131865302D01*
X142393563Y-132140118D01*
X142203861Y-132177852D01*
X141957299Y-132342599D01*
X140999898Y-133300000D01*
X137362513Y-133300000D01*
X137391904Y-133229039D01*
X137269915Y-133007000D01*
X136127000Y-133007000D01*
X136127000Y-133027000D01*
X135873000Y-133027000D01*
X135873000Y-133007000D01*
X134730085Y-133007000D01*
X134652885Y-133147516D01*
X134292370Y-132786371D01*
X134084488Y-132700051D01*
X134290303Y-132615010D01*
X134683629Y-132222370D01*
X134896757Y-131709100D01*
X134897185Y-131218972D01*
X135144866Y-131492389D01*
X135393367Y-131610000D01*
X135144866Y-131727611D01*
X134768959Y-132142577D01*
X134608096Y-132530961D01*
X134730085Y-132753000D01*
X135873000Y-132753000D01*
X135873000Y-130467000D01*
X136127000Y-130467000D01*
X136127000Y-132753000D01*
X137269915Y-132753000D01*
X137391904Y-132530961D01*
X137231041Y-132142577D01*
X136855134Y-131727611D01*
X136606633Y-131610000D01*
X136855134Y-131492389D01*
X137231041Y-131077423D01*
X137391904Y-130689039D01*
X137269915Y-130467000D01*
X136127000Y-130467000D01*
X135873000Y-130467000D01*
X134730085Y-130467000D01*
X134652885Y-130607516D01*
X134292370Y-130246371D01*
X134084488Y-130160051D01*
X134290303Y-130075010D01*
X134683629Y-129682370D01*
X134896757Y-129169100D01*
X134896763Y-129161714D01*
X135073691Y-129235000D01*
X135101938Y-129235000D01*
X134768959Y-129602577D01*
X134608096Y-129990961D01*
X134730085Y-130213000D01*
X135873000Y-130213000D01*
X135873000Y-127927000D01*
X136127000Y-127927000D01*
X136127000Y-130213000D01*
X137269915Y-130213000D01*
X137391904Y-129990961D01*
X137231041Y-129602577D01*
X136898062Y-129235000D01*
X136926309Y-129235000D01*
X137159698Y-129138327D01*
X137338327Y-128959699D01*
X137435000Y-128726310D01*
X137435000Y-128085750D01*
X137276250Y-127927000D01*
X136127000Y-127927000D01*
X135873000Y-127927000D01*
X134723750Y-127927000D01*
X134618090Y-128032660D01*
X134292370Y-127706371D01*
X134084488Y-127620051D01*
X134290303Y-127535010D01*
X134565000Y-127260792D01*
X134565000Y-127514250D01*
X134723750Y-127673000D01*
X135873000Y-127673000D01*
X135873000Y-126523750D01*
X136127000Y-126523750D01*
X136127000Y-127673000D01*
X137276250Y-127673000D01*
X137435000Y-127514250D01*
X137435000Y-126873690D01*
X137338327Y-126640301D01*
X137159698Y-126461673D01*
X136926309Y-126365000D01*
X136285750Y-126365000D01*
X136127000Y-126523750D01*
X135873000Y-126523750D01*
X135714250Y-126365000D01*
X135073691Y-126365000D01*
X134896924Y-126438220D01*
X134897242Y-126073339D01*
X134800829Y-125840000D01*
X159780000Y-125840000D01*
X160070839Y-125782148D01*
X160317401Y-125617401D01*
X165740619Y-120194183D01*
X165770900Y-120206757D01*
X166326661Y-120207242D01*
X166359055Y-120193857D01*
X167081699Y-120916502D01*
X167262639Y-121037401D01*
X167328261Y-121081248D01*
X167619100Y-121139100D01*
X179720900Y-121139100D01*
X180011739Y-121081248D01*
X180258301Y-120916501D01*
X180980619Y-120194183D01*
X181010900Y-120206757D01*
X181566661Y-120207242D01*
X182080303Y-119995010D01*
X182473629Y-119602370D01*
X182686757Y-119089100D01*
X182687242Y-118533339D01*
X182475010Y-118019697D01*
X182082370Y-117626371D01*
X181569100Y-117413243D01*
X181013339Y-117412758D01*
X180499697Y-117624990D01*
X180106371Y-118017630D01*
X180026605Y-118209727D01*
X179972397Y-118078857D01*
X179730213Y-118009392D01*
X178929605Y-118810000D01*
X178943748Y-118824143D01*
X178764143Y-119003748D01*
X178750000Y-118989605D01*
X178735858Y-119003748D01*
X178556253Y-118824143D01*
X178570395Y-118810000D01*
X178556253Y-118795858D01*
X178735858Y-118616253D01*
X178750000Y-118630395D01*
X179550608Y-117829787D01*
X179485413Y-117602489D01*
X181427902Y-115660000D01*
X184469008Y-115660000D01*
X184741246Y-116067433D01*
G36*
X158182757Y-110111800D02*
X158586077Y-110515824D01*
X158667931Y-110549813D01*
X158588200Y-110582757D01*
X158184176Y-110986077D01*
X157965250Y-111513309D01*
X157964752Y-112084187D01*
X158182757Y-112611800D01*
X158586077Y-113015824D01*
X159113309Y-113234750D01*
X159684187Y-113235248D01*
X160211800Y-113017243D01*
X160615824Y-112613923D01*
X160834750Y-112086691D01*
X160835248Y-111515813D01*
X160812951Y-111461851D01*
X161426202Y-110848600D01*
X162139112Y-110848600D01*
X162113243Y-110910900D01*
X162112758Y-111466661D01*
X162324990Y-111980303D01*
X162717630Y-112373629D01*
X163230900Y-112586757D01*
X163786661Y-112587242D01*
X164300303Y-112375010D01*
X164693629Y-111982370D01*
X164779949Y-111774488D01*
X164864990Y-111980303D01*
X165257630Y-112373629D01*
X165770900Y-112586757D01*
X166326661Y-112587242D01*
X166840303Y-112375010D01*
X167233629Y-111982370D01*
X167313395Y-111790273D01*
X167367603Y-111921143D01*
X167609787Y-111990608D01*
X168410395Y-111190000D01*
X168396253Y-111175858D01*
X168575858Y-110996253D01*
X168590000Y-111010395D01*
X168604143Y-110996253D01*
X168783748Y-111175858D01*
X168769605Y-111190000D01*
X168783748Y-111204143D01*
X168604143Y-111383748D01*
X168590000Y-111369605D01*
X167789392Y-112170213D01*
X167858857Y-112412397D01*
X168382302Y-112599144D01*
X168937368Y-112571362D01*
X169108086Y-112500648D01*
X169157852Y-112750839D01*
X169322599Y-112997401D01*
X173738257Y-117413059D01*
X173393339Y-117412758D01*
X172879697Y-117624990D01*
X172486371Y-118017630D01*
X172400051Y-118225512D01*
X172315010Y-118019697D01*
X171922370Y-117626371D01*
X171409100Y-117413243D01*
X170853339Y-117412758D01*
X170820945Y-117426143D01*
X170579701Y-117184899D01*
X170333139Y-117020152D01*
X170042300Y-116962300D01*
X160391737Y-116962300D01*
X160213923Y-116784176D01*
X159686691Y-116565250D01*
X159115813Y-116564752D01*
X158588200Y-116782757D01*
X158184176Y-117186077D01*
X157965250Y-117713309D01*
X157964752Y-118284187D01*
X158182757Y-118811800D01*
X158586077Y-119215824D01*
X158667931Y-119249813D01*
X158588200Y-119282757D01*
X158184176Y-119686077D01*
X158161785Y-119740000D01*
X157547348Y-119740000D01*
X157609012Y-119682392D01*
X157889183Y-119066123D01*
X157771604Y-118797000D01*
X156327000Y-118797000D01*
X156327000Y-118817000D01*
X156073000Y-118817000D01*
X156073000Y-118797000D01*
X154628396Y-118797000D01*
X154510817Y-119066123D01*
X154790988Y-119682392D01*
X154852652Y-119740000D01*
X152566328Y-119740000D01*
X152580608Y-119690213D01*
X151780000Y-118889605D01*
X150979392Y-119690213D01*
X150993672Y-119740000D01*
X150185584Y-119740000D01*
X150423629Y-119502370D01*
X150503395Y-119310273D01*
X150557603Y-119441143D01*
X150799787Y-119510608D01*
X151600395Y-118710000D01*
X151959605Y-118710000D01*
X152760213Y-119510608D01*
X153002397Y-119441143D01*
X153189144Y-118917698D01*
X153161362Y-118362632D01*
X153124599Y-118273877D01*
X154510817Y-118273877D01*
X154628396Y-118543000D01*
X156073000Y-118543000D01*
X156073000Y-117098875D01*
X156327000Y-117098875D01*
X156327000Y-118543000D01*
X157771604Y-118543000D01*
X157889183Y-118273877D01*
X157609012Y-117657608D01*
X157114332Y-117195466D01*
X156596122Y-116980825D01*
X156327000Y-117098875D01*
X156073000Y-117098875D01*
X155803878Y-116980825D01*
X155285668Y-117195466D01*
X154790988Y-117657608D01*
X154510817Y-118273877D01*
X153124599Y-118273877D01*
X153002397Y-117978857D01*
X152760213Y-117909392D01*
X151959605Y-118710000D01*
X151600395Y-118710000D01*
X150799787Y-117909392D01*
X150557603Y-117978857D01*
X150507491Y-118119318D01*
X150425010Y-117919697D01*
X150235432Y-117729787D01*
X150979392Y-117729787D01*
X151780000Y-118530395D01*
X152580608Y-117729787D01*
X152511143Y-117487603D01*
X151987698Y-117300856D01*
X151432632Y-117328638D01*
X151048857Y-117487603D01*
X150979392Y-117729787D01*
X150235432Y-117729787D01*
X150032370Y-117526371D01*
X149519100Y-117313243D01*
X148963339Y-117312758D01*
X148930945Y-117326143D01*
X145091802Y-113487000D01*
X147603000Y-113487000D01*
X147893839Y-113429148D01*
X148140401Y-113264401D01*
X148930619Y-112474183D01*
X148960900Y-112486757D01*
X149516661Y-112487242D01*
X150030303Y-112275010D01*
X150423629Y-111882370D01*
X150509949Y-111674488D01*
X150594990Y-111880303D01*
X150987630Y-112273629D01*
X151500900Y-112486757D01*
X152056661Y-112487242D01*
X152570303Y-112275010D01*
X152963629Y-111882370D01*
X152993680Y-111810000D01*
X154452560Y-111810000D01*
X154452560Y-112150000D01*
X154496838Y-112385317D01*
X154635910Y-112601441D01*
X154848110Y-112746431D01*
X155100000Y-112797440D01*
X157300000Y-112797440D01*
X157535317Y-112753162D01*
X157751441Y-112614090D01*
X157896431Y-112401890D01*
X157947440Y-112150000D01*
X157947440Y-110060000D01*
X158161354Y-110060000D01*
X158182757Y-110111800D01*
X158182757Y-110111800D01*
G37*
X158182757Y-110111800D02*
X158586077Y-110515824D01*
X158667931Y-110549813D01*
X158588200Y-110582757D01*
X158184176Y-110986077D01*
X157965250Y-111513309D01*
X157964752Y-112084187D01*
X158182757Y-112611800D01*
X158586077Y-113015824D01*
X159113309Y-113234750D01*
X159684187Y-113235248D01*
X160211800Y-113017243D01*
X160615824Y-112613923D01*
X160834750Y-112086691D01*
X160835248Y-111515813D01*
X160812951Y-111461851D01*
X161426202Y-110848600D01*
X162139112Y-110848600D01*
X162113243Y-110910900D01*
X162112758Y-111466661D01*
X162324990Y-111980303D01*
X162717630Y-112373629D01*
X163230900Y-112586757D01*
X163786661Y-112587242D01*
X164300303Y-112375010D01*
X164693629Y-111982370D01*
X164779949Y-111774488D01*
X164864990Y-111980303D01*
X165257630Y-112373629D01*
X165770900Y-112586757D01*
X166326661Y-112587242D01*
X166840303Y-112375010D01*
X167233629Y-111982370D01*
X167313395Y-111790273D01*
X167367603Y-111921143D01*
X167609787Y-111990608D01*
X168410395Y-111190000D01*
X168396253Y-111175858D01*
X168575858Y-110996253D01*
X168590000Y-111010395D01*
X168604143Y-110996253D01*
X168783748Y-111175858D01*
X168769605Y-111190000D01*
X168783748Y-111204143D01*
X168604143Y-111383748D01*
X168590000Y-111369605D01*
X167789392Y-112170213D01*
X167858857Y-112412397D01*
X168382302Y-112599144D01*
X168937368Y-112571362D01*
X169108086Y-112500648D01*
X169157852Y-112750839D01*
X169322599Y-112997401D01*
X173738257Y-117413059D01*
X173393339Y-117412758D01*
X172879697Y-117624990D01*
X172486371Y-118017630D01*
X172400051Y-118225512D01*
X172315010Y-118019697D01*
X171922370Y-117626371D01*
X171409100Y-117413243D01*
X170853339Y-117412758D01*
X170820945Y-117426143D01*
X170579701Y-117184899D01*
X170333139Y-117020152D01*
X170042300Y-116962300D01*
X160391737Y-116962300D01*
X160213923Y-116784176D01*
X159686691Y-116565250D01*
X159115813Y-116564752D01*
X158588200Y-116782757D01*
X158184176Y-117186077D01*
X157965250Y-117713309D01*
X157964752Y-118284187D01*
X158182757Y-118811800D01*
X158586077Y-119215824D01*
X158667931Y-119249813D01*
X158588200Y-119282757D01*
X158184176Y-119686077D01*
X158161785Y-119740000D01*
X157547348Y-119740000D01*
X157609012Y-119682392D01*
X157889183Y-119066123D01*
X157771604Y-118797000D01*
X156327000Y-118797000D01*
X156327000Y-118817000D01*
X156073000Y-118817000D01*
X156073000Y-118797000D01*
X154628396Y-118797000D01*
X154510817Y-119066123D01*
X154790988Y-119682392D01*
X154852652Y-119740000D01*
X152566328Y-119740000D01*
X152580608Y-119690213D01*
X151780000Y-118889605D01*
X150979392Y-119690213D01*
X150993672Y-119740000D01*
X150185584Y-119740000D01*
X150423629Y-119502370D01*
X150503395Y-119310273D01*
X150557603Y-119441143D01*
X150799787Y-119510608D01*
X151600395Y-118710000D01*
X151959605Y-118710000D01*
X152760213Y-119510608D01*
X153002397Y-119441143D01*
X153189144Y-118917698D01*
X153161362Y-118362632D01*
X153124599Y-118273877D01*
X154510817Y-118273877D01*
X154628396Y-118543000D01*
X156073000Y-118543000D01*
X156073000Y-117098875D01*
X156327000Y-117098875D01*
X156327000Y-118543000D01*
X157771604Y-118543000D01*
X157889183Y-118273877D01*
X157609012Y-117657608D01*
X157114332Y-117195466D01*
X156596122Y-116980825D01*
X156327000Y-117098875D01*
X156073000Y-117098875D01*
X155803878Y-116980825D01*
X155285668Y-117195466D01*
X154790988Y-117657608D01*
X154510817Y-118273877D01*
X153124599Y-118273877D01*
X153002397Y-117978857D01*
X152760213Y-117909392D01*
X151959605Y-118710000D01*
X151600395Y-118710000D01*
X150799787Y-117909392D01*
X150557603Y-117978857D01*
X150507491Y-118119318D01*
X150425010Y-117919697D01*
X150235432Y-117729787D01*
X150979392Y-117729787D01*
X151780000Y-118530395D01*
X152580608Y-117729787D01*
X152511143Y-117487603D01*
X151987698Y-117300856D01*
X151432632Y-117328638D01*
X151048857Y-117487603D01*
X150979392Y-117729787D01*
X150235432Y-117729787D01*
X150032370Y-117526371D01*
X149519100Y-117313243D01*
X148963339Y-117312758D01*
X148930945Y-117326143D01*
X145091802Y-113487000D01*
X147603000Y-113487000D01*
X147893839Y-113429148D01*
X148140401Y-113264401D01*
X148930619Y-112474183D01*
X148960900Y-112486757D01*
X149516661Y-112487242D01*
X150030303Y-112275010D01*
X150423629Y-111882370D01*
X150509949Y-111674488D01*
X150594990Y-111880303D01*
X150987630Y-112273629D01*
X151500900Y-112486757D01*
X152056661Y-112487242D01*
X152570303Y-112275010D01*
X152963629Y-111882370D01*
X152993680Y-111810000D01*
X154452560Y-111810000D01*
X154452560Y-112150000D01*
X154496838Y-112385317D01*
X154635910Y-112601441D01*
X154848110Y-112746431D01*
X155100000Y-112797440D01*
X157300000Y-112797440D01*
X157535317Y-112753162D01*
X157751441Y-112614090D01*
X157896431Y-112401890D01*
X157947440Y-112150000D01*
X157947440Y-110060000D01*
X158161354Y-110060000D01*
X158182757Y-110111800D01*
G36*
X184741246Y-111192567D02*
X184383354Y-111728190D01*
X184257679Y-112360000D01*
X184383354Y-112991810D01*
X184741246Y-113527433D01*
X184894748Y-113630000D01*
X184741246Y-113732567D01*
X184469008Y-114140000D01*
X181113100Y-114140000D01*
X180822260Y-114197852D01*
X180575699Y-114362599D01*
X177157013Y-117781285D01*
X177002370Y-117626371D01*
X176489100Y-117413243D01*
X175933339Y-117412758D01*
X175900945Y-117426143D01*
X171061743Y-112586941D01*
X171406661Y-112587242D01*
X171920303Y-112375010D01*
X172313629Y-111982370D01*
X172399949Y-111774488D01*
X172484990Y-111980303D01*
X172877630Y-112373629D01*
X173390900Y-112586757D01*
X173946661Y-112587242D01*
X174460303Y-112375010D01*
X174853629Y-111982370D01*
X174939949Y-111774488D01*
X175024990Y-111980303D01*
X175417630Y-112373629D01*
X175930900Y-112586757D01*
X176486661Y-112587242D01*
X177000303Y-112375010D01*
X177205457Y-112170213D01*
X177949392Y-112170213D01*
X178018857Y-112412397D01*
X178542302Y-112599144D01*
X179097368Y-112571362D01*
X179481143Y-112412397D01*
X179550608Y-112170213D01*
X178750000Y-111369605D01*
X177949392Y-112170213D01*
X177205457Y-112170213D01*
X177393629Y-111982370D01*
X177473395Y-111790273D01*
X177527603Y-111921143D01*
X177769787Y-111990608D01*
X178570395Y-111190000D01*
X178556253Y-111175858D01*
X178735858Y-110996253D01*
X178750000Y-111010395D01*
X178764143Y-110996253D01*
X178943748Y-111175858D01*
X178929605Y-111190000D01*
X179730213Y-111990608D01*
X179972397Y-111921143D01*
X180022509Y-111780682D01*
X180104990Y-111980303D01*
X180497630Y-112373629D01*
X181010900Y-112586757D01*
X181566661Y-112587242D01*
X182080303Y-112375010D01*
X182473629Y-111982370D01*
X182686757Y-111469100D01*
X182687242Y-110913339D01*
X182656567Y-110839100D01*
X185270247Y-110839100D01*
X184741246Y-111192567D01*
X184741246Y-111192567D01*
G37*
X184741246Y-111192567D02*
X184383354Y-111728190D01*
X184257679Y-112360000D01*
X184383354Y-112991810D01*
X184741246Y-113527433D01*
X184894748Y-113630000D01*
X184741246Y-113732567D01*
X184469008Y-114140000D01*
X181113100Y-114140000D01*
X180822260Y-114197852D01*
X180575699Y-114362599D01*
X177157013Y-117781285D01*
X177002370Y-117626371D01*
X176489100Y-117413243D01*
X175933339Y-117412758D01*
X175900945Y-117426143D01*
X171061743Y-112586941D01*
X171406661Y-112587242D01*
X171920303Y-112375010D01*
X172313629Y-111982370D01*
X172399949Y-111774488D01*
X172484990Y-111980303D01*
X172877630Y-112373629D01*
X173390900Y-112586757D01*
X173946661Y-112587242D01*
X174460303Y-112375010D01*
X174853629Y-111982370D01*
X174939949Y-111774488D01*
X175024990Y-111980303D01*
X175417630Y-112373629D01*
X175930900Y-112586757D01*
X176486661Y-112587242D01*
X177000303Y-112375010D01*
X177205457Y-112170213D01*
X177949392Y-112170213D01*
X178018857Y-112412397D01*
X178542302Y-112599144D01*
X179097368Y-112571362D01*
X179481143Y-112412397D01*
X179550608Y-112170213D01*
X178750000Y-111369605D01*
X177949392Y-112170213D01*
X177205457Y-112170213D01*
X177393629Y-111982370D01*
X177473395Y-111790273D01*
X177527603Y-111921143D01*
X177769787Y-111990608D01*
X178570395Y-111190000D01*
X178556253Y-111175858D01*
X178735858Y-110996253D01*
X178750000Y-111010395D01*
X178764143Y-110996253D01*
X178943748Y-111175858D01*
X178929605Y-111190000D01*
X179730213Y-111990608D01*
X179972397Y-111921143D01*
X180022509Y-111780682D01*
X180104990Y-111980303D01*
X180497630Y-112373629D01*
X181010900Y-112586757D01*
X181566661Y-112587242D01*
X182080303Y-112375010D01*
X182473629Y-111982370D01*
X182686757Y-111469100D01*
X182687242Y-110913339D01*
X182656567Y-110839100D01*
X185270247Y-110839100D01*
X184741246Y-111192567D01*
G36*
X195478300Y-97681588D02*
X195380862Y-97445771D01*
X194956463Y-97020630D01*
X194401675Y-96790262D01*
X193800960Y-96789738D01*
X193245771Y-97019138D01*
X192820630Y-97443537D01*
X192590262Y-97998325D01*
X192589738Y-98599040D01*
X192819138Y-99154229D01*
X192987717Y-99323103D01*
X192773559Y-99460910D01*
X192628569Y-99673110D01*
X192577560Y-99925000D01*
X192577560Y-101675000D01*
X192621838Y-101910317D01*
X192760910Y-102126441D01*
X192973110Y-102271431D01*
X193225000Y-102322440D01*
X194975000Y-102322440D01*
X195210317Y-102278162D01*
X195426441Y-102139090D01*
X195478300Y-102063192D01*
X195478300Y-106881588D01*
X195380862Y-106645771D01*
X194956463Y-106220630D01*
X194401675Y-105990262D01*
X193800960Y-105989738D01*
X193245771Y-106219138D01*
X192820630Y-106643537D01*
X192590262Y-107198325D01*
X192589738Y-107799040D01*
X192819138Y-108354229D01*
X192996802Y-108532203D01*
X192865301Y-108586673D01*
X192686673Y-108765302D01*
X192590000Y-108998691D01*
X192590000Y-109714250D01*
X192748750Y-109873000D01*
X193973000Y-109873000D01*
X193973000Y-109853000D01*
X194227000Y-109853000D01*
X194227000Y-109873000D01*
X194247000Y-109873000D01*
X194247000Y-110127000D01*
X194227000Y-110127000D01*
X194227000Y-111351250D01*
X194385750Y-111510000D01*
X195101310Y-111510000D01*
X195334699Y-111413327D01*
X195478300Y-111269725D01*
X195478300Y-115174497D01*
X190589553Y-110285750D01*
X192590000Y-110285750D01*
X192590000Y-111001309D01*
X192686673Y-111234698D01*
X192865301Y-111413327D01*
X193098690Y-111510000D01*
X193814250Y-111510000D01*
X193973000Y-111351250D01*
X193973000Y-110127000D01*
X192748750Y-110127000D01*
X192590000Y-110285750D01*
X190589553Y-110285750D01*
X189845501Y-109541699D01*
X189598939Y-109376952D01*
X189308100Y-109319100D01*
X174780900Y-109319100D01*
X174490061Y-109376952D01*
X174243499Y-109541699D01*
X173979381Y-109805817D01*
X173949100Y-109793243D01*
X173601862Y-109792940D01*
X175993402Y-107401400D01*
X178398500Y-107401400D01*
X178689339Y-107343548D01*
X178935901Y-107178801D01*
X181952560Y-104162142D01*
X181952560Y-104500000D01*
X181996838Y-104735317D01*
X182135910Y-104951441D01*
X182348110Y-105096431D01*
X182600000Y-105147440D01*
X184200000Y-105147440D01*
X184435317Y-105103162D01*
X184651441Y-104964090D01*
X184796431Y-104751890D01*
X184805370Y-104707745D01*
X186371861Y-104707745D01*
X186445995Y-104953864D01*
X186983223Y-105146965D01*
X187553454Y-105119778D01*
X187954005Y-104953864D01*
X188028139Y-104707745D01*
X187200000Y-103879605D01*
X186371861Y-104707745D01*
X184805370Y-104707745D01*
X184847440Y-104500000D01*
X184847440Y-103483223D01*
X185753035Y-103483223D01*
X185780222Y-104053454D01*
X185946136Y-104454005D01*
X186192255Y-104528139D01*
X187020395Y-103700000D01*
X187379605Y-103700000D01*
X188207745Y-104528139D01*
X188453864Y-104454005D01*
X188646965Y-103916777D01*
X188619778Y-103346546D01*
X188453864Y-102945995D01*
X188207745Y-102871861D01*
X187379605Y-103700000D01*
X187020395Y-103700000D01*
X186192255Y-102871861D01*
X185946136Y-102945995D01*
X185753035Y-103483223D01*
X184847440Y-103483223D01*
X184847440Y-102900000D01*
X184808351Y-102692255D01*
X186371861Y-102692255D01*
X187200000Y-103520395D01*
X188028139Y-102692255D01*
X187954005Y-102446136D01*
X187416777Y-102253035D01*
X186846546Y-102280222D01*
X186445995Y-102446136D01*
X186371861Y-102692255D01*
X184808351Y-102692255D01*
X184803162Y-102664683D01*
X184664090Y-102448559D01*
X184451890Y-102303569D01*
X184200000Y-102252560D01*
X183862142Y-102252560D01*
X192320902Y-93793800D01*
X194954400Y-93793800D01*
X195245239Y-93735948D01*
X195478300Y-93580222D01*
X195478300Y-97681588D01*
X195478300Y-97681588D01*
G37*
X195478300Y-97681588D02*
X195380862Y-97445771D01*
X194956463Y-97020630D01*
X194401675Y-96790262D01*
X193800960Y-96789738D01*
X193245771Y-97019138D01*
X192820630Y-97443537D01*
X192590262Y-97998325D01*
X192589738Y-98599040D01*
X192819138Y-99154229D01*
X192987717Y-99323103D01*
X192773559Y-99460910D01*
X192628569Y-99673110D01*
X192577560Y-99925000D01*
X192577560Y-101675000D01*
X192621838Y-101910317D01*
X192760910Y-102126441D01*
X192973110Y-102271431D01*
X193225000Y-102322440D01*
X194975000Y-102322440D01*
X195210317Y-102278162D01*
X195426441Y-102139090D01*
X195478300Y-102063192D01*
X195478300Y-106881588D01*
X195380862Y-106645771D01*
X194956463Y-106220630D01*
X194401675Y-105990262D01*
X193800960Y-105989738D01*
X193245771Y-106219138D01*
X192820630Y-106643537D01*
X192590262Y-107198325D01*
X192589738Y-107799040D01*
X192819138Y-108354229D01*
X192996802Y-108532203D01*
X192865301Y-108586673D01*
X192686673Y-108765302D01*
X192590000Y-108998691D01*
X192590000Y-109714250D01*
X192748750Y-109873000D01*
X193973000Y-109873000D01*
X193973000Y-109853000D01*
X194227000Y-109853000D01*
X194227000Y-109873000D01*
X194247000Y-109873000D01*
X194247000Y-110127000D01*
X194227000Y-110127000D01*
X194227000Y-111351250D01*
X194385750Y-111510000D01*
X195101310Y-111510000D01*
X195334699Y-111413327D01*
X195478300Y-111269725D01*
X195478300Y-115174497D01*
X190589553Y-110285750D01*
X192590000Y-110285750D01*
X192590000Y-111001309D01*
X192686673Y-111234698D01*
X192865301Y-111413327D01*
X193098690Y-111510000D01*
X193814250Y-111510000D01*
X193973000Y-111351250D01*
X193973000Y-110127000D01*
X192748750Y-110127000D01*
X192590000Y-110285750D01*
X190589553Y-110285750D01*
X189845501Y-109541699D01*
X189598939Y-109376952D01*
X189308100Y-109319100D01*
X174780900Y-109319100D01*
X174490061Y-109376952D01*
X174243499Y-109541699D01*
X173979381Y-109805817D01*
X173949100Y-109793243D01*
X173601862Y-109792940D01*
X175993402Y-107401400D01*
X178398500Y-107401400D01*
X178689339Y-107343548D01*
X178935901Y-107178801D01*
X181952560Y-104162142D01*
X181952560Y-104500000D01*
X181996838Y-104735317D01*
X182135910Y-104951441D01*
X182348110Y-105096431D01*
X182600000Y-105147440D01*
X184200000Y-105147440D01*
X184435317Y-105103162D01*
X184651441Y-104964090D01*
X184796431Y-104751890D01*
X184805370Y-104707745D01*
X186371861Y-104707745D01*
X186445995Y-104953864D01*
X186983223Y-105146965D01*
X187553454Y-105119778D01*
X187954005Y-104953864D01*
X188028139Y-104707745D01*
X187200000Y-103879605D01*
X186371861Y-104707745D01*
X184805370Y-104707745D01*
X184847440Y-104500000D01*
X184847440Y-103483223D01*
X185753035Y-103483223D01*
X185780222Y-104053454D01*
X185946136Y-104454005D01*
X186192255Y-104528139D01*
X187020395Y-103700000D01*
X187379605Y-103700000D01*
X188207745Y-104528139D01*
X188453864Y-104454005D01*
X188646965Y-103916777D01*
X188619778Y-103346546D01*
X188453864Y-102945995D01*
X188207745Y-102871861D01*
X187379605Y-103700000D01*
X187020395Y-103700000D01*
X186192255Y-102871861D01*
X185946136Y-102945995D01*
X185753035Y-103483223D01*
X184847440Y-103483223D01*
X184847440Y-102900000D01*
X184808351Y-102692255D01*
X186371861Y-102692255D01*
X187200000Y-103520395D01*
X188028139Y-102692255D01*
X187954005Y-102446136D01*
X187416777Y-102253035D01*
X186846546Y-102280222D01*
X186445995Y-102446136D01*
X186371861Y-102692255D01*
X184808351Y-102692255D01*
X184803162Y-102664683D01*
X184664090Y-102448559D01*
X184451890Y-102303569D01*
X184200000Y-102252560D01*
X183862142Y-102252560D01*
X192320902Y-93793800D01*
X194954400Y-93793800D01*
X195245239Y-93735948D01*
X195478300Y-93580222D01*
X195478300Y-97681588D01*
G36*
X186155898Y-88347800D02*
X183882900Y-88347800D01*
X183592061Y-88405652D01*
X183345499Y-88570399D01*
X167420810Y-104495088D01*
X167262370Y-104336371D01*
X166749100Y-104123243D01*
X166193339Y-104122758D01*
X166160945Y-104136143D01*
X164052001Y-102027199D01*
X163805439Y-101862452D01*
X163514600Y-101804600D01*
X148331670Y-101804600D01*
X148538201Y-101666601D01*
X158540619Y-91664183D01*
X158570900Y-91676757D01*
X159126661Y-91677242D01*
X159640303Y-91465010D01*
X159775473Y-91330075D01*
X167677599Y-99232201D01*
X167924161Y-99396948D01*
X168215000Y-99454800D01*
X170586437Y-99454800D01*
X170618573Y-99486992D01*
X170962101Y-99629638D01*
X171334067Y-99629962D01*
X171677843Y-99487917D01*
X171941092Y-99225127D01*
X172083738Y-98881599D01*
X172084062Y-98509633D01*
X171942017Y-98165857D01*
X171679227Y-97902608D01*
X171335699Y-97759962D01*
X170963733Y-97759638D01*
X170619957Y-97901683D01*
X170586782Y-97934800D01*
X168529802Y-97934800D01*
X162095183Y-91500181D01*
X162180303Y-91465010D01*
X162573629Y-91072370D01*
X162659949Y-90864488D01*
X162744990Y-91070303D01*
X163137630Y-91463629D01*
X163650900Y-91676757D01*
X164206661Y-91677242D01*
X164720303Y-91465010D01*
X165113629Y-91072370D01*
X165199949Y-90864488D01*
X165284990Y-91070303D01*
X165677630Y-91463629D01*
X166190900Y-91676757D01*
X166746661Y-91677242D01*
X167260303Y-91465010D01*
X167465457Y-91260213D01*
X168209392Y-91260213D01*
X168278857Y-91502397D01*
X168802302Y-91689144D01*
X169357368Y-91661362D01*
X169741143Y-91502397D01*
X169810608Y-91260213D01*
X169010000Y-90459605D01*
X168209392Y-91260213D01*
X167465457Y-91260213D01*
X167653629Y-91072370D01*
X167733395Y-90880273D01*
X167787603Y-91011143D01*
X168029787Y-91080608D01*
X168830395Y-90280000D01*
X169189605Y-90280000D01*
X169990213Y-91080608D01*
X170232397Y-91011143D01*
X170282509Y-90870682D01*
X170364990Y-91070303D01*
X170757630Y-91463629D01*
X171270900Y-91676757D01*
X171826661Y-91677242D01*
X172340303Y-91465010D01*
X172733629Y-91072370D01*
X172819949Y-90864488D01*
X172904990Y-91070303D01*
X173297630Y-91463629D01*
X173810900Y-91676757D01*
X174366661Y-91677242D01*
X174880303Y-91465010D01*
X175273629Y-91072370D01*
X175359949Y-90864488D01*
X175444990Y-91070303D01*
X175837630Y-91463629D01*
X176350900Y-91676757D01*
X176906661Y-91677242D01*
X177420303Y-91465010D01*
X177813629Y-91072370D01*
X178026757Y-90559100D01*
X178027242Y-90003339D01*
X177815010Y-89489697D01*
X177422370Y-89096371D01*
X176909100Y-88883243D01*
X176353339Y-88882758D01*
X175839697Y-89094990D01*
X175446371Y-89487630D01*
X175360051Y-89695512D01*
X175275010Y-89489697D01*
X174882370Y-89096371D01*
X174369100Y-88883243D01*
X173813339Y-88882758D01*
X173299697Y-89094990D01*
X172906371Y-89487630D01*
X172820051Y-89695512D01*
X172735010Y-89489697D01*
X172342370Y-89096371D01*
X171829100Y-88883243D01*
X171273339Y-88882758D01*
X170759697Y-89094990D01*
X170366371Y-89487630D01*
X170286605Y-89679727D01*
X170232397Y-89548857D01*
X169990213Y-89479392D01*
X169189605Y-90280000D01*
X168830395Y-90280000D01*
X168029787Y-89479392D01*
X167787603Y-89548857D01*
X167737491Y-89689318D01*
X167655010Y-89489697D01*
X167465432Y-89299787D01*
X168209392Y-89299787D01*
X169010000Y-90100395D01*
X169810608Y-89299787D01*
X169741143Y-89057603D01*
X169217698Y-88870856D01*
X168662632Y-88898638D01*
X168278857Y-89057603D01*
X168209392Y-89299787D01*
X167465432Y-89299787D01*
X167262370Y-89096371D01*
X166749100Y-88883243D01*
X166193339Y-88882758D01*
X165679697Y-89094990D01*
X165286371Y-89487630D01*
X165200051Y-89695512D01*
X165115010Y-89489697D01*
X164722370Y-89096371D01*
X164209100Y-88883243D01*
X163653339Y-88882758D01*
X163139697Y-89094990D01*
X162746371Y-89487630D01*
X162660051Y-89695512D01*
X162575010Y-89489697D01*
X162182370Y-89096371D01*
X161669100Y-88883243D01*
X161113339Y-88882758D01*
X160599697Y-89094990D01*
X160443308Y-89251106D01*
X159834001Y-88641799D01*
X159587439Y-88477052D01*
X159296600Y-88419200D01*
X157410800Y-88419200D01*
X157119960Y-88477052D01*
X156873399Y-88641799D01*
X156619381Y-88895817D01*
X156589100Y-88883243D01*
X156033339Y-88882758D01*
X155519697Y-89094990D01*
X155126371Y-89487630D01*
X155040051Y-89695512D01*
X154955010Y-89489697D01*
X154562370Y-89096371D01*
X154049100Y-88883243D01*
X153493339Y-88882758D01*
X152979697Y-89094990D01*
X152586371Y-89487630D01*
X152500051Y-89695512D01*
X152415010Y-89489697D01*
X152022370Y-89096371D01*
X151509100Y-88883243D01*
X150953339Y-88882758D01*
X150439697Y-89094990D01*
X150046371Y-89487630D01*
X149960051Y-89695512D01*
X149875010Y-89489697D01*
X149482370Y-89096371D01*
X149425532Y-89072770D01*
X150245202Y-88253100D01*
X186250598Y-88253100D01*
X186155898Y-88347800D01*
X186155898Y-88347800D01*
G37*
X186155898Y-88347800D02*
X183882900Y-88347800D01*
X183592061Y-88405652D01*
X183345499Y-88570399D01*
X167420810Y-104495088D01*
X167262370Y-104336371D01*
X166749100Y-104123243D01*
X166193339Y-104122758D01*
X166160945Y-104136143D01*
X164052001Y-102027199D01*
X163805439Y-101862452D01*
X163514600Y-101804600D01*
X148331670Y-101804600D01*
X148538201Y-101666601D01*
X158540619Y-91664183D01*
X158570900Y-91676757D01*
X159126661Y-91677242D01*
X159640303Y-91465010D01*
X159775473Y-91330075D01*
X167677599Y-99232201D01*
X167924161Y-99396948D01*
X168215000Y-99454800D01*
X170586437Y-99454800D01*
X170618573Y-99486992D01*
X170962101Y-99629638D01*
X171334067Y-99629962D01*
X171677843Y-99487917D01*
X171941092Y-99225127D01*
X172083738Y-98881599D01*
X172084062Y-98509633D01*
X171942017Y-98165857D01*
X171679227Y-97902608D01*
X171335699Y-97759962D01*
X170963733Y-97759638D01*
X170619957Y-97901683D01*
X170586782Y-97934800D01*
X168529802Y-97934800D01*
X162095183Y-91500181D01*
X162180303Y-91465010D01*
X162573629Y-91072370D01*
X162659949Y-90864488D01*
X162744990Y-91070303D01*
X163137630Y-91463629D01*
X163650900Y-91676757D01*
X164206661Y-91677242D01*
X164720303Y-91465010D01*
X165113629Y-91072370D01*
X165199949Y-90864488D01*
X165284990Y-91070303D01*
X165677630Y-91463629D01*
X166190900Y-91676757D01*
X166746661Y-91677242D01*
X167260303Y-91465010D01*
X167465457Y-91260213D01*
X168209392Y-91260213D01*
X168278857Y-91502397D01*
X168802302Y-91689144D01*
X169357368Y-91661362D01*
X169741143Y-91502397D01*
X169810608Y-91260213D01*
X169010000Y-90459605D01*
X168209392Y-91260213D01*
X167465457Y-91260213D01*
X167653629Y-91072370D01*
X167733395Y-90880273D01*
X167787603Y-91011143D01*
X168029787Y-91080608D01*
X168830395Y-90280000D01*
X169189605Y-90280000D01*
X169990213Y-91080608D01*
X170232397Y-91011143D01*
X170282509Y-90870682D01*
X170364990Y-91070303D01*
X170757630Y-91463629D01*
X171270900Y-91676757D01*
X171826661Y-91677242D01*
X172340303Y-91465010D01*
X172733629Y-91072370D01*
X172819949Y-90864488D01*
X172904990Y-91070303D01*
X173297630Y-91463629D01*
X173810900Y-91676757D01*
X174366661Y-91677242D01*
X174880303Y-91465010D01*
X175273629Y-91072370D01*
X175359949Y-90864488D01*
X175444990Y-91070303D01*
X175837630Y-91463629D01*
X176350900Y-91676757D01*
X176906661Y-91677242D01*
X177420303Y-91465010D01*
X177813629Y-91072370D01*
X178026757Y-90559100D01*
X178027242Y-90003339D01*
X177815010Y-89489697D01*
X177422370Y-89096371D01*
X176909100Y-88883243D01*
X176353339Y-88882758D01*
X175839697Y-89094990D01*
X175446371Y-89487630D01*
X175360051Y-89695512D01*
X175275010Y-89489697D01*
X174882370Y-89096371D01*
X174369100Y-88883243D01*
X173813339Y-88882758D01*
X173299697Y-89094990D01*
X172906371Y-89487630D01*
X172820051Y-89695512D01*
X172735010Y-89489697D01*
X172342370Y-89096371D01*
X171829100Y-88883243D01*
X171273339Y-88882758D01*
X170759697Y-89094990D01*
X170366371Y-89487630D01*
X170286605Y-89679727D01*
X170232397Y-89548857D01*
X169990213Y-89479392D01*
X169189605Y-90280000D01*
X168830395Y-90280000D01*
X168029787Y-89479392D01*
X167787603Y-89548857D01*
X167737491Y-89689318D01*
X167655010Y-89489697D01*
X167465432Y-89299787D01*
X168209392Y-89299787D01*
X169010000Y-90100395D01*
X169810608Y-89299787D01*
X169741143Y-89057603D01*
X169217698Y-88870856D01*
X168662632Y-88898638D01*
X168278857Y-89057603D01*
X168209392Y-89299787D01*
X167465432Y-89299787D01*
X167262370Y-89096371D01*
X166749100Y-88883243D01*
X166193339Y-88882758D01*
X165679697Y-89094990D01*
X165286371Y-89487630D01*
X165200051Y-89695512D01*
X165115010Y-89489697D01*
X164722370Y-89096371D01*
X164209100Y-88883243D01*
X163653339Y-88882758D01*
X163139697Y-89094990D01*
X162746371Y-89487630D01*
X162660051Y-89695512D01*
X162575010Y-89489697D01*
X162182370Y-89096371D01*
X161669100Y-88883243D01*
X161113339Y-88882758D01*
X160599697Y-89094990D01*
X160443308Y-89251106D01*
X159834001Y-88641799D01*
X159587439Y-88477052D01*
X159296600Y-88419200D01*
X157410800Y-88419200D01*
X157119960Y-88477052D01*
X156873399Y-88641799D01*
X156619381Y-88895817D01*
X156589100Y-88883243D01*
X156033339Y-88882758D01*
X155519697Y-89094990D01*
X155126371Y-89487630D01*
X155040051Y-89695512D01*
X154955010Y-89489697D01*
X154562370Y-89096371D01*
X154049100Y-88883243D01*
X153493339Y-88882758D01*
X152979697Y-89094990D01*
X152586371Y-89487630D01*
X152500051Y-89695512D01*
X152415010Y-89489697D01*
X152022370Y-89096371D01*
X151509100Y-88883243D01*
X150953339Y-88882758D01*
X150439697Y-89094990D01*
X150046371Y-89487630D01*
X149960051Y-89695512D01*
X149875010Y-89489697D01*
X149482370Y-89096371D01*
X149425532Y-89072770D01*
X150245202Y-88253100D01*
X186250598Y-88253100D01*
X186155898Y-88347800D01*
G36*
X184767599Y-76737101D02*
X185014161Y-76901848D01*
X185305000Y-76959700D01*
X192577560Y-76959700D01*
X192577560Y-78275000D01*
X192621838Y-78510317D01*
X192760910Y-78726441D01*
X192973110Y-78871431D01*
X193225000Y-78922440D01*
X193418767Y-78922440D01*
X193562599Y-79137701D01*
X195019900Y-80595002D01*
X195019900Y-82251494D01*
X194930939Y-82192052D01*
X194640100Y-82134200D01*
X192047400Y-82134200D01*
X191756561Y-82192052D01*
X191509999Y-82356799D01*
X190158825Y-83707973D01*
X190153864Y-83695995D01*
X189907745Y-83621861D01*
X189079605Y-84450000D01*
X189093748Y-84464142D01*
X188914142Y-84643748D01*
X188900000Y-84629605D01*
X188071861Y-85457745D01*
X188145995Y-85703864D01*
X188158455Y-85708343D01*
X187133698Y-86733100D01*
X174687546Y-86733100D01*
X174800303Y-86686510D01*
X175193629Y-86293870D01*
X175406757Y-85780600D01*
X175407242Y-85224839D01*
X175401111Y-85210000D01*
X184952560Y-85210000D01*
X184952560Y-85250000D01*
X184996838Y-85485317D01*
X185135910Y-85701441D01*
X185348110Y-85846431D01*
X185600000Y-85897440D01*
X187200000Y-85897440D01*
X187435317Y-85853162D01*
X187651441Y-85714090D01*
X187796431Y-85501890D01*
X187844646Y-85263799D01*
X187892255Y-85278139D01*
X188720395Y-84450000D01*
X187892255Y-83621861D01*
X187844833Y-83636145D01*
X187808351Y-83442255D01*
X188071861Y-83442255D01*
X188900000Y-84270395D01*
X189728139Y-83442255D01*
X189654005Y-83196136D01*
X189116777Y-83003035D01*
X188546546Y-83030222D01*
X188145995Y-83196136D01*
X188071861Y-83442255D01*
X187808351Y-83442255D01*
X187803162Y-83414683D01*
X187664090Y-83198559D01*
X187451890Y-83053569D01*
X187200000Y-83002560D01*
X185600000Y-83002560D01*
X185364683Y-83046838D01*
X185148559Y-83185910D01*
X185003569Y-83398110D01*
X184952560Y-83650000D01*
X184952560Y-83690000D01*
X182196985Y-83690000D01*
X182325767Y-83497264D01*
X182435000Y-82948113D01*
X182435000Y-82891887D01*
X182325767Y-82342736D01*
X182014698Y-81877189D01*
X181549151Y-81566120D01*
X181000000Y-81456887D01*
X180450849Y-81566120D01*
X179985302Y-81877189D01*
X179674233Y-82342736D01*
X179565000Y-82891887D01*
X179565000Y-82948113D01*
X179674233Y-83497264D01*
X179803015Y-83690000D01*
X175061500Y-83690000D01*
X174770661Y-83747852D01*
X174524099Y-83912599D01*
X174319381Y-84117317D01*
X174289100Y-84104743D01*
X173733339Y-84104258D01*
X173219697Y-84316490D01*
X172826371Y-84709130D01*
X172746605Y-84901227D01*
X172692397Y-84770357D01*
X172450213Y-84700892D01*
X171649605Y-85501500D01*
X172450213Y-86302108D01*
X172692397Y-86232643D01*
X172742509Y-86092182D01*
X172824990Y-86291803D01*
X173217630Y-86685129D01*
X173333157Y-86733100D01*
X172178925Y-86733100D01*
X172201143Y-86723897D01*
X172270608Y-86481713D01*
X171470000Y-85681105D01*
X170669392Y-86481713D01*
X170738857Y-86723897D01*
X170764653Y-86733100D01*
X169638925Y-86733100D01*
X169661143Y-86723897D01*
X169730608Y-86481713D01*
X168930000Y-85681105D01*
X168129392Y-86481713D01*
X168198857Y-86723897D01*
X168224653Y-86733100D01*
X167067546Y-86733100D01*
X167180303Y-86686510D01*
X167573629Y-86293870D01*
X167653395Y-86101773D01*
X167707603Y-86232643D01*
X167949787Y-86302108D01*
X168750395Y-85501500D01*
X169109605Y-85501500D01*
X169910213Y-86302108D01*
X170152397Y-86232643D01*
X170196453Y-86109156D01*
X170247603Y-86232643D01*
X170489787Y-86302108D01*
X171290395Y-85501500D01*
X170489787Y-84700892D01*
X170247603Y-84770357D01*
X170203547Y-84893844D01*
X170152397Y-84770357D01*
X169910213Y-84700892D01*
X169109605Y-85501500D01*
X168750395Y-85501500D01*
X167949787Y-84700892D01*
X167707603Y-84770357D01*
X167657491Y-84910818D01*
X167575010Y-84711197D01*
X167385432Y-84521287D01*
X168129392Y-84521287D01*
X168930000Y-85321895D01*
X169730608Y-84521287D01*
X170669392Y-84521287D01*
X171470000Y-85321895D01*
X172270608Y-84521287D01*
X172201143Y-84279103D01*
X171677698Y-84092356D01*
X171122632Y-84120138D01*
X170738857Y-84279103D01*
X170669392Y-84521287D01*
X169730608Y-84521287D01*
X169661143Y-84279103D01*
X169137698Y-84092356D01*
X168582632Y-84120138D01*
X168198857Y-84279103D01*
X168129392Y-84521287D01*
X167385432Y-84521287D01*
X167182370Y-84317871D01*
X166669100Y-84104743D01*
X166113339Y-84104258D01*
X165599697Y-84316490D01*
X165206371Y-84709130D01*
X165120051Y-84917012D01*
X165035010Y-84711197D01*
X164642370Y-84317871D01*
X164129100Y-84104743D01*
X163573339Y-84104258D01*
X163059697Y-84316490D01*
X162666371Y-84709130D01*
X162580051Y-84917012D01*
X162495010Y-84711197D01*
X162102370Y-84317871D01*
X161589100Y-84104743D01*
X161033339Y-84104258D01*
X160519697Y-84316490D01*
X160126371Y-84709130D01*
X160040051Y-84917012D01*
X159955010Y-84711197D01*
X159562370Y-84317871D01*
X159049100Y-84104743D01*
X158493339Y-84104258D01*
X157979697Y-84316490D01*
X157586371Y-84709130D01*
X157500051Y-84917012D01*
X157415010Y-84711197D01*
X157022370Y-84317871D01*
X156509100Y-84104743D01*
X155953339Y-84104258D01*
X155439697Y-84316490D01*
X155046371Y-84709130D01*
X154960051Y-84917012D01*
X154875010Y-84711197D01*
X154482370Y-84317871D01*
X154430125Y-84296177D01*
X158442115Y-80284187D01*
X182964752Y-80284187D01*
X183182757Y-80811800D01*
X183586077Y-81215824D01*
X184113309Y-81434750D01*
X184684187Y-81435248D01*
X185211800Y-81217243D01*
X185615824Y-80813923D01*
X185834750Y-80286691D01*
X185835248Y-79715813D01*
X185617243Y-79188200D01*
X185213923Y-78784176D01*
X184686691Y-78565250D01*
X184115813Y-78564752D01*
X183588200Y-78782757D01*
X183184176Y-79186077D01*
X182965250Y-79713309D01*
X182964752Y-80284187D01*
X158442115Y-80284187D01*
X162666302Y-76060000D01*
X179761354Y-76060000D01*
X179782757Y-76111800D01*
X180186077Y-76515824D01*
X180713309Y-76734750D01*
X181284187Y-76735248D01*
X181811800Y-76517243D01*
X182215824Y-76113923D01*
X182434750Y-75586691D01*
X182435248Y-75015813D01*
X182217243Y-74488200D01*
X181881464Y-74151835D01*
X182014698Y-74062811D01*
X182046185Y-74015687D01*
X184767599Y-76737101D01*
X184767599Y-76737101D01*
G37*
X184767599Y-76737101D02*
X185014161Y-76901848D01*
X185305000Y-76959700D01*
X192577560Y-76959700D01*
X192577560Y-78275000D01*
X192621838Y-78510317D01*
X192760910Y-78726441D01*
X192973110Y-78871431D01*
X193225000Y-78922440D01*
X193418767Y-78922440D01*
X193562599Y-79137701D01*
X195019900Y-80595002D01*
X195019900Y-82251494D01*
X194930939Y-82192052D01*
X194640100Y-82134200D01*
X192047400Y-82134200D01*
X191756561Y-82192052D01*
X191509999Y-82356799D01*
X190158825Y-83707973D01*
X190153864Y-83695995D01*
X189907745Y-83621861D01*
X189079605Y-84450000D01*
X189093748Y-84464142D01*
X188914142Y-84643748D01*
X188900000Y-84629605D01*
X188071861Y-85457745D01*
X188145995Y-85703864D01*
X188158455Y-85708343D01*
X187133698Y-86733100D01*
X174687546Y-86733100D01*
X174800303Y-86686510D01*
X175193629Y-86293870D01*
X175406757Y-85780600D01*
X175407242Y-85224839D01*
X175401111Y-85210000D01*
X184952560Y-85210000D01*
X184952560Y-85250000D01*
X184996838Y-85485317D01*
X185135910Y-85701441D01*
X185348110Y-85846431D01*
X185600000Y-85897440D01*
X187200000Y-85897440D01*
X187435317Y-85853162D01*
X187651441Y-85714090D01*
X187796431Y-85501890D01*
X187844646Y-85263799D01*
X187892255Y-85278139D01*
X188720395Y-84450000D01*
X187892255Y-83621861D01*
X187844833Y-83636145D01*
X187808351Y-83442255D01*
X188071861Y-83442255D01*
X188900000Y-84270395D01*
X189728139Y-83442255D01*
X189654005Y-83196136D01*
X189116777Y-83003035D01*
X188546546Y-83030222D01*
X188145995Y-83196136D01*
X188071861Y-83442255D01*
X187808351Y-83442255D01*
X187803162Y-83414683D01*
X187664090Y-83198559D01*
X187451890Y-83053569D01*
X187200000Y-83002560D01*
X185600000Y-83002560D01*
X185364683Y-83046838D01*
X185148559Y-83185910D01*
X185003569Y-83398110D01*
X184952560Y-83650000D01*
X184952560Y-83690000D01*
X182196985Y-83690000D01*
X182325767Y-83497264D01*
X182435000Y-82948113D01*
X182435000Y-82891887D01*
X182325767Y-82342736D01*
X182014698Y-81877189D01*
X181549151Y-81566120D01*
X181000000Y-81456887D01*
X180450849Y-81566120D01*
X179985302Y-81877189D01*
X179674233Y-82342736D01*
X179565000Y-82891887D01*
X179565000Y-82948113D01*
X179674233Y-83497264D01*
X179803015Y-83690000D01*
X175061500Y-83690000D01*
X174770661Y-83747852D01*
X174524099Y-83912599D01*
X174319381Y-84117317D01*
X174289100Y-84104743D01*
X173733339Y-84104258D01*
X173219697Y-84316490D01*
X172826371Y-84709130D01*
X172746605Y-84901227D01*
X172692397Y-84770357D01*
X172450213Y-84700892D01*
X171649605Y-85501500D01*
X172450213Y-86302108D01*
X172692397Y-86232643D01*
X172742509Y-86092182D01*
X172824990Y-86291803D01*
X173217630Y-86685129D01*
X173333157Y-86733100D01*
X172178925Y-86733100D01*
X172201143Y-86723897D01*
X172270608Y-86481713D01*
X171470000Y-85681105D01*
X170669392Y-86481713D01*
X170738857Y-86723897D01*
X170764653Y-86733100D01*
X169638925Y-86733100D01*
X169661143Y-86723897D01*
X169730608Y-86481713D01*
X168930000Y-85681105D01*
X168129392Y-86481713D01*
X168198857Y-86723897D01*
X168224653Y-86733100D01*
X167067546Y-86733100D01*
X167180303Y-86686510D01*
X167573629Y-86293870D01*
X167653395Y-86101773D01*
X167707603Y-86232643D01*
X167949787Y-86302108D01*
X168750395Y-85501500D01*
X169109605Y-85501500D01*
X169910213Y-86302108D01*
X170152397Y-86232643D01*
X170196453Y-86109156D01*
X170247603Y-86232643D01*
X170489787Y-86302108D01*
X171290395Y-85501500D01*
X170489787Y-84700892D01*
X170247603Y-84770357D01*
X170203547Y-84893844D01*
X170152397Y-84770357D01*
X169910213Y-84700892D01*
X169109605Y-85501500D01*
X168750395Y-85501500D01*
X167949787Y-84700892D01*
X167707603Y-84770357D01*
X167657491Y-84910818D01*
X167575010Y-84711197D01*
X167385432Y-84521287D01*
X168129392Y-84521287D01*
X168930000Y-85321895D01*
X169730608Y-84521287D01*
X170669392Y-84521287D01*
X171470000Y-85321895D01*
X172270608Y-84521287D01*
X172201143Y-84279103D01*
X171677698Y-84092356D01*
X171122632Y-84120138D01*
X170738857Y-84279103D01*
X170669392Y-84521287D01*
X169730608Y-84521287D01*
X169661143Y-84279103D01*
X169137698Y-84092356D01*
X168582632Y-84120138D01*
X168198857Y-84279103D01*
X168129392Y-84521287D01*
X167385432Y-84521287D01*
X167182370Y-84317871D01*
X166669100Y-84104743D01*
X166113339Y-84104258D01*
X165599697Y-84316490D01*
X165206371Y-84709130D01*
X165120051Y-84917012D01*
X165035010Y-84711197D01*
X164642370Y-84317871D01*
X164129100Y-84104743D01*
X163573339Y-84104258D01*
X163059697Y-84316490D01*
X162666371Y-84709130D01*
X162580051Y-84917012D01*
X162495010Y-84711197D01*
X162102370Y-84317871D01*
X161589100Y-84104743D01*
X161033339Y-84104258D01*
X160519697Y-84316490D01*
X160126371Y-84709130D01*
X160040051Y-84917012D01*
X159955010Y-84711197D01*
X159562370Y-84317871D01*
X159049100Y-84104743D01*
X158493339Y-84104258D01*
X157979697Y-84316490D01*
X157586371Y-84709130D01*
X157500051Y-84917012D01*
X157415010Y-84711197D01*
X157022370Y-84317871D01*
X156509100Y-84104743D01*
X155953339Y-84104258D01*
X155439697Y-84316490D01*
X155046371Y-84709130D01*
X154960051Y-84917012D01*
X154875010Y-84711197D01*
X154482370Y-84317871D01*
X154430125Y-84296177D01*
X158442115Y-80284187D01*
X182964752Y-80284187D01*
X183182757Y-80811800D01*
X183586077Y-81215824D01*
X184113309Y-81434750D01*
X184684187Y-81435248D01*
X185211800Y-81217243D01*
X185615824Y-80813923D01*
X185834750Y-80286691D01*
X185835248Y-79715813D01*
X185617243Y-79188200D01*
X185213923Y-78784176D01*
X184686691Y-78565250D01*
X184115813Y-78564752D01*
X183588200Y-78782757D01*
X183184176Y-79186077D01*
X182965250Y-79713309D01*
X182964752Y-80284187D01*
X158442115Y-80284187D01*
X162666302Y-76060000D01*
X179761354Y-76060000D01*
X179782757Y-76111800D01*
X180186077Y-76515824D01*
X180713309Y-76734750D01*
X181284187Y-76735248D01*
X181811800Y-76517243D01*
X182215824Y-76113923D01*
X182434750Y-75586691D01*
X182435248Y-75015813D01*
X182217243Y-74488200D01*
X181881464Y-74151835D01*
X182014698Y-74062811D01*
X182046185Y-74015687D01*
X184767599Y-76737101D01*
M02*
