G04 #@! TF.FileFunction,Soldermask,Bot*
%FSLAX46Y46*%
G04 Gerber Fmt 4.6, Leading zero omitted, Abs format (unit mm)*
G04 Created by KiCad (PCBNEW 4.0.6+dfsg1-1) date Sat Feb 24 17:26:48 2018*
%MOMM*%
%LPD*%
G01*
G04 APERTURE LIST*
%ADD10C,0.100000*%
%ADD11R,2.000000X2.000000*%
%ADD12C,2.000000*%
%ADD13O,2.940000X2.432000*%
%ADD14O,2.000000X2.000000*%
%ADD15R,2.150000X2.150000*%
%ADD16C,2.150000*%
%ADD17C,1.924000*%
%ADD18R,2.600000X2.600000*%
%ADD19O,2.600000X2.600000*%
G04 APERTURE END LIST*
D10*
D11*
X101500000Y-134100000D03*
D12*
X99000000Y-134100000D03*
D11*
X186200000Y-123300000D03*
D12*
X186200000Y-125800000D03*
D13*
X186200000Y-114900000D03*
X186200000Y-117440000D03*
X186200000Y-112360000D03*
D12*
X184400000Y-80000000D03*
D14*
X184400000Y-72380000D03*
D12*
X181000000Y-65400000D03*
D14*
X181000000Y-73020000D03*
D12*
X104400000Y-75400000D03*
D14*
X104400000Y-83020000D03*
D12*
X104000000Y-129500000D03*
D14*
X96380000Y-129500000D03*
D12*
X104000000Y-126100000D03*
D14*
X96380000Y-126100000D03*
D12*
X104000000Y-122700000D03*
D14*
X96380000Y-122700000D03*
D12*
X108100000Y-75400000D03*
D14*
X108100000Y-83020000D03*
D12*
X181000000Y-75300000D03*
D14*
X181000000Y-82920000D03*
D12*
X177700000Y-65400000D03*
D14*
X177700000Y-73020000D03*
D15*
X92200000Y-125300000D03*
D16*
X92200000Y-127800000D03*
X92200000Y-130300000D03*
X92200000Y-132800000D03*
D15*
X185900000Y-139600000D03*
D16*
X188400000Y-139600000D03*
D15*
X109800000Y-68300000D03*
D16*
X107300000Y-68300000D03*
D15*
X194100000Y-110000000D03*
D16*
X194100000Y-107500000D03*
D17*
X173670000Y-111190000D03*
X176210000Y-111190000D03*
X178750000Y-111190000D03*
X181290000Y-111190000D03*
X171130000Y-111190000D03*
X168590000Y-111190000D03*
X166050000Y-111190000D03*
X163510000Y-111190000D03*
X181290000Y-118810000D03*
X178750000Y-118810000D03*
X176210000Y-118810000D03*
X173670000Y-118810000D03*
X171130000Y-118810000D03*
X168590000Y-118810000D03*
X166050000Y-118810000D03*
X163510000Y-118810000D03*
D15*
X194100000Y-100800000D03*
D16*
X194100000Y-98300000D03*
D12*
X126400000Y-107000000D03*
D14*
X134020000Y-107000000D03*
D11*
X136000000Y-127800000D03*
D14*
X143620000Y-135420000D03*
X136000000Y-130340000D03*
X143620000Y-132880000D03*
X136000000Y-132880000D03*
X143620000Y-130340000D03*
X136000000Y-135420000D03*
X143620000Y-127800000D03*
D17*
X146700000Y-111090000D03*
X149240000Y-111090000D03*
X151780000Y-111090000D03*
X144160000Y-111090000D03*
X141620000Y-111090000D03*
X146700000Y-118710000D03*
X149240000Y-118710000D03*
X151780000Y-118710000D03*
X144160000Y-118710000D03*
X141620000Y-118710000D03*
D15*
X188200000Y-68100000D03*
D16*
X185700000Y-68100000D03*
D15*
X99700000Y-139900000D03*
D16*
X102200000Y-139900000D03*
D15*
X101100000Y-68300000D03*
D16*
X98600000Y-68300000D03*
D15*
X194100000Y-77400000D03*
D16*
X194100000Y-74900000D03*
D15*
X194100000Y-91600000D03*
D16*
X194100000Y-89100000D03*
X194100000Y-86600000D03*
X194100000Y-84100000D03*
D11*
X123400000Y-111600000D03*
D12*
X125400000Y-111600000D03*
X159400000Y-111800000D03*
X159400000Y-109300000D03*
X124100000Y-107000000D03*
X121600000Y-107000000D03*
X159400000Y-118000000D03*
X159400000Y-120500000D03*
D15*
X92500000Y-74200000D03*
D16*
X92500000Y-76700000D03*
X92500000Y-79200000D03*
X92500000Y-81700000D03*
D15*
X194100000Y-124100000D03*
D16*
X194100000Y-121600000D03*
X194100000Y-119100000D03*
X194100000Y-116600000D03*
D11*
X183400000Y-103700000D03*
D12*
X187200000Y-103700000D03*
D11*
X183450000Y-92150000D03*
D12*
X187250000Y-92150000D03*
D11*
X137800000Y-139600000D03*
D12*
X137800000Y-142100000D03*
D11*
X123400000Y-117500000D03*
D12*
X125400000Y-117500000D03*
D11*
X186400000Y-84450000D03*
D12*
X188900000Y-84450000D03*
D11*
X129000000Y-111600000D03*
D12*
X131500000Y-111600000D03*
D11*
X135100000Y-117500000D03*
D12*
X137100000Y-117500000D03*
D11*
X135100000Y-111600000D03*
D12*
X137100000Y-111600000D03*
D11*
X129300000Y-117500000D03*
D12*
X131300000Y-117500000D03*
D15*
X194100000Y-133300000D03*
D16*
X194100000Y-130800000D03*
D17*
X122940000Y-97510000D03*
X122940000Y-89890000D03*
X92460000Y-97510000D03*
X92460000Y-89890000D03*
X140990000Y-66298500D03*
X143530000Y-66298500D03*
X146070000Y-66298500D03*
X148610000Y-66298500D03*
X151150000Y-66298500D03*
X153690000Y-66298500D03*
X156230000Y-66298500D03*
X158770000Y-66298500D03*
X174010000Y-66298500D03*
X171470000Y-66298500D03*
X168930000Y-66298500D03*
X166390000Y-66298500D03*
X163850000Y-66298500D03*
X161310000Y-66298500D03*
X161310000Y-85501500D03*
X163850000Y-85501500D03*
X166390000Y-85501500D03*
X168930000Y-85501500D03*
X171470000Y-85501500D03*
X174010000Y-85501500D03*
X158770000Y-85501500D03*
X156230000Y-85501500D03*
X153690000Y-85501500D03*
X151150000Y-85501500D03*
X148610000Y-85501500D03*
X146070000Y-85501500D03*
X143530000Y-85501500D03*
X140990000Y-85501500D03*
X180734000Y-134070000D03*
X180734000Y-136610000D03*
X180734000Y-139150000D03*
X180734000Y-131530000D03*
X180734000Y-128990000D03*
X180734000Y-126450000D03*
X106830000Y-121270000D03*
X119530000Y-121270000D03*
X133500000Y-141590000D03*
X133500000Y-139050000D03*
X133500000Y-136510000D03*
X133500000Y-133970000D03*
X133500000Y-131430000D03*
X133500000Y-128890000D03*
X133500000Y-126350000D03*
X133500000Y-123810000D03*
X91170000Y-115610000D03*
X91170000Y-107990000D03*
X91170000Y-105145200D03*
X91170000Y-118454800D03*
X114030000Y-105450000D03*
X114030000Y-118150000D03*
X96504000Y-118150000D03*
X96504000Y-105450000D03*
X161390000Y-90280000D03*
X163930000Y-90280000D03*
X166470000Y-90280000D03*
X169010000Y-90280000D03*
X171550000Y-90280000D03*
X174090000Y-90280000D03*
X176630000Y-90280000D03*
X158850000Y-90280000D03*
X156310000Y-90280000D03*
X153770000Y-90280000D03*
X151230000Y-90280000D03*
X148690000Y-90280000D03*
X146150000Y-90280000D03*
X143610000Y-90280000D03*
X141070000Y-90280000D03*
X141070000Y-105520000D03*
X143610000Y-105520000D03*
X146150000Y-105520000D03*
X148690000Y-105520000D03*
X151230000Y-105520000D03*
X153770000Y-105520000D03*
X156310000Y-105520000D03*
X158850000Y-105520000D03*
X161390000Y-105520000D03*
X163930000Y-105520000D03*
X166470000Y-105520000D03*
X169010000Y-105520000D03*
X171550000Y-105520000D03*
X174090000Y-105520000D03*
X176630000Y-105520000D03*
X136050000Y-104200000D03*
X136050000Y-91600000D03*
X114000000Y-78950000D03*
X114000000Y-75950000D03*
X114000000Y-72950000D03*
X114000000Y-69950000D03*
X137800000Y-68250000D03*
X137800000Y-71250000D03*
X137800000Y-77650000D03*
X137800000Y-80650000D03*
D18*
X156200000Y-111050000D03*
D19*
X156200000Y-118670000D03*
M02*
