<?xml version="1.0" standalone="no"?>
 <!DOCTYPE svg PUBLIC "-//W3C//DTD SVG 1.1//EN" 
 "http://www.w3.org/Graphics/SVG/1.1/DTD/svg11.dtd"> 
<svg xmlns="http://www.w3.org/2000/svg" version="1.1" 
    width="29.7002cm" height="21.0007cm" viewBox="0 0 116930 82680 ">
<title>SVG Picture created as NOKO_2-Cmts.User.svg date 2017/11/27 15:34:16 </title>
  <desc>Picture generated by PCBNEW </desc>
<g style="fill:#000000; fill-opacity:1;stroke:#000000; stroke-opacity:1;
stroke-linecap:round; stroke-linejoin:round; "
 transform="translate(0 0) scale(1 1)">
</g>
<g style="fill:#000000; fill-opacity:0.0; 
stroke:#000000; stroke-width:-0.000393701; stroke-opacity:1; 
stroke-linecap:round; stroke-linejoin:round;">
</g>
<g style="fill:#000000; fill-opacity:0.0; 
stroke:#000000; stroke-width:39.3701; stroke-opacity:1; 
stroke-linecap:round; stroke-linejoin:round;">
</g>
<g style="fill:#000000; fill-opacity:0.0; 
stroke:#000000; stroke-width:59.0551; stroke-opacity:1; 
stroke-linecap:round; stroke-linejoin:round;">
<rect x="69685.9" y="65357.2" width="42519.7" height="12598.4" rx="0" />
</g>
<g style="fill:#000000; fill-opacity:0.0; 
stroke:#000000; stroke-width:39.3701; stroke-opacity:1; 
stroke-linecap:round; stroke-linejoin:round;">
</g>
<g style="fill:#000000; fill-opacity:0.0; 
stroke:#000000; stroke-width:59.0551; stroke-opacity:1; 
stroke-linecap:round; stroke-linejoin:round;">
<rect x="3937.01" y="3937.01" width="109056" height="74806" rx="0" />
</g>
<g style="fill:#000000; fill-opacity:0.0; 
stroke:#000000; stroke-width:39.3701; stroke-opacity:1; 
stroke-linecap:round; stroke-linejoin:round;">
</g>
<g style="fill:#000000; fill-opacity:0.0; 
stroke:#000000; stroke-width:59.0551; stroke-opacity:1; 
stroke-linecap:round; stroke-linejoin:round;">
<rect x="4724.41" y="4724.41" width="107481" height="73231.2" rx="0" />
</g>
<g style="fill:#000000; fill-opacity:0.0; 
stroke:#000000; stroke-width:39.3701; stroke-opacity:1; 
stroke-linecap:round; stroke-linejoin:round;">
</g>
<g style="fill:#000000; fill-opacity:0.0; 
stroke:#000000; stroke-width:59.0551; stroke-opacity:1; 
stroke-linecap:round; stroke-linejoin:round;">
<path d="M23622 4724
L23622 3937
" />
</g>
<g style="fill:#000000; fill-opacity:0.0; 
stroke:#000000; stroke-width:39.3701; stroke-opacity:1; 
stroke-linecap:round; stroke-linejoin:round;">
</g>
<g style="fill:#000000; fill-opacity:0.0; 
stroke:#000000; stroke-width:59.0551; stroke-opacity:1; 
stroke-linecap:round; stroke-linejoin:round;">
<path d="M43307 4724
L43307 3937
" />
</g>
<g style="fill:#000000; fill-opacity:0.0; 
stroke:#000000; stroke-width:39.3701; stroke-opacity:1; 
stroke-linecap:round; stroke-linejoin:round;">
</g>
<g style="fill:#000000; fill-opacity:0.0; 
stroke:#000000; stroke-width:59.0551; stroke-opacity:1; 
stroke-linecap:round; stroke-linejoin:round;">
<path d="M62992 4724
L62992 3937
" />
</g>
<g style="fill:#000000; fill-opacity:0.0; 
stroke:#000000; stroke-width:39.3701; stroke-opacity:1; 
stroke-linecap:round; stroke-linejoin:round;">
</g>
<g style="fill:#000000; fill-opacity:0.0; 
stroke:#000000; stroke-width:59.0551; stroke-opacity:1; 
stroke-linecap:round; stroke-linejoin:round;">
<path d="M82677 4724
L82677 3937
" />
</g>
<g style="fill:#000000; fill-opacity:0.0; 
stroke:#000000; stroke-width:39.3701; stroke-opacity:1; 
stroke-linecap:round; stroke-linejoin:round;">
</g>
<g style="fill:#000000; fill-opacity:0.0; 
stroke:#000000; stroke-width:59.0551; stroke-opacity:1; 
stroke-linecap:round; stroke-linejoin:round;">
<path d="M102362 4724
L102362 3937
" />
</g>
<g style="fill:#000000; fill-opacity:0.0; 
stroke:#000000; stroke-width:39.3701; stroke-opacity:1; 
stroke-linecap:round; stroke-linejoin:round;">
</g>
<g style="fill:#000000; fill-opacity:0.0; 
stroke:#000000; stroke-width:59.0551; stroke-opacity:1; 
stroke-linecap:round; stroke-linejoin:round;">
<path d="M14169 4562
L13877 4562
" />
<path d="M14023 4562
L14023 4050
L13974 4123
L13925 4172
L13877 4196
" />
</g>
<g style="fill:#000000; fill-opacity:0.0; 
stroke:#000000; stroke-width:39.3701; stroke-opacity:1; 
stroke-linecap:round; stroke-linejoin:round;">
</g>
<g style="fill:#000000; fill-opacity:0.0; 
stroke:#000000; stroke-width:59.0551; stroke-opacity:1; 
stroke-linecap:round; stroke-linejoin:round;">
<path d="M33562 4099
L33586 4074
L33635 4050
L33757 4050
L33805 4074
L33830 4099
L33854 4147
L33854 4196
L33830 4269
L33537 4562
L33854 4562
" />
</g>
<g style="fill:#000000; fill-opacity:0.0; 
stroke:#000000; stroke-width:39.3701; stroke-opacity:1; 
stroke-linecap:round; stroke-linejoin:round;">
</g>
<g style="fill:#000000; fill-opacity:0.0; 
stroke:#000000; stroke-width:59.0551; stroke-opacity:1; 
stroke-linecap:round; stroke-linejoin:round;">
<path d="M53222 4050
L53539 4050
L53368 4245
L53442 4245
L53490 4269
L53515 4294
L53539 4342
L53539 4464
L53515 4513
L53490 4537
L53442 4562
L53295 4562
L53247 4537
L53222 4513
" />
</g>
<g style="fill:#000000; fill-opacity:0.0; 
stroke:#000000; stroke-width:39.3701; stroke-opacity:1; 
stroke-linecap:round; stroke-linejoin:round;">
</g>
<g style="fill:#000000; fill-opacity:0.0; 
stroke:#000000; stroke-width:59.0551; stroke-opacity:1; 
stroke-linecap:round; stroke-linejoin:round;">
<path d="M73175 4221
L73175 4562
" />
<path d="M73053 4026
L72932 4391
L73248 4391
" />
</g>
<g style="fill:#000000; fill-opacity:0.0; 
stroke:#000000; stroke-width:39.3701; stroke-opacity:1; 
stroke-linecap:round; stroke-linejoin:round;">
</g>
<g style="fill:#000000; fill-opacity:0.0; 
stroke:#000000; stroke-width:59.0551; stroke-opacity:1; 
stroke-linecap:round; stroke-linejoin:round;">
<path d="M92885 4050
L92641 4050
L92617 4294
L92641 4269
L92690 4245
L92812 4245
L92860 4269
L92885 4294
L92909 4342
L92909 4464
L92885 4513
L92860 4537
L92812 4562
L92690 4562
L92641 4537
L92617 4513
" />
</g>
<g style="fill:#000000; fill-opacity:0.0; 
stroke:#000000; stroke-width:39.3701; stroke-opacity:1; 
stroke-linecap:round; stroke-linejoin:round;">
</g>
<g style="fill:#000000; fill-opacity:0.0; 
stroke:#000000; stroke-width:59.0551; stroke-opacity:1; 
stroke-linecap:round; stroke-linejoin:round;">
<path d="M112545 4050
L112448 4050
L112399 4074
L112375 4099
L112326 4172
L112302 4269
L112302 4464
L112326 4513
L112350 4537
L112399 4562
L112497 4562
L112545 4537
L112570 4513
L112594 4464
L112594 4342
L112570 4294
L112545 4269
L112497 4245
L112399 4245
L112350 4269
L112326 4294
L112302 4342
" />
</g>
<g style="fill:#000000; fill-opacity:0.0; 
stroke:#000000; stroke-width:39.3701; stroke-opacity:1; 
stroke-linecap:round; stroke-linejoin:round;">
</g>
<g style="fill:#000000; fill-opacity:0.0; 
stroke:#000000; stroke-width:59.0551; stroke-opacity:1; 
stroke-linecap:round; stroke-linejoin:round;">
<path d="M23622 77955
L23622 78742
" />
</g>
<g style="fill:#000000; fill-opacity:0.0; 
stroke:#000000; stroke-width:39.3701; stroke-opacity:1; 
stroke-linecap:round; stroke-linejoin:round;">
</g>
<g style="fill:#000000; fill-opacity:0.0; 
stroke:#000000; stroke-width:59.0551; stroke-opacity:1; 
stroke-linecap:round; stroke-linejoin:round;">
<path d="M43307 77955
L43307 78742
" />
</g>
<g style="fill:#000000; fill-opacity:0.0; 
stroke:#000000; stroke-width:39.3701; stroke-opacity:1; 
stroke-linecap:round; stroke-linejoin:round;">
</g>
<g style="fill:#000000; fill-opacity:0.0; 
stroke:#000000; stroke-width:59.0551; stroke-opacity:1; 
stroke-linecap:round; stroke-linejoin:round;">
<path d="M62992 77955
L62992 78742
" />
</g>
<g style="fill:#000000; fill-opacity:0.0; 
stroke:#000000; stroke-width:39.3701; stroke-opacity:1; 
stroke-linecap:round; stroke-linejoin:round;">
</g>
<g style="fill:#000000; fill-opacity:0.0; 
stroke:#000000; stroke-width:59.0551; stroke-opacity:1; 
stroke-linecap:round; stroke-linejoin:round;">
<path d="M82677 77955
L82677 78742
" />
</g>
<g style="fill:#000000; fill-opacity:0.0; 
stroke:#000000; stroke-width:39.3701; stroke-opacity:1; 
stroke-linecap:round; stroke-linejoin:round;">
</g>
<g style="fill:#000000; fill-opacity:0.0; 
stroke:#000000; stroke-width:59.0551; stroke-opacity:1; 
stroke-linecap:round; stroke-linejoin:round;">
<path d="M102362 77955
L102362 78742
" />
</g>
<g style="fill:#000000; fill-opacity:0.0; 
stroke:#000000; stroke-width:39.3701; stroke-opacity:1; 
stroke-linecap:round; stroke-linejoin:round;">
</g>
<g style="fill:#000000; fill-opacity:0.0; 
stroke:#000000; stroke-width:59.0551; stroke-opacity:1; 
stroke-linecap:round; stroke-linejoin:round;">
<path d="M14169 78580
L13877 78580
" />
<path d="M14023 78580
L14023 78069
L13974 78142
L13925 78190
L13877 78215
" />
</g>
<g style="fill:#000000; fill-opacity:0.0; 
stroke:#000000; stroke-width:39.3701; stroke-opacity:1; 
stroke-linecap:round; stroke-linejoin:round;">
</g>
<g style="fill:#000000; fill-opacity:0.0; 
stroke:#000000; stroke-width:59.0551; stroke-opacity:1; 
stroke-linecap:round; stroke-linejoin:round;">
<path d="M33562 78117
L33586 78093
L33635 78069
L33757 78069
L33805 78093
L33830 78117
L33854 78166
L33854 78215
L33830 78288
L33537 78580
L33854 78580
" />
</g>
<g style="fill:#000000; fill-opacity:0.0; 
stroke:#000000; stroke-width:39.3701; stroke-opacity:1; 
stroke-linecap:round; stroke-linejoin:round;">
</g>
<g style="fill:#000000; fill-opacity:0.0; 
stroke:#000000; stroke-width:59.0551; stroke-opacity:1; 
stroke-linecap:round; stroke-linejoin:round;">
<path d="M53222 78069
L53539 78069
L53368 78263
L53442 78263
L53490 78288
L53515 78312
L53539 78361
L53539 78483
L53515 78532
L53490 78556
L53442 78580
L53295 78580
L53247 78556
L53222 78532
" />
</g>
<g style="fill:#000000; fill-opacity:0.0; 
stroke:#000000; stroke-width:39.3701; stroke-opacity:1; 
stroke-linecap:round; stroke-linejoin:round;">
</g>
<g style="fill:#000000; fill-opacity:0.0; 
stroke:#000000; stroke-width:59.0551; stroke-opacity:1; 
stroke-linecap:round; stroke-linejoin:round;">
<path d="M73175 78239
L73175 78580
" />
<path d="M73053 78044
L72932 78410
L73248 78410
" />
</g>
<g style="fill:#000000; fill-opacity:0.0; 
stroke:#000000; stroke-width:39.3701; stroke-opacity:1; 
stroke-linecap:round; stroke-linejoin:round;">
</g>
<g style="fill:#000000; fill-opacity:0.0; 
stroke:#000000; stroke-width:59.0551; stroke-opacity:1; 
stroke-linecap:round; stroke-linejoin:round;">
<path d="M92885 78069
L92641 78069
L92617 78312
L92641 78288
L92690 78263
L92812 78263
L92860 78288
L92885 78312
L92909 78361
L92909 78483
L92885 78532
L92860 78556
L92812 78580
L92690 78580
L92641 78556
L92617 78532
" />
</g>
<g style="fill:#000000; fill-opacity:0.0; 
stroke:#000000; stroke-width:39.3701; stroke-opacity:1; 
stroke-linecap:round; stroke-linejoin:round;">
</g>
<g style="fill:#000000; fill-opacity:0.0; 
stroke:#000000; stroke-width:59.0551; stroke-opacity:1; 
stroke-linecap:round; stroke-linejoin:round;">
<path d="M112545 78069
L112448 78069
L112399 78093
L112375 78117
L112326 78190
L112302 78288
L112302 78483
L112326 78532
L112350 78556
L112399 78580
L112497 78580
L112545 78556
L112570 78532
L112594 78483
L112594 78361
L112570 78312
L112545 78288
L112497 78263
L112399 78263
L112350 78288
L112326 78312
L112302 78361
" />
</g>
<g style="fill:#000000; fill-opacity:0.0; 
stroke:#000000; stroke-width:39.3701; stroke-opacity:1; 
stroke-linecap:round; stroke-linejoin:round;">
</g>
<g style="fill:#000000; fill-opacity:0.0; 
stroke:#000000; stroke-width:59.0551; stroke-opacity:1; 
stroke-linecap:round; stroke-linejoin:round;">
<path d="M3937 23622
L4724 23622
" />
</g>
<g style="fill:#000000; fill-opacity:0.0; 
stroke:#000000; stroke-width:39.3701; stroke-opacity:1; 
stroke-linecap:round; stroke-linejoin:round;">
</g>
<g style="fill:#000000; fill-opacity:0.0; 
stroke:#000000; stroke-width:59.0551; stroke-opacity:1; 
stroke-linecap:round; stroke-linejoin:round;">
<path d="M3937 43307
L4724 43307
" />
</g>
<g style="fill:#000000; fill-opacity:0.0; 
stroke:#000000; stroke-width:39.3701; stroke-opacity:1; 
stroke-linecap:round; stroke-linejoin:round;">
</g>
<g style="fill:#000000; fill-opacity:0.0; 
stroke:#000000; stroke-width:59.0551; stroke-opacity:1; 
stroke-linecap:round; stroke-linejoin:round;">
<path d="M3937 62992
L4724 62992
" />
</g>
<g style="fill:#000000; fill-opacity:0.0; 
stroke:#000000; stroke-width:39.3701; stroke-opacity:1; 
stroke-linecap:round; stroke-linejoin:round;">
</g>
<g style="fill:#000000; fill-opacity:0.0; 
stroke:#000000; stroke-width:59.0551; stroke-opacity:1; 
stroke-linecap:round; stroke-linejoin:round;">
<path d="M4208 13864
L4452 13864
" />
<path d="M4160 14011
L4330 13499
L4501 14011
" />
</g>
<g style="fill:#000000; fill-opacity:0.0; 
stroke:#000000; stroke-width:39.3701; stroke-opacity:1; 
stroke-linecap:round; stroke-linejoin:round;">
</g>
<g style="fill:#000000; fill-opacity:0.0; 
stroke:#000000; stroke-width:59.0551; stroke-opacity:1; 
stroke-linecap:round; stroke-linejoin:round;">
<path d="M4367 33428
L4440 33452
L4464 33476
L4489 33525
L4489 33598
L4464 33647
L4440 33671
L4391 33696
L4196 33696
L4196 33184
L4367 33184
L4416 33208
L4440 33233
L4464 33281
L4464 33330
L4440 33379
L4416 33403
L4367 33428
L4196 33428
" />
</g>
<g style="fill:#000000; fill-opacity:0.0; 
stroke:#000000; stroke-width:39.3701; stroke-opacity:1; 
stroke-linecap:round; stroke-linejoin:round;">
</g>
<g style="fill:#000000; fill-opacity:0.0; 
stroke:#000000; stroke-width:59.0551; stroke-opacity:1; 
stroke-linecap:round; stroke-linejoin:round;">
<path d="M4489 53332
L4464 53356
L4391 53381
L4342 53381
L4269 53356
L4221 53308
L4196 53259
L4172 53161
L4172 53088
L4196 52991
L4221 52942
L4269 52893
L4342 52869
L4391 52869
L4464 52893
L4489 52918
" />
</g>
<g style="fill:#000000; fill-opacity:0.0; 
stroke:#000000; stroke-width:39.3701; stroke-opacity:1; 
stroke-linecap:round; stroke-linejoin:round;">
</g>
<g style="fill:#000000; fill-opacity:0.0; 
stroke:#000000; stroke-width:59.0551; stroke-opacity:1; 
stroke-linecap:round; stroke-linejoin:round;">
<path d="M4196 73066
L4196 72554
L4318 72554
L4391 72578
L4440 72627
L4464 72676
L4489 72773
L4489 72846
L4464 72944
L4440 72993
L4391 73041
L4318 73066
L4196 73066
" />
</g>
<g style="fill:#000000; fill-opacity:0.0; 
stroke:#000000; stroke-width:39.3701; stroke-opacity:1; 
stroke-linecap:round; stroke-linejoin:round;">
</g>
<g style="fill:#000000; fill-opacity:0.0; 
stroke:#000000; stroke-width:59.0551; stroke-opacity:1; 
stroke-linecap:round; stroke-linejoin:round;">
<path d="M112992 23622
L112205 23622
" />
</g>
<g style="fill:#000000; fill-opacity:0.0; 
stroke:#000000; stroke-width:39.3701; stroke-opacity:1; 
stroke-linecap:round; stroke-linejoin:round;">
</g>
<g style="fill:#000000; fill-opacity:0.0; 
stroke:#000000; stroke-width:59.0551; stroke-opacity:1; 
stroke-linecap:round; stroke-linejoin:round;">
<path d="M112992 43307
L112205 43307
" />
</g>
<g style="fill:#000000; fill-opacity:0.0; 
stroke:#000000; stroke-width:39.3701; stroke-opacity:1; 
stroke-linecap:round; stroke-linejoin:round;">
</g>
<g style="fill:#000000; fill-opacity:0.0; 
stroke:#000000; stroke-width:59.0551; stroke-opacity:1; 
stroke-linecap:round; stroke-linejoin:round;">
<path d="M112992 62992
L112205 62992
" />
</g>
<g style="fill:#000000; fill-opacity:0.0; 
stroke:#000000; stroke-width:39.3701; stroke-opacity:1; 
stroke-linecap:round; stroke-linejoin:round;">
</g>
<g style="fill:#000000; fill-opacity:0.0; 
stroke:#000000; stroke-width:59.0551; stroke-opacity:1; 
stroke-linecap:round; stroke-linejoin:round;">
<path d="M112477 13864
L112721 13864
" />
<path d="M112428 14011
L112599 13499
L112769 14011
" />
</g>
<g style="fill:#000000; fill-opacity:0.0; 
stroke:#000000; stroke-width:39.3701; stroke-opacity:1; 
stroke-linecap:round; stroke-linejoin:round;">
</g>
<g style="fill:#000000; fill-opacity:0.0; 
stroke:#000000; stroke-width:59.0551; stroke-opacity:1; 
stroke-linecap:round; stroke-linejoin:round;">
<path d="M112635 33428
L112708 33452
L112733 33476
L112757 33525
L112757 33598
L112733 33647
L112708 33671
L112660 33696
L112465 33696
L112465 33184
L112635 33184
L112684 33208
L112708 33233
L112733 33281
L112733 33330
L112708 33379
L112684 33403
L112635 33428
L112465 33428
" />
</g>
<g style="fill:#000000; fill-opacity:0.0; 
stroke:#000000; stroke-width:39.3701; stroke-opacity:1; 
stroke-linecap:round; stroke-linejoin:round;">
</g>
<g style="fill:#000000; fill-opacity:0.0; 
stroke:#000000; stroke-width:59.0551; stroke-opacity:1; 
stroke-linecap:round; stroke-linejoin:round;">
<path d="M112757 53332
L112733 53356
L112660 53381
L112611 53381
L112538 53356
L112489 53308
L112465 53259
L112440 53161
L112440 53088
L112465 52991
L112489 52942
L112538 52893
L112611 52869
L112660 52869
L112733 52893
L112757 52918
" />
</g>
<g style="fill:#000000; fill-opacity:0.0; 
stroke:#000000; stroke-width:39.3701; stroke-opacity:1; 
stroke-linecap:round; stroke-linejoin:round;">
</g>
<g style="fill:#000000; fill-opacity:0.0; 
stroke:#000000; stroke-width:59.0551; stroke-opacity:1; 
stroke-linecap:round; stroke-linejoin:round;">
<path d="M112465 73066
L112465 72554
L112587 72554
L112660 72578
L112708 72627
L112733 72676
L112757 72773
L112757 72846
L112733 72944
L112708 72993
L112660 73041
L112587 73066
L112465 73066
" />
</g>
<g style="fill:#000000; fill-opacity:0.0; 
stroke:#000000; stroke-width:39.3701; stroke-opacity:1; 
stroke-linecap:round; stroke-linejoin:round;">
</g>
<g style="fill:#000000; fill-opacity:0.0; 
stroke:#000000; stroke-width:59.0551; stroke-opacity:1; 
stroke-linecap:round; stroke-linejoin:round;">
<path d="M78881 76293
L78881 75703
L79022 75703
L79106 75731
L79162 75787
L79190 75843
L79219 75956
L79219 76040
L79190 76153
L79162 76209
L79106 76265
L79022 76293
L78881 76293
" />
<path d="M79725 76293
L79725 75984
L79697 75928
L79640 75899
L79528 75899
L79472 75928
" />
<path d="M79725 76265
L79669 76293
L79528 76293
L79472 76265
L79444 76209
L79444 76153
L79472 76096
L79528 76068
L79669 76068
L79725 76040
" />
<path d="M79922 75899
L80147 75899
" />
<path d="M80006 75703
L80006 76209
L80034 76265
L80090 76293
L80147 76293
" />
<path d="M80568 76265
L80512 76293
L80400 76293
L80343 76265
L80315 76209
L80315 75984
L80343 75928
L80400 75899
L80512 75899
L80568 75928
L80597 75984
L80597 76040
L80315 76096
" />
<path d="M80850 76237
L80878 76265
L80850 76293
L80822 76265
L80850 76237
L80850 76293
" />
<path d="M80850 75928
L80878 75956
L80850 75984
L80822 75956
L80850 75928
L80850 75984
" />
</g>
<g style="fill:#000000; fill-opacity:0.0; 
stroke:#000000; stroke-width:39.3701; stroke-opacity:1; 
stroke-linecap:round; stroke-linejoin:round;">
</g>
<g style="fill:#000000; fill-opacity:0.0; 
stroke:#000000; stroke-width:59.0551; stroke-opacity:1; 
stroke-linecap:round; stroke-linejoin:round;">
<path d="M69685 76577
L112205 76577
" />
</g>
<g style="fill:#000000; fill-opacity:0.0; 
stroke:#000000; stroke-width:39.3701; stroke-opacity:1; 
stroke-linecap:round; stroke-linejoin:round;">
</g>
<g style="fill:#000000; fill-opacity:0.0; 
stroke:#000000; stroke-width:59.0551; stroke-opacity:1; 
stroke-linecap:round; stroke-linejoin:round;">
<path d="M70220 77395
L70220 76805
" />
<path d="M70557 77395
L70304 77058
" />
<path d="M70557 76805
L70220 77142
" />
<path d="M70810 77395
L70810 77002
" />
<path d="M70810 76805
L70782 76833
L70810 76861
L70838 76833
L70810 76805
L70810 76861
" />
<path d="M71429 77339
L71401 77367
L71316 77395
L71260 77395
L71176 77367
L71120 77311
L71091 77255
L71063 77142
L71063 77058
L71091 76946
L71120 76889
L71176 76833
L71260 76805
L71316 76805
L71401 76833
L71429 76861
" />
<path d="M71935 77395
L71935 77086
L71907 77030
L71851 77002
L71738 77002
L71682 77030
" />
<path d="M71935 77367
L71879 77395
L71738 77395
L71682 77367
L71654 77311
L71654 77255
L71682 77199
L71738 77171
L71879 77171
L71935 77142
" />
<path d="M72469 77395
L72469 76805
" />
<path d="M72469 77367
L72413 77395
L72301 77395
L72244 77367
L72216 77339
L72188 77283
L72188 77114
L72216 77058
L72244 77030
L72301 77002
L72413 77002
L72469 77030
" />
<path d="M73201 77086
L73397 77086
" />
<path d="M73482 77395
L73201 77395
L73201 76805
L73482 76805
" />
<path d="M73735 77339
L73763 77367
L73735 77395
L73707 77367
L73735 77339
L73735 77395
" />
<path d="M74016 77395
L74016 76805
L74157 76805
L74241 76833
L74297 76889
L74325 76946
L74354 77058
L74354 77142
L74325 77255
L74297 77311
L74241 77367
L74157 77395
L74016 77395
" />
<path d="M74607 77339
L74635 77367
L74607 77395
L74579 77367
L74607 77339
L74607 77395
" />
<path d="M74860 77227
L75141 77227
" />
<path d="M74804 77395
L75000 76805
L75197 77395
" />
<path d="M75394 77339
L75422 77367
L75394 77395
L75366 77367
L75394 77339
L75394 77395
" />
<path d="M76575 77395
L76575 76805
" />
<path d="M76631 77171
L76800 77395
" />
<path d="M76800 77002
L76575 77227
" />
<path d="M77053 77395
L77053 77002
" />
<path d="M77053 76805
L77025 76833
L77053 76861
L77081 76833
L77053 76805
L77053 76861
" />
<path d="M77588 77367
L77531 77395
L77419 77395
L77363 77367
L77334 77339
L77306 77283
L77306 77114
L77334 77058
L77363 77030
L77419 77002
L77531 77002
L77588 77030
" />
<path d="M78094 77395
L78094 77086
L78066 77030
L78009 77002
L77897 77002
L77841 77030
" />
<path d="M78094 77367
L78037 77395
L77897 77395
L77841 77367
L77813 77311
L77813 77255
L77841 77199
L77897 77171
L78037 77171
L78094 77142
" />
<path d="M78628 77395
L78628 76805
" />
<path d="M78628 77367
L78572 77395
L78459 77395
L78403 77367
L78375 77339
L78347 77283
L78347 77114
L78375 77058
L78403 77030
L78459 77002
L78572 77002
L78628 77030
" />
<path d="M79612 77002
L79612 77395
" />
<path d="M79472 76777
L79331 77199
L79697 77199
" />
<path d="M79922 77339
L79950 77367
L79922 77395
L79894 77367
L79922 77339
L79922 77395
" />
<path d="M80315 76805
L80372 76805
L80428 76833
L80456 76861
L80484 76917
L80512 77030
L80512 77171
L80484 77283
L80456 77339
L80428 77367
L80372 77395
L80315 77395
L80259 77367
L80231 77339
L80203 77283
L80175 77171
L80175 77030
L80203 76917
L80231 76861
L80259 76833
L80315 76805
" />
<path d="M80765 77339
L80793 77367
L80765 77395
L80737 77367
L80765 77339
L80765 77395
" />
<path d="M81300 76805
L81187 76805
L81131 76833
L81103 76861
L81046 76946
L81018 77058
L81018 77283
L81046 77339
L81075 77367
L81131 77395
L81243 77395
L81300 77367
L81328 77339
L81356 77283
L81356 77142
L81328 77086
L81300 77058
L81243 77030
L81131 77030
L81075 77058
L81046 77086
L81018 77142
" />
<path d="M81609 77171
L82059 77171
" />
<path d="M81834 77395
L81834 76946
" />
<path d="M82593 77395
L82593 76805
" />
<path d="M82593 77367
L82537 77395
L82424 77395
L82368 77367
L82340 77339
L82312 77283
L82312 77114
L82340 77058
L82368 77030
L82424 77002
L82537 77002
L82593 77030
" />
<path d="M82790 77002
L83015 77002
" />
<path d="M82874 77395
L82874 76889
L82903 76833
L82959 76805
L83015 76805
" />
<path d="M83184 77367
L83240 77395
L83352 77395
L83409 77367
L83437 77311
L83437 77283
L83409 77227
L83352 77199
L83268 77199
L83212 77171
L83184 77114
L83184 77086
L83212 77030
L83268 77002
L83352 77002
L83409 77030
" />
<path d="M83943 77002
L83943 77480
L83915 77536
L83887 77564
L83831 77592
L83746 77592
L83690 77564
" />
<path d="M83943 77367
L83887 77395
L83774 77395
L83718 77367
L83690 77339
L83662 77283
L83662 77114
L83690 77058
L83718 77030
L83774 77002
L83887 77002
L83943 77030
" />
<path d="M84534 77395
L84196 77395
" />
<path d="M84365 77395
L84365 76805
L84309 76889
L84252 76946
L84196 76974
" />
<path d="M84787 77171
L85237 77171
" />
<path d="M85827 77395
L85490 77395
" />
<path d="M85658 77395
L85658 76805
L85602 76889
L85546 76946
L85490 76974
" />
</g>
<g style="fill:#000000; fill-opacity:0.0; 
stroke:#000000; stroke-width:39.3701; stroke-opacity:1; 
stroke-linecap:round; stroke-linejoin:round;">
</g>
<g style="fill:#000000; fill-opacity:0.0; 
stroke:#000000; stroke-width:59.0551; stroke-opacity:1; 
stroke-linecap:round; stroke-linejoin:round;">
<path d="M69685 75396
L112205 75396
" />
</g>
<g style="fill:#000000; fill-opacity:0.0; 
stroke:#000000; stroke-width:39.3701; stroke-opacity:1; 
stroke-linecap:round; stroke-linejoin:round;">
</g>
<g style="fill:#000000; fill-opacity:0.0; 
stroke:#000000; stroke-width:118.11; stroke-opacity:1; 
stroke-linecap:round; stroke-linejoin:round;">
<path d="M104022 76293
L103825 76012
" />
<path d="M103684 76293
L103684 75703
L103909 75703
L103965 75731
L103994 75759
L104022 75815
L104022 75899
L103994 75956
L103965 75984
L103909 76012
L103684 76012
" />
<path d="M104500 76265
L104444 76293
L104331 76293
L104275 76265
L104247 76209
L104247 75984
L104275 75928
L104331 75899
L104444 75899
L104500 75928
L104528 75984
L104528 76040
L104247 76096
" />
<path d="M104725 75899
L104865 76293
L105006 75899
" />
<path d="M105231 76237
L105259 76265
L105231 76293
L105203 76265
L105231 76237
L105231 76293
" />
<path d="M105231 75928
L105259 75956
L105231 75984
L105203 75956
L105231 75928
L105231 75984
" />
</g>
<g style="fill:#000000; fill-opacity:0.0; 
stroke:#000000; stroke-width:39.3701; stroke-opacity:1; 
stroke-linecap:round; stroke-linejoin:round;">
</g>
<g style="fill:#000000; fill-opacity:0.0; 
stroke:#000000; stroke-width:59.0551; stroke-opacity:1; 
stroke-linecap:round; stroke-linejoin:round;">
<path d="M70192 76265
L70276 76293
L70417 76293
L70473 76265
L70501 76237
L70529 76181
L70529 76124
L70501 76068
L70473 76040
L70417 76012
L70304 75984
L70248 75956
L70220 75928
L70192 75871
L70192 75815
L70220 75759
L70248 75731
L70304 75703
L70445 75703
L70529 75731
" />
<path d="M70782 76293
L70782 75899
" />
<path d="M70782 75703
L70754 75731
L70782 75759
L70810 75731
L70782 75703
L70782 75759
" />
<path d="M71007 75899
L71316 75899
L71007 76293
L71316 76293
" />
<path d="M71766 76265
L71710 76293
L71598 76293
L71541 76265
L71513 76209
L71513 75984
L71541 75928
L71598 75899
L71710 75899
L71766 75928
L71795 75984
L71795 76040
L71513 76096
" />
<path d="M72048 76237
L72076 76265
L72048 76293
L72019 76265
L72048 76237
L72048 76293
" />
<path d="M72048 75928
L72076 75956
L72048 75984
L72019 75956
L72048 75928
L72048 75984
" />
<path d="M72751 76124
L73032 76124
" />
<path d="M72694 76293
L72891 75703
L73088 76293
" />
<path d="M73538 75899
L73538 76293
" />
<path d="M73397 75674
L73257 76096
L73622 76096
" />
</g>
<g style="fill:#000000; fill-opacity:0.0; 
stroke:#000000; stroke-width:39.3701; stroke-opacity:1; 
stroke-linecap:round; stroke-linejoin:round;">
</g>
<g style="fill:#000000; fill-opacity:0.0; 
stroke:#000000; stroke-width:59.0551; stroke-opacity:1; 
stroke-linecap:round; stroke-linejoin:round;">
<path d="M103684 77395
L103684 76805
" />
<path d="M104219 77395
L104219 76805
" />
<path d="M104219 77367
L104162 77395
L104050 77395
L103994 77367
L103965 77339
L103937 77283
L103937 77114
L103965 77058
L103994 77030
L104050 77002
L104162 77002
L104219 77030
" />
<path d="M104500 77339
L104528 77367
L104500 77395
L104472 77367
L104500 77339
L104500 77395
" />
<path d="M104500 77030
L104528 77058
L104500 77086
L104472 77058
L104500 77030
L104500 77086
" />
<path d="M105540 77395
L105203 77395
" />
<path d="M105372 77395
L105372 76805
L105315 76889
L105259 76946
L105203 76974
" />
<path d="M106215 76777
L105709 77536
" />
<path d="M106721 77395
L106384 77395
" />
<path d="M106553 77395
L106553 76805
L106496 76889
L106440 76946
L106384 76974
" />
</g>
<g style="fill:#000000; fill-opacity:0.0; 
stroke:#000000; stroke-width:39.3701; stroke-opacity:1; 
stroke-linecap:round; stroke-linejoin:round;">
</g>
<g style="fill:#000000; fill-opacity:0.0; 
stroke:#000000; stroke-width:59.0551; stroke-opacity:1; 
stroke-linecap:round; stroke-linejoin:round;">
<path d="M69685 73821
L112205 73821
" />
</g>
<g style="fill:#000000; fill-opacity:0.0; 
stroke:#000000; stroke-width:39.3701; stroke-opacity:1; 
stroke-linecap:round; stroke-linejoin:round;">
</g>
<g style="fill:#000000; fill-opacity:0.0; 
stroke:#000000; stroke-width:157.48; stroke-opacity:1; 
stroke-linecap:round; stroke-linejoin:round;">
<path d="M70257 74099
L70707 74099
" />
<path d="M70384 74886
L70482 74099
" />
<path d="M70871 74886
L70937 74361
" />
<path d="M70970 74099
L70927 74136
L70960 74174
L71002 74136
L70970 74099
L70960 74174
" />
<path d="M71199 74361
L71499 74361
" />
<path d="M71345 74099
L71260 74774
L71288 74849
L71359 74886
L71434 74886
" />
<path d="M71809 74886
L71738 74849
L71710 74774
L71795 74099
" />
<path d="M72413 74849
L72334 74886
L72184 74886
L72113 74849
L72085 74774
L72123 74474
L72169 74399
L72249 74361
L72399 74361
L72469 74399
L72498 74474
L72488 74549
L72104 74624
" />
<path d="M72793 74811
L72826 74849
L72783 74886
L72751 74849
L72793 74811
L72783 74886
" />
<path d="M72844 74399
L72877 74436
L72835 74474
L72802 74436
L72844 74399
L72835 74474
" />
</g>
<g style="fill:#000000; fill-opacity:0.0; 
stroke:#000000; stroke-width:39.3701; stroke-opacity:1; 
stroke-linecap:round; stroke-linejoin:round;">
</g>
<g style="fill:#000000; fill-opacity:0.0; 
stroke:#000000; stroke-width:59.0551; stroke-opacity:1; 
stroke-linecap:round; stroke-linejoin:round;">
<path d="M70417 73070
L70220 73070
" />
<path d="M70220 73380
L70220 72789
L70501 72789
" />
<path d="M70726 73380
L70726 72986
" />
<path d="M70726 72789
L70698 72817
L70726 72845
L70754 72817
L70726 72789
L70726 72845
" />
<path d="M71091 73380
L71035 73352
L71007 73295
L71007 72789
" />
<path d="M71541 73352
L71485 73380
L71373 73380
L71316 73352
L71288 73295
L71288 73070
L71316 73014
L71373 72986
L71485 72986
L71541 73014
L71570 73070
L71570 73127
L71288 73183
" />
<path d="M71823 73323
L71851 73352
L71823 73380
L71795 73352
L71823 73323
L71823 73380
" />
<path d="M71823 73014
L71851 73042
L71823 73070
L71795 73042
L71823 73014
L71823 73070
" />
<path d="M72554 73380
L72554 72789
L72891 73380
L72891 72789
" />
<path d="M73285 72789
L73397 72789
L73454 72817
L73510 72874
L73538 72986
L73538 73183
L73510 73295
L73454 73352
L73397 73380
L73285 73380
L73229 73352
L73172 73295
L73144 73183
L73144 72986
L73172 72874
L73229 72817
L73285 72789
" />
<path d="M73791 73380
L73791 72789
" />
<path d="M74129 73380
L73876 73042
" />
<path d="M74129 72789
L73791 73127
" />
<path d="M74494 72789
L74607 72789
L74663 72817
L74719 72874
L74747 72986
L74747 73183
L74719 73295
L74663 73352
L74607 73380
L74494 73380
L74438 73352
L74382 73295
L74354 73183
L74354 72986
L74382 72874
L74438 72817
L74494 72789
" />
<path d="M74860 73436
L75310 73436
" />
<path d="M75422 72845
L75450 72817
L75507 72789
L75647 72789
L75703 72817
L75732 72845
L75760 72902
L75760 72958
L75732 73042
L75394 73380
L75760 73380
" />
<path d="M76013 73323
L76041 73352
L76013 73380
L75985 73352
L76013 73323
L76013 73380
" />
<path d="M76294 73380
L76294 72789
" />
<path d="M76350 73155
L76519 73380
" />
<path d="M76519 72986
L76294 73211
" />
<path d="M76772 73380
L76772 72986
" />
<path d="M76772 72789
L76744 72817
L76772 72845
L76800 72817
L76772 72789
L76772 72845
" />
<path d="M77306 73352
L77250 73380
L77138 73380
L77081 73352
L77053 73323
L77025 73267
L77025 73099
L77053 73042
L77081 73014
L77138 72986
L77250 72986
L77306 73014
" />
<path d="M77813 73380
L77813 73070
L77784 73014
L77728 72986
L77616 72986
L77559 73014
" />
<path d="M77813 73352
L77756 73380
L77616 73380
L77559 73352
L77531 73295
L77531 73239
L77559 73183
L77616 73155
L77756 73155
L77813 73127
" />
<path d="M78347 73380
L78347 72789
" />
<path d="M78347 73352
L78291 73380
L78178 73380
L78122 73352
L78094 73323
L78066 73267
L78066 73099
L78094 73042
L78122 73014
L78178 72986
L78291 72986
L78347 73014
" />
<path d="M78487 73436
L78937 73436
" />
<path d="M79078 72986
L79078 73577
" />
<path d="M79078 73014
L79134 72986
L79247 72986
L79303 73014
L79331 73042
L79359 73099
L79359 73267
L79331 73323
L79303 73352
L79247 73380
L79134 73380
L79078 73352
" />
<path d="M79865 73352
L79809 73380
L79697 73380
L79640 73352
L79612 73323
L79584 73267
L79584 73099
L79612 73042
L79640 73014
L79697 72986
L79809 72986
L79865 73014
" />
<path d="M80118 73380
L80118 72789
" />
<path d="M80118 73014
L80175 72986
L80287 72986
L80343 73014
L80372 73042
L80400 73099
L80400 73267
L80372 73323
L80343 73352
L80287 73380
L80175 73380
L80118 73352
" />
</g>
<g style="fill:#000000; fill-opacity:0.0; 
stroke:#000000; stroke-width:39.3701; stroke-opacity:1; 
stroke-linecap:round; stroke-linejoin:round;">
</g>
<g style="fill:#000000; fill-opacity:0.0; 
stroke:#000000; stroke-width:59.0551; stroke-opacity:1; 
stroke-linecap:round; stroke-linejoin:round;">
<path d="M69685 71459
L112205 71459
" />
</g>
<g style="fill:#000000; fill-opacity:0.0; 
stroke:#000000; stroke-width:39.3701; stroke-opacity:1; 
stroke-linecap:round; stroke-linejoin:round;">
</g>
<g style="fill:#000000; fill-opacity:0.0; 
stroke:#000000; stroke-width:59.0551; stroke-opacity:1; 
stroke-linecap:round; stroke-linejoin:round;">
<path d="M70192 72289
L70276 72317
L70417 72317
L70473 72289
L70501 72260
L70529 72204
L70529 72148
L70501 72092
L70473 72064
L70417 72036
L70304 72007
L70248 71979
L70220 71951
L70192 71895
L70192 71839
L70220 71782
L70248 71754
L70304 71726
L70445 71726
L70529 71754
" />
<path d="M70782 72317
L70782 71726
" />
<path d="M71035 72317
L71035 72007
L71007 71951
L70951 71923
L70867 71923
L70810 71951
L70782 71979
" />
<path d="M71541 72289
L71485 72317
L71373 72317
L71316 72289
L71288 72232
L71288 72007
L71316 71951
L71373 71923
L71485 71923
L71541 71951
L71570 72007
L71570 72064
L71288 72120
" />
<path d="M72048 72289
L71991 72317
L71879 72317
L71823 72289
L71795 72232
L71795 72007
L71823 71951
L71879 71923
L71991 71923
L72048 71951
L72076 72007
L72076 72064
L71795 72120
" />
<path d="M72244 71923
L72469 71923
" />
<path d="M72329 71726
L72329 72232
L72357 72289
L72413 72317
L72469 72317
" />
<path d="M72666 72260
L72694 72289
L72666 72317
L72638 72289
L72666 72260
L72666 72317
" />
<path d="M72666 71951
L72694 71979
L72666 72007
L72638 71979
L72666 71951
L72666 72007
" />
</g>
<g style="fill:#000000; fill-opacity:0.0; 
stroke:#000000; stroke-width:39.3701; stroke-opacity:1; 
stroke-linecap:round; stroke-linejoin:round;">
</g>
<g style="fill:#000000; fill-opacity:0.0; 
stroke:#000000; stroke-width:59.0551; stroke-opacity:1; 
stroke-linecap:round; stroke-linejoin:round;">
<path d="M77559 75396
L77559 76577
" />
</g>
<g style="fill:#000000; fill-opacity:0.0; 
stroke:#000000; stroke-width:39.3701; stroke-opacity:1; 
stroke-linecap:round; stroke-linejoin:round;">
</g>
<g style="fill:#000000; fill-opacity:0.0; 
stroke:#000000; stroke-width:59.0551; stroke-opacity:1; 
stroke-linecap:round; stroke-linejoin:round;">
<path d="M102756 75396
L102756 77955
" />
</g>
<g style="fill:#C2C2C2; fill-opacity:0.0; 
stroke:#C2C2C2; stroke-width:59.0551; stroke-opacity:1; 
stroke-linecap:round; stroke-linejoin:round;">
</g>
<g style="fill:#C2C2C2; fill-opacity:0.0; 
stroke:#C2C2C2; stroke-width:118.11; stroke-opacity:1; 
stroke-linecap:round; stroke-linejoin:round;">
<path d="M48121 14145
L47784 14145
" />
<path d="M47952 14145
L47952 13554
L47896 13638
L47840 13695
L47784 13723
" />
<path d="M48627 13751
L48627 14145
" />
<path d="M48487 13526
L48346 13948
L48712 13948
" />
<path d="M49049 13554
L49105 13554
L49161 13582
L49190 13610
L49218 13667
L49246 13779
L49246 13920
L49218 14032
L49190 14088
L49161 14116
L49105 14145
L49049 14145
L48993 14116
L48965 14088
L48937 14032
L48908 13920
L48908 13779
L48937 13667
L48965 13610
L48993 13582
L49049 13554
" />
<path d="M49527 14116
L49527 14145
L49499 14201
L49471 14229
" />
<path d="M49893 13554
L49949 13554
L50005 13582
L50033 13610
L50061 13667
L50089 13779
L50089 13920
L50061 14032
L50033 14088
L50005 14116
L49949 14145
L49893 14145
L49836 14116
L49808 14088
L49780 14032
L49752 13920
L49752 13779
L49780 13667
L49808 13610
L49836 13582
L49893 13554
" />
<path d="M50455 13554
L50511 13554
L50568 13582
L50596 13610
L50624 13667
L50652 13779
L50652 13920
L50624 14032
L50596 14088
L50568 14116
L50511 14145
L50455 14145
L50399 14116
L50371 14088
L50343 14032
L50314 13920
L50314 13779
L50343 13667
L50371 13610
L50399 13582
L50455 13554
" />
<path d="M51017 13554
L51074 13554
L51130 13582
L51158 13610
L51186 13667
L51214 13779
L51214 13920
L51186 14032
L51158 14088
L51130 14116
L51074 14145
L51017 14145
L50961 14116
L50933 14088
L50905 14032
L50877 13920
L50877 13779
L50905 13667
L50933 13610
L50961 13582
L51017 13554
" />
<path d="M51917 14145
L51917 13751
" />
<path d="M51917 13807
L51946 13779
L52002 13751
L52086 13751
L52142 13779
L52170 13835
L52170 14145
" />
<path d="M52170 13835
L52199 13779
L52255 13751
L52339 13751
L52395 13779
L52424 13835
L52424 14145
" />
<path d="M52705 14145
L52705 13751
" />
<path d="M52705 13807
L52733 13779
L52789 13751
L52874 13751
L52930 13779
L52958 13835
L52958 14145
" />
<path d="M52958 13835
L52986 13779
L53042 13751
L53127 13751
L53183 13779
L53211 13835
L53211 14145
" />
<path d="M22952 14409
L78070 14409
" />
<path d="M22952 28385
L22952 13346
" />
<path d="M78070 28385
L78070 13346
" />
<path d="M78070 14409
L77627 14640
" />
<path d="M78070 14409
L77627 14178
" />
<path d="M22952 14409
L23396 14640
" />
<path d="M22952 14409
L23396 14178
" />
<path d="M26017 26445
L26046 26417
L26102 26389
L26242 26389
L26299 26417
L26327 26445
L26355 26501
L26355 26557
L26327 26642
L25989 26979
L26355 26979
" />
<path d="M26692 26642
L26636 26614
L26608 26586
L26580 26529
L26580 26501
L26608 26445
L26636 26417
L26692 26389
L26805 26389
L26861 26417
L26889 26445
L26917 26501
L26917 26529
L26889 26586
L26861 26614
L26805 26642
L26692 26642
L26636 26670
L26608 26698
L26580 26754
L26580 26867
L26608 26923
L26636 26951
L26692 26979
L26805 26979
L26861 26951
L26889 26923
L26917 26867
L26917 26754
L26889 26698
L26861 26670
L26805 26642
" />
<path d="M27199 26951
L27199 26979
L27170 27035
L27142 27064
" />
<path d="M27564 26389
L27620 26389
L27677 26417
L27705 26445
L27733 26501
L27761 26614
L27761 26754
L27733 26867
L27705 26923
L27677 26951
L27620 26979
L27564 26979
L27508 26951
L27480 26923
L27452 26867
L27424 26754
L27424 26614
L27452 26501
L27480 26445
L27508 26417
L27564 26389
" />
<path d="M28127 26389
L28183 26389
L28239 26417
L28267 26445
L28295 26501
L28323 26614
L28323 26754
L28295 26867
L28267 26923
L28239 26951
L28183 26979
L28127 26979
L28070 26951
L28042 26923
L28014 26867
L27986 26754
L27986 26614
L28014 26501
L28042 26445
L28070 26417
L28127 26389
" />
<path d="M28689 26389
L28745 26389
L28802 26417
L28830 26445
L28858 26501
L28886 26614
L28886 26754
L28858 26867
L28830 26923
L28802 26951
L28745 26979
L28689 26979
L28633 26951
L28605 26923
L28577 26867
L28548 26754
L28548 26614
L28577 26501
L28605 26445
L28633 26417
L28689 26389
" />
<path d="M29589 26979
L29589 26586
" />
<path d="M29589 26642
L29617 26614
L29673 26586
L29758 26586
L29814 26614
L29842 26670
L29842 26979
" />
<path d="M29842 26670
L29870 26614
L29926 26586
L30011 26586
L30067 26614
L30095 26670
L30095 26979
" />
<path d="M30376 26979
L30376 26586
" />
<path d="M30376 26642
L30404 26614
L30461 26586
L30545 26586
L30601 26614
L30629 26670
L30629 26979
" />
<path d="M30629 26670
L30658 26614
L30714 26586
L30798 26586
L30854 26614
L30883 26670
L30883 26979
" />
<path d="M22952 27244
L33976 27244
" />
<path d="M22952 28385
L22952 26181
" />
<path d="M33976 28385
L33976 26181
" />
<path d="M33976 27244
L33532 27474
" />
<path d="M33976 27244
L33532 27013
" />
<path d="M22952 27244
L23396 27474
" />
<path d="M22952 27244
L23396 27013
" />
<path d="M32491 20427
L32519 20455
L32547 20511
L32547 20652
L32519 20708
L32491 20736
L32435 20764
L32379 20764
L32294 20736
L31957 20399
L31957 20764
" />
<path d="M32294 21102
L32322 21046
L32350 21017
L32407 20989
L32435 20989
L32491 21017
L32519 21046
L32547 21102
L32547 21214
L32519 21271
L32491 21299
L32435 21327
L32407 21327
L32350 21299
L32322 21271
L32294 21214
L32294 21102
L32266 21046
L32238 21017
L32182 20989
L32069 20989
L32013 21017
L31985 21046
L31957 21102
L31957 21214
L31985 21271
L32013 21299
L32069 21327
L32182 21327
L32238 21299
L32266 21271
L32294 21214
" />
<path d="M31985 21608
L31957 21608
L31901 21580
L31872 21552
" />
<path d="M32547 21974
L32547 22030
L32519 22086
L32491 22114
L32435 22142
L32322 22170
L32182 22170
L32069 22142
L32013 22114
L31985 22086
L31957 22030
L31957 21974
L31985 21917
L32013 21889
L32069 21861
L32182 21833
L32322 21833
L32435 21861
L32491 21889
L32519 21917
L32547 21974
" />
<path d="M32547 22536
L32547 22592
L32519 22649
L32491 22677
L32435 22705
L32322 22733
L32182 22733
L32069 22705
L32013 22677
L31985 22649
L31957 22592
L31957 22536
L31985 22480
L32013 22452
L32069 22424
L32182 22395
L32322 22395
L32435 22424
L32491 22452
L32519 22480
L32547 22536
" />
<path d="M32547 23098
L32547 23155
L32519 23211
L32491 23239
L32435 23267
L32322 23295
L32182 23295
L32069 23267
L32013 23239
L31985 23211
L31957 23155
L31957 23098
L31985 23042
L32013 23014
L32069 22986
L32182 22958
L32322 22958
L32435 22986
L32491 23014
L32519 23042
L32547 23098
" />
<path d="M31957 23998
L32350 23998
" />
<path d="M32294 23998
L32322 24026
L32350 24083
L32350 24167
L32322 24223
L32266 24251
L31957 24251
" />
<path d="M32266 24251
L32322 24280
L32350 24336
L32350 24420
L32322 24476
L32266 24505
L31957 24505
" />
<path d="M31957 24786
L32350 24786
" />
<path d="M32294 24786
L32322 24814
L32350 24870
L32350 24955
L32322 25011
L32266 25039
L31957 25039
" />
<path d="M32266 25039
L32322 25067
L32350 25123
L32350 25208
L32322 25264
L32266 25292
L31957 25292
" />
<path d="M32755 17362
L32755 28385
" />
<path d="M33976 17362
L31692 17362
" />
<path d="M33976 28385
L31692 28385
" />
<path d="M32755 28385
L32525 27942
" />
<path d="M32755 28385
L32986 27942
" />
<path d="M32755 17362
L32525 17805
" />
<path d="M32755 17362
L32986 17805
" />
<path d="M21681 36484
L21681 36203
L21400 36175
L21428 36203
L21456 36259
L21456 36400
L21428 36456
L21400 36484
L21344 36512
L21203 36512
L21147 36484
L21119 36456
L21091 36400
L21091 36259
L21119 36203
L21147 36175
" />
<path d="M21625 36737
L21653 36766
L21681 36822
L21681 36962
L21653 37019
L21625 37047
L21569 37075
L21512 37075
L21428 37047
L21091 36709
L21091 37075
" />
<path d="M21119 37356
L21091 37356
L21034 37328
L21006 37300
" />
<path d="M21681 37722
L21681 37778
L21653 37834
L21625 37862
L21569 37890
L21456 37919
L21316 37919
L21203 37890
L21147 37862
L21119 37834
L21091 37778
L21091 37722
L21119 37665
L21147 37637
L21203 37609
L21316 37581
L21456 37581
L21569 37609
L21625 37637
L21653 37665
L21681 37722
" />
<path d="M21681 38284
L21681 38340
L21653 38397
L21625 38425
L21569 38453
L21456 38481
L21316 38481
L21203 38453
L21147 38425
L21119 38397
L21091 38340
L21091 38284
L21119 38228
L21147 38200
L21203 38172
L21316 38143
L21456 38143
L21569 38172
L21625 38200
L21653 38228
L21681 38284
" />
<path d="M21681 38847
L21681 38903
L21653 38959
L21625 38987
L21569 39015
L21456 39043
L21316 39043
L21203 39015
L21147 38987
L21119 38959
L21091 38903
L21091 38847
L21119 38790
L21147 38762
L21203 38734
L21316 38706
L21456 38706
L21569 38734
L21625 38762
L21653 38790
L21681 38847
" />
<path d="M21091 39746
L21484 39746
" />
<path d="M21428 39746
L21456 39775
L21484 39831
L21484 39915
L21456 39971
L21400 39999
L21091 39999
" />
<path d="M21400 39999
L21456 40028
L21484 40084
L21484 40168
L21456 40224
L21400 40253
L21091 40253
" />
<path d="M21091 40534
L21484 40534
" />
<path d="M21428 40534
L21456 40562
L21484 40618
L21484 40703
L21456 40759
L21400 40787
L21091 40787
" />
<path d="M21400 40787
L21456 40815
L21484 40871
L21484 40956
L21456 41012
L21400 41040
L21091 41040
" />
<path d="M21889 28385
L21889 48858
" />
<path d="M22952 28385
L20826 28385
" />
<path d="M22952 48858
L20826 48858
" />
<path d="M21889 48858
L21658 48414
" />
<path d="M21889 48858
L22120 48414
" />
<path d="M21889 28385
L21658 28829
" />
<path d="M21889 28385
L22120 28829
" />
<path d="M27859 49893
L28225 49893
L28028 50118
L28113 50118
L28169 50146
L28197 50174
L28225 50230
L28225 50371
L28197 50427
L28169 50455
L28113 50483
L27944 50483
L27888 50455
L27859 50427
" />
<path d="M28422 49893
L28816 49893
L28562 50483
" />
<path d="M29069 50455
L29069 50483
L29041 50539
L29012 50568
" />
<path d="M29603 49893
L29322 49893
L29294 50174
L29322 50146
L29378 50118
L29519 50118
L29575 50146
L29603 50174
L29631 50230
L29631 50371
L29603 50427
L29575 50455
L29519 50483
L29378 50483
L29322 50455
L29294 50427
" />
<path d="M29997 49893
L30053 49893
L30109 49921
L30137 49949
L30165 50005
L30194 50118
L30194 50258
L30165 50371
L30137 50427
L30109 50455
L30053 50483
L29997 50483
L29940 50455
L29912 50427
L29884 50371
L29856 50258
L29856 50118
L29884 50005
L29912 49949
L29940 49921
L29997 49893
" />
<path d="M30559 49893
L30615 49893
L30672 49921
L30700 49949
L30728 50005
L30756 50118
L30756 50258
L30728 50371
L30700 50427
L30672 50455
L30615 50483
L30559 50483
L30503 50455
L30475 50427
L30447 50371
L30419 50258
L30419 50118
L30447 50005
L30475 49949
L30503 49921
L30559 49893
" />
<path d="M31459 50483
L31459 50089
" />
<path d="M31459 50146
L31487 50118
L31543 50089
L31628 50089
L31684 50118
L31712 50174
L31712 50483
" />
<path d="M31712 50174
L31740 50118
L31796 50089
L31881 50089
L31937 50118
L31965 50174
L31965 50483
" />
<path d="M32246 50483
L32246 50089
" />
<path d="M32246 50146
L32275 50118
L32331 50089
L32415 50089
L32471 50118
L32499 50174
L32499 50483
" />
<path d="M32499 50174
L32528 50118
L32584 50089
L32668 50089
L32724 50118
L32753 50174
L32753 50483
" />
<path d="M37716 49685
L22952 49685
" />
<path d="M37716 48858
L37716 50748
" />
<path d="M22952 48858
L22952 50748
" />
<path d="M22952 49685
L23396 49454
" />
<path d="M22952 49685
L23396 49915
" />
<path d="M37716 49685
L37273 49454
" />
<path d="M37716 49685
L37273 49915
" />
<path d="M35973 55241
L35944 55213
L35916 55157
L35916 55016
L35944 54960
L35973 54932
L36029 54904
L36085 54904
L36169 54932
L36507 55269
L36507 54904
" />
<path d="M35916 54538
L35916 54482
L35944 54426
L35973 54398
L36029 54370
L36141 54341
L36282 54341
L36394 54370
L36451 54398
L36479 54426
L36507 54482
L36507 54538
L36479 54595
L36451 54623
L36394 54651
L36282 54679
L36141 54679
L36029 54651
L35973 54623
L35944 54595
L35916 54538
" />
<path d="M36479 54060
L36507 54060
L36563 54088
L36591 54116
" />
<path d="M35916 53695
L35916 53638
L35944 53582
L35973 53554
L36029 53526
L36141 53498
L36282 53498
L36394 53526
L36451 53554
L36479 53582
L36507 53638
L36507 53695
L36479 53751
L36451 53779
L36394 53807
L36282 53835
L36141 53835
L36029 53807
L35973 53779
L35944 53751
L35916 53695
" />
<path d="M35916 53132
L35916 53076
L35944 53020
L35973 52992
L36029 52964
L36141 52935
L36282 52935
L36394 52964
L36451 52992
L36479 53020
L36507 53076
L36507 53132
L36479 53188
L36451 53217
L36394 53245
L36282 53273
L36141 53273
L36029 53245
L35973 53217
L35944 53188
L35916 53132
" />
<path d="M35916 52570
L35916 52514
L35944 52457
L35973 52429
L36029 52401
L36141 52373
L36282 52373
L36394 52401
L36451 52429
L36479 52457
L36507 52514
L36507 52570
L36479 52626
L36451 52654
L36394 52682
L36282 52710
L36141 52710
L36029 52682
L35973 52654
L35944 52626
L35916 52570
" />
<path d="M36507 51670
L36113 51670
" />
<path d="M36169 51670
L36141 51642
L36113 51586
L36113 51501
L36141 51445
L36197 51417
L36507 51417
" />
<path d="M36197 51417
L36141 51389
L36113 51332
L36113 51248
L36141 51192
L36197 51164
L36507 51164
" />
<path d="M36507 50883
L36113 50883
" />
<path d="M36169 50883
L36141 50854
L36113 50798
L36113 50714
L36141 50658
L36197 50629
L36507 50629
" />
<path d="M36197 50629
L36141 50601
L36113 50545
L36113 50461
L36141 50404
L36197 50376
L36507 50376
" />
<path d="M36771 56732
L36771 48858
" />
<path d="M37716 56732
L35708 56732
" />
<path d="M37716 48858
L35708 48858
" />
<path d="M36771 48858
L37002 49301
" />
<path d="M36771 48858
L36540 49301
" />
<path d="M36771 56732
L37002 56288
" />
<path d="M36771 56732
L36540 56288
" />
<path d="M55503 59381
L55165 59381
" />
<path d="M55334 59381
L55334 58790
L55278 58875
L55222 58931
L55165 58959
" />
<path d="M55868 58790
L55925 58790
L55981 58818
L56009 58847
L56037 58903
L56065 59015
L56065 59156
L56037 59268
L56009 59325
L55981 59353
L55925 59381
L55868 59381
L55812 59353
L55784 59325
L55756 59268
L55728 59156
L55728 59015
L55756 58903
L55784 58847
L55812 58818
L55868 58790
" />
<path d="M56290 58847
L56318 58818
L56375 58790
L56515 58790
L56571 58818
L56600 58847
L56628 58903
L56628 58959
L56600 59043
L56262 59381
L56628 59381
" />
<path d="M56909 59353
L56909 59381
L56881 59437
L56853 59465
" />
<path d="M57443 58790
L57162 58790
L57134 59071
L57162 59043
L57218 59015
L57359 59015
L57415 59043
L57443 59071
L57471 59128
L57471 59268
L57443 59325
L57415 59353
L57359 59381
L57218 59381
L57162 59353
L57134 59325
" />
<path d="M57837 58790
L57893 58790
L57949 58818
L57978 58847
L58006 58903
L58034 59015
L58034 59156
L58006 59268
L57978 59325
L57949 59353
L57893 59381
L57837 59381
L57781 59353
L57753 59325
L57724 59268
L57696 59156
L57696 59015
L57724 58903
L57753 58847
L57781 58818
L57837 58790
" />
<path d="M58399 58790
L58456 58790
L58512 58818
L58540 58847
L58568 58903
L58596 59015
L58596 59156
L58568 59268
L58540 59325
L58512 59353
L58456 59381
L58399 59381
L58343 59353
L58315 59325
L58287 59268
L58259 59156
L58259 59015
L58287 58903
L58315 58847
L58343 58818
L58399 58790
" />
<path d="M59299 59381
L59299 58987
" />
<path d="M59299 59043
L59327 59015
L59384 58987
L59468 58987
L59524 59015
L59552 59071
L59552 59381
" />
<path d="M59552 59071
L59580 59015
L59637 58987
L59721 58987
L59777 59015
L59805 59071
L59805 59381
" />
<path d="M60087 59381
L60087 58987
" />
<path d="M60087 59043
L60115 59015
L60171 58987
L60255 58987
L60312 59015
L60340 59071
L60340 59381
" />
<path d="M60340 59071
L60368 59015
L60424 58987
L60508 58987
L60565 59015
L60593 59071
L60593 59381
" />
<path d="M78070 58582
L37716 58582
" />
<path d="M78070 56732
L78070 59645
" />
<path d="M37716 56732
L37716 59645
" />
<path d="M37716 58582
L38160 58351
" />
<path d="M37716 58582
L38160 58813
" />
<path d="M78070 58582
L77627 58351
" />
<path d="M78070 58582
L77627 58813
" />
<path d="M80601 39437
L80601 39775
" />
<path d="M80601 39606
L80011 39606
L80095 39662
L80151 39718
L80179 39775
" />
<path d="M80011 39071
L80011 39015
L80039 38959
L80067 38931
L80123 38903
L80236 38875
L80376 38875
L80489 38903
L80545 38931
L80573 38959
L80601 39015
L80601 39071
L80573 39128
L80545 39156
L80489 39184
L80376 39212
L80236 39212
L80123 39184
L80067 39156
L80039 39128
L80011 39071
" />
<path d="M80011 38509
L80011 38453
L80039 38397
L80067 38368
L80123 38340
L80236 38312
L80376 38312
L80489 38340
L80545 38368
L80573 38397
L80601 38453
L80601 38509
L80573 38565
L80545 38593
L80489 38622
L80376 38650
L80236 38650
L80123 38622
L80067 38593
L80039 38565
L80011 38509
" />
<path d="M80573 38031
L80601 38031
L80658 38059
L80686 38087
" />
<path d="M80011 37665
L80011 37609
L80039 37553
L80067 37525
L80123 37497
L80236 37469
L80376 37469
L80489 37497
L80545 37525
L80573 37553
L80601 37609
L80601 37665
L80573 37722
L80545 37750
L80489 37778
L80376 37806
L80236 37806
L80123 37778
L80067 37750
L80039 37722
L80011 37665
" />
<path d="M80011 37103
L80011 37047
L80039 36991
L80067 36962
L80123 36934
L80236 36906
L80376 36906
L80489 36934
L80545 36962
L80573 36991
L80601 37047
L80601 37103
L80573 37159
L80545 37187
L80489 37215
L80376 37244
L80236 37244
L80123 37215
L80067 37187
L80039 37159
L80011 37103
" />
<path d="M80011 36541
L80011 36484
L80039 36428
L80067 36400
L80123 36372
L80236 36344
L80376 36344
L80489 36372
L80545 36400
L80573 36428
L80601 36484
L80601 36541
L80573 36597
L80545 36625
L80489 36653
L80376 36681
L80236 36681
L80123 36653
L80067 36625
L80039 36597
L80011 36541
" />
<path d="M80601 35641
L80208 35641
" />
<path d="M80264 35641
L80236 35613
L80208 35556
L80208 35472
L80236 35416
L80292 35388
L80601 35388
" />
<path d="M80292 35388
L80236 35359
L80208 35303
L80208 35219
L80236 35163
L80292 35134
L80601 35134
" />
<path d="M80601 34853
L80208 34853
" />
<path d="M80264 34853
L80236 34825
L80208 34769
L80208 34685
L80236 34628
L80292 34600
L80601 34600
" />
<path d="M80292 34600
L80236 34572
L80208 34516
L80208 34431
L80236 34375
L80292 34347
L80601 34347
" />
<path d="M79803 56732
L79803 17362
" />
<path d="M78070 56732
L80866 56732
" />
<path d="M78070 17362
L80866 17362
" />
<path d="M79803 17362
L80034 17805
" />
<path d="M79803 17362
L79572 17805
" />
<path d="M79803 56732
L80034 56288
" />
<path d="M79803 56732
L79572 56288
" />
<path d="M53633 15877
L53295 15877
" />
<path d="M53464 15877
L53464 15286
L53408 15371
L53352 15427
L53295 15455
" />
<path d="M54195 15877
L53858 15877
" />
<path d="M54026 15877
L54026 15286
L53970 15371
L53914 15427
L53858 15455
" />
<path d="M54420 15343
L54448 15314
L54505 15286
L54645 15286
L54701 15314
L54730 15343
L54758 15399
L54758 15455
L54730 15539
L54392 15877
L54758 15877
" />
<path d="M55039 15849
L55039 15877
L55011 15933
L54983 15961
" />
<path d="M55404 15286
L55461 15286
L55517 15314
L55545 15343
L55573 15399
L55601 15511
L55601 15652
L55573 15764
L55545 15821
L55517 15849
L55461 15877
L55404 15877
L55348 15849
L55320 15821
L55292 15764
L55264 15652
L55264 15511
L55292 15399
L55320 15343
L55348 15314
L55404 15286
" />
<path d="M55967 15286
L56023 15286
L56079 15314
L56107 15343
L56136 15399
L56164 15511
L56164 15652
L56136 15764
L56107 15821
L56079 15849
L56023 15877
L55967 15877
L55911 15849
L55883 15821
L55854 15764
L55826 15652
L55826 15511
L55854 15399
L55883 15343
L55911 15314
L55967 15286
" />
<path d="M56529 15286
L56586 15286
L56642 15314
L56670 15343
L56698 15399
L56726 15511
L56726 15652
L56698 15764
L56670 15821
L56642 15849
L56586 15877
L56529 15877
L56473 15849
L56445 15821
L56417 15764
L56389 15652
L56389 15511
L56417 15399
L56445 15343
L56473 15314
L56529 15286
" />
<path d="M57429 15877
L57429 15483
" />
<path d="M57429 15539
L57457 15511
L57514 15483
L57598 15483
L57654 15511
L57682 15568
L57682 15877
" />
<path d="M57682 15568
L57710 15511
L57767 15483
L57851 15483
L57907 15511
L57935 15568
L57935 15877
" />
<path d="M58217 15877
L58217 15483
" />
<path d="M58217 15539
L58245 15511
L58301 15483
L58385 15483
L58442 15511
L58470 15568
L58470 15877
" />
<path d="M58470 15568
L58498 15511
L58554 15483
L58638 15483
L58695 15511
L58723 15568
L58723 15877
" />
<path d="M33976 16141
L78070 16141
" />
<path d="M33976 17362
L33976 15078
" />
<path d="M78070 17362
L78070 15078
" />
<path d="M78070 16141
L77627 16372
" />
<path d="M78070 16141
L77627 15910
" />
<path d="M33976 16141
L34419 16372
" />
<path d="M33976 16141
L34419 15910
" />
</g>
<g style="fill:#C2C200; fill-opacity:0.0; 
stroke:#C2C200; stroke-width:118.11; stroke-opacity:1; 
stroke-linecap:round; stroke-linejoin:round;">
</g>
<g style="fill:#C2C200; fill-opacity:0.0; 
stroke:#C2C200; stroke-width:59.0551; stroke-opacity:1; 
stroke-linecap:round; stroke-linejoin:round;">
<path d="M22952 28385
L22952 48858
" />
<path d="M33976 17362
L78070 17362
" />
<circle cx="76102.4" cy="19330.7" r="629.921" /> 
<path d="M33976 28385
L22952 28385
" />
<path d="M33976 17362
L33976 28385
" />
<circle cx="24094.5" cy="29606.3" r="614.98" /> 
<circle cx="24291.3" cy="47598.4" r="622.496" /> 
<circle cx="76102.4" cy="54763.8" r="629.921" /> 
<path d="M37716 48858
L22952 48858
" />
<path d="M37716 56732
L37716 48858
" />
<path d="M78070 56732
L37716 56732
" />
<path d="M78070 17362
L78070 56732
" />
</g> 
</svg>
