G04 #@! TF.FileFunction,Other,Fab,Top*
%FSLAX46Y46*%
G04 Gerber Fmt 4.6, Leading zero omitted, Abs format (unit mm)*
G04 Created by KiCad (PCBNEW 4.0.6+dfsg1-1) date Sat Jan 27 22:44:56 2018*
%MOMM*%
%LPD*%
G01*
G04 APERTURE LIST*
%ADD10C,0.100000*%
G04 APERTURE END LIST*
D10*
X154850000Y-117490000D02*
X157550000Y-117490000D01*
X157550000Y-117490000D02*
X157550000Y-112290000D01*
X157550000Y-112290000D02*
X154850000Y-112290000D01*
X154850000Y-112290000D02*
X154850000Y-117490000D01*
X156200000Y-118700000D02*
X156200000Y-117490000D01*
X156200000Y-111080000D02*
X156200000Y-112290000D01*
X154850000Y-116710000D02*
X157550000Y-116710000D01*
X102750000Y-134100000D02*
G75*
G03X102750000Y-134100000I-2500000J0D01*
G01*
X103700000Y-134100000D02*
X102500000Y-134100000D01*
X103100000Y-134750000D02*
X103100000Y-133450000D01*
X188700000Y-124550000D02*
G75*
G03X188700000Y-124550000I-2500000J0D01*
G01*
X186200000Y-121100000D02*
X186200000Y-122300000D01*
X186850000Y-121700000D02*
X185550000Y-121700000D01*
X183150000Y-79340000D02*
X185650000Y-79340000D01*
X185650000Y-79340000D02*
X185650000Y-73040000D01*
X185650000Y-73040000D02*
X183150000Y-73040000D01*
X183150000Y-73040000D02*
X183150000Y-79340000D01*
X184400000Y-80000000D02*
X184400000Y-79340000D01*
X184400000Y-72380000D02*
X184400000Y-73040000D01*
X182250000Y-66060000D02*
X179750000Y-66060000D01*
X179750000Y-66060000D02*
X179750000Y-72360000D01*
X179750000Y-72360000D02*
X182250000Y-72360000D01*
X182250000Y-72360000D02*
X182250000Y-66060000D01*
X181000000Y-65400000D02*
X181000000Y-66060000D01*
X181000000Y-73020000D02*
X181000000Y-72360000D01*
X105650000Y-76060000D02*
X103150000Y-76060000D01*
X103150000Y-76060000D02*
X103150000Y-82360000D01*
X103150000Y-82360000D02*
X105650000Y-82360000D01*
X105650000Y-82360000D02*
X105650000Y-76060000D01*
X104400000Y-75400000D02*
X104400000Y-76060000D01*
X104400000Y-83020000D02*
X104400000Y-82360000D01*
X103340000Y-130750000D02*
X103340000Y-128250000D01*
X103340000Y-128250000D02*
X97040000Y-128250000D01*
X97040000Y-128250000D02*
X97040000Y-130750000D01*
X97040000Y-130750000D02*
X103340000Y-130750000D01*
X104000000Y-129500000D02*
X103340000Y-129500000D01*
X96380000Y-129500000D02*
X97040000Y-129500000D01*
X103340000Y-127350000D02*
X103340000Y-124850000D01*
X103340000Y-124850000D02*
X97040000Y-124850000D01*
X97040000Y-124850000D02*
X97040000Y-127350000D01*
X97040000Y-127350000D02*
X103340000Y-127350000D01*
X104000000Y-126100000D02*
X103340000Y-126100000D01*
X96380000Y-126100000D02*
X97040000Y-126100000D01*
X103340000Y-123950000D02*
X103340000Y-121450000D01*
X103340000Y-121450000D02*
X97040000Y-121450000D01*
X97040000Y-121450000D02*
X97040000Y-123950000D01*
X97040000Y-123950000D02*
X103340000Y-123950000D01*
X104000000Y-122700000D02*
X103340000Y-122700000D01*
X96380000Y-122700000D02*
X97040000Y-122700000D01*
X109350000Y-76060000D02*
X106850000Y-76060000D01*
X106850000Y-76060000D02*
X106850000Y-82360000D01*
X106850000Y-82360000D02*
X109350000Y-82360000D01*
X109350000Y-82360000D02*
X109350000Y-76060000D01*
X108100000Y-75400000D02*
X108100000Y-76060000D01*
X108100000Y-83020000D02*
X108100000Y-82360000D01*
X182250000Y-75960000D02*
X179750000Y-75960000D01*
X179750000Y-75960000D02*
X179750000Y-82260000D01*
X179750000Y-82260000D02*
X182250000Y-82260000D01*
X182250000Y-82260000D02*
X182250000Y-75960000D01*
X181000000Y-75300000D02*
X181000000Y-75960000D01*
X181000000Y-82920000D02*
X181000000Y-82260000D01*
X178950000Y-66060000D02*
X176450000Y-66060000D01*
X176450000Y-66060000D02*
X176450000Y-72360000D01*
X176450000Y-72360000D02*
X178950000Y-72360000D01*
X178950000Y-72360000D02*
X178950000Y-66060000D01*
X177700000Y-65400000D02*
X177700000Y-66060000D01*
X177700000Y-73020000D02*
X177700000Y-72360000D01*
X94550000Y-122850000D02*
X88800000Y-122850000D01*
X88800000Y-122850000D02*
X88800000Y-135250000D01*
X88800000Y-135250000D02*
X94550000Y-135250000D01*
X94550000Y-135250000D02*
X94550000Y-122850000D01*
X94950000Y-124950000D02*
X94950000Y-122450000D01*
X94950000Y-122450000D02*
X92450000Y-122450000D01*
X183450000Y-137250000D02*
X183450000Y-143000000D01*
X183450000Y-143000000D02*
X190850000Y-143000000D01*
X190850000Y-143000000D02*
X190850000Y-137250000D01*
X190850000Y-137250000D02*
X183450000Y-137250000D01*
X185550000Y-136850000D02*
X183050000Y-136850000D01*
X183050000Y-136850000D02*
X183050000Y-139350000D01*
X112250000Y-70650000D02*
X112250000Y-64900000D01*
X112250000Y-64900000D02*
X104850000Y-64900000D01*
X104850000Y-64900000D02*
X104850000Y-70650000D01*
X104850000Y-70650000D02*
X112250000Y-70650000D01*
X110150000Y-71050000D02*
X112650000Y-71050000D01*
X112650000Y-71050000D02*
X112650000Y-68550000D01*
X191750000Y-112450000D02*
X197500000Y-112450000D01*
X197500000Y-112450000D02*
X197500000Y-105050000D01*
X197500000Y-105050000D02*
X191750000Y-105050000D01*
X191750000Y-105050000D02*
X191750000Y-112450000D01*
X191350000Y-110350000D02*
X191350000Y-112850000D01*
X191350000Y-112850000D02*
X193850000Y-112850000D01*
X191750000Y-103250000D02*
X197500000Y-103250000D01*
X197500000Y-103250000D02*
X197500000Y-95850000D01*
X197500000Y-95850000D02*
X191750000Y-95850000D01*
X191750000Y-95850000D02*
X191750000Y-103250000D01*
X191350000Y-101150000D02*
X191350000Y-103650000D01*
X191350000Y-103650000D02*
X193850000Y-103650000D01*
X127060000Y-105750000D02*
X127060000Y-108250000D01*
X127060000Y-108250000D02*
X133360000Y-108250000D01*
X133360000Y-108250000D02*
X133360000Y-105750000D01*
X133360000Y-105750000D02*
X127060000Y-105750000D01*
X126400000Y-107000000D02*
X127060000Y-107000000D01*
X134020000Y-107000000D02*
X133360000Y-107000000D01*
X137635000Y-126530000D02*
X142985000Y-126530000D01*
X142985000Y-126530000D02*
X142985000Y-136690000D01*
X142985000Y-136690000D02*
X136635000Y-136690000D01*
X136635000Y-136690000D02*
X136635000Y-127530000D01*
X136635000Y-127530000D02*
X137635000Y-126530000D01*
X190650000Y-70450000D02*
X190650000Y-64700000D01*
X190650000Y-64700000D02*
X183250000Y-64700000D01*
X183250000Y-64700000D02*
X183250000Y-70450000D01*
X183250000Y-70450000D02*
X190650000Y-70450000D01*
X188550000Y-70850000D02*
X191050000Y-70850000D01*
X191050000Y-70850000D02*
X191050000Y-68350000D01*
X97250000Y-137550000D02*
X97250000Y-143300000D01*
X97250000Y-143300000D02*
X104650000Y-143300000D01*
X104650000Y-143300000D02*
X104650000Y-137550000D01*
X104650000Y-137550000D02*
X97250000Y-137550000D01*
X99350000Y-137150000D02*
X96850000Y-137150000D01*
X96850000Y-137150000D02*
X96850000Y-139650000D01*
X103550000Y-70650000D02*
X103550000Y-64900000D01*
X103550000Y-64900000D02*
X96150000Y-64900000D01*
X96150000Y-64900000D02*
X96150000Y-70650000D01*
X96150000Y-70650000D02*
X103550000Y-70650000D01*
X101450000Y-71050000D02*
X103950000Y-71050000D01*
X103950000Y-71050000D02*
X103950000Y-68550000D01*
X191750000Y-79850000D02*
X197500000Y-79850000D01*
X197500000Y-79850000D02*
X197500000Y-72450000D01*
X197500000Y-72450000D02*
X191750000Y-72450000D01*
X191750000Y-72450000D02*
X191750000Y-79850000D01*
X191350000Y-77750000D02*
X191350000Y-80250000D01*
X191350000Y-80250000D02*
X193850000Y-80250000D01*
X191750000Y-94050000D02*
X197500000Y-94050000D01*
X197500000Y-94050000D02*
X197500000Y-81650000D01*
X197500000Y-81650000D02*
X191750000Y-81650000D01*
X191750000Y-81650000D02*
X191750000Y-94050000D01*
X191350000Y-91950000D02*
X191350000Y-94450000D01*
X191350000Y-94450000D02*
X193850000Y-94450000D01*
X126900000Y-111600000D02*
G75*
G03X126900000Y-111600000I-2500000J0D01*
G01*
X121200000Y-111600000D02*
X122400000Y-111600000D01*
X121800000Y-110950000D02*
X121800000Y-112250000D01*
X158350000Y-112250000D02*
X160450000Y-112250000D01*
X160450000Y-112250000D02*
X160450000Y-108850000D01*
X160450000Y-108850000D02*
X158350000Y-108850000D01*
X158350000Y-108850000D02*
X158350000Y-112250000D01*
X124550000Y-108050000D02*
X124550000Y-105950000D01*
X124550000Y-105950000D02*
X121150000Y-105950000D01*
X121150000Y-105950000D02*
X121150000Y-108050000D01*
X121150000Y-108050000D02*
X124550000Y-108050000D01*
X160450000Y-117550000D02*
X158350000Y-117550000D01*
X158350000Y-117550000D02*
X158350000Y-120950000D01*
X158350000Y-120950000D02*
X160450000Y-120950000D01*
X160450000Y-120950000D02*
X160450000Y-117550000D01*
X94850000Y-71750000D02*
X89100000Y-71750000D01*
X89100000Y-71750000D02*
X89100000Y-84150000D01*
X89100000Y-84150000D02*
X94850000Y-84150000D01*
X94850000Y-84150000D02*
X94850000Y-71750000D01*
X95250000Y-73850000D02*
X95250000Y-71350000D01*
X95250000Y-71350000D02*
X92750000Y-71350000D01*
X191750000Y-126550000D02*
X197500000Y-126550000D01*
X197500000Y-126550000D02*
X197500000Y-114150000D01*
X197500000Y-114150000D02*
X191750000Y-114150000D01*
X191750000Y-114150000D02*
X191750000Y-126550000D01*
X191350000Y-124450000D02*
X191350000Y-126950000D01*
X191350000Y-126950000D02*
X193850000Y-126950000D01*
X184700000Y-103700000D02*
G75*
G03X184700000Y-103700000I-4000000J0D01*
G01*
X176600000Y-103700000D02*
X177800000Y-103700000D01*
X177200000Y-103050000D02*
X177200000Y-104350000D01*
X184300000Y-88400000D02*
G75*
G03X184300000Y-88400000I-4000000J0D01*
G01*
X176200000Y-88400000D02*
X177400000Y-88400000D01*
X176800000Y-87750000D02*
X176800000Y-89050000D01*
X140300000Y-140850000D02*
G75*
G03X140300000Y-140850000I-2500000J0D01*
G01*
X137800000Y-137400000D02*
X137800000Y-138600000D01*
X138450000Y-138000000D02*
X137150000Y-138000000D01*
X126900000Y-117500000D02*
G75*
G03X126900000Y-117500000I-2500000J0D01*
G01*
X121200000Y-117500000D02*
X122400000Y-117500000D01*
X121800000Y-116850000D02*
X121800000Y-118150000D01*
X190150000Y-87900000D02*
G75*
G03X190150000Y-87900000I-2500000J0D01*
G01*
X184200000Y-87900000D02*
X185400000Y-87900000D01*
X184800000Y-87250000D02*
X184800000Y-88550000D01*
X132750000Y-111600000D02*
G75*
G03X132750000Y-111600000I-2500000J0D01*
G01*
X126800000Y-111600000D02*
X128000000Y-111600000D01*
X127400000Y-110950000D02*
X127400000Y-112250000D01*
X138600000Y-117500000D02*
G75*
G03X138600000Y-117500000I-2500000J0D01*
G01*
X132900000Y-117500000D02*
X134100000Y-117500000D01*
X133500000Y-116850000D02*
X133500000Y-118150000D01*
X138600000Y-111600000D02*
G75*
G03X138600000Y-111600000I-2500000J0D01*
G01*
X132900000Y-111600000D02*
X134100000Y-111600000D01*
X133500000Y-110950000D02*
X133500000Y-112250000D01*
X132800000Y-117500000D02*
G75*
G03X132800000Y-117500000I-2500000J0D01*
G01*
X127100000Y-117500000D02*
X128300000Y-117500000D01*
X127700000Y-116850000D02*
X127700000Y-118150000D01*
X191750000Y-135750000D02*
X197500000Y-135750000D01*
X197500000Y-135750000D02*
X197500000Y-128350000D01*
X197500000Y-128350000D02*
X191750000Y-128350000D01*
X191750000Y-128350000D02*
X191750000Y-135750000D01*
X191350000Y-133650000D02*
X191350000Y-136150000D01*
X191350000Y-136150000D02*
X193850000Y-136150000D01*
M02*
