G04 #@! TF.FileFunction,Other,Fab,Top*
%FSLAX46Y46*%
G04 Gerber Fmt 4.6, Leading zero omitted, Abs format (unit mm)*
G04 Created by KiCad (PCBNEW 4.0.6+dfsg1-1) date Fri Mar 16 23:39:35 2018*
%MOMM*%
%LPD*%
G01*
G04 APERTURE LIST*
%ADD10C,0.100000*%
%ADD11C,0.150000*%
G04 APERTURE END LIST*
D10*
X102750000Y-134100000D02*
G75*
G03X102750000Y-134100000I-2500000J0D01*
G01*
X103700000Y-134100000D02*
X102500000Y-134100000D01*
X103100000Y-134750000D02*
X103100000Y-133450000D01*
X188700000Y-124550000D02*
G75*
G03X188700000Y-124550000I-2500000J0D01*
G01*
X186200000Y-121100000D02*
X186200000Y-122300000D01*
X186850000Y-121700000D02*
X185550000Y-121700000D01*
X183150000Y-79340000D02*
X185650000Y-79340000D01*
X185650000Y-79340000D02*
X185650000Y-73040000D01*
X185650000Y-73040000D02*
X183150000Y-73040000D01*
X183150000Y-73040000D02*
X183150000Y-79340000D01*
X184400000Y-80000000D02*
X184400000Y-79340000D01*
X184400000Y-72380000D02*
X184400000Y-73040000D01*
X182250000Y-66060000D02*
X179750000Y-66060000D01*
X179750000Y-66060000D02*
X179750000Y-72360000D01*
X179750000Y-72360000D02*
X182250000Y-72360000D01*
X182250000Y-72360000D02*
X182250000Y-66060000D01*
X181000000Y-65400000D02*
X181000000Y-66060000D01*
X181000000Y-73020000D02*
X181000000Y-72360000D01*
X105650000Y-76060000D02*
X103150000Y-76060000D01*
X103150000Y-76060000D02*
X103150000Y-82360000D01*
X103150000Y-82360000D02*
X105650000Y-82360000D01*
X105650000Y-82360000D02*
X105650000Y-76060000D01*
X104400000Y-75400000D02*
X104400000Y-76060000D01*
X104400000Y-83020000D02*
X104400000Y-82360000D01*
X103340000Y-130750000D02*
X103340000Y-128250000D01*
X103340000Y-128250000D02*
X97040000Y-128250000D01*
X97040000Y-128250000D02*
X97040000Y-130750000D01*
X97040000Y-130750000D02*
X103340000Y-130750000D01*
X104000000Y-129500000D02*
X103340000Y-129500000D01*
X96380000Y-129500000D02*
X97040000Y-129500000D01*
X103340000Y-127350000D02*
X103340000Y-124850000D01*
X103340000Y-124850000D02*
X97040000Y-124850000D01*
X97040000Y-124850000D02*
X97040000Y-127350000D01*
X97040000Y-127350000D02*
X103340000Y-127350000D01*
X104000000Y-126100000D02*
X103340000Y-126100000D01*
X96380000Y-126100000D02*
X97040000Y-126100000D01*
X103340000Y-123950000D02*
X103340000Y-121450000D01*
X103340000Y-121450000D02*
X97040000Y-121450000D01*
X97040000Y-121450000D02*
X97040000Y-123950000D01*
X97040000Y-123950000D02*
X103340000Y-123950000D01*
X104000000Y-122700000D02*
X103340000Y-122700000D01*
X96380000Y-122700000D02*
X97040000Y-122700000D01*
X109350000Y-76060000D02*
X106850000Y-76060000D01*
X106850000Y-76060000D02*
X106850000Y-82360000D01*
X106850000Y-82360000D02*
X109350000Y-82360000D01*
X109350000Y-82360000D02*
X109350000Y-76060000D01*
X108100000Y-75400000D02*
X108100000Y-76060000D01*
X108100000Y-83020000D02*
X108100000Y-82360000D01*
X182250000Y-75960000D02*
X179750000Y-75960000D01*
X179750000Y-75960000D02*
X179750000Y-82260000D01*
X179750000Y-82260000D02*
X182250000Y-82260000D01*
X182250000Y-82260000D02*
X182250000Y-75960000D01*
X181000000Y-75300000D02*
X181000000Y-75960000D01*
X181000000Y-82920000D02*
X181000000Y-82260000D01*
X178950000Y-66060000D02*
X176450000Y-66060000D01*
X176450000Y-66060000D02*
X176450000Y-72360000D01*
X176450000Y-72360000D02*
X178950000Y-72360000D01*
X178950000Y-72360000D02*
X178950000Y-66060000D01*
X177700000Y-65400000D02*
X177700000Y-66060000D01*
X177700000Y-73020000D02*
X177700000Y-72360000D01*
X94550000Y-122850000D02*
X88800000Y-122850000D01*
X88800000Y-122850000D02*
X88800000Y-135250000D01*
X88800000Y-135250000D02*
X94550000Y-135250000D01*
X94550000Y-135250000D02*
X94550000Y-122850000D01*
X94950000Y-124950000D02*
X94950000Y-122450000D01*
X94950000Y-122450000D02*
X92450000Y-122450000D01*
X183450000Y-137250000D02*
X183450000Y-143000000D01*
X183450000Y-143000000D02*
X190850000Y-143000000D01*
X190850000Y-143000000D02*
X190850000Y-137250000D01*
X190850000Y-137250000D02*
X183450000Y-137250000D01*
X185550000Y-136850000D02*
X183050000Y-136850000D01*
X183050000Y-136850000D02*
X183050000Y-139350000D01*
X112250000Y-70650000D02*
X112250000Y-64900000D01*
X112250000Y-64900000D02*
X104850000Y-64900000D01*
X104850000Y-64900000D02*
X104850000Y-70650000D01*
X104850000Y-70650000D02*
X112250000Y-70650000D01*
X110150000Y-71050000D02*
X112650000Y-71050000D01*
X112650000Y-71050000D02*
X112650000Y-68550000D01*
X191750000Y-112450000D02*
X197500000Y-112450000D01*
X197500000Y-112450000D02*
X197500000Y-105050000D01*
X197500000Y-105050000D02*
X191750000Y-105050000D01*
X191750000Y-105050000D02*
X191750000Y-112450000D01*
X191350000Y-110350000D02*
X191350000Y-112850000D01*
X191350000Y-112850000D02*
X193850000Y-112850000D01*
X191750000Y-103250000D02*
X197500000Y-103250000D01*
X197500000Y-103250000D02*
X197500000Y-95850000D01*
X197500000Y-95850000D02*
X191750000Y-95850000D01*
X191750000Y-95850000D02*
X191750000Y-103250000D01*
X191350000Y-101150000D02*
X191350000Y-103650000D01*
X191350000Y-103650000D02*
X193850000Y-103650000D01*
X127060000Y-105750000D02*
X127060000Y-108250000D01*
X127060000Y-108250000D02*
X133360000Y-108250000D01*
X133360000Y-108250000D02*
X133360000Y-105750000D01*
X133360000Y-105750000D02*
X127060000Y-105750000D01*
X126400000Y-107000000D02*
X127060000Y-107000000D01*
X134020000Y-107000000D02*
X133360000Y-107000000D01*
X137635000Y-126530000D02*
X142985000Y-126530000D01*
X142985000Y-126530000D02*
X142985000Y-136690000D01*
X142985000Y-136690000D02*
X136635000Y-136690000D01*
X136635000Y-136690000D02*
X136635000Y-127530000D01*
X136635000Y-127530000D02*
X137635000Y-126530000D01*
X190650000Y-70450000D02*
X190650000Y-64700000D01*
X190650000Y-64700000D02*
X183250000Y-64700000D01*
X183250000Y-64700000D02*
X183250000Y-70450000D01*
X183250000Y-70450000D02*
X190650000Y-70450000D01*
X188550000Y-70850000D02*
X191050000Y-70850000D01*
X191050000Y-70850000D02*
X191050000Y-68350000D01*
X97250000Y-137550000D02*
X97250000Y-143300000D01*
X97250000Y-143300000D02*
X104650000Y-143300000D01*
X104650000Y-143300000D02*
X104650000Y-137550000D01*
X104650000Y-137550000D02*
X97250000Y-137550000D01*
X99350000Y-137150000D02*
X96850000Y-137150000D01*
X96850000Y-137150000D02*
X96850000Y-139650000D01*
X103550000Y-70650000D02*
X103550000Y-64900000D01*
X103550000Y-64900000D02*
X96150000Y-64900000D01*
X96150000Y-64900000D02*
X96150000Y-70650000D01*
X96150000Y-70650000D02*
X103550000Y-70650000D01*
X101450000Y-71050000D02*
X103950000Y-71050000D01*
X103950000Y-71050000D02*
X103950000Y-68550000D01*
X191750000Y-79850000D02*
X197500000Y-79850000D01*
X197500000Y-79850000D02*
X197500000Y-72450000D01*
X197500000Y-72450000D02*
X191750000Y-72450000D01*
X191750000Y-72450000D02*
X191750000Y-79850000D01*
X191350000Y-77750000D02*
X191350000Y-80250000D01*
X191350000Y-80250000D02*
X193850000Y-80250000D01*
X191750000Y-94050000D02*
X197500000Y-94050000D01*
X197500000Y-94050000D02*
X197500000Y-81650000D01*
X197500000Y-81650000D02*
X191750000Y-81650000D01*
X191750000Y-81650000D02*
X191750000Y-94050000D01*
X191350000Y-91950000D02*
X191350000Y-94450000D01*
X191350000Y-94450000D02*
X193850000Y-94450000D01*
X126900000Y-111600000D02*
G75*
G03X126900000Y-111600000I-2500000J0D01*
G01*
X121200000Y-111600000D02*
X122400000Y-111600000D01*
X121800000Y-110950000D02*
X121800000Y-112250000D01*
X158350000Y-112250000D02*
X160450000Y-112250000D01*
X160450000Y-112250000D02*
X160450000Y-108850000D01*
X160450000Y-108850000D02*
X158350000Y-108850000D01*
X158350000Y-108850000D02*
X158350000Y-112250000D01*
X124550000Y-108050000D02*
X124550000Y-105950000D01*
X124550000Y-105950000D02*
X121150000Y-105950000D01*
X121150000Y-105950000D02*
X121150000Y-108050000D01*
X121150000Y-108050000D02*
X124550000Y-108050000D01*
X160450000Y-117550000D02*
X158350000Y-117550000D01*
X158350000Y-117550000D02*
X158350000Y-120950000D01*
X158350000Y-120950000D02*
X160450000Y-120950000D01*
X160450000Y-120950000D02*
X160450000Y-117550000D01*
X94850000Y-71750000D02*
X89100000Y-71750000D01*
X89100000Y-71750000D02*
X89100000Y-84150000D01*
X89100000Y-84150000D02*
X94850000Y-84150000D01*
X94850000Y-84150000D02*
X94850000Y-71750000D01*
X95250000Y-73850000D02*
X95250000Y-71350000D01*
X95250000Y-71350000D02*
X92750000Y-71350000D01*
X191750000Y-126550000D02*
X197500000Y-126550000D01*
X197500000Y-126550000D02*
X197500000Y-114150000D01*
X197500000Y-114150000D02*
X191750000Y-114150000D01*
X191750000Y-114150000D02*
X191750000Y-126550000D01*
X191350000Y-124450000D02*
X191350000Y-126950000D01*
X191350000Y-126950000D02*
X193850000Y-126950000D01*
X189300000Y-103700000D02*
G75*
G03X189300000Y-103700000I-4000000J0D01*
G01*
X181200000Y-103700000D02*
X182400000Y-103700000D01*
X181800000Y-103050000D02*
X181800000Y-104350000D01*
X189350000Y-92150000D02*
G75*
G03X189350000Y-92150000I-4000000J0D01*
G01*
X181250000Y-92150000D02*
X182450000Y-92150000D01*
X181850000Y-91500000D02*
X181850000Y-92800000D01*
X140300000Y-140850000D02*
G75*
G03X140300000Y-140850000I-2500000J0D01*
G01*
X137800000Y-137400000D02*
X137800000Y-138600000D01*
X138450000Y-138000000D02*
X137150000Y-138000000D01*
X126900000Y-117500000D02*
G75*
G03X126900000Y-117500000I-2500000J0D01*
G01*
X121200000Y-117500000D02*
X122400000Y-117500000D01*
X121800000Y-116850000D02*
X121800000Y-118150000D01*
X190150000Y-84450000D02*
G75*
G03X190150000Y-84450000I-2500000J0D01*
G01*
X184200000Y-84450000D02*
X185400000Y-84450000D01*
X184800000Y-83800000D02*
X184800000Y-85100000D01*
X132750000Y-111600000D02*
G75*
G03X132750000Y-111600000I-2500000J0D01*
G01*
X126800000Y-111600000D02*
X128000000Y-111600000D01*
X127400000Y-110950000D02*
X127400000Y-112250000D01*
X138600000Y-117500000D02*
G75*
G03X138600000Y-117500000I-2500000J0D01*
G01*
X132900000Y-117500000D02*
X134100000Y-117500000D01*
X133500000Y-116850000D02*
X133500000Y-118150000D01*
X138600000Y-111600000D02*
G75*
G03X138600000Y-111600000I-2500000J0D01*
G01*
X132900000Y-111600000D02*
X134100000Y-111600000D01*
X133500000Y-110950000D02*
X133500000Y-112250000D01*
X132800000Y-117500000D02*
G75*
G03X132800000Y-117500000I-2500000J0D01*
G01*
X127100000Y-117500000D02*
X128300000Y-117500000D01*
X127700000Y-116850000D02*
X127700000Y-118150000D01*
X191750000Y-135750000D02*
X197500000Y-135750000D01*
X197500000Y-135750000D02*
X197500000Y-128350000D01*
X197500000Y-128350000D02*
X191750000Y-128350000D01*
X191750000Y-128350000D02*
X191750000Y-135750000D01*
X191350000Y-133650000D02*
X191350000Y-136150000D01*
X191350000Y-136150000D02*
X193850000Y-136150000D01*
X157550000Y-112260000D02*
X154850000Y-112260000D01*
X154850000Y-112260000D02*
X154850000Y-117460000D01*
X154850000Y-117460000D02*
X157550000Y-117460000D01*
X157550000Y-117460000D02*
X157550000Y-112260000D01*
X156200000Y-111050000D02*
X156200000Y-112260000D01*
X156200000Y-118670000D02*
X156200000Y-117460000D01*
X157550000Y-113040000D02*
X154850000Y-113040000D01*
D11*
X99909524Y-115562381D02*
X100480953Y-115562381D01*
X100195238Y-116562381D02*
X100195238Y-115562381D01*
X100814286Y-116562381D02*
X100814286Y-115562381D01*
X101195239Y-115562381D01*
X101290477Y-115610000D01*
X101338096Y-115657619D01*
X101385715Y-115752857D01*
X101385715Y-115895714D01*
X101338096Y-115990952D01*
X101290477Y-116038571D01*
X101195239Y-116086190D01*
X100814286Y-116086190D01*
X102242858Y-115895714D02*
X102242858Y-116562381D01*
X102004762Y-115514762D02*
X101766667Y-116229048D01*
X102385715Y-116229048D01*
X102957143Y-115562381D02*
X103052382Y-115562381D01*
X103147620Y-115610000D01*
X103195239Y-115657619D01*
X103242858Y-115752857D01*
X103290477Y-115943333D01*
X103290477Y-116181429D01*
X103242858Y-116371905D01*
X103195239Y-116467143D01*
X103147620Y-116514762D01*
X103052382Y-116562381D01*
X102957143Y-116562381D01*
X102861905Y-116514762D01*
X102814286Y-116467143D01*
X102766667Y-116371905D01*
X102719048Y-116181429D01*
X102719048Y-115943333D01*
X102766667Y-115752857D01*
X102814286Y-115657619D01*
X102861905Y-115610000D01*
X102957143Y-115562381D01*
X104195239Y-115562381D02*
X103719048Y-115562381D01*
X103671429Y-116038571D01*
X103719048Y-115990952D01*
X103814286Y-115943333D01*
X104052382Y-115943333D01*
X104147620Y-115990952D01*
X104195239Y-116038571D01*
X104242858Y-116133810D01*
X104242858Y-116371905D01*
X104195239Y-116467143D01*
X104147620Y-116514762D01*
X104052382Y-116562381D01*
X103814286Y-116562381D01*
X103719048Y-116514762D01*
X103671429Y-116467143D01*
X105100001Y-115562381D02*
X104909524Y-115562381D01*
X104814286Y-115610000D01*
X104766667Y-115657619D01*
X104671429Y-115800476D01*
X104623810Y-115990952D01*
X104623810Y-116371905D01*
X104671429Y-116467143D01*
X104719048Y-116514762D01*
X104814286Y-116562381D01*
X105004763Y-116562381D01*
X105100001Y-116514762D01*
X105147620Y-116467143D01*
X105195239Y-116371905D01*
X105195239Y-116133810D01*
X105147620Y-116038571D01*
X105100001Y-115990952D01*
X105004763Y-115943333D01*
X104814286Y-115943333D01*
X104719048Y-115990952D01*
X104671429Y-116038571D01*
X104623810Y-116133810D01*
X165366667Y-102757143D02*
X165366667Y-102280952D01*
X165652381Y-102852381D02*
X164652381Y-102519048D01*
X165652381Y-102185714D01*
X165652381Y-101852381D02*
X164985714Y-101852381D01*
X165176190Y-101852381D02*
X165080952Y-101804762D01*
X165033333Y-101757143D01*
X164985714Y-101661905D01*
X164985714Y-101566666D01*
X165652381Y-100804761D02*
X164652381Y-100804761D01*
X165604762Y-100804761D02*
X165652381Y-100899999D01*
X165652381Y-101090476D01*
X165604762Y-101185714D01*
X165557143Y-101233333D01*
X165461905Y-101280952D01*
X165176190Y-101280952D01*
X165080952Y-101233333D01*
X165033333Y-101185714D01*
X164985714Y-101090476D01*
X164985714Y-100899999D01*
X165033333Y-100804761D01*
X164985714Y-99899999D02*
X165652381Y-99899999D01*
X164985714Y-100328571D02*
X165509524Y-100328571D01*
X165604762Y-100280952D01*
X165652381Y-100185714D01*
X165652381Y-100042856D01*
X165604762Y-99947618D01*
X165557143Y-99899999D01*
X165652381Y-99423809D02*
X164985714Y-99423809D01*
X164652381Y-99423809D02*
X164700000Y-99471428D01*
X164747619Y-99423809D01*
X164700000Y-99376190D01*
X164652381Y-99423809D01*
X164747619Y-99423809D01*
X164985714Y-98947619D02*
X165652381Y-98947619D01*
X165080952Y-98947619D02*
X165033333Y-98900000D01*
X164985714Y-98804762D01*
X164985714Y-98661904D01*
X165033333Y-98566666D01*
X165128571Y-98519047D01*
X165652381Y-98519047D01*
X165652381Y-97900000D02*
X165604762Y-97995238D01*
X165557143Y-98042857D01*
X165461905Y-98090476D01*
X165176190Y-98090476D01*
X165080952Y-98042857D01*
X165033333Y-97995238D01*
X164985714Y-97900000D01*
X164985714Y-97757142D01*
X165033333Y-97661904D01*
X165080952Y-97614285D01*
X165176190Y-97566666D01*
X165461905Y-97566666D01*
X165557143Y-97614285D01*
X165604762Y-97661904D01*
X165652381Y-97757142D01*
X165652381Y-97900000D01*
X165747619Y-97376190D02*
X165747619Y-96614285D01*
X165652381Y-96376190D02*
X164652381Y-96376190D01*
X165652381Y-95804761D01*
X164652381Y-95804761D01*
X165652381Y-94899999D02*
X165128571Y-94899999D01*
X165033333Y-94947618D01*
X164985714Y-95042856D01*
X164985714Y-95233333D01*
X165033333Y-95328571D01*
X165604762Y-94899999D02*
X165652381Y-94995237D01*
X165652381Y-95233333D01*
X165604762Y-95328571D01*
X165509524Y-95376190D01*
X165414286Y-95376190D01*
X165319048Y-95328571D01*
X165271429Y-95233333D01*
X165271429Y-94995237D01*
X165223810Y-94899999D01*
X164985714Y-94423809D02*
X165652381Y-94423809D01*
X165080952Y-94423809D02*
X165033333Y-94376190D01*
X164985714Y-94280952D01*
X164985714Y-94138094D01*
X165033333Y-94042856D01*
X165128571Y-93995237D01*
X165652381Y-93995237D01*
X165652381Y-93376190D02*
X165604762Y-93471428D01*
X165557143Y-93519047D01*
X165461905Y-93566666D01*
X165176190Y-93566666D01*
X165080952Y-93519047D01*
X165033333Y-93471428D01*
X164985714Y-93376190D01*
X164985714Y-93233332D01*
X165033333Y-93138094D01*
X165080952Y-93090475D01*
X165176190Y-93042856D01*
X165461905Y-93042856D01*
X165557143Y-93090475D01*
X165604762Y-93138094D01*
X165652381Y-93233332D01*
X165652381Y-93376190D01*
X120147619Y-73202381D02*
X120147619Y-72202381D01*
X120480953Y-72916667D01*
X120814286Y-72202381D01*
X120814286Y-73202381D01*
X121290476Y-73202381D02*
X121290476Y-72535714D01*
X121290476Y-72202381D02*
X121242857Y-72250000D01*
X121290476Y-72297619D01*
X121338095Y-72250000D01*
X121290476Y-72202381D01*
X121290476Y-72297619D01*
X122195238Y-73154762D02*
X122100000Y-73202381D01*
X121909523Y-73202381D01*
X121814285Y-73154762D01*
X121766666Y-73107143D01*
X121719047Y-73011905D01*
X121719047Y-72726190D01*
X121766666Y-72630952D01*
X121814285Y-72583333D01*
X121909523Y-72535714D01*
X122100000Y-72535714D01*
X122195238Y-72583333D01*
X122623809Y-73202381D02*
X122623809Y-72535714D01*
X122623809Y-72726190D02*
X122671428Y-72630952D01*
X122719047Y-72583333D01*
X122814285Y-72535714D01*
X122909524Y-72535714D01*
X123385714Y-73202381D02*
X123290476Y-73154762D01*
X123242857Y-73107143D01*
X123195238Y-73011905D01*
X123195238Y-72726190D01*
X123242857Y-72630952D01*
X123290476Y-72583333D01*
X123385714Y-72535714D01*
X123528572Y-72535714D01*
X123623810Y-72583333D01*
X123671429Y-72630952D01*
X123719048Y-72726190D01*
X123719048Y-73011905D01*
X123671429Y-73107143D01*
X123623810Y-73154762D01*
X123528572Y-73202381D01*
X123385714Y-73202381D01*
X123909524Y-73297619D02*
X124671429Y-73297619D01*
X124909524Y-72202381D02*
X124909524Y-73011905D01*
X124957143Y-73107143D01*
X125004762Y-73154762D01*
X125100000Y-73202381D01*
X125290477Y-73202381D01*
X125385715Y-73154762D01*
X125433334Y-73107143D01*
X125480953Y-73011905D01*
X125480953Y-72202381D01*
X125909524Y-73154762D02*
X126052381Y-73202381D01*
X126290477Y-73202381D01*
X126385715Y-73154762D01*
X126433334Y-73107143D01*
X126480953Y-73011905D01*
X126480953Y-72916667D01*
X126433334Y-72821429D01*
X126385715Y-72773810D01*
X126290477Y-72726190D01*
X126100000Y-72678571D01*
X126004762Y-72630952D01*
X125957143Y-72583333D01*
X125909524Y-72488095D01*
X125909524Y-72392857D01*
X125957143Y-72297619D01*
X126004762Y-72250000D01*
X126100000Y-72202381D01*
X126338096Y-72202381D01*
X126480953Y-72250000D01*
X127242858Y-72678571D02*
X127385715Y-72726190D01*
X127433334Y-72773810D01*
X127480953Y-72869048D01*
X127480953Y-73011905D01*
X127433334Y-73107143D01*
X127385715Y-73154762D01*
X127290477Y-73202381D01*
X126909524Y-73202381D01*
X126909524Y-72202381D01*
X127242858Y-72202381D01*
X127338096Y-72250000D01*
X127385715Y-72297619D01*
X127433334Y-72392857D01*
X127433334Y-72488095D01*
X127385715Y-72583333D01*
X127338096Y-72630952D01*
X127242858Y-72678571D01*
X126909524Y-72678571D01*
X127671429Y-73297619D02*
X128433334Y-73297619D01*
X128671429Y-73202381D02*
X128671429Y-72202381D01*
X128671429Y-72678571D02*
X129242858Y-72678571D01*
X129242858Y-73202381D02*
X129242858Y-72202381D01*
X130147620Y-72535714D02*
X130147620Y-73202381D01*
X129719048Y-72535714D02*
X129719048Y-73059524D01*
X129766667Y-73154762D01*
X129861905Y-73202381D01*
X130004763Y-73202381D01*
X130100001Y-73154762D01*
X130147620Y-73107143D01*
X130623810Y-73202381D02*
X130623810Y-72202381D01*
X130623810Y-72583333D02*
X130719048Y-72535714D01*
X130909525Y-72535714D01*
X131004763Y-72583333D01*
X131052382Y-72630952D01*
X131100001Y-72726190D01*
X131100001Y-73011905D01*
X131052382Y-73107143D01*
X131004763Y-73154762D01*
X130909525Y-73202381D01*
X130719048Y-73202381D01*
X130623810Y-73154762D01*
X154242381Y-115121905D02*
X153242381Y-115121905D01*
X153242381Y-114883810D01*
X153290000Y-114740952D01*
X153385238Y-114645714D01*
X153480476Y-114598095D01*
X153670952Y-114550476D01*
X153813810Y-114550476D01*
X154004286Y-114598095D01*
X154099524Y-114645714D01*
X154194762Y-114740952D01*
X154242381Y-114883810D01*
X154242381Y-115121905D01*
M02*
